<?xml version="1.0" encoding="UTF-8" standalone="no"?><svg xmlns="http://www.w3.org/2000/svg" xmlns:xlink="http://www.w3.org/1999/xlink" contentScriptType="application/ecmascript" contentStyleType="text/css" height="250px" preserveAspectRatio="none" style="width:714px;height:250px;background:#FFFFFF;" version="1.1" viewBox="0 0 714 250" width="714px" zoomAndPan="magnify"><defs><filter height="300%" id="f1dgbatlzc539r" width="300%" x="-1" y="-1"><feGaussianBlur result="blurOut" stdDeviation="2.0"/><feColorMatrix in="blurOut" result="blurOut2" type="matrix" values="0 0 0 0 0 0 0 0 0 0 0 0 0 0 0 0 0 0 .4 0"/><feOffset dx="4.0" dy="4.0" in="blurOut2" result="blurOut3"/><feBlend in="SourceGraphic" in2="blurOut3" mode="normal"/></filter></defs><g><rect fill="#FFFFFF" filter="url(#f1dgbatlzc539r)" height="50.2656" style="stroke:#A80036;stroke-width:1.0;" width="10" x="57" y="98.2969"/><rect fill="#FFFFFF" filter="url(#f1dgbatlzc539r)" height="29.1328" style="stroke:#A80036;stroke-width:1.0;" width="10" x="661" y="119.4297"/><line style="stroke:#A80036;stroke-width:1.0;stroke-dasharray:5.0,5.0;" x1="62" x2="62" y1="88.2969" y2="166.5625"/><line style="stroke:#A80036;stroke-width:1.0;stroke-dasharray:5.0,5.0;" x1="665.5" x2="665.5" y1="88.2969" y2="166.5625"/><text fill="#000000" font-family="sans-serif" font-size="14" lengthAdjust="spacing" textLength="108" x="5" y="84.9951">TrafficManager</text><ellipse cx="62" cy="15" fill="#FEFECE" filter="url(#f1dgbatlzc539r)" rx="8" ry="8" style="stroke:#A80036;stroke-width:2.0;"/><path d="M62,23 L62,50 M49,31 L75,31 M62,50 L49,65 M62,50 L75,65 " fill="none" filter="url(#f1dgbatlzc539r)" style="stroke:#A80036;stroke-width:2.0;"/><text fill="#000000" font-family="sans-serif" font-size="14" lengthAdjust="spacing" textLength="108" x="5" y="178.5576">TrafficManager</text><ellipse cx="62" cy="191.8594" fill="#FEFECE" filter="url(#f1dgbatlzc539r)" rx="8" ry="8" style="stroke:#A80036;stroke-width:2.0;"/><path d="M62,199.8594 L62,226.8594 M49,207.8594 L75,207.8594 M62,226.8594 L49,241.8594 M62,226.8594 L75,241.8594 " fill="none" filter="url(#f1dgbatlzc539r)" style="stroke:#A80036;stroke-width:2.0;"/><rect fill="#FEFECE" filter="url(#f1dgbatlzc539r)" height="30.2969" style="stroke:#A80036;stroke-width:1.5;" width="73" x="627.5" y="53"/><text fill="#000000" font-family="sans-serif" font-size="14" lengthAdjust="spacing" textLength="59" x="634.5" y="72.9951">:System</text><rect fill="#FEFECE" filter="url(#f1dgbatlzc539r)" height="30.2969" style="stroke:#A80036;stroke-width:1.5;" width="73" x="627.5" y="165.5625"/><text fill="#000000" font-family="sans-serif" font-size="14" lengthAdjust="spacing" textLength="59" x="634.5" y="185.5576">:System</text><rect fill="#FFFFFF" filter="url(#f1dgbatlzc539r)" height="50.2656" style="stroke:#A80036;stroke-width:1.0;" width="10" x="57" y="98.2969"/><rect fill="#FFFFFF" filter="url(#f1dgbatlzc539r)" height="29.1328" style="stroke:#A80036;stroke-width:1.0;" width="10" x="661" y="119.4297"/><polygon fill="#A80036" points="649,115.4297,659,119.4297,649,123.4297,653,119.4297" style="stroke:#A80036;stroke-width:1.0;"/><line style="stroke:#A80036;stroke-width:1.0;" x1="67" x2="655" y1="119.4297" y2="119.4297"/><text fill="#000000" font-family="sans-serif" font-size="13" font-weight="bold" lengthAdjust="spacing" textLength="9" x="74" y="114.3638">1</text><text fill="#000000" font-family="sans-serif" font-size="13" lengthAdjust="spacing" textLength="562" x="87" y="114.3638">wants the top-N ships with the most kilometres travelled and their MeanSOG in a period</text><polygon fill="#A80036" points="73,144.5625,63,148.5625,73,152.5625,69,148.5625" style="stroke:#A80036;stroke-width:1.0;"/><line style="stroke:#A80036;stroke-width:1.0;" x1="67" x2="665" y1="148.5625" y2="148.5625"/><text fill="#000000" font-family="sans-serif" font-size="13" font-weight="bold" lengthAdjust="spacing" textLength="9" x="79" y="143.4966">2</text><text fill="#000000" font-family="sans-serif" font-size="13" lengthAdjust="spacing" textLength="264" x="92" y="143.4966">return the ships, grouped by Vessel Type</text><!--MD5=[44e1c4bbe65da45acffc5c9aa17a4bdf]
@startuml
autonumber
actor "TrafficManager" as ADMIN

activate ADMIN
ADMIN-> ":System" : wants the top-N ships with the most kilometres travelled and their MeanSOG in a period
activate ":System"
ADMIN <- ":System" : return the ships, grouped by Vessel Type
deactivate ":System"


deactivate ADMIN
@enduml

PlantUML version 1.2021.13beta8(Unknown compile time)
(GPL source distribution)
Java Runtime: Java(TM) SE Runtime Environment
JVM: Java HotSpot(TM) 64-Bit Server VM
Default Encoding: UTF-8
Language: en
Country: US
--></g></svg>