<?xml version="1.0" encoding="UTF-8" standalone="no"?><svg xmlns="http://www.w3.org/2000/svg" xmlns:xlink="http://www.w3.org/1999/xlink" contentScriptType="application/ecmascript" contentStyleType="text/css" height="999px" preserveAspectRatio="none" style="width:361px;height:999px;background:#FFFFFF;" version="1.1" viewBox="0 0 361 999" width="361px" zoomAndPan="magnify"><defs><filter height="300%" id="ffaj6zm7whdoo" width="300%" x="-1" y="-1"><feGaussianBlur result="blurOut" stdDeviation="2.0"/><feColorMatrix in="blurOut" result="blurOut2" type="matrix" values="0 0 0 0 0 0 0 0 0 0 0 0 0 0 0 0 0 0 .4 0"/><feOffset dx="4.0" dy="4.0" in="blurOut2" result="blurOut3"/><feBlend in="SourceGraphic" in2="blurOut3" mode="normal"/></filter></defs><g><!--MD5=[a8812570607be6b5ac10bc1f3fdf4853]
class GetTopNShips--><rect codeLine="3" fill="#FEFECE" filter="url(#ffaj6zm7whdoo)" height="60.8047" id="GetTopNShips" style="stroke:#A80036;stroke-width:1.5;" width="305" x="27.5" y="7"/><ellipse cx="133.25" cy="23" fill="#ADD1B2" rx="11" ry="11" style="stroke:#A80036;stroke-width:1.0;"/><path d="M135.5938,18.6719 C134.6563,18.2344 134.0625,18.0938 133.1875,18.0938 C130.5625,18.0938 128.5625,20.1719 128.5625,22.8906 L128.5625,24.0156 C128.5625,26.5938 130.6719,28.4844 133.5625,28.4844 C134.7813,28.4844 135.9375,28.1875 136.6875,27.6406 C137.2656,27.2344 137.5938,26.7813 137.5938,26.3906 C137.5938,25.9375 137.2031,25.5469 136.7344,25.5469 C136.5156,25.5469 136.3125,25.625 136.125,25.8125 C135.6719,26.2969 135.6719,26.2969 135.4844,26.3906 C135.0625,26.6563 134.375,26.7813 133.6094,26.7813 C131.5625,26.7813 130.2656,25.6875 130.2656,23.9844 L130.2656,22.8906 C130.2656,21.1094 131.5156,19.7969 133.25,19.7969 C133.8281,19.7969 134.4375,19.9531 134.9063,20.2031 C135.3906,20.4844 135.5625,20.7031 135.6563,21.1094 C135.7188,21.5156 135.75,21.6406 135.8906,21.7656 C136.0313,21.9063 136.2656,22.0156 136.4844,22.0156 C136.75,22.0156 137.0156,21.875 137.1875,21.6563 C137.2969,21.5 137.3281,21.3125 137.3281,20.8906 L137.3281,19.4688 C137.3281,19.0313 137.3125,18.9063 137.2188,18.75 C137.0625,18.4844 136.7813,18.3438 136.4844,18.3438 C136.1875,18.3438 135.9844,18.4375 135.7656,18.75 L135.5938,18.6719 Z " fill="#000000"/><text fill="#000000" font-family="sans-serif" font-size="12" lengthAdjust="spacing" textLength="85" x="153.75" y="27.1543">GetTopNShips</text><line style="stroke:#A80036;stroke-width:1.5;" x1="28.5" x2="331.5" y1="39" y2="39"/><line style="stroke:#A80036;stroke-width:1.5;" x1="28.5" x2="331.5" y1="47" y2="47"/><text fill="#000000" font-family="sans-serif" font-size="11" lengthAdjust="spacing" textLength="293" x="33.5" y="61.2104">+getTopNShips(n,baseDateTime1,baseDateTime2)</text><!--MD5=[02e4b9b7573f1156f41e60aa5b4e25a4]
class Company--><rect codeLine="6" fill="#FEFECE" filter="url(#ffaj6zm7whdoo)" height="73.6094" id="Company" style="stroke:#A80036;stroke-width:1.5;" width="119" x="120.5" y="249"/><ellipse cx="149.45" cy="265" fill="#ADD1B2" rx="11" ry="11" style="stroke:#A80036;stroke-width:1.0;"/><path d="M151.7938,260.6719 C150.8563,260.2344 150.2625,260.0938 149.3875,260.0938 C146.7625,260.0938 144.7625,262.1719 144.7625,264.8906 L144.7625,266.0156 C144.7625,268.5938 146.8719,270.4844 149.7625,270.4844 C150.9813,270.4844 152.1375,270.1875 152.8875,269.6406 C153.4656,269.2344 153.7938,268.7813 153.7938,268.3906 C153.7938,267.9375 153.4031,267.5469 152.9344,267.5469 C152.7156,267.5469 152.5125,267.625 152.325,267.8125 C151.8719,268.2969 151.8719,268.2969 151.6844,268.3906 C151.2625,268.6563 150.575,268.7813 149.8094,268.7813 C147.7625,268.7813 146.4656,267.6875 146.4656,265.9844 L146.4656,264.8906 C146.4656,263.1094 147.7156,261.7969 149.45,261.7969 C150.0281,261.7969 150.6375,261.9531 151.1063,262.2031 C151.5906,262.4844 151.7625,262.7031 151.8563,263.1094 C151.9188,263.5156 151.95,263.6406 152.0906,263.7656 C152.2313,263.9063 152.4656,264.0156 152.6844,264.0156 C152.95,264.0156 153.2156,263.875 153.3875,263.6563 C153.4969,263.5 153.5281,263.3125 153.5281,262.8906 L153.5281,261.4688 C153.5281,261.0313 153.5125,260.9063 153.4188,260.75 C153.2625,260.4844 152.9813,260.3438 152.6844,260.3438 C152.3875,260.3438 152.1844,260.4375 151.9656,260.75 L151.7938,260.6719 Z " fill="#000000"/><text fill="#000000" font-family="sans-serif" font-size="12" lengthAdjust="spacing" textLength="56" x="166.55" y="269.1543">Company</text><line style="stroke:#A80036;stroke-width:1.5;" x1="121.5" x2="238.5" y1="281" y2="281"/><text fill="#000000" font-family="sans-serif" font-size="11" lengthAdjust="spacing" textLength="107" x="126.5" y="295.2104">-String designation</text><line style="stroke:#A80036;stroke-width:1.5;" x1="121.5" x2="238.5" y1="301.8047" y2="301.8047"/><text fill="#000000" font-family="sans-serif" font-size="11" lengthAdjust="spacing" textLength="95" x="126.5" y="316.0151">+getShipStore();</text><!--MD5=[d8a5c6f12add15b22e781f1f574c705d]
class ShipController--><rect codeLine="11" fill="#FEFECE" filter="url(#ffaj6zm7whdoo)" height="60.8047" id="ShipController" style="stroke:#A80036;stroke-width:1.5;" width="305" x="27.5" y="128"/><ellipse cx="133.25" cy="144" fill="#ADD1B2" rx="11" ry="11" style="stroke:#A80036;stroke-width:1.0;"/><path d="M135.5938,139.6719 C134.6563,139.2344 134.0625,139.0938 133.1875,139.0938 C130.5625,139.0938 128.5625,141.1719 128.5625,143.8906 L128.5625,145.0156 C128.5625,147.5938 130.6719,149.4844 133.5625,149.4844 C134.7813,149.4844 135.9375,149.1875 136.6875,148.6406 C137.2656,148.2344 137.5938,147.7813 137.5938,147.3906 C137.5938,146.9375 137.2031,146.5469 136.7344,146.5469 C136.5156,146.5469 136.3125,146.625 136.125,146.8125 C135.6719,147.2969 135.6719,147.2969 135.4844,147.3906 C135.0625,147.6563 134.375,147.7813 133.6094,147.7813 C131.5625,147.7813 130.2656,146.6875 130.2656,144.9844 L130.2656,143.8906 C130.2656,142.1094 131.5156,140.7969 133.25,140.7969 C133.8281,140.7969 134.4375,140.9531 134.9063,141.2031 C135.3906,141.4844 135.5625,141.7031 135.6563,142.1094 C135.7188,142.5156 135.75,142.6406 135.8906,142.7656 C136.0313,142.9063 136.2656,143.0156 136.4844,143.0156 C136.75,143.0156 137.0156,142.875 137.1875,142.6563 C137.2969,142.5 137.3281,142.3125 137.3281,141.8906 L137.3281,140.4688 C137.3281,140.0313 137.3125,139.9063 137.2188,139.75 C137.0625,139.4844 136.7813,139.3438 136.4844,139.3438 C136.1875,139.3438 135.9844,139.4375 135.7656,139.75 L135.5938,139.6719 Z " fill="#000000"/><text fill="#000000" font-family="sans-serif" font-size="12" lengthAdjust="spacing" textLength="85" x="153.75" y="148.1543">ShipController</text><line style="stroke:#A80036;stroke-width:1.5;" x1="28.5" x2="331.5" y1="160" y2="160"/><line style="stroke:#A80036;stroke-width:1.5;" x1="28.5" x2="331.5" y1="168" y2="168"/><text fill="#000000" font-family="sans-serif" font-size="11" lengthAdjust="spacing" textLength="293" x="33.5" y="182.2104">+getTopNShips(n,baseDateTime1,baseDateTime2)</text><!--MD5=[ea2206eefe09474e90beb17e18e6b3d8]
class ShipStore--><rect codeLine="15" fill="#FEFECE" filter="url(#ffaj6zm7whdoo)" height="73.6094" id="ShipStore" style="stroke:#A80036;stroke-width:1.5;" width="305" x="27.5" y="383"/><ellipse cx="146.25" cy="399" fill="#ADD1B2" rx="11" ry="11" style="stroke:#A80036;stroke-width:1.0;"/><path d="M148.5938,394.6719 C147.6563,394.2344 147.0625,394.0938 146.1875,394.0938 C143.5625,394.0938 141.5625,396.1719 141.5625,398.8906 L141.5625,400.0156 C141.5625,402.5938 143.6719,404.4844 146.5625,404.4844 C147.7813,404.4844 148.9375,404.1875 149.6875,403.6406 C150.2656,403.2344 150.5938,402.7813 150.5938,402.3906 C150.5938,401.9375 150.2031,401.5469 149.7344,401.5469 C149.5156,401.5469 149.3125,401.625 149.125,401.8125 C148.6719,402.2969 148.6719,402.2969 148.4844,402.3906 C148.0625,402.6563 147.375,402.7813 146.6094,402.7813 C144.5625,402.7813 143.2656,401.6875 143.2656,399.9844 L143.2656,398.8906 C143.2656,397.1094 144.5156,395.7969 146.25,395.7969 C146.8281,395.7969 147.4375,395.9531 147.9063,396.2031 C148.3906,396.4844 148.5625,396.7031 148.6563,397.1094 C148.7188,397.5156 148.75,397.6406 148.8906,397.7656 C149.0313,397.9063 149.2656,398.0156 149.4844,398.0156 C149.75,398.0156 150.0156,397.875 150.1875,397.6563 C150.2969,397.5 150.3281,397.3125 150.3281,396.8906 L150.3281,395.4688 C150.3281,395.0313 150.3125,394.9063 150.2188,394.75 C150.0625,394.4844 149.7813,394.3438 149.4844,394.3438 C149.1875,394.3438 148.9844,394.4375 148.7656,394.75 L148.5938,394.6719 Z " fill="#000000"/><text fill="#000000" font-family="sans-serif" font-size="12" lengthAdjust="spacing" textLength="59" x="166.75" y="403.1543">ShipStore</text><line style="stroke:#A80036;stroke-width:1.5;" x1="28.5" x2="331.5" y1="415" y2="415"/><text fill="#000000" font-family="sans-serif" font-size="11" lengthAdjust="spacing" textLength="140" x="33.5" y="429.2104">+BST &lt;Ship&gt; shipStore;</text><line style="stroke:#A80036;stroke-width:1.5;" x1="28.5" x2="331.5" y1="435.8047" y2="435.8047"/><text fill="#000000" font-family="sans-serif" font-size="11" lengthAdjust="spacing" textLength="293" x="33.5" y="450.0151">+getTopNShips(n,baseDateTime1,baseDateTime2)</text><!--MD5=[0dc7f2ddb409b58bcf52b12238c25399]
class Ship--><rect codeLine="22" fill="#FEFECE" filter="url(#ffaj6zm7whdoo)" height="99.2188" id="Ship" style="stroke:#A80036;stroke-width:1.5;" width="212" x="74" y="517"/><ellipse cx="162.75" cy="533" fill="#ADD1B2" rx="11" ry="11" style="stroke:#A80036;stroke-width:1.0;"/><path d="M165.0938,528.6719 C164.1563,528.2344 163.5625,528.0938 162.6875,528.0938 C160.0625,528.0938 158.0625,530.1719 158.0625,532.8906 L158.0625,534.0156 C158.0625,536.5938 160.1719,538.4844 163.0625,538.4844 C164.2813,538.4844 165.4375,538.1875 166.1875,537.6406 C166.7656,537.2344 167.0938,536.7813 167.0938,536.3906 C167.0938,535.9375 166.7031,535.5469 166.2344,535.5469 C166.0156,535.5469 165.8125,535.625 165.625,535.8125 C165.1719,536.2969 165.1719,536.2969 164.9844,536.3906 C164.5625,536.6563 163.875,536.7813 163.1094,536.7813 C161.0625,536.7813 159.7656,535.6875 159.7656,533.9844 L159.7656,532.8906 C159.7656,531.1094 161.0156,529.7969 162.75,529.7969 C163.3281,529.7969 163.9375,529.9531 164.4063,530.2031 C164.8906,530.4844 165.0625,530.7031 165.1563,531.1094 C165.2188,531.5156 165.25,531.6406 165.3906,531.7656 C165.5313,531.9063 165.7656,532.0156 165.9844,532.0156 C166.25,532.0156 166.5156,531.875 166.6875,531.6563 C166.7969,531.5 166.8281,531.3125 166.8281,530.8906 L166.8281,529.4688 C166.8281,529.0313 166.8125,528.9063 166.7188,528.75 C166.5625,528.4844 166.2813,528.3438 165.9844,528.3438 C165.6875,528.3438 165.4844,528.4375 165.2656,528.75 L165.0938,528.6719 Z " fill="#000000"/><text fill="#000000" font-family="sans-serif" font-size="12" lengthAdjust="spacing" textLength="26" x="183.25" y="537.1543">Ship</text><line style="stroke:#A80036;stroke-width:1.5;" x1="75" x2="285" y1="549" y2="549"/><text fill="#000000" font-family="sans-serif" font-size="11" lengthAdjust="spacing" textLength="117" x="80" y="563.2104">-Identification shipId;</text><text fill="#000000" font-family="sans-serif" font-size="11" lengthAdjust="spacing" textLength="200" x="80" y="576.0151">-ShipCharacteristics characteristics;</text><text fill="#000000" font-family="sans-serif" font-size="11" lengthAdjust="spacing" textLength="74" x="80" y="588.8198">-Route route;</text><text fill="#000000" font-family="sans-serif" font-size="11" lengthAdjust="spacing" textLength="9" x="80" y="601.6245">...</text><line style="stroke:#A80036;stroke-width:1.5;" x1="75" x2="285" y1="608.2188" y2="608.2188"/><!--MD5=[fc92a9f5bb5fae84dd7fa4034e6b4444]
class Route--><rect codeLine="29" fill="#FEFECE" filter="url(#ffaj6zm7whdoo)" height="99.2188" id="Route" style="stroke:#A80036;stroke-width:1.5;" width="158" x="7" y="682.5"/><ellipse cx="64.75" cy="698.5" fill="#ADD1B2" rx="11" ry="11" style="stroke:#A80036;stroke-width:1.0;"/><path d="M67.0938,694.1719 C66.1563,693.7344 65.5625,693.5938 64.6875,693.5938 C62.0625,693.5938 60.0625,695.6719 60.0625,698.3906 L60.0625,699.5156 C60.0625,702.0938 62.1719,703.9844 65.0625,703.9844 C66.2813,703.9844 67.4375,703.6875 68.1875,703.1406 C68.7656,702.7344 69.0938,702.2813 69.0938,701.8906 C69.0938,701.4375 68.7031,701.0469 68.2344,701.0469 C68.0156,701.0469 67.8125,701.125 67.625,701.3125 C67.1719,701.7969 67.1719,701.7969 66.9844,701.8906 C66.5625,702.1563 65.875,702.2813 65.1094,702.2813 C63.0625,702.2813 61.7656,701.1875 61.7656,699.4844 L61.7656,698.3906 C61.7656,696.6094 63.0156,695.2969 64.75,695.2969 C65.3281,695.2969 65.9375,695.4531 66.4063,695.7031 C66.8906,695.9844 67.0625,696.2031 67.1563,696.6094 C67.2188,697.0156 67.25,697.1406 67.3906,697.2656 C67.5313,697.4063 67.7656,697.5156 67.9844,697.5156 C68.25,697.5156 68.5156,697.375 68.6875,697.1563 C68.7969,697 68.8281,696.8125 68.8281,696.3906 L68.8281,694.9688 C68.8281,694.5313 68.8125,694.4063 68.7188,694.25 C68.5625,693.9844 68.2813,693.8438 67.9844,693.8438 C67.6875,693.8438 67.4844,693.9375 67.2656,694.25 L67.0938,694.1719 Z " fill="#000000"/><text fill="#000000" font-family="sans-serif" font-size="12" lengthAdjust="spacing" textLength="34" x="85.25" y="702.6543">Route</text><line style="stroke:#A80036;stroke-width:1.5;" x1="8" x2="164" y1="714.5" y2="714.5"/><text fill="#000000" font-family="sans-serif" font-size="11" lengthAdjust="spacing" textLength="146" x="13" y="728.7104">List&lt;ShipDynamic&gt; route</text><text fill="#000000" font-family="sans-serif" font-size="11" lengthAdjust="spacing" textLength="9" x="13" y="741.5151">...</text><line style="stroke:#A80036;stroke-width:1.5;" x1="8" x2="164" y1="748.1094" y2="748.1094"/><text fill="#000000" font-family="sans-serif" font-size="11" lengthAdjust="spacing" textLength="96" x="13" y="762.3198">+getMeanSOG();</text><text fill="#000000" font-family="sans-serif" font-size="11" lengthAdjust="spacing" textLength="140" x="13" y="775.1245">+getTravelledDistance()</text><!--MD5=[19c2b9eb46691e25b02426140995a460]
class ShipDynamic--><rect codeLine="36" fill="#FEFECE" filter="url(#ffaj6zm7whdoo)" height="137.6328" id="ShipDynamic" style="stroke:#A80036;stroke-width:1.5;" width="146" x="13" y="848"/><ellipse cx="44.65" cy="864" fill="#ADD1B2" rx="11" ry="11" style="stroke:#A80036;stroke-width:1.0;"/><path d="M46.9938,859.6719 C46.0563,859.2344 45.4625,859.0938 44.5875,859.0938 C41.9625,859.0938 39.9625,861.1719 39.9625,863.8906 L39.9625,865.0156 C39.9625,867.5938 42.0719,869.4844 44.9625,869.4844 C46.1813,869.4844 47.3375,869.1875 48.0875,868.6406 C48.6656,868.2344 48.9938,867.7813 48.9938,867.3906 C48.9938,866.9375 48.6031,866.5469 48.1344,866.5469 C47.9156,866.5469 47.7125,866.625 47.525,866.8125 C47.0719,867.2969 47.0719,867.2969 46.8844,867.3906 C46.4625,867.6563 45.775,867.7813 45.0094,867.7813 C42.9625,867.7813 41.6656,866.6875 41.6656,864.9844 L41.6656,863.8906 C41.6656,862.1094 42.9156,860.7969 44.65,860.7969 C45.2281,860.7969 45.8375,860.9531 46.3063,861.2031 C46.7906,861.4844 46.9625,861.7031 47.0563,862.1094 C47.1188,862.5156 47.15,862.6406 47.2906,862.7656 C47.4313,862.9063 47.6656,863.0156 47.8844,863.0156 C48.15,863.0156 48.4156,862.875 48.5875,862.6563 C48.6969,862.5 48.7281,862.3125 48.7281,861.8906 L48.7281,860.4688 C48.7281,860.0313 48.7125,859.9063 48.6188,859.75 C48.4625,859.4844 48.1813,859.3438 47.8844,859.3438 C47.5875,859.3438 47.3844,859.4375 47.1656,859.75 L46.9938,859.6719 Z " fill="#000000"/><text fill="#000000" font-family="sans-serif" font-size="12" lengthAdjust="spacing" textLength="77" x="62.35" y="868.1543">ShipDynamic</text><line style="stroke:#A80036;stroke-width:1.5;" x1="14" x2="158" y1="880" y2="880"/><text fill="#000000" font-family="sans-serif" font-size="11" lengthAdjust="spacing" textLength="125" x="19" y="894.2104">String baseDateTime;</text><text fill="#000000" font-family="sans-serif" font-size="11" lengthAdjust="spacing" textLength="98" x="19" y="907.0151">Location location;</text><text fill="#000000" font-family="sans-serif" font-size="11" lengthAdjust="spacing" textLength="71" x="19" y="919.8198">String cargo;</text><text fill="#000000" font-family="sans-serif" font-size="11" lengthAdjust="spacing" textLength="131" x="19" y="932.6245">Movement movement;</text><text fill="#000000" font-family="sans-serif" font-size="11" lengthAdjust="spacing" textLength="134" x="19" y="945.4292">String transceiverClass;</text><line style="stroke:#A80036;stroke-width:1.5;" x1="14" x2="158" y1="952.0234" y2="952.0234"/><text fill="#000000" font-family="sans-serif" font-size="11" lengthAdjust="spacing" textLength="125" x="19" y="966.2339">+getBaseDateTime();</text><text fill="#000000" font-family="sans-serif" font-size="11" lengthAdjust="spacing" textLength="86" x="19" y="979.0386">+getLocation();</text><!--MD5=[9a305ff8ded9dfea1b145311e23eef54]
class ShipCharacteristics--><rect codeLine="46" fill="#FEFECE" filter="url(#ffaj6zm7whdoo)" height="112.0234" id="ShipCharacteristics" style="stroke:#A80036;stroke-width:1.5;" width="147" x="200.5" y="676"/><ellipse cx="215.5" cy="692" fill="#ADD1B2" rx="11" ry="11" style="stroke:#A80036;stroke-width:1.0;"/><path d="M217.8438,687.6719 C216.9063,687.2344 216.3125,687.0938 215.4375,687.0938 C212.8125,687.0938 210.8125,689.1719 210.8125,691.8906 L210.8125,693.0156 C210.8125,695.5938 212.9219,697.4844 215.8125,697.4844 C217.0313,697.4844 218.1875,697.1875 218.9375,696.6406 C219.5156,696.2344 219.8438,695.7813 219.8438,695.3906 C219.8438,694.9375 219.4531,694.5469 218.9844,694.5469 C218.7656,694.5469 218.5625,694.625 218.375,694.8125 C217.9219,695.2969 217.9219,695.2969 217.7344,695.3906 C217.3125,695.6563 216.625,695.7813 215.8594,695.7813 C213.8125,695.7813 212.5156,694.6875 212.5156,692.9844 L212.5156,691.8906 C212.5156,690.1094 213.7656,688.7969 215.5,688.7969 C216.0781,688.7969 216.6875,688.9531 217.1563,689.2031 C217.6406,689.4844 217.8125,689.7031 217.9063,690.1094 C217.9688,690.5156 218,690.6406 218.1406,690.7656 C218.2813,690.9063 218.5156,691.0156 218.7344,691.0156 C219,691.0156 219.2656,690.875 219.4375,690.6563 C219.5469,690.5 219.5781,690.3125 219.5781,689.8906 L219.5781,688.4688 C219.5781,688.0313 219.5625,687.9063 219.4688,687.75 C219.3125,687.4844 219.0313,687.3438 218.7344,687.3438 C218.4375,687.3438 218.2344,687.4375 218.0156,687.75 L217.8438,687.6719 Z " fill="#000000"/><text fill="#000000" font-family="sans-serif" font-size="12" lengthAdjust="spacing" textLength="115" x="229.5" y="696.1543">ShipCharacteristics</text><line style="stroke:#A80036;stroke-width:1.5;" x1="201.5" x2="346.5" y1="708" y2="708"/><text fill="#000000" font-family="sans-serif" font-size="11" lengthAdjust="spacing" textLength="88" x="206.5" y="722.2104">int vesselType;</text><text fill="#000000" font-family="sans-serif" font-size="11" lengthAdjust="spacing" textLength="82" x="206.5" y="735.0151">double length;</text><text fill="#000000" font-family="sans-serif" font-size="11" lengthAdjust="spacing" textLength="76" x="206.5" y="747.8198">double width;</text><text fill="#000000" font-family="sans-serif" font-size="11" lengthAdjust="spacing" textLength="72" x="206.5" y="760.6245">double draft;</text><text fill="#000000" font-family="sans-serif" font-size="11" lengthAdjust="spacing" textLength="9" x="206.5" y="773.4292">...</text><line style="stroke:#A80036;stroke-width:1.5;" x1="201.5" x2="346.5" y1="780.0234" y2="780.0234"/><!--MD5=[ea990eed389dbfb1408c0194faba7c92]
link GetTopNShips to ShipController--><path codeLine="53" d="M180,68.222 C180,84.692 180,105.264 180,122.508 " fill="none" id="GetTopNShips-to-ShipController" style="stroke:#A80036;stroke-width:1.0;stroke-dasharray:7.0,7.0;"/><polygon fill="#A80036" points="180,127.745,184,118.745,180,122.745,176,118.745,180,127.745" style="stroke:#A80036;stroke-width:1.0;"/><!--MD5=[bf74851aff38bc49bd5171b1d2f8ce12]
link ShipController to Company--><path codeLine="54" d="M180,189.242 C180,205.401 180,225.644 180,243.349 " fill="none" id="ShipController-to-Company" style="stroke:#A80036;stroke-width:1.0;stroke-dasharray:7.0,7.0;"/><polygon fill="#A80036" points="180,248.755,184,239.755,180,243.755,176,239.755,180,248.755" style="stroke:#A80036;stroke-width:1.0;"/><!--MD5=[6b4a94d80660e97c6833bde801bd4c89]
link Company to ShipStore--><path codeLine="55" d="M180,323.07 C180,339.949 180,360.142 180,377.638 " fill="none" id="Company-to-ShipStore" style="stroke:#A80036;stroke-width:1.0;"/><polygon fill="#A80036" points="180,382.974,184,373.974,180,377.974,176,373.974,180,382.974" style="stroke:#A80036;stroke-width:1.0;"/><!--MD5=[bd668f20969913e971975f69d50ab766]
link Ship to Route--><path codeLine="56" d="M152.051,616.113 C140.882,635.541 127.984,657.974 116.567,677.833 " fill="none" id="Ship-to-Route" style="stroke:#A80036;stroke-width:1.0;"/><polygon fill="#A80036" points="114.003,682.292,121.9567,676.4835,116.4952,677.9574,115.0213,672.4959,114.003,682.292" style="stroke:#A80036;stroke-width:1.0;"/><!--MD5=[6e2bf1b581922c3b45ac635d439704bd]
link Route to ShipDynamic--><path codeLine="57" d="M86,781.56 C86,800.302 86,822.153 86,842.723 " fill="none" id="Route-to-ShipDynamic" style="stroke:#A80036;stroke-width:1.0;"/><polygon fill="#A80036" points="86,847.923,90,838.923,86,842.923,82,838.923,86,847.923" style="stroke:#A80036;stroke-width:1.0;"/><!--MD5=[cea53bfc3a0979f95c62d6169ab9fc2e]
link Ship to ShipCharacteristics--><path codeLine="58" d="M207.949,616.113 C217.927,633.468 229.284,653.222 239.733,671.397 " fill="none" id="Ship-to-ShipCharacteristics" style="stroke:#A80036;stroke-width:1.0;"/><polygon fill="#A80036" points="242.368,675.981,241.3483,666.1851,239.8752,671.6467,234.4135,670.1736,242.368,675.981" style="stroke:#A80036;stroke-width:1.0;"/><!--MD5=[f04e04ecc6998d67821b33eb17256457]
link ShipStore to Ship--><path codeLine="61" d="M180,457.091 C180,473.595 180,493.492 180,511.71 " fill="none" id="ShipStore-to-Ship" style="stroke:#A80036;stroke-width:1.0;"/><polygon fill="#A80036" points="180,516.799,184,507.799,180,511.799,176,507.799,180,516.799" style="stroke:#A80036;stroke-width:1.0;"/><!--MD5=[fd3ce495484efd13a09c004710512576]
@startuml
skinparam classAttributeIconSize 0

class GetTopNShips {
+getTopNShips(n,baseDateTime1,baseDateTime2)
}
class Company {
  -String designation
  +getShipStore();
}

class ShipController {
+getTopNShips(n,baseDateTime1,baseDateTime2)
}

class ShipStore {
+BST <Ship> shipStore;
+getTopNShips(n,baseDateTime1,baseDateTime2)


}

class Ship {
-Identification shipId;
-ShipCharacteristics characteristics;
-Route route;
...
}

class Route {
List<ShipDynamic> route
+getMeanSOG();
+getTravelledDistance()
...
}

class ShipDynamic {
String baseDateTime;
Location location;
String cargo;
Movement movement;
String transceiverClass;
+getBaseDateTime();
+getLocation();
}

class ShipCharacteristics {
int vesselType;
double length;
double width;
double draft;
...
}
GetTopNShips ..> ShipController
ShipController ..> Company
Company - -> ShipStore
Ship - -> Route
Route - -> ShipDynamic
Ship - -> ShipCharacteristics


ShipStore - -> Ship
@enduml

PlantUML version 1.2021.13beta8(Unknown compile time)
(GPL source distribution)
Java Runtime: Java(TM) SE Runtime Environment
JVM: Java HotSpot(TM) 64-Bit Server VM
Default Encoding: UTF-8
Language: en
Country: US
--></g></svg>