<?xml version="1.0" encoding="UTF-8" standalone="no"?><svg xmlns="http://www.w3.org/2000/svg" xmlns:xlink="http://www.w3.org/1999/xlink" contentScriptType="application/ecmascript" contentStyleType="text/css" height="209px" preserveAspectRatio="none" style="width:811px;height:209px;background:#FFFFFF;" version="1.1" viewBox="0 0 811 209" width="811px" zoomAndPan="magnify"><defs><filter height="300%" id="fy61hqnnh8ac1" width="300%" x="-1" y="-1"><feGaussianBlur result="blurOut" stdDeviation="2.0"/><feColorMatrix in="blurOut" result="blurOut2" type="matrix" values="0 0 0 0 0 0 0 0 0 0 0 0 0 0 0 0 0 0 .4 0"/><feOffset dx="4.0" dy="4.0" in="blurOut2" result="blurOut3"/><feBlend in="SourceGraphic" in2="blurOut3" mode="normal"/></filter></defs><g><!--MD5=[0dc7f2ddb409b58bcf52b12238c25399]
class Ship--><rect codeLine="3" fill="#FEFECE" filter="url(#fy61hqnnh8ac1)" height="188.8516" id="Ship" style="stroke:#A80036;stroke-width:1.5;" width="177" x="412" y="7"/><ellipse cx="483.25" cy="23" fill="#ADD1B2" rx="11" ry="11" style="stroke:#A80036;stroke-width:1.0;"/><path d="M485.5938,18.6719 C484.6563,18.2344 484.0625,18.0938 483.1875,18.0938 C480.5625,18.0938 478.5625,20.1719 478.5625,22.8906 L478.5625,24.0156 C478.5625,26.5938 480.6719,28.4844 483.5625,28.4844 C484.7813,28.4844 485.9375,28.1875 486.6875,27.6406 C487.2656,27.2344 487.5938,26.7813 487.5938,26.3906 C487.5938,25.9375 487.2031,25.5469 486.7344,25.5469 C486.5156,25.5469 486.3125,25.625 486.125,25.8125 C485.6719,26.2969 485.6719,26.2969 485.4844,26.3906 C485.0625,26.6563 484.375,26.7813 483.6094,26.7813 C481.5625,26.7813 480.2656,25.6875 480.2656,23.9844 L480.2656,22.8906 C480.2656,21.1094 481.5156,19.7969 483.25,19.7969 C483.8281,19.7969 484.4375,19.9531 484.9063,20.2031 C485.3906,20.4844 485.5625,20.7031 485.6563,21.1094 C485.7188,21.5156 485.75,21.6406 485.8906,21.7656 C486.0313,21.9063 486.2656,22.0156 486.4844,22.0156 C486.75,22.0156 487.0156,21.875 487.1875,21.6563 C487.2969,21.5 487.3281,21.3125 487.3281,20.8906 L487.3281,19.4688 C487.3281,19.0313 487.3125,18.9063 487.2188,18.75 C487.0625,18.4844 486.7813,18.3438 486.4844,18.3438 C486.1875,18.3438 485.9844,18.4375 485.7656,18.75 L485.5938,18.6719 Z " fill="#000000"/><text fill="#000000" font-family="sans-serif" font-size="12" lengthAdjust="spacing" textLength="26" x="503.75" y="27.1543">Ship</text><line style="stroke:#A80036;stroke-width:1.5;" x1="413" x2="588" y1="39" y2="39"/><text fill="#000000" font-family="sans-serif" font-size="11" lengthAdjust="spacing" textLength="33" x="418" y="53.2104">-MMSI</text><text fill="#000000" font-family="sans-serif" font-size="11" lengthAdjust="spacing" textLength="37" x="418" y="66.0151">-name</text><text fill="#000000" font-family="sans-serif" font-size="11" lengthAdjust="spacing" textLength="81" x="418" y="78.8198">-IMOIDnumber</text><text fill="#000000" font-family="sans-serif" font-size="11" lengthAdjust="spacing" textLength="165" x="418" y="91.6245">-numberOfEnergyGenerators</text><text fill="#000000" font-family="sans-serif" font-size="11" lengthAdjust="spacing" textLength="132" x="418" y="104.4292">-generatorPowerOutput</text><text fill="#000000" font-family="sans-serif" font-size="11" lengthAdjust="spacing" textLength="48" x="418" y="117.2339">-callSign</text><text fill="#000000" font-family="sans-serif" font-size="11" lengthAdjust="spacing" textLength="101" x="418" y="130.0386">-vesselTypeCode</text><text fill="#000000" font-family="sans-serif" font-size="11" lengthAdjust="spacing" textLength="34" x="418" y="142.8433">-width</text><text fill="#000000" font-family="sans-serif" font-size="11" lengthAdjust="spacing" textLength="40" x="418" y="155.6479">-length</text><text fill="#000000" font-family="sans-serif" font-size="11" lengthAdjust="spacing" textLength="51" x="418" y="168.4526">-capacity</text><text fill="#000000" font-family="sans-serif" font-size="11" lengthAdjust="spacing" textLength="30" x="418" y="181.2573">-draft</text><line style="stroke:#A80036;stroke-width:1.5;" x1="413" x2="588" y1="187.8516" y2="187.8516"/><!--MD5=[ddaf6f62b0bc30921877ec9fb9463c9f]
class TrafficManager--><rect codeLine="17" fill="#FEFECE" filter="url(#fy61hqnnh8ac1)" height="73.6094" id="TrafficManager" style="stroke:#A80036;stroke-width:1.5;" width="121" x="7" y="16.5"/><ellipse cx="22" cy="32.5" fill="#ADD1B2" rx="11" ry="11" style="stroke:#A80036;stroke-width:1.0;"/><path d="M24.3438,28.1719 C23.4063,27.7344 22.8125,27.5938 21.9375,27.5938 C19.3125,27.5938 17.3125,29.6719 17.3125,32.3906 L17.3125,33.5156 C17.3125,36.0938 19.4219,37.9844 22.3125,37.9844 C23.5313,37.9844 24.6875,37.6875 25.4375,37.1406 C26.0156,36.7344 26.3438,36.2813 26.3438,35.8906 C26.3438,35.4375 25.9531,35.0469 25.4844,35.0469 C25.2656,35.0469 25.0625,35.125 24.875,35.3125 C24.4219,35.7969 24.4219,35.7969 24.2344,35.8906 C23.8125,36.1563 23.125,36.2813 22.3594,36.2813 C20.3125,36.2813 19.0156,35.1875 19.0156,33.4844 L19.0156,32.3906 C19.0156,30.6094 20.2656,29.2969 22,29.2969 C22.5781,29.2969 23.1875,29.4531 23.6563,29.7031 C24.1406,29.9844 24.3125,30.2031 24.4063,30.6094 C24.4688,31.0156 24.5,31.1406 24.6406,31.2656 C24.7813,31.4063 25.0156,31.5156 25.2344,31.5156 C25.5,31.5156 25.7656,31.375 25.9375,31.1563 C26.0469,31 26.0781,30.8125 26.0781,30.3906 L26.0781,28.9688 C26.0781,28.5313 26.0625,28.4063 25.9688,28.25 C25.8125,27.9844 25.5313,27.8438 25.2344,27.8438 C24.9375,27.8438 24.7344,27.9375 24.5156,28.25 L24.3438,28.1719 Z " fill="#000000"/><text fill="#000000" font-family="sans-serif" font-size="12" lengthAdjust="spacing" textLength="89" x="36" y="36.6543">TrafficManager</text><line style="stroke:#A80036;stroke-width:1.5;" x1="8" x2="127" y1="48.5" y2="48.5"/><text fill="#000000" font-family="sans-serif" font-size="11" lengthAdjust="spacing" textLength="41" x="13" y="62.7104">-userID</text><text fill="#000000" font-family="sans-serif" font-size="11" lengthAdjust="spacing" textLength="37" x="13" y="75.5151">-name</text><line style="stroke:#A80036;stroke-width:1.5;" x1="8" x2="127" y1="82.1094" y2="82.1094"/><!--MD5=[19c2b9eb46691e25b02426140995a460]
class ShipDynamic--><rect codeLine="21" fill="#FEFECE" filter="url(#fy61hqnnh8ac1)" height="150.4375" id="ShipDynamic" style="stroke:#A80036;stroke-width:1.5;" width="110" x="687" y="26.5"/><ellipse cx="702.45" cy="42.5" fill="#ADD1B2" rx="11" ry="11" style="stroke:#A80036;stroke-width:1.0;"/><path d="M704.7938,38.1719 C703.8563,37.7344 703.2625,37.5938 702.3875,37.5938 C699.7625,37.5938 697.7625,39.6719 697.7625,42.3906 L697.7625,43.5156 C697.7625,46.0938 699.8719,47.9844 702.7625,47.9844 C703.9813,47.9844 705.1375,47.6875 705.8875,47.1406 C706.4656,46.7344 706.7938,46.2813 706.7938,45.8906 C706.7938,45.4375 706.4031,45.0469 705.9344,45.0469 C705.7156,45.0469 705.5125,45.125 705.325,45.3125 C704.8719,45.7969 704.8719,45.7969 704.6844,45.8906 C704.2625,46.1563 703.575,46.2813 702.8094,46.2813 C700.7625,46.2813 699.4656,45.1875 699.4656,43.4844 L699.4656,42.3906 C699.4656,40.6094 700.7156,39.2969 702.45,39.2969 C703.0281,39.2969 703.6375,39.4531 704.1063,39.7031 C704.5906,39.9844 704.7625,40.2031 704.8563,40.6094 C704.9188,41.0156 704.95,41.1406 705.0906,41.2656 C705.2313,41.4063 705.4656,41.5156 705.6844,41.5156 C705.95,41.5156 706.2156,41.375 706.3875,41.1563 C706.4969,41 706.5281,40.8125 706.5281,40.3906 L706.5281,38.9688 C706.5281,38.5313 706.5125,38.4063 706.4188,38.25 C706.2625,37.9844 705.9813,37.8438 705.6844,37.8438 C705.3875,37.8438 705.1844,37.9375 704.9656,38.25 L704.7938,38.1719 Z " fill="#000000"/><text fill="#000000" font-family="sans-serif" font-size="12" lengthAdjust="spacing" textLength="77" x="716.55" y="46.6543">ShipDynamic</text><line style="stroke:#A80036;stroke-width:1.5;" x1="688" x2="796" y1="58.5" y2="58.5"/><text fill="#000000" font-family="sans-serif" font-size="11" lengthAdjust="spacing" textLength="89" x="693" y="72.7104">-baseDateTime</text><text fill="#000000" font-family="sans-serif" font-size="11" lengthAdjust="spacing" textLength="47" x="693" y="85.5151">-latitude</text><text fill="#000000" font-family="sans-serif" font-size="11" lengthAdjust="spacing" textLength="57" x="693" y="98.3198">-longitude</text><text fill="#000000" font-family="sans-serif" font-size="11" lengthAdjust="spacing" textLength="30" x="693" y="111.1245">-SOG</text><text fill="#000000" font-family="sans-serif" font-size="11" lengthAdjust="spacing" textLength="30" x="693" y="123.9292">-COG</text><text fill="#000000" font-family="sans-serif" font-size="11" lengthAdjust="spacing" textLength="50" x="693" y="136.7339">-heading</text><text fill="#000000" font-family="sans-serif" font-size="11" lengthAdjust="spacing" textLength="48" x="693" y="149.5386">-position</text><text fill="#000000" font-family="sans-serif" font-size="11" lengthAdjust="spacing" textLength="98" x="693" y="162.3433">-transceiverClass</text><line style="stroke:#A80036;stroke-width:1.5;" x1="688" x2="796" y1="168.9375" y2="168.9375"/><!--MD5=[02e4b9b7573f1156f41e60aa5b4e25a4]
class Company--><rect fill="#FEFECE" filter="url(#fy61hqnnh8ac1)" height="48" id="Company" style="stroke:#A80036;stroke-width:1.5;" width="88" x="23.5" y="125.5"/><ellipse cx="38.5" cy="141.5" fill="#ADD1B2" rx="11" ry="11" style="stroke:#A80036;stroke-width:1.0;"/><path d="M40.8438,137.1719 C39.9063,136.7344 39.3125,136.5938 38.4375,136.5938 C35.8125,136.5938 33.8125,138.6719 33.8125,141.3906 L33.8125,142.5156 C33.8125,145.0938 35.9219,146.9844 38.8125,146.9844 C40.0313,146.9844 41.1875,146.6875 41.9375,146.1406 C42.5156,145.7344 42.8438,145.2813 42.8438,144.8906 C42.8438,144.4375 42.4531,144.0469 41.9844,144.0469 C41.7656,144.0469 41.5625,144.125 41.375,144.3125 C40.9219,144.7969 40.9219,144.7969 40.7344,144.8906 C40.3125,145.1563 39.625,145.2813 38.8594,145.2813 C36.8125,145.2813 35.5156,144.1875 35.5156,142.4844 L35.5156,141.3906 C35.5156,139.6094 36.7656,138.2969 38.5,138.2969 C39.0781,138.2969 39.6875,138.4531 40.1563,138.7031 C40.6406,138.9844 40.8125,139.2031 40.9063,139.6094 C40.9688,140.0156 41,140.1406 41.1406,140.2656 C41.2813,140.4063 41.5156,140.5156 41.7344,140.5156 C42,140.5156 42.2656,140.375 42.4375,140.1563 C42.5469,140 42.5781,139.8125 42.5781,139.3906 L42.5781,137.9688 C42.5781,137.5313 42.5625,137.4063 42.4688,137.25 C42.3125,136.9844 42.0313,136.8438 41.7344,136.8438 C41.4375,136.8438 41.2344,136.9375 41.0156,137.25 L40.8438,137.1719 Z " fill="#000000"/><text fill="#000000" font-family="sans-serif" font-size="12" lengthAdjust="spacing" textLength="56" x="52.5" y="145.6543">Company</text><line style="stroke:#A80036;stroke-width:1.5;" x1="24.5" x2="110.5" y1="157.5" y2="157.5"/><line style="stroke:#A80036;stroke-width:1.5;" x1="24.5" x2="110.5" y1="165.5" y2="165.5"/><!--MD5=[40e2b5717560220ad35e84810a8f1b44]
link TrafficManager to Ship--><path codeLine="31" d="M128.429,60.174 C200.546,68.206 322.437,81.781 406.736,91.169 " fill="none" id="TrafficManager-to-Ship" style="stroke:#A80036;stroke-width:1.0;"/><polygon fill="#A80036" points="411.729,91.725,403.2264,86.7545,406.7597,91.1722,402.3419,94.7055,411.729,91.725" style="stroke:#A80036;stroke-width:1.0;"/><polygon fill="#000000" points="167.9693,56.6198,159.3051,52.6978,158.6545,58.5395,167.9693,56.6198" style="stroke:#000000;stroke-width:1.0;"/><text fill="#000000" font-family="sans-serif" font-size="13" lengthAdjust="spacing" textLength="209" x="172" y="60.5669">organizes and checks position of</text><text fill="#000000" font-family="sans-serif" font-size="13" lengthAdjust="spacing" textLength="8" x="135.9364" y="73.91">1</text><text fill="#000000" font-family="sans-serif" font-size="13" lengthAdjust="spacing" textLength="23" x="381.052" y="103.6285">1..*</text><!--MD5=[8583745bb24b47a487169e52c1194ad0]
link Ship to ShipDynamic--><path codeLine="33" d="M589.321,101.5 C620.113,101.5 653.943,101.5 681.825,101.5 " fill="none" id="Ship-to-ShipDynamic" style="stroke:#A80036;stroke-width:1.0;"/><polygon fill="#A80036" points="686.96,101.5,677.96,97.5,681.96,101.5,677.96,105.5,686.96,101.5" style="stroke:#A80036;stroke-width:1.0;"/><polygon fill="#000000" points="629,93.0664,619.9549,90.1275,619.9549,96.0053,629,93.0664" style="stroke:#000000;stroke-width:1.0;"/><text fill="#000000" font-family="sans-serif" font-size="13" lengthAdjust="spacing" textLength="23" x="633" y="97.5669">has</text><text fill="#000000" font-family="sans-serif" font-size="13" lengthAdjust="spacing" textLength="8" x="597.0077" y="114.1996">1</text><text fill="#000000" font-family="sans-serif" font-size="13" lengthAdjust="spacing" textLength="23" x="655.8504" y="114.4624">1..*</text><!--MD5=[37a14a5de6d6fd738aee271300f4b5c8]
link Company to Ship--><path codeLine="34" d="M111.799,144.6778 C180.413,137.0364 315.674,121.9725 406.861,111.8171 " fill="none" id="Company-to-Ship" style="stroke:#A80036;stroke-width:1.0;"/><polygon fill="#A80036" points="411.985,111.2464,402.5971,108.2687,407.0158,111.8007,403.4839,116.2194,411.985,111.2464" style="stroke:#A80036;stroke-width:1.0;"/><polygon fill="#000000" points="255.4693,107.513,246.1545,105.5933,246.8051,111.435,255.4693,107.513" style="stroke:#000000;stroke-width:1.0;"/><text fill="#000000" font-family="sans-serif" font-size="13" lengthAdjust="spacing" textLength="34" x="259.5" y="112.5669">owns</text><text fill="#000000" font-family="sans-serif" font-size="13" lengthAdjust="spacing" textLength="8" x="119.4967" y="157.1821">1</text><text fill="#000000" font-family="sans-serif" font-size="13" lengthAdjust="spacing" textLength="23" x="381.0151" y="124.6988">1..*</text><!--MD5=[8a9d5be6abeb815d4947b3769a06d822]
@startuml
skinparam classAttributeIconSize 0
left to right direction
class Ship {
-MMSI
-name
-IMOIDnumber
-numberOfEnergyGenerators
-generatorPowerOutput
-callSign
-vesselTypeCode
-width
-length
-capacity
-draft
}

class TrafficManager{
-userID
-name
}
class ShipDynamic{
-baseDateTime
-latitude
-longitude
-SOG
-COG
-heading
-position
-transceiverClass
}
TrafficManager "1" - -> "1..*" Ship : organizes and checks position of >

Ship "1" - -> "1..*" ShipDynamic : has >
Company"1" - -> "1..*" Ship : owns >
@enduml

PlantUML version 1.2021.13beta8(Unknown compile time)
(GPL source distribution)
Java Runtime: Java(TM) SE Runtime Environment
JVM: Java HotSpot(TM) 64-Bit Server VM
Default Encoding: UTF-8
Language: en
Country: US
--></g></svg>