<?xml version="1.0" encoding="UTF-8" standalone="no"?><svg xmlns="http://www.w3.org/2000/svg" xmlns:xlink="http://www.w3.org/1999/xlink" contentScriptType="application/ecmascript" contentStyleType="text/css" height="575px" preserveAspectRatio="none" style="width:642px;height:575px;background:#FFFFFF;" version="1.1" viewBox="0 0 642 575" width="642px" zoomAndPan="magnify"><defs><filter height="300%" id="f1w8tyav0q8a87" width="300%" x="-1" y="-1"><feGaussianBlur result="blurOut" stdDeviation="2.0"/><feColorMatrix in="blurOut" result="blurOut2" type="matrix" values="0 0 0 0 0 0 0 0 0 0 0 0 0 0 0 0 0 0 .4 0"/><feOffset dx="4.0" dy="4.0" in="blurOut2" result="blurOut3"/><feBlend in="SourceGraphic" in2="blurOut3" mode="normal"/></filter></defs><g><!--MD5=[e9a58730c562b34349daa605d1ed6662]
class Container--><rect codeLine="2" fill="#FEFECE" filter="url(#f1w8tyav0q8a87)" height="137.6328" id="Container" style="stroke:#A80036;stroke-width:1.5;" width="161" x="173" y="7"/><ellipse cx="220.75" cy="23" fill="#ADD1B2" rx="11" ry="11" style="stroke:#A80036;stroke-width:1.0;"/><path d="M223.0938,18.6719 C222.1563,18.2344 221.5625,18.0938 220.6875,18.0938 C218.0625,18.0938 216.0625,20.1719 216.0625,22.8906 L216.0625,24.0156 C216.0625,26.5938 218.1719,28.4844 221.0625,28.4844 C222.2813,28.4844 223.4375,28.1875 224.1875,27.6406 C224.7656,27.2344 225.0938,26.7813 225.0938,26.3906 C225.0938,25.9375 224.7031,25.5469 224.2344,25.5469 C224.0156,25.5469 223.8125,25.625 223.625,25.8125 C223.1719,26.2969 223.1719,26.2969 222.9844,26.3906 C222.5625,26.6563 221.875,26.7813 221.1094,26.7813 C219.0625,26.7813 217.7656,25.6875 217.7656,23.9844 L217.7656,22.8906 C217.7656,21.1094 219.0156,19.7969 220.75,19.7969 C221.3281,19.7969 221.9375,19.9531 222.4063,20.2031 C222.8906,20.4844 223.0625,20.7031 223.1563,21.1094 C223.2188,21.5156 223.25,21.6406 223.3906,21.7656 C223.5313,21.9063 223.7656,22.0156 223.9844,22.0156 C224.25,22.0156 224.5156,21.875 224.6875,21.6563 C224.7969,21.5 224.8281,21.3125 224.8281,20.8906 L224.8281,19.4688 C224.8281,19.0313 224.8125,18.9063 224.7188,18.75 C224.5625,18.4844 224.2813,18.3438 223.9844,18.3438 C223.6875,18.3438 223.4844,18.4375 223.2656,18.75 L223.0938,18.6719 Z " fill="#000000"/><text fill="#000000" font-family="sans-serif" font-size="12" lengthAdjust="spacing" textLength="57" x="241.25" y="27.1543">Container</text><line style="stroke:#A80036;stroke-width:1.5;" x1="174" x2="333" y1="39" y2="39"/><text fill="#000000" font-family="sans-serif" font-size="11" lengthAdjust="spacing" textLength="69" x="179" y="53.2104">-containerID</text><text fill="#000000" font-family="sans-serif" font-size="11" lengthAdjust="spacing" textLength="49" x="179" y="66.0151">-payload</text><text fill="#000000" font-family="sans-serif" font-size="11" lengthAdjust="spacing" textLength="27" x="179" y="78.8198">-tare</text><text fill="#000000" font-family="sans-serif" font-size="11" lengthAdjust="spacing" textLength="34" x="179" y="91.6245">-gross</text><text fill="#000000" font-family="sans-serif" font-size="11" lengthAdjust="spacing" textLength="54" x="179" y="104.4292">-ISOCode</text><text fill="#000000" font-family="sans-serif" font-size="11" lengthAdjust="spacing" textLength="40" x="179" y="117.2339">-length</text><text fill="#000000" font-family="sans-serif" font-size="11" lengthAdjust="spacing" textLength="149" x="179" y="130.0386">-refrigerationTemperature</text><line style="stroke:#A80036;stroke-width:1.5;" x1="174" x2="333" y1="136.6328" y2="136.6328"/><!--MD5=[0dc7f2ddb409b58bcf52b12238c25399]
class Ship--><rect codeLine="12" fill="#FEFECE" filter="url(#f1w8tyav0q8a87)" height="188.8516" id="Ship" style="stroke:#A80036;stroke-width:1.5;" width="177" x="7" y="222"/><ellipse cx="78.25" cy="238" fill="#ADD1B2" rx="11" ry="11" style="stroke:#A80036;stroke-width:1.0;"/><path d="M80.5938,233.6719 C79.6563,233.2344 79.0625,233.0938 78.1875,233.0938 C75.5625,233.0938 73.5625,235.1719 73.5625,237.8906 L73.5625,239.0156 C73.5625,241.5938 75.6719,243.4844 78.5625,243.4844 C79.7813,243.4844 80.9375,243.1875 81.6875,242.6406 C82.2656,242.2344 82.5938,241.7813 82.5938,241.3906 C82.5938,240.9375 82.2031,240.5469 81.7344,240.5469 C81.5156,240.5469 81.3125,240.625 81.125,240.8125 C80.6719,241.2969 80.6719,241.2969 80.4844,241.3906 C80.0625,241.6563 79.375,241.7813 78.6094,241.7813 C76.5625,241.7813 75.2656,240.6875 75.2656,238.9844 L75.2656,237.8906 C75.2656,236.1094 76.5156,234.7969 78.25,234.7969 C78.8281,234.7969 79.4375,234.9531 79.9063,235.2031 C80.3906,235.4844 80.5625,235.7031 80.6563,236.1094 C80.7188,236.5156 80.75,236.6406 80.8906,236.7656 C81.0313,236.9063 81.2656,237.0156 81.4844,237.0156 C81.75,237.0156 82.0156,236.875 82.1875,236.6563 C82.2969,236.5 82.3281,236.3125 82.3281,235.8906 L82.3281,234.4688 C82.3281,234.0313 82.3125,233.9063 82.2188,233.75 C82.0625,233.4844 81.7813,233.3438 81.4844,233.3438 C81.1875,233.3438 80.9844,233.4375 80.7656,233.75 L80.5938,233.6719 Z " fill="#000000"/><text fill="#000000" font-family="sans-serif" font-size="12" lengthAdjust="spacing" textLength="26" x="98.75" y="242.1543">Ship</text><line style="stroke:#A80036;stroke-width:1.5;" x1="8" x2="183" y1="254" y2="254"/><text fill="#000000" font-family="sans-serif" font-size="11" lengthAdjust="spacing" textLength="33" x="13" y="268.2104">-MMSI</text><text fill="#000000" font-family="sans-serif" font-size="11" lengthAdjust="spacing" textLength="37" x="13" y="281.0151">-name</text><text fill="#000000" font-family="sans-serif" font-size="11" lengthAdjust="spacing" textLength="81" x="13" y="293.8198">-IMOIDnumber</text><text fill="#000000" font-family="sans-serif" font-size="11" lengthAdjust="spacing" textLength="165" x="13" y="306.6245">-numberOfEnergyGenerators</text><text fill="#000000" font-family="sans-serif" font-size="11" lengthAdjust="spacing" textLength="132" x="13" y="319.4292">-generatorPowerOutput</text><text fill="#000000" font-family="sans-serif" font-size="11" lengthAdjust="spacing" textLength="48" x="13" y="332.2339">-callSign</text><text fill="#000000" font-family="sans-serif" font-size="11" lengthAdjust="spacing" textLength="101" x="13" y="345.0386">-vesselTypeCode</text><text fill="#000000" font-family="sans-serif" font-size="11" lengthAdjust="spacing" textLength="34" x="13" y="357.8433">-width</text><text fill="#000000" font-family="sans-serif" font-size="11" lengthAdjust="spacing" textLength="40" x="13" y="370.6479">-length</text><text fill="#000000" font-family="sans-serif" font-size="11" lengthAdjust="spacing" textLength="51" x="13" y="383.4526">-capacity</text><text fill="#000000" font-family="sans-serif" font-size="11" lengthAdjust="spacing" textLength="30" x="13" y="396.2573">-draft</text><line style="stroke:#A80036;stroke-width:1.5;" x1="8" x2="183" y1="402.8516" y2="402.8516"/><!--MD5=[a0bfe97ac0a38e6e74cc1c7c7b744b71]
class Port--><rect codeLine="25" fill="#FEFECE" filter="url(#f1w8tyav0q8a87)" height="124.8281" id="Port" style="stroke:#A80036;stroke-width:1.5;" width="69" x="219" y="254"/><ellipse cx="240.3" cy="270" fill="#ADD1B2" rx="11" ry="11" style="stroke:#A80036;stroke-width:1.0;"/><path d="M242.6438,265.6719 C241.7063,265.2344 241.1125,265.0938 240.2375,265.0938 C237.6125,265.0938 235.6125,267.1719 235.6125,269.8906 L235.6125,271.0156 C235.6125,273.5938 237.7219,275.4844 240.6125,275.4844 C241.8313,275.4844 242.9875,275.1875 243.7375,274.6406 C244.3156,274.2344 244.6438,273.7813 244.6438,273.3906 C244.6438,272.9375 244.2531,272.5469 243.7844,272.5469 C243.5656,272.5469 243.3625,272.625 243.175,272.8125 C242.7219,273.2969 242.7219,273.2969 242.5344,273.3906 C242.1125,273.6563 241.425,273.7813 240.6594,273.7813 C238.6125,273.7813 237.3156,272.6875 237.3156,270.9844 L237.3156,269.8906 C237.3156,268.1094 238.5656,266.7969 240.3,266.7969 C240.8781,266.7969 241.4875,266.9531 241.9563,267.2031 C242.4406,267.4844 242.6125,267.7031 242.7063,268.1094 C242.7688,268.5156 242.8,268.6406 242.9406,268.7656 C243.0813,268.9063 243.3156,269.0156 243.5344,269.0156 C243.8,269.0156 244.0656,268.875 244.2375,268.6563 C244.3469,268.5 244.3781,268.3125 244.3781,267.8906 L244.3781,266.4688 C244.3781,266.0313 244.3625,265.9063 244.2688,265.75 C244.1125,265.4844 243.8313,265.3438 243.5344,265.3438 C243.2375,265.3438 243.0344,265.4375 242.8156,265.75 L242.6438,265.6719 Z " fill="#000000"/><text fill="#000000" font-family="sans-serif" font-size="12" lengthAdjust="spacing" textLength="23" x="255.7" y="274.1543">Port</text><line style="stroke:#A80036;stroke-width:1.5;" x1="220" x2="287" y1="286" y2="286"/><text fill="#000000" font-family="sans-serif" font-size="11" lengthAdjust="spacing" textLength="37" x="225" y="300.2104">-PortID</text><text fill="#000000" font-family="sans-serif" font-size="11" lengthAdjust="spacing" textLength="37" x="225" y="313.0151">-name</text><text fill="#000000" font-family="sans-serif" font-size="11" lengthAdjust="spacing" textLength="57" x="225" y="325.8198">-continent</text><text fill="#000000" font-family="sans-serif" font-size="11" lengthAdjust="spacing" textLength="46" x="225" y="338.6245">-country</text><text fill="#000000" font-family="sans-serif" font-size="11" lengthAdjust="spacing" textLength="47" x="225" y="351.4292">-latitude</text><text fill="#000000" font-family="sans-serif" font-size="11" lengthAdjust="spacing" textLength="57" x="225" y="364.2339">-longitude</text><line style="stroke:#A80036;stroke-width:1.5;" x1="220" x2="287" y1="370.8281" y2="370.8281"/><!--MD5=[76562047389981627aea27c31a97aff5]
class CargoManifest--><rect codeLine="33" fill="#FEFECE" filter="url(#f1w8tyav0q8a87)" height="86.4141" id="CargoManifest" style="stroke:#A80036;stroke-width:1.5;" width="118" x="323.5" y="273.5"/><ellipse cx="338.5" cy="289.5" fill="#ADD1B2" rx="11" ry="11" style="stroke:#A80036;stroke-width:1.0;"/><path d="M340.8438,285.1719 C339.9063,284.7344 339.3125,284.5938 338.4375,284.5938 C335.8125,284.5938 333.8125,286.6719 333.8125,289.3906 L333.8125,290.5156 C333.8125,293.0938 335.9219,294.9844 338.8125,294.9844 C340.0313,294.9844 341.1875,294.6875 341.9375,294.1406 C342.5156,293.7344 342.8438,293.2813 342.8438,292.8906 C342.8438,292.4375 342.4531,292.0469 341.9844,292.0469 C341.7656,292.0469 341.5625,292.125 341.375,292.3125 C340.9219,292.7969 340.9219,292.7969 340.7344,292.8906 C340.3125,293.1563 339.625,293.2813 338.8594,293.2813 C336.8125,293.2813 335.5156,292.1875 335.5156,290.4844 L335.5156,289.3906 C335.5156,287.6094 336.7656,286.2969 338.5,286.2969 C339.0781,286.2969 339.6875,286.4531 340.1563,286.7031 C340.6406,286.9844 340.8125,287.2031 340.9063,287.6094 C340.9688,288.0156 341,288.1406 341.1406,288.2656 C341.2813,288.4063 341.5156,288.5156 341.7344,288.5156 C342,288.5156 342.2656,288.375 342.4375,288.1563 C342.5469,288 342.5781,287.8125 342.5781,287.3906 L342.5781,285.9688 C342.5781,285.5313 342.5625,285.4063 342.4688,285.25 C342.3125,284.9844 342.0313,284.8438 341.7344,284.8438 C341.4375,284.8438 341.2344,284.9375 341.0156,285.25 L340.8438,285.1719 Z " fill="#000000"/><text fill="#000000" font-family="sans-serif" font-size="12" lengthAdjust="spacing" textLength="86" x="352.5" y="293.6543">CargoManifest</text><line style="stroke:#A80036;stroke-width:1.5;" x1="324.5" x2="440.5" y1="305.5" y2="305.5"/><text fill="#000000" font-family="sans-serif" font-size="11" lengthAdjust="spacing" textLength="69" x="329.5" y="319.7104">-containerID</text><text fill="#000000" font-family="sans-serif" font-size="11" lengthAdjust="spacing" textLength="76" x="329.5" y="332.5151">-containerPos</text><text fill="#000000" font-family="sans-serif" font-size="11" lengthAdjust="spacing" textLength="89" x="329.5" y="345.3198">-containerGross</text><line style="stroke:#A80036;stroke-width:1.5;" x1="324.5" x2="440.5" y1="351.9141" y2="351.9141"/><!--MD5=[e6b394b930674b2255938b8afe6bb7b4]
class ShipCaptain--><rect codeLine="39" fill="#FEFECE" filter="url(#f1w8tyav0q8a87)" height="73.6094" id="ShipCaptain" style="stroke:#A80036;stroke-width:1.5;" width="102" x="44.5" y="488"/><ellipse cx="59.5" cy="504" fill="#ADD1B2" rx="11" ry="11" style="stroke:#A80036;stroke-width:1.0;"/><path d="M61.8438,499.6719 C60.9063,499.2344 60.3125,499.0938 59.4375,499.0938 C56.8125,499.0938 54.8125,501.1719 54.8125,503.8906 L54.8125,505.0156 C54.8125,507.5938 56.9219,509.4844 59.8125,509.4844 C61.0313,509.4844 62.1875,509.1875 62.9375,508.6406 C63.5156,508.2344 63.8438,507.7813 63.8438,507.3906 C63.8438,506.9375 63.4531,506.5469 62.9844,506.5469 C62.7656,506.5469 62.5625,506.625 62.375,506.8125 C61.9219,507.2969 61.9219,507.2969 61.7344,507.3906 C61.3125,507.6563 60.625,507.7813 59.8594,507.7813 C57.8125,507.7813 56.5156,506.6875 56.5156,504.9844 L56.5156,503.8906 C56.5156,502.1094 57.7656,500.7969 59.5,500.7969 C60.0781,500.7969 60.6875,500.9531 61.1563,501.2031 C61.6406,501.4844 61.8125,501.7031 61.9063,502.1094 C61.9688,502.5156 62,502.6406 62.1406,502.7656 C62.2813,502.9063 62.5156,503.0156 62.7344,503.0156 C63,503.0156 63.2656,502.875 63.4375,502.6563 C63.5469,502.5 63.5781,502.3125 63.5781,501.8906 L63.5781,500.4688 C63.5781,500.0313 63.5625,499.9063 63.4688,499.75 C63.3125,499.4844 63.0313,499.3438 62.7344,499.3438 C62.4375,499.3438 62.2344,499.4375 62.0156,499.75 L61.8438,499.6719 Z " fill="#000000"/><text fill="#000000" font-family="sans-serif" font-size="12" lengthAdjust="spacing" textLength="70" x="73.5" y="508.1543">ShipCaptain</text><line style="stroke:#A80036;stroke-width:1.5;" x1="45.5" x2="145.5" y1="520" y2="520"/><text fill="#000000" font-family="sans-serif" font-size="11" lengthAdjust="spacing" textLength="41" x="50.5" y="534.2104">-userID</text><text fill="#000000" font-family="sans-serif" font-size="11" lengthAdjust="spacing" textLength="37" x="50.5" y="547.0151">-name</text><line style="stroke:#A80036;stroke-width:1.5;" x1="45.5" x2="145.5" y1="553.6094" y2="553.6094"/><!--MD5=[7d93acbb5fcece1762f5a269123d71d1]
reverse link Container to CargoManifest--><path codeLine="44" d="M292.936,149.911 C314.795,190.324 341.202,239.146 359.657,273.267 " fill="none" id="Container-backto-CargoManifest" style="stroke:#A80036;stroke-width:1.0;"/><polygon fill="#A80036" points="290.294,145.025,291.0565,154.8443,292.6723,149.4231,298.0935,151.039,290.294,145.025" style="stroke:#A80036;stroke-width:1.0;"/><text fill="#000000" font-family="sans-serif" font-size="13" lengthAdjust="spacing" textLength="319" x="315.5" y="188.0669">are created when containers are loaded/unloaded</text><text fill="#000000" font-family="sans-serif" font-size="13" lengthAdjust="spacing" textLength="8" x="285.5222" y="164.6494">1</text><text fill="#000000" font-family="sans-serif" font-size="13" lengthAdjust="spacing" textLength="8" x="347.5467" y="262.5439">1</text><!--MD5=[16b878583ae99d1efc93749e3a15d9a8]
reverse link Container to Ship--><path codeLine="45" d="M195.675,149.391 C189.378,157.906 183.195,166.566 177.5,175 C167.463,189.863 157.36,205.996 147.842,221.857 " fill="none" id="Container-backto-Ship" style="stroke:#A80036;stroke-width:1.0;"/><polygon fill="#A80036" points="198.773,145.224,190.1937,150.0608,195.7902,149.2368,196.6142,154.8333,198.773,145.224" style="stroke:#A80036;stroke-width:1.0;"/><text fill="#000000" font-family="sans-serif" font-size="13" lengthAdjust="spacing" textLength="66" x="178.5" y="188.0669">transports</text><text fill="#000000" font-family="sans-serif" font-size="13" lengthAdjust="spacing" textLength="20" x="172.6037" y="164.6275">1...</text><text fill="#000000" font-family="sans-serif" font-size="13" lengthAdjust="spacing" textLength="8" x="143.6943" y="210.7956">1</text><!--MD5=[55bb66368514384aa008a09d2b6217be]
reverse link Ship to ShipCaptain--><path codeLine="46" d="M95.5,416.194 C95.5,441.783 95.5,467.7459 95.5,487.7794 " fill="none" id="Ship-backto-ShipCaptain" style="stroke:#A80036;stroke-width:1.0;"/><polygon fill="#A80036" points="95.5,411.083,91.5,420.083,95.5,416.083,99.5,420.083,95.5,411.083" style="stroke:#A80036;stroke-width:1.0;"/><text fill="#000000" font-family="sans-serif" font-size="13" lengthAdjust="spacing" textLength="147" x="96.5" y="454.0669">controls the position of</text><text fill="#000000" font-family="sans-serif" font-size="13" lengthAdjust="spacing" textLength="27" x="67.4664" y="430.9764">1...*</text><text fill="#000000" font-family="sans-serif" font-size="13" lengthAdjust="spacing" textLength="8" x="86.7875" y="476.9271">1</text><!--MD5=[a3eba1ecc34950f036b9c8cfe948b3c2]
reverse link Container to Port--><path codeLine="47" d="M253.5,150.3 C253.5,183.478 253.5,222.259 253.5,253.905 " fill="none" id="Container-backto-Port" style="stroke:#A80036;stroke-width:1.0;"/><polygon fill="#A80036" points="253.5,145.025,249.5,154.025,253.5,150.025,257.5,154.025,253.5,145.025" style="stroke:#A80036;stroke-width:1.0;"/><text fill="#000000" font-family="sans-serif" font-size="13" lengthAdjust="spacing" textLength="40" x="254.5" y="188.0669">stores</text><text fill="#000000" font-family="sans-serif" font-size="13" lengthAdjust="spacing" textLength="20" x="232.5156" y="164.6494">1...</text><text fill="#000000" font-family="sans-serif" font-size="13" lengthAdjust="spacing" textLength="8" x="245.0375" y="242.8848">1</text><!--MD5=[04f71f421704fb4f6c984614da049dc7]
@startuml
skinparam classAttributeIconSize 0
Class Container{
-containerID
-payload
-tare
-gross
-ISOCode
-length
-refrigerationTemperature
}

class Ship {
-MMSI
-name
-IMOIDnumber
-numberOfEnergyGenerators
-generatorPowerOutput
-callSign
-vesselTypeCode
-width
-length
-capacity
-draft
}
Class Port{
-PortID
-name
-continent
-country
-latitude
-longitude
}
class CargoManifest{
-containerID
-containerPos
-containerGross
}

class ShipCaptain{
-userID
-name
}

Container "1" <- - "1" CargoManifest : are created when containers are loaded/unloaded
Container "1..." <- - "1" Ship : transports
Ship "1...*" <- - "1" ShipCaptain : controls the position of
Container "1..." <- - "1" Port : stores
@enduml

PlantUML version 1.2021.15beta3(Unknown compile time)
(GPL source distribution)
Java Runtime: Java(TM) SE Runtime Environment
JVM: Java HotSpot(TM) 64-Bit Server VM
Default Encoding: UTF-8
Language: en
Country: US
--></g></svg>