<?xml version="1.0" encoding="UTF-8" standalone="no"?><svg xmlns="http://www.w3.org/2000/svg" xmlns:xlink="http://www.w3.org/1999/xlink" contentScriptType="application/ecmascript" contentStyleType="text/css" height="368px" preserveAspectRatio="none" style="width:1005px;height:368px;background:#FFFFFF;" version="1.1" viewBox="0 0 1005 368" width="1005px" zoomAndPan="magnify"><defs><filter height="300%" id="f9a79atyvzq6b" width="300%" x="-1" y="-1"><feGaussianBlur result="blurOut" stdDeviation="2.0"/><feColorMatrix in="blurOut" result="blurOut2" type="matrix" values="0 0 0 0 0 0 0 0 0 0 0 0 0 0 0 0 0 0 .4 0"/><feOffset dx="4.0" dy="4.0" in="blurOut2" result="blurOut3"/><feBlend in="SourceGraphic" in2="blurOut3" mode="normal"/></filter></defs><g><rect fill="#FFFFFF" filter="url(#f9a79atyvzq6b)" height="176.6641" style="stroke:#A80036;stroke-width:1.0;" width="10" x="47" y="98.2969"/><rect fill="#FFFFFF" filter="url(#f9a79atyvzq6b)" height="146.5313" style="stroke:#A80036;stroke-width:1.0;" width="10" x="328" y="119.4297"/><rect fill="#FFFFFF" filter="url(#f9a79atyvzq6b)" height="88.2656" style="stroke:#A80036;stroke-width:1.0;" width="10" x="575" y="148.5625"/><rect fill="#FFFFFF" filter="url(#f9a79atyvzq6b)" height="30" style="stroke:#A80036;stroke-width:1.0;" width="10" x="836" y="177.6953"/><line style="stroke:#A80036;stroke-width:1.0;stroke-dasharray:5.0,5.0;" x1="52" x2="52" y1="88.2969" y2="283.9609"/><line style="stroke:#A80036;stroke-width:1.0;stroke-dasharray:5.0,5.0;" x1="333" x2="333" y1="88.2969" y2="283.9609"/><line style="stroke:#A80036;stroke-width:1.0;stroke-dasharray:5.0,5.0;" x1="579.5" x2="579.5" y1="88.2969" y2="283.9609"/><line style="stroke:#A80036;stroke-width:1.0;stroke-dasharray:5.0,5.0;" x1="841" x2="841" y1="88.2969" y2="283.9609"/><line style="stroke:#A80036;stroke-width:1.0;stroke-dasharray:5.0,5.0;" x1="950" x2="950" y1="88.2969" y2="283.9609"/><text fill="#000000" font-family="sans-serif" font-size="14" lengthAdjust="spacing" textLength="88" x="5" y="84.9951">ShipCaptain</text><ellipse cx="52" cy="15" fill="#FEFECE" filter="url(#f9a79atyvzq6b)" rx="8" ry="8" style="stroke:#A80036;stroke-width:2.0;"/><path d="M52,23 L52,50 M39,31 L65,31 M52,50 L39,65 M52,50 L65,65 " fill="none" filter="url(#f9a79atyvzq6b)" style="stroke:#A80036;stroke-width:2.0;"/><text fill="#000000" font-family="sans-serif" font-size="14" lengthAdjust="spacing" textLength="88" x="5" y="295.9561">ShipCaptain</text><ellipse cx="52" cy="309.2578" fill="#FEFECE" filter="url(#f9a79atyvzq6b)" rx="8" ry="8" style="stroke:#A80036;stroke-width:2.0;"/><path d="M52,317.2578 L52,344.2578 M39,325.2578 L65,325.2578 M52,344.2578 L39,359.2578 M52,344.2578 L65,359.2578 " fill="none" filter="url(#f9a79atyvzq6b)" style="stroke:#A80036;stroke-width:2.0;"/><rect fill="#FEFECE" filter="url(#f9a79atyvzq6b)" height="30.2969" style="stroke:#A80036;stroke-width:1.5;" width="260" x="201" y="53"/><text fill="#000000" font-family="sans-serif" font-size="14" lengthAdjust="spacing" textLength="246" x="208" y="72.9951">:GetContainersToOffloadNextPort</text><rect fill="#FEFECE" filter="url(#f9a79atyvzq6b)" height="30.2969" style="stroke:#A80036;stroke-width:1.5;" width="260" x="201" y="282.9609"/><text fill="#000000" font-family="sans-serif" font-size="14" lengthAdjust="spacing" textLength="246" x="208" y="302.9561">:GetContainersToOffloadNextPort</text><rect fill="#FEFECE" filter="url(#f9a79atyvzq6b)" height="30.2969" style="stroke:#A80036;stroke-width:1.5;" width="163" x="496.5" y="53"/><text fill="#000000" font-family="sans-serif" font-size="14" lengthAdjust="spacing" textLength="149" x="503.5" y="72.9951">:ContainerController</text><rect fill="#FEFECE" filter="url(#f9a79atyvzq6b)" height="30.2969" style="stroke:#A80036;stroke-width:1.5;" width="163" x="496.5" y="282.9609"/><text fill="#000000" font-family="sans-serif" font-size="14" lengthAdjust="spacing" textLength="149" x="503.5" y="302.9561">:ContainerController</text><rect fill="#FEFECE" filter="url(#f9a79atyvzq6b)" height="46.5938" style="stroke:#A80036;stroke-width:1.5;" width="106" x="786" y="36.7031"/><text fill="#000000" font-family="sans-serif" font-size="14" lengthAdjust="spacing" textLength="34" x="822" y="56.6982">cDb:</text><text fill="#000000" font-family="sans-serif" font-size="14" lengthAdjust="spacing" textLength="92" x="793" y="72.9951">ContainerDB</text><rect fill="#FEFECE" filter="url(#f9a79atyvzq6b)" height="46.5938" style="stroke:#A80036;stroke-width:1.5;" width="106" x="786" y="282.9609"/><text fill="#000000" font-family="sans-serif" font-size="14" lengthAdjust="spacing" textLength="34" x="822" y="302.9561">cDb:</text><text fill="#000000" font-family="sans-serif" font-size="14" lengthAdjust="spacing" textLength="92" x="793" y="319.2529">ContainerDB</text><rect fill="#FEFECE" filter="url(#f9a79atyvzq6b)" height="46.5938" style="stroke:#A80036;stroke-width:1.5;" width="85" x="906" y="36.7031"/><text fill="#000000" font-family="sans-serif" font-size="14" lengthAdjust="spacing" textLength="13" x="942" y="56.6982">c:</text><text fill="#000000" font-family="sans-serif" font-size="14" lengthAdjust="spacing" textLength="71" x="913" y="72.9951">Container</text><rect fill="#FEFECE" filter="url(#f9a79atyvzq6b)" height="46.5938" style="stroke:#A80036;stroke-width:1.5;" width="85" x="906" y="282.9609"/><text fill="#000000" font-family="sans-serif" font-size="14" lengthAdjust="spacing" textLength="13" x="942" y="302.9561">c:</text><text fill="#000000" font-family="sans-serif" font-size="14" lengthAdjust="spacing" textLength="71" x="913" y="319.2529">Container</text><rect fill="#FFFFFF" filter="url(#f9a79atyvzq6b)" height="176.6641" style="stroke:#A80036;stroke-width:1.0;" width="10" x="47" y="98.2969"/><rect fill="#FFFFFF" filter="url(#f9a79atyvzq6b)" height="146.5313" style="stroke:#A80036;stroke-width:1.0;" width="10" x="328" y="119.4297"/><rect fill="#FFFFFF" filter="url(#f9a79atyvzq6b)" height="88.2656" style="stroke:#A80036;stroke-width:1.0;" width="10" x="575" y="148.5625"/><rect fill="#FFFFFF" filter="url(#f9a79atyvzq6b)" height="30" style="stroke:#A80036;stroke-width:1.0;" width="10" x="836" y="177.6953"/><polygon fill="#A80036" points="316,115.4297,326,119.4297,316,123.4297,320,119.4297" style="stroke:#A80036;stroke-width:1.0;"/><line style="stroke:#A80036;stroke-width:1.0;" x1="57" x2="322" y1="119.4297" y2="119.4297"/><text fill="#000000" font-family="sans-serif" font-size="13" lengthAdjust="spacing" textLength="252" x="64" y="114.3638">inserts his id, and the code of next Port</text><polygon fill="#A80036" points="563,144.5625,573,148.5625,563,152.5625,567,148.5625" style="stroke:#A80036;stroke-width:1.0;"/><line style="stroke:#A80036;stroke-width:1.0;" x1="338" x2="569" y1="148.5625" y2="148.5625"/><text fill="#000000" font-family="sans-serif" font-size="13" lengthAdjust="spacing" textLength="218" x="345" y="143.4966">getContainersToOffload(id, code);</text><polygon fill="#A80036" points="824,173.6953,834,177.6953,824,181.6953,828,177.6953" style="stroke:#A80036;stroke-width:1.0;"/><line style="stroke:#A80036;stroke-width:1.0;" x1="585" x2="830" y1="177.6953" y2="177.6953"/><text fill="#000000" font-family="sans-serif" font-size="13" lengthAdjust="spacing" textLength="232" x="592" y="172.6294">cc.getContainersToOffload(id,code);</text><polygon fill="#A80036" points="349,232.8281,339,236.8281,349,240.8281,345,236.8281" style="stroke:#A80036;stroke-width:1.0;"/><line style="stroke:#A80036;stroke-width:1.0;" x1="343" x2="579" y1="236.8281" y2="236.8281"/><text fill="#000000" font-family="sans-serif" font-size="13" lengthAdjust="spacing" textLength="163" x="355" y="231.7622">return list with containers</text><polygon fill="#A80036" points="68,261.9609,58,265.9609,68,269.9609,64,265.9609" style="stroke:#A80036;stroke-width:1.0;"/><line style="stroke:#A80036;stroke-width:1.0;stroke-dasharray:2.0,2.0;" x1="62" x2="332" y1="265.9609" y2="265.9609"/><text fill="#000000" font-family="sans-serif" font-size="13" lengthAdjust="spacing" textLength="112" x="74" y="260.895">shows containers</text><!--MD5=[3626bc4e1eebc1fb05b2aee3b00a5973]
@startuml
actor "ShipCaptain" as TM
participant ":GetContainersToOffloadNextPort" as POS
participant ":ContainerController" as CTRL
participant "cDb:\nContainerDB" as STORE
participant "c:\nContainer" as c


activate TM
TM-> POS : inserts his id, and the code of next Port
activate POS
POS -> CTRL  : getContainersToOffload(id, code);
activate CTRL
CTRL -> STORE : cc.getContainersToOffload(id,code);
activate STORE
deactivate STORE
CTRL-> POS : return list with containers
deactivate CTRL
POS - -> TM : shows containers
deactivate POS
@enduml

PlantUML version 1.2021.16beta1(Unknown compile time)
(GPL source distribution)
Java Runtime: Java(TM) SE Runtime Environment
JVM: Java HotSpot(TM) 64-Bit Server VM
Default Encoding: UTF-8
Language: en
Country: US
--></g></svg>