<?xml version="1.0" encoding="UTF-8" standalone="no"?><svg xmlns="http://www.w3.org/2000/svg" xmlns:xlink="http://www.w3.org/1999/xlink" contentScriptType="application/ecmascript" contentStyleType="text/css" height="573px" preserveAspectRatio="none" style="width:1760px;height:573px;background:#FFFFFF;" version="1.1" viewBox="0 0 1760 573" width="1760px" zoomAndPan="magnify"><defs><filter height="300%" id="f1xy9tk8zl6au1" width="300%" x="-1" y="-1"><feGaussianBlur result="blurOut" stdDeviation="2.0"/><feColorMatrix in="blurOut" result="blurOut2" type="matrix" values="0 0 0 0 0 0 0 0 0 0 0 0 0 0 0 0 0 0 .4 0"/><feOffset dx="4.0" dy="4.0" in="blurOut2" result="blurOut3"/><feBlend in="SourceGraphic" in2="blurOut3" mode="normal"/></filter></defs><g><rect fill="#FFFFFF" filter="url(#f1xy9tk8zl6au1)" height="381.4922" style="stroke:#A80036;stroke-width:1.0;" width="10" x="57" y="98.2969"/><rect fill="#FFFFFF" filter="url(#f1xy9tk8zl6au1)" height="29.1328" style="stroke:#A80036;stroke-width:1.0;" width="10" x="514" y="119.4297"/><rect fill="#FFFFFF" filter="url(#f1xy9tk8zl6au1)" height="302.0938" style="stroke:#A80036;stroke-width:1.0;" width="10" x="514" y="177.6953"/><rect fill="#FFFFFF" filter="url(#f1xy9tk8zl6au1)" height="234.8281" style="stroke:#A80036;stroke-width:1.0;" width="10" x="867" y="206.8281"/><rect fill="#FFFFFF" filter="url(#f1xy9tk8zl6au1)" height="30" style="stroke:#A80036;stroke-width:1.0;" width="10" x="1361" y="340.3906"/><rect fill="#FFFFFF" filter="url(#f1xy9tk8zl6au1)" height="30" style="stroke:#A80036;stroke-width:1.0;" width="10" x="1563.5" y="281.2578"/><line style="stroke:#A80036;stroke-width:1.0;stroke-dasharray:5.0,5.0;" x1="62" x2="62" y1="88.2969" y2="488.7891"/><line style="stroke:#A80036;stroke-width:1.0;stroke-dasharray:5.0,5.0;" x1="518.5" x2="518.5" y1="88.2969" y2="488.7891"/><line style="stroke:#A80036;stroke-width:1.0;stroke-dasharray:5.0,5.0;" x1="872" x2="872" y1="88.2969" y2="488.7891"/><line style="stroke:#A80036;stroke-width:1.0;stroke-dasharray:5.0,5.0;" x1="1366" x2="1366" y1="88.2969" y2="488.7891"/><line style="stroke:#A80036;stroke-width:1.0;stroke-dasharray:5.0,5.0;" x1="1454" x2="1454" y1="88.2969" y2="488.7891"/><line style="stroke:#A80036;stroke-width:1.0;stroke-dasharray:5.0,5.0;" x1="1568" x2="1568" y1="247.4766" y2="488.7891"/><line style="stroke:#A80036;stroke-width:1.0;stroke-dasharray:5.0,5.0;" x1="1703" x2="1703" y1="88.2969" y2="488.7891"/><text fill="#000000" font-family="sans-serif" font-size="14" lengthAdjust="spacing" textLength="108" x="5" y="84.9951">TrafficManager</text><ellipse cx="62" cy="15" fill="#FEFECE" filter="url(#f1xy9tk8zl6au1)" rx="8" ry="8" style="stroke:#A80036;stroke-width:2.0;"/><path d="M62,23 L62,50 M49,31 L75,31 M62,50 L49,65 M62,50 L75,65 " fill="none" filter="url(#f1xy9tk8zl6au1)" style="stroke:#A80036;stroke-width:2.0;"/><text fill="#000000" font-family="sans-serif" font-size="14" lengthAdjust="spacing" textLength="108" x="5" y="500.7842">TrafficManager</text><ellipse cx="62" cy="514.0859" fill="#FEFECE" filter="url(#f1xy9tk8zl6au1)" rx="8" ry="8" style="stroke:#A80036;stroke-width:2.0;"/><path d="M62,522.0859 L62,549.0859 M49,530.0859 L75,530.0859 M62,549.0859 L49,564.0859 M62,549.0859 L75,564.0859 " fill="none" filter="url(#f1xy9tk8zl6au1)" style="stroke:#A80036;stroke-width:2.0;"/><rect fill="#FEFECE" filter="url(#f1xy9tk8zl6au1)" height="30.2969" style="stroke:#A80036;stroke-width:1.5;" width="139" x="447.5" y="53"/><text fill="#000000" font-family="sans-serif" font-size="14" lengthAdjust="spacing" textLength="125" x="454.5" y="72.9951">:importPortsTest</text><rect fill="#FEFECE" filter="url(#f1xy9tk8zl6au1)" height="30.2969" style="stroke:#A80036;stroke-width:1.5;" width="139" x="447.5" y="487.7891"/><text fill="#000000" font-family="sans-serif" font-size="14" lengthAdjust="spacing" textLength="125" x="454.5" y="507.7842">:importPortsTest</text><rect fill="#FEFECE" filter="url(#f1xy9tk8zl6au1)" height="30.2969" style="stroke:#A80036;stroke-width:1.5;" width="90" x="825" y="53"/><text fill="#000000" font-family="sans-serif" font-size="14" lengthAdjust="spacing" textLength="76" x="832" y="72.9951">:Closeness</text><rect fill="#FEFECE" filter="url(#f1xy9tk8zl6au1)" height="30.2969" style="stroke:#A80036;stroke-width:1.5;" width="90" x="825" y="487.7891"/><text fill="#000000" font-family="sans-serif" font-size="14" lengthAdjust="spacing" textLength="76" x="832" y="507.7842">:Closeness</text><rect fill="#FEFECE" filter="url(#f1xy9tk8zl6au1)" height="30.2969" style="stroke:#A80036;stroke-width:1.5;" width="98" x="1315" y="53"/><text fill="#000000" font-family="sans-serif" font-size="14" lengthAdjust="spacing" textLength="84" x="1322" y="72.9951">:Algorithms</text><rect fill="#FEFECE" filter="url(#f1xy9tk8zl6au1)" height="30.2969" style="stroke:#A80036;stroke-width:1.5;" width="98" x="1315" y="487.7891"/><text fill="#000000" font-family="sans-serif" font-size="14" lengthAdjust="spacing" textLength="84" x="1322" y="507.7842">:Algorithms</text><rect fill="#FEFECE" filter="url(#f1xy9tk8zl6au1)" height="30.2969" style="stroke:#A80036;stroke-width:1.5;" width="50" x="1427" y="53"/><text fill="#000000" font-family="sans-serif" font-size="14" lengthAdjust="spacing" textLength="36" x="1434" y="72.9951">:Port</text><rect fill="#FEFECE" filter="url(#f1xy9tk8zl6au1)" height="30.2969" style="stroke:#A80036;stroke-width:1.5;" width="50" x="1427" y="487.7891"/><text fill="#000000" font-family="sans-serif" font-size="14" lengthAdjust="spacing" textLength="36" x="1434" y="507.7842">:Port</text><rect fill="#FEFECE" filter="url(#f1xy9tk8zl6au1)" height="30.2969" style="stroke:#A80036;stroke-width:1.5;" width="151" x="1491" y="487.7891"/><text fill="#000000" font-family="sans-serif" font-size="14" lengthAdjust="spacing" textLength="137" x="1498" y="507.7842">:CountryPortGraph</text><rect fill="#FEFECE" filter="url(#f1xy9tk8zl6au1)" height="30.2969" style="stroke:#A80036;stroke-width:1.5;" width="90" x="1656" y="53"/><text fill="#000000" font-family="sans-serif" font-size="14" lengthAdjust="spacing" textLength="76" x="1663" y="72.9951">:PortStore</text><rect fill="#FEFECE" filter="url(#f1xy9tk8zl6au1)" height="30.2969" style="stroke:#A80036;stroke-width:1.5;" width="90" x="1656" y="487.7891"/><text fill="#000000" font-family="sans-serif" font-size="14" lengthAdjust="spacing" textLength="76" x="1663" y="507.7842">:PortStore</text><rect fill="#FFFFFF" filter="url(#f1xy9tk8zl6au1)" height="381.4922" style="stroke:#A80036;stroke-width:1.0;" width="10" x="57" y="98.2969"/><rect fill="#FFFFFF" filter="url(#f1xy9tk8zl6au1)" height="29.1328" style="stroke:#A80036;stroke-width:1.0;" width="10" x="514" y="119.4297"/><rect fill="#FFFFFF" filter="url(#f1xy9tk8zl6au1)" height="302.0938" style="stroke:#A80036;stroke-width:1.0;" width="10" x="514" y="177.6953"/><rect fill="#FFFFFF" filter="url(#f1xy9tk8zl6au1)" height="234.8281" style="stroke:#A80036;stroke-width:1.0;" width="10" x="867" y="206.8281"/><rect fill="#FFFFFF" filter="url(#f1xy9tk8zl6au1)" height="30" style="stroke:#A80036;stroke-width:1.0;" width="10" x="1361" y="340.3906"/><rect fill="#FFFFFF" filter="url(#f1xy9tk8zl6au1)" height="30" style="stroke:#A80036;stroke-width:1.0;" width="10" x="1563.5" y="281.2578"/><polygon fill="#A80036" points="502,115.4297,512,119.4297,502,123.4297,506,119.4297" style="stroke:#A80036;stroke-width:1.0;"/><line style="stroke:#A80036;stroke-width:1.0;" x1="67" x2="508" y1="119.4297" y2="119.4297"/><text fill="#000000" font-family="sans-serif" font-size="13" font-weight="bold" lengthAdjust="spacing" textLength="9" x="74" y="114.3638">1</text><text fill="#000000" font-family="sans-serif" font-size="13" lengthAdjust="spacing" textLength="415" x="87" y="114.3638">chooses to see the n closeness countries/ports in each continent</text><polygon fill="#A80036" points="78,144.5625,68,148.5625,78,152.5625,74,148.5625" style="stroke:#A80036;stroke-width:1.0;"/><line style="stroke:#A80036;stroke-width:1.0;stroke-dasharray:2.0,2.0;" x1="72" x2="518" y1="148.5625" y2="148.5625"/><text fill="#000000" font-family="sans-serif" font-size="13" font-weight="bold" lengthAdjust="spacing" textLength="9" x="84" y="143.4966">2</text><text fill="#000000" font-family="sans-serif" font-size="13" lengthAdjust="spacing" textLength="308" x="97" y="143.4966">asks the number of countries/ports to be shown</text><polygon fill="#A80036" points="502,173.6953,512,177.6953,502,181.6953,506,177.6953" style="stroke:#A80036;stroke-width:1.0;"/><line style="stroke:#A80036;stroke-width:1.0;" x1="67" x2="508" y1="177.6953" y2="177.6953"/><text fill="#000000" font-family="sans-serif" font-size="13" font-weight="bold" lengthAdjust="spacing" textLength="8" x="74" y="172.6294">3</text><text fill="#000000" font-family="sans-serif" font-size="13" lengthAdjust="spacing" textLength="118" x="86" y="172.6294">writes the number</text><polygon fill="#A80036" points="855,202.8281,865,206.8281,855,210.8281,859,206.8281" style="stroke:#A80036;stroke-width:1.0;"/><line style="stroke:#A80036;stroke-width:1.0;" x1="524" x2="861" y1="206.8281" y2="206.8281"/><text fill="#000000" font-family="sans-serif" font-size="13" font-weight="bold" lengthAdjust="spacing" textLength="9" x="531" y="201.7622">4</text><text fill="#000000" font-family="sans-serif" font-size="13" lengthAdjust="spacing" textLength="311" x="544" y="201.7622">calculateCloseness(numberOfGraphs, continent)</text><polygon fill="#A80036" points="1479,231.9609,1489,235.9609,1479,239.9609,1483,235.9609" style="stroke:#A80036;stroke-width:1.0;"/><line style="stroke:#A80036;stroke-width:1.0;" x1="877" x2="1485" y1="235.9609" y2="235.9609"/><text fill="#000000" font-family="sans-serif" font-size="13" font-weight="bold" lengthAdjust="spacing" textLength="9" x="884" y="230.895">5</text><text fill="#000000" font-family="sans-serif" font-size="13" lengthAdjust="spacing" textLength="65" x="897" y="230.895">portGraph</text><rect fill="#FEFECE" filter="url(#f1xy9tk8zl6au1)" height="30.2969" style="stroke:#A80036;stroke-width:1.5;" width="151" x="1491" y="214.8281"/><text fill="#000000" font-family="sans-serif" font-size="14" lengthAdjust="spacing" textLength="137" x="1498" y="234.8232">:CountryPortGraph</text><polygon fill="#A80036" points="1551.5,277.2578,1561.5,281.2578,1551.5,285.2578,1555.5,281.2578" style="stroke:#A80036;stroke-width:1.0;"/><line style="stroke:#A80036;stroke-width:1.0;" x1="877" x2="1557.5" y1="281.2578" y2="281.2578"/><text fill="#000000" font-family="sans-serif" font-size="13" font-weight="bold" lengthAdjust="spacing" textLength="9" x="884" y="276.1919">6</text><text fill="#000000" font-family="sans-serif" font-size="13" lengthAdjust="spacing" textLength="320" x="897" y="276.1919">portGraph.createGraphWithPortsAndCountries(2);</text><polygon fill="#A80036" points="1349,336.3906,1359,340.3906,1349,344.3906,1353,340.3906" style="stroke:#A80036;stroke-width:1.0;"/><line style="stroke:#A80036;stroke-width:1.0;" x1="877" x2="1355" y1="340.3906" y2="340.3906"/><text fill="#000000" font-family="sans-serif" font-size="13" font-weight="bold" lengthAdjust="spacing" textLength="9" x="884" y="335.3247">7</text><text fill="#000000" font-family="sans-serif" font-size="13" lengthAdjust="spacing" textLength="436" x="897" y="335.3247">vLinkedList = breadthFirstSearch(matrixGraph, matrixGraph.vertex)</text><line style="stroke:#A80036;stroke-width:1.0;" x1="877" x2="919" y1="399.5234" y2="399.5234"/><line style="stroke:#A80036;stroke-width:1.0;" x1="919" x2="919" y1="399.5234" y2="412.5234"/><line style="stroke:#A80036;stroke-width:1.0;" x1="878" x2="919" y1="412.5234" y2="412.5234"/><polygon fill="#A80036" points="888,408.5234,878,412.5234,888,416.5234,884,412.5234" style="stroke:#A80036;stroke-width:1.0;"/><text fill="#000000" font-family="sans-serif" font-size="13" font-weight="bold" lengthAdjust="spacing" textLength="9" x="884" y="394.4575">8</text><text fill="#000000" font-family="sans-serif" font-size="13" lengthAdjust="spacing" textLength="457" x="897" y="394.4575">graphLocations = getAllCountriesFromContinent(continent, vLinkedList)</text><polygon fill="#A80036" points="535,437.6563,525,441.6563,535,445.6563,531,441.6563" style="stroke:#A80036;stroke-width:1.0;"/><line style="stroke:#A80036;stroke-width:1.0;stroke-dasharray:2.0,2.0;" x1="529" x2="871" y1="441.6563" y2="441.6563"/><text fill="#000000" font-family="sans-serif" font-size="13" font-weight="bold" lengthAdjust="spacing" textLength="9" x="541" y="436.5903">9</text><text fill="#000000" font-family="sans-serif" font-size="13" lengthAdjust="spacing" textLength="98" x="554" y="436.5903">graphLocations</text><polygon fill="#A80036" points="78,466.7891,68,470.7891,78,474.7891,74,470.7891" style="stroke:#A80036;stroke-width:1.0;"/><line style="stroke:#A80036;stroke-width:1.0;" x1="72" x2="513" y1="470.7891" y2="470.7891"/><text fill="#000000" font-family="sans-serif" font-size="13" font-weight="bold" lengthAdjust="spacing" textLength="19" x="84" y="465.7231">10</text><text fill="#000000" font-family="sans-serif" font-size="13" lengthAdjust="spacing" textLength="313" x="107" y="465.7231">Show the n closeness countries/ports to the user</text><!--MD5=[3342441bb43e23f46fb69b6d86bfe090]
@startuml
autonumber
actor "TrafficManager" as REC

participant  ":importPortsTest" as LabCoo
participant ":Closeness" as UI
participant ":Algorithms" as CMP
participant ":Port" as PORT

participant ":CountryPortGraph" as countryGraph
participant ":PortStore" as portStore




activate REC
REC -> LabCoo : chooses to see the n closeness countries/ports in each continent
activate LabCoo
LabCoo - -> REC : asks the number of countries/ports to be shown
deactivate LabCoo
REC -> LabCoo : writes the number
activate LabCoo

LabCoo -> UI : calculateCloseness(numberOfGraphs, continent)
activate UI

UI -> countryGraph** : portGraph

UI -> countryGraph :portGraph.createGraphWithPortsAndCountries(2);

activate countryGraph
deactivate countryGraph

UI -> CMP: vLinkedList = breadthFirstSearch(matrixGraph, matrixGraph.vertex)
activate CMP

deactivate CMP

UI -> UI : graphLocations = getAllCountriesFromContinent(continent, vLinkedList)



UI - -> LabCoo : graphLocations

deactivate UI
LabCoo -> REC : Show the n closeness countries/ports to the user
@enduml

PlantUML version 1.2021.17beta4(Unknown compile time)
(GPL source distribution)
Java Runtime: Java(TM) SE Runtime Environment
JVM: Java HotSpot(TM) 64-Bit Server VM
Default Encoding: UTF-8
Language: en
Country: US
--></g></svg>