<?xml version="1.0" encoding="UTF-8" standalone="no"?><svg xmlns="http://www.w3.org/2000/svg" xmlns:xlink="http://www.w3.org/1999/xlink" contentScriptType="application/ecmascript" contentStyleType="text/css" height="615px" preserveAspectRatio="none" style="width:1746px;height:615px;background:#FFFFFF;" version="1.1" viewBox="0 0 1746 615" width="1746px" zoomAndPan="magnify"><defs><filter height="300%" id="f187irke7l4246" width="300%" x="-1" y="-1"><feGaussianBlur result="blurOut" stdDeviation="2.0"/><feColorMatrix in="blurOut" result="blurOut2" type="matrix" values="0 0 0 0 0 0 0 0 0 0 0 0 0 0 0 0 0 0 .4 0"/><feOffset dx="4.0" dy="4.0" in="blurOut2" result="blurOut3"/><feBlend in="SourceGraphic" in2="blurOut3" mode="normal"/></filter></defs><g><!--MD5=[5011bf3d6c61ba0c0b7af54c2595cffb]
class CountryPortGraph--><rect codeLine="4" fill="#FEFECE" filter="url(#f187irke7l4246)" height="86.4141" id="CountryPortGraph" style="stroke:#A80036;stroke-width:1.5;" width="171" x="474" y="195.5"/><ellipse cx="504.3" cy="211.5" fill="#ADD1B2" rx="11" ry="11" style="stroke:#A80036;stroke-width:1.0;"/><path d="M506.6438,207.1719 C505.7063,206.7344 505.1125,206.5938 504.2375,206.5938 C501.6125,206.5938 499.6125,208.6719 499.6125,211.3906 L499.6125,212.5156 C499.6125,215.0938 501.7219,216.9844 504.6125,216.9844 C505.8313,216.9844 506.9875,216.6875 507.7375,216.1406 C508.3156,215.7344 508.6438,215.2813 508.6438,214.8906 C508.6438,214.4375 508.2531,214.0469 507.7844,214.0469 C507.5656,214.0469 507.3625,214.125 507.175,214.3125 C506.7219,214.7969 506.7219,214.7969 506.5344,214.8906 C506.1125,215.1563 505.425,215.2813 504.6594,215.2813 C502.6125,215.2813 501.3156,214.1875 501.3156,212.4844 L501.3156,211.3906 C501.3156,209.6094 502.5656,208.2969 504.3,208.2969 C504.8781,208.2969 505.4875,208.4531 505.9563,208.7031 C506.4406,208.9844 506.6125,209.2031 506.7063,209.6094 C506.7688,210.0156 506.8,210.1406 506.9406,210.2656 C507.0813,210.4063 507.3156,210.5156 507.5344,210.5156 C507.8,210.5156 508.0656,210.375 508.2375,210.1563 C508.3469,210 508.3781,209.8125 508.3781,209.3906 L508.3781,207.9688 C508.3781,207.5313 508.3625,207.4063 508.2688,207.25 C508.1125,206.9844 507.8313,206.8438 507.5344,206.8438 C507.2375,206.8438 507.0344,206.9375 506.8156,207.25 L506.6438,207.1719 Z " fill="#000000"/><text fill="#000000" font-family="sans-serif" font-size="12" lengthAdjust="spacing" textLength="105" x="521.7" y="215.6543">CountryPortGraph</text><line style="stroke:#A80036;stroke-width:1.5;" x1="475" x2="644" y1="227.5" y2="227.5"/><text fill="#000000" font-family="sans-serif" font-size="11" lengthAdjust="spacing" textLength="116" x="480" y="241.7104">-portStore: PortStore</text><text fill="#000000" font-family="sans-serif" font-size="11" lengthAdjust="spacing" textLength="159" x="480" y="254.5151">-countryStore: CountryStore</text><line style="stroke:#A80036;stroke-width:1.5;" x1="475" x2="644" y1="261.1094" y2="261.1094"/><text fill="#000000" font-family="sans-serif" font-size="11" lengthAdjust="spacing" textLength="116" x="480" y="275.3198">+CountryPortGraph()</text><!--MD5=[4f1f3706c1a355a8488e154afcaed5df]
class Location--><rect codeLine="18" fill="#FEFECE" filter="url(#f187irke7l4246)" height="176.0469" id="Location" style="stroke:#A80036;stroke-width:1.5;" width="121" x="499" y="316.5"/><ellipse cx="531.55" cy="332.5" fill="#ADD1B2" rx="11" ry="11" style="stroke:#A80036;stroke-width:1.0;"/><path d="M533.8938,328.1719 C532.9563,327.7344 532.3625,327.5938 531.4875,327.5938 C528.8625,327.5938 526.8625,329.6719 526.8625,332.3906 L526.8625,333.5156 C526.8625,336.0938 528.9719,337.9844 531.8625,337.9844 C533.0813,337.9844 534.2375,337.6875 534.9875,337.1406 C535.5656,336.7344 535.8938,336.2813 535.8938,335.8906 C535.8938,335.4375 535.5031,335.0469 535.0344,335.0469 C534.8156,335.0469 534.6125,335.125 534.425,335.3125 C533.9719,335.7969 533.9719,335.7969 533.7844,335.8906 C533.3625,336.1563 532.675,336.2813 531.9094,336.2813 C529.8625,336.2813 528.5656,335.1875 528.5656,333.4844 L528.5656,332.3906 C528.5656,330.6094 529.8156,329.2969 531.55,329.2969 C532.1281,329.2969 532.7375,329.4531 533.2063,329.7031 C533.6906,329.9844 533.8625,330.2031 533.9563,330.6094 C534.0188,331.0156 534.05,331.1406 534.1906,331.2656 C534.3313,331.4063 534.5656,331.5156 534.7844,331.5156 C535.05,331.5156 535.3156,331.375 535.4875,331.1563 C535.5969,331 535.6281,330.8125 535.6281,330.3906 L535.6281,328.9688 C535.6281,328.5313 535.6125,328.4063 535.5188,328.25 C535.3625,327.9844 535.0813,327.8438 534.7844,327.8438 C534.4875,327.8438 534.2844,327.9375 534.0656,328.25 L533.8938,328.1719 Z " fill="#000000"/><text fill="#000000" font-family="sans-serif" font-size="12" lengthAdjust="spacing" textLength="50" x="549.45" y="336.6543">Location</text><line style="stroke:#A80036;stroke-width:1.5;" x1="500" x2="619" y1="348.5" y2="348.5"/><text fill="#000000" font-family="sans-serif" font-size="11" lengthAdjust="spacing" textLength="93" x="505" y="362.7104">-latitude: double</text><text fill="#000000" font-family="sans-serif" font-size="11" lengthAdjust="spacing" textLength="103" x="505" y="375.5151">-longitude: double</text><text fill="#000000" font-family="sans-serif" font-size="11" lengthAdjust="spacing" textLength="93" x="505" y="388.3198">-latitude: double</text><text fill="#000000" font-family="sans-serif" font-size="11" lengthAdjust="spacing" textLength="103" x="505" y="401.1245">-longitude: double</text><line style="stroke:#A80036;stroke-width:1.5;" x1="500" x2="619" y1="407.7188" y2="407.7188"/><text fill="#000000" font-family="sans-serif" font-size="11" lengthAdjust="spacing" textLength="61" x="505" y="421.9292">+toString()</text><text fill="#000000" font-family="sans-serif" font-size="11" lengthAdjust="spacing" textLength="78" x="505" y="434.7339">+equals(ship)</text><text fill="#000000" font-family="sans-serif" font-size="11" lengthAdjust="spacing" textLength="109" x="505" y="447.5386">+acessorMethods()</text><text fill="#000000" font-family="sans-serif" font-size="11" lengthAdjust="spacing" textLength="61" x="505" y="460.3433">+toString()</text><text fill="#000000" font-family="sans-serif" font-size="11" lengthAdjust="spacing" textLength="78" x="505" y="473.1479">+equals(ship)</text><text fill="#000000" font-family="sans-serif" font-size="11" lengthAdjust="spacing" textLength="109" x="505" y="485.9526">+acessorMethods()</text><!--MD5=[a0bfe97ac0a38e6e74cc1c7c7b744b71]
class Port--><rect codeLine="26" fill="#FEFECE" filter="url(#f187irke7l4246)" height="163.2422" id="Port" style="stroke:#A80036;stroke-width:1.5;" width="262" x="944.5" y="7"/><ellipse cx="1059.75" cy="23" fill="#ADD1B2" rx="11" ry="11" style="stroke:#A80036;stroke-width:1.0;"/><path d="M1062.0938,18.6719 C1061.1563,18.2344 1060.5625,18.0938 1059.6875,18.0938 C1057.0625,18.0938 1055.0625,20.1719 1055.0625,22.8906 L1055.0625,24.0156 C1055.0625,26.5938 1057.1719,28.4844 1060.0625,28.4844 C1061.2813,28.4844 1062.4375,28.1875 1063.1875,27.6406 C1063.7656,27.2344 1064.0938,26.7813 1064.0938,26.3906 C1064.0938,25.9375 1063.7031,25.5469 1063.2344,25.5469 C1063.0156,25.5469 1062.8125,25.625 1062.625,25.8125 C1062.1719,26.2969 1062.1719,26.2969 1061.9844,26.3906 C1061.5625,26.6563 1060.875,26.7813 1060.1094,26.7813 C1058.0625,26.7813 1056.7656,25.6875 1056.7656,23.9844 L1056.7656,22.8906 C1056.7656,21.1094 1058.0156,19.7969 1059.75,19.7969 C1060.3281,19.7969 1060.9375,19.9531 1061.4063,20.2031 C1061.8906,20.4844 1062.0625,20.7031 1062.1563,21.1094 C1062.2188,21.5156 1062.25,21.6406 1062.3906,21.7656 C1062.5313,21.9063 1062.7656,22.0156 1062.9844,22.0156 C1063.25,22.0156 1063.5156,21.875 1063.6875,21.6563 C1063.7969,21.5 1063.8281,21.3125 1063.8281,20.8906 L1063.8281,19.4688 C1063.8281,19.0313 1063.8125,18.9063 1063.7188,18.75 C1063.5625,18.4844 1063.2813,18.3438 1062.9844,18.3438 C1062.6875,18.3438 1062.4844,18.4375 1062.2656,18.75 L1062.0938,18.6719 Z " fill="#000000"/><text fill="#000000" font-family="sans-serif" font-size="12" lengthAdjust="spacing" textLength="23" x="1080.25" y="27.1543">Port</text><line style="stroke:#A80036;stroke-width:1.5;" x1="945.5" x2="1205.5" y1="39" y2="39"/><text fill="#000000" font-family="sans-serif" font-size="11" lengthAdjust="spacing" textLength="93" x="950.5" y="53.2104">-continent:String</text><text fill="#000000" font-family="sans-serif" font-size="11" lengthAdjust="spacing" textLength="82" x="950.5" y="66.0151">-country:String</text><text fill="#000000" font-family="sans-serif" font-size="11" lengthAdjust="spacing" textLength="49" x="950.5" y="78.8198">-code:int</text><text fill="#000000" font-family="sans-serif" font-size="11" lengthAdjust="spacing" textLength="94" x="950.5" y="91.6245">-namePort:String</text><text fill="#000000" font-family="sans-serif" font-size="11" lengthAdjust="spacing" textLength="102" x="950.5" y="104.4292">-location: Location</text><text fill="#000000" font-family="sans-serif" font-size="11" lengthAdjust="spacing" textLength="153" x="950.5" y="117.2339">-averageCloseness:double</text><line style="stroke:#A80036;stroke-width:1.5;" x1="945.5" x2="1205.5" y1="123.8281" y2="123.8281"/><text fill="#000000" font-family="sans-serif" font-size="11" lengthAdjust="spacing" textLength="144" x="950.5" y="138.0386">+getAverageCloseness()</text><text fill="#000000" font-family="sans-serif" font-size="11" lengthAdjust="spacing" textLength="250" x="950.5" y="150.8433">+setAverageCloseness(averageCloseness)</text><text fill="#000000" font-family="sans-serif" font-size="11" lengthAdjust="spacing" textLength="109" x="950.5" y="163.6479">+acessorMethods()</text><!--MD5=[deb4e1f6eb1e3c1256fdb830f96abfbb]
class Country--><rect codeLine="38" fill="#FEFECE" filter="url(#f187irke7l4246)" height="201.6563" id="Country" style="stroke:#A80036;stroke-width:1.5;" width="627" x="762" y="205.5"/><ellipse cx="1048.25" cy="221.5" fill="#ADD1B2" rx="11" ry="11" style="stroke:#A80036;stroke-width:1.0;"/><path d="M1050.5938,217.1719 C1049.6563,216.7344 1049.0625,216.5938 1048.1875,216.5938 C1045.5625,216.5938 1043.5625,218.6719 1043.5625,221.3906 L1043.5625,222.5156 C1043.5625,225.0938 1045.6719,226.9844 1048.5625,226.9844 C1049.7813,226.9844 1050.9375,226.6875 1051.6875,226.1406 C1052.2656,225.7344 1052.5938,225.2813 1052.5938,224.8906 C1052.5938,224.4375 1052.2031,224.0469 1051.7344,224.0469 C1051.5156,224.0469 1051.3125,224.125 1051.125,224.3125 C1050.6719,224.7969 1050.6719,224.7969 1050.4844,224.8906 C1050.0625,225.1563 1049.375,225.2813 1048.6094,225.2813 C1046.5625,225.2813 1045.2656,224.1875 1045.2656,222.4844 L1045.2656,221.3906 C1045.2656,219.6094 1046.5156,218.2969 1048.25,218.2969 C1048.8281,218.2969 1049.4375,218.4531 1049.9063,218.7031 C1050.3906,218.9844 1050.5625,219.2031 1050.6563,219.6094 C1050.7188,220.0156 1050.75,220.1406 1050.8906,220.2656 C1051.0313,220.4063 1051.2656,220.5156 1051.4844,220.5156 C1051.75,220.5156 1052.0156,220.375 1052.1875,220.1563 C1052.2969,220 1052.3281,219.8125 1052.3281,219.3906 L1052.3281,217.9688 C1052.3281,217.5313 1052.3125,217.4063 1052.2188,217.25 C1052.0625,216.9844 1051.7813,216.8438 1051.4844,216.8438 C1051.1875,216.8438 1050.9844,216.9375 1050.7656,217.25 L1050.5938,217.1719 Z " fill="#000000"/><text fill="#000000" font-family="sans-serif" font-size="12" lengthAdjust="spacing" textLength="46" x="1068.75" y="225.6543">Country</text><line style="stroke:#A80036;stroke-width:1.5;" x1="763" x2="1388" y1="237.5" y2="237.5"/><text fill="#000000" font-family="sans-serif" font-size="11" lengthAdjust="spacing" textLength="115" x="768" y="251.7104">-continent:Continent</text><text fill="#000000" font-family="sans-serif" font-size="11" lengthAdjust="spacing" textLength="142" x="768" y="264.5151">-capitalLocation: Location</text><text fill="#000000" font-family="sans-serif" font-size="11" lengthAdjust="spacing" textLength="73" x="768" y="277.3198">-name:String</text><text fill="#000000" font-family="sans-serif" font-size="11" lengthAdjust="spacing" textLength="106" x="768" y="290.1245">-alpha2code:String</text><text fill="#000000" font-family="sans-serif" font-size="11" lengthAdjust="spacing" textLength="106" x="768" y="302.9292">-alpha3code:String</text><text fill="#000000" font-family="sans-serif" font-size="11" lengthAdjust="spacing" textLength="105" x="768" y="315.7339">-population:double</text><text fill="#000000" font-family="sans-serif" font-size="11" lengthAdjust="spacing" textLength="77" x="768" y="328.5386">-capital:String</text><text fill="#000000" font-family="sans-serif" font-size="11" lengthAdjust="spacing" textLength="153" x="768" y="341.3433">-averageCloseness:double</text><line style="stroke:#A80036;stroke-width:1.5;" x1="763" x2="1388" y1="347.9375" y2="347.9375"/><text fill="#000000" font-family="sans-serif" font-size="11" lengthAdjust="spacing" textLength="615" x="768" y="362.1479">+Country(continent, capitalLocation, name, alpha2code, alpha3code, population, capital, averageCloseness)</text><text fill="#000000" font-family="sans-serif" font-size="11" lengthAdjust="spacing" textLength="61" x="768" y="374.9526">+toString()</text><text fill="#000000" font-family="sans-serif" font-size="11" lengthAdjust="spacing" textLength="146" x="768" y="387.7573">+setAverageCloseness();</text><text fill="#000000" font-family="sans-serif" font-size="11" lengthAdjust="spacing" textLength="147" x="768" y="400.562">+getAverageCloseness();</text><!--MD5=[f652e9386ccc6245d0bbbe2b4f5ee1c0]
class Closeness--><rect codeLine="53" fill="#FEFECE" filter="url(#f187irke7l4246)" height="86.4141" id="Closeness" style="stroke:#A80036;stroke-width:1.5;" width="317" x="7" y="361.5"/><ellipse cx="129.75" cy="377.5" fill="#ADD1B2" rx="11" ry="11" style="stroke:#A80036;stroke-width:1.0;"/><path d="M132.0938,373.1719 C131.1563,372.7344 130.5625,372.5938 129.6875,372.5938 C127.0625,372.5938 125.0625,374.6719 125.0625,377.3906 L125.0625,378.5156 C125.0625,381.0938 127.1719,382.9844 130.0625,382.9844 C131.2813,382.9844 132.4375,382.6875 133.1875,382.1406 C133.7656,381.7344 134.0938,381.2813 134.0938,380.8906 C134.0938,380.4375 133.7031,380.0469 133.2344,380.0469 C133.0156,380.0469 132.8125,380.125 132.625,380.3125 C132.1719,380.7969 132.1719,380.7969 131.9844,380.8906 C131.5625,381.1563 130.875,381.2813 130.1094,381.2813 C128.0625,381.2813 126.7656,380.1875 126.7656,378.4844 L126.7656,377.3906 C126.7656,375.6094 128.0156,374.2969 129.75,374.2969 C130.3281,374.2969 130.9375,374.4531 131.4063,374.7031 C131.8906,374.9844 132.0625,375.2031 132.1563,375.6094 C132.2188,376.0156 132.25,376.1406 132.3906,376.2656 C132.5313,376.4063 132.7656,376.5156 132.9844,376.5156 C133.25,376.5156 133.5156,376.375 133.6875,376.1563 C133.7969,376 133.8281,375.8125 133.8281,375.3906 L133.8281,373.9688 C133.8281,373.5313 133.8125,373.4063 133.7188,373.25 C133.5625,372.9844 133.2813,372.8438 132.9844,372.8438 C132.6875,372.8438 132.4844,372.9375 132.2656,373.25 L132.0938,373.1719 Z " fill="#000000"/><text fill="#000000" font-family="sans-serif" font-size="12" lengthAdjust="spacing" textLength="63" x="150.25" y="381.6543">Closeness</text><line style="stroke:#A80036;stroke-width:1.5;" x1="8" x2="323" y1="393.5" y2="393.5"/><line style="stroke:#A80036;stroke-width:1.5;" x1="8" x2="323" y1="401.5" y2="401.5"/><text fill="#000000" font-family="sans-serif" font-size="11" lengthAdjust="spacing" textLength="76" x="13" y="415.7104">+Closeness()</text><text fill="#000000" font-family="sans-serif" font-size="11" lengthAdjust="spacing" textLength="179" x="13" y="428.5151">+calculateCloseness(fileName)</text><text fill="#000000" font-family="sans-serif" font-size="11" lengthAdjust="spacing" textLength="305" x="13" y="441.3198">-getAllCountriesFromContinent(continent, vLinkedList)</text><!--MD5=[ddf964ba65dd59a9c60a1e1cd8efc8b4]
class GraphLocation--><rect codeLine="58" fill="#FEFECE" filter="url(#f187irke7l4246)" height="112.0234" id="GraphLocation" style="stroke:#A80036;stroke-width:1.5;" width="227" x="1505" y="122.5"/><ellipse cx="1570.25" cy="138.5" fill="#B4A7E5" rx="11" ry="11" style="stroke:#A80036;stroke-width:1.0;"/><path d="M1571.2031,135.2813 L1572.9219,135.2813 C1573.3125,135.2813 1573.5,135.25 1573.625,135.1719 C1573.8906,135.0156 1574.0313,134.7344 1574.0313,134.4375 C1574.0313,134.1719 1573.9219,133.9063 1573.6875,133.7344 C1573.5156,133.625 1573.375,133.5938 1572.9219,133.5938 L1567.7813,133.5938 C1567.3438,133.5938 1567.2188,133.6094 1567.0625,133.7031 C1566.8125,133.8594 1566.6563,134.1563 1566.6563,134.4375 C1566.6563,134.7188 1566.7969,134.9688 1567.0156,135.1406 C1567.1719,135.25 1567.3594,135.2813 1567.7813,135.2813 L1569.5,135.2813 L1569.5,141.7969 L1567.7813,141.7969 C1567.3438,141.7969 1567.2188,141.8125 1567.0625,141.9219 C1566.8125,142.0781 1566.6563,142.3594 1566.6563,142.6563 C1566.6563,142.9063 1566.7969,143.1719 1567.0156,143.3281 C1567.1719,143.4531 1567.375,143.5 1567.7813,143.5 L1572.9219,143.5 C1573.6719,143.5 1574.0313,143.2188 1574.0313,142.6563 C1574.0313,142.375 1573.9219,142.125 1573.6875,141.9531 C1573.5156,141.8281 1573.375,141.7969 1572.9219,141.7969 L1571.2031,141.7969 L1571.2031,135.2813 Z " fill="#000000"/><text fill="#000000" font-family="sans-serif" font-size="12" font-style="italic" lengthAdjust="spacing" textLength="88" x="1590.75" y="142.6543">GraphLocation</text><line style="stroke:#A80036;stroke-width:1.5;" x1="1506" x2="1731" y1="154.5" y2="154.5"/><line style="stroke:#A80036;stroke-width:1.5;" x1="1506" x2="1731" y1="162.5" y2="162.5"/><text fill="#000000" font-family="sans-serif" font-size="11" lengthAdjust="spacing" textLength="128" x="1511" y="176.7104">Location getLocation();</text><text fill="#000000" font-family="sans-serif" font-size="11" lengthAdjust="spacing" textLength="101" x="1511" y="189.5151">String getName();</text><text fill="#000000" font-family="sans-serif" font-size="11" lengthAdjust="spacing" textLength="134" x="1511" y="202.3198">Double getCloseness();</text><text fill="#000000" font-family="sans-serif" font-size="11" lengthAdjust="spacing" textLength="215" x="1511" y="215.1245">void setAverageCloseness(double v);</text><text fill="#000000" font-family="sans-serif" font-size="11" lengthAdjust="spacing" textLength="144" x="1511" y="227.9292">Continent getContinent();</text><!--MD5=[4533588fb66c6fa31a6e04bf29ae6161]
class Algorithms--><rect codeLine="66" fill="#FEFECE" filter="url(#f187irke7l4246)" height="73.6094" id="Algorithms" style="stroke:#A80036;stroke-width:1.5;" width="173" x="473" y="527.5"/><ellipse cx="523.25" cy="543.5" fill="#ADD1B2" rx="11" ry="11" style="stroke:#A80036;stroke-width:1.0;"/><path d="M525.5938,539.1719 C524.6563,538.7344 524.0625,538.5938 523.1875,538.5938 C520.5625,538.5938 518.5625,540.6719 518.5625,543.3906 L518.5625,544.5156 C518.5625,547.0938 520.6719,548.9844 523.5625,548.9844 C524.7813,548.9844 525.9375,548.6875 526.6875,548.1406 C527.2656,547.7344 527.5938,547.2813 527.5938,546.8906 C527.5938,546.4375 527.2031,546.0469 526.7344,546.0469 C526.5156,546.0469 526.3125,546.125 526.125,546.3125 C525.6719,546.7969 525.6719,546.7969 525.4844,546.8906 C525.0625,547.1563 524.375,547.2813 523.6094,547.2813 C521.5625,547.2813 520.2656,546.1875 520.2656,544.4844 L520.2656,543.3906 C520.2656,541.6094 521.5156,540.2969 523.25,540.2969 C523.8281,540.2969 524.4375,540.4531 524.9063,540.7031 C525.3906,540.9844 525.5625,541.2031 525.6563,541.6094 C525.7188,542.0156 525.75,542.1406 525.8906,542.2656 C526.0313,542.4063 526.2656,542.5156 526.4844,542.5156 C526.75,542.5156 527.0156,542.375 527.1875,542.1563 C527.2969,542 527.3281,541.8125 527.3281,541.3906 L527.3281,539.9688 C527.3281,539.5313 527.3125,539.4063 527.2188,539.25 C527.0625,538.9844 526.7813,538.8438 526.4844,538.8438 C526.1875,538.8438 525.9844,538.9375 525.7656,539.25 L525.5938,539.1719 Z " fill="#000000"/><text fill="#000000" font-family="sans-serif" font-size="12" lengthAdjust="spacing" textLength="64" x="543.75" y="547.6543">Algorithms</text><line style="stroke:#A80036;stroke-width:1.5;" x1="474" x2="645" y1="559.5" y2="559.5"/><text fill="#000000" font-family="sans-serif" font-size="11" lengthAdjust="spacing" textLength="99" x="479" y="573.7104">-assignCloseness</text><line style="stroke:#A80036;stroke-width:1.5;" x1="474" x2="645" y1="580.3047" y2="580.3047"/><text fill="#000000" font-family="sans-serif" font-size="11" lengthAdjust="spacing" textLength="161" x="479" y="594.5151">+breadthFirstSearch(g, vert)</text><!--MD5=[be6385f8b7cea52f08659134f26b387e]
link Closeness to Location--><path codeLine="71" d="M324.247,404.5 C383.449,404.5 447.496,404.5 493.633,404.5 " fill="none" id="Closeness-to-Location" style="stroke:#A80036;stroke-width:1.0;"/><polygon fill="#A80036" points="498.886,404.5,489.886,400.5,493.886,404.5,489.886,408.5,498.886,404.5" style="stroke:#A80036;stroke-width:1.0;"/><!--MD5=[667e4349a30fdc8a51bb35ea7ad84f23]
link Closeness to CountryPortGraph--><path codeLine="72" d="M268.215,361.427 C330.452,335.071 409.34,301.665 469.164,276.331 " fill="none" id="Closeness-to-CountryPortGraph" style="stroke:#A80036;stroke-width:1.0;stroke-dasharray:7.0,7.0;"/><polygon fill="#A80036" points="473.8,274.368,463.9527,274.1946,469.1959,276.3179,467.0725,281.5611,473.8,274.368" style="stroke:#A80036;stroke-width:1.0;"/><!--MD5=[237be27724b0120d24241223dbecf307]
link Closeness to Algorithms--><path codeLine="73" d="M272.064,447.588 C333.272,472.57 409.549,503.7036 467.997,527.5599 " fill="none" id="Closeness-to-Algorithms" style="stroke:#A80036;stroke-width:1.0;stroke-dasharray:7.0,7.0;"/><polygon fill="#A80036" points="472.883,529.5544,466.0608,522.451,468.2535,527.6657,463.0388,529.8583,472.883,529.5544" style="stroke:#A80036;stroke-width:1.0;"/><text fill="#000000" font-family="sans-serif" font-size="13" lengthAdjust="spacing" textLength="87" x="355" y="480.5669">makes use of</text><!--MD5=[4df1422b8629e0f4fa74e686c9c9ab0e]
link CountryPortGraph to Country--><path codeLine="76" d="M645.089,249.691 C677.196,253.938 715.968,259.068 756.915,264.485 " fill="none" id="CountryPortGraph-to-Country" style="stroke:#A80036;stroke-width:1.0;"/><polygon fill="#A80036" points="761.919,265.147,753.5213,260.0013,756.9622,264.4913,752.4722,267.9322,761.919,265.147" style="stroke:#A80036;stroke-width:1.0;"/><text fill="#000000" font-family="sans-serif" font-size="13" lengthAdjust="spacing" textLength="54" x="677" y="250.5669">contains</text><text fill="#000000" font-family="sans-serif" font-size="13" lengthAdjust="spacing" textLength="8" x="653.068" y="263.41">1</text><text fill="#000000" font-family="sans-serif" font-size="13" lengthAdjust="spacing" textLength="8" x="746.4757" y="276.426">1</text><!--MD5=[f72f922769b6338dcfe55bfdc0636e7d]
link CountryPortGraph to Port--><path codeLine="77" d="M645.089,213.815 C724.878,190.53 845.817,155.236 939.038,128.032 " fill="none" id="CountryPortGraph-to-Port" style="stroke:#A80036;stroke-width:1.0;"/><polygon fill="#A80036" points="944.015,126.579,934.2546,125.2617,939.2154,127.9803,936.4967,132.9411,944.015,126.579" style="stroke:#A80036;stroke-width:1.0;"/><text fill="#000000" font-family="sans-serif" font-size="13" lengthAdjust="spacing" textLength="54" x="677" y="185.5669">contains</text><text fill="#000000" font-family="sans-serif" font-size="13" lengthAdjust="spacing" textLength="8" x="653.068" y="224.3388">1</text><text fill="#000000" font-family="sans-serif" font-size="13" lengthAdjust="spacing" textLength="8" x="928.6057" y="141.1355">1</text><!--MD5=[9f97b6ad89d1aece2562b761589d6d34]
link Port to GraphLocation--><path codeLine="78" d="M1206.77,110.172 C1295.98,125.012 1413.31,144.531 1499.72,158.906 " fill="none" id="Port-to-GraphLocation" style="stroke:#A80036;stroke-width:1.0;"/><polygon fill="#A80036" points="1504.84,159.759,1496.6272,154.323,1499.9091,158.9305,1495.3016,162.2124,1504.84,159.759" style="stroke:#A80036;stroke-width:1.0;"/><text fill="#000000" font-family="sans-serif" font-size="13" lengthAdjust="spacing" textLength="54" x="1420" y="143.5669">contains</text><text fill="#000000" font-family="sans-serif" font-size="13" lengthAdjust="spacing" textLength="8" x="1214.5903" y="123.9222">1</text><text fill="#000000" font-family="sans-serif" font-size="13" lengthAdjust="spacing" textLength="8" x="1488.9347" y="171.0743">1</text><!--MD5=[e77ae515a123f4d5d126c811ebc8ece3]
link Country to GraphLocation--><path codeLine="79" d="M1389.24,232.505 C1428.49,223.219 1466.53,214.22 1499.93,206.318 " fill="none" id="Country-to-GraphLocation" style="stroke:#A80036;stroke-width:1.0;"/><polygon fill="#A80036" points="1504.82,205.16,1495.1387,203.3508,1499.9557,206.3168,1496.9896,211.1337,1504.82,205.16" style="stroke:#A80036;stroke-width:1.0;"/><text fill="#000000" font-family="sans-serif" font-size="13" lengthAdjust="spacing" textLength="54" x="1420" y="208.5669">contains</text><text fill="#000000" font-family="sans-serif" font-size="13" lengthAdjust="spacing" textLength="8" x="1396.687" y="243.019">1</text><text fill="#000000" font-family="sans-serif" font-size="13" lengthAdjust="spacing" textLength="8" x="1488.9134" y="219.5257">1</text><!--MD5=[1ca9e1dd3026a13d9ed0c867d683a994]
@startuml
skinparam classAttributeIconSize 0
left to right direction

class CountryPortGraph{
-portStore: PortStore
-countryStore: CountryStore
+CountryPortGraph()
}

class Location{
- latitude: double
- longitude: double
+toString()
+equals(ship)
+acessorMethods()
}

class Location{
- latitude: double
- longitude: double
+toString()
+equals(ship)
+acessorMethods()
}

class "Port"{
-continent:String
-country:String
-code:int
-namePort:String
-location: Location
-averageCloseness:double 
+getAverageCloseness()
+setAverageCloseness(averageCloseness)
+acessorMethods()
}

class Country {
-continent:Continent 
-capitalLocation: Location 
-name:String 
-alpha2code:String 
-alpha3code:String 
-population:double 
-capital:String 
-averageCloseness:double 
+Country(continent, capitalLocation, name, alpha2code, alpha3code, population, capital, averageCloseness)
+toString()
+setAverageCloseness();
+getAverageCloseness();
}

class Closeness{
+Closeness()
+calculateCloseness(fileName)
-getAllCountriesFromContinent(continent, vLinkedList)
}
interface GraphLocation {
Location getLocation();
String getName();
Double getCloseness();
void setAverageCloseness(double v);
Continent getContinent();
}

class Algorithms {
+breadthFirstSearch(g, vert)
-assignCloseness
}

Closeness- -> Location
Closeness..> CountryPortGraph
Closeness..> Algorithms : makes use of


CountryPortGraph "1" - -> "1" Country:contains
CountryPortGraph "1" - -> "1" Port:contains
Port "1" - -> "1" GraphLocation: contains
Country"1" - -> "1" GraphLocation: contains
@enduml

PlantUML version 1.2021.17beta4(Unknown compile time)
(GPL source distribution)
Java Runtime: Java(TM) SE Runtime Environment
JVM: Java HotSpot(TM) 64-Bit Server VM
Default Encoding: UTF-8
Language: en
Country: US
--></g></svg>