<?xml version="1.0" encoding="UTF-8" standalone="no"?><svg xmlns="http://www.w3.org/2000/svg" xmlns:xlink="http://www.w3.org/1999/xlink" contentScriptType="application/ecmascript" contentStyleType="text/css" height="421px" preserveAspectRatio="none" style="width:1572px;height:421px;background:#FFFFFF;" version="1.1" viewBox="0 0 1572 421" width="1572px" zoomAndPan="magnify"><defs><filter height="300%" id="f3kml7f98w9cb" width="300%" x="-1" y="-1"><feGaussianBlur result="blurOut" stdDeviation="2.0"/><feColorMatrix in="blurOut" result="blurOut2" type="matrix" values="0 0 0 0 0 0 0 0 0 0 0 0 0 0 0 0 0 0 .4 0"/><feOffset dx="4.0" dy="4.0" in="blurOut2" result="blurOut3"/><feBlend in="SourceGraphic" in2="blurOut3" mode="normal"/></filter></defs><g><!--MD5=[5011bf3d6c61ba0c0b7af54c2595cffb]
class CountryPortGraph--><rect codeLine="4" fill="#FEFECE" filter="url(#f3kml7f98w9cb)" height="137.6328" id="CountryPortGraph" style="stroke:#A80036;stroke-width:1.5;" width="215" x="257" y="264.5"/><ellipse cx="307.75" cy="280.5" fill="#ADD1B2" rx="11" ry="11" style="stroke:#A80036;stroke-width:1.0;"/><path d="M310.0938,276.1719 C309.1563,275.7344 308.5625,275.5938 307.6875,275.5938 C305.0625,275.5938 303.0625,277.6719 303.0625,280.3906 L303.0625,281.5156 C303.0625,284.0938 305.1719,285.9844 308.0625,285.9844 C309.2813,285.9844 310.4375,285.6875 311.1875,285.1406 C311.7656,284.7344 312.0938,284.2813 312.0938,283.8906 C312.0938,283.4375 311.7031,283.0469 311.2344,283.0469 C311.0156,283.0469 310.8125,283.125 310.625,283.3125 C310.1719,283.7969 310.1719,283.7969 309.9844,283.8906 C309.5625,284.1563 308.875,284.2813 308.1094,284.2813 C306.0625,284.2813 304.7656,283.1875 304.7656,281.4844 L304.7656,280.3906 C304.7656,278.6094 306.0156,277.2969 307.75,277.2969 C308.3281,277.2969 308.9375,277.4531 309.4063,277.7031 C309.8906,277.9844 310.0625,278.2031 310.1563,278.6094 C310.2188,279.0156 310.25,279.1406 310.3906,279.2656 C310.5313,279.4063 310.7656,279.5156 310.9844,279.5156 C311.25,279.5156 311.5156,279.375 311.6875,279.1563 C311.7969,279 311.8281,278.8125 311.8281,278.3906 L311.8281,276.9688 C311.8281,276.5313 311.8125,276.4063 311.7188,276.25 C311.5625,275.9844 311.2813,275.8438 310.9844,275.8438 C310.6875,275.8438 310.4844,275.9375 310.2656,276.25 L310.0938,276.1719 Z " fill="#000000"/><text fill="#000000" font-family="sans-serif" font-size="12" lengthAdjust="spacing" textLength="105" x="328.25" y="284.6543">CountryPortGraph</text><line style="stroke:#A80036;stroke-width:1.5;" x1="258" x2="471" y1="296.5" y2="296.5"/><text fill="#000000" font-family="sans-serif" font-size="11" lengthAdjust="spacing" textLength="116" x="263" y="310.7104">-portStore: PortStore</text><text fill="#000000" font-family="sans-serif" font-size="11" lengthAdjust="spacing" textLength="159" x="263" y="323.5151">-countryStore: CountryStore</text><line style="stroke:#A80036;stroke-width:1.5;" x1="258" x2="471" y1="330.1094" y2="330.1094"/><text fill="#000000" font-family="sans-serif" font-size="11" lengthAdjust="spacing" textLength="147" x="263" y="344.3198">+privateCreatorMethods()</text><text fill="#000000" font-family="sans-serif" font-size="11" lengthAdjust="spacing" textLength="116" x="263" y="357.1245">+CountryPortGraph()</text><text fill="#000000" font-family="sans-serif" font-size="11" lengthAdjust="spacing" textLength="154" x="263" y="369.9292">+shortestPath(vOrig,vDest)</text><text fill="#000000" font-family="sans-serif" font-size="11" lengthAdjust="spacing" textLength="182" x="263" y="382.7339">+shortestPathLand(vOrig,VDest)</text><text fill="#000000" font-family="sans-serif" font-size="11" lengthAdjust="spacing" textLength="203" x="263" y="395.5386">+shortestPathMaritime(vOrig,vDest)</text><!--MD5=[4f1f3706c1a355a8488e154afcaed5df]
class Location--><rect codeLine="22" fill="#FEFECE" filter="url(#f3kml7f98w9cb)" height="176.0469" id="Location" style="stroke:#A80036;stroke-width:1.5;" width="121" x="1384" y="189.5"/><ellipse cx="1416.55" cy="205.5" fill="#ADD1B2" rx="11" ry="11" style="stroke:#A80036;stroke-width:1.0;"/><path d="M1418.8938,201.1719 C1417.9563,200.7344 1417.3625,200.5938 1416.4875,200.5938 C1413.8625,200.5938 1411.8625,202.6719 1411.8625,205.3906 L1411.8625,206.5156 C1411.8625,209.0938 1413.9719,210.9844 1416.8625,210.9844 C1418.0813,210.9844 1419.2375,210.6875 1419.9875,210.1406 C1420.5656,209.7344 1420.8938,209.2813 1420.8938,208.8906 C1420.8938,208.4375 1420.5031,208.0469 1420.0344,208.0469 C1419.8156,208.0469 1419.6125,208.125 1419.425,208.3125 C1418.9719,208.7969 1418.9719,208.7969 1418.7844,208.8906 C1418.3625,209.1563 1417.675,209.2813 1416.9094,209.2813 C1414.8625,209.2813 1413.5656,208.1875 1413.5656,206.4844 L1413.5656,205.3906 C1413.5656,203.6094 1414.8156,202.2969 1416.55,202.2969 C1417.1281,202.2969 1417.7375,202.4531 1418.2063,202.7031 C1418.6906,202.9844 1418.8625,203.2031 1418.9563,203.6094 C1419.0188,204.0156 1419.05,204.1406 1419.1906,204.2656 C1419.3313,204.4063 1419.5656,204.5156 1419.7844,204.5156 C1420.05,204.5156 1420.3156,204.375 1420.4875,204.1563 C1420.5969,204 1420.6281,203.8125 1420.6281,203.3906 L1420.6281,201.9688 C1420.6281,201.5313 1420.6125,201.4063 1420.5188,201.25 C1420.3625,200.9844 1420.0813,200.8438 1419.7844,200.8438 C1419.4875,200.8438 1419.2844,200.9375 1419.0656,201.25 L1418.8938,201.1719 Z " fill="#000000"/><text fill="#000000" font-family="sans-serif" font-size="12" lengthAdjust="spacing" textLength="50" x="1434.45" y="209.6543">Location</text><line style="stroke:#A80036;stroke-width:1.5;" x1="1385" x2="1504" y1="221.5" y2="221.5"/><text fill="#000000" font-family="sans-serif" font-size="11" lengthAdjust="spacing" textLength="93" x="1390" y="235.7104">-latitude: double</text><text fill="#000000" font-family="sans-serif" font-size="11" lengthAdjust="spacing" textLength="103" x="1390" y="248.5151">-longitude: double</text><text fill="#000000" font-family="sans-serif" font-size="11" lengthAdjust="spacing" textLength="93" x="1390" y="261.3198">-latitude: double</text><text fill="#000000" font-family="sans-serif" font-size="11" lengthAdjust="spacing" textLength="103" x="1390" y="274.1245">-longitude: double</text><line style="stroke:#A80036;stroke-width:1.5;" x1="1385" x2="1504" y1="280.7188" y2="280.7188"/><text fill="#000000" font-family="sans-serif" font-size="11" lengthAdjust="spacing" textLength="61" x="1390" y="294.9292">+toString()</text><text fill="#000000" font-family="sans-serif" font-size="11" lengthAdjust="spacing" textLength="78" x="1390" y="307.7339">+equals(ship)</text><text fill="#000000" font-family="sans-serif" font-size="11" lengthAdjust="spacing" textLength="109" x="1390" y="320.5386">+acessorMethods()</text><text fill="#000000" font-family="sans-serif" font-size="11" lengthAdjust="spacing" textLength="61" x="1390" y="333.3433">+toString()</text><text fill="#000000" font-family="sans-serif" font-size="11" lengthAdjust="spacing" textLength="78" x="1390" y="346.1479">+equals(ship)</text><text fill="#000000" font-family="sans-serif" font-size="11" lengthAdjust="spacing" textLength="109" x="1390" y="358.9526">+acessorMethods()</text><!--MD5=[b7b072196a724e538165319251b4d539]
class MatrixGraph--><rect codeLine="29" fill="#FEFECE" filter="url(#f3kml7f98w9cb)" height="86.4141" id="MatrixGraph" style="stroke:#A80036;stroke-width:1.5;" width="189" x="7" y="290.5"/><ellipse cx="61.25" cy="306.5" fill="#ADD1B2" rx="11" ry="11" style="stroke:#A80036;stroke-width:1.0;"/><path d="M63.5938,302.1719 C62.6563,301.7344 62.0625,301.5938 61.1875,301.5938 C58.5625,301.5938 56.5625,303.6719 56.5625,306.3906 L56.5625,307.5156 C56.5625,310.0938 58.6719,311.9844 61.5625,311.9844 C62.7813,311.9844 63.9375,311.6875 64.6875,311.1406 C65.2656,310.7344 65.5938,310.2813 65.5938,309.8906 C65.5938,309.4375 65.2031,309.0469 64.7344,309.0469 C64.5156,309.0469 64.3125,309.125 64.125,309.3125 C63.6719,309.7969 63.6719,309.7969 63.4844,309.8906 C63.0625,310.1563 62.375,310.2813 61.6094,310.2813 C59.5625,310.2813 58.2656,309.1875 58.2656,307.4844 L58.2656,306.3906 C58.2656,304.6094 59.5156,303.2969 61.25,303.2969 C61.8281,303.2969 62.4375,303.4531 62.9063,303.7031 C63.3906,303.9844 63.5625,304.2031 63.6563,304.6094 C63.7188,305.0156 63.75,305.1406 63.8906,305.2656 C64.0313,305.4063 64.2656,305.5156 64.4844,305.5156 C64.75,305.5156 65.0156,305.375 65.1875,305.1563 C65.2969,305 65.3281,304.8125 65.3281,304.3906 L65.3281,302.9688 C65.3281,302.5313 65.3125,302.4063 65.2188,302.25 C65.0625,301.9844 64.7813,301.8438 64.4844,301.8438 C64.1875,301.8438 63.9844,301.9375 63.7656,302.25 L63.5938,302.1719 Z " fill="#000000"/><text fill="#000000" font-family="sans-serif" font-size="12" lengthAdjust="spacing" textLength="72" x="81.75" y="310.6543">MatrixGraph</text><line style="stroke:#A80036;stroke-width:1.5;" x1="8" x2="195" y1="322.5" y2="322.5"/><text fill="#000000" font-family="sans-serif" font-size="11" lengthAdjust="spacing" textLength="156" x="13" y="336.7104">-edgeMatrix: Edge&lt;V,E&gt;[][]</text><line style="stroke:#A80036;stroke-width:1.5;" x1="8" x2="195" y1="343.3047" y2="343.3047"/><text fill="#000000" font-family="sans-serif" font-size="11" lengthAdjust="spacing" textLength="100" x="13" y="357.5151">+addVertex(vert)</text><text fill="#000000" font-family="sans-serif" font-size="11" lengthAdjust="spacing" textLength="177" x="13" y="370.3198">+addEdge(vOrig,vDest,Weight)</text><!--MD5=[706e73df52f3df32f52be1ce9adb217e]
class Graph--><rect codeLine="34" fill="#FEFECE" filter="url(#f3kml7f98w9cb)" height="99.2188" id="Graph" style="stroke:#A80036;stroke-width:1.5;" width="140" x="31.5" y="156"/><ellipse cx="78.75" cy="172" fill="#B4A7E5" rx="11" ry="11" style="stroke:#A80036;stroke-width:1.0;"/><path d="M79.7031,168.7813 L81.4219,168.7813 C81.8125,168.7813 82,168.75 82.125,168.6719 C82.3906,168.5156 82.5313,168.2344 82.5313,167.9375 C82.5313,167.6719 82.4219,167.4063 82.1875,167.2344 C82.0156,167.125 81.875,167.0938 81.4219,167.0938 L76.2813,167.0938 C75.8438,167.0938 75.7188,167.1094 75.5625,167.2031 C75.3125,167.3594 75.1563,167.6563 75.1563,167.9375 C75.1563,168.2188 75.2969,168.4688 75.5156,168.6406 C75.6719,168.75 75.8594,168.7813 76.2813,168.7813 L78,168.7813 L78,175.2969 L76.2813,175.2969 C75.8438,175.2969 75.7188,175.3125 75.5625,175.4219 C75.3125,175.5781 75.1563,175.8594 75.1563,176.1563 C75.1563,176.4063 75.2969,176.6719 75.5156,176.8281 C75.6719,176.9531 75.875,177 76.2813,177 L81.4219,177 C82.1719,177 82.5313,176.7188 82.5313,176.1563 C82.5313,175.875 82.4219,175.625 82.1875,175.4531 C82.0156,175.3281 81.875,175.2969 81.4219,175.2969 L79.7031,175.2969 L79.7031,168.7813 Z " fill="#000000"/><text fill="#000000" font-family="sans-serif" font-size="12" font-style="italic" lengthAdjust="spacing" textLength="37" x="99.25" y="176.1543">Graph</text><line style="stroke:#A80036;stroke-width:1.5;" x1="32.5" x2="170.5" y1="188" y2="188"/><text fill="#000000" font-family="sans-serif" font-size="11" lengthAdjust="spacing" textLength="76" x="37.5" y="202.2104">-numVerts:int</text><text fill="#000000" font-family="sans-serif" font-size="11" lengthAdjust="spacing" textLength="81" x="37.5" y="215.0151">-numEdges:int</text><text fill="#000000" font-family="sans-serif" font-size="11" lengthAdjust="spacing" textLength="115" x="37.5" y="227.8198">-isDirected: boolean</text><text fill="#000000" font-family="sans-serif" font-size="11" lengthAdjust="spacing" textLength="128" x="37.5" y="240.6245">-vertices:ArrayList&lt;V&gt;</text><line style="stroke:#A80036;stroke-width:1.5;" x1="32.5" x2="170.5" y1="247.2188" y2="247.2188"/><!--MD5=[a0bfe97ac0a38e6e74cc1c7c7b744b71]
class Port--><rect codeLine="41" fill="#FEFECE" filter="url(#f3kml7f98w9cb)" height="163.2422" id="Port" style="stroke:#A80036;stroke-width:1.5;" width="262" x="770.5" y="7"/><ellipse cx="885.75" cy="23" fill="#ADD1B2" rx="11" ry="11" style="stroke:#A80036;stroke-width:1.0;"/><path d="M888.0938,18.6719 C887.1563,18.2344 886.5625,18.0938 885.6875,18.0938 C883.0625,18.0938 881.0625,20.1719 881.0625,22.8906 L881.0625,24.0156 C881.0625,26.5938 883.1719,28.4844 886.0625,28.4844 C887.2813,28.4844 888.4375,28.1875 889.1875,27.6406 C889.7656,27.2344 890.0938,26.7813 890.0938,26.3906 C890.0938,25.9375 889.7031,25.5469 889.2344,25.5469 C889.0156,25.5469 888.8125,25.625 888.625,25.8125 C888.1719,26.2969 888.1719,26.2969 887.9844,26.3906 C887.5625,26.6563 886.875,26.7813 886.1094,26.7813 C884.0625,26.7813 882.7656,25.6875 882.7656,23.9844 L882.7656,22.8906 C882.7656,21.1094 884.0156,19.7969 885.75,19.7969 C886.3281,19.7969 886.9375,19.9531 887.4063,20.2031 C887.8906,20.4844 888.0625,20.7031 888.1563,21.1094 C888.2188,21.5156 888.25,21.6406 888.3906,21.7656 C888.5313,21.9063 888.7656,22.0156 888.9844,22.0156 C889.25,22.0156 889.5156,21.875 889.6875,21.6563 C889.7969,21.5 889.8281,21.3125 889.8281,20.8906 L889.8281,19.4688 C889.8281,19.0313 889.8125,18.9063 889.7188,18.75 C889.5625,18.4844 889.2813,18.3438 888.9844,18.3438 C888.6875,18.3438 888.4844,18.4375 888.2656,18.75 L888.0938,18.6719 Z " fill="#000000"/><text fill="#000000" font-family="sans-serif" font-size="12" lengthAdjust="spacing" textLength="23" x="906.25" y="27.1543">Port</text><line style="stroke:#A80036;stroke-width:1.5;" x1="771.5" x2="1031.5" y1="39" y2="39"/><text fill="#000000" font-family="sans-serif" font-size="11" lengthAdjust="spacing" textLength="93" x="776.5" y="53.2104">-continent:String</text><text fill="#000000" font-family="sans-serif" font-size="11" lengthAdjust="spacing" textLength="82" x="776.5" y="66.0151">-country:String</text><text fill="#000000" font-family="sans-serif" font-size="11" lengthAdjust="spacing" textLength="49" x="776.5" y="78.8198">-code:int</text><text fill="#000000" font-family="sans-serif" font-size="11" lengthAdjust="spacing" textLength="94" x="776.5" y="91.6245">-namePort:String</text><text fill="#000000" font-family="sans-serif" font-size="11" lengthAdjust="spacing" textLength="102" x="776.5" y="104.4292">-location: Location</text><text fill="#000000" font-family="sans-serif" font-size="11" lengthAdjust="spacing" textLength="153" x="776.5" y="117.2339">-averageCloseness:double</text><line style="stroke:#A80036;stroke-width:1.5;" x1="771.5" x2="1031.5" y1="123.8281" y2="123.8281"/><text fill="#000000" font-family="sans-serif" font-size="11" lengthAdjust="spacing" textLength="144" x="776.5" y="138.0386">+getAverageCloseness()</text><text fill="#000000" font-family="sans-serif" font-size="11" lengthAdjust="spacing" textLength="250" x="776.5" y="150.8433">+setAverageCloseness(averageCloseness)</text><text fill="#000000" font-family="sans-serif" font-size="11" lengthAdjust="spacing" textLength="109" x="776.5" y="163.6479">+acessorMethods()</text><!--MD5=[1fa23e875f7ea39406cc4f0fd95e1dab]
class CountryStore--><rect codeLine="52" fill="#FEFECE" filter="url(#f3kml7f98w9cb)" height="86.4141" id="CountryStore" style="stroke:#A80036;stroke-width:1.5;" width="185" x="272" y="143.5"/><ellipse cx="320.75" cy="159.5" fill="#ADD1B2" rx="11" ry="11" style="stroke:#A80036;stroke-width:1.0;"/><path d="M323.0938,155.1719 C322.1563,154.7344 321.5625,154.5938 320.6875,154.5938 C318.0625,154.5938 316.0625,156.6719 316.0625,159.3906 L316.0625,160.5156 C316.0625,163.0938 318.1719,164.9844 321.0625,164.9844 C322.2813,164.9844 323.4375,164.6875 324.1875,164.1406 C324.7656,163.7344 325.0938,163.2813 325.0938,162.8906 C325.0938,162.4375 324.7031,162.0469 324.2344,162.0469 C324.0156,162.0469 323.8125,162.125 323.625,162.3125 C323.1719,162.7969 323.1719,162.7969 322.9844,162.8906 C322.5625,163.1563 321.875,163.2813 321.1094,163.2813 C319.0625,163.2813 317.7656,162.1875 317.7656,160.4844 L317.7656,159.3906 C317.7656,157.6094 319.0156,156.2969 320.75,156.2969 C321.3281,156.2969 321.9375,156.4531 322.4063,156.7031 C322.8906,156.9844 323.0625,157.2031 323.1563,157.6094 C323.2188,158.0156 323.25,158.1406 323.3906,158.2656 C323.5313,158.4063 323.7656,158.5156 323.9844,158.5156 C324.25,158.5156 324.5156,158.375 324.6875,158.1563 C324.7969,158 324.8281,157.8125 324.8281,157.3906 L324.8281,155.9688 C324.8281,155.5313 324.8125,155.4063 324.7188,155.25 C324.5625,154.9844 324.2813,154.8438 323.9844,154.8438 C323.6875,154.8438 323.4844,154.9375 323.2656,155.25 L323.0938,155.1719 Z " fill="#000000"/><text fill="#000000" font-family="sans-serif" font-size="12" lengthAdjust="spacing" textLength="79" x="341.25" y="163.6543">CountryStore</text><line style="stroke:#A80036;stroke-width:1.5;" x1="273" x2="456" y1="175.5" y2="175.5"/><text fill="#000000" font-family="sans-serif" font-size="11" lengthAdjust="spacing" textLength="161" x="278" y="189.7104">-countryStore:List&lt;Country&gt;</text><line style="stroke:#A80036;stroke-width:1.5;" x1="273" x2="456" y1="196.3047" y2="196.3047"/><text fill="#000000" font-family="sans-serif" font-size="11" lengthAdjust="spacing" textLength="173" x="278" y="210.5151">+getCountriesFromDatabase()</text><text fill="#000000" font-family="sans-serif" font-size="11" lengthAdjust="spacing" textLength="111" x="278" y="223.3198">+getCountryStore()</text><!--MD5=[f70d2b281f9eefc1b49373c49159755a]
class PortStore--><rect codeLine="57" fill="#FEFECE" filter="url(#f3kml7f98w9cb)" height="86.4141" id="PortStore" style="stroke:#A80036;stroke-width:1.5;" width="158" x="285.5" y="22.5"/><ellipse cx="332.25" cy="38.5" fill="#ADD1B2" rx="11" ry="11" style="stroke:#A80036;stroke-width:1.0;"/><path d="M334.5938,34.1719 C333.6563,33.7344 333.0625,33.5938 332.1875,33.5938 C329.5625,33.5938 327.5625,35.6719 327.5625,38.3906 L327.5625,39.5156 C327.5625,42.0938 329.6719,43.9844 332.5625,43.9844 C333.7813,43.9844 334.9375,43.6875 335.6875,43.1406 C336.2656,42.7344 336.5938,42.2813 336.5938,41.8906 C336.5938,41.4375 336.2031,41.0469 335.7344,41.0469 C335.5156,41.0469 335.3125,41.125 335.125,41.3125 C334.6719,41.7969 334.6719,41.7969 334.4844,41.8906 C334.0625,42.1563 333.375,42.2813 332.6094,42.2813 C330.5625,42.2813 329.2656,41.1875 329.2656,39.4844 L329.2656,38.3906 C329.2656,36.6094 330.5156,35.2969 332.25,35.2969 C332.8281,35.2969 333.4375,35.4531 333.9063,35.7031 C334.3906,35.9844 334.5625,36.2031 334.6563,36.6094 C334.7188,37.0156 334.75,37.1406 334.8906,37.2656 C335.0313,37.4063 335.2656,37.5156 335.4844,37.5156 C335.75,37.5156 336.0156,37.375 336.1875,37.1563 C336.2969,37 336.3281,36.8125 336.3281,36.3906 L336.3281,34.9688 C336.3281,34.5313 336.3125,34.4063 336.2188,34.25 C336.0625,33.9844 335.7813,33.8438 335.4844,33.8438 C335.1875,33.8438 334.9844,33.9375 334.7656,34.25 L334.5938,34.1719 Z " fill="#000000"/><text fill="#000000" font-family="sans-serif" font-size="12" lengthAdjust="spacing" textLength="56" x="352.75" y="42.6543">PortStore</text><line style="stroke:#A80036;stroke-width:1.5;" x1="286.5" x2="442.5" y1="54.5" y2="54.5"/><text fill="#000000" font-family="sans-serif" font-size="11" lengthAdjust="spacing" textLength="105" x="291.5" y="68.7104">-PortList:List&lt;Port&gt;</text><line style="stroke:#A80036;stroke-width:1.5;" x1="286.5" x2="442.5" y1="75.3047" y2="75.3047"/><text fill="#000000" font-family="sans-serif" font-size="11" lengthAdjust="spacing" textLength="146" x="291.5" y="89.5151">+getPortsFromDatabase()</text><text fill="#000000" font-family="sans-serif" font-size="11" lengthAdjust="spacing" textLength="57" x="291.5" y="102.3198">+getPort()</text><!--MD5=[deb4e1f6eb1e3c1256fdb830f96abfbb]
class Country--><rect codeLine="62" fill="#FEFECE" filter="url(#f3kml7f98w9cb)" height="201.6563" id="Country" style="stroke:#A80036;stroke-width:1.5;" width="627" x="588" y="205.5"/><ellipse cx="874.25" cy="221.5" fill="#ADD1B2" rx="11" ry="11" style="stroke:#A80036;stroke-width:1.0;"/><path d="M876.5938,217.1719 C875.6563,216.7344 875.0625,216.5938 874.1875,216.5938 C871.5625,216.5938 869.5625,218.6719 869.5625,221.3906 L869.5625,222.5156 C869.5625,225.0938 871.6719,226.9844 874.5625,226.9844 C875.7813,226.9844 876.9375,226.6875 877.6875,226.1406 C878.2656,225.7344 878.5938,225.2813 878.5938,224.8906 C878.5938,224.4375 878.2031,224.0469 877.7344,224.0469 C877.5156,224.0469 877.3125,224.125 877.125,224.3125 C876.6719,224.7969 876.6719,224.7969 876.4844,224.8906 C876.0625,225.1563 875.375,225.2813 874.6094,225.2813 C872.5625,225.2813 871.2656,224.1875 871.2656,222.4844 L871.2656,221.3906 C871.2656,219.6094 872.5156,218.2969 874.25,218.2969 C874.8281,218.2969 875.4375,218.4531 875.9063,218.7031 C876.3906,218.9844 876.5625,219.2031 876.6563,219.6094 C876.7188,220.0156 876.75,220.1406 876.8906,220.2656 C877.0313,220.4063 877.2656,220.5156 877.4844,220.5156 C877.75,220.5156 878.0156,220.375 878.1875,220.1563 C878.2969,220 878.3281,219.8125 878.3281,219.3906 L878.3281,217.9688 C878.3281,217.5313 878.3125,217.4063 878.2188,217.25 C878.0625,216.9844 877.7813,216.8438 877.4844,216.8438 C877.1875,216.8438 876.9844,216.9375 876.7656,217.25 L876.5938,217.1719 Z " fill="#000000"/><text fill="#000000" font-family="sans-serif" font-size="12" lengthAdjust="spacing" textLength="46" x="894.75" y="225.6543">Country</text><line style="stroke:#A80036;stroke-width:1.5;" x1="589" x2="1214" y1="237.5" y2="237.5"/><text fill="#000000" font-family="sans-serif" font-size="11" lengthAdjust="spacing" textLength="115" x="594" y="251.7104">-continent:Continent</text><text fill="#000000" font-family="sans-serif" font-size="11" lengthAdjust="spacing" textLength="142" x="594" y="264.5151">-capitalLocation: Location</text><text fill="#000000" font-family="sans-serif" font-size="11" lengthAdjust="spacing" textLength="73" x="594" y="277.3198">-name:String</text><text fill="#000000" font-family="sans-serif" font-size="11" lengthAdjust="spacing" textLength="106" x="594" y="290.1245">-alpha2code:String</text><text fill="#000000" font-family="sans-serif" font-size="11" lengthAdjust="spacing" textLength="106" x="594" y="302.9292">-alpha3code:String</text><text fill="#000000" font-family="sans-serif" font-size="11" lengthAdjust="spacing" textLength="105" x="594" y="315.7339">-population:double</text><text fill="#000000" font-family="sans-serif" font-size="11" lengthAdjust="spacing" textLength="77" x="594" y="328.5386">-capital:String</text><text fill="#000000" font-family="sans-serif" font-size="11" lengthAdjust="spacing" textLength="153" x="594" y="341.3433">-averageCloseness:double</text><line style="stroke:#A80036;stroke-width:1.5;" x1="589" x2="1214" y1="347.9375" y2="347.9375"/><text fill="#000000" font-family="sans-serif" font-size="11" lengthAdjust="spacing" textLength="615" x="594" y="362.1479">+Country(continent, capitalLocation, name, alpha2code, alpha3code, population, capital, averageCloseness)</text><text fill="#000000" font-family="sans-serif" font-size="11" lengthAdjust="spacing" textLength="61" x="594" y="374.9526">+toString()</text><text fill="#000000" font-family="sans-serif" font-size="11" lengthAdjust="spacing" textLength="146" x="594" y="387.7573">+setAverageCloseness();</text><text fill="#000000" font-family="sans-serif" font-size="11" lengthAdjust="spacing" textLength="147" x="594" y="400.562">+getAverageCloseness();</text><!--MD5=[ddf964ba65dd59a9c60a1e1cd8efc8b4]
class GraphLocation--><rect codeLine="78" fill="#FEFECE" filter="url(#f3kml7f98w9cb)" height="112.0234" id="GraphLocation" style="stroke:#A80036;stroke-width:1.5;" width="227" x="1331" y="32.5"/><ellipse cx="1396.25" cy="48.5" fill="#B4A7E5" rx="11" ry="11" style="stroke:#A80036;stroke-width:1.0;"/><path d="M1397.2031,45.2813 L1398.9219,45.2813 C1399.3125,45.2813 1399.5,45.25 1399.625,45.1719 C1399.8906,45.0156 1400.0313,44.7344 1400.0313,44.4375 C1400.0313,44.1719 1399.9219,43.9063 1399.6875,43.7344 C1399.5156,43.625 1399.375,43.5938 1398.9219,43.5938 L1393.7813,43.5938 C1393.3438,43.5938 1393.2188,43.6094 1393.0625,43.7031 C1392.8125,43.8594 1392.6563,44.1563 1392.6563,44.4375 C1392.6563,44.7188 1392.7969,44.9688 1393.0156,45.1406 C1393.1719,45.25 1393.3594,45.2813 1393.7813,45.2813 L1395.5,45.2813 L1395.5,51.7969 L1393.7813,51.7969 C1393.3438,51.7969 1393.2188,51.8125 1393.0625,51.9219 C1392.8125,52.0781 1392.6563,52.3594 1392.6563,52.6563 C1392.6563,52.9063 1392.7969,53.1719 1393.0156,53.3281 C1393.1719,53.4531 1393.375,53.5 1393.7813,53.5 L1398.9219,53.5 C1399.6719,53.5 1400.0313,53.2188 1400.0313,52.6563 C1400.0313,52.375 1399.9219,52.125 1399.6875,51.9531 C1399.5156,51.8281 1399.375,51.7969 1398.9219,51.7969 L1397.2031,51.7969 L1397.2031,45.2813 Z " fill="#000000"/><text fill="#000000" font-family="sans-serif" font-size="12" font-style="italic" lengthAdjust="spacing" textLength="88" x="1416.75" y="52.6543">GraphLocation</text><line style="stroke:#A80036;stroke-width:1.5;" x1="1332" x2="1557" y1="64.5" y2="64.5"/><line style="stroke:#A80036;stroke-width:1.5;" x1="1332" x2="1557" y1="72.5" y2="72.5"/><text fill="#000000" font-family="sans-serif" font-size="11" lengthAdjust="spacing" textLength="128" x="1337" y="86.7104">Location getLocation();</text><text fill="#000000" font-family="sans-serif" font-size="11" lengthAdjust="spacing" textLength="101" x="1337" y="99.5151">String getName();</text><text fill="#000000" font-family="sans-serif" font-size="11" lengthAdjust="spacing" textLength="134" x="1337" y="112.3198">Double getCloseness();</text><text fill="#000000" font-family="sans-serif" font-size="11" lengthAdjust="spacing" textLength="215" x="1337" y="125.1245">void setAverageCloseness(double v);</text><text fill="#000000" font-family="sans-serif" font-size="11" lengthAdjust="spacing" textLength="144" x="1337" y="137.9292">Continent getContinent();</text><!--MD5=[f9c1f95f328fb1428542eb64ba771e8f]
link MatrixGraph to CountryPortGraph--><path codeLine="85" d="M196.358,333.5 C214.259,333.5 233.16,333.5 251.559,333.5 " fill="none" id="MatrixGraph-to-CountryPortGraph" style="stroke:#A80036;stroke-width:1.0;"/><polygon fill="#A80036" points="256.734,333.5,247.734,329.5,251.734,333.5,247.734,337.5,256.734,333.5" style="stroke:#A80036;stroke-width:1.0;"/><!--MD5=[4475b5a8963e4fd4abe09f77ee0f6735]
link Graph to MatrixGraph--><path codeLine="86" d="M101.5,255.012 C101.5,264.943 101.5,274.875 101.5,284.806 " fill="none" id="Graph-to-MatrixGraph" style="stroke:#A80036;stroke-width:1.0;"/><polygon fill="#A80036" points="101.5,290,105.5,281,101.5,285,97.5,281,101.5,290" style="stroke:#A80036;stroke-width:1.0;"/><!--MD5=[4df1422b8629e0f4fa74e686c9c9ab0e]
link CountryPortGraph to Country--><path codeLine="87" d="M472.166,328.6232 C500.099,327.316 530.182,325.8813 558,324.5 C566.126,324.0965 574.36,323.6848 582.668,323.2669 " fill="none" id="CountryPortGraph-to-Country" style="stroke:#A80036;stroke-width:1.0;"/><polygon fill="#A80036" points="587.851,323.006,578.6612,319.4636,582.8573,323.2574,579.0635,327.4535,587.851,323.006" style="stroke:#A80036;stroke-width:1.0;"/><text fill="#000000" font-family="sans-serif" font-size="13" lengthAdjust="spacing" textLength="54" x="503" y="320.5669">contains</text><text fill="#000000" font-family="sans-serif" font-size="13" lengthAdjust="spacing" textLength="8" x="480.0175" y="340.8921">1</text><text fill="#000000" font-family="sans-serif" font-size="13" lengthAdjust="spacing" textLength="8" x="572.4061" y="335.6411">1</text><!--MD5=[f72f922769b6338dcfe55bfdc0636e7d]
link CountryPortGraph to Port--><path codeLine="88" d="M472.244,305.296 C502.741,293.228 534.137,276.46 558,253.5 C580.928,231.439 564.165,209.576 588,188.5 C637.081,145.1 705.14,120.512 765.216,106.593 " fill="none" id="CountryPortGraph-to-Port" style="stroke:#A80036;stroke-width:1.0;"/><polygon fill="#A80036" points="770.263,105.444,760.5995,103.5422,765.3878,106.5542,762.3758,111.3425,770.263,105.444" style="stroke:#A80036;stroke-width:1.0;"/><text fill="#000000" font-family="sans-serif" font-size="13" lengthAdjust="spacing" textLength="54" x="503" y="249.5669">contains</text><text fill="#000000" font-family="sans-serif" font-size="13" lengthAdjust="spacing" textLength="8" x="480.101" y="315.9247">1</text><text fill="#000000" font-family="sans-serif" font-size="13" lengthAdjust="spacing" textLength="8" x="754.4446" y="118.9209">1</text><!--MD5=[9f97b6ad89d1aece2562b761589d6d34]
link Port to GraphLocation--><path codeLine="89" d="M1032.77,88.5 C1121.98,88.5 1239.31,88.5 1325.72,88.5 " fill="none" id="Port-to-GraphLocation" style="stroke:#A80036;stroke-width:1.0;"/><polygon fill="#A80036" points="1330.84,88.5,1321.84,84.5,1325.84,88.5,1321.84,92.5,1330.84,88.5" style="stroke:#A80036;stroke-width:1.0;"/><text fill="#000000" font-family="sans-serif" font-size="13" lengthAdjust="spacing" textLength="54" x="1246" y="84.5669">contains</text><text fill="#000000" font-family="sans-serif" font-size="13" lengthAdjust="spacing" textLength="8" x="1040.5903" y="100.9973">1</text><text fill="#000000" font-family="sans-serif" font-size="13" lengthAdjust="spacing" textLength="8" x="1314.9347" y="101.0745">1</text><!--MD5=[8d70ee99540c41b6b173287b4c5b2064]
link Port to Location--><path codeLine="90" d="M1032.72,128.195 C1089.04,145.872 1155.54,167.428 1215,188.5 C1270.75,208.257 1333.29,232.784 1378.83,251.083 " fill="none" id="Port-to-Location" style="stroke:#A80036;stroke-width:1.0;"/><polygon fill="#A80036" points="1383.74,253.059,1376.8903,245.9822,1379.1032,251.1883,1373.8971,253.4012,1383.74,253.059" style="stroke:#A80036;stroke-width:1.0;"/><text fill="#000000" font-family="sans-serif" font-size="13" lengthAdjust="spacing" textLength="23" x="1261.5" y="195.5669">has</text><text fill="#000000" font-family="sans-serif" font-size="13" lengthAdjust="spacing" textLength="8" x="1040.5374" y="142.9872">1</text><text fill="#000000" font-family="sans-serif" font-size="13" lengthAdjust="spacing" textLength="8" x="1367.8474" y="263.0664">1</text><!--MD5=[618153f74b0244bcbb7b26a6b351a812]
link Country to Location--><path codeLine="91" d="M1215.24,289.736 C1277.3,286.409 1336.31,283.246 1378.78,280.969 " fill="none" id="Country-to-Location" style="stroke:#A80036;stroke-width:1.0;"/><polygon fill="#A80036" points="1383.88,280.696,1374.6761,277.1904,1378.8874,280.9674,1375.1104,285.1787,1383.88,280.696" style="stroke:#A80036;stroke-width:1.0;"/><text fill="#000000" font-family="sans-serif" font-size="13" lengthAdjust="spacing" textLength="23" x="1261.5" y="280.5669">has</text><text fill="#000000" font-family="sans-serif" font-size="13" lengthAdjust="spacing" textLength="8" x="1222.687" y="301.5914">1</text><text fill="#000000" font-family="sans-serif" font-size="13" lengthAdjust="spacing" textLength="8" x="1368.0044" y="294.0717">1</text><!--MD5=[dc32b5723b26233b0eff7f618d378468]
link PortStore to CountryPortGraph--><path codeLine="92" d="M285.342,92.517 C262.246,104.513 239.692,121.221 226.5,144 C207.344,177.076 209.407,195.813 226.5,230 C233.178,243.356 242.49,255.437 253.157,266.231 " fill="none" id="PortStore-to-CountryPortGraph" style="stroke:#A80036;stroke-width:1.0;"/><polygon fill="#A80036" points="256.825,269.842,253.219,260.677,253.2624,266.3337,247.6057,266.3771,256.825,269.842" style="stroke:#A80036;stroke-width:1.0;"/><!--MD5=[f0135757706e789791f4f136fa82960e]
link CountryStore to CountryPortGraph--><path codeLine="93" d="M364.5,229.658 C364.5,239.493 364.5,249.328 364.5,259.164 " fill="none" id="CountryStore-to-CountryPortGraph" style="stroke:#A80036;stroke-width:1.0;"/><polygon fill="#A80036" points="364.5,264.307,368.5,255.307,364.5,259.307,360.5,255.307,364.5,264.307" style="stroke:#A80036;stroke-width:1.0;"/><!--MD5=[c8440d88291d09ff9b1204d56899ac6f]
link PortStore to Port--><path codeLine="94" d="M443.58,68.857 C527.859,72.48 663.658,78.318 765.347,82.69 " fill="none" id="PortStore-to-Port" style="stroke:#A80036;stroke-width:1.0;"/><polygon fill="#A80036" points="770.468,82.91,761.6477,78.5279,765.4726,82.6957,761.3048,86.5205,770.468,82.91" style="stroke:#A80036;stroke-width:1.0;"/><text fill="#000000" font-family="sans-serif" font-size="13" lengthAdjust="spacing" textLength="40" x="510" y="68.5669">stores</text><text fill="#000000" font-family="sans-serif" font-size="13" lengthAdjust="spacing" textLength="8" x="451.4986" y="81.9453">1</text><text fill="#000000" font-family="sans-serif" font-size="13" lengthAdjust="spacing" textLength="27" x="735.5639" y="95.0784">1...*</text><!--MD5=[f967797988c016cbdc52ea2558741842]
link CountryStore to Country--><path codeLine="95" d="M457.166,207.061 C493.251,215.154 536.999,224.967 582.784,235.237 " fill="none" id="CountryStore-to-Country" style="stroke:#A80036;stroke-width:1.0;"/><polygon fill="#A80036" points="587.796,236.361,579.8897,230.4882,582.9172,235.2667,578.1387,238.2942,587.796,236.361" style="stroke:#A80036;stroke-width:1.0;"/><text fill="#000000" font-family="sans-serif" font-size="13" lengthAdjust="spacing" textLength="40" x="510" y="214.5669">stores</text><text fill="#000000" font-family="sans-serif" font-size="13" lengthAdjust="spacing" textLength="8" x="464.8691" y="221.3528">1</text><text fill="#000000" font-family="sans-serif" font-size="13" lengthAdjust="spacing" textLength="27" x="553.1272" y="246.9654">1...*</text><!--MD5=[59e3a8a61cc1c4ca2adeb21439603bb0]
@startuml
skinparam classAttributeIconSize 0
left to right direction

class CountryPortGraph{
-portStore: PortStore
-countryStore: CountryStore
+privateCreatorMethods()
+CountryPortGraph()
+shortestPath(vOrig,vDest)
+shortestPathLand(vOrig,VDest)
+shortestPathMaritime(vOrig,vDest)
}

class Location{
- latitude: double
- longitude: double
+toString()
+equals(ship)
+acessorMethods()
}

class Location{
- latitude: double
- longitude: double
+toString()
+equals(ship)
+acessorMethods()
}
class MatrixGraph{
-edgeMatrix: Edge<V,E>[][]
+addVertex(vert)
+addEdge(vOrig,vDest,Weight)
}
Interface Graph{
-numVerts:int
-numEdges:int
-isDirected: boolean
-vertices:ArrayList<V>
}

class "Port"{
-continent:String
-country:String
-code:int
-namePort:String
-location: Location
-averageCloseness:double 
+getAverageCloseness()
+setAverageCloseness(averageCloseness)
+acessorMethods()
}
class CountryStore{
-countryStore:List<Country>
+getCountriesFromDatabase()
+getCountryStore()
}
class PortStore{
-PortList:List<Port>
+getPortsFromDatabase()
+getPort()
}
class Country {
-continent:Continent 
-capitalLocation: Location 
-name:String 
-alpha2code:String 
-alpha3code:String 
-population:double 
-capital:String 
-averageCloseness:double 
+Country(continent, capitalLocation, name, alpha2code, alpha3code, population, capital, averageCloseness)
+toString()
+setAverageCloseness();
+getAverageCloseness();
}


interface GraphLocation {
Location getLocation();
String getName();
Double getCloseness();
void setAverageCloseness(double v);
Continent getContinent();
}
MatrixGraph  - -> CountryPortGraph 
Graph -> MatrixGraph
CountryPortGraph "1" - -> "1" Country:contains
CountryPortGraph "1" - -> "1" Port:contains
Port "1" - -> "1" GraphLocation: contains
Port "1" - -> "1" Location : has 
Country "1" - -> "1" Location : has
PortStore -> CountryPortGraph 
CountryStore -> CountryPortGraph
PortStore "1" - -> "1...*" Port : stores
CountryStore "1" - -> "1...*" Country : stores
@enduml

PlantUML version 1.2022.1beta4(Unknown compile time)
(GPL source distribution)
Java Runtime: Java(TM) SE Runtime Environment
JVM: Java HotSpot(TM) 64-Bit Server VM
Default Encoding: UTF-8
Language: en
Country: US
--></g></svg>