<?xml version="1.0" encoding="UTF-8" standalone="no"?><svg xmlns="http://www.w3.org/2000/svg" xmlns:xlink="http://www.w3.org/1999/xlink" contentScriptType="application/ecmascript" contentStyleType="text/css" height="265px" preserveAspectRatio="none" style="width:509px;height:265px;background:#FFFFFF;" version="1.1" viewBox="0 0 509 265" width="509px" zoomAndPan="magnify"><defs><filter height="300%" id="f5vj5juzvm75" width="300%" x="-1" y="-1"><feGaussianBlur result="blurOut" stdDeviation="2.0"/><feColorMatrix in="blurOut" result="blurOut2" type="matrix" values="0 0 0 0 0 0 0 0 0 0 0 0 0 0 0 0 0 0 .4 0"/><feOffset dx="4.0" dy="4.0" in="blurOut2" result="blurOut3"/><feBlend in="SourceGraphic" in2="blurOut3" mode="normal"/></filter></defs><g><rect fill="#FFFFFF" filter="url(#f5vj5juzvm75)" height="65.3984" style="stroke:#A80036;stroke-width:1.0;" width="10" x="59" y="98.2969"/><rect fill="#FFFFFF" filter="url(#f5vj5juzvm75)" height="29.1328" style="stroke:#A80036;stroke-width:1.0;" width="10" x="456" y="134.5625"/><line style="stroke:#A80036;stroke-width:1.0;stroke-dasharray:5.0,5.0;" x1="64" x2="64" y1="88.2969" y2="181.6953"/><line style="stroke:#A80036;stroke-width:1.0;stroke-dasharray:5.0,5.0;" x1="460.5" x2="460.5" y1="88.2969" y2="181.6953"/><text fill="#000000" font-family="sans-serif" font-size="14" lengthAdjust="spacing" textLength="112" x="5" y="84.9951">Traffic Manager</text><ellipse cx="64" cy="15" fill="#FEFECE" filter="url(#f5vj5juzvm75)" rx="8" ry="8" style="stroke:#A80036;stroke-width:2.0;"/><path d="M64,23 L64,50 M51,31 L77,31 M64,50 L51,65 M64,50 L77,65 " fill="none" filter="url(#f5vj5juzvm75)" style="stroke:#A80036;stroke-width:2.0;"/><text fill="#000000" font-family="sans-serif" font-size="14" lengthAdjust="spacing" textLength="112" x="5" y="193.6904">Traffic Manager</text><ellipse cx="64" cy="206.9922" fill="#FEFECE" filter="url(#f5vj5juzvm75)" rx="8" ry="8" style="stroke:#A80036;stroke-width:2.0;"/><path d="M64,214.9922 L64,241.9922 M51,222.9922 L77,222.9922 M64,241.9922 L51,256.9922 M64,241.9922 L77,256.9922 " fill="none" filter="url(#f5vj5juzvm75)" style="stroke:#A80036;stroke-width:2.0;"/><rect fill="#FEFECE" filter="url(#f5vj5juzvm75)" height="30.2969" style="stroke:#A80036;stroke-width:1.5;" width="73" x="422.5" y="53"/><text fill="#000000" font-family="sans-serif" font-size="14" lengthAdjust="spacing" textLength="59" x="429.5" y="72.9951">:System</text><rect fill="#FEFECE" filter="url(#f5vj5juzvm75)" height="30.2969" style="stroke:#A80036;stroke-width:1.5;" width="73" x="422.5" y="180.6953"/><text fill="#000000" font-family="sans-serif" font-size="14" lengthAdjust="spacing" textLength="59" x="429.5" y="200.6904">:System</text><rect fill="#FFFFFF" filter="url(#f5vj5juzvm75)" height="65.3984" style="stroke:#A80036;stroke-width:1.0;" width="10" x="59" y="98.2969"/><rect fill="#FFFFFF" filter="url(#f5vj5juzvm75)" height="29.1328" style="stroke:#A80036;stroke-width:1.0;" width="10" x="456" y="134.5625"/><polygon fill="#A80036" points="444,130.5625,454,134.5625,444,138.5625,448,134.5625" style="stroke:#A80036;stroke-width:1.0;"/><line style="stroke:#A80036;stroke-width:1.0;" x1="69" x2="450" y1="134.5625" y2="134.5625"/><text fill="#000000" font-family="sans-serif" font-size="13" lengthAdjust="spacing" textLength="315" x="76" y="114.3638">wants to find the shortest path from one point of</text><text fill="#000000" font-family="sans-serif" font-size="13" lengthAdjust="spacing" textLength="364" x="80" y="129.4966">the graph to another(using only land or only sea or both)</text><polygon fill="#A80036" points="75,159.6953,65,163.6953,75,167.6953,71,163.6953" style="stroke:#A80036;stroke-width:1.0;"/><line style="stroke:#A80036;stroke-width:1.0;stroke-dasharray:2.0,2.0;" x1="69" x2="460" y1="163.6953" y2="163.6953"/><text fill="#000000" font-family="sans-serif" font-size="13" lengthAdjust="spacing" textLength="99" x="81" y="158.6294">shows the path</text><!--MD5=[65237b245235a7f117dd311038cd3745]
@startuml
actor "Traffic Manager" as Rec
activate Rec
Rec-> ":System" : wants to find the shortest path from one point of\n the graph to another(using only land or only sea or both)
activate ":System"
":System" - -> Rec : shows the path

deactivate ":System"
deactivate Rec
@enduml

PlantUML version 1.2022.1beta4(Unknown compile time)
(GPL source distribution)
Java Runtime: Java(TM) SE Runtime Environment
JVM: Java HotSpot(TM) 64-Bit Server VM
Default Encoding: UTF-8
Language: en
Country: US
--></g></svg>