<?xml version="1.0" encoding="UTF-8" standalone="no"?><svg xmlns="http://www.w3.org/2000/svg" xmlns:xlink="http://www.w3.org/1999/xlink" contentScriptType="application/ecmascript" contentStyleType="text/css" height="484px" preserveAspectRatio="none" style="width:1225px;height:484px;background:#FFFFFF;" version="1.1" viewBox="0 0 1225 484" width="1225px" zoomAndPan="magnify"><defs><filter height="300%" id="fam27m89jkxx9" width="300%" x="-1" y="-1"><feGaussianBlur result="blurOut" stdDeviation="2.0"/><feColorMatrix in="blurOut" result="blurOut2" type="matrix" values="0 0 0 0 0 0 0 0 0 0 0 0 0 0 0 0 0 0 .4 0"/><feOffset dx="4.0" dy="4.0" in="blurOut2" result="blurOut3"/><feBlend in="SourceGraphic" in2="blurOut3" mode="normal"/></filter></defs><g><rect fill="#FFFFFF" filter="url(#fam27m89jkxx9)" height="292.9297" style="stroke:#A80036;stroke-width:1.0;" width="10" x="57" y="98.2969"/><rect fill="#FFFFFF" filter="url(#fam27m89jkxx9)" height="29.1328" style="stroke:#A80036;stroke-width:1.0;" width="10" x="455" y="119.4297"/><rect fill="#FFFFFF" filter="url(#fam27m89jkxx9)" height="29.1328" style="stroke:#A80036;stroke-width:1.0;" width="10" x="455" y="353.0938"/><rect fill="#FFFFFF" filter="url(#fam27m89jkxx9)" height="204.5313" style="stroke:#A80036;stroke-width:1.0;" width="10" x="763" y="148.5625"/><rect fill="#FFFFFF" filter="url(#fam27m89jkxx9)" height="28" style="stroke:#A80036;stroke-width:1.0;" width="10" x="768" y="185.6953"/><rect fill="#FFFFFF" filter="url(#fam27m89jkxx9)" height="28" style="stroke:#A80036;stroke-width:1.0;" width="10" x="768" y="281.9609"/><rect fill="#FFFFFF" filter="url(#fam27m89jkxx9)" height="89.2656" style="stroke:#000000;stroke-width:2.0;" width="481.5" x="680.5" y="235.6953"/><line style="stroke:#A80036;stroke-width:1.0;stroke-dasharray:5.0,5.0;" x1="62" x2="62" y1="88.2969" y2="400.2266"/><line style="stroke:#A80036;stroke-width:1.0;stroke-dasharray:5.0,5.0;" x1="459.5" x2="459.5" y1="88.2969" y2="400.2266"/><line style="stroke:#A80036;stroke-width:1.0;stroke-dasharray:5.0,5.0;" x1="767.5" x2="767.5" y1="88.2969" y2="400.2266"/><text fill="#000000" font-family="sans-serif" font-size="14" lengthAdjust="spacing" textLength="108" x="5" y="84.9951">TrafficManager</text><ellipse cx="62" cy="15" fill="#FEFECE" filter="url(#fam27m89jkxx9)" rx="8" ry="8" style="stroke:#A80036;stroke-width:2.0;"/><path d="M62,23 L62,50 M49,31 L75,31 M62,50 L49,65 M62,50 L75,65 " fill="none" filter="url(#fam27m89jkxx9)" style="stroke:#A80036;stroke-width:2.0;"/><text fill="#000000" font-family="sans-serif" font-size="14" lengthAdjust="spacing" textLength="108" x="5" y="412.2217">TrafficManager</text><ellipse cx="62" cy="425.5234" fill="#FEFECE" filter="url(#fam27m89jkxx9)" rx="8" ry="8" style="stroke:#A80036;stroke-width:2.0;"/><path d="M62,433.5234 L62,460.5234 M49,441.5234 L75,441.5234 M62,460.5234 L49,475.5234 M62,460.5234 L75,475.5234 " fill="none" filter="url(#fam27m89jkxx9)" style="stroke:#A80036;stroke-width:2.0;"/><rect fill="#FEFECE" filter="url(#fam27m89jkxx9)" height="30.2969" style="stroke:#A80036;stroke-width:1.5;" width="183" x="366.5" y="53"/><text fill="#000000" font-family="sans-serif" font-size="14" lengthAdjust="spacing" textLength="169" x="373.5" y="72.9951">:CountryPortGraphTest</text><rect fill="#FEFECE" filter="url(#fam27m89jkxx9)" height="30.2969" style="stroke:#A80036;stroke-width:1.5;" width="183" x="366.5" y="399.2266"/><text fill="#000000" font-family="sans-serif" font-size="14" lengthAdjust="spacing" textLength="169" x="373.5" y="419.2217">:CountryPortGraphTest</text><rect fill="#FEFECE" filter="url(#fam27m89jkxx9)" height="30.2969" style="stroke:#A80036;stroke-width:1.5;" width="151" x="690.5" y="53"/><text fill="#000000" font-family="sans-serif" font-size="14" lengthAdjust="spacing" textLength="137" x="697.5" y="72.9951">:CountryPortGraph</text><rect fill="#FEFECE" filter="url(#fam27m89jkxx9)" height="30.2969" style="stroke:#A80036;stroke-width:1.5;" width="151" x="690.5" y="399.2266"/><text fill="#000000" font-family="sans-serif" font-size="14" lengthAdjust="spacing" textLength="137" x="697.5" y="419.2217">:CountryPortGraph</text><rect fill="#FFFFFF" filter="url(#fam27m89jkxx9)" height="292.9297" style="stroke:#A80036;stroke-width:1.0;" width="10" x="57" y="98.2969"/><rect fill="#FFFFFF" filter="url(#fam27m89jkxx9)" height="29.1328" style="stroke:#A80036;stroke-width:1.0;" width="10" x="455" y="119.4297"/><rect fill="#FFFFFF" filter="url(#fam27m89jkxx9)" height="29.1328" style="stroke:#A80036;stroke-width:1.0;" width="10" x="455" y="353.0938"/><rect fill="#FFFFFF" filter="url(#fam27m89jkxx9)" height="204.5313" style="stroke:#A80036;stroke-width:1.0;" width="10" x="763" y="148.5625"/><rect fill="#FFFFFF" filter="url(#fam27m89jkxx9)" height="28" style="stroke:#A80036;stroke-width:1.0;" width="10" x="768" y="185.6953"/><rect fill="#FFFFFF" filter="url(#fam27m89jkxx9)" height="28" style="stroke:#A80036;stroke-width:1.0;" width="10" x="768" y="281.9609"/><polygon fill="#A80036" points="443,115.4297,453,119.4297,443,123.4297,447,119.4297" style="stroke:#A80036;stroke-width:1.0;"/><line style="stroke:#A80036;stroke-width:1.0;" x1="67" x2="449" y1="119.4297" y2="119.4297"/><text fill="#000000" font-family="sans-serif" font-size="13" font-weight="bold" lengthAdjust="spacing" textLength="9" x="74" y="114.3638">1</text><text fill="#000000" font-family="sans-serif" font-size="13" lengthAdjust="spacing" textLength="356" x="87" y="114.3638">chooses two vertices to find the shortest path between</text><polygon fill="#A80036" points="751,144.5625,761,148.5625,751,152.5625,755,148.5625" style="stroke:#A80036;stroke-width:1.0;"/><line style="stroke:#A80036;stroke-width:1.0;" x1="460" x2="757" y1="148.5625" y2="148.5625"/><text fill="#000000" font-family="sans-serif" font-size="13" font-weight="bold" lengthAdjust="spacing" textLength="9" x="467" y="143.4966">2</text><text fill="#000000" font-family="sans-serif" font-size="13" lengthAdjust="spacing" textLength="266" x="480" y="143.4966">createGraphWithPortsAndCountries(int n)</text><line style="stroke:#A80036;stroke-width:1.0;" x1="778" x2="820" y1="177.6953" y2="177.6953"/><line style="stroke:#A80036;stroke-width:1.0;" x1="820" x2="820" y1="177.6953" y2="190.6953"/><line style="stroke:#A80036;stroke-width:1.0;" x1="779" x2="820" y1="190.6953" y2="190.6953"/><polygon fill="#A80036" points="789,186.6953,779,190.6953,789,194.6953,785,190.6953" style="stroke:#A80036;stroke-width:1.0;"/><text fill="#000000" font-family="sans-serif" font-size="13" font-weight="bold" lengthAdjust="spacing" textLength="8" x="785" y="172.6294">3</text><text fill="#000000" font-family="sans-serif" font-size="13" lengthAdjust="spacing" textLength="421" x="797" y="172.6294">shortestPath(Graph g, GraphLocation vOrig,GraphLocation vDest)</text><path d="M680.5,235.6953 L758.5,235.6953 L758.5,242.6953 L748.5,252.6953 L680.5,252.6953 L680.5,235.6953 " fill="#EEEEEE" style="stroke:#000000;stroke-width:1.0;"/><rect fill="none" height="89.2656" style="stroke:#000000;stroke-width:2.0;" width="481.5" x="680.5" y="235.6953"/><text fill="#000000" font-family="sans-serif" font-size="13" font-weight="bold" lengthAdjust="spacing" textLength="33" x="695.5" y="248.7622">loop</text><line style="stroke:#A80036;stroke-width:1.0;" x1="778" x2="820" y1="273.9609" y2="273.9609"/><line style="stroke:#A80036;stroke-width:1.0;" x1="820" x2="820" y1="273.9609" y2="286.9609"/><line style="stroke:#A80036;stroke-width:1.0;" x1="779" x2="820" y1="286.9609" y2="286.9609"/><polygon fill="#A80036" points="789,282.9609,779,286.9609,789,290.9609,785,286.9609" style="stroke:#A80036;stroke-width:1.0;"/><text fill="#000000" font-family="sans-serif" font-size="13" font-weight="bold" lengthAdjust="spacing" textLength="9" x="785" y="268.895">4</text><text fill="#000000" font-family="sans-serif" font-size="13" lengthAdjust="spacing" textLength="352" x="798" y="268.895">GetVertMinDist(Graph g,double[] dist,boolean[] visited)</text><polygon fill="#A80036" points="476,349.0938,466,353.0938,476,357.0938,472,353.0938" style="stroke:#A80036;stroke-width:1.0;"/><line style="stroke:#A80036;stroke-width:1.0;" x1="470" x2="767" y1="353.0938" y2="353.0938"/><text fill="#000000" font-family="sans-serif" font-size="13" font-weight="bold" lengthAdjust="spacing" textLength="9" x="482" y="348.0278">5</text><text fill="#000000" font-family="sans-serif" font-size="13" lengthAdjust="spacing" textLength="163" x="495" y="348.0278">path is shown to the user</text><polygon fill="#A80036" points="78,378.2266,68,382.2266,78,386.2266,74,382.2266" style="stroke:#A80036;stroke-width:1.0;"/><line style="stroke:#A80036;stroke-width:1.0;" x1="72" x2="459" y1="382.2266" y2="382.2266"/><text fill="#000000" font-family="sans-serif" font-size="13" font-weight="bold" lengthAdjust="spacing" textLength="9" x="84" y="377.1606">6</text><text fill="#000000" font-family="sans-serif" font-size="13" lengthAdjust="spacing" textLength="163" x="97" y="377.1606">path is shown to the user</text><!--MD5=[ab9ba051f07bfe768495eadbe4a6c341]
@startuml
autonumber
actor "TrafficManager" as REC

participant  ":CountryPortGraphTest" as LabCoo
participant ":CountryPortGraph" as CPG





activate REC
REC -> LabCoo : chooses two vertices to find the shortest path between
activate LabCoo
LabCoo -> CPG : createGraphWithPortsAndCountries(int n)
deactivate LabCoo
activate CPG
CPG -> CPG : shortestPath(Graph g, GraphLocation vOrig,GraphLocation vDest)
activate CPG
deactivate CPG
loop
CPG -> CPG : GetVertMinDist(Graph g,double[] dist,boolean[] visited)
activate CPG
deactivate CPG
end loop

CPG -> LabCoo : path is shown to the user
deactivate CPG
activate LabCoo

LabCoo -> REC : path is shown to the user
deactivate LabCoo
@enduml

PlantUML version 1.2022.1beta4(Unknown compile time)
(GPL source distribution)
Java Runtime: Java(TM) SE Runtime Environment
JVM: Java HotSpot(TM) 64-Bit Server VM
Default Encoding: UTF-8
Language: en
Country: US
--></g></svg>