<?xml version="1.0" encoding="UTF-8" standalone="no"?><svg xmlns="http://www.w3.org/2000/svg" xmlns:xlink="http://www.w3.org/1999/xlink" contentScriptType="application/ecmascript" contentStyleType="text/css" height="584px" preserveAspectRatio="none" style="width:636px;height:584px;background:#FFFFFF;" version="1.1" viewBox="0 0 636 584" width="636px" zoomAndPan="magnify"><defs><filter height="300%" id="f15ar509cxatdn" width="300%" x="-1" y="-1"><feGaussianBlur result="blurOut" stdDeviation="2.0"/><feColorMatrix in="blurOut" result="blurOut2" type="matrix" values="0 0 0 0 0 0 0 0 0 0 0 0 0 0 0 0 0 0 .4 0"/><feOffset dx="4.0" dy="4.0" in="blurOut2" result="blurOut3"/><feBlend in="SourceGraphic" in2="blurOut3" mode="normal"/></filter></defs><g><!--MD5=[deb4e1f6eb1e3c1256fdb830f96abfbb]
class Country--><rect codeLine="3" fill="#FEFECE" filter="url(#f15ar509cxatdn)" height="112.0234" id="Country" style="stroke:#A80036;stroke-width:1.5;" width="81" x="242.5" y="7"/><ellipse cx="258.85" cy="23" fill="#ADD1B2" rx="11" ry="11" style="stroke:#A80036;stroke-width:1.0;"/><path d="M261.1938,18.6719 C260.2563,18.2344 259.6625,18.0938 258.7875,18.0938 C256.1625,18.0938 254.1625,20.1719 254.1625,22.8906 L254.1625,24.0156 C254.1625,26.5938 256.2719,28.4844 259.1625,28.4844 C260.3813,28.4844 261.5375,28.1875 262.2875,27.6406 C262.8656,27.2344 263.1938,26.7813 263.1938,26.3906 C263.1938,25.9375 262.8031,25.5469 262.3344,25.5469 C262.1156,25.5469 261.9125,25.625 261.725,25.8125 C261.2719,26.2969 261.2719,26.2969 261.0844,26.3906 C260.6625,26.6563 259.975,26.7813 259.2094,26.7813 C257.1625,26.7813 255.8656,25.6875 255.8656,23.9844 L255.8656,22.8906 C255.8656,21.1094 257.1156,19.7969 258.85,19.7969 C259.4281,19.7969 260.0375,19.9531 260.5063,20.2031 C260.9906,20.4844 261.1625,20.7031 261.2563,21.1094 C261.3188,21.5156 261.35,21.6406 261.4906,21.7656 C261.6313,21.9063 261.8656,22.0156 262.0844,22.0156 C262.35,22.0156 262.6156,21.875 262.7875,21.6563 C262.8969,21.5 262.9281,21.3125 262.9281,20.8906 L262.9281,19.4688 C262.9281,19.0313 262.9125,18.9063 262.8188,18.75 C262.6625,18.4844 262.3813,18.3438 262.0844,18.3438 C261.7875,18.3438 261.5844,18.4375 261.3656,18.75 L261.1938,18.6719 Z " fill="#000000"/><text fill="#000000" font-family="sans-serif" font-size="12" lengthAdjust="spacing" textLength="46" x="273.15" y="27.1543">Country</text><line style="stroke:#A80036;stroke-width:1.5;" x1="243.5" x2="322.5" y1="39" y2="39"/><text fill="#000000" font-family="sans-serif" font-size="11" lengthAdjust="spacing" textLength="37" x="248.5" y="53.2104">-name</text><text fill="#000000" font-family="sans-serif" font-size="11" lengthAdjust="spacing" textLength="48" x="248.5" y="66.0151">-location</text><text fill="#000000" font-family="sans-serif" font-size="11" lengthAdjust="spacing" textLength="41" x="248.5" y="78.8198">-capital</text><text fill="#000000" font-family="sans-serif" font-size="11" lengthAdjust="spacing" textLength="69" x="248.5" y="91.6245">-alphacodes</text><text fill="#000000" font-family="sans-serif" font-size="11" lengthAdjust="spacing" textLength="9" x="248.5" y="104.4292">...</text><line style="stroke:#A80036;stroke-width:1.5;" x1="243.5" x2="322.5" y1="111.0234" y2="111.0234"/><!--MD5=[a0bfe97ac0a38e6e74cc1c7c7b744b71]
class Port--><rect codeLine="10" fill="#FEFECE" filter="url(#f15ar509cxatdn)" height="86.4141" id="Port" style="stroke:#A80036;stroke-width:1.5;" width="60" x="7" y="196"/><ellipse cx="24.25" cy="212" fill="#ADD1B2" rx="11" ry="11" style="stroke:#A80036;stroke-width:1.0;"/><path d="M26.5938,207.6719 C25.6563,207.2344 25.0625,207.0938 24.1875,207.0938 C21.5625,207.0938 19.5625,209.1719 19.5625,211.8906 L19.5625,213.0156 C19.5625,215.5938 21.6719,217.4844 24.5625,217.4844 C25.7813,217.4844 26.9375,217.1875 27.6875,216.6406 C28.2656,216.2344 28.5938,215.7813 28.5938,215.3906 C28.5938,214.9375 28.2031,214.5469 27.7344,214.5469 C27.5156,214.5469 27.3125,214.625 27.125,214.8125 C26.6719,215.2969 26.6719,215.2969 26.4844,215.3906 C26.0625,215.6563 25.375,215.7813 24.6094,215.7813 C22.5625,215.7813 21.2656,214.6875 21.2656,212.9844 L21.2656,211.8906 C21.2656,210.1094 22.5156,208.7969 24.25,208.7969 C24.8281,208.7969 25.4375,208.9531 25.9063,209.2031 C26.3906,209.4844 26.5625,209.7031 26.6563,210.1094 C26.7188,210.5156 26.75,210.6406 26.8906,210.7656 C27.0313,210.9063 27.2656,211.0156 27.4844,211.0156 C27.75,211.0156 28.0156,210.875 28.1875,210.6563 C28.2969,210.5 28.3281,210.3125 28.3281,209.8906 L28.3281,208.4688 C28.3281,208.0313 28.3125,207.9063 28.2188,207.75 C28.0625,207.4844 27.7813,207.3438 27.4844,207.3438 C27.1875,207.3438 26.9844,207.4375 26.7656,207.75 L26.5938,207.6719 Z " fill="#000000"/><text fill="#000000" font-family="sans-serif" font-size="12" lengthAdjust="spacing" textLength="23" x="38.75" y="216.1543">Port</text><line style="stroke:#A80036;stroke-width:1.5;" x1="8" x2="66" y1="228" y2="228"/><text fill="#000000" font-family="sans-serif" font-size="11" lengthAdjust="spacing" textLength="48" x="13" y="242.2104">-location</text><text fill="#000000" font-family="sans-serif" font-size="11" lengthAdjust="spacing" textLength="32" x="13" y="255.0151">-code</text><text fill="#000000" font-family="sans-serif" font-size="11" lengthAdjust="spacing" textLength="37" x="13" y="267.8198">-name</text><line style="stroke:#A80036;stroke-width:1.5;" x1="8" x2="66" y1="274.4141" y2="274.4141"/><!--MD5=[5011bf3d6c61ba0c0b7af54c2595cffb]
class CountryPortGraph--><rect codeLine="15" fill="#FEFECE" filter="url(#f15ar509cxatdn)" height="60.8047" id="CountryPortGraph" style="stroke:#A80036;stroke-width:1.5;" width="137" x="248.5" y="359"/><ellipse cx="263.5" cy="375" fill="#ADD1B2" rx="11" ry="11" style="stroke:#A80036;stroke-width:1.0;"/><path d="M265.8438,370.6719 C264.9063,370.2344 264.3125,370.0938 263.4375,370.0938 C260.8125,370.0938 258.8125,372.1719 258.8125,374.8906 L258.8125,376.0156 C258.8125,378.5938 260.9219,380.4844 263.8125,380.4844 C265.0313,380.4844 266.1875,380.1875 266.9375,379.6406 C267.5156,379.2344 267.8438,378.7813 267.8438,378.3906 C267.8438,377.9375 267.4531,377.5469 266.9844,377.5469 C266.7656,377.5469 266.5625,377.625 266.375,377.8125 C265.9219,378.2969 265.9219,378.2969 265.7344,378.3906 C265.3125,378.6563 264.625,378.7813 263.8594,378.7813 C261.8125,378.7813 260.5156,377.6875 260.5156,375.9844 L260.5156,374.8906 C260.5156,373.1094 261.7656,371.7969 263.5,371.7969 C264.0781,371.7969 264.6875,371.9531 265.1563,372.2031 C265.6406,372.4844 265.8125,372.7031 265.9063,373.1094 C265.9688,373.5156 266,373.6406 266.1406,373.7656 C266.2813,373.9063 266.5156,374.0156 266.7344,374.0156 C267,374.0156 267.2656,373.875 267.4375,373.6563 C267.5469,373.5 267.5781,373.3125 267.5781,372.8906 L267.5781,371.4688 C267.5781,371.0313 267.5625,370.9063 267.4688,370.75 C267.3125,370.4844 267.0313,370.3438 266.7344,370.3438 C266.4375,370.3438 266.2344,370.4375 266.0156,370.75 L265.8438,370.6719 Z " fill="#000000"/><text fill="#000000" font-family="sans-serif" font-size="12" lengthAdjust="spacing" textLength="105" x="277.5" y="379.1543">CountryPortGraph</text><line style="stroke:#A80036;stroke-width:1.5;" x1="249.5" x2="384.5" y1="391" y2="391"/><text fill="#000000" font-family="sans-serif" font-size="11" lengthAdjust="spacing" textLength="36" x="254.5" y="405.2104">-graph</text><line style="stroke:#A80036;stroke-width:1.5;" x1="249.5" x2="384.5" y1="411.8047" y2="411.8047"/><!--MD5=[ddaf6f62b0bc30921877ec9fb9463c9f]
class TrafficManager--><rect codeLine="19" fill="#FEFECE" filter="url(#f15ar509cxatdn)" height="73.6094" id="TrafficManager" style="stroke:#A80036;stroke-width:1.5;" width="121" x="256.5" y="497"/><ellipse cx="271.5" cy="513" fill="#ADD1B2" rx="11" ry="11" style="stroke:#A80036;stroke-width:1.0;"/><path d="M273.8438,508.6719 C272.9063,508.2344 272.3125,508.0938 271.4375,508.0938 C268.8125,508.0938 266.8125,510.1719 266.8125,512.8906 L266.8125,514.0156 C266.8125,516.5938 268.9219,518.4844 271.8125,518.4844 C273.0313,518.4844 274.1875,518.1875 274.9375,517.6406 C275.5156,517.2344 275.8438,516.7813 275.8438,516.3906 C275.8438,515.9375 275.4531,515.5469 274.9844,515.5469 C274.7656,515.5469 274.5625,515.625 274.375,515.8125 C273.9219,516.2969 273.9219,516.2969 273.7344,516.3906 C273.3125,516.6563 272.625,516.7813 271.8594,516.7813 C269.8125,516.7813 268.5156,515.6875 268.5156,513.9844 L268.5156,512.8906 C268.5156,511.1094 269.7656,509.7969 271.5,509.7969 C272.0781,509.7969 272.6875,509.9531 273.1563,510.2031 C273.6406,510.4844 273.8125,510.7031 273.9063,511.1094 C273.9688,511.5156 274,511.6406 274.1406,511.7656 C274.2813,511.9063 274.5156,512.0156 274.7344,512.0156 C275,512.0156 275.2656,511.875 275.4375,511.6563 C275.5469,511.5 275.5781,511.3125 275.5781,510.8906 L275.5781,509.4688 C275.5781,509.0313 275.5625,508.9063 275.4688,508.75 C275.3125,508.4844 275.0313,508.3438 274.7344,508.3438 C274.4375,508.3438 274.2344,508.4375 274.0156,508.75 L273.8438,508.6719 Z " fill="#000000"/><text fill="#000000" font-family="sans-serif" font-size="12" lengthAdjust="spacing" textLength="89" x="285.5" y="517.1543">TrafficManager</text><line style="stroke:#A80036;stroke-width:1.5;" x1="257.5" x2="376.5" y1="529" y2="529"/><text fill="#000000" font-family="sans-serif" font-size="11" lengthAdjust="spacing" textLength="41" x="262.5" y="543.2104">-userID</text><text fill="#000000" font-family="sans-serif" font-size="11" lengthAdjust="spacing" textLength="37" x="262.5" y="556.0151">-name</text><line style="stroke:#A80036;stroke-width:1.5;" x1="257.5" x2="376.5" y1="562.6094" y2="562.6094"/><!--MD5=[9d93cb1044a295c4863abd89b71832dd]
reverse link Country to CountryPortGraph--><path codeLine="25" d="M328.299,82.643 C355.616,96.54 388.111,118.421 404,149 C441.327,220.837 380.831,312.355 343.294,358.707 " fill="none" id="Country-backto-CountryPortGraph" style="stroke:#A80036;stroke-width:1.0;"/><polygon fill="#A80036" points="323.614,80.311,329.8905,87.9008,328.0907,82.5379,333.4536,80.7381,323.614,80.311" style="stroke:#A80036;stroke-width:1.0;"/><text fill="#000000" font-family="sans-serif" font-size="13" lengthAdjust="spacing" textLength="23" x="416" y="243.5669">has</text><text fill="#000000" font-family="sans-serif" font-size="13" lengthAdjust="spacing" textLength="27" x="331.562" y="96.03">1...*</text><text fill="#000000" font-family="sans-serif" font-size="13" lengthAdjust="spacing" textLength="8" x="339.8921" y="347.9098">1</text><!--MD5=[5f6035d42901f1e9b4792f6c38fe33de]
reverse link CountryPortGraph to TrafficManager--><path codeLine="26" d="M317,425.133 C317,446.894 317,474.9132 317,496.9405 " fill="none" id="CountryPortGraph-backto-TrafficManager" style="stroke:#A80036;stroke-width:1.0;"/><polygon fill="#A80036" points="317,420.026,313,429.026,317,425.026,321,429.026,317,420.026" style="stroke:#A80036;stroke-width:1.0;"/><text fill="#000000" font-family="sans-serif" font-size="13" lengthAdjust="spacing" textLength="47" x="318" y="463.0669">will use</text><text fill="#000000" font-family="sans-serif" font-size="13" lengthAdjust="spacing" textLength="27" x="287.2156" y="439.9696">1...*</text><text fill="#000000" font-family="sans-serif" font-size="13" lengthAdjust="spacing" textLength="8" x="308.2625" y="485.84">1</text><!--MD5=[fbe3368ce64046528031bd32412b83fa]
reverse link Country to Port--><path codeLine="27" d="M237.752,87.886 C208.693,103.903 170.613,126.175 139,149 C113.467,167.435 86.7174,190.955 67.0203,209.187 " fill="none" id="Country-backto-Port" style="stroke:#A80036;stroke-width:1.0;"/><polygon fill="#A80036" points="242.336,85.37,232.5217,86.1941,237.9529,87.7759,236.3711,93.2071,242.336,85.37" style="stroke:#A80036;stroke-width:1.0;"/><text fill="#000000" font-family="sans-serif" font-size="13" lengthAdjust="spacing" textLength="259" x="140" y="162.0669">wants to find the shortest path between</text><text fill="#000000" font-family="sans-serif" font-size="13" lengthAdjust="spacing" textLength="8" x="226.3802" y="85.0954">1</text><text fill="#000000" font-family="sans-serif" font-size="13" lengthAdjust="spacing" textLength="8" x="74.8875" y="197.5927">1</text><!--MD5=[1c3b7ccc282c386533adb23ef65b8612]
reverse link Country to Country--><path codeLine="28" d="M328.925,45.387 C345.238,45.066 358.5,50.937 358.5,63 C358.5,76.311 342.352,82.082 323.776,80.314 " fill="none" id="Country-backto-Country" style="stroke:#A80036;stroke-width:1.0;"/><polygon fill="#A80036" points="323.776,45.686,332.9928,49.1574,328.7676,45.3961,332.5289,41.1709,323.776,45.686" style="stroke:#A80036;stroke-width:1.0;"/><text fill="#000000" font-family="sans-serif" font-size="13" lengthAdjust="spacing" textLength="259" x="364.5" y="67.5669">wants to find the shortest path between</text><text fill="#000000" font-family="sans-serif" font-size="13" lengthAdjust="spacing" textLength="8" x="331.4719" y="38.4974">1</text><text fill="#000000" font-family="sans-serif" font-size="13" lengthAdjust="spacing" textLength="8" x="331.4719" y="79.0771">1</text><!--MD5=[cc5aa2b2eef66c6875b5c2aea07399e6]
reverse link Port to Port--><path codeLine="29" d="M72.1052,224.265 C88.098,222.76 102,227.672 102,239 C102,251.5 85.0729,256.188 67.0879,253.062 " fill="none" id="Port-backto-Port" style="stroke:#A80036;stroke-width:1.0;"/><polygon fill="#A80036" points="67.0879,224.938,76.5398,227.706,72.0435,224.2733,75.4763,219.777,67.0879,224.938" style="stroke:#A80036;stroke-width:1.0;"/><text fill="#000000" font-family="sans-serif" font-size="13" lengthAdjust="spacing" textLength="259" x="108" y="243.5669">wants to find the shortest path between</text><text fill="#000000" font-family="sans-serif" font-size="13" lengthAdjust="spacing" textLength="8" x="74.9707" y="216.9862">1</text><text fill="#000000" font-family="sans-serif" font-size="13" lengthAdjust="spacing" textLength="8" x="74.9707" y="251.6138">1</text><!--MD5=[e6948588ea45f63b1cdd398b130699ad]
reverse link Port to CountryPortGraph--><path codeLine="30" d="M71.6962,258.401 C119.091,283.538 204.623,328.9 261.116,358.862 " fill="none" id="Port-backto-CountryPortGraph" style="stroke:#A80036;stroke-width:1.0;"/><polygon fill="#A80036" points="67.2309,256.033,73.3077,263.7837,71.6481,258.3757,77.056,256.7162,67.2309,256.033" style="stroke:#A80036;stroke-width:1.0;"/><text fill="#000000" font-family="sans-serif" font-size="13" lengthAdjust="spacing" textLength="23" x="203" y="325.0669">has</text><text fill="#000000" font-family="sans-serif" font-size="13" lengthAdjust="spacing" textLength="27" x="75.0205" y="272.4448">1...*</text><text fill="#000000" font-family="sans-serif" font-size="13" lengthAdjust="spacing" textLength="8" x="240.7649" y="348.0968">1</text><!--MD5=[4acff0db9f4563c4b90bf99ed9fa178f]
@startuml
skinparam classAttributeIconSize 0

Class Country{
-name
-location
-capital
-alphacodes
...
}
Class Port{
-location
-code
-name
}
class CountryPortGraph {
-graph
}

class TrafficManager{
-userID
-name
}


Country "1...*" <- - "1" CountryPortGraph : has
CountryPortGraph "1...*" <- - "1" TrafficManager : will use
Country "1" <- - "1" Port :wants to find the shortest path between
Country "1" <- - "1" Country :wants to find the shortest path between
Port "1" <- - "1" Port :wants to find the shortest path between
Port "1...*" <- - "1" CountryPortGraph : has
@enduml

PlantUML version 1.2022.1beta4(Unknown compile time)
(GPL source distribution)
Java Runtime: Java(TM) SE Runtime Environment
JVM: Java HotSpot(TM) 64-Bit Server VM
Default Encoding: UTF-8
Language: en
Country: US
--></g></svg>