<?xml version="1.0" encoding="UTF-8" standalone="no"?><svg xmlns="http://www.w3.org/2000/svg" xmlns:xlink="http://www.w3.org/1999/xlink" contentScriptType="application/ecmascript" contentStyleType="text/css" height="587px" preserveAspectRatio="none" style="width:366px;height:587px;background:#FFFFFF;" version="1.1" viewBox="0 0 366 587" width="366px" zoomAndPan="magnify"><defs><filter height="300%" id="f1ml7vy4l8qv9s" width="300%" x="-1" y="-1"><feGaussianBlur result="blurOut" stdDeviation="2.0"/><feColorMatrix in="blurOut" result="blurOut2" type="matrix" values="0 0 0 0 0 0 0 0 0 0 0 0 0 0 0 0 0 0 .4 0"/><feOffset dx="4.0" dy="4.0" in="blurOut2" result="blurOut3"/><feBlend in="SourceGraphic" in2="blurOut3" mode="normal"/></filter></defs><g><!--MD5=[0dc7f2ddb409b58bcf52b12238c25399]
class Ship--><rect codeLine="2" fill="#FEFECE" filter="url(#f1ml7vy4l8qv9s)" height="188.8516" id="Ship" style="stroke:#A80036;stroke-width:1.5;" width="177" x="7" y="234"/><ellipse cx="78.25" cy="250" fill="#ADD1B2" rx="11" ry="11" style="stroke:#A80036;stroke-width:1.0;"/><path d="M80.5938,245.6719 C79.6563,245.2344 79.0625,245.0938 78.1875,245.0938 C75.5625,245.0938 73.5625,247.1719 73.5625,249.8906 L73.5625,251.0156 C73.5625,253.5938 75.6719,255.4844 78.5625,255.4844 C79.7813,255.4844 80.9375,255.1875 81.6875,254.6406 C82.2656,254.2344 82.5938,253.7813 82.5938,253.3906 C82.5938,252.9375 82.2031,252.5469 81.7344,252.5469 C81.5156,252.5469 81.3125,252.625 81.125,252.8125 C80.6719,253.2969 80.6719,253.2969 80.4844,253.3906 C80.0625,253.6563 79.375,253.7813 78.6094,253.7813 C76.5625,253.7813 75.2656,252.6875 75.2656,250.9844 L75.2656,249.8906 C75.2656,248.1094 76.5156,246.7969 78.25,246.7969 C78.8281,246.7969 79.4375,246.9531 79.9063,247.2031 C80.3906,247.4844 80.5625,247.7031 80.6563,248.1094 C80.7188,248.5156 80.75,248.6406 80.8906,248.7656 C81.0313,248.9063 81.2656,249.0156 81.4844,249.0156 C81.75,249.0156 82.0156,248.875 82.1875,248.6563 C82.2969,248.5 82.3281,248.3125 82.3281,247.8906 L82.3281,246.4688 C82.3281,246.0313 82.3125,245.9063 82.2188,245.75 C82.0625,245.4844 81.7813,245.3438 81.4844,245.3438 C81.1875,245.3438 80.9844,245.4375 80.7656,245.75 L80.5938,245.6719 Z " fill="#000000"/><text fill="#000000" font-family="sans-serif" font-size="12" lengthAdjust="spacing" textLength="26" x="98.75" y="254.1543">Ship</text><line style="stroke:#A80036;stroke-width:1.5;" x1="8" x2="183" y1="266" y2="266"/><text fill="#000000" font-family="sans-serif" font-size="11" lengthAdjust="spacing" textLength="33" x="13" y="280.2104">-MMSI</text><text fill="#000000" font-family="sans-serif" font-size="11" lengthAdjust="spacing" textLength="37" x="13" y="293.0151">-name</text><text fill="#000000" font-family="sans-serif" font-size="11" lengthAdjust="spacing" textLength="81" x="13" y="305.8198">-IMOIDnumber</text><text fill="#000000" font-family="sans-serif" font-size="11" lengthAdjust="spacing" textLength="165" x="13" y="318.6245">-numberOfEnergyGenerators</text><text fill="#000000" font-family="sans-serif" font-size="11" lengthAdjust="spacing" textLength="132" x="13" y="331.4292">-generatorPowerOutput</text><text fill="#000000" font-family="sans-serif" font-size="11" lengthAdjust="spacing" textLength="48" x="13" y="344.2339">-callSign</text><text fill="#000000" font-family="sans-serif" font-size="11" lengthAdjust="spacing" textLength="101" x="13" y="357.0386">-vesselTypeCode</text><text fill="#000000" font-family="sans-serif" font-size="11" lengthAdjust="spacing" textLength="34" x="13" y="369.8433">-width</text><text fill="#000000" font-family="sans-serif" font-size="11" lengthAdjust="spacing" textLength="40" x="13" y="382.6479">-length</text><text fill="#000000" font-family="sans-serif" font-size="11" lengthAdjust="spacing" textLength="51" x="13" y="395.4526">-capacity</text><text fill="#000000" font-family="sans-serif" font-size="11" lengthAdjust="spacing" textLength="30" x="13" y="408.2573">-draft</text><line style="stroke:#A80036;stroke-width:1.5;" x1="8" x2="183" y1="414.8516" y2="414.8516"/><!--MD5=[ddaf6f62b0bc30921877ec9fb9463c9f]
class TrafficManager--><rect codeLine="16" fill="#FEFECE" filter="url(#f1ml7vy4l8qv9s)" height="73.6094" id="TrafficManager" style="stroke:#A80036;stroke-width:1.5;" width="121" x="35" y="500"/><ellipse cx="50" cy="516" fill="#ADD1B2" rx="11" ry="11" style="stroke:#A80036;stroke-width:1.0;"/><path d="M52.3438,511.6719 C51.4063,511.2344 50.8125,511.0938 49.9375,511.0938 C47.3125,511.0938 45.3125,513.1719 45.3125,515.8906 L45.3125,517.0156 C45.3125,519.5938 47.4219,521.4844 50.3125,521.4844 C51.5313,521.4844 52.6875,521.1875 53.4375,520.6406 C54.0156,520.2344 54.3438,519.7813 54.3438,519.3906 C54.3438,518.9375 53.9531,518.5469 53.4844,518.5469 C53.2656,518.5469 53.0625,518.625 52.875,518.8125 C52.4219,519.2969 52.4219,519.2969 52.2344,519.3906 C51.8125,519.6563 51.125,519.7813 50.3594,519.7813 C48.3125,519.7813 47.0156,518.6875 47.0156,516.9844 L47.0156,515.8906 C47.0156,514.1094 48.2656,512.7969 50,512.7969 C50.5781,512.7969 51.1875,512.9531 51.6563,513.2031 C52.1406,513.4844 52.3125,513.7031 52.4063,514.1094 C52.4688,514.5156 52.5,514.6406 52.6406,514.7656 C52.7813,514.9063 53.0156,515.0156 53.2344,515.0156 C53.5,515.0156 53.7656,514.875 53.9375,514.6563 C54.0469,514.5 54.0781,514.3125 54.0781,513.8906 L54.0781,512.4688 C54.0781,512.0313 54.0625,511.9063 53.9688,511.75 C53.8125,511.4844 53.5313,511.3438 53.2344,511.3438 C52.9375,511.3438 52.7344,511.4375 52.5156,511.75 L52.3438,511.6719 Z " fill="#000000"/><text fill="#000000" font-family="sans-serif" font-size="12" lengthAdjust="spacing" textLength="89" x="64" y="520.1543">TrafficManager</text><line style="stroke:#A80036;stroke-width:1.5;" x1="36" x2="155" y1="532" y2="532"/><text fill="#000000" font-family="sans-serif" font-size="11" lengthAdjust="spacing" textLength="41" x="41" y="546.2104">-userID</text><text fill="#000000" font-family="sans-serif" font-size="11" lengthAdjust="spacing" textLength="37" x="41" y="559.0151">-name</text><line style="stroke:#A80036;stroke-width:1.5;" x1="36" x2="155" y1="565.6094" y2="565.6094"/><!--MD5=[19c2b9eb46691e25b02426140995a460]
class ShipDynamic--><rect codeLine="20" fill="#FEFECE" filter="url(#f1ml7vy4l8qv9s)" height="150.4375" id="ShipDynamic" style="stroke:#A80036;stroke-width:1.5;" width="110" x="40.5" y="7"/><ellipse cx="55.95" cy="23" fill="#ADD1B2" rx="11" ry="11" style="stroke:#A80036;stroke-width:1.0;"/><path d="M58.2938,18.6719 C57.3563,18.2344 56.7625,18.0938 55.8875,18.0938 C53.2625,18.0938 51.2625,20.1719 51.2625,22.8906 L51.2625,24.0156 C51.2625,26.5938 53.3719,28.4844 56.2625,28.4844 C57.4813,28.4844 58.6375,28.1875 59.3875,27.6406 C59.9656,27.2344 60.2938,26.7813 60.2938,26.3906 C60.2938,25.9375 59.9031,25.5469 59.4344,25.5469 C59.2156,25.5469 59.0125,25.625 58.825,25.8125 C58.3719,26.2969 58.3719,26.2969 58.1844,26.3906 C57.7625,26.6563 57.075,26.7813 56.3094,26.7813 C54.2625,26.7813 52.9656,25.6875 52.9656,23.9844 L52.9656,22.8906 C52.9656,21.1094 54.2156,19.7969 55.95,19.7969 C56.5281,19.7969 57.1375,19.9531 57.6063,20.2031 C58.0906,20.4844 58.2625,20.7031 58.3563,21.1094 C58.4188,21.5156 58.45,21.6406 58.5906,21.7656 C58.7313,21.9063 58.9656,22.0156 59.1844,22.0156 C59.45,22.0156 59.7156,21.875 59.8875,21.6563 C59.9969,21.5 60.0281,21.3125 60.0281,20.8906 L60.0281,19.4688 C60.0281,19.0313 60.0125,18.9063 59.9188,18.75 C59.7625,18.4844 59.4813,18.3438 59.1844,18.3438 C58.8875,18.3438 58.6844,18.4375 58.4656,18.75 L58.2938,18.6719 Z " fill="#000000"/><text fill="#000000" font-family="sans-serif" font-size="12" lengthAdjust="spacing" textLength="77" x="70.05" y="27.1543">ShipDynamic</text><line style="stroke:#A80036;stroke-width:1.5;" x1="41.5" x2="149.5" y1="39" y2="39"/><text fill="#000000" font-family="sans-serif" font-size="11" lengthAdjust="spacing" textLength="89" x="46.5" y="53.2104">-baseDateTime</text><text fill="#000000" font-family="sans-serif" font-size="11" lengthAdjust="spacing" textLength="47" x="46.5" y="66.0151">-latitude</text><text fill="#000000" font-family="sans-serif" font-size="11" lengthAdjust="spacing" textLength="57" x="46.5" y="78.8198">-longitude</text><text fill="#000000" font-family="sans-serif" font-size="11" lengthAdjust="spacing" textLength="30" x="46.5" y="91.6245">-SOG</text><text fill="#000000" font-family="sans-serif" font-size="11" lengthAdjust="spacing" textLength="30" x="46.5" y="104.4292">-COG</text><text fill="#000000" font-family="sans-serif" font-size="11" lengthAdjust="spacing" textLength="50" x="46.5" y="117.2339">-heading</text><text fill="#000000" font-family="sans-serif" font-size="11" lengthAdjust="spacing" textLength="48" x="46.5" y="130.0386">-position</text><text fill="#000000" font-family="sans-serif" font-size="11" lengthAdjust="spacing" textLength="98" x="46.5" y="142.8433">-transceiverClass</text><line style="stroke:#A80036;stroke-width:1.5;" x1="41.5" x2="149.5" y1="149.4375" y2="149.4375"/><!--MD5=[0226f55439608f4074d0479680a3b4ff]
reverse link ShipDynamic to Ship--><path codeLine="31" d="M95.5,162.164 C95.5,185.009 95.5,210.156 95.5,233.795 " fill="none" id="ShipDynamic-backto-Ship" style="stroke:#A80036;stroke-width:1.0;"/><polygon fill="#A80036" points="95.5,157.022,91.5,166.022,95.5,162.022,99.5,166.022,95.5,157.022" style="stroke:#A80036;stroke-width:1.0;"/><text fill="#000000" font-family="sans-serif" font-size="13" lengthAdjust="spacing" textLength="23" x="96.5" y="200.0669">has</text><text fill="#000000" font-family="sans-serif" font-size="13" lengthAdjust="spacing" textLength="8" x="87.0875" y="177.5833">1</text><text fill="#000000" font-family="sans-serif" font-size="13" lengthAdjust="spacing" textLength="8" x="87.1938" y="223.0476">1</text><!--MD5=[b7afe7416943f1f467849a2c0eafaab5]
reverse link Ship to TrafficManager--><path codeLine="32" d="M95.5,428.194 C95.5,453.783 95.5,479.7459 95.5,499.7794 " fill="none" id="Ship-backto-TrafficManager" style="stroke:#A80036;stroke-width:1.0;"/><polygon fill="#A80036" points="95.5,423.083,91.5,432.083,95.5,428.083,99.5,432.083,95.5,423.083" style="stroke:#A80036;stroke-width:1.0;"/><text fill="#000000" font-family="sans-serif" font-size="13" lengthAdjust="spacing" textLength="262" x="96.5" y="466.0669">wants to see a list of ones who are close</text><text fill="#000000" font-family="sans-serif" font-size="13" lengthAdjust="spacing" textLength="27" x="67.4664" y="442.9764">1...*</text><text fill="#000000" font-family="sans-serif" font-size="13" lengthAdjust="spacing" textLength="8" x="86.7875" y="488.9271">1</text><!--MD5=[f95a278515280232fbf33d49b1dced86]
@startuml
skinparam classAttributeIconSize 0
class Ship {
-MMSI
-name
-IMOIDnumber
-numberOfEnergyGenerators
-generatorPowerOutput
-callSign
-vesselTypeCode
-width
-length
-capacity
-draft
}

class TrafficManager{
-userID
-name
}
class ShipDynamic{
-baseDateTime
-latitude
-longitude
-SOG
-COG
-heading
-position
-transceiverClass
}

ShipDynamic "1" <- - "1" Ship : has
Ship "1...*" <- - "1" TrafficManager : wants to see a list of ones who are close
@enduml

PlantUML version 1.2021.13beta8(Unknown compile time)
(GPL source distribution)
Java Runtime: Java(TM) SE Runtime Environment
JVM: Java HotSpot(TM) 64-Bit Server VM
Default Encoding: UTF-8
Language: en
Country: US
--></g></svg>