<?xml version="1.0" encoding="UTF-8" standalone="no"?><svg xmlns="http://www.w3.org/2000/svg" xmlns:xlink="http://www.w3.org/1999/xlink" contentScriptType="application/ecmascript" contentStyleType="text/css" height="661px" preserveAspectRatio="none" style="width:493px;height:661px;background:#FFFFFF;" version="1.1" viewBox="0 0 493 661" width="493px" zoomAndPan="magnify"><defs><filter height="300%" id="fbfah034jy4je" width="300%" x="-1" y="-1"><feGaussianBlur result="blurOut" stdDeviation="2.0"/><feColorMatrix in="blurOut" result="blurOut2" type="matrix" values="0 0 0 0 0 0 0 0 0 0 0 0 0 0 0 0 0 0 .4 0"/><feOffset dx="4.0" dy="4.0" in="blurOut2" result="blurOut3"/><feBlend in="SourceGraphic" in2="blurOut3" mode="normal"/></filter></defs><g><!--MD5=[0dc7f2ddb409b58bcf52b12238c25399]
class Ship--><rect codeLine="2" fill="#FEFECE" filter="url(#fbfah034jy4je)" height="86.4141" id="Ship" style="stroke:#A80036;stroke-width:1.5;" width="175" x="252.5" y="158"/><ellipse cx="322.75" cy="174" fill="#ADD1B2" rx="11" ry="11" style="stroke:#A80036;stroke-width:1.0;"/><path d="M325.0938,169.6719 C324.1563,169.2344 323.5625,169.0938 322.6875,169.0938 C320.0625,169.0938 318.0625,171.1719 318.0625,173.8906 L318.0625,175.0156 C318.0625,177.5938 320.1719,179.4844 323.0625,179.4844 C324.2813,179.4844 325.4375,179.1875 326.1875,178.6406 C326.7656,178.2344 327.0938,177.7813 327.0938,177.3906 C327.0938,176.9375 326.7031,176.5469 326.2344,176.5469 C326.0156,176.5469 325.8125,176.625 325.625,176.8125 C325.1719,177.2969 325.1719,177.2969 324.9844,177.3906 C324.5625,177.6563 323.875,177.7813 323.1094,177.7813 C321.0625,177.7813 319.7656,176.6875 319.7656,174.9844 L319.7656,173.8906 C319.7656,172.1094 321.0156,170.7969 322.75,170.7969 C323.3281,170.7969 323.9375,170.9531 324.4063,171.2031 C324.8906,171.4844 325.0625,171.7031 325.1563,172.1094 C325.2188,172.5156 325.25,172.6406 325.3906,172.7656 C325.5313,172.9063 325.7656,173.0156 325.9844,173.0156 C326.25,173.0156 326.5156,172.875 326.6875,172.6563 C326.7969,172.5 326.8281,172.3125 326.8281,171.8906 L326.8281,170.4688 C326.8281,170.0313 326.8125,169.9063 326.7188,169.75 C326.5625,169.4844 326.2813,169.3438 325.9844,169.3438 C325.6875,169.3438 325.4844,169.4375 325.2656,169.75 L325.0938,169.6719 Z " fill="#000000"/><text fill="#000000" font-family="sans-serif" font-size="12" lengthAdjust="spacing" textLength="26" x="343.25" y="178.1543">Ship</text><line style="stroke:#A80036;stroke-width:1.5;" x1="253.5" x2="426.5" y1="190" y2="190"/><text fill="#000000" font-family="sans-serif" font-size="11" lengthAdjust="spacing" textLength="163" x="258.5" y="204.2104">-List&lt;TravelRoute&gt; listRoute</text><line style="stroke:#A80036;stroke-width:1.5;" x1="253.5" x2="426.5" y1="210.8047" y2="210.8047"/><text fill="#000000" font-family="sans-serif" font-size="11" lengthAdjust="spacing" textLength="92" x="258.5" y="225.0151">+getLastRoute()</text><text fill="#000000" font-family="sans-serif" font-size="11" lengthAdjust="spacing" textLength="124" x="258.5" y="237.8198">+isCloseTo(Ship ship)</text><!--MD5=[447cff7a409c74219461559500508d7e]
class ShipPairList--><rect codeLine="7" fill="#FEFECE" filter="url(#fbfah034jy4je)" height="73.6094" id="ShipPairList" style="stroke:#A80036;stroke-width:1.5;" width="210" x="7" y="164"/><ellipse cx="74.25" cy="180" fill="#ADD1B2" rx="11" ry="11" style="stroke:#A80036;stroke-width:1.0;"/><path d="M76.5938,175.6719 C75.6563,175.2344 75.0625,175.0938 74.1875,175.0938 C71.5625,175.0938 69.5625,177.1719 69.5625,179.8906 L69.5625,181.0156 C69.5625,183.5938 71.6719,185.4844 74.5625,185.4844 C75.7813,185.4844 76.9375,185.1875 77.6875,184.6406 C78.2656,184.2344 78.5938,183.7813 78.5938,183.3906 C78.5938,182.9375 78.2031,182.5469 77.7344,182.5469 C77.5156,182.5469 77.3125,182.625 77.125,182.8125 C76.6719,183.2969 76.6719,183.2969 76.4844,183.3906 C76.0625,183.6563 75.375,183.7813 74.6094,183.7813 C72.5625,183.7813 71.2656,182.6875 71.2656,180.9844 L71.2656,179.8906 C71.2656,178.1094 72.5156,176.7969 74.25,176.7969 C74.8281,176.7969 75.4375,176.9531 75.9063,177.2031 C76.3906,177.4844 76.5625,177.7031 76.6563,178.1094 C76.7188,178.5156 76.75,178.6406 76.8906,178.7656 C77.0313,178.9063 77.2656,179.0156 77.4844,179.0156 C77.75,179.0156 78.0156,178.875 78.1875,178.6563 C78.2969,178.5 78.3281,178.3125 78.3281,177.8906 L78.3281,176.4688 C78.3281,176.0313 78.3125,175.9063 78.2188,175.75 C78.0625,175.4844 77.7813,175.3438 77.4844,175.3438 C77.1875,175.3438 76.9844,175.4375 76.7656,175.75 L76.5938,175.6719 Z " fill="#000000"/><text fill="#000000" font-family="sans-serif" font-size="12" lengthAdjust="spacing" textLength="67" x="94.75" y="184.1543">ShipPairList</text><line style="stroke:#A80036;stroke-width:1.5;" x1="8" x2="216" y1="196" y2="196"/><text fill="#000000" font-family="sans-serif" font-size="11" lengthAdjust="spacing" textLength="198" x="13" y="210.2104">-List&lt;Pair&lt;Ship,Ship&gt;&gt; shipPairList</text><line style="stroke:#A80036;stroke-width:1.5;" x1="8" x2="216" y1="216.8047" y2="216.8047"/><text fill="#000000" font-family="sans-serif" font-size="11" lengthAdjust="spacing" textLength="185" x="13" y="231.0151">+ShipPairList(List &lt;Ship&gt; lShips)</text><!--MD5=[82dc263f563d227779ba81db65b2fd4d]
class Identification--><rect codeLine="11" fill="#FEFECE" filter="url(#fbfah034jy4je)" height="73.6094" id="Identification" style="stroke:#A80036;stroke-width:1.5;" width="108" x="286" y="7"/><ellipse cx="301" cy="23" fill="#ADD1B2" rx="11" ry="11" style="stroke:#A80036;stroke-width:1.0;"/><path d="M303.3438,18.6719 C302.4063,18.2344 301.8125,18.0938 300.9375,18.0938 C298.3125,18.0938 296.3125,20.1719 296.3125,22.8906 L296.3125,24.0156 C296.3125,26.5938 298.4219,28.4844 301.3125,28.4844 C302.5313,28.4844 303.6875,28.1875 304.4375,27.6406 C305.0156,27.2344 305.3438,26.7813 305.3438,26.3906 C305.3438,25.9375 304.9531,25.5469 304.4844,25.5469 C304.2656,25.5469 304.0625,25.625 303.875,25.8125 C303.4219,26.2969 303.4219,26.2969 303.2344,26.3906 C302.8125,26.6563 302.125,26.7813 301.3594,26.7813 C299.3125,26.7813 298.0156,25.6875 298.0156,23.9844 L298.0156,22.8906 C298.0156,21.1094 299.2656,19.7969 301,19.7969 C301.5781,19.7969 302.1875,19.9531 302.6563,20.2031 C303.1406,20.4844 303.3125,20.7031 303.4063,21.1094 C303.4688,21.5156 303.5,21.6406 303.6406,21.7656 C303.7813,21.9063 304.0156,22.0156 304.2344,22.0156 C304.5,22.0156 304.7656,21.875 304.9375,21.6563 C305.0469,21.5 305.0781,21.3125 305.0781,20.8906 L305.0781,19.4688 C305.0781,19.0313 305.0625,18.9063 304.9688,18.75 C304.8125,18.4844 304.5313,18.3438 304.2344,18.3438 C303.9375,18.3438 303.7344,18.4375 303.5156,18.75 L303.3438,18.6719 Z " fill="#000000"/><text fill="#000000" font-family="sans-serif" font-size="12" lengthAdjust="spacing" textLength="76" x="315" y="27.1543">Identification</text><line style="stroke:#A80036;stroke-width:1.5;" x1="287" x2="393" y1="39" y2="39"/><text fill="#000000" font-family="sans-serif" font-size="11" lengthAdjust="spacing" textLength="70" x="292" y="53.2104">-String MMSI</text><line style="stroke:#A80036;stroke-width:1.5;" x1="287" x2="393" y1="59.8047" y2="59.8047"/><text fill="#000000" font-family="sans-serif" font-size="11" lengthAdjust="spacing" textLength="65" x="292" y="74.0151">+getMMSI()</text><!--MD5=[19c2b9eb46691e25b02426140995a460]
class ShipDynamic--><rect codeLine="16" fill="#FEFECE" filter="url(#fbfah034jy4je)" height="99.2188" id="ShipDynamic" style="stroke:#A80036;stroke-width:1.5;" width="112" x="367" y="548"/><ellipse cx="383.35" cy="564" fill="#ADD1B2" rx="11" ry="11" style="stroke:#A80036;stroke-width:1.0;"/><path d="M385.6938,559.6719 C384.7563,559.2344 384.1625,559.0938 383.2875,559.0938 C380.6625,559.0938 378.6625,561.1719 378.6625,563.8906 L378.6625,565.0156 C378.6625,567.5938 380.7719,569.4844 383.6625,569.4844 C384.8813,569.4844 386.0375,569.1875 386.7875,568.6406 C387.3656,568.2344 387.6938,567.7813 387.6938,567.3906 C387.6938,566.9375 387.3031,566.5469 386.8344,566.5469 C386.6156,566.5469 386.4125,566.625 386.225,566.8125 C385.7719,567.2969 385.7719,567.2969 385.5844,567.3906 C385.1625,567.6563 384.475,567.7813 383.7094,567.7813 C381.6625,567.7813 380.3656,566.6875 380.3656,564.9844 L380.3656,563.8906 C380.3656,562.1094 381.6156,560.7969 383.35,560.7969 C383.9281,560.7969 384.5375,560.9531 385.0063,561.2031 C385.4906,561.4844 385.6625,561.7031 385.7563,562.1094 C385.8188,562.5156 385.85,562.6406 385.9906,562.7656 C386.1313,562.9063 386.3656,563.0156 386.5844,563.0156 C386.85,563.0156 387.1156,562.875 387.2875,562.6563 C387.3969,562.5 387.4281,562.3125 387.4281,561.8906 L387.4281,560.4688 C387.4281,560.0313 387.4125,559.9063 387.3188,559.75 C387.1625,559.4844 386.8813,559.3438 386.5844,559.3438 C386.2875,559.3438 386.0844,559.4375 385.8656,559.75 L385.6938,559.6719 Z " fill="#000000"/><text fill="#000000" font-family="sans-serif" font-size="12" lengthAdjust="spacing" textLength="77" x="397.65" y="568.1543">ShipDynamic</text><line style="stroke:#A80036;stroke-width:1.5;" x1="368" x2="478" y1="580" y2="580"/><text fill="#000000" font-family="sans-serif" font-size="11" lengthAdjust="spacing" textLength="90" x="373" y="594.2104">-double latitude</text><text fill="#000000" font-family="sans-serif" font-size="11" lengthAdjust="spacing" textLength="100" x="373" y="607.0151">-double longitude</text><line style="stroke:#A80036;stroke-width:1.5;" x1="368" x2="478" y1="613.6094" y2="613.6094"/><text fill="#000000" font-family="sans-serif" font-size="11" lengthAdjust="spacing" textLength="82" x="373" y="627.8198">+getLatitude()</text><text fill="#000000" font-family="sans-serif" font-size="11" lengthAdjust="spacing" textLength="92" x="373" y="640.6245">+getLongitude()</text><!--MD5=[7ef77df97ff4d7d522fabd56ee10ec47]
class TravelRoute--><rect codeLine="22" fill="#FEFECE" filter="url(#fbfah034jy4je)" height="150.4375" id="TravelRoute" style="stroke:#A80036;stroke-width:1.5;" width="198" x="233" y="321"/><ellipse cx="292.25" cy="337" fill="#ADD1B2" rx="11" ry="11" style="stroke:#A80036;stroke-width:1.0;"/><path d="M294.5938,332.6719 C293.6563,332.2344 293.0625,332.0938 292.1875,332.0938 C289.5625,332.0938 287.5625,334.1719 287.5625,336.8906 L287.5625,338.0156 C287.5625,340.5938 289.6719,342.4844 292.5625,342.4844 C293.7813,342.4844 294.9375,342.1875 295.6875,341.6406 C296.2656,341.2344 296.5938,340.7813 296.5938,340.3906 C296.5938,339.9375 296.2031,339.5469 295.7344,339.5469 C295.5156,339.5469 295.3125,339.625 295.125,339.8125 C294.6719,340.2969 294.6719,340.2969 294.4844,340.3906 C294.0625,340.6563 293.375,340.7813 292.6094,340.7813 C290.5625,340.7813 289.2656,339.6875 289.2656,337.9844 L289.2656,336.8906 C289.2656,335.1094 290.5156,333.7969 292.25,333.7969 C292.8281,333.7969 293.4375,333.9531 293.9063,334.2031 C294.3906,334.4844 294.5625,334.7031 294.6563,335.1094 C294.7188,335.5156 294.75,335.6406 294.8906,335.7656 C295.0313,335.9063 295.2656,336.0156 295.4844,336.0156 C295.75,336.0156 296.0156,335.875 296.1875,335.6563 C296.2969,335.5 296.3281,335.3125 296.3281,334.8906 L296.3281,333.4688 C296.3281,333.0313 296.3125,332.9063 296.2188,332.75 C296.0625,332.4844 295.7813,332.3438 295.4844,332.3438 C295.1875,332.3438 294.9844,332.4375 294.7656,332.75 L294.5938,332.6719 Z " fill="#000000"/><text fill="#000000" font-family="sans-serif" font-size="12" lengthAdjust="spacing" textLength="71" x="312.75" y="341.1543">TravelRoute</text><line style="stroke:#A80036;stroke-width:1.5;" x1="234" x2="430" y1="353" y2="353"/><text fill="#000000" font-family="sans-serif" font-size="11" lengthAdjust="spacing" textLength="85" x="239" y="367.2104">-Port arrivalPort</text><text fill="#000000" font-family="sans-serif" font-size="11" lengthAdjust="spacing" textLength="108" x="239" y="380.0151">-Port DeparturePort</text><text fill="#000000" font-family="sans-serif" font-size="11" lengthAdjust="spacing" textLength="186" x="239" y="392.8198">-List&lt;ShipDynamic&gt; listDynamic</text><line style="stroke:#A80036;stroke-width:1.5;" x1="234" x2="430" y1="399.4141" y2="399.4141"/><text fill="#000000" font-family="sans-serif" font-size="11" lengthAdjust="spacing" textLength="150" x="239" y="413.6245">+getDepartureLongitude()</text><text fill="#000000" font-family="sans-serif" font-size="11" lengthAdjust="spacing" textLength="140" x="239" y="426.4292">+getDepartureLatitude()</text><text fill="#000000" font-family="sans-serif" font-size="11" lengthAdjust="spacing" textLength="128" x="239" y="439.2339">+getArrivalLongitude()</text><text fill="#000000" font-family="sans-serif" font-size="11" lengthAdjust="spacing" textLength="118" x="239" y="452.0386">+getArrivalLatitude()</text><text fill="#000000" font-family="sans-serif" font-size="11" lengthAdjust="spacing" textLength="140" x="239" y="464.8433">+getTravelledDistance()</text><!--MD5=[ea2206eefe09474e90beb17e18e6b3d8]
class ShipStore--><rect codeLine="32" fill="#FEFECE" filter="url(#fbfah034jy4je)" height="86.4141" id="ShipStore" style="stroke:#A80036;stroke-width:1.5;" width="162" x="34" y="353"/><ellipse cx="81.25" cy="369" fill="#ADD1B2" rx="11" ry="11" style="stroke:#A80036;stroke-width:1.0;"/><path d="M83.5938,364.6719 C82.6563,364.2344 82.0625,364.0938 81.1875,364.0938 C78.5625,364.0938 76.5625,366.1719 76.5625,368.8906 L76.5625,370.0156 C76.5625,372.5938 78.6719,374.4844 81.5625,374.4844 C82.7813,374.4844 83.9375,374.1875 84.6875,373.6406 C85.2656,373.2344 85.5938,372.7813 85.5938,372.3906 C85.5938,371.9375 85.2031,371.5469 84.7344,371.5469 C84.5156,371.5469 84.3125,371.625 84.125,371.8125 C83.6719,372.2969 83.6719,372.2969 83.4844,372.3906 C83.0625,372.6563 82.375,372.7813 81.6094,372.7813 C79.5625,372.7813 78.2656,371.6875 78.2656,369.9844 L78.2656,368.8906 C78.2656,367.1094 79.5156,365.7969 81.25,365.7969 C81.8281,365.7969 82.4375,365.9531 82.9063,366.2031 C83.3906,366.4844 83.5625,366.7031 83.6563,367.1094 C83.7188,367.5156 83.75,367.6406 83.8906,367.7656 C84.0313,367.9063 84.2656,368.0156 84.4844,368.0156 C84.75,368.0156 85.0156,367.875 85.1875,367.6563 C85.2969,367.5 85.3281,367.3125 85.3281,366.8906 L85.3281,365.4688 C85.3281,365.0313 85.3125,364.9063 85.2188,364.75 C85.0625,364.4844 84.7813,364.3438 84.4844,364.3438 C84.1875,364.3438 83.9844,364.4375 83.7656,364.75 L83.5938,364.6719 Z " fill="#000000"/><text fill="#000000" font-family="sans-serif" font-size="12" lengthAdjust="spacing" textLength="59" x="101.75" y="373.1543">ShipStore</text><line style="stroke:#A80036;stroke-width:1.5;" x1="35" x2="195" y1="385" y2="385"/><text fill="#000000" font-family="sans-serif" font-size="11" lengthAdjust="spacing" textLength="111" x="40" y="399.2104">-List&lt;Ship&gt; listShip</text><line style="stroke:#A80036;stroke-width:1.5;" x1="35" x2="195" y1="405.8047" y2="405.8047"/><text fill="#000000" font-family="sans-serif" font-size="11" lengthAdjust="spacing" textLength="119" x="40" y="420.0151">+getCloseShipPairs()</text><text fill="#000000" font-family="sans-serif" font-size="11" lengthAdjust="spacing" textLength="150" x="40" y="432.8198">+createCloseShipPairList()</text><!--MD5=[5628a0158f573ba8ed032f181d09a249]
link Ship to TravelRoute--><path codeLine="37" d="M338.244,244.355 C337.377,265.281 336.301,291.229 335.289,315.661 " fill="none" id="Ship-to-TravelRoute" style="stroke:#A80036;stroke-width:1.0;"/><polygon fill="#A80036" points="335.074,320.849,339.4434,312.0224,335.2811,315.8533,331.4503,311.691,335.074,320.849" style="stroke:#A80036;stroke-width:1.0;"/><text fill="#000000" font-family="sans-serif" font-size="13" lengthAdjust="spacing" textLength="34" x="338" y="287.0669">owns</text><text fill="#000000" font-family="sans-serif" font-size="13" lengthAdjust="spacing" textLength="8" x="329.3266" y="264.5045">1</text><text fill="#000000" font-family="sans-serif" font-size="13" lengthAdjust="spacing" textLength="23" x="311.2709" y="310.0237">1..*</text><!--MD5=[c6b57f6c5473ae80747685112aa606f1]
reverse link Identification to Ship--><path codeLine="38" d="M340,86.548 C340,108.619 340,135.689 340,157.85 " fill="none" id="Identification-backto-Ship" style="stroke:#A80036;stroke-width:1.0;"/><polygon fill="#A80036" points="340,81.341,336,90.341,340,86.341,344,90.341,340,81.341" style="stroke:#A80036;stroke-width:1.0;"/><text fill="#000000" font-family="sans-serif" font-size="13" lengthAdjust="spacing" textLength="23" x="341" y="124.0669">has</text><text fill="#000000" font-family="sans-serif" font-size="13" lengthAdjust="spacing" textLength="8" x="331.3625" y="100.5961">1</text><text fill="#000000" font-family="sans-serif" font-size="13" lengthAdjust="spacing" textLength="8" x="331.3625" y="146.8221">1</text><!--MD5=[0226f55439608f4074d0479680a3b4ff]
reverse link ShipDynamic to Ship--><path codeLine="39" d="M453.594,542.952 C457.058,534.814 460.042,526.343 462,518 C482.051,432.576 483.721,401.584 449,321 C436.362,291.668 413.364,264.862 391.74,244.148 " fill="none" id="ShipDynamic-backto-Ship" style="stroke:#A80036;stroke-width:1.0;stroke-dasharray:7.0,7.0;"/><polygon fill="#A80036" points="451.381,547.973,458.6723,541.3521,453.3984,543.3981,451.3524,538.1242,451.381,547.973" style="stroke:#A80036;stroke-width:1.0;"/><!--MD5=[e2ed64465c9831239d403168c398b68f]
link TravelRoute to ShipDynamic--><path codeLine="40" d="M365.756,471.003 C376.664,494.917 388.539,520.951 398.631,543.076 " fill="none" id="TravelRoute-to-ShipDynamic" style="stroke:#A80036;stroke-width:1.0;"/><polygon fill="#A80036" points="400.757,547.7362,400.6621,537.8878,398.6824,543.1869,393.3833,541.2072,400.757,547.7362" style="stroke:#A80036;stroke-width:1.0;"/><text fill="#000000" font-family="sans-serif" font-size="13" lengthAdjust="spacing" textLength="68" x="387" y="514.0669">is made of</text><text fill="#000000" font-family="sans-serif" font-size="13" lengthAdjust="spacing" textLength="8" x="360.8246" y="491.5623">1</text><text fill="#000000" font-family="sans-serif" font-size="13" lengthAdjust="spacing" textLength="27" x="368.954" y="537.1023">1...*</text><!--MD5=[4f52e55f420179ec4c07ea165462b018]
reverse link Ship to ShipStore--><path codeLine="41" d="M286.881,247.564 C249.657,279.494 200.274,321.854 163.994,352.974 " fill="none" id="Ship-backto-ShipStore" style="stroke:#A80036;stroke-width:1.0;"/><polygon fill="#A80036" points="290.901,244.116,281.4655,246.9393,287.1058,247.3713,286.6739,253.0116,290.901,244.116" style="stroke:#A80036;stroke-width:1.0;"/><text fill="#000000" font-family="sans-serif" font-size="13" lengthAdjust="spacing" textLength="54" x="256" y="287.0669">contains</text><text fill="#000000" font-family="sans-serif" font-size="13" lengthAdjust="spacing" textLength="23" x="257.8643" y="264.5429">1..*</text><text fill="#000000" font-family="sans-serif" font-size="13" lengthAdjust="spacing" textLength="8" x="163.1649" y="341.9659">1</text><!--MD5=[cb97917a050364a9e61bb1dafdda5721]
reverse link ShipPairList to ShipStore--><path codeLine="42" d="M112.643,243.373 C113.145,275.656 113.839,320.324 114.344,352.813 " fill="none" id="ShipPairList-backto-ShipStore" style="stroke:#A80036;stroke-width:1.0;stroke-dasharray:7.0,7.0;"/><polygon fill="#A80036" points="112.564,238.302,108.7033,247.3626,112.6411,243.3014,116.7024,247.2392,112.564,238.302" style="stroke:#A80036;stroke-width:1.0;"/><!--MD5=[9607efa78d320c663e8145a7bc415a00]
@startuml
skinparam classAttributeIconSize 0
class Ship {
-List<TravelRoute> listRoute
+getLastRoute()
+isCloseTo(Ship ship)
}
class ShipPairList{
-List<Pair<Ship,Ship>> shipPairList
+ShipPairList(List <Ship> lShips)
}
class Identification{
-String MMSI
+getMMSI()

}
class ShipDynamic{
-double latitude
-double longitude
+getLatitude()
+getLongitude()
}
class TravelRoute{
-Port arrivalPort
-Port DeparturePort
-List<ShipDynamic> listDynamic
+getDepartureLongitude()
+getDepartureLatitude()
+getArrivalLongitude()
+getArrivalLatitude()
+getTravelledDistance()
}
Class ShipStore{
-List<Ship> listShip
+getCloseShipPairs()
+createCloseShipPairList()
}
Ship "1" - -> "1..*" TravelRoute : owns
Identification "1" <- - "1" Ship :has
ShipDynamic <.. Ship
TravelRoute "1" - -> "1...*" ShipDynamic : is made of
Ship "1..*" <- - "1" ShipStore : contains
ShipPairList <.. ShipStore
@enduml

PlantUML version 1.2021.13beta8(Unknown compile time)
(GPL source distribution)
Java Runtime: Java(TM) SE Runtime Environment
JVM: Java HotSpot(TM) 64-Bit Server VM
Default Encoding: UTF-8
Language: en
Country: US
--></g></svg>