<?xml version="1.0" encoding="UTF-8" standalone="no"?><svg xmlns="http://www.w3.org/2000/svg" xmlns:xlink="http://www.w3.org/1999/xlink" contentScriptType="application/ecmascript" contentStyleType="text/css" height="649px" preserveAspectRatio="none" style="width:609px;height:649px;background:#FFFFFF;" version="1.1" viewBox="0 0 609 649" width="609px" zoomAndPan="magnify"><defs><filter height="300%" id="f1l6rj1z3xna2z" width="300%" x="-1" y="-1"><feGaussianBlur result="blurOut" stdDeviation="2.0"/><feColorMatrix in="blurOut" result="blurOut2" type="matrix" values="0 0 0 0 0 0 0 0 0 0 0 0 0 0 0 0 0 0 .4 0"/><feOffset dx="4.0" dy="4.0" in="blurOut2" result="blurOut3"/><feBlend in="SourceGraphic" in2="blurOut3" mode="normal"/></filter></defs><g><!--MD5=[0dc7f2ddb409b58bcf52b12238c25399]
class Ship--><rect codeLine="2" fill="#FEFECE" filter="url(#f1l6rj1z3xna2z)" height="112.0234" id="Ship" style="stroke:#A80036;stroke-width:1.5;" width="261" x="334.5" y="164.5"/><ellipse cx="447.75" cy="180.5" fill="#ADD1B2" rx="11" ry="11" style="stroke:#A80036;stroke-width:1.0;"/><path d="M450.0938,176.1719 C449.1563,175.7344 448.5625,175.5938 447.6875,175.5938 C445.0625,175.5938 443.0625,177.6719 443.0625,180.3906 L443.0625,181.5156 C443.0625,184.0938 445.1719,185.9844 448.0625,185.9844 C449.2813,185.9844 450.4375,185.6875 451.1875,185.1406 C451.7656,184.7344 452.0938,184.2813 452.0938,183.8906 C452.0938,183.4375 451.7031,183.0469 451.2344,183.0469 C451.0156,183.0469 450.8125,183.125 450.625,183.3125 C450.1719,183.7969 450.1719,183.7969 449.9844,183.8906 C449.5625,184.1563 448.875,184.2813 448.1094,184.2813 C446.0625,184.2813 444.7656,183.1875 444.7656,181.4844 L444.7656,180.3906 C444.7656,178.6094 446.0156,177.2969 447.75,177.2969 C448.3281,177.2969 448.9375,177.4531 449.4063,177.7031 C449.8906,177.9844 450.0625,178.2031 450.1563,178.6094 C450.2188,179.0156 450.25,179.1406 450.3906,179.2656 C450.5313,179.4063 450.7656,179.5156 450.9844,179.5156 C451.25,179.5156 451.5156,179.375 451.6875,179.1563 C451.7969,179 451.8281,178.8125 451.8281,178.3906 L451.8281,176.9688 C451.8281,176.5313 451.8125,176.4063 451.7188,176.25 C451.5625,175.9844 451.2813,175.8438 450.9844,175.8438 C450.6875,175.8438 450.4844,175.9375 450.2656,176.25 L450.0938,176.1719 Z " fill="#000000"/><text fill="#000000" font-family="sans-serif" font-size="12" lengthAdjust="spacing" textLength="26" x="468.25" y="184.6543">Ship</text><line style="stroke:#A80036;stroke-width:1.5;" x1="335.5" x2="594.5" y1="196.5" y2="196.5"/><text fill="#000000" font-family="sans-serif" font-size="11" lengthAdjust="spacing" textLength="163" x="340.5" y="210.7104">-List&lt;TravelRoute&gt; listRoute</text><line style="stroke:#A80036;stroke-width:1.5;" x1="335.5" x2="594.5" y1="217.3047" y2="217.3047"/><text fill="#000000" font-family="sans-serif" font-size="11" lengthAdjust="spacing" textLength="92" x="340.5" y="231.5151">+getLastRoute()</text><text fill="#000000" font-family="sans-serif" font-size="11" lengthAdjust="spacing" textLength="124" x="340.5" y="244.3198">+isCloseTo(Ship ship)</text><text fill="#000000" font-family="sans-serif" font-size="11" lengthAdjust="spacing" textLength="140" x="340.5" y="257.1245">+getTravelledDistance()</text><text fill="#000000" font-family="sans-serif" font-size="11" lengthAdjust="spacing" textLength="249" x="340.5" y="269.9292">+getTravelledDistanceDiference(Ship ship)</text><!--MD5=[447cff7a409c74219461559500508d7e]
class ShipPairList--><rect codeLine="9" fill="#FEFECE" filter="url(#f1l6rj1z3xna2z)" height="124.8281" id="ShipPairList" style="stroke:#A80036;stroke-width:1.5;" width="229" x="70.5" y="158"/><ellipse cx="147.25" cy="174" fill="#ADD1B2" rx="11" ry="11" style="stroke:#A80036;stroke-width:1.0;"/><path d="M149.5938,169.6719 C148.6563,169.2344 148.0625,169.0938 147.1875,169.0938 C144.5625,169.0938 142.5625,171.1719 142.5625,173.8906 L142.5625,175.0156 C142.5625,177.5938 144.6719,179.4844 147.5625,179.4844 C148.7813,179.4844 149.9375,179.1875 150.6875,178.6406 C151.2656,178.2344 151.5938,177.7813 151.5938,177.3906 C151.5938,176.9375 151.2031,176.5469 150.7344,176.5469 C150.5156,176.5469 150.3125,176.625 150.125,176.8125 C149.6719,177.2969 149.6719,177.2969 149.4844,177.3906 C149.0625,177.6563 148.375,177.7813 147.6094,177.7813 C145.5625,177.7813 144.2656,176.6875 144.2656,174.9844 L144.2656,173.8906 C144.2656,172.1094 145.5156,170.7969 147.25,170.7969 C147.8281,170.7969 148.4375,170.9531 148.9063,171.2031 C149.3906,171.4844 149.5625,171.7031 149.6563,172.1094 C149.7188,172.5156 149.75,172.6406 149.8906,172.7656 C150.0313,172.9063 150.2656,173.0156 150.4844,173.0156 C150.75,173.0156 151.0156,172.875 151.1875,172.6563 C151.2969,172.5 151.3281,172.3125 151.3281,171.8906 L151.3281,170.4688 C151.3281,170.0313 151.3125,169.9063 151.2188,169.75 C151.0625,169.4844 150.7813,169.3438 150.4844,169.3438 C150.1875,169.3438 149.9844,169.4375 149.7656,169.75 L149.5938,169.6719 Z " fill="#000000"/><text fill="#000000" font-family="sans-serif" font-size="12" lengthAdjust="spacing" textLength="67" x="167.75" y="178.1543">ShipPairList</text><line style="stroke:#A80036;stroke-width:1.5;" x1="71.5" x2="298.5" y1="190" y2="190"/><text fill="#000000" font-family="sans-serif" font-size="11" lengthAdjust="spacing" textLength="198" x="76.5" y="204.2104">-List&lt;Pair&lt;Ship,Ship&gt;&gt; shipPairList</text><text fill="#000000" font-family="sans-serif" font-size="11" lengthAdjust="spacing" textLength="217" x="76.5" y="217.0151">-List&lt;Double&gt; travelledDifferenceList</text><line style="stroke:#A80036;stroke-width:1.5;" x1="71.5" x2="298.5" y1="223.6094" y2="223.6094"/><text fill="#000000" font-family="sans-serif" font-size="11" lengthAdjust="spacing" textLength="185" x="76.5" y="237.8198">+ShipPairList(List &lt;Ship&gt; lShips)</text><text fill="#000000" font-family="sans-serif" font-size="11" lengthAdjust="spacing" textLength="100" x="76.5" y="250.6245">+getShipPairList()</text><text fill="#000000" font-family="sans-serif" font-size="11" lengthAdjust="spacing" textLength="170" x="76.5" y="263.4292">+getTravelledDifferenceList()</text><text fill="#000000" font-family="sans-serif" font-size="11" lengthAdjust="spacing" textLength="145" x="76.5" y="276.2339">+privateSortingMethods()</text><!--MD5=[82dc263f563d227779ba81db65b2fd4d]
class Identification--><rect codeLine="17" fill="#FEFECE" filter="url(#f1l6rj1z3xna2z)" height="73.6094" id="Identification" style="stroke:#A80036;stroke-width:1.5;" width="108" x="411" y="7"/><ellipse cx="426" cy="23" fill="#ADD1B2" rx="11" ry="11" style="stroke:#A80036;stroke-width:1.0;"/><path d="M428.3438,18.6719 C427.4063,18.2344 426.8125,18.0938 425.9375,18.0938 C423.3125,18.0938 421.3125,20.1719 421.3125,22.8906 L421.3125,24.0156 C421.3125,26.5938 423.4219,28.4844 426.3125,28.4844 C427.5313,28.4844 428.6875,28.1875 429.4375,27.6406 C430.0156,27.2344 430.3438,26.7813 430.3438,26.3906 C430.3438,25.9375 429.9531,25.5469 429.4844,25.5469 C429.2656,25.5469 429.0625,25.625 428.875,25.8125 C428.4219,26.2969 428.4219,26.2969 428.2344,26.3906 C427.8125,26.6563 427.125,26.7813 426.3594,26.7813 C424.3125,26.7813 423.0156,25.6875 423.0156,23.9844 L423.0156,22.8906 C423.0156,21.1094 424.2656,19.7969 426,19.7969 C426.5781,19.7969 427.1875,19.9531 427.6563,20.2031 C428.1406,20.4844 428.3125,20.7031 428.4063,21.1094 C428.4688,21.5156 428.5,21.6406 428.6406,21.7656 C428.7813,21.9063 429.0156,22.0156 429.2344,22.0156 C429.5,22.0156 429.7656,21.875 429.9375,21.6563 C430.0469,21.5 430.0781,21.3125 430.0781,20.8906 L430.0781,19.4688 C430.0781,19.0313 430.0625,18.9063 429.9688,18.75 C429.8125,18.4844 429.5313,18.3438 429.2344,18.3438 C428.9375,18.3438 428.7344,18.4375 428.5156,18.75 L428.3438,18.6719 Z " fill="#000000"/><text fill="#000000" font-family="sans-serif" font-size="12" lengthAdjust="spacing" textLength="76" x="440" y="27.1543">Identification</text><line style="stroke:#A80036;stroke-width:1.5;" x1="412" x2="518" y1="39" y2="39"/><text fill="#000000" font-family="sans-serif" font-size="11" lengthAdjust="spacing" textLength="70" x="417" y="53.2104">-String MMSI</text><line style="stroke:#A80036;stroke-width:1.5;" x1="412" x2="518" y1="59.8047" y2="59.8047"/><text fill="#000000" font-family="sans-serif" font-size="11" lengthAdjust="spacing" textLength="65" x="417" y="74.0151">+getMMSI()</text><!--MD5=[19c2b9eb46691e25b02426140995a460]
class ShipDynamic--><rect codeLine="21" fill="#FEFECE" filter="url(#f1l6rj1z3xna2z)" height="73.6094" id="ShipDynamic" style="stroke:#A80036;stroke-width:1.5;" width="109" x="365.5" y="562"/><ellipse cx="380.5" cy="578" fill="#ADD1B2" rx="11" ry="11" style="stroke:#A80036;stroke-width:1.0;"/><path d="M382.8438,573.6719 C381.9063,573.2344 381.3125,573.0938 380.4375,573.0938 C377.8125,573.0938 375.8125,575.1719 375.8125,577.8906 L375.8125,579.0156 C375.8125,581.5938 377.9219,583.4844 380.8125,583.4844 C382.0313,583.4844 383.1875,583.1875 383.9375,582.6406 C384.5156,582.2344 384.8438,581.7813 384.8438,581.3906 C384.8438,580.9375 384.4531,580.5469 383.9844,580.5469 C383.7656,580.5469 383.5625,580.625 383.375,580.8125 C382.9219,581.2969 382.9219,581.2969 382.7344,581.3906 C382.3125,581.6563 381.625,581.7813 380.8594,581.7813 C378.8125,581.7813 377.5156,580.6875 377.5156,578.9844 L377.5156,577.8906 C377.5156,576.1094 378.7656,574.7969 380.5,574.7969 C381.0781,574.7969 381.6875,574.9531 382.1563,575.2031 C382.6406,575.4844 382.8125,575.7031 382.9063,576.1094 C382.9688,576.5156 383,576.6406 383.1406,576.7656 C383.2813,576.9063 383.5156,577.0156 383.7344,577.0156 C384,577.0156 384.2656,576.875 384.4375,576.6563 C384.5469,576.5 384.5781,576.3125 384.5781,575.8906 L384.5781,574.4688 C384.5781,574.0313 384.5625,573.9063 384.4688,573.75 C384.3125,573.4844 384.0313,573.3438 383.7344,573.3438 C383.4375,573.3438 383.2344,573.4375 383.0156,573.75 L382.8438,573.6719 Z " fill="#000000"/><text fill="#000000" font-family="sans-serif" font-size="12" lengthAdjust="spacing" textLength="77" x="394.5" y="582.1543">ShipDynamic</text><line style="stroke:#A80036;stroke-width:1.5;" x1="366.5" x2="473.5" y1="594" y2="594"/><text fill="#000000" font-family="sans-serif" font-size="11" lengthAdjust="spacing" textLength="51" x="371.5" y="608.2104">-Location</text><line style="stroke:#A80036;stroke-width:1.5;" x1="366.5" x2="473.5" y1="614.8047" y2="614.8047"/><text fill="#000000" font-family="sans-serif" font-size="11" lengthAdjust="spacing" textLength="78" x="371.5" y="629.0151">-getLocation()</text><!--MD5=[4f1f3706c1a355a8488e154afcaed5df]
class Location--><rect codeLine="25" fill="#FEFECE" filter="url(#f1l6rj1z3xna2z)" height="99.2188" id="Location" style="stroke:#A80036;stroke-width:1.5;" width="112" x="7" y="373"/><ellipse cx="35.5" cy="389" fill="#ADD1B2" rx="11" ry="11" style="stroke:#A80036;stroke-width:1.0;"/><path d="M37.8438,384.6719 C36.9063,384.2344 36.3125,384.0938 35.4375,384.0938 C32.8125,384.0938 30.8125,386.1719 30.8125,388.8906 L30.8125,390.0156 C30.8125,392.5938 32.9219,394.4844 35.8125,394.4844 C37.0313,394.4844 38.1875,394.1875 38.9375,393.6406 C39.5156,393.2344 39.8438,392.7813 39.8438,392.3906 C39.8438,391.9375 39.4531,391.5469 38.9844,391.5469 C38.7656,391.5469 38.5625,391.625 38.375,391.8125 C37.9219,392.2969 37.9219,392.2969 37.7344,392.3906 C37.3125,392.6563 36.625,392.7813 35.8594,392.7813 C33.8125,392.7813 32.5156,391.6875 32.5156,389.9844 L32.5156,388.8906 C32.5156,387.1094 33.7656,385.7969 35.5,385.7969 C36.0781,385.7969 36.6875,385.9531 37.1563,386.2031 C37.6406,386.4844 37.8125,386.7031 37.9063,387.1094 C37.9688,387.5156 38,387.6406 38.1406,387.7656 C38.2813,387.9063 38.5156,388.0156 38.7344,388.0156 C39,388.0156 39.2656,387.875 39.4375,387.6563 C39.5469,387.5 39.5781,387.3125 39.5781,386.8906 L39.5781,385.4688 C39.5781,385.0313 39.5625,384.9063 39.4688,384.75 C39.3125,384.4844 39.0313,384.3438 38.7344,384.3438 C38.4375,384.3438 38.2344,384.4375 38.0156,384.75 L37.8438,384.6719 Z " fill="#000000"/><text fill="#000000" font-family="sans-serif" font-size="12" lengthAdjust="spacing" textLength="50" x="52.5" y="393.1543">Location</text><line style="stroke:#A80036;stroke-width:1.5;" x1="8" x2="118" y1="405" y2="405"/><text fill="#000000" font-family="sans-serif" font-size="11" lengthAdjust="spacing" textLength="90" x="13" y="419.2104">-double latitude</text><text fill="#000000" font-family="sans-serif" font-size="11" lengthAdjust="spacing" textLength="100" x="13" y="432.0151">-double longitude</text><line style="stroke:#A80036;stroke-width:1.5;" x1="8" x2="118" y1="438.6094" y2="438.6094"/><text fill="#000000" font-family="sans-serif" font-size="11" lengthAdjust="spacing" textLength="82" x="13" y="452.8198">+getLatitude()</text><text fill="#000000" font-family="sans-serif" font-size="11" lengthAdjust="spacing" textLength="92" x="13" y="465.6245">+getLongitude()</text><!--MD5=[7ef77df97ff4d7d522fabd56ee10ec47]
class TravelRoute--><rect codeLine="31" fill="#FEFECE" filter="url(#f1l6rj1z3xna2z)" height="124.8281" id="TravelRoute" style="stroke:#A80036;stroke-width:1.5;" width="198" x="321" y="360"/><ellipse cx="380.25" cy="376" fill="#ADD1B2" rx="11" ry="11" style="stroke:#A80036;stroke-width:1.0;"/><path d="M382.5938,371.6719 C381.6563,371.2344 381.0625,371.0938 380.1875,371.0938 C377.5625,371.0938 375.5625,373.1719 375.5625,375.8906 L375.5625,377.0156 C375.5625,379.5938 377.6719,381.4844 380.5625,381.4844 C381.7813,381.4844 382.9375,381.1875 383.6875,380.6406 C384.2656,380.2344 384.5938,379.7813 384.5938,379.3906 C384.5938,378.9375 384.2031,378.5469 383.7344,378.5469 C383.5156,378.5469 383.3125,378.625 383.125,378.8125 C382.6719,379.2969 382.6719,379.2969 382.4844,379.3906 C382.0625,379.6563 381.375,379.7813 380.6094,379.7813 C378.5625,379.7813 377.2656,378.6875 377.2656,376.9844 L377.2656,375.8906 C377.2656,374.1094 378.5156,372.7969 380.25,372.7969 C380.8281,372.7969 381.4375,372.9531 381.9063,373.2031 C382.3906,373.4844 382.5625,373.7031 382.6563,374.1094 C382.7188,374.5156 382.75,374.6406 382.8906,374.7656 C383.0313,374.9063 383.2656,375.0156 383.4844,375.0156 C383.75,375.0156 384.0156,374.875 384.1875,374.6563 C384.2969,374.5 384.3281,374.3125 384.3281,373.8906 L384.3281,372.4688 C384.3281,372.0313 384.3125,371.9063 384.2188,371.75 C384.0625,371.4844 383.7813,371.3438 383.4844,371.3438 C383.1875,371.3438 382.9844,371.4375 382.7656,371.75 L382.5938,371.6719 Z " fill="#000000"/><text fill="#000000" font-family="sans-serif" font-size="12" lengthAdjust="spacing" textLength="71" x="400.75" y="380.1543">TravelRoute</text><line style="stroke:#A80036;stroke-width:1.5;" x1="322" x2="518" y1="392" y2="392"/><text fill="#000000" font-family="sans-serif" font-size="11" lengthAdjust="spacing" textLength="186" x="327" y="406.2104">-List&lt;ShipDynamic&gt; listDynamic</text><line style="stroke:#A80036;stroke-width:1.5;" x1="322" x2="518" y1="412.8047" y2="412.8047"/><text fill="#000000" font-family="sans-serif" font-size="11" lengthAdjust="spacing" textLength="150" x="327" y="427.0151">+getDepartureLongitude()</text><text fill="#000000" font-family="sans-serif" font-size="11" lengthAdjust="spacing" textLength="140" x="327" y="439.8198">+getDepartureLatitude()</text><text fill="#000000" font-family="sans-serif" font-size="11" lengthAdjust="spacing" textLength="128" x="327" y="452.6245">+getArrivalLongitude()</text><text fill="#000000" font-family="sans-serif" font-size="11" lengthAdjust="spacing" textLength="118" x="327" y="465.4292">+getArrivalLatitude()</text><text fill="#000000" font-family="sans-serif" font-size="11" lengthAdjust="spacing" textLength="140" x="327" y="478.2339">+getTravelledDistance()</text><!--MD5=[ea2206eefe09474e90beb17e18e6b3d8]
class ShipStore--><rect codeLine="39" fill="#FEFECE" filter="url(#f1l6rj1z3xna2z)" height="73.6094" id="ShipStore" style="stroke:#A80036;stroke-width:1.5;" width="131" x="154.5" y="385.5"/><ellipse cx="187.5" cy="401.5" fill="#ADD1B2" rx="11" ry="11" style="stroke:#A80036;stroke-width:1.0;"/><path d="M189.8438,397.1719 C188.9063,396.7344 188.3125,396.5938 187.4375,396.5938 C184.8125,396.5938 182.8125,398.6719 182.8125,401.3906 L182.8125,402.5156 C182.8125,405.0938 184.9219,406.9844 187.8125,406.9844 C189.0313,406.9844 190.1875,406.6875 190.9375,406.1406 C191.5156,405.7344 191.8438,405.2813 191.8438,404.8906 C191.8438,404.4375 191.4531,404.0469 190.9844,404.0469 C190.7656,404.0469 190.5625,404.125 190.375,404.3125 C189.9219,404.7969 189.9219,404.7969 189.7344,404.8906 C189.3125,405.1563 188.625,405.2813 187.8594,405.2813 C185.8125,405.2813 184.5156,404.1875 184.5156,402.4844 L184.5156,401.3906 C184.5156,399.6094 185.7656,398.2969 187.5,398.2969 C188.0781,398.2969 188.6875,398.4531 189.1563,398.7031 C189.6406,398.9844 189.8125,399.2031 189.9063,399.6094 C189.9688,400.0156 190,400.1406 190.1406,400.2656 C190.2813,400.4063 190.5156,400.5156 190.7344,400.5156 C191,400.5156 191.2656,400.375 191.4375,400.1563 C191.5469,400 191.5781,399.8125 191.5781,399.3906 L191.5781,397.9688 C191.5781,397.5313 191.5625,397.4063 191.4688,397.25 C191.3125,396.9844 191.0313,396.8438 190.7344,396.8438 C190.4375,396.8438 190.2344,396.9375 190.0156,397.25 L189.8438,397.1719 Z " fill="#000000"/><text fill="#000000" font-family="sans-serif" font-size="12" lengthAdjust="spacing" textLength="59" x="205.5" y="405.6543">ShipStore</text><line style="stroke:#A80036;stroke-width:1.5;" x1="155.5" x2="284.5" y1="417.5" y2="417.5"/><line style="stroke:#A80036;stroke-width:1.5;" x1="155.5" x2="284.5" y1="425.5" y2="425.5"/><text fill="#000000" font-family="sans-serif" font-size="11" lengthAdjust="spacing" textLength="110" x="160.5" y="439.7104">-AVL&lt;Ship&gt; store()</text><text fill="#000000" font-family="sans-serif" font-size="11" lengthAdjust="spacing" textLength="119" x="160.5" y="452.5151">+getCloseShipPairs()</text><!--MD5=[5628a0158f573ba8ed032f181d09a249]
link Ship to TravelRoute--><path codeLine="43" d="M452.584,276.68 C447.146,300.853 440.716,329.43 435.011,354.786 " fill="none" id="Ship-to-TravelRoute" style="stroke:#A80036;stroke-width:1.0;"/><polygon fill="#A80036" points="433.88,359.811,439.7572,351.9079,434.9771,354.9328,431.9522,350.1527,433.88,359.811" style="stroke:#A80036;stroke-width:1.0;"/><text fill="#000000" font-family="sans-serif" font-size="13" lengthAdjust="spacing" textLength="34" x="444" y="326.0669">owns</text><text fill="#000000" font-family="sans-serif" font-size="13" lengthAdjust="spacing" textLength="8" x="442.5833" y="296.5146">1</text><text fill="#000000" font-family="sans-serif" font-size="13" lengthAdjust="spacing" textLength="23" x="411.1552" y="348.7799">1..*</text><!--MD5=[c6b57f6c5473ae80747685112aa606f1]
reverse link Identification to Ship--><path codeLine="44" d="M465,86.346 C465,109.7 465,139.189 465,164.476 " fill="none" id="Identification-backto-Ship" style="stroke:#A80036;stroke-width:1.0;"/><polygon fill="#A80036" points="465,81.157,461,90.157,465,86.157,469,90.157,465,81.157" style="stroke:#A80036;stroke-width:1.0;"/><text fill="#000000" font-family="sans-serif" font-size="13" lengthAdjust="spacing" textLength="23" x="466" y="124.0669">has</text><text fill="#000000" font-family="sans-serif" font-size="13" lengthAdjust="spacing" textLength="8" x="456.3375" y="100.6636">1</text><text fill="#000000" font-family="sans-serif" font-size="13" lengthAdjust="spacing" textLength="8" x="456.4875" y="153.4109">1</text><!--MD5=[0226f55439608f4074d0479680a3b4ff]
reverse link ShipDynamic to Ship--><path codeLine="45" d="M478.619,559.6933 C502.118,540.5344 526.172,515.007 537,485 C555.858,432.743 550.19,413.967 537,360 C529.89,330.911 515.504,301.129 501.447,276.673 " fill="none" id="ShipDynamic-backto-Ship" style="stroke:#A80036;stroke-width:1.0;stroke-dasharray:7.0,7.0;"/><polygon fill="#A80036" points="474.549,562.9541,484.074,560.4494,478.4514,559.8282,479.0726,554.2055,474.549,562.9541" style="stroke:#A80036;stroke-width:1.0;"/><!--MD5=[e2ed64465c9831239d403168c398b68f]
link TravelRoute to ShipDynamic--><path codeLine="46" d="M420,485.022 C420,508.823 420,535.428 420,556.8396 " fill="none" id="TravelRoute-to-ShipDynamic" style="stroke:#A80036;stroke-width:1.0;"/><polygon fill="#A80036" points="420,561.8848,424,552.8848,420,556.8848,416,552.8848,420,561.8848" style="stroke:#A80036;stroke-width:1.0;"/><text fill="#000000" font-family="sans-serif" font-size="13" lengthAdjust="spacing" textLength="68" x="421" y="528.0669">is made of</text><text fill="#000000" font-family="sans-serif" font-size="13" lengthAdjust="spacing" textLength="8" x="411.5625" y="504.7642">1</text><text fill="#000000" font-family="sans-serif" font-size="13" lengthAdjust="spacing" textLength="27" x="390.5953" y="551.0512">1...*</text><!--MD5=[4f52e55f420179ec4c07ea165462b018]
reverse link Ship to ShipStore--><path codeLine="47" d="M393.389,279.958 C351.579,314.089 300.15,356.072 264.204,385.415 " fill="none" id="Ship-backto-ShipStore" style="stroke:#A80036;stroke-width:1.0;"/><polygon fill="#A80036" points="397.404,276.68,387.9025,279.2726,393.5307,279.8418,392.9614,285.47,397.404,276.68" style="stroke:#A80036;stroke-width:1.0;"/><text fill="#000000" font-family="sans-serif" font-size="13" lengthAdjust="spacing" textLength="54" x="350" y="326.0669">contains</text><text fill="#000000" font-family="sans-serif" font-size="13" lengthAdjust="spacing" textLength="23" x="364.7642" y="296.5146">1..*</text><text fill="#000000" font-family="sans-serif" font-size="13" lengthAdjust="spacing" textLength="8" x="263.6166" y="374.3098">1</text><!--MD5=[cb97917a050364a9e61bb1dafdda5721]
reverse link ShipPairList to ShipStore--><path codeLine="48" d="M196.689,288.294 C202.362,320.714 208.955,358.387 213.679,385.379 " fill="none" id="ShipPairList-backto-ShipStore" style="stroke:#A80036;stroke-width:1.0;stroke-dasharray:7.0,7.0;"/><polygon fill="#A80036" points="195.787,283.139,193.3972,292.6935,196.6483,288.0642,201.2776,291.3154,195.787,283.139" style="stroke:#A80036;stroke-width:1.0;"/><!--MD5=[9fd428a0fc0dfd43080d9a3c2ab7f29d]
reverse link Location to ShipDynamic--><path codeLine="49" d="M121.928,475.136 C126.896,478.66 131.953,481.997 137,485 C211.452,529.291 306.447,563.1544 365.243,581.8088 " fill="none" id="Location-backto-ShipDynamic" style="stroke:#A80036;stroke-width:1.0;"/><polygon fill="#A80036" points="117.778,472.135,122.7267,480.6503,121.8295,475.0651,127.4148,474.1679,117.778,472.135" style="stroke:#A80036;stroke-width:1.0;"/><text fill="#000000" font-family="sans-serif" font-size="13" lengthAdjust="spacing" textLength="23" x="228" y="528.0669">has</text><text fill="#000000" font-family="sans-serif" font-size="13" lengthAdjust="spacing" textLength="8" x="116.9187" y="492.2305">1</text><text fill="#000000" font-family="sans-serif" font-size="13" lengthAdjust="spacing" textLength="8" x="349.3475" y="575.593">1</text><!--MD5=[c81d95b1788e82d118317da9b48e380c]
@startuml
skinparam classAttributeIconSize 0
class Ship {
-List<TravelRoute> listRoute
+getLastRoute()
+isCloseTo(Ship ship)
+getTravelledDistance()
+getTravelledDistanceDiference(Ship ship)
}
class ShipPairList{
-List<Pair<Ship,Ship>> shipPairList
-List<Double> travelledDifferenceList
+ShipPairList(List <Ship> lShips)
+getShipPairList()
+getTravelledDifferenceList()
+privateSortingMethods()
}
class Identification{
-String MMSI
+getMMSI()
}
class ShipDynamic{
-Location
-getLocation()
}
class Location{
-double latitude
-double longitude
+getLatitude()
+getLongitude()
} 
class TravelRoute{
-List<ShipDynamic> listDynamic
+getDepartureLongitude()
+getDepartureLatitude()
+getArrivalLongitude()
+getArrivalLatitude()
+getTravelledDistance()
}
Class ShipStore{
-AVL<Ship> store()
+getCloseShipPairs()
}
Ship "1" - -> "1..*" TravelRoute : owns
Identification "1" <- - "1" Ship :has
ShipDynamic <.. Ship
TravelRoute "1" - -> "1...*" ShipDynamic : is made of
Ship "1..*" <- - "1" ShipStore : contains
ShipPairList <.. ShipStore
Location "1" <- - "1" ShipDynamic :has
@enduml

PlantUML version 1.2021.14(Fri Nov 12 16:46:50 UTC 2021)
(GPL source distribution)
Java Runtime: Java(TM) SE Runtime Environment
JVM: Java HotSpot(TM) 64-Bit Server VM
Default Encoding: UTF-8
Language: en
Country: US
--></g></svg>