<?xml version="1.0" encoding="UTF-8" standalone="no"?><svg xmlns="http://www.w3.org/2000/svg" xmlns:xlink="http://www.w3.org/1999/xlink" contentScriptType="application/ecmascript" contentStyleType="text/css" height="821px" preserveAspectRatio="none" style="width:1309px;height:821px;background:#FFFFFF;" version="1.1" viewBox="0 0 1309 821" width="1309px" zoomAndPan="magnify"><defs><filter height="300%" id="f1oddnwvrf4pvl" width="300%" x="-1" y="-1"><feGaussianBlur result="blurOut" stdDeviation="2.0"/><feColorMatrix in="blurOut" result="blurOut2" type="matrix" values="0 0 0 0 0 0 0 0 0 0 0 0 0 0 0 0 0 0 .4 0"/><feOffset dx="4.0" dy="4.0" in="blurOut2" result="blurOut3"/><feBlend in="SourceGraphic" in2="blurOut3" mode="normal"/></filter></defs><g><rect fill="#FFFFFF" filter="url(#f1oddnwvrf4pvl)" height="630.125" style="stroke:#A80036;stroke-width:1.0;" width="10" x="59" y="98.2969"/><rect fill="#FFFFFF" filter="url(#f1oddnwvrf4pvl)" height="599.9922" style="stroke:#A80036;stroke-width:1.0;" width="10" x="274" y="119.4297"/><rect fill="#FFFFFF" filter="url(#f1oddnwvrf4pvl)" height="426.4609" style="stroke:#A80036;stroke-width:1.0;" width="10" x="459" y="148.5625"/><rect fill="#FFFFFF" filter="url(#f1oddnwvrf4pvl)" height="28" style="stroke:#A80036;stroke-width:1.0;" width="10" x="464" y="185.6953"/><rect fill="#FFFFFF" filter="url(#f1oddnwvrf4pvl)" height="301.0625" style="stroke:#A80036;stroke-width:1.0;" width="10" x="640" y="273.9609"/><rect fill="#FFFFFF" filter="url(#f1oddnwvrf4pvl)" height="28" style="stroke:#A80036;stroke-width:1.0;" width="10" x="645" y="364.3594"/><rect fill="#FFFFFF" filter="url(#f1oddnwvrf4pvl)" height="87.3984" style="stroke:#A80036;stroke-width:1.0;" width="10" x="901" y="428.4922"/><rect fill="#FFFFFF" filter="url(#f1oddnwvrf4pvl)" height="145.2656" style="stroke:#A80036;stroke-width:1.0;" width="10" x="1150" y="545.0234"/><rect fill="#FFFFFF" filter="url(#f1oddnwvrf4pvl)" height="28" style="stroke:#A80036;stroke-width:1.0;" width="10" x="1155" y="626.1563"/><rect fill="#FFFFFF" filter="url(#f1oddnwvrf4pvl)" height="354.3281" style="stroke:#000000;stroke-width:2.0;" width="822.5" x="406.5" y="235.6953"/><rect fill="#FFFFFF" filter="url(#f1oddnwvrf4pvl)" height="264.9297" style="stroke:#000000;stroke-width:2.0;" width="611.5" x="607.5" y="318.0938"/><line style="stroke:#A80036;stroke-width:1.0;stroke-dasharray:5.0,5.0;" x1="64" x2="64" y1="88.2969" y2="737.4219"/><line style="stroke:#A80036;stroke-width:1.0;stroke-dasharray:5.0,5.0;" x1="279" x2="279" y1="88.2969" y2="737.4219"/><line style="stroke:#A80036;stroke-width:1.0;stroke-dasharray:5.0,5.0;" x1="463.5" x2="463.5" y1="88.2969" y2="737.4219"/><line style="stroke:#A80036;stroke-width:1.0;stroke-dasharray:5.0,5.0;" x1="644.5" x2="644.5" y1="88.2969" y2="737.4219"/><line style="stroke:#A80036;stroke-width:1.0;stroke-dasharray:5.0,5.0;" x1="906" x2="906" y1="88.2969" y2="737.4219"/><line style="stroke:#A80036;stroke-width:1.0;stroke-dasharray:5.0,5.0;" x1="1031" x2="1031" y1="88.2969" y2="737.4219"/><line style="stroke:#A80036;stroke-width:1.0;stroke-dasharray:5.0,5.0;" x1="1155" x2="1155" y1="88.2969" y2="737.4219"/><text fill="#000000" font-family="sans-serif" font-size="14" lengthAdjust="spacing" textLength="112" x="5" y="84.9951">Traffic Manager</text><ellipse cx="64" cy="15" fill="#FEFECE" filter="url(#f1oddnwvrf4pvl)" rx="8" ry="8" style="stroke:#A80036;stroke-width:2.0;"/><path d="M64,23 L64,50 M51,31 L77,31 M64,50 L51,65 M64,50 L77,65 " fill="none" filter="url(#f1oddnwvrf4pvl)" style="stroke:#A80036;stroke-width:2.0;"/><text fill="#000000" font-family="sans-serif" font-size="14" lengthAdjust="spacing" textLength="112" x="5" y="749.417">Traffic Manager</text><ellipse cx="64" cy="762.7188" fill="#FEFECE" filter="url(#f1oddnwvrf4pvl)" rx="8" ry="8" style="stroke:#A80036;stroke-width:2.0;"/><path d="M64,770.7188 L64,797.7188 M51,778.7188 L77,778.7188 M64,797.7188 L51,812.7188 M64,797.7188 L77,812.7188 " fill="none" filter="url(#f1oddnwvrf4pvl)" style="stroke:#A80036;stroke-width:2.0;"/><rect fill="#FEFECE" filter="url(#f1oddnwvrf4pvl)" height="30.2969" style="stroke:#A80036;stroke-width:1.5;" width="136" x="209" y="53"/><text fill="#000000" font-family="sans-serif" font-size="14" lengthAdjust="spacing" textLength="122" x="216" y="72.9951">:ShipPairListTest</text><rect fill="#FEFECE" filter="url(#f1oddnwvrf4pvl)" height="30.2969" style="stroke:#A80036;stroke-width:1.5;" width="136" x="209" y="736.4219"/><text fill="#000000" font-family="sans-serif" font-size="14" lengthAdjust="spacing" textLength="122" x="216" y="756.417">:ShipPairListTest</text><rect fill="#FEFECE" filter="url(#f1oddnwvrf4pvl)" height="30.2969" style="stroke:#A80036;stroke-width:1.5;" width="91" x="416.5" y="53"/><text fill="#000000" font-family="sans-serif" font-size="14" lengthAdjust="spacing" textLength="77" x="423.5" y="72.9951">:ShipStore</text><rect fill="#FEFECE" filter="url(#f1oddnwvrf4pvl)" height="30.2969" style="stroke:#A80036;stroke-width:1.5;" width="91" x="416.5" y="736.4219"/><text fill="#000000" font-family="sans-serif" font-size="14" lengthAdjust="spacing" textLength="77" x="423.5" y="756.417">:ShipStore</text><rect fill="#FEFECE" filter="url(#f1oddnwvrf4pvl)" height="30.2969" style="stroke:#A80036;stroke-width:1.5;" width="51" x="617.5" y="53"/><text fill="#000000" font-family="sans-serif" font-size="14" lengthAdjust="spacing" textLength="37" x="624.5" y="72.9951">:Ship</text><rect fill="#FEFECE" filter="url(#f1oddnwvrf4pvl)" height="30.2969" style="stroke:#A80036;stroke-width:1.5;" width="51" x="617.5" y="736.4219"/><text fill="#000000" font-family="sans-serif" font-size="14" lengthAdjust="spacing" textLength="37" x="624.5" y="756.417">:Ship</text><rect fill="#FEFECE" filter="url(#f1oddnwvrf4pvl)" height="30.2969" style="stroke:#A80036;stroke-width:1.5;" width="106" x="851" y="53"/><text fill="#000000" font-family="sans-serif" font-size="14" lengthAdjust="spacing" textLength="92" x="858" y="72.9951">:TravelRoute</text><rect fill="#FEFECE" filter="url(#f1oddnwvrf4pvl)" height="30.2969" style="stroke:#A80036;stroke-width:1.5;" width="106" x="851" y="736.4219"/><text fill="#000000" font-family="sans-serif" font-size="14" lengthAdjust="spacing" textLength="92" x="858" y="756.417">:TravelRoute</text><rect fill="#FEFECE" filter="url(#f1oddnwvrf4pvl)" height="30.2969" style="stroke:#A80036;stroke-width:1.5;" width="116" x="971" y="53"/><text fill="#000000" font-family="sans-serif" font-size="14" lengthAdjust="spacing" textLength="102" x="978" y="72.9951">:Identification</text><rect fill="#FEFECE" filter="url(#f1oddnwvrf4pvl)" height="30.2969" style="stroke:#A80036;stroke-width:1.5;" width="116" x="971" y="736.4219"/><text fill="#000000" font-family="sans-serif" font-size="14" lengthAdjust="spacing" textLength="102" x="978" y="756.417">:Identification</text><rect fill="#FEFECE" filter="url(#f1oddnwvrf4pvl)" height="30.2969" style="stroke:#A80036;stroke-width:1.5;" width="104" x="1101" y="53"/><text fill="#000000" font-family="sans-serif" font-size="14" lengthAdjust="spacing" textLength="90" x="1108" y="72.9951">:ShipPairList</text><rect fill="#FEFECE" filter="url(#f1oddnwvrf4pvl)" height="30.2969" style="stroke:#A80036;stroke-width:1.5;" width="104" x="1101" y="736.4219"/><text fill="#000000" font-family="sans-serif" font-size="14" lengthAdjust="spacing" textLength="90" x="1108" y="756.417">:ShipPairList</text><rect fill="#FFFFFF" filter="url(#f1oddnwvrf4pvl)" height="630.125" style="stroke:#A80036;stroke-width:1.0;" width="10" x="59" y="98.2969"/><rect fill="#FFFFFF" filter="url(#f1oddnwvrf4pvl)" height="599.9922" style="stroke:#A80036;stroke-width:1.0;" width="10" x="274" y="119.4297"/><rect fill="#FFFFFF" filter="url(#f1oddnwvrf4pvl)" height="426.4609" style="stroke:#A80036;stroke-width:1.0;" width="10" x="459" y="148.5625"/><rect fill="#FFFFFF" filter="url(#f1oddnwvrf4pvl)" height="28" style="stroke:#A80036;stroke-width:1.0;" width="10" x="464" y="185.6953"/><rect fill="#FFFFFF" filter="url(#f1oddnwvrf4pvl)" height="301.0625" style="stroke:#A80036;stroke-width:1.0;" width="10" x="640" y="273.9609"/><rect fill="#FFFFFF" filter="url(#f1oddnwvrf4pvl)" height="28" style="stroke:#A80036;stroke-width:1.0;" width="10" x="645" y="364.3594"/><rect fill="#FFFFFF" filter="url(#f1oddnwvrf4pvl)" height="87.3984" style="stroke:#A80036;stroke-width:1.0;" width="10" x="901" y="428.4922"/><rect fill="#FFFFFF" filter="url(#f1oddnwvrf4pvl)" height="145.2656" style="stroke:#A80036;stroke-width:1.0;" width="10" x="1150" y="545.0234"/><rect fill="#FFFFFF" filter="url(#f1oddnwvrf4pvl)" height="28" style="stroke:#A80036;stroke-width:1.0;" width="10" x="1155" y="626.1563"/><polygon fill="#A80036" points="262,115.4297,272,119.4297,262,123.4297,266,119.4297" style="stroke:#A80036;stroke-width:1.0;"/><line style="stroke:#A80036;stroke-width:1.0;" x1="69" x2="268" y1="119.4297" y2="119.4297"/><text fill="#000000" font-family="sans-serif" font-size="13" font-weight="bold" lengthAdjust="spacing" textLength="9" x="76" y="114.3638">1</text><text fill="#000000" font-family="sans-serif" font-size="13" lengthAdjust="spacing" textLength="173" x="89" y="114.3638">wants to see the ship pairs</text><polygon fill="#A80036" points="447,144.5625,457,148.5625,447,152.5625,451,148.5625" style="stroke:#A80036;stroke-width:1.0;"/><line style="stroke:#A80036;stroke-width:1.0;" x1="284" x2="453" y1="148.5625" y2="148.5625"/><text fill="#000000" font-family="sans-serif" font-size="13" font-weight="bold" lengthAdjust="spacing" textLength="9" x="291" y="143.4966">2</text><text fill="#000000" font-family="sans-serif" font-size="13" lengthAdjust="spacing" textLength="143" x="304" y="143.4966">importShips(fileName)</text><line style="stroke:#A80036;stroke-width:1.0;" x1="474" x2="516" y1="177.6953" y2="177.6953"/><line style="stroke:#A80036;stroke-width:1.0;" x1="516" x2="516" y1="177.6953" y2="190.6953"/><line style="stroke:#A80036;stroke-width:1.0;" x1="475" x2="516" y1="190.6953" y2="190.6953"/><polygon fill="#A80036" points="485,186.6953,475,190.6953,485,194.6953,481,190.6953" style="stroke:#A80036;stroke-width:1.0;"/><text fill="#000000" font-family="sans-serif" font-size="13" font-weight="bold" lengthAdjust="spacing" textLength="8" x="481" y="172.6294">3</text><text fill="#000000" font-family="sans-serif" font-size="13" lengthAdjust="spacing" textLength="90" x="493" y="172.6294">getCloseShips</text><path d="M406.5,235.6953 L484.5,235.6953 L484.5,242.6953 L474.5,252.6953 L406.5,252.6953 L406.5,235.6953 " fill="#EEEEEE" style="stroke:#000000;stroke-width:1.0;"/><rect fill="none" height="354.3281" style="stroke:#000000;stroke-width:2.0;" width="822.5" x="406.5" y="235.6953"/><text fill="#000000" font-family="sans-serif" font-size="13" font-weight="bold" lengthAdjust="spacing" textLength="33" x="421.5" y="248.7622">loop</text><text fill="#000000" font-family="sans-serif" font-size="11" font-weight="bold" lengthAdjust="spacing" textLength="149" x="499.5" y="247.9058">[for all possible ships]</text><polygon fill="#A80036" points="628,269.9609,638,273.9609,628,277.9609,632,273.9609" style="stroke:#A80036;stroke-width:1.0;"/><line style="stroke:#A80036;stroke-width:1.0;" x1="469" x2="634" y1="273.9609" y2="273.9609"/><text fill="#000000" font-family="sans-serif" font-size="13" font-weight="bold" lengthAdjust="spacing" textLength="9" x="476" y="268.895">4</text><text fill="#000000" font-family="sans-serif" font-size="13" lengthAdjust="spacing" textLength="134" x="489" y="268.895">ship1 =getFromList()</text><polygon fill="#A80036" points="628,299.0938,638,303.0938,628,307.0938,632,303.0938" style="stroke:#A80036;stroke-width:1.0;"/><line style="stroke:#A80036;stroke-width:1.0;" x1="469" x2="634" y1="303.0938" y2="303.0938"/><text fill="#000000" font-family="sans-serif" font-size="13" font-weight="bold" lengthAdjust="spacing" textLength="9" x="476" y="298.0278">5</text><text fill="#000000" font-family="sans-serif" font-size="13" lengthAdjust="spacing" textLength="134" x="489" y="298.0278">ship2 =getFromList()</text><path d="M607.5,318.0938 L679.5,318.0938 L679.5,325.0938 L669.5,335.0938 L607.5,335.0938 L607.5,318.0938 " fill="#EEEEEE" style="stroke:#000000;stroke-width:1.0;"/><rect fill="none" height="264.9297" style="stroke:#000000;stroke-width:2.0;" width="611.5" x="607.5" y="318.0938"/><text fill="#000000" font-family="sans-serif" font-size="13" font-weight="bold" lengthAdjust="spacing" textLength="27" x="622.5" y="331.1606">opt</text><text fill="#000000" font-family="sans-serif" font-size="11" font-weight="bold" lengthAdjust="spacing" textLength="374" x="694.5" y="330.3042">[only for ships with more than 10km travelled distance]</text><line style="stroke:#A80036;stroke-width:1.0;" x1="655" x2="697" y1="356.3594" y2="356.3594"/><line style="stroke:#A80036;stroke-width:1.0;" x1="697" x2="697" y1="356.3594" y2="369.3594"/><line style="stroke:#A80036;stroke-width:1.0;" x1="656" x2="697" y1="369.3594" y2="369.3594"/><polygon fill="#A80036" points="666,365.3594,656,369.3594,666,373.3594,662,369.3594" style="stroke:#A80036;stroke-width:1.0;"/><text fill="#000000" font-family="sans-serif" font-size="13" font-weight="bold" lengthAdjust="spacing" textLength="9" x="662" y="351.2935">6</text><text fill="#000000" font-family="sans-serif" font-size="13" lengthAdjust="spacing" textLength="89" x="675" y="351.2935">isClose(ship2)</text><polygon fill="#A80036" points="889,424.4922,899,428.4922,889,432.4922,893,428.4922" style="stroke:#A80036;stroke-width:1.0;"/><line style="stroke:#A80036;stroke-width:1.0;" x1="650" x2="895" y1="428.4922" y2="428.4922"/><text fill="#000000" font-family="sans-serif" font-size="13" font-weight="bold" lengthAdjust="spacing" textLength="9" x="657" y="423.4263">7</text><text fill="#000000" font-family="sans-serif" font-size="13" lengthAdjust="spacing" textLength="153" x="670" y="423.4263">ala=getArrivalLatitude()</text><polygon fill="#A80036" points="889,453.625,899,457.625,889,461.625,893,457.625" style="stroke:#A80036;stroke-width:1.0;"/><line style="stroke:#A80036;stroke-width:1.0;" x1="650" x2="895" y1="457.625" y2="457.625"/><text fill="#000000" font-family="sans-serif" font-size="13" font-weight="bold" lengthAdjust="spacing" textLength="9" x="657" y="452.5591">8</text><text fill="#000000" font-family="sans-serif" font-size="13" lengthAdjust="spacing" textLength="180" x="670" y="452.5591">along=getArrivalLongitude()</text><polygon fill="#A80036" points="889,482.7578,899,486.7578,889,490.7578,893,486.7578" style="stroke:#A80036;stroke-width:1.0;"/><line style="stroke:#A80036;stroke-width:1.0;" x1="650" x2="895" y1="486.7578" y2="486.7578"/><text fill="#000000" font-family="sans-serif" font-size="13" font-weight="bold" lengthAdjust="spacing" textLength="9" x="657" y="481.6919">9</text><text fill="#000000" font-family="sans-serif" font-size="13" lengthAdjust="spacing" textLength="177" x="670" y="481.6919">dla=getDepartureLatitude()</text><polygon fill="#A80036" points="894,511.8906,904,515.8906,894,519.8906,898,515.8906" style="stroke:#A80036;stroke-width:1.0;"/><line style="stroke:#A80036;stroke-width:1.0;" x1="650" x2="900" y1="515.8906" y2="515.8906"/><text fill="#000000" font-family="sans-serif" font-size="13" font-weight="bold" lengthAdjust="spacing" textLength="19" x="657" y="510.8247">10</text><text fill="#000000" font-family="sans-serif" font-size="13" lengthAdjust="spacing" textLength="204" x="680" y="510.8247">dlong=getDepartureLongitude()</text><polygon fill="#A80036" points="1138,541.0234,1148,545.0234,1138,549.0234,1142,545.0234" style="stroke:#A80036;stroke-width:1.0;"/><line style="stroke:#A80036;stroke-width:1.0;" x1="650" x2="1144" y1="545.0234" y2="545.0234"/><text fill="#000000" font-family="sans-serif" font-size="13" font-weight="bold" lengthAdjust="spacing" textLength="18" x="657" y="539.9575">11</text><text fill="#000000" font-family="sans-serif" font-size="13" lengthAdjust="spacing" textLength="178" x="679" y="539.9575">addPair(Pair &lt;ship1,ship2&gt;)</text><line style="stroke:#A80036;stroke-width:1.0;" x1="1165" x2="1207" y1="618.1563" y2="618.1563"/><line style="stroke:#A80036;stroke-width:1.0;" x1="1207" x2="1207" y1="618.1563" y2="631.1563"/><line style="stroke:#A80036;stroke-width:1.0;" x1="1166" x2="1207" y1="631.1563" y2="631.1563"/><polygon fill="#A80036" points="1176,627.1563,1166,631.1563,1176,635.1563,1172,631.1563" style="stroke:#A80036;stroke-width:1.0;"/><text fill="#000000" font-family="sans-serif" font-size="13" font-weight="bold" lengthAdjust="spacing" textLength="18" x="1172" y="613.0903">12</text><text fill="#000000" font-family="sans-serif" font-size="13" lengthAdjust="spacing" textLength="108" x="1194" y="613.0903">sortingMethods()</text><polygon fill="#A80036" points="295,686.2891,285,690.2891,295,694.2891,291,690.2891" style="stroke:#A80036;stroke-width:1.0;"/><line style="stroke:#A80036;stroke-width:1.0;" x1="289" x2="1154" y1="690.2891" y2="690.2891"/><text fill="#000000" font-family="sans-serif" font-size="13" font-weight="bold" lengthAdjust="spacing" textLength="17" x="301" y="685.2231">13</text><text fill="#000000" font-family="sans-serif" font-size="13" lengthAdjust="spacing" textLength="61" x="322" y="685.2231">printList()</text><polygon fill="#A80036" points="80,715.4219,70,719.4219,80,723.4219,76,719.4219" style="stroke:#A80036;stroke-width:1.0;"/><line style="stroke:#A80036;stroke-width:1.0;" x1="74" x2="278" y1="719.4219" y2="719.4219"/><text fill="#000000" font-family="sans-serif" font-size="13" font-weight="bold" lengthAdjust="spacing" textLength="18" x="86" y="714.356">14</text><text fill="#000000" font-family="sans-serif" font-size="13" lengthAdjust="spacing" textLength="148" x="108" y="714.356">shows all pairs of ships</text><!--MD5=[fc40d2dbe564393a918104fb90645491]
@startuml
autonumber
actor "Traffic Manager" as TM
participant ":ShipPairListTest" as SPLT
participant ":ShipStore" as SS
participant ":Ship" as S
participant ":TravelRoute" as TR
participant ":Identification" as ID
participant ":ShipPairList" as SPL
activate TM 
TM -> SPLT : wants to see the ship pairs
activate SPLT
SPLT-> SS:importShips(fileName)
activate SS
SS ->SS :getCloseShips
activate SS
deactivate SS
loop for all possible ships
SS -> S : ship1 =getFromList()
activate S
SS -> S : ship2 =getFromList()
opt only for ships with more than 10km travelled distance
S -> S : isClose(ship2)
activate S
deactivate S
S -> TR : ala=getArrivalLatitude()
activate TR
S -> TR : along=getArrivalLongitude()
S -> TR : dla=getDepartureLatitude()
S -> TR : dlong=getDepartureLongitude()
deactivate TR
S -> SPL : addPair(Pair <ship1,ship2>)
activate SPL
deactivate S
deactivate SS
end loop
end opt
SPL -> SPL : sortingMethods()
activate SPL
deactivate SPL
SPL ->SPLT :printList()
deactivate SPL
SPLT -> TM: shows all pairs of ships
deactivate SPLT
@enduml

PlantUML version 1.2021.14(Fri Nov 12 16:46:50 UTC 2021)
(GPL source distribution)
Java Runtime: Java(TM) SE Runtime Environment
JVM: Java HotSpot(TM) 64-Bit Server VM
Default Encoding: UTF-8
Language: en
Country: US
--></g></svg>