<?xml version="1.0" encoding="UTF-8" standalone="no"?><svg xmlns="http://www.w3.org/2000/svg" xmlns:xlink="http://www.w3.org/1999/xlink" contentScriptType="application/ecmascript" contentStyleType="text/css" height="2198px" preserveAspectRatio="none" style="width:3280px;height:2198px;background:#FFFFFF;" version="1.1" viewBox="0 0 3280 2198" width="3280px" zoomAndPan="magnify"><defs><filter height="300%" id="fhqkobjehetif" width="300%" x="-1" y="-1"><feGaussianBlur result="blurOut" stdDeviation="2.0"/><feColorMatrix in="blurOut" result="blurOut2" type="matrix" values="0 0 0 0 0 0 0 0 0 0 0 0 0 0 0 0 0 0 .4 0"/><feOffset dx="4.0" dy="4.0" in="blurOut2" result="blurOut3"/><feBlend in="SourceGraphic" in2="blurOut3" mode="normal"/></filter></defs><g><rect fill="#FFFFFF" filter="url(#fhqkobjehetif)" height="2006.7266" style="stroke:#A80036;stroke-width:1.0;" width="10" x="59" y="98.2969"/><rect fill="#FFFFFF" filter="url(#fhqkobjehetif)" height="29.1328" style="stroke:#A80036;stroke-width:1.0;" width="10" x="444" y="119.4297"/><rect fill="#FFFFFF" filter="url(#fhqkobjehetif)" height="1927.3281" style="stroke:#A80036;stroke-width:1.0;" width="10" x="444" y="177.6953"/><rect fill="#FFFFFF" filter="url(#fhqkobjehetif)" height="1898.1953" style="stroke:#A80036;stroke-width:1.0;" width="10" x="668" y="206.8281"/><rect fill="#FFFFFF" filter="url(#fhqkobjehetif)" height="30" style="stroke:#A80036;stroke-width:1.0;" width="10" x="1021" y="362.3594"/><rect fill="#FFFFFF" filter="url(#fhqkobjehetif)" height="30" style="stroke:#A80036;stroke-width:1.0;" width="10" x="1021" y="557.1875"/><rect fill="#FFFFFF" filter="url(#fhqkobjehetif)" height="30" style="stroke:#A80036;stroke-width:1.0;" width="10" x="1021" y="616.3203"/><rect fill="#FFFFFF" filter="url(#fhqkobjehetif)" height="30" style="stroke:#A80036;stroke-width:1.0;" width="10" x="1021" y="675.4531"/><rect fill="#FFFFFF" filter="url(#fhqkobjehetif)" height="30" style="stroke:#A80036;stroke-width:1.0;" width="10" x="1021" y="734.5859"/><rect fill="#FFFFFF" filter="url(#fhqkobjehetif)" height="30" style="stroke:#A80036;stroke-width:1.0;" width="10" x="1021" y="793.7188"/><rect fill="#FFFFFF" filter="url(#fhqkobjehetif)" height="30" style="stroke:#A80036;stroke-width:1.0;" width="10" x="1021" y="852.8516"/><rect fill="#FFFFFF" filter="url(#fhqkobjehetif)" height="30" style="stroke:#A80036;stroke-width:1.0;" width="10" x="1021" y="911.9844"/><rect fill="#FFFFFF" filter="url(#fhqkobjehetif)" height="30" style="stroke:#A80036;stroke-width:1.0;" width="10" x="1021" y="971.1172"/><rect fill="#FFFFFF" filter="url(#fhqkobjehetif)" height="30" style="stroke:#A80036;stroke-width:1.0;" width="10" x="1021" y="1232.2734"/><rect fill="#FFFFFF" filter="url(#fhqkobjehetif)" height="30" style="stroke:#A80036;stroke-width:1.0;" width="10" x="1021" y="1291.4063"/><rect fill="#FFFFFF" filter="url(#fhqkobjehetif)" height="30" style="stroke:#A80036;stroke-width:1.0;" width="10" x="1021" y="1350.5391"/><rect fill="#FFFFFF" filter="url(#fhqkobjehetif)" height="30" style="stroke:#A80036;stroke-width:1.0;" width="10" x="1021" y="1409.6719"/><rect fill="#FFFFFF" filter="url(#fhqkobjehetif)" height="30" style="stroke:#A80036;stroke-width:1.0;" width="10" x="1021" y="1468.8047"/><rect fill="#FFFFFF" filter="url(#fhqkobjehetif)" height="30" style="stroke:#A80036;stroke-width:1.0;" width="10" x="1021" y="1527.9375"/><rect fill="#FFFFFF" filter="url(#fhqkobjehetif)" height="30" style="stroke:#A80036;stroke-width:1.0;" width="10" x="1021" y="1587.0703"/><rect fill="#FFFFFF" filter="url(#fhqkobjehetif)" height="30" style="stroke:#A80036;stroke-width:1.0;" width="10" x="1021" y="1646.2031"/><rect fill="#FFFFFF" filter="url(#fhqkobjehetif)" height="29.1328" style="stroke:#A80036;stroke-width:1.0;" width="10" x="1021" y="1959.4922"/><rect fill="#FFFFFF" filter="url(#fhqkobjehetif)" height="30" style="stroke:#A80036;stroke-width:1.0;" width="10" x="2026.5" y="1166.1406"/><rect fill="#FFFFFF" filter="url(#fhqkobjehetif)" height="35.1328" style="stroke:#A80036;stroke-width:1.0;" width="10" x="2117" y="1988.625"/><rect fill="#FFFFFF" filter="url(#fhqkobjehetif)" height="30" style="stroke:#A80036;stroke-width:1.0;" width="10" x="2320" y="1841.2266"/><rect fill="#FFFFFF" filter="url(#fhqkobjehetif)" height="30" style="stroke:#A80036;stroke-width:1.0;" width="10" x="2678.5" y="1900.3594"/><rect fill="#FFFFFF" filter="url(#fhqkobjehetif)" height="80.5938" style="stroke:#A80036;stroke-width:1.0;" width="10" x="2769.5" y="1715.3359"/><rect fill="#FFFFFF" filter="url(#fhqkobjehetif)" height="1631.3984" style="stroke:#000000;stroke-width:2.0;" width="2669.5" x="597" y="407.3594"/><rect fill="#FFFFFF" filter="url(#fhqkobjehetif)" height="730.5156" style="stroke:#000000;stroke-width:2.0;" width="2111.5" x="607" y="473.625"/><line style="stroke:#A80036;stroke-width:1.0;stroke-dasharray:5.0,5.0;" x1="64" x2="64" y1="88.2969" y2="2114.0234"/><line style="stroke:#A80036;stroke-width:1.0;stroke-dasharray:5.0,5.0;" x1="449" x2="449" y1="88.2969" y2="2114.0234"/><line style="stroke:#A80036;stroke-width:1.0;stroke-dasharray:5.0,5.0;" x1="673" x2="673" y1="88.2969" y2="2114.0234"/><line style="stroke:#A80036;stroke-width:1.0;stroke-dasharray:5.0,5.0;" x1="1026" x2="1026" y1="88.2969" y2="2114.0234"/><line style="stroke:#A80036;stroke-width:1.0;stroke-dasharray:5.0,5.0;" x1="1144" x2="1144" y1="88.2969" y2="2114.0234"/><line style="stroke:#A80036;stroke-width:1.0;stroke-dasharray:5.0,5.0;" x1="1260" x2="1260" y1="88.2969" y2="2114.0234"/><line style="stroke:#A80036;stroke-width:1.0;stroke-dasharray:5.0,5.0;" x1="1382" x2="1382" y1="88.2969" y2="2114.0234"/><line style="stroke:#A80036;stroke-width:1.0;stroke-dasharray:5.0,5.0;" x1="1526" x2="1526" y1="88.2969" y2="2114.0234"/><line style="stroke:#A80036;stroke-width:1.0;stroke-dasharray:5.0,5.0;" x1="1660" x2="1660" y1="88.2969" y2="2114.0234"/><line style="stroke:#A80036;stroke-width:1.0;stroke-dasharray:5.0,5.0;" x1="1780" x2="1780" y1="88.2969" y2="2114.0234"/><line style="stroke:#A80036;stroke-width:1.0;stroke-dasharray:5.0,5.0;" x1="1915" x2="1915" y1="88.2969" y2="2114.0234"/><line style="stroke:#A80036;stroke-width:1.0;stroke-dasharray:5.0,5.0;" x1="2031" x2="2031" y1="88.2969" y2="2114.0234"/><line style="stroke:#A80036;stroke-width:1.0;stroke-dasharray:5.0,5.0;" x1="2122" x2="2122" y1="88.2969" y2="2114.0234"/><line style="stroke:#A80036;stroke-width:1.0;stroke-dasharray:5.0,5.0;" x1="2324.5" x2="2324.5" y1="523.4063" y2="2114.0234"/><line style="stroke:#A80036;stroke-width:1.0;stroke-dasharray:5.0,5.0;" x1="2422.5" x2="2422.5" y1="1041.7656" y2="2114.0234"/><line style="stroke:#A80036;stroke-width:1.0;stroke-dasharray:5.0,5.0;" x1="2569.5" x2="2569.5" y1="1087.0625" y2="2114.0234"/><line style="stroke:#A80036;stroke-width:1.0;stroke-dasharray:5.0,5.0;" x1="2683.5" x2="2683.5" y1="1132.3594" y2="2114.0234"/><line style="stroke:#A80036;stroke-width:1.0;stroke-dasharray:5.0,5.0;" x1="2774.5" x2="2774.5" y1="1716.8516" y2="2114.0234"/><line style="stroke:#A80036;stroke-width:1.0;stroke-dasharray:5.0,5.0;" x1="3111.5" x2="3111.5" y1="1762.1484" y2="2114.0234"/><line style="stroke:#A80036;stroke-width:1.0;stroke-dasharray:5.0,5.0;" x1="3208.5" x2="3208.5" y1="1807.4453" y2="2114.0234"/><text fill="#000000" font-family="sans-serif" font-size="14" lengthAdjust="spacing" textLength="112" x="5" y="84.9951">Traffic Manager</text><ellipse cx="64" cy="15" fill="#FEFECE" filter="url(#fhqkobjehetif)" rx="8" ry="8" style="stroke:#A80036;stroke-width:2.0;"/><path d="M64,23 L64,50 M51,31 L77,31 M64,50 L51,65 M64,50 L77,65 " fill="none" filter="url(#fhqkobjehetif)" style="stroke:#A80036;stroke-width:2.0;"/><text fill="#000000" font-family="sans-serif" font-size="14" lengthAdjust="spacing" textLength="112" x="5" y="2126.0186">Traffic Manager</text><ellipse cx="64" cy="2139.3203" fill="#FEFECE" filter="url(#fhqkobjehetif)" rx="8" ry="8" style="stroke:#A80036;stroke-width:2.0;"/><path d="M64,2147.3203 L64,2174.3203 M51,2155.3203 L77,2155.3203 M64,2174.3203 L51,2189.3203 M64,2174.3203 L77,2189.3203 " fill="none" filter="url(#fhqkobjehetif)" style="stroke:#A80036;stroke-width:2.0;"/><rect fill="#FEFECE" filter="url(#fhqkobjehetif)" height="30.2969" style="stroke:#A80036;stroke-width:1.5;" width="140" x="377" y="53"/><text fill="#000000" font-family="sans-serif" font-size="14" lengthAdjust="spacing" textLength="126" x="384" y="72.9951">:importShipsTest</text><rect fill="#FEFECE" filter="url(#fhqkobjehetif)" height="30.2969" style="stroke:#A80036;stroke-width:1.5;" width="140" x="377" y="2113.0234"/><text fill="#000000" font-family="sans-serif" font-size="14" lengthAdjust="spacing" textLength="126" x="384" y="2133.0186">:importShipsTest</text><rect fill="#FEFECE" filter="url(#fhqkobjehetif)" height="30.2969" style="stroke:#A80036;stroke-width:1.5;" width="108" x="617" y="53"/><text fill="#000000" font-family="sans-serif" font-size="14" lengthAdjust="spacing" textLength="94" x="624" y="72.9951">:importShips</text><rect fill="#FEFECE" filter="url(#fhqkobjehetif)" height="30.2969" style="stroke:#A80036;stroke-width:1.5;" width="108" x="617" y="2113.0234"/><text fill="#000000" font-family="sans-serif" font-size="14" lengthAdjust="spacing" textLength="94" x="624" y="2133.0186">:importShips</text><rect fill="#FEFECE" filter="url(#fhqkobjehetif)" height="30.2969" style="stroke:#A80036;stroke-width:1.5;" width="122" x="963" y="53"/><text fill="#000000" font-family="sans-serif" font-size="14" lengthAdjust="spacing" textLength="108" x="970" y="72.9951">:shipController</text><rect fill="#FEFECE" filter="url(#fhqkobjehetif)" height="30.2969" style="stroke:#A80036;stroke-width:1.5;" width="122" x="963" y="2113.0234"/><text fill="#000000" font-family="sans-serif" font-size="14" lengthAdjust="spacing" textLength="108" x="970" y="2133.0186">:shipController</text><rect fill="#FEFECE" filter="url(#fhqkobjehetif)" height="30.2969" style="stroke:#A80036;stroke-width:1.5;" width="87" x="1099" y="53"/><text fill="#000000" font-family="sans-serif" font-size="14" lengthAdjust="spacing" textLength="73" x="1106" y="72.9951">:Company</text><rect fill="#FEFECE" filter="url(#fhqkobjehetif)" height="30.2969" style="stroke:#A80036;stroke-width:1.5;" width="87" x="1099" y="2113.0234"/><text fill="#000000" font-family="sans-serif" font-size="14" lengthAdjust="spacing" textLength="73" x="1106" y="2133.0186">:Company</text><rect fill="#FEFECE" filter="url(#fhqkobjehetif)" height="30.2969" style="stroke:#A80036;stroke-width:1.5;" width="116" x="1200" y="53"/><text fill="#000000" font-family="sans-serif" font-size="14" lengthAdjust="spacing" textLength="102" x="1207" y="72.9951">:Identification</text><rect fill="#FEFECE" filter="url(#fhqkobjehetif)" height="30.2969" style="stroke:#A80036;stroke-width:1.5;" width="116" x="1200" y="2113.0234"/><text fill="#000000" font-family="sans-serif" font-size="14" lengthAdjust="spacing" textLength="102" x="1207" y="2133.0186">:Identification</text><rect fill="#FEFECE" filter="url(#fhqkobjehetif)" height="30.2969" style="stroke:#A80036;stroke-width:1.5;" width="101" x="1330" y="53"/><text fill="#000000" font-family="sans-serif" font-size="14" lengthAdjust="spacing" textLength="87" x="1337" y="72.9951">:ShipEnergy</text><rect fill="#FEFECE" filter="url(#fhqkobjehetif)" height="30.2969" style="stroke:#A80036;stroke-width:1.5;" width="101" x="1330" y="2113.0234"/><text fill="#000000" font-family="sans-serif" font-size="14" lengthAdjust="spacing" textLength="87" x="1337" y="2133.0186">:ShipEnergy</text><rect fill="#FEFECE" filter="url(#fhqkobjehetif)" height="30.2969" style="stroke:#A80036;stroke-width:1.5;" width="159" x="1445" y="53"/><text fill="#000000" font-family="sans-serif" font-size="14" lengthAdjust="spacing" textLength="145" x="1452" y="72.9951">:ShipCharacteristics</text><rect fill="#FEFECE" filter="url(#fhqkobjehetif)" height="30.2969" style="stroke:#A80036;stroke-width:1.5;" width="159" x="1445" y="2113.0234"/><text fill="#000000" font-family="sans-serif" font-size="14" lengthAdjust="spacing" textLength="145" x="1452" y="2133.0186">:ShipCharacteristics</text><rect fill="#FEFECE" filter="url(#fhqkobjehetif)" height="30.2969" style="stroke:#A80036;stroke-width:1.5;" width="81" x="1618" y="53"/><text fill="#000000" font-family="sans-serif" font-size="14" lengthAdjust="spacing" textLength="67" x="1625" y="72.9951">:Location</text><rect fill="#FEFECE" filter="url(#fhqkobjehetif)" height="30.2969" style="stroke:#A80036;stroke-width:1.5;" width="81" x="1618" y="2113.0234"/><text fill="#000000" font-family="sans-serif" font-size="14" lengthAdjust="spacing" textLength="67" x="1625" y="2133.0186">:Location</text><rect fill="#FEFECE" filter="url(#fhqkobjehetif)" height="30.2969" style="stroke:#A80036;stroke-width:1.5;" width="130" x="1713" y="53"/><text fill="#000000" font-family="sans-serif" font-size="14" lengthAdjust="spacing" textLength="116" x="1720" y="72.9951">:MovementData</text><rect fill="#FEFECE" filter="url(#fhqkobjehetif)" height="30.2969" style="stroke:#A80036;stroke-width:1.5;" width="130" x="1713" y="2113.0234"/><text fill="#000000" font-family="sans-serif" font-size="14" lengthAdjust="spacing" textLength="116" x="1720" y="2133.0186">:MovementData</text><rect fill="#FEFECE" filter="url(#fhqkobjehetif)" height="30.2969" style="stroke:#A80036;stroke-width:1.5;" width="113" x="1857" y="53"/><text fill="#000000" font-family="sans-serif" font-size="14" lengthAdjust="spacing" textLength="99" x="1864" y="72.9951">:ShipDynamic</text><rect fill="#FEFECE" filter="url(#fhqkobjehetif)" height="30.2969" style="stroke:#A80036;stroke-width:1.5;" width="113" x="1857" y="2113.0234"/><text fill="#000000" font-family="sans-serif" font-size="14" lengthAdjust="spacing" textLength="99" x="1864" y="2133.0186">:ShipDynamic</text><rect fill="#FEFECE" filter="url(#fhqkobjehetif)" height="30.2969" style="stroke:#A80036;stroke-width:1.5;" width="91" x="1984" y="53"/><text fill="#000000" font-family="sans-serif" font-size="14" lengthAdjust="spacing" textLength="77" x="1991" y="72.9951">:ShipStore</text><rect fill="#FEFECE" filter="url(#fhqkobjehetif)" height="30.2969" style="stroke:#A80036;stroke-width:1.5;" width="91" x="1984" y="2113.0234"/><text fill="#000000" font-family="sans-serif" font-size="14" lengthAdjust="spacing" textLength="77" x="1991" y="2133.0186">:ShipStore</text><rect fill="#FEFECE" filter="url(#fhqkobjehetif)" height="30.2969" style="stroke:#A80036;stroke-width:1.5;" width="62" x="2089" y="53"/><text fill="#000000" font-family="sans-serif" font-size="14" lengthAdjust="spacing" textLength="48" x="2096" y="72.9951">:Route</text><rect fill="#FEFECE" filter="url(#fhqkobjehetif)" height="30.2969" style="stroke:#A80036;stroke-width:1.5;" width="62" x="2089" y="2113.0234"/><text fill="#000000" font-family="sans-serif" font-size="14" lengthAdjust="spacing" textLength="48" x="2096" y="2133.0186">:Route</text><rect fill="#FEFECE" filter="url(#fhqkobjehetif)" height="30.2969" style="stroke:#A80036;stroke-width:1.5;" width="57" x="2294.5" y="2113.0234"/><text fill="#000000" font-family="sans-serif" font-size="14" lengthAdjust="spacing" textLength="43" x="2301.5" y="2133.0186">Route</text><rect fill="#FEFECE" filter="url(#fhqkobjehetif)" height="30.2969" style="stroke:#A80036;stroke-width:1.5;" width="111" x="2365.5" y="2113.0234"/><text fill="#000000" font-family="sans-serif" font-size="14" lengthAdjust="spacing" textLength="97" x="2372.5" y="2133.0186">Identification</text><rect fill="#FEFECE" filter="url(#fhqkobjehetif)" height="30.2969" style="stroke:#A80036;stroke-width:1.5;" width="154" x="2490.5" y="2113.0234"/><text fill="#000000" font-family="sans-serif" font-size="14" lengthAdjust="spacing" textLength="140" x="2497.5" y="2133.0186">ShipCharacteristics</text><rect fill="#FEFECE" filter="url(#fhqkobjehetif)" height="30.2969" style="stroke:#A80036;stroke-width:1.5;" width="46" x="2658.5" y="2113.0234"/><text fill="#000000" font-family="sans-serif" font-size="14" lengthAdjust="spacing" textLength="32" x="2665.5" y="2133.0186">Ship</text><rect fill="#FEFECE" filter="url(#fhqkobjehetif)" height="30.2969" style="stroke:#A80036;stroke-width:1.5;" width="108" x="2718.5" y="2113.0234"/><text fill="#000000" font-family="sans-serif" font-size="14" lengthAdjust="spacing" textLength="94" x="2725.5" y="2133.0186">ShipDynamic</text><rect fill="#FEFECE" filter="url(#fhqkobjehetif)" height="30.2969" style="stroke:#A80036;stroke-width:1.5;" width="76" x="3071.5" y="2113.0234"/><text fill="#000000" font-family="sans-serif" font-size="14" lengthAdjust="spacing" textLength="62" x="3078.5" y="2133.0186">Location</text><rect fill="#FEFECE" filter="url(#fhqkobjehetif)" height="30.2969" style="stroke:#A80036;stroke-width:1.5;" width="91" x="3161.5" y="2113.0234"/><text fill="#000000" font-family="sans-serif" font-size="14" lengthAdjust="spacing" textLength="77" x="3168.5" y="2133.0186">Movement</text><rect fill="#FFFFFF" filter="url(#fhqkobjehetif)" height="2006.7266" style="stroke:#A80036;stroke-width:1.0;" width="10" x="59" y="98.2969"/><rect fill="#FFFFFF" filter="url(#fhqkobjehetif)" height="29.1328" style="stroke:#A80036;stroke-width:1.0;" width="10" x="444" y="119.4297"/><rect fill="#FFFFFF" filter="url(#fhqkobjehetif)" height="1927.3281" style="stroke:#A80036;stroke-width:1.0;" width="10" x="444" y="177.6953"/><rect fill="#FFFFFF" filter="url(#fhqkobjehetif)" height="1898.1953" style="stroke:#A80036;stroke-width:1.0;" width="10" x="668" y="206.8281"/><rect fill="#FFFFFF" filter="url(#fhqkobjehetif)" height="30" style="stroke:#A80036;stroke-width:1.0;" width="10" x="1021" y="362.3594"/><rect fill="#FFFFFF" filter="url(#fhqkobjehetif)" height="30" style="stroke:#A80036;stroke-width:1.0;" width="10" x="1021" y="557.1875"/><rect fill="#FFFFFF" filter="url(#fhqkobjehetif)" height="30" style="stroke:#A80036;stroke-width:1.0;" width="10" x="1021" y="616.3203"/><rect fill="#FFFFFF" filter="url(#fhqkobjehetif)" height="30" style="stroke:#A80036;stroke-width:1.0;" width="10" x="1021" y="675.4531"/><rect fill="#FFFFFF" filter="url(#fhqkobjehetif)" height="30" style="stroke:#A80036;stroke-width:1.0;" width="10" x="1021" y="734.5859"/><rect fill="#FFFFFF" filter="url(#fhqkobjehetif)" height="30" style="stroke:#A80036;stroke-width:1.0;" width="10" x="1021" y="793.7188"/><rect fill="#FFFFFF" filter="url(#fhqkobjehetif)" height="30" style="stroke:#A80036;stroke-width:1.0;" width="10" x="1021" y="852.8516"/><rect fill="#FFFFFF" filter="url(#fhqkobjehetif)" height="30" style="stroke:#A80036;stroke-width:1.0;" width="10" x="1021" y="911.9844"/><rect fill="#FFFFFF" filter="url(#fhqkobjehetif)" height="30" style="stroke:#A80036;stroke-width:1.0;" width="10" x="1021" y="971.1172"/><rect fill="#FFFFFF" filter="url(#fhqkobjehetif)" height="30" style="stroke:#A80036;stroke-width:1.0;" width="10" x="1021" y="1232.2734"/><rect fill="#FFFFFF" filter="url(#fhqkobjehetif)" height="30" style="stroke:#A80036;stroke-width:1.0;" width="10" x="1021" y="1291.4063"/><rect fill="#FFFFFF" filter="url(#fhqkobjehetif)" height="30" style="stroke:#A80036;stroke-width:1.0;" width="10" x="1021" y="1350.5391"/><rect fill="#FFFFFF" filter="url(#fhqkobjehetif)" height="30" style="stroke:#A80036;stroke-width:1.0;" width="10" x="1021" y="1409.6719"/><rect fill="#FFFFFF" filter="url(#fhqkobjehetif)" height="30" style="stroke:#A80036;stroke-width:1.0;" width="10" x="1021" y="1468.8047"/><rect fill="#FFFFFF" filter="url(#fhqkobjehetif)" height="30" style="stroke:#A80036;stroke-width:1.0;" width="10" x="1021" y="1527.9375"/><rect fill="#FFFFFF" filter="url(#fhqkobjehetif)" height="30" style="stroke:#A80036;stroke-width:1.0;" width="10" x="1021" y="1587.0703"/><rect fill="#FFFFFF" filter="url(#fhqkobjehetif)" height="30" style="stroke:#A80036;stroke-width:1.0;" width="10" x="1021" y="1646.2031"/><rect fill="#FFFFFF" filter="url(#fhqkobjehetif)" height="29.1328" style="stroke:#A80036;stroke-width:1.0;" width="10" x="1021" y="1959.4922"/><rect fill="#FFFFFF" filter="url(#fhqkobjehetif)" height="30" style="stroke:#A80036;stroke-width:1.0;" width="10" x="2026.5" y="1166.1406"/><rect fill="#FFFFFF" filter="url(#fhqkobjehetif)" height="35.1328" style="stroke:#A80036;stroke-width:1.0;" width="10" x="2117" y="1988.625"/><rect fill="#FFFFFF" filter="url(#fhqkobjehetif)" height="30" style="stroke:#A80036;stroke-width:1.0;" width="10" x="2320" y="1841.2266"/><rect fill="#FFFFFF" filter="url(#fhqkobjehetif)" height="30" style="stroke:#A80036;stroke-width:1.0;" width="10" x="2678.5" y="1900.3594"/><rect fill="#FFFFFF" filter="url(#fhqkobjehetif)" height="80.5938" style="stroke:#A80036;stroke-width:1.0;" width="10" x="2769.5" y="1715.3359"/><polygon fill="#A80036" points="432,115.4297,442,119.4297,432,123.4297,436,119.4297" style="stroke:#A80036;stroke-width:1.0;"/><line style="stroke:#A80036;stroke-width:1.0;" x1="69" x2="438" y1="119.4297" y2="119.4297"/><text fill="#000000" font-family="sans-serif" font-size="13" font-weight="bold" lengthAdjust="spacing" textLength="9" x="76" y="114.3638">1</text><text fill="#000000" font-family="sans-serif" font-size="13" lengthAdjust="spacing" textLength="343" x="89" y="114.3638">chooses to import ships' informations from a CSV File</text><polygon fill="#A80036" points="80,144.5625,70,148.5625,80,152.5625,76,148.5625" style="stroke:#A80036;stroke-width:1.0;"/><line style="stroke:#A80036;stroke-width:1.0;stroke-dasharray:2.0,2.0;" x1="74" x2="448" y1="148.5625" y2="148.5625"/><text fill="#000000" font-family="sans-serif" font-size="13" font-weight="bold" lengthAdjust="spacing" textLength="9" x="86" y="143.4966">2</text><text fill="#000000" font-family="sans-serif" font-size="13" lengthAdjust="spacing" textLength="278" x="99" y="143.4966">asks the name of the file it wants to import</text><polygon fill="#A80036" points="432,173.6953,442,177.6953,432,181.6953,436,177.6953" style="stroke:#A80036;stroke-width:1.0;"/><line style="stroke:#A80036;stroke-width:1.0;" x1="69" x2="438" y1="177.6953" y2="177.6953"/><text fill="#000000" font-family="sans-serif" font-size="13" font-weight="bold" lengthAdjust="spacing" textLength="8" x="76" y="172.6294">3</text><text fill="#000000" font-family="sans-serif" font-size="13" lengthAdjust="spacing" textLength="200" x="88" y="172.6294">writes the name of the CSV file</text><polygon fill="#A80036" points="656,202.8281,666,206.8281,656,210.8281,660,206.8281" style="stroke:#A80036;stroke-width:1.0;"/><line style="stroke:#A80036;stroke-width:1.0;" x1="454" x2="662" y1="206.8281" y2="206.8281"/><text fill="#000000" font-family="sans-serif" font-size="13" font-weight="bold" lengthAdjust="spacing" textLength="9" x="461" y="201.7622">4</text><text fill="#000000" font-family="sans-serif" font-size="13" lengthAdjust="spacing" textLength="143" x="474" y="201.7622">importShips(fileName)</text><line style="stroke:#A80036;stroke-width:1.0;" x1="678" x2="720" y1="235.9609" y2="235.9609"/><line style="stroke:#A80036;stroke-width:1.0;" x1="720" x2="720" y1="235.9609" y2="248.9609"/><line style="stroke:#A80036;stroke-width:1.0;" x1="679" x2="720" y1="248.9609" y2="248.9609"/><polygon fill="#A80036" points="689,244.9609,679,248.9609,689,252.9609,685,248.9609" style="stroke:#A80036;stroke-width:1.0;"/><text fill="#000000" font-family="sans-serif" font-size="13" font-weight="bold" lengthAdjust="spacing" textLength="9" x="685" y="230.895">5</text><text fill="#000000" font-family="sans-serif" font-size="13" lengthAdjust="spacing" textLength="230" x="698" y="230.895">br = new BufferedReader(fileName)</text><line style="stroke:#A80036;stroke-width:1.0;" x1="678" x2="720" y1="278.0938" y2="278.0938"/><line style="stroke:#A80036;stroke-width:1.0;" x1="720" x2="720" y1="278.0938" y2="291.0938"/><line style="stroke:#A80036;stroke-width:1.0;" x1="679" x2="720" y1="291.0938" y2="291.0938"/><polygon fill="#A80036" points="689,287.0938,679,291.0938,689,295.0938,685,291.0938" style="stroke:#A80036;stroke-width:1.0;"/><text fill="#000000" font-family="sans-serif" font-size="13" font-weight="bold" lengthAdjust="spacing" textLength="9" x="685" y="273.0278">6</text><text fill="#000000" font-family="sans-serif" font-size="13" lengthAdjust="spacing" textLength="168" x="698" y="273.0278">String line = br.readLine();</text><line style="stroke:#A80036;stroke-width:1.0;" x1="678" x2="720" y1="320.2266" y2="320.2266"/><line style="stroke:#A80036;stroke-width:1.0;" x1="720" x2="720" y1="320.2266" y2="333.2266"/><line style="stroke:#A80036;stroke-width:1.0;" x1="679" x2="720" y1="333.2266" y2="333.2266"/><polygon fill="#A80036" points="689,329.2266,679,333.2266,689,337.2266,685,333.2266" style="stroke:#A80036;stroke-width:1.0;"/><text fill="#000000" font-family="sans-serif" font-size="13" font-weight="bold" lengthAdjust="spacing" textLength="9" x="685" y="315.1606">7</text><text fill="#000000" font-family="sans-serif" font-size="13" lengthAdjust="spacing" textLength="196" x="698" y="315.1606">String[] header = line.split(";");</text><polygon fill="#A80036" points="1009,358.3594,1019,362.3594,1009,366.3594,1013,362.3594" style="stroke:#A80036;stroke-width:1.0;"/><line style="stroke:#A80036;stroke-width:1.0;" x1="678" x2="1015" y1="362.3594" y2="362.3594"/><text fill="#000000" font-family="sans-serif" font-size="13" font-weight="bold" lengthAdjust="spacing" textLength="9" x="685" y="357.2935">8</text><text fill="#000000" font-family="sans-serif" font-size="13" lengthAdjust="spacing" textLength="66" x="698" y="357.2935">ship = null</text><path d="M597,407.3594 L675,407.3594 L675,414.3594 L665,424.3594 L597,424.3594 L597,407.3594 " fill="#EEEEEE" style="stroke:#000000;stroke-width:1.0;"/><rect fill="none" height="1631.3984" style="stroke:#000000;stroke-width:2.0;" width="2669.5" x="597" y="407.3594"/><text fill="#000000" font-family="sans-serif" font-size="13" font-weight="bold" lengthAdjust="spacing" textLength="33" x="612" y="420.4263">loop</text><text fill="#000000" font-family="sans-serif" font-size="11" font-weight="bold" lengthAdjust="spacing" textLength="323" x="690" y="419.5698">[for every line of the file (except the first line)]</text><line style="stroke:#A80036;stroke-width:1.0;" x1="678" x2="720" y1="445.625" y2="445.625"/><line style="stroke:#A80036;stroke-width:1.0;" x1="720" x2="720" y1="445.625" y2="458.625"/><line style="stroke:#A80036;stroke-width:1.0;" x1="679" x2="720" y1="458.625" y2="458.625"/><polygon fill="#A80036" points="689,454.625,679,458.625,689,462.625,685,458.625" style="stroke:#A80036;stroke-width:1.0;"/><text fill="#000000" font-family="sans-serif" font-size="13" font-weight="bold" lengthAdjust="spacing" textLength="9" x="685" y="440.5591">9</text><text fill="#000000" font-family="sans-serif" font-size="13" lengthAdjust="spacing" textLength="206" x="698" y="440.5591">String[] elements = line.split(";")</text><path d="M607,473.625 L673,473.625 L673,480.625 L663,490.625 L607,490.625 L607,473.625 " fill="#EEEEEE" style="stroke:#000000;stroke-width:1.0;"/><rect fill="none" height="730.5156" style="stroke:#000000;stroke-width:2.0;" width="2111.5" x="607" y="473.625"/><text fill="#000000" font-family="sans-serif" font-size="13" font-weight="bold" lengthAdjust="spacing" textLength="21" x="622" y="486.6919">alt</text><text fill="#000000" font-family="sans-serif" font-size="11" font-weight="bold" lengthAdjust="spacing" textLength="220" x="688" y="485.8354">[if(previous.getMMSI != text[0])]</text><polygon fill="#A80036" points="2282.5,507.8906,2292.5,511.8906,2282.5,515.8906,2286.5,511.8906" style="stroke:#A80036;stroke-width:1.0;"/><line style="stroke:#A80036;stroke-width:1.0;" x1="678" x2="2288.5" y1="511.8906" y2="511.8906"/><text fill="#000000" font-family="sans-serif" font-size="13" font-weight="bold" lengthAdjust="spacing" textLength="19" x="685" y="506.8247">10</text><text fill="#000000" font-family="sans-serif" font-size="13" lengthAdjust="spacing" textLength="136" x="708" y="506.8247">route = new Route();</text><rect fill="#FEFECE" filter="url(#fhqkobjehetif)" height="30.2969" style="stroke:#A80036;stroke-width:1.5;" width="57" x="2294.5" y="490.7578"/><text fill="#000000" font-family="sans-serif" font-size="14" lengthAdjust="spacing" textLength="43" x="2301.5" y="510.7529">Route</text><polygon fill="#A80036" points="1009,553.1875,1019,557.1875,1009,561.1875,1013,557.1875" style="stroke:#A80036;stroke-width:1.0;"/><line style="stroke:#A80036;stroke-width:1.0;" x1="678" x2="1015" y1="557.1875" y2="557.1875"/><text fill="#000000" font-family="sans-serif" font-size="13" font-weight="bold" lengthAdjust="spacing" textLength="18" x="685" y="552.1216">11</text><text fill="#000000" font-family="sans-serif" font-size="13" lengthAdjust="spacing" textLength="98" x="707" y="552.1216">mmsi = text[0]</text><polygon fill="#A80036" points="1009,612.3203,1019,616.3203,1009,620.3203,1013,616.3203" style="stroke:#A80036;stroke-width:1.0;"/><line style="stroke:#A80036;stroke-width:1.0;" x1="678" x2="1015" y1="616.3203" y2="616.3203"/><text fill="#000000" font-family="sans-serif" font-size="13" font-weight="bold" lengthAdjust="spacing" textLength="18" x="685" y="611.2544">12</text><text fill="#000000" font-family="sans-serif" font-size="13" lengthAdjust="spacing" textLength="141" x="707" y="611.2544">vesselName = text[7]</text><polygon fill="#A80036" points="1009,671.4531,1019,675.4531,1009,679.4531,1013,675.4531" style="stroke:#A80036;stroke-width:1.0;"/><line style="stroke:#A80036;stroke-width:1.0;" x1="678" x2="1015" y1="675.4531" y2="675.4531"/><text fill="#000000" font-family="sans-serif" font-size="13" font-weight="bold" lengthAdjust="spacing" textLength="17" x="685" y="670.3872">13</text><text fill="#000000" font-family="sans-serif" font-size="13" lengthAdjust="spacing" textLength="219" x="706" y="670.3872">imoIdentificationNumber = text[8]</text><polygon fill="#A80036" points="1009,730.5859,1019,734.5859,1009,738.5859,1013,734.5859" style="stroke:#A80036;stroke-width:1.0;"/><line style="stroke:#A80036;stroke-width:1.0;" x1="678" x2="1015" y1="734.5859" y2="734.5859"/><text fill="#000000" font-family="sans-serif" font-size="13" font-weight="bold" lengthAdjust="spacing" textLength="18" x="685" y="729.52">14</text><text fill="#000000" font-family="sans-serif" font-size="13" lengthAdjust="spacing" textLength="110" x="707" y="729.52">callSign = text[9]</text><polygon fill="#A80036" points="1009,789.7188,1019,793.7188,1009,797.7188,1013,793.7188" style="stroke:#A80036;stroke-width:1.0;"/><line style="stroke:#A80036;stroke-width:1.0;" x1="678" x2="1015" y1="793.7188" y2="793.7188"/><text fill="#000000" font-family="sans-serif" font-size="13" font-weight="bold" lengthAdjust="spacing" textLength="18" x="685" y="788.6528">15</text><text fill="#000000" font-family="sans-serif" font-size="13" lengthAdjust="spacing" textLength="143" x="707" y="788.6528">vesselType = text[10]</text><polygon fill="#A80036" points="1009,848.8516,1019,852.8516,1009,856.8516,1013,852.8516" style="stroke:#A80036;stroke-width:1.0;"/><line style="stroke:#A80036;stroke-width:1.0;" x1="678" x2="1015" y1="852.8516" y2="852.8516"/><text fill="#000000" font-family="sans-serif" font-size="13" font-weight="bold" lengthAdjust="spacing" textLength="18" x="685" y="847.7856">16</text><text fill="#000000" font-family="sans-serif" font-size="13" lengthAdjust="spacing" textLength="110" x="707" y="847.7856">length = text[11]</text><polygon fill="#A80036" points="1009,907.9844,1019,911.9844,1009,915.9844,1013,911.9844" style="stroke:#A80036;stroke-width:1.0;"/><line style="stroke:#A80036;stroke-width:1.0;" x1="678" x2="1015" y1="911.9844" y2="911.9844"/><text fill="#000000" font-family="sans-serif" font-size="13" font-weight="bold" lengthAdjust="spacing" textLength="18" x="685" y="906.9185">17</text><text fill="#000000" font-family="sans-serif" font-size="13" lengthAdjust="spacing" textLength="105" x="707" y="906.9185">width = text[12]</text><polygon fill="#A80036" points="1009,967.1172,1019,971.1172,1009,975.1172,1013,971.1172" style="stroke:#A80036;stroke-width:1.0;"/><line style="stroke:#A80036;stroke-width:1.0;" x1="678" x2="1015" y1="971.1172" y2="971.1172"/><text fill="#000000" font-family="sans-serif" font-size="13" font-weight="bold" lengthAdjust="spacing" textLength="18" x="685" y="966.0513">18</text><text fill="#000000" font-family="sans-serif" font-size="13" lengthAdjust="spacing" textLength="101" x="707" y="966.0513">draft = text[13]</text><polygon fill="#A80036" points="2353.5,1026.25,2363.5,1030.25,2353.5,1034.25,2357.5,1030.25" style="stroke:#A80036;stroke-width:1.0;"/><line style="stroke:#A80036;stroke-width:1.0;" x1="678" x2="2359.5" y1="1030.25" y2="1030.25"/><text fill="#000000" font-family="sans-serif" font-size="13" font-weight="bold" lengthAdjust="spacing" textLength="18" x="685" y="1025.1841">19</text><text fill="#000000" font-family="sans-serif" font-size="13" lengthAdjust="spacing" textLength="358" x="707" y="1025.1841">idShip = Identification(mmsi, vesselName, imo, callsign)</text><rect fill="#FEFECE" filter="url(#fhqkobjehetif)" height="30.2969" style="stroke:#A80036;stroke-width:1.5;" width="111" x="2365.5" y="1009.1172"/><text fill="#000000" font-family="sans-serif" font-size="14" lengthAdjust="spacing" textLength="97" x="2372.5" y="1029.1123">Identification</text><polygon fill="#A80036" points="2478.5,1071.5469,2488.5,1075.5469,2478.5,1079.5469,2482.5,1075.5469" style="stroke:#A80036;stroke-width:1.0;"/><line style="stroke:#A80036;stroke-width:1.0;" x1="678" x2="2484.5" y1="1075.5469" y2="1075.5469"/><text fill="#000000" font-family="sans-serif" font-size="13" font-weight="bold" lengthAdjust="spacing" textLength="19" x="685" y="1070.481">20</text><text fill="#000000" font-family="sans-serif" font-size="13" lengthAdjust="spacing" textLength="446" x="708" y="1070.481">characteristics = ShipCharacteristics(vesselType, length, width, draft)</text><rect fill="#FEFECE" filter="url(#fhqkobjehetif)" height="30.2969" style="stroke:#A80036;stroke-width:1.5;" width="154" x="2490.5" y="1054.4141"/><text fill="#000000" font-family="sans-serif" font-size="14" lengthAdjust="spacing" textLength="140" x="2497.5" y="1074.4092">ShipCharacteristics</text><polygon fill="#A80036" points="2646.5,1116.8438,2656.5,1120.8438,2646.5,1124.8438,2650.5,1120.8438" style="stroke:#A80036;stroke-width:1.0;"/><line style="stroke:#A80036;stroke-width:1.0;" x1="678" x2="2652.5" y1="1120.8438" y2="1120.8438"/><text fill="#000000" font-family="sans-serif" font-size="13" font-weight="bold" lengthAdjust="spacing" textLength="18" x="685" y="1115.7778">21</text><text fill="#000000" font-family="sans-serif" font-size="13" lengthAdjust="spacing" textLength="286" x="707" y="1115.7778">ship = new Ship(idShip, characteristics, null);</text><rect fill="#FEFECE" filter="url(#fhqkobjehetif)" height="30.2969" style="stroke:#A80036;stroke-width:1.5;" width="46" x="2658.5" y="1099.7109"/><text fill="#000000" font-family="sans-serif" font-size="14" lengthAdjust="spacing" textLength="32" x="2665.5" y="1119.7061">Ship</text><polygon fill="#A80036" points="2014.5,1162.1406,2024.5,1166.1406,2014.5,1170.1406,2018.5,1166.1406" style="stroke:#A80036;stroke-width:1.0;"/><line style="stroke:#A80036;stroke-width:1.0;" x1="678" x2="2020.5" y1="1166.1406" y2="1166.1406"/><text fill="#000000" font-family="sans-serif" font-size="13" font-weight="bold" lengthAdjust="spacing" textLength="18" x="685" y="1161.0747">22</text><text fill="#000000" font-family="sans-serif" font-size="13" lengthAdjust="spacing" textLength="97" x="707" y="1161.0747">ships.add(ship)</text><polygon fill="#A80036" points="1009,1228.2734,1019,1232.2734,1009,1236.2734,1013,1232.2734" style="stroke:#A80036;stroke-width:1.0;"/><line style="stroke:#A80036;stroke-width:1.0;" x1="678" x2="1015" y1="1232.2734" y2="1232.2734"/><text fill="#000000" font-family="sans-serif" font-size="13" font-weight="bold" lengthAdjust="spacing" textLength="17" x="685" y="1227.2075">23</text><text fill="#000000" font-family="sans-serif" font-size="13" lengthAdjust="spacing" textLength="156" x="706" y="1227.2075">baseDateTime = text[1]</text><polygon fill="#A80036" points="1009,1287.4063,1019,1291.4063,1009,1295.4063,1013,1291.4063" style="stroke:#A80036;stroke-width:1.0;"/><line style="stroke:#A80036;stroke-width:1.0;" x1="678" x2="1015" y1="1291.4063" y2="1291.4063"/><text fill="#000000" font-family="sans-serif" font-size="13" font-weight="bold" lengthAdjust="spacing" textLength="18" x="685" y="1286.3403">24</text><text fill="#000000" font-family="sans-serif" font-size="13" lengthAdjust="spacing" textLength="110" x="707" y="1286.3403">latitude = text[2]</text><polygon fill="#A80036" points="1009,1346.5391,1019,1350.5391,1009,1354.5391,1013,1350.5391" style="stroke:#A80036;stroke-width:1.0;"/><line style="stroke:#A80036;stroke-width:1.0;" x1="678" x2="1015" y1="1350.5391" y2="1350.5391"/><text fill="#000000" font-family="sans-serif" font-size="13" font-weight="bold" lengthAdjust="spacing" textLength="18" x="685" y="1345.4731">25</text><text fill="#000000" font-family="sans-serif" font-size="13" lengthAdjust="spacing" textLength="121" x="707" y="1345.4731">longitude = text[3]</text><polygon fill="#A80036" points="1009,1405.6719,1019,1409.6719,1009,1413.6719,1013,1409.6719" style="stroke:#A80036;stroke-width:1.0;"/><line style="stroke:#A80036;stroke-width:1.0;" x1="678" x2="1015" y1="1409.6719" y2="1409.6719"/><text fill="#000000" font-family="sans-serif" font-size="13" font-weight="bold" lengthAdjust="spacing" textLength="18" x="685" y="1404.606">26</text><text fill="#000000" font-family="sans-serif" font-size="13" lengthAdjust="spacing" textLength="85" x="707" y="1404.606">sog = text[4]</text><polygon fill="#A80036" points="1009,1464.8047,1019,1468.8047,1009,1472.8047,1013,1468.8047" style="stroke:#A80036;stroke-width:1.0;"/><line style="stroke:#A80036;stroke-width:1.0;" x1="678" x2="1015" y1="1468.8047" y2="1468.8047"/><text fill="#000000" font-family="sans-serif" font-size="13" font-weight="bold" lengthAdjust="spacing" textLength="18" x="685" y="1463.7388">27</text><text fill="#000000" font-family="sans-serif" font-size="13" lengthAdjust="spacing" textLength="85" x="707" y="1463.7388">cog = text[5]</text><polygon fill="#A80036" points="1009,1523.9375,1019,1527.9375,1009,1531.9375,1013,1527.9375" style="stroke:#A80036;stroke-width:1.0;"/><line style="stroke:#A80036;stroke-width:1.0;" x1="678" x2="1015" y1="1527.9375" y2="1527.9375"/><text fill="#000000" font-family="sans-serif" font-size="13" font-weight="bold" lengthAdjust="spacing" textLength="18" x="685" y="1522.8716">28</text><text fill="#000000" font-family="sans-serif" font-size="13" lengthAdjust="spacing" textLength="113" x="707" y="1522.8716">heading = text[6]</text><polygon fill="#A80036" points="1009,1583.0703,1019,1587.0703,1009,1591.0703,1013,1587.0703" style="stroke:#A80036;stroke-width:1.0;"/><line style="stroke:#A80036;stroke-width:1.0;" x1="678" x2="1015" y1="1587.0703" y2="1587.0703"/><text fill="#000000" font-family="sans-serif" font-size="13" font-weight="bold" lengthAdjust="spacing" textLength="18" x="685" y="1582.0044">29</text><text fill="#000000" font-family="sans-serif" font-size="13" lengthAdjust="spacing" textLength="106" x="707" y="1582.0044">cargo = text[14]</text><polygon fill="#A80036" points="1009,1642.2031,1019,1646.2031,1009,1650.2031,1013,1646.2031" style="stroke:#A80036;stroke-width:1.0;"/><line style="stroke:#A80036;stroke-width:1.0;" x1="678" x2="1015" y1="1646.2031" y2="1646.2031"/><text fill="#000000" font-family="sans-serif" font-size="13" font-weight="bold" lengthAdjust="spacing" textLength="18" x="685" y="1641.1372">30</text><text fill="#000000" font-family="sans-serif" font-size="13" lengthAdjust="spacing" textLength="176" x="707" y="1641.1372">transceiverClass = text[15]</text><polygon fill="#A80036" points="2706.5,1701.3359,2716.5,1705.3359,2706.5,1709.3359,2710.5,1705.3359" style="stroke:#A80036;stroke-width:1.0;"/><line style="stroke:#A80036;stroke-width:1.0;" x1="678" x2="2712.5" y1="1705.3359" y2="1705.3359"/><text fill="#000000" font-family="sans-serif" font-size="13" font-weight="bold" lengthAdjust="spacing" textLength="17" x="685" y="1700.27">31</text><text fill="#000000" font-family="sans-serif" font-size="13" lengthAdjust="spacing" textLength="615" x="706" y="1700.27">shipDynamic = new ShipDynamic(baseDateTime, location, movement, cargo, transceiverClass)</text><rect fill="#FEFECE" filter="url(#fhqkobjehetif)" height="30.2969" style="stroke:#A80036;stroke-width:1.5;" width="108" x="2718.5" y="1684.2031"/><text fill="#000000" font-family="sans-serif" font-size="14" lengthAdjust="spacing" textLength="94" x="2725.5" y="1704.1982">ShipDynamic</text><polygon fill="#A80036" points="3059.5,1746.6328,3069.5,1750.6328,3059.5,1754.6328,3063.5,1750.6328" style="stroke:#A80036;stroke-width:1.0;"/><line style="stroke:#A80036;stroke-width:1.0;" x1="2779.5" x2="3065.5" y1="1750.6328" y2="1750.6328"/><text fill="#000000" font-family="sans-serif" font-size="13" font-weight="bold" lengthAdjust="spacing" textLength="17" x="2786.5" y="1745.5669">32</text><text fill="#000000" font-family="sans-serif" font-size="13" lengthAdjust="spacing" textLength="247" x="2807.5" y="1745.5669">location = Location[longitude, latitude]</text><rect fill="#FEFECE" filter="url(#fhqkobjehetif)" height="30.2969" style="stroke:#A80036;stroke-width:1.5;" width="76" x="3071.5" y="1729.5"/><text fill="#000000" font-family="sans-serif" font-size="14" lengthAdjust="spacing" textLength="62" x="3078.5" y="1749.4951">Location</text><polygon fill="#A80036" points="3149.5,1791.9297,3159.5,1795.9297,3149.5,1799.9297,3153.5,1795.9297" style="stroke:#A80036;stroke-width:1.0;"/><line style="stroke:#A80036;stroke-width:1.0;" x1="2774.5" x2="3155.5" y1="1795.9297" y2="1795.9297"/><text fill="#000000" font-family="sans-serif" font-size="13" font-weight="bold" lengthAdjust="spacing" textLength="16" x="2781.5" y="1790.8638">33</text><text fill="#000000" font-family="sans-serif" font-size="13" lengthAdjust="spacing" textLength="280" x="2801.5" y="1790.8638">movement = Movement[sog, cog, heading]</text><rect fill="#FEFECE" filter="url(#fhqkobjehetif)" height="30.2969" style="stroke:#A80036;stroke-width:1.5;" width="91" x="3161.5" y="1774.7969"/><text fill="#000000" font-family="sans-serif" font-size="14" lengthAdjust="spacing" textLength="77" x="3168.5" y="1794.792">Movement</text><polygon fill="#A80036" points="2308,1837.2266,2318,1841.2266,2308,1845.2266,2312,1841.2266" style="stroke:#A80036;stroke-width:1.0;"/><line style="stroke:#A80036;stroke-width:1.0;" x1="678" x2="2314" y1="1841.2266" y2="1841.2266"/><text fill="#000000" font-family="sans-serif" font-size="13" font-weight="bold" lengthAdjust="spacing" textLength="17" x="685" y="1836.1606">34</text><text fill="#000000" font-family="sans-serif" font-size="13" lengthAdjust="spacing" textLength="155" x="706" y="1836.1606">route.add(shipDynamic)</text><polygon fill="#A80036" points="2666.5,1896.3594,2676.5,1900.3594,2666.5,1904.3594,2670.5,1900.3594" style="stroke:#A80036;stroke-width:1.0;"/><line style="stroke:#A80036;stroke-width:1.0;" x1="678" x2="2672.5" y1="1900.3594" y2="1900.3594"/><text fill="#000000" font-family="sans-serif" font-size="13" font-weight="bold" lengthAdjust="spacing" textLength="17" x="685" y="1895.2935">35</text><text fill="#000000" font-family="sans-serif" font-size="13" lengthAdjust="spacing" textLength="137" x="706" y="1895.2935">ship.setRoute(route);</text><polygon fill="#A80036" points="1009,1955.4922,1019,1959.4922,1009,1963.4922,1013,1959.4922" style="stroke:#A80036;stroke-width:1.0;"/><line style="stroke:#A80036;stroke-width:1.0;" x1="678" x2="1015" y1="1959.4922" y2="1959.4922"/><text fill="#000000" font-family="sans-serif" font-size="13" font-weight="bold" lengthAdjust="spacing" textLength="17" x="685" y="1954.4263">36</text><text fill="#000000" font-family="sans-serif" font-size="13" lengthAdjust="spacing" textLength="303" x="706" y="1954.4263">ship = createShip(idShip, characteristics, route)</text><polygon fill="#A80036" points="2105,1984.625,2115,1988.625,2105,1992.625,2109,1988.625" style="stroke:#A80036;stroke-width:1.0;"/><line style="stroke:#A80036;stroke-width:1.0;" x1="1026" x2="2111" y1="1988.625" y2="1988.625"/><text fill="#000000" font-family="sans-serif" font-size="13" font-weight="bold" lengthAdjust="spacing" textLength="17" x="1033" y="1983.5591">37</text><text fill="#000000" font-family="sans-serif" font-size="13" lengthAdjust="spacing" textLength="177" x="1054" y="1983.5591">shipRoute = getRoute(ship)</text><line style="stroke:#A80036;stroke-width:1.0;" x1="2127" x2="2169" y1="2022.7578" y2="2022.7578"/><line style="stroke:#A80036;stroke-width:1.0;" x1="2169" x2="2169" y1="2022.7578" y2="2035.7578"/><line style="stroke:#A80036;stroke-width:1.0;" x1="2122" x2="2169" y1="2035.7578" y2="2035.7578"/><polygon fill="#A80036" points="2132,2031.7578,2122,2035.7578,2132,2039.7578,2128,2035.7578" style="stroke:#A80036;stroke-width:1.0;"/><text fill="#000000" font-family="sans-serif" font-size="13" font-weight="bold" lengthAdjust="spacing" textLength="17" x="2134" y="2017.6919">38</text><text fill="#000000" font-family="sans-serif" font-size="13" lengthAdjust="spacing" textLength="158" x="2155" y="2017.6919">route.add(dynamicData)</text><polygon fill="#A80036" points="465,2062.8906,455,2066.8906,465,2070.8906,461,2066.8906" style="stroke:#A80036;stroke-width:1.0;"/><line style="stroke:#A80036;stroke-width:1.0;stroke-dasharray:2.0,2.0;" x1="459" x2="667" y1="2066.8906" y2="2066.8906"/><text fill="#000000" font-family="sans-serif" font-size="13" font-weight="bold" lengthAdjust="spacing" textLength="17" x="471" y="2061.8247">39</text><text fill="#000000" font-family="sans-serif" font-size="13" lengthAdjust="spacing" textLength="169" x="492" y="2061.8247">informs operation success</text><polygon fill="#A80036" points="80,2092.0234,70,2096.0234,80,2100.0234,76,2096.0234" style="stroke:#A80036;stroke-width:1.0;"/><line style="stroke:#A80036;stroke-width:1.0;" x1="74" x2="443" y1="2096.0234" y2="2096.0234"/><text fill="#000000" font-family="sans-serif" font-size="13" font-weight="bold" lengthAdjust="spacing" textLength="19" x="86" y="2090.9575">40</text><text fill="#000000" font-family="sans-serif" font-size="13" lengthAdjust="spacing" textLength="169" x="109" y="2090.9575">informs operation success</text><!--MD5=[d40ce5183e124641ecca9da55c11e2a2]
@startuml
autonumber
actor "Traffic Manager" as REC

participant  ":importShipsTest" as LabCoo
participant ":importShips" as UI
participant ":shipController" as CTRL
participant ":Company" as CMP

participant ":Identification" as identification
participant ":ShipEnergy" as shipEnergy
participant ":ShipCharacteristics" as shipCharacteristics
participant ":Location" as location
participant ":MovementData" as movementData
participant ":ShipDynamic" as shipDynamic
participant ":ShipStore" as shipStore
participant ":Route" as route



activate REC
REC -> LabCoo : chooses to import ships' informations from a CSV File
activate LabCoo
LabCoo - -> REC : asks the name of the file it wants to import
deactivate LabCoo
REC -> LabCoo : writes the name of the CSV file
activate LabCoo

LabCoo -> UI : importShips(fileName)
activate UI



UI -> UI : br = new BufferedReader(fileName)
UI -> UI : String line = br.readLine();
UI -> UI : String[] header = line.split(";");




UI -> CTRL : ship = null
activate CTRL
deactivate CTRL
loop for every line of the file (except the first line)

UI -> UI: String[] elements = line.split(";")
alt if(previous.getMMSI != text[0])
UI -> Route** : route = new Route();
UI -> CTRL : mmsi = text[0]
activate CTRL
deactivate CTRL
UI -> CTRL : vesselName = text[7]
activate CTRL
deactivate CTRL
UI -> CTRL : imoIdentificationNumber = text[8]
activate CTRL
deactivate CTRL
UI -> CTRL : callSign = text[9]
activate CTRL
deactivate CTRL
UI -> CTRL : vesselType = text[10]
activate CTRL
deactivate CTRL
UI -> CTRL : length = text[11]
activate CTRL
deactivate CTRL
UI -> CTRL : width = text[12]
activate CTRL
deactivate CTRL
UI -> CTRL : draft = text[13]
activate CTRL
deactivate CTRL

UI -> Identification**: idShip = Identification(mmsi, vesselName, imo, callsign)

UI -> ShipCharacteristics** : characteristics = ShipCharacteristics(vesselType, length, width, draft)

UI -> Ship** : ship = new Ship(idShip, characteristics, null);

UI -> shipStore : ships.add(ship)
activate shipStore
deactivate shipStore
end

UI -> CTRL : baseDateTime = text[1]
activate CTRL
deactivate CTRL
UI -> CTRL : latitude = text[2]
activate CTRL
deactivate CTRL
UI -> CTRL : longitude = text[3]

activate CTRL
deactivate CTRL
UI -> CTRL : sog = text[4]

activate CTRL
deactivate CTRL
UI -> CTRL : cog = text[5]

activate CTRL
deactivate CTRL
UI -> CTRL : heading = text[6]

activate CTRL
deactivate CTRL
UI -> CTRL : cargo = text[14]

activate CTRL
deactivate CTRL
UI -> CTRL : transceiverClass = text[15]

activate CTRL
deactivate CTRL

UI -> ShipDynamic** : shipDynamic = new ShipDynamic(baseDateTime, location, movement, cargo, transceiverClass)
activate ShipDynamic
ShipDynamic -> Location**: location = Location[longitude, latitude]
ShipDynamic -> Movement**: movement = Movement[sog, cog, heading]
deactivate ShipDynamic
UI -> Route: route.add(shipDynamic)
activate Route
deactivate Route
UI -> Ship: ship.setRoute(route);
activate Ship
deactivate Ship

UI -> CTRL : ship = createShip(idShip, characteristics, route)

activate CTRL

CTRL-> route: shipRoute = getRoute(ship)
deactivate CTRL
activate route


route-> route: route.add(dynamicData)

deactivate route



end
deactivate shipStore
UI - -> LabCoo : informs operation success
LabCoo -> REC : informs operation success
@enduml

PlantUML version 1.2021.14beta6(Unknown compile time)
(GPL source distribution)
Java Runtime: Java(TM) SE Runtime Environment
JVM: Java HotSpot(TM) 64-Bit Server VM
Default Encoding: UTF-8
Language: en
Country: US
--></g></svg>