<?xml version="1.0" encoding="UTF-8" standalone="no"?><svg xmlns="http://www.w3.org/2000/svg" xmlns:xlink="http://www.w3.org/1999/xlink" contentScriptType="application/ecmascript" contentStyleType="text/css" height="373px" preserveAspectRatio="none" style="width:919px;height:373px;background:#FFFFFF;" version="1.1" viewBox="0 0 919 373" width="919px" zoomAndPan="magnify"><defs><filter height="300%" id="fnvpz3datenb4" width="300%" x="-1" y="-1"><feGaussianBlur result="blurOut" stdDeviation="2.0"/><feColorMatrix in="blurOut" result="blurOut2" type="matrix" values="0 0 0 0 0 0 0 0 0 0 0 0 0 0 0 0 0 0 .4 0"/><feOffset dx="4.0" dy="4.0" in="blurOut2" result="blurOut3"/><feBlend in="SourceGraphic" in2="blurOut3" mode="normal"/></filter></defs><g><!--MD5=[0dc7f2ddb409b58bcf52b12238c25399]
class Ship--><rect codeLine="3" fill="#FEFECE" filter="url(#fnvpz3datenb4)" height="188.8516" id="Ship" style="stroke:#A80036;stroke-width:1.5;" width="177" x="252" y="7"/><ellipse cx="323.25" cy="23" fill="#ADD1B2" rx="11" ry="11" style="stroke:#A80036;stroke-width:1.0;"/><path d="M325.5938,18.6719 C324.6563,18.2344 324.0625,18.0938 323.1875,18.0938 C320.5625,18.0938 318.5625,20.1719 318.5625,22.8906 L318.5625,24.0156 C318.5625,26.5938 320.6719,28.4844 323.5625,28.4844 C324.7813,28.4844 325.9375,28.1875 326.6875,27.6406 C327.2656,27.2344 327.5938,26.7813 327.5938,26.3906 C327.5938,25.9375 327.2031,25.5469 326.7344,25.5469 C326.5156,25.5469 326.3125,25.625 326.125,25.8125 C325.6719,26.2969 325.6719,26.2969 325.4844,26.3906 C325.0625,26.6563 324.375,26.7813 323.6094,26.7813 C321.5625,26.7813 320.2656,25.6875 320.2656,23.9844 L320.2656,22.8906 C320.2656,21.1094 321.5156,19.7969 323.25,19.7969 C323.8281,19.7969 324.4375,19.9531 324.9063,20.2031 C325.3906,20.4844 325.5625,20.7031 325.6563,21.1094 C325.7188,21.5156 325.75,21.6406 325.8906,21.7656 C326.0313,21.9063 326.2656,22.0156 326.4844,22.0156 C326.75,22.0156 327.0156,21.875 327.1875,21.6563 C327.2969,21.5 327.3281,21.3125 327.3281,20.8906 L327.3281,19.4688 C327.3281,19.0313 327.3125,18.9063 327.2188,18.75 C327.0625,18.4844 326.7813,18.3438 326.4844,18.3438 C326.1875,18.3438 325.9844,18.4375 325.7656,18.75 L325.5938,18.6719 Z " fill="#000000"/><text fill="#000000" font-family="sans-serif" font-size="12" lengthAdjust="spacing" textLength="26" x="343.75" y="27.1543">Ship</text><line style="stroke:#A80036;stroke-width:1.5;" x1="253" x2="428" y1="39" y2="39"/><text fill="#000000" font-family="sans-serif" font-size="11" lengthAdjust="spacing" textLength="33" x="258" y="53.2104">-MMSI</text><text fill="#000000" font-family="sans-serif" font-size="11" lengthAdjust="spacing" textLength="37" x="258" y="66.0151">-name</text><text fill="#000000" font-family="sans-serif" font-size="11" lengthAdjust="spacing" textLength="81" x="258" y="78.8198">-IMOIDnumber</text><text fill="#000000" font-family="sans-serif" font-size="11" lengthAdjust="spacing" textLength="165" x="258" y="91.6245">-numberOfEnergyGenerators</text><text fill="#000000" font-family="sans-serif" font-size="11" lengthAdjust="spacing" textLength="132" x="258" y="104.4292">-generatorPowerOutput</text><text fill="#000000" font-family="sans-serif" font-size="11" lengthAdjust="spacing" textLength="48" x="258" y="117.2339">-callSign</text><text fill="#000000" font-family="sans-serif" font-size="11" lengthAdjust="spacing" textLength="101" x="258" y="130.0386">-vesselTypeCode</text><text fill="#000000" font-family="sans-serif" font-size="11" lengthAdjust="spacing" textLength="34" x="258" y="142.8433">-width</text><text fill="#000000" font-family="sans-serif" font-size="11" lengthAdjust="spacing" textLength="40" x="258" y="155.6479">-length</text><text fill="#000000" font-family="sans-serif" font-size="11" lengthAdjust="spacing" textLength="51" x="258" y="168.4526">-capacity</text><text fill="#000000" font-family="sans-serif" font-size="11" lengthAdjust="spacing" textLength="30" x="258" y="181.2573">-draft</text><line style="stroke:#A80036;stroke-width:1.5;" x1="253" x2="428" y1="187.8516" y2="187.8516"/><!--MD5=[ddaf6f62b0bc30921877ec9fb9463c9f]
class TrafficManager--><rect codeLine="17" fill="#FEFECE" filter="url(#fnvpz3datenb4)" height="73.6094" id="TrafficManager" style="stroke:#A80036;stroke-width:1.5;" width="121" x="7" y="16.5"/><ellipse cx="22" cy="32.5" fill="#ADD1B2" rx="11" ry="11" style="stroke:#A80036;stroke-width:1.0;"/><path d="M24.3438,28.1719 C23.4063,27.7344 22.8125,27.5938 21.9375,27.5938 C19.3125,27.5938 17.3125,29.6719 17.3125,32.3906 L17.3125,33.5156 C17.3125,36.0938 19.4219,37.9844 22.3125,37.9844 C23.5313,37.9844 24.6875,37.6875 25.4375,37.1406 C26.0156,36.7344 26.3438,36.2813 26.3438,35.8906 C26.3438,35.4375 25.9531,35.0469 25.4844,35.0469 C25.2656,35.0469 25.0625,35.125 24.875,35.3125 C24.4219,35.7969 24.4219,35.7969 24.2344,35.8906 C23.8125,36.1563 23.125,36.2813 22.3594,36.2813 C20.3125,36.2813 19.0156,35.1875 19.0156,33.4844 L19.0156,32.3906 C19.0156,30.6094 20.2656,29.2969 22,29.2969 C22.5781,29.2969 23.1875,29.4531 23.6563,29.7031 C24.1406,29.9844 24.3125,30.2031 24.4063,30.6094 C24.4688,31.0156 24.5,31.1406 24.6406,31.2656 C24.7813,31.4063 25.0156,31.5156 25.2344,31.5156 C25.5,31.5156 25.7656,31.375 25.9375,31.1563 C26.0469,31 26.0781,30.8125 26.0781,30.3906 L26.0781,28.9688 C26.0781,28.5313 26.0625,28.4063 25.9688,28.25 C25.8125,27.9844 25.5313,27.8438 25.2344,27.8438 C24.9375,27.8438 24.7344,27.9375 24.5156,28.25 L24.3438,28.1719 Z " fill="#000000"/><text fill="#000000" font-family="sans-serif" font-size="12" lengthAdjust="spacing" textLength="89" x="36" y="36.6543">TrafficManager</text><line style="stroke:#A80036;stroke-width:1.5;" x1="8" x2="127" y1="48.5" y2="48.5"/><text fill="#000000" font-family="sans-serif" font-size="11" lengthAdjust="spacing" textLength="41" x="13" y="62.7104">-userID</text><text fill="#000000" font-family="sans-serif" font-size="11" lengthAdjust="spacing" textLength="37" x="13" y="75.5151">-name</text><line style="stroke:#A80036;stroke-width:1.5;" x1="8" x2="127" y1="82.1094" y2="82.1094"/><!--MD5=[19c2b9eb46691e25b02426140995a460]
class ShipDynamic--><rect codeLine="21" fill="#FEFECE" filter="url(#fnvpz3datenb4)" height="150.4375" id="ShipDynamic" style="stroke:#A80036;stroke-width:1.5;" width="110" x="795" y="112.5"/><ellipse cx="810.45" cy="128.5" fill="#ADD1B2" rx="11" ry="11" style="stroke:#A80036;stroke-width:1.0;"/><path d="M812.7938,124.1719 C811.8563,123.7344 811.2625,123.5938 810.3875,123.5938 C807.7625,123.5938 805.7625,125.6719 805.7625,128.3906 L805.7625,129.5156 C805.7625,132.0938 807.8719,133.9844 810.7625,133.9844 C811.9813,133.9844 813.1375,133.6875 813.8875,133.1406 C814.4656,132.7344 814.7938,132.2813 814.7938,131.8906 C814.7938,131.4375 814.4031,131.0469 813.9344,131.0469 C813.7156,131.0469 813.5125,131.125 813.325,131.3125 C812.8719,131.7969 812.8719,131.7969 812.6844,131.8906 C812.2625,132.1563 811.575,132.2813 810.8094,132.2813 C808.7625,132.2813 807.4656,131.1875 807.4656,129.4844 L807.4656,128.3906 C807.4656,126.6094 808.7156,125.2969 810.45,125.2969 C811.0281,125.2969 811.6375,125.4531 812.1063,125.7031 C812.5906,125.9844 812.7625,126.2031 812.8563,126.6094 C812.9188,127.0156 812.95,127.1406 813.0906,127.2656 C813.2313,127.4063 813.4656,127.5156 813.6844,127.5156 C813.95,127.5156 814.2156,127.375 814.3875,127.1563 C814.4969,127 814.5281,126.8125 814.5281,126.3906 L814.5281,124.9688 C814.5281,124.5313 814.5125,124.4063 814.4188,124.25 C814.2625,123.9844 813.9813,123.8438 813.6844,123.8438 C813.3875,123.8438 813.1844,123.9375 812.9656,124.25 L812.7938,124.1719 Z " fill="#000000"/><text fill="#000000" font-family="sans-serif" font-size="12" lengthAdjust="spacing" textLength="77" x="824.55" y="132.6543">ShipDynamic</text><line style="stroke:#A80036;stroke-width:1.5;" x1="796" x2="904" y1="144.5" y2="144.5"/><text fill="#000000" font-family="sans-serif" font-size="11" lengthAdjust="spacing" textLength="89" x="801" y="158.7104">-baseDateTime</text><text fill="#000000" font-family="sans-serif" font-size="11" lengthAdjust="spacing" textLength="47" x="801" y="171.5151">-latitude</text><text fill="#000000" font-family="sans-serif" font-size="11" lengthAdjust="spacing" textLength="57" x="801" y="184.3198">-longitude</text><text fill="#000000" font-family="sans-serif" font-size="11" lengthAdjust="spacing" textLength="30" x="801" y="197.1245">-SOG</text><text fill="#000000" font-family="sans-serif" font-size="11" lengthAdjust="spacing" textLength="30" x="801" y="209.9292">-COG</text><text fill="#000000" font-family="sans-serif" font-size="11" lengthAdjust="spacing" textLength="50" x="801" y="222.7339">-heading</text><text fill="#000000" font-family="sans-serif" font-size="11" lengthAdjust="spacing" textLength="48" x="801" y="235.5386">-position</text><text fill="#000000" font-family="sans-serif" font-size="11" lengthAdjust="spacing" textLength="98" x="801" y="248.3433">-transceiverClass</text><line style="stroke:#A80036;stroke-width:1.5;" x1="796" x2="904" y1="254.9375" y2="254.9375"/><!--MD5=[82dc263f563d227779ba81db65b2fd4d]
class Identification--><rect codeLine="32" fill="#FEFECE" filter="url(#fnvpz3datenb4)" height="99.2188" id="Identification" style="stroke:#A80036;stroke-width:1.5;" width="108" x="558" y="23"/><ellipse cx="573" cy="39" fill="#ADD1B2" rx="11" ry="11" style="stroke:#A80036;stroke-width:1.0;"/><path d="M575.3438,34.6719 C574.4063,34.2344 573.8125,34.0938 572.9375,34.0938 C570.3125,34.0938 568.3125,36.1719 568.3125,38.8906 L568.3125,40.0156 C568.3125,42.5938 570.4219,44.4844 573.3125,44.4844 C574.5313,44.4844 575.6875,44.1875 576.4375,43.6406 C577.0156,43.2344 577.3438,42.7813 577.3438,42.3906 C577.3438,41.9375 576.9531,41.5469 576.4844,41.5469 C576.2656,41.5469 576.0625,41.625 575.875,41.8125 C575.4219,42.2969 575.4219,42.2969 575.2344,42.3906 C574.8125,42.6563 574.125,42.7813 573.3594,42.7813 C571.3125,42.7813 570.0156,41.6875 570.0156,39.9844 L570.0156,38.8906 C570.0156,37.1094 571.2656,35.7969 573,35.7969 C573.5781,35.7969 574.1875,35.9531 574.6563,36.2031 C575.1406,36.4844 575.3125,36.7031 575.4063,37.1094 C575.4688,37.5156 575.5,37.6406 575.6406,37.7656 C575.7813,37.9063 576.0156,38.0156 576.2344,38.0156 C576.5,38.0156 576.7656,37.875 576.9375,37.6563 C577.0469,37.5 577.0781,37.3125 577.0781,36.8906 L577.0781,35.4688 C577.0781,35.0313 577.0625,34.9063 576.9688,34.75 C576.8125,34.4844 576.5313,34.3438 576.2344,34.3438 C575.9375,34.3438 575.7344,34.4375 575.5156,34.75 L575.3438,34.6719 Z " fill="#000000"/><text fill="#000000" font-family="sans-serif" font-size="12" lengthAdjust="spacing" textLength="76" x="587" y="43.1543">Identification</text><line style="stroke:#A80036;stroke-width:1.5;" x1="559" x2="665" y1="55" y2="55"/><text fill="#000000" font-family="sans-serif" font-size="11" lengthAdjust="spacing" textLength="35" x="564" y="69.2104">-mmsi</text><text fill="#000000" font-family="sans-serif" font-size="11" lengthAdjust="spacing" textLength="61" x="564" y="82.0151">-shipName</text><text fill="#000000" font-family="sans-serif" font-size="11" lengthAdjust="spacing" textLength="48" x="564" y="94.8198">-callSign</text><text fill="#000000" font-family="sans-serif" font-size="11" lengthAdjust="spacing" textLength="37" x="564" y="107.6245">-imoID</text><line style="stroke:#A80036;stroke-width:1.5;" x1="559" x2="665" y1="114.2188" y2="114.2188"/><!--MD5=[2523412913e10183997a259215d888d9]
class Characteristics--><rect codeLine="39" fill="#FEFECE" filter="url(#fnvpz3datenb4)" height="112.0234" id="Characteristics" style="stroke:#A80036;stroke-width:1.5;" width="121" x="280" y="247.5"/><ellipse cx="295" cy="263.5" fill="#ADD1B2" rx="11" ry="11" style="stroke:#A80036;stroke-width:1.0;"/><path d="M297.3438,259.1719 C296.4063,258.7344 295.8125,258.5938 294.9375,258.5938 C292.3125,258.5938 290.3125,260.6719 290.3125,263.3906 L290.3125,264.5156 C290.3125,267.0938 292.4219,268.9844 295.3125,268.9844 C296.5313,268.9844 297.6875,268.6875 298.4375,268.1406 C299.0156,267.7344 299.3438,267.2813 299.3438,266.8906 C299.3438,266.4375 298.9531,266.0469 298.4844,266.0469 C298.2656,266.0469 298.0625,266.125 297.875,266.3125 C297.4219,266.7969 297.4219,266.7969 297.2344,266.8906 C296.8125,267.1563 296.125,267.2813 295.3594,267.2813 C293.3125,267.2813 292.0156,266.1875 292.0156,264.4844 L292.0156,263.3906 C292.0156,261.6094 293.2656,260.2969 295,260.2969 C295.5781,260.2969 296.1875,260.4531 296.6563,260.7031 C297.1406,260.9844 297.3125,261.2031 297.4063,261.6094 C297.4688,262.0156 297.5,262.1406 297.6406,262.2656 C297.7813,262.4063 298.0156,262.5156 298.2344,262.5156 C298.5,262.5156 298.7656,262.375 298.9375,262.1563 C299.0469,262 299.0781,261.8125 299.0781,261.3906 L299.0781,259.9688 C299.0781,259.5313 299.0625,259.4063 298.9688,259.25 C298.8125,258.9844 298.5313,258.8438 298.2344,258.8438 C297.9375,258.8438 297.7344,258.9375 297.5156,259.25 L297.3438,259.1719 Z " fill="#000000"/><text fill="#000000" font-family="sans-serif" font-size="12" lengthAdjust="spacing" textLength="89" x="309" y="267.6543">Characteristics</text><line style="stroke:#A80036;stroke-width:1.5;" x1="281" x2="400" y1="279.5" y2="279.5"/><text fill="#000000" font-family="sans-serif" font-size="11" lengthAdjust="spacing" textLength="71" x="286" y="293.7104">-vesselType</text><text fill="#000000" font-family="sans-serif" font-size="11" lengthAdjust="spacing" textLength="40" x="286" y="306.5151">-lenght</text><text fill="#000000" font-family="sans-serif" font-size="11" lengthAdjust="spacing" textLength="34" x="286" y="319.3198">-width</text><text fill="#000000" font-family="sans-serif" font-size="11" lengthAdjust="spacing" textLength="51" x="286" y="332.1245">-capacity</text><text fill="#000000" font-family="sans-serif" font-size="11" lengthAdjust="spacing" textLength="30" x="286" y="344.9292">-draft</text><line style="stroke:#A80036;stroke-width:1.5;" x1="281" x2="400" y1="351.5234" y2="351.5234"/><!--MD5=[fc92a9f5bb5fae84dd7fa4034e6b4444]
class Route--><rect codeLine="46" fill="#FEFECE" filter="url(#fnvpz3datenb4)" height="60.8047" id="Route" style="stroke:#A80036;stroke-width:1.5;" width="66" x="579" y="157"/><ellipse cx="594" cy="173" fill="#ADD1B2" rx="11" ry="11" style="stroke:#A80036;stroke-width:1.0;"/><path d="M596.3438,168.6719 C595.4063,168.2344 594.8125,168.0938 593.9375,168.0938 C591.3125,168.0938 589.3125,170.1719 589.3125,172.8906 L589.3125,174.0156 C589.3125,176.5938 591.4219,178.4844 594.3125,178.4844 C595.5313,178.4844 596.6875,178.1875 597.4375,177.6406 C598.0156,177.2344 598.3438,176.7813 598.3438,176.3906 C598.3438,175.9375 597.9531,175.5469 597.4844,175.5469 C597.2656,175.5469 597.0625,175.625 596.875,175.8125 C596.4219,176.2969 596.4219,176.2969 596.2344,176.3906 C595.8125,176.6563 595.125,176.7813 594.3594,176.7813 C592.3125,176.7813 591.0156,175.6875 591.0156,173.9844 L591.0156,172.8906 C591.0156,171.1094 592.2656,169.7969 594,169.7969 C594.5781,169.7969 595.1875,169.9531 595.6563,170.2031 C596.1406,170.4844 596.3125,170.7031 596.4063,171.1094 C596.4688,171.5156 596.5,171.6406 596.6406,171.7656 C596.7813,171.9063 597.0156,172.0156 597.2344,172.0156 C597.5,172.0156 597.7656,171.875 597.9375,171.6563 C598.0469,171.5 598.0781,171.3125 598.0781,170.8906 L598.0781,169.4688 C598.0781,169.0313 598.0625,168.9063 597.9688,168.75 C597.8125,168.4844 597.5313,168.3438 597.2344,168.3438 C596.9375,168.3438 596.7344,168.4375 596.5156,168.75 L596.3438,168.6719 Z " fill="#000000"/><text fill="#000000" font-family="sans-serif" font-size="12" lengthAdjust="spacing" textLength="34" x="608" y="177.1543">Route</text><line style="stroke:#A80036;stroke-width:1.5;" x1="580" x2="644" y1="189" y2="189"/><text fill="#000000" font-family="sans-serif" font-size="11" lengthAdjust="spacing" textLength="46" x="585" y="203.2104">-routeID</text><line style="stroke:#A80036;stroke-width:1.5;" x1="580" x2="644" y1="209.8047" y2="209.8047"/><!--MD5=[02e4b9b7573f1156f41e60aa5b4e25a4]
class Company--><rect fill="#FEFECE" filter="url(#fnvpz3datenb4)" height="48" id="Company" style="stroke:#A80036;stroke-width:1.5;" width="88" x="23.5" y="125.5"/><ellipse cx="38.5" cy="141.5" fill="#ADD1B2" rx="11" ry="11" style="stroke:#A80036;stroke-width:1.0;"/><path d="M40.8438,137.1719 C39.9063,136.7344 39.3125,136.5938 38.4375,136.5938 C35.8125,136.5938 33.8125,138.6719 33.8125,141.3906 L33.8125,142.5156 C33.8125,145.0938 35.9219,146.9844 38.8125,146.9844 C40.0313,146.9844 41.1875,146.6875 41.9375,146.1406 C42.5156,145.7344 42.8438,145.2813 42.8438,144.8906 C42.8438,144.4375 42.4531,144.0469 41.9844,144.0469 C41.7656,144.0469 41.5625,144.125 41.375,144.3125 C40.9219,144.7969 40.9219,144.7969 40.7344,144.8906 C40.3125,145.1563 39.625,145.2813 38.8594,145.2813 C36.8125,145.2813 35.5156,144.1875 35.5156,142.4844 L35.5156,141.3906 C35.5156,139.6094 36.7656,138.2969 38.5,138.2969 C39.0781,138.2969 39.6875,138.4531 40.1563,138.7031 C40.6406,138.9844 40.8125,139.2031 40.9063,139.6094 C40.9688,140.0156 41,140.1406 41.1406,140.2656 C41.2813,140.4063 41.5156,140.5156 41.7344,140.5156 C42,140.5156 42.2656,140.375 42.4375,140.1563 C42.5469,140 42.5781,139.8125 42.5781,139.3906 L42.5781,137.9688 C42.5781,137.5313 42.5625,137.4063 42.4688,137.25 C42.3125,136.9844 42.0313,136.8438 41.7344,136.8438 C41.4375,136.8438 41.2344,136.9375 41.0156,137.25 L40.8438,137.1719 Z " fill="#000000"/><text fill="#000000" font-family="sans-serif" font-size="12" lengthAdjust="spacing" textLength="56" x="52.5" y="145.6543">Company</text><line style="stroke:#A80036;stroke-width:1.5;" x1="24.5" x2="110.5" y1="157.5" y2="157.5"/><line style="stroke:#A80036;stroke-width:1.5;" x1="24.5" x2="110.5" y1="165.5" y2="165.5"/><!--MD5=[40e2b5717560220ad35e84810a8f1b44]
link TrafficManager to Ship--><path codeLine="51" d="M128.308,64.093 C162.991,70.236 207.415,78.105 246.564,85.039 " fill="none" id="TrafficManager-to-Ship" style="stroke:#A80036;stroke-width:1.0;"/><polygon fill="#A80036" points="251.804,85.967,243.6406,80.4572,246.8808,85.0941,242.2439,88.3343,251.804,85.967" style="stroke:#A80036;stroke-width:1.0;"/><polygon fill="#000000" points="167.9234,61.9385,159.5295,57.467,158.5043,63.2548,167.9234,61.9385" style="stroke:#000000;stroke-width:1.0;"/><text fill="#000000" font-family="sans-serif" font-size="13" lengthAdjust="spacing" textLength="49" x="172" y="65.5669">imports</text><text fill="#000000" font-family="sans-serif" font-size="13" lengthAdjust="spacing" textLength="8" x="135.8014" y="78.2822">1</text><text fill="#000000" font-family="sans-serif" font-size="13" lengthAdjust="spacing" textLength="23" x="221.1327" y="97.4296">1..*</text><!--MD5=[bd668f20969913e971975f69d50ab766]
link Ship to Route--><path codeLine="52" d="M429.371,129.541 C478.324,145.162 536.706,163.792 573.812,175.633 " fill="none" id="Ship-to-Route" style="stroke:#A80036;stroke-width:1.0;"/><polygon fill="#A80036" points="578.679,177.186,571.3212,170.6391,573.9157,175.6659,568.8889,178.2604,578.679,177.186" style="stroke:#A80036;stroke-width:1.0;"/><polygon fill="#000000" points="484.2634,131.5864,476.5398,126.0369,474.7529,131.6365,484.2634,131.5864" style="stroke:#000000;stroke-width:1.0;"/><text fill="#000000" font-family="sans-serif" font-size="13" lengthAdjust="spacing" textLength="23" x="488.5" y="134.5669">has</text><text fill="#000000" font-family="sans-serif" font-size="13" lengthAdjust="spacing" textLength="8" x="437.0619" y="144.5628">1</text><text fill="#000000" font-family="sans-serif" font-size="13" lengthAdjust="spacing" textLength="23" x="547.9754" y="188.7974">1..*</text><!--MD5=[777bd18e7fd60fc9f8777acca57a952c]
link Ship to Characteristics--><path codeLine="53" d="M340.5,196.377 C340.5,211.962 340.5,227.742 340.5,242.225 " fill="none" id="Ship-to-Characteristics" style="stroke:#A80036;stroke-width:1.0;"/><polygon fill="#A80036" points="340.5,247.5,344.5,238.5,340.5,242.5,336.5,238.5,340.5,247.5" style="stroke:#A80036;stroke-width:1.0;"/><polygon fill="#000000" points="299.5,226.8164,302.4389,217.7713,296.5611,217.7713,299.5,226.8164" style="stroke:#000000;stroke-width:1.0;"/><text fill="#000000" font-family="sans-serif" font-size="13" lengthAdjust="spacing" textLength="54" x="308.5" y="226.3169">contains</text><text fill="#000000" font-family="sans-serif" font-size="13" lengthAdjust="spacing" textLength="8" x="332.2063" y="215.9725">1</text><text fill="#000000" font-family="sans-serif" font-size="13" lengthAdjust="spacing" textLength="8" x="331.9875" y="236.438">1</text><!--MD5=[b548f9cab810c886ef8d517236ce8553]
link Ship to Identification--><path codeLine="54" d="M429.371,92.044 C469.779,87.696 516.611,82.657 552.599,78.784 " fill="none" id="Ship-to-Identification" style="stroke:#A80036;stroke-width:1.0;"/><polygon fill="#A80036" points="557.828,78.222,548.4521,75.2066,552.8566,78.7563,549.307,83.1608,557.828,78.222" style="stroke:#A80036;stroke-width:1.0;"/><polygon fill="#000000" points="468.9713,72.5315,459.6637,70.5771,460.2926,76.4212,468.9713,72.5315" style="stroke:#000000;stroke-width:1.0;"/><text fill="#000000" font-family="sans-serif" font-size="13" lengthAdjust="spacing" textLength="54" x="473" y="77.5669">contains</text><text fill="#000000" font-family="sans-serif" font-size="13" lengthAdjust="spacing" textLength="8" x="437.0619" y="103.9606">1</text><text fill="#000000" font-family="sans-serif" font-size="13" lengthAdjust="spacing" textLength="8" x="542.0111" y="92.0598">1</text><!--MD5=[6e2bf1b581922c3b45ac635d439704bd]
link Route to ShipDynamic--><path codeLine="55" d="M645.32,187.5 C682.394,187.5 743.95,187.5 789.705,187.5 " fill="none" id="Route-to-ShipDynamic" style="stroke:#A80036;stroke-width:1.0;"/><polygon fill="#A80036" points="794.923,187.5,785.923,183.5,789.923,187.5,785.923,191.5,794.923,187.5" style="stroke:#A80036;stroke-width:1.0;"/><polygon fill="#000000" points="706,179.0664,696.9549,176.1275,696.9549,182.0053,706,179.0664" style="stroke:#000000;stroke-width:1.0;"/><text fill="#000000" font-family="sans-serif" font-size="13" lengthAdjust="spacing" textLength="54" x="710" y="183.5669">contains</text><text fill="#000000" font-family="sans-serif" font-size="13" lengthAdjust="spacing" textLength="8" x="653.0173" y="201.1476">1</text><text fill="#000000" font-family="sans-serif" font-size="13" lengthAdjust="spacing" textLength="23" x="763.8089" y="200.4624">1..*</text><!--MD5=[37a14a5de6d6fd738aee271300f4b5c8]
link Company to Ship--><path codeLine="56" d="M111.74,141.841 C148.002,135.418 201.051,126.022 246.831,117.914 " fill="none" id="Company-to-Ship" style="stroke:#A80036;stroke-width:1.0;"/><polygon fill="#A80036" points="251.805,117.033,242.2449,114.6657,246.8818,117.9059,243.6416,122.5428,251.805,117.033" style="stroke:#A80036;stroke-width:1.0;"/><polygon fill="#000000" points="175.4234,113.1944,166.0044,111.878,167.0295,117.6658,175.4234,113.1944" style="stroke:#000000;stroke-width:1.0;"/><text fill="#000000" font-family="sans-serif" font-size="13" lengthAdjust="spacing" textLength="34" x="179.5" y="118.5669">owns</text><text fill="#000000" font-family="sans-serif" font-size="13" lengthAdjust="spacing" textLength="8" x="119.4282" y="153.8931">1</text><text fill="#000000" font-family="sans-serif" font-size="13" lengthAdjust="spacing" textLength="23" x="221.1338" y="130.8741">1..*</text><!--MD5=[1f16031c93aea90c00a6333b6ad305ac]
@startuml
skinparam classAttributeIconSize 0
left to right direction
class Ship {
-MMSI
-name
-IMOIDnumber
-numberOfEnergyGenerators
-generatorPowerOutput
-callSign
-vesselTypeCode
-width
-length
-capacity
-draft
}

class TrafficManager{
-userID
-name
}
class ShipDynamic{
-baseDateTime
-latitude
-longitude
-SOG
-COG
-heading
-position
-transceiverClass
}

class Identification{
-mmsi
-shipName
-callSign
-imoID
}

class Characteristics{
-vesselType
-lenght
-width
-capacity
-draft
}
class Route{
-routeID
}


TrafficManager "1" - -> "1..*" Ship : imports >
Ship "1" - -> "1..*" Route : has >
Ship "1" -r-> "1" Characteristics: contains >
Ship "1" - -> "1" Identification: contains >
Route "1" - -> "1..*" ShipDynamic : contains >
Company"1" - -> "1..*" Ship : owns >
@enduml

PlantUML version 1.2021.14beta6(Unknown compile time)
(GPL source distribution)
Java Runtime: Java(TM) SE Runtime Environment
JVM: Java HotSpot(TM) 64-Bit Server VM
Default Encoding: UTF-8
Language: en
Country: US
--></g></svg>