<?xml version="1.0" encoding="UTF-8" standalone="no"?><svg xmlns="http://www.w3.org/2000/svg" xmlns:xlink="http://www.w3.org/1999/xlink" contentScriptType="application/ecmascript" contentStyleType="text/css" height="549px" preserveAspectRatio="none" style="width:1465px;height:549px;background:#FFFFFF;" version="1.1" viewBox="0 0 1465 549" width="1465px" zoomAndPan="magnify"><defs><filter height="300%" id="fr5ecab2g2jtt" width="300%" x="-1" y="-1"><feGaussianBlur result="blurOut" stdDeviation="2.0"/><feColorMatrix in="blurOut" result="blurOut2" type="matrix" values="0 0 0 0 0 0 0 0 0 0 0 0 0 0 0 0 0 0 .4 0"/><feOffset dx="4.0" dy="4.0" in="blurOut2" result="blurOut3"/><feBlend in="SourceGraphic" in2="blurOut3" mode="normal"/></filter></defs><g><!--MD5=[82dc263f563d227779ba81db65b2fd4d]
class Identification--><rect codeLine="6" fill="#FEFECE" filter="url(#fr5ecab2g2jtt)" height="124.8281" id="Identification" style="stroke:#A80036;stroke-width:1.5;" width="121" x="387.5" y="7"/><ellipse cx="408.35" cy="23" fill="#ADD1B2" rx="11" ry="11" style="stroke:#A80036;stroke-width:1.0;"/><path d="M410.6938,18.6719 C409.7563,18.2344 409.1625,18.0938 408.2875,18.0938 C405.6625,18.0938 403.6625,20.1719 403.6625,22.8906 L403.6625,24.0156 C403.6625,26.5938 405.7719,28.4844 408.6625,28.4844 C409.8813,28.4844 411.0375,28.1875 411.7875,27.6406 C412.3656,27.2344 412.6938,26.7813 412.6938,26.3906 C412.6938,25.9375 412.3031,25.5469 411.8344,25.5469 C411.6156,25.5469 411.4125,25.625 411.225,25.8125 C410.7719,26.2969 410.7719,26.2969 410.5844,26.3906 C410.1625,26.6563 409.475,26.7813 408.7094,26.7813 C406.6625,26.7813 405.3656,25.6875 405.3656,23.9844 L405.3656,22.8906 C405.3656,21.1094 406.6156,19.7969 408.35,19.7969 C408.9281,19.7969 409.5375,19.9531 410.0063,20.2031 C410.4906,20.4844 410.6625,20.7031 410.7563,21.1094 C410.8188,21.5156 410.85,21.6406 410.9906,21.7656 C411.1313,21.9063 411.3656,22.0156 411.5844,22.0156 C411.85,22.0156 412.1156,21.875 412.2875,21.6563 C412.3969,21.5 412.4281,21.3125 412.4281,20.8906 L412.4281,19.4688 C412.4281,19.0313 412.4125,18.9063 412.3188,18.75 C412.1625,18.4844 411.8813,18.3438 411.5844,18.3438 C411.2875,18.3438 411.0844,18.4375 410.8656,18.75 L410.6938,18.6719 Z " fill="#000000"/><text fill="#000000" font-family="sans-serif" font-size="12" lengthAdjust="spacing" textLength="76" x="423.65" y="27.1543">Identification</text><line style="stroke:#A80036;stroke-width:1.5;" x1="388.5" x2="507.5" y1="39" y2="39"/><text fill="#000000" font-family="sans-serif" font-size="11" lengthAdjust="spacing" textLength="75" x="393.5" y="53.2104">-mmsi: String</text><text fill="#000000" font-family="sans-serif" font-size="11" lengthAdjust="spacing" textLength="101" x="393.5" y="66.0151">-shipName: String</text><text fill="#000000" font-family="sans-serif" font-size="11" lengthAdjust="spacing" textLength="77" x="393.5" y="78.8198">-imoID: String</text><line style="stroke:#A80036;stroke-width:1.5;" x1="388.5" x2="507.5" y1="85.4141" y2="85.4141"/><text fill="#000000" font-family="sans-serif" font-size="11" lengthAdjust="spacing" textLength="61" x="393.5" y="99.6245">+toString()</text><text fill="#000000" font-family="sans-serif" font-size="11" lengthAdjust="spacing" textLength="78" x="393.5" y="112.4292">+equals(ship)</text><text fill="#000000" font-family="sans-serif" font-size="11" lengthAdjust="spacing" textLength="109" x="393.5" y="125.2339">+acessorMethods()</text><!--MD5=[d13ff13c3fa4b0049c88ca68ac4b56e1]
class ShipEnergy--><rect codeLine="15" fill="#FEFECE" filter="url(#fr5ecab2g2jtt)" height="112.0234" id="ShipEnergy" style="stroke:#A80036;stroke-width:1.5;" width="204" x="603" y="135.5"/><ellipse cx="666.75" cy="151.5" fill="#ADD1B2" rx="11" ry="11" style="stroke:#A80036;stroke-width:1.0;"/><path d="M669.0938,147.1719 C668.1563,146.7344 667.5625,146.5938 666.6875,146.5938 C664.0625,146.5938 662.0625,148.6719 662.0625,151.3906 L662.0625,152.5156 C662.0625,155.0938 664.1719,156.9844 667.0625,156.9844 C668.2813,156.9844 669.4375,156.6875 670.1875,156.1406 C670.7656,155.7344 671.0938,155.2813 671.0938,154.8906 C671.0938,154.4375 670.7031,154.0469 670.2344,154.0469 C670.0156,154.0469 669.8125,154.125 669.625,154.3125 C669.1719,154.7969 669.1719,154.7969 668.9844,154.8906 C668.5625,155.1563 667.875,155.2813 667.1094,155.2813 C665.0625,155.2813 663.7656,154.1875 663.7656,152.4844 L663.7656,151.3906 C663.7656,149.6094 665.0156,148.2969 666.75,148.2969 C667.3281,148.2969 667.9375,148.4531 668.4063,148.7031 C668.8906,148.9844 669.0625,149.2031 669.1563,149.6094 C669.2188,150.0156 669.25,150.1406 669.3906,150.2656 C669.5313,150.4063 669.7656,150.5156 669.9844,150.5156 C670.25,150.5156 670.5156,150.375 670.6875,150.1563 C670.7969,150 670.8281,149.8125 670.8281,149.3906 L670.8281,147.9688 C670.8281,147.5313 670.8125,147.4063 670.7188,147.25 C670.5625,146.9844 670.2813,146.8438 669.9844,146.8438 C669.6875,146.8438 669.4844,146.9375 669.2656,147.25 L669.0938,147.1719 Z " fill="#000000"/><text fill="#000000" font-family="sans-serif" font-size="12" lengthAdjust="spacing" textLength="68" x="687.25" y="155.6543">ShipEnergy</text><line style="stroke:#A80036;stroke-width:1.5;" x1="604" x2="806" y1="167.5" y2="167.5"/><text fill="#000000" font-family="sans-serif" font-size="11" lengthAdjust="spacing" textLength="192" x="609" y="181.7104">-numbersOfEnergyGenerators: int</text><text fill="#000000" font-family="sans-serif" font-size="11" lengthAdjust="spacing" textLength="153" x="609" y="194.5151">-generatorPowerOutput: int</text><line style="stroke:#A80036;stroke-width:1.5;" x1="604" x2="806" y1="201.1094" y2="201.1094"/><text fill="#000000" font-family="sans-serif" font-size="11" lengthAdjust="spacing" textLength="61" x="609" y="215.3198">+toString()</text><text fill="#000000" font-family="sans-serif" font-size="11" lengthAdjust="spacing" textLength="78" x="609" y="228.1245">+equals(ship)</text><text fill="#000000" font-family="sans-serif" font-size="11" lengthAdjust="spacing" textLength="109" x="609" y="240.9292">+acessorMethods()</text><!--MD5=[9a305ff8ded9dfea1b145311e23eef54]
class ShipCharacteristics--><rect codeLine="23" fill="#FEFECE" filter="url(#fr5ecab2g2jtt)" height="150.4375" id="ShipCharacteristics" style="stroke:#A80036;stroke-width:1.5;" width="147" x="374.5" y="238.5"/><ellipse cx="389.5" cy="254.5" fill="#ADD1B2" rx="11" ry="11" style="stroke:#A80036;stroke-width:1.0;"/><path d="M391.8438,250.1719 C390.9063,249.7344 390.3125,249.5938 389.4375,249.5938 C386.8125,249.5938 384.8125,251.6719 384.8125,254.3906 L384.8125,255.5156 C384.8125,258.0938 386.9219,259.9844 389.8125,259.9844 C391.0313,259.9844 392.1875,259.6875 392.9375,259.1406 C393.5156,258.7344 393.8438,258.2813 393.8438,257.8906 C393.8438,257.4375 393.4531,257.0469 392.9844,257.0469 C392.7656,257.0469 392.5625,257.125 392.375,257.3125 C391.9219,257.7969 391.9219,257.7969 391.7344,257.8906 C391.3125,258.1563 390.625,258.2813 389.8594,258.2813 C387.8125,258.2813 386.5156,257.1875 386.5156,255.4844 L386.5156,254.3906 C386.5156,252.6094 387.7656,251.2969 389.5,251.2969 C390.0781,251.2969 390.6875,251.4531 391.1563,251.7031 C391.6406,251.9844 391.8125,252.2031 391.9063,252.6094 C391.9688,253.0156 392,253.1406 392.1406,253.2656 C392.2813,253.4063 392.5156,253.5156 392.7344,253.5156 C393,253.5156 393.2656,253.375 393.4375,253.1563 C393.5469,253 393.5781,252.8125 393.5781,252.3906 L393.5781,250.9688 C393.5781,250.5313 393.5625,250.4063 393.4688,250.25 C393.3125,249.9844 393.0313,249.8438 392.7344,249.8438 C392.4375,249.8438 392.2344,249.9375 392.0156,250.25 L391.8438,250.1719 Z " fill="#000000"/><text fill="#000000" font-family="sans-serif" font-size="12" lengthAdjust="spacing" textLength="115" x="403.5" y="258.6543">ShipCharacteristics</text><line style="stroke:#A80036;stroke-width:1.5;" x1="375.5" x2="520.5" y1="270.5" y2="270.5"/><text fill="#000000" font-family="sans-serif" font-size="11" lengthAdjust="spacing" textLength="92" x="380.5" y="284.7104">-vesselType: int</text><text fill="#000000" font-family="sans-serif" font-size="11" lengthAdjust="spacing" textLength="61" x="380.5" y="297.5151">-length: int</text><text fill="#000000" font-family="sans-serif" font-size="11" lengthAdjust="spacing" textLength="55" x="380.5" y="310.3198">-width: int</text><text fill="#000000" font-family="sans-serif" font-size="11" lengthAdjust="spacing" textLength="72" x="380.5" y="323.1245">-capacity: int</text><text fill="#000000" font-family="sans-serif" font-size="11" lengthAdjust="spacing" textLength="51" x="380.5" y="335.9292">-draft: int</text><text fill="#000000" font-family="sans-serif" font-size="11" lengthAdjust="spacing" textLength="101" x="380.5" y="348.7339">+acessorMethods</text><line style="stroke:#A80036;stroke-width:1.5;" x1="375.5" x2="520.5" y1="355.3281" y2="355.3281"/><text fill="#000000" font-family="sans-serif" font-size="11" lengthAdjust="spacing" textLength="61" x="380.5" y="369.5386">+toString()</text><text fill="#000000" font-family="sans-serif" font-size="11" lengthAdjust="spacing" textLength="78" x="380.5" y="382.3433">+equals(ship)</text><!--MD5=[0dc7f2ddb409b58bcf52b12238c25399]
class Ship--><rect codeLine="34" fill="#FEFECE" filter="url(#fr5ecab2g2jtt)" height="227.2656" id="Ship" style="stroke:#A80036;stroke-width:1.5;" width="225" x="1226" y="137"/><ellipse cx="1321.25" cy="153" fill="#ADD1B2" rx="11" ry="11" style="stroke:#A80036;stroke-width:1.0;"/><path d="M1323.5938,148.6719 C1322.6563,148.2344 1322.0625,148.0938 1321.1875,148.0938 C1318.5625,148.0938 1316.5625,150.1719 1316.5625,152.8906 L1316.5625,154.0156 C1316.5625,156.5938 1318.6719,158.4844 1321.5625,158.4844 C1322.7813,158.4844 1323.9375,158.1875 1324.6875,157.6406 C1325.2656,157.2344 1325.5938,156.7813 1325.5938,156.3906 C1325.5938,155.9375 1325.2031,155.5469 1324.7344,155.5469 C1324.5156,155.5469 1324.3125,155.625 1324.125,155.8125 C1323.6719,156.2969 1323.6719,156.2969 1323.4844,156.3906 C1323.0625,156.6563 1322.375,156.7813 1321.6094,156.7813 C1319.5625,156.7813 1318.2656,155.6875 1318.2656,153.9844 L1318.2656,152.8906 C1318.2656,151.1094 1319.5156,149.7969 1321.25,149.7969 C1321.8281,149.7969 1322.4375,149.9531 1322.9063,150.2031 C1323.3906,150.4844 1323.5625,150.7031 1323.6563,151.1094 C1323.7188,151.5156 1323.75,151.6406 1323.8906,151.7656 C1324.0313,151.9063 1324.2656,152.0156 1324.4844,152.0156 C1324.75,152.0156 1325.0156,151.875 1325.1875,151.6563 C1325.2969,151.5 1325.3281,151.3125 1325.3281,150.8906 L1325.3281,149.4688 C1325.3281,149.0313 1325.3125,148.9063 1325.2188,148.75 C1325.0625,148.4844 1324.7813,148.3438 1324.4844,148.3438 C1324.1875,148.3438 1323.9844,148.4375 1323.7656,148.75 L1323.5938,148.6719 Z " fill="#000000"/><text fill="#000000" font-family="sans-serif" font-size="12" lengthAdjust="spacing" textLength="26" x="1341.75" y="157.1543">Ship</text><line style="stroke:#A80036;stroke-width:1.5;" x1="1227" x2="1450" y1="169" y2="169"/><text fill="#000000" font-family="sans-serif" font-size="11" lengthAdjust="spacing" textLength="119" x="1232" y="183.2104">-idShip: Identification</text><text fill="#000000" font-family="sans-serif" font-size="11" lengthAdjust="spacing" textLength="117" x="1232" y="196.0151">-energy: ShipEnergy</text><text fill="#000000" font-family="sans-serif" font-size="11" lengthAdjust="spacing" textLength="200" x="1232" y="208.8198">-characteristics: ShipCharacteristics</text><text fill="#000000" font-family="sans-serif" font-size="11" lengthAdjust="spacing" textLength="70" x="1232" y="221.6245">-route:Route</text><line style="stroke:#A80036;stroke-width:1.5;" x1="1227" x2="1450" y1="228.2188" y2="228.2188"/><text fill="#000000" font-family="sans-serif" font-size="11" lengthAdjust="spacing" textLength="61" x="1232" y="242.4292">+toString()</text><text fill="#000000" font-family="sans-serif" font-size="11" lengthAdjust="spacing" textLength="78" x="1232" y="255.2339">+equals(ship)</text><text fill="#000000" font-family="sans-serif" font-size="11" lengthAdjust="spacing" textLength="136" x="1232" y="268.0386">+validateIdentification()</text><text fill="#000000" font-family="sans-serif" font-size="11" lengthAdjust="spacing" textLength="103" x="1232" y="280.8433">+validateEnergy()</text><text fill="#000000" font-family="sans-serif" font-size="11" lengthAdjust="spacing" textLength="146" x="1232" y="293.6479">+validateCharacteristics()</text><text fill="#000000" font-family="sans-serif" font-size="11" lengthAdjust="spacing" textLength="96" x="1232" y="306.4526">+validateRoute()</text><text fill="#000000" font-family="sans-serif" font-size="11" lengthAdjust="spacing" textLength="109" x="1232" y="319.2573">+acessorMethods()</text><text fill="#000000" font-family="sans-serif" font-size="11" lengthAdjust="spacing" textLength="0" x="1236" y="332.062"/><text fill="#000000" font-family="sans-serif" font-size="11" lengthAdjust="spacing" textLength="213" x="1232" y="344.8667">+Ship(idShip, energy, characteristics)</text><text fill="#000000" font-family="sans-serif" font-size="11" lengthAdjust="spacing" textLength="26" x="1232" y="357.6714">+...()</text><!--MD5=[ea2206eefe09474e90beb17e18e6b3d8]
class ShipStore--><rect codeLine="51" fill="#FEFECE" filter="url(#fr5ecab2g2jtt)" height="99.2188" id="ShipStore" style="stroke:#A80036;stroke-width:1.5;" width="299" x="867" y="201"/><ellipse cx="982.75" cy="217" fill="#ADD1B2" rx="11" ry="11" style="stroke:#A80036;stroke-width:1.0;"/><path d="M985.0938,212.6719 C984.1563,212.2344 983.5625,212.0938 982.6875,212.0938 C980.0625,212.0938 978.0625,214.1719 978.0625,216.8906 L978.0625,218.0156 C978.0625,220.5938 980.1719,222.4844 983.0625,222.4844 C984.2813,222.4844 985.4375,222.1875 986.1875,221.6406 C986.7656,221.2344 987.0938,220.7813 987.0938,220.3906 C987.0938,219.9375 986.7031,219.5469 986.2344,219.5469 C986.0156,219.5469 985.8125,219.625 985.625,219.8125 C985.1719,220.2969 985.1719,220.2969 984.9844,220.3906 C984.5625,220.6563 983.875,220.7813 983.1094,220.7813 C981.0625,220.7813 979.7656,219.6875 979.7656,217.9844 L979.7656,216.8906 C979.7656,215.1094 981.0156,213.7969 982.75,213.7969 C983.3281,213.7969 983.9375,213.9531 984.4063,214.2031 C984.8906,214.4844 985.0625,214.7031 985.1563,215.1094 C985.2188,215.5156 985.25,215.6406 985.3906,215.7656 C985.5313,215.9063 985.7656,216.0156 985.9844,216.0156 C986.25,216.0156 986.5156,215.875 986.6875,215.6563 C986.7969,215.5 986.8281,215.3125 986.8281,214.8906 L986.8281,213.4688 C986.8281,213.0313 986.8125,212.9063 986.7188,212.75 C986.5625,212.4844 986.2813,212.3438 985.9844,212.3438 C985.6875,212.3438 985.4844,212.4375 985.2656,212.75 L985.0938,212.6719 Z " fill="#000000"/><text fill="#000000" font-family="sans-serif" font-size="12" lengthAdjust="spacing" textLength="59" x="1003.25" y="221.1543">ShipStore</text><line style="stroke:#A80036;stroke-width:1.5;" x1="868" x2="1165" y1="233" y2="233"/><text fill="#000000" font-family="sans-serif" font-size="11" lengthAdjust="spacing" textLength="132" x="873" y="247.2104">-BST &lt;Ship&gt; shipStore</text><line style="stroke:#A80036;stroke-width:1.5;" x1="868" x2="1165" y1="253.8047" y2="253.8047"/><text fill="#000000" font-family="sans-serif" font-size="11" lengthAdjust="spacing" textLength="287" x="873" y="268.0151">+createShip(idShip, energy, characteristics, route)</text><text fill="#000000" font-family="sans-serif" font-size="11" lengthAdjust="spacing" textLength="93" x="873" y="280.8198">+saveShip(ship)</text><text fill="#000000" font-family="sans-serif" font-size="11" lengthAdjust="spacing" textLength="61" x="873" y="293.6245">+getShip()</text><!--MD5=[59eadd507c5bf63d898fd8343ac3483d]
class ImportShips--><rect codeLine="58" fill="#FEFECE" filter="url(#fr5ecab2g2jtt)" height="48" id="ImportShips" style="stroke:#A80036;stroke-width:1.5;" width="104" x="7" y="232.5"/><ellipse cx="22" cy="248.5" fill="#ADD1B2" rx="11" ry="11" style="stroke:#A80036;stroke-width:1.0;"/><path d="M24.3438,244.1719 C23.4063,243.7344 22.8125,243.5938 21.9375,243.5938 C19.3125,243.5938 17.3125,245.6719 17.3125,248.3906 L17.3125,249.5156 C17.3125,252.0938 19.4219,253.9844 22.3125,253.9844 C23.5313,253.9844 24.6875,253.6875 25.4375,253.1406 C26.0156,252.7344 26.3438,252.2813 26.3438,251.8906 C26.3438,251.4375 25.9531,251.0469 25.4844,251.0469 C25.2656,251.0469 25.0625,251.125 24.875,251.3125 C24.4219,251.7969 24.4219,251.7969 24.2344,251.8906 C23.8125,252.1563 23.125,252.2813 22.3594,252.2813 C20.3125,252.2813 19.0156,251.1875 19.0156,249.4844 L19.0156,248.3906 C19.0156,246.6094 20.2656,245.2969 22,245.2969 C22.5781,245.2969 23.1875,245.4531 23.6563,245.7031 C24.1406,245.9844 24.3125,246.2031 24.4063,246.6094 C24.4688,247.0156 24.5,247.1406 24.6406,247.2656 C24.7813,247.4063 25.0156,247.5156 25.2344,247.5156 C25.5,247.5156 25.7656,247.375 25.9375,247.1563 C26.0469,247 26.0781,246.8125 26.0781,246.3906 L26.0781,244.9688 C26.0781,244.5313 26.0625,244.4063 25.9688,244.25 C25.8125,243.9844 25.5313,243.8438 25.2344,243.8438 C24.9375,243.8438 24.7344,243.9375 24.5156,244.25 L24.3438,244.1719 Z " fill="#000000"/><text fill="#000000" font-family="sans-serif" font-size="12" lengthAdjust="spacing" textLength="72" x="36" y="252.6543">ImportShips</text><line style="stroke:#A80036;stroke-width:1.5;" x1="8" x2="110" y1="264.5" y2="264.5"/><line style="stroke:#A80036;stroke-width:1.5;" x1="8" x2="110" y1="272.5" y2="272.5"/><!--MD5=[19c2b9eb46691e25b02426140995a460]
class ShipDynamic--><rect codeLine="61" fill="#FEFECE" filter="url(#fr5ecab2g2jtt)" height="112.0234" id="ShipDynamic" style="stroke:#A80036;stroke-width:1.5;" width="190" x="353" y="423.5"/><ellipse cx="405.25" cy="439.5" fill="#ADD1B2" rx="11" ry="11" style="stroke:#A80036;stroke-width:1.0;"/><path d="M407.5938,435.1719 C406.6563,434.7344 406.0625,434.5938 405.1875,434.5938 C402.5625,434.5938 400.5625,436.6719 400.5625,439.3906 L400.5625,440.5156 C400.5625,443.0938 402.6719,444.9844 405.5625,444.9844 C406.7813,444.9844 407.9375,444.6875 408.6875,444.1406 C409.2656,443.7344 409.5938,443.2813 409.5938,442.8906 C409.5938,442.4375 409.2031,442.0469 408.7344,442.0469 C408.5156,442.0469 408.3125,442.125 408.125,442.3125 C407.6719,442.7969 407.6719,442.7969 407.4844,442.8906 C407.0625,443.1563 406.375,443.2813 405.6094,443.2813 C403.5625,443.2813 402.2656,442.1875 402.2656,440.4844 L402.2656,439.3906 C402.2656,437.6094 403.5156,436.2969 405.25,436.2969 C405.8281,436.2969 406.4375,436.4531 406.9063,436.7031 C407.3906,436.9844 407.5625,437.2031 407.6563,437.6094 C407.7188,438.0156 407.75,438.1406 407.8906,438.2656 C408.0313,438.4063 408.2656,438.5156 408.4844,438.5156 C408.75,438.5156 409.0156,438.375 409.1875,438.1563 C409.2969,438 409.3281,437.8125 409.3281,437.3906 L409.3281,435.9688 C409.3281,435.5313 409.3125,435.4063 409.2188,435.25 C409.0625,434.9844 408.7813,434.8438 408.4844,434.8438 C408.1875,434.8438 407.9844,434.9375 407.7656,435.25 L407.5938,435.1719 Z " fill="#000000"/><text fill="#000000" font-family="sans-serif" font-size="12" lengthAdjust="spacing" textLength="77" x="425.75" y="443.6543">ShipDynamic</text><line style="stroke:#A80036;stroke-width:1.5;" x1="354" x2="542" y1="455.5" y2="455.5"/><text fill="#000000" font-family="sans-serif" font-size="11" lengthAdjust="spacing" textLength="178" x="359" y="469.7104">-baseDateTime:LocalDateTime</text><text fill="#000000" font-family="sans-serif" font-size="11" lengthAdjust="spacing" textLength="98" x="359" y="482.5151">-location:Location</text><text fill="#000000" font-family="sans-serif" font-size="11" lengthAdjust="spacing" textLength="158" x="359" y="495.3198">-movement:MovementData</text><text fill="#000000" font-family="sans-serif" font-size="11" lengthAdjust="spacing" textLength="134" x="359" y="508.1245">-transceiverClass:String</text><line style="stroke:#A80036;stroke-width:1.5;" x1="354" x2="542" y1="514.7188" y2="514.7188"/><text fill="#000000" font-family="sans-serif" font-size="11" lengthAdjust="spacing" textLength="109" x="359" y="528.9292">+acessorMethods()</text><!--MD5=[4f1f3706c1a355a8488e154afcaed5df]
class Location--><rect codeLine="69" fill="#FEFECE" filter="url(#fr5ecab2g2jtt)" height="86.4141" id="Location" style="stroke:#A80036;stroke-width:1.5;" width="121" x="171.5" y="309.5"/><ellipse cx="204.05" cy="325.5" fill="#ADD1B2" rx="11" ry="11" style="stroke:#A80036;stroke-width:1.0;"/><path d="M206.3938,321.1719 C205.4563,320.7344 204.8625,320.5938 203.9875,320.5938 C201.3625,320.5938 199.3625,322.6719 199.3625,325.3906 L199.3625,326.5156 C199.3625,329.0938 201.4719,330.9844 204.3625,330.9844 C205.5813,330.9844 206.7375,330.6875 207.4875,330.1406 C208.0656,329.7344 208.3938,329.2813 208.3938,328.8906 C208.3938,328.4375 208.0031,328.0469 207.5344,328.0469 C207.3156,328.0469 207.1125,328.125 206.925,328.3125 C206.4719,328.7969 206.4719,328.7969 206.2844,328.8906 C205.8625,329.1563 205.175,329.2813 204.4094,329.2813 C202.3625,329.2813 201.0656,328.1875 201.0656,326.4844 L201.0656,325.3906 C201.0656,323.6094 202.3156,322.2969 204.05,322.2969 C204.6281,322.2969 205.2375,322.4531 205.7063,322.7031 C206.1906,322.9844 206.3625,323.2031 206.4563,323.6094 C206.5188,324.0156 206.55,324.1406 206.6906,324.2656 C206.8313,324.4063 207.0656,324.5156 207.2844,324.5156 C207.55,324.5156 207.8156,324.375 207.9875,324.1563 C208.0969,324 208.1281,323.8125 208.1281,323.3906 L208.1281,321.9688 C208.1281,321.5313 208.1125,321.4063 208.0188,321.25 C207.8625,320.9844 207.5813,320.8438 207.2844,320.8438 C206.9875,320.8438 206.7844,320.9375 206.5656,321.25 L206.3938,321.1719 Z " fill="#000000"/><text fill="#000000" font-family="sans-serif" font-size="12" lengthAdjust="spacing" textLength="50" x="221.95" y="329.6543">Location</text><line style="stroke:#A80036;stroke-width:1.5;" x1="172.5" x2="291.5" y1="341.5" y2="341.5"/><text fill="#000000" font-family="sans-serif" font-size="11" lengthAdjust="spacing" textLength="99" x="177.5" y="355.7104">-longitude:double</text><text fill="#000000" font-family="sans-serif" font-size="11" lengthAdjust="spacing" textLength="89" x="177.5" y="368.5151">-latitude:double</text><line style="stroke:#A80036;stroke-width:1.5;" x1="172.5" x2="291.5" y1="375.1094" y2="375.1094"/><text fill="#000000" font-family="sans-serif" font-size="11" lengthAdjust="spacing" textLength="109" x="177.5" y="389.3198">+acessorMethods()</text><!--MD5=[fc92a9f5bb5fae84dd7fa4034e6b4444]
class Route--><rect codeLine="75" fill="#FEFECE" filter="url(#fr5ecab2g2jtt)" height="86.4141" id="Route" style="stroke:#A80036;stroke-width:1.5;" width="161" x="624.5" y="397.5"/><ellipse cx="683.75" cy="413.5" fill="#ADD1B2" rx="11" ry="11" style="stroke:#A80036;stroke-width:1.0;"/><path d="M686.0938,409.1719 C685.1563,408.7344 684.5625,408.5938 683.6875,408.5938 C681.0625,408.5938 679.0625,410.6719 679.0625,413.3906 L679.0625,414.5156 C679.0625,417.0938 681.1719,418.9844 684.0625,418.9844 C685.2813,418.9844 686.4375,418.6875 687.1875,418.1406 C687.7656,417.7344 688.0938,417.2813 688.0938,416.8906 C688.0938,416.4375 687.7031,416.0469 687.2344,416.0469 C687.0156,416.0469 686.8125,416.125 686.625,416.3125 C686.1719,416.7969 686.1719,416.7969 685.9844,416.8906 C685.5625,417.1563 684.875,417.2813 684.1094,417.2813 C682.0625,417.2813 680.7656,416.1875 680.7656,414.4844 L680.7656,413.3906 C680.7656,411.6094 682.0156,410.2969 683.75,410.2969 C684.3281,410.2969 684.9375,410.4531 685.4063,410.7031 C685.8906,410.9844 686.0625,411.2031 686.1563,411.6094 C686.2188,412.0156 686.25,412.1406 686.3906,412.2656 C686.5313,412.4063 686.7656,412.5156 686.9844,412.5156 C687.25,412.5156 687.5156,412.375 687.6875,412.1563 C687.7969,412 687.8281,411.8125 687.8281,411.3906 L687.8281,409.9688 C687.8281,409.5313 687.8125,409.4063 687.7188,409.25 C687.5625,408.9844 687.2813,408.8438 686.9844,408.8438 C686.6875,408.8438 686.4844,408.9375 686.2656,409.25 L686.0938,409.1719 Z " fill="#000000"/><text fill="#000000" font-family="sans-serif" font-size="12" lengthAdjust="spacing" textLength="34" x="704.25" y="417.6543">Route</text><line style="stroke:#A80036;stroke-width:1.5;" x1="625.5" x2="784.5" y1="429.5" y2="429.5"/><text fill="#000000" font-family="sans-serif" font-size="11" lengthAdjust="spacing" textLength="149" x="630.5" y="443.7104">-route:List&lt;ShipDynamic&gt;</text><line style="stroke:#A80036;stroke-width:1.5;" x1="625.5" x2="784.5" y1="450.3047" y2="450.3047"/><text fill="#000000" font-family="sans-serif" font-size="11" lengthAdjust="spacing" textLength="111" x="630.5" y="464.5151">+getShipDynamic()</text><text fill="#000000" font-family="sans-serif" font-size="11" lengthAdjust="spacing" textLength="109" x="630.5" y="477.3198">+acessorMethods()</text><!--MD5=[f53982ce0c18a7437701df19018392ec]
class MovementData--><rect codeLine="81" fill="#FEFECE" filter="url(#fr5ecab2g2jtt)" height="99.2188" id="MovementData" style="stroke:#A80036;stroke-width:1.5;" width="122" x="171" y="431"/><ellipse cx="186" cy="447" fill="#ADD1B2" rx="11" ry="11" style="stroke:#A80036;stroke-width:1.0;"/><path d="M188.3438,442.6719 C187.4063,442.2344 186.8125,442.0938 185.9375,442.0938 C183.3125,442.0938 181.3125,444.1719 181.3125,446.8906 L181.3125,448.0156 C181.3125,450.5938 183.4219,452.4844 186.3125,452.4844 C187.5313,452.4844 188.6875,452.1875 189.4375,451.6406 C190.0156,451.2344 190.3438,450.7813 190.3438,450.3906 C190.3438,449.9375 189.9531,449.5469 189.4844,449.5469 C189.2656,449.5469 189.0625,449.625 188.875,449.8125 C188.4219,450.2969 188.4219,450.2969 188.2344,450.3906 C187.8125,450.6563 187.125,450.7813 186.3594,450.7813 C184.3125,450.7813 183.0156,449.6875 183.0156,447.9844 L183.0156,446.8906 C183.0156,445.1094 184.2656,443.7969 186,443.7969 C186.5781,443.7969 187.1875,443.9531 187.6563,444.2031 C188.1406,444.4844 188.3125,444.7031 188.4063,445.1094 C188.4688,445.5156 188.5,445.6406 188.6406,445.7656 C188.7813,445.9063 189.0156,446.0156 189.2344,446.0156 C189.5,446.0156 189.7656,445.875 189.9375,445.6563 C190.0469,445.5 190.0781,445.3125 190.0781,444.8906 L190.0781,443.4688 C190.0781,443.0313 190.0625,442.9063 189.9688,442.75 C189.8125,442.4844 189.5313,442.3438 189.2344,442.3438 C188.9375,442.3438 188.7344,442.4375 188.5156,442.75 L188.3438,442.6719 Z " fill="#000000"/><text fill="#000000" font-family="sans-serif" font-size="12" lengthAdjust="spacing" textLength="90" x="200" y="451.1543">MovementData</text><line style="stroke:#A80036;stroke-width:1.5;" x1="172" x2="292" y1="463" y2="463"/><text fill="#000000" font-family="sans-serif" font-size="11" lengthAdjust="spacing" textLength="41" x="177" y="477.2104">-sog:int</text><text fill="#000000" font-family="sans-serif" font-size="11" lengthAdjust="spacing" textLength="41" x="177" y="490.0151">-cog:int</text><text fill="#000000" font-family="sans-serif" font-size="11" lengthAdjust="spacing" textLength="67" x="177" y="502.8198">-heading:int</text><line style="stroke:#A80036;stroke-width:1.5;" x1="172" x2="292" y1="509.4141" y2="509.4141"/><text fill="#000000" font-family="sans-serif" font-size="11" lengthAdjust="spacing" textLength="109" x="177" y="523.6245">+acessorMethods()</text><!--MD5=[ecf0fdc6df089cc6f081e451a577ecd6]
link ImportShips to Identification--><path codeLine="88" d="M82.0946,232.269 C103.094,210.522 136.511,179.097 171,159.5 C238.314,121.253 324.222,96.5 382.171,82.819 " fill="none" id="ImportShips-to-Identification" style="stroke:#A80036;stroke-width:1.0;stroke-dasharray:7.0,7.0;"/><polygon fill="#A80036" points="387.341,81.611,377.6671,79.7629,382.472,82.7482,379.4867,87.5532,387.341,81.611" style="stroke:#A80036;stroke-width:1.0;"/><!--MD5=[0a85d77785fae40e54b9daccdf01e257]
link ImportShips to ShipEnergy--><path codeLine="89" d="M111.019,249.878 C169.432,242.419 268.019,230.205 353,221.5 C434.977,213.103 527.895,205.234 597.527,199.664 " fill="none" id="ImportShips-to-ShipEnergy" style="stroke:#A80036;stroke-width:1.0;stroke-dasharray:7.0,7.0;"/><polygon fill="#A80036" points="602.921,199.234,593.6308,195.9641,597.9369,199.6326,594.2685,203.9387,602.921,199.234" style="stroke:#A80036;stroke-width:1.0;"/><!--MD5=[b613498df96574dc933e0e456b05a9be]
link ImportShips to ShipCharacteristics--><path codeLine="90" d="M111.391,264.069 C177.381,273.789 292.517,290.747 369.253,302.049 " fill="none" id="ImportShips-to-ShipCharacteristics" style="stroke:#A80036;stroke-width:1.0;stroke-dasharray:7.0,7.0;"/><polygon fill="#A80036" points="374.251,302.785,365.9298,297.5164,369.3044,302.0565,364.7642,305.431,374.251,302.785" style="stroke:#A80036;stroke-width:1.0;"/><!--MD5=[dc865824f862ec11a2155445e55c779d]
link ImportShips to MovementData--><path codeLine="91" d="M75.7277,280.524 C96.5304,311.871 134.8,368.077 171,413.5 C174.573,417.984 178.356,422.56 182.214,427.109 " fill="none" id="ImportShips-to-MovementData" style="stroke:#A80036;stroke-width:1.0;stroke-dasharray:7.0,7.0;"/><polygon fill="#A80036" points="185.47,430.922,182.6677,421.4802,182.2232,427.1196,176.5839,426.6751,185.47,430.922" style="stroke:#A80036;stroke-width:1.0;"/><!--MD5=[6f64efe27e582d6770b68c62003cf591]
link ImportShips to Location--><path codeLine="92" d="M103.1505,280.725 C122.456,291.563 145.615,304.564 166.887,316.507 " fill="none" id="ImportShips-to-Location" style="stroke:#A80036;stroke-width:1.0;stroke-dasharray:7.0,7.0;"/><polygon fill="#A80036" points="171.395,319.038,165.5065,311.1434,167.0354,316.5897,161.5891,318.1187,171.395,319.038" style="stroke:#A80036;stroke-width:1.0;"/><!--MD5=[801ba4c38298197731b6140270da2444]
link ShipCharacteristics to ShipStore--><path codeLine="93" d="M521.611,305.425 C606.988,295.93 751.06,279.908 861.631,267.612 " fill="none" id="ShipCharacteristics-to-ShipStore" style="stroke:#A80036;stroke-width:1.0;"/><polygon fill="#A80036" points="866.87,267.029,857.4829,264.0485,861.9007,267.5818,858.3674,271.9995,866.87,267.029" style="stroke:#A80036;stroke-width:1.0;"/><!--MD5=[99607141799163b9ae2a41e6b7386725]
link ShipEnergy to ShipStore--><path codeLine="94" d="M807.342,210.819 C824.746,214.136 843.176,217.65 861.591,221.16 " fill="none" id="ShipEnergy-to-ShipStore" style="stroke:#A80036;stroke-width:1.0;"/><polygon fill="#A80036" points="866.784,222.15,858.6916,216.5363,861.8723,221.2142,857.1944,224.395,866.784,222.15" style="stroke:#A80036;stroke-width:1.0;"/><!--MD5=[1de74b7d934583784d3efc8da1611fdd]
link Identification to ShipStore--><path codeLine="95" d="M508.506,69.966 C581.091,72.252 706.534,81.803 807,118.5 C858.058,137.15 909.72,169.737 948.846,197.865 " fill="none" id="Identification-to-ShipStore" style="stroke:#A80036;stroke-width:1.0;"/><polygon fill="#A80036" points="953.072,200.921,948.1219,192.4065,949.02,197.9916,943.4349,198.8897,953.072,200.921" style="stroke:#A80036;stroke-width:1.0;"/><!--MD5=[c9ac31e97cc00216da9abf3408012da6]
link ShipDynamic to Route--><path codeLine="96" d="M543.228,465.0886 C568.129,461.2802 594.851,457.1934 619.219,453.4665 " fill="none" id="ShipDynamic-to-Route" style="stroke:#A80036;stroke-width:1.0;"/><polygon fill="#A80036" points="624.382,452.6769,614.8808,450.0831,619.4394,453.4326,616.09,457.9912,624.382,452.6769" style="stroke:#A80036;stroke-width:1.0;"/><!--MD5=[ff5f5c8cd259ad0188b63d14dc086cf5]
link Route to ShipStore--><path codeLine="97" d="M776.23,397.386 C821.935,369.328 881.83,332.559 930.259,302.829 " fill="none" id="Route-to-ShipStore" style="stroke:#A80036;stroke-width:1.0;"/><polygon fill="#A80036" points="934.612,300.157,924.8492,301.4561,930.3507,302.7726,929.0342,308.2741,934.612,300.157" style="stroke:#A80036;stroke-width:1.0;"/><!--MD5=[7e679fefda626554512f27693c41bc95]
link Location to ShipDynamic--><path codeLine="98" d="M292.611,387.877 C309.973,398.18 329.42,409.721 348.505,421.047 " fill="none" id="Location-to-ShipDynamic" style="stroke:#A80036;stroke-width:1.0;"/><polygon fill="#A80036" points="352.828,423.613,347.1291,415.5804,348.528,421.0616,343.0468,422.4604,352.828,423.613" style="stroke:#A80036;stroke-width:1.0;"/><!--MD5=[727ee4478fc670386d0eca10ca3905ca]
link MovementData to ShipDynamic--><path codeLine="99" d="M293.18,480.2188 C310.131,480.1396 329.033,480.0512 347.627,479.9644 " fill="none" id="MovementData-to-ShipDynamic" style="stroke:#A80036;stroke-width:1.0;"/><polygon fill="#A80036" points="352.862,479.9399,343.8427,475.9837,347.8621,479.9642,343.8815,483.9836,352.862,479.9399" style="stroke:#A80036;stroke-width:1.0;"/><!--MD5=[f04e04ecc6998d67821b33eb17256457]
link ShipStore to Ship--><path codeLine="100" d="M1166.26,250.5 C1184.45,250.5 1202.84,250.5 1220.48,250.5 " fill="none" id="ShipStore-to-Ship" style="stroke:#A80036;stroke-width:1.0;"/><polygon fill="#A80036" points="1225.92,250.5,1216.92,246.5,1220.92,250.5,1216.92,254.5,1225.92,250.5" style="stroke:#A80036;stroke-width:1.0;"/><text fill="#000000" font-family="sans-serif" font-size="13" lengthAdjust="spacing" textLength="8" x="1174.1883" y="262.9514">1</text><text fill="#000000" font-family="sans-serif" font-size="13" lengthAdjust="spacing" textLength="7" x="1211.1209" y="263.0663">*</text><!--MD5=[ebd94e2f4f44aa7f37a963607b28e3d7]
@startuml
skinparam classAttributeIconSize 0
left to right direction



class Identification {
-mmsi: String
-shipName: String
-imoID: String
+toString()
+equals(ship)
+acessorMethods()
}

class ShipEnergy {
- numbersOfEnergyGenerators: int
- generatorPowerOutput: int
+toString()
+equals(ship)
+acessorMethods()
}

class ShipCharacteristics {
- vesselType: int
- length: int
- width: int
- capacity: int
- draft: int
+toString()
+equals(ship)
+acessorMethods
}

Class "Ship"{
-idShip: Identification
-energy: ShipEnergy
-characteristics: ShipCharacteristics
-route:Route
+toString()
+equals(ship)
+validateIdentification()
+validateEnergy()
+validateCharacteristics()
+validateRoute()
+acessorMethods()

+Ship(idShip, energy, characteristics)
+...() 
}

class ShipStore {
  -BST <Ship> shipStore
  +createShip(idShip, energy, characteristics, route)
  +saveShip(ship)
  +getShip()
}

class ImportShips {
}

Class "ShipDynamic" {
-baseDateTime:LocalDateTime
-location:Location
-movement:MovementData
-transceiverClass:String
+acessorMethods()
}

Class "Location" {
-longitude:double
-latitude:double
+acessorMethods()
}

Class "Route" {
-route:List<ShipDynamic>
+getShipDynamic()
+acessorMethods()
}

Class "MovementData" {
-sog:int
-cog:int
-heading:int
+acessorMethods()
}

ImportShips ..> Identification 
ImportShips ..> ShipEnergy 
ImportShips ..> ShipCharacteristics 
ImportShips ..> MovementData 
ImportShips ..> Location 
ShipCharacteristics - -> ShipStore 
ShipEnergy - -> ShipStore 
Identification - -> ShipStore 
ShipDynamic - -> Route
Route - -> ShipStore 
Location - -> ShipDynamic
MovementData - -> ShipDynamic
ShipStore "1" - -> "*" Ship
@enduml

PlantUML version 1.2021.13beta8(Unknown compile time)
(GPL source distribution)
Java Runtime: Java(TM) SE Runtime Environment
JVM: Java HotSpot(TM) 64-Bit Server VM
Default Encoding: UTF-8
Language: en
Country: US
--></g></svg>