<?xml version="1.0" encoding="UTF-8" standalone="no"?><svg xmlns="http://www.w3.org/2000/svg" xmlns:xlink="http://www.w3.org/1999/xlink" contentScriptType="application/ecmascript" contentStyleType="text/css" height="421px" preserveAspectRatio="none" style="width:158px;height:421px;background:#FFFFFF;" version="1.1" viewBox="0 0 158 421" width="158px" zoomAndPan="magnify"><defs><filter height="300%" id="fzcd42faz4osb" width="300%" x="-1" y="-1"><feGaussianBlur result="blurOut" stdDeviation="2.0"/><feColorMatrix in="blurOut" result="blurOut2" type="matrix" values="0 0 0 0 0 0 0 0 0 0 0 0 0 0 0 0 0 0 .4 0"/><feOffset dx="4.0" dy="4.0" in="blurOut2" result="blurOut3"/><feBlend in="SourceGraphic" in2="blurOut3" mode="normal"/></filter></defs><g><!--MD5=[deb4e1f6eb1e3c1256fdb830f96abfbb]
class Country--><rect codeLine="3" fill="#FEFECE" filter="url(#fzcd42faz4osb)" height="112.0234" id="Country" style="stroke:#A80036;stroke-width:1.5;" width="81" x="35" y="7"/><ellipse cx="51.35" cy="23" fill="#ADD1B2" rx="11" ry="11" style="stroke:#A80036;stroke-width:1.0;"/><path d="M53.6938,18.6719 C52.7563,18.2344 52.1625,18.0938 51.2875,18.0938 C48.6625,18.0938 46.6625,20.1719 46.6625,22.8906 L46.6625,24.0156 C46.6625,26.5938 48.7719,28.4844 51.6625,28.4844 C52.8813,28.4844 54.0375,28.1875 54.7875,27.6406 C55.3656,27.2344 55.6938,26.7813 55.6938,26.3906 C55.6938,25.9375 55.3031,25.5469 54.8344,25.5469 C54.6156,25.5469 54.4125,25.625 54.225,25.8125 C53.7719,26.2969 53.7719,26.2969 53.5844,26.3906 C53.1625,26.6563 52.475,26.7813 51.7094,26.7813 C49.6625,26.7813 48.3656,25.6875 48.3656,23.9844 L48.3656,22.8906 C48.3656,21.1094 49.6156,19.7969 51.35,19.7969 C51.9281,19.7969 52.5375,19.9531 53.0063,20.2031 C53.4906,20.4844 53.6625,20.7031 53.7563,21.1094 C53.8188,21.5156 53.85,21.6406 53.9906,21.7656 C54.1313,21.9063 54.3656,22.0156 54.5844,22.0156 C54.85,22.0156 55.1156,21.875 55.2875,21.6563 C55.3969,21.5 55.4281,21.3125 55.4281,20.8906 L55.4281,19.4688 C55.4281,19.0313 55.4125,18.9063 55.3188,18.75 C55.1625,18.4844 54.8813,18.3438 54.5844,18.3438 C54.2875,18.3438 54.0844,18.4375 53.8656,18.75 L53.6938,18.6719 Z " fill="#000000"/><text fill="#000000" font-family="sans-serif" font-size="12" lengthAdjust="spacing" textLength="46" x="65.65" y="27.1543">Country</text><line style="stroke:#A80036;stroke-width:1.5;" x1="36" x2="115" y1="39" y2="39"/><text fill="#000000" font-family="sans-serif" font-size="11" lengthAdjust="spacing" textLength="37" x="41" y="53.2104">-name</text><text fill="#000000" font-family="sans-serif" font-size="11" lengthAdjust="spacing" textLength="48" x="41" y="66.0151">-location</text><text fill="#000000" font-family="sans-serif" font-size="11" lengthAdjust="spacing" textLength="41" x="41" y="78.8198">-capital</text><text fill="#000000" font-family="sans-serif" font-size="11" lengthAdjust="spacing" textLength="69" x="41" y="91.6245">-alphacodes</text><text fill="#000000" font-family="sans-serif" font-size="11" lengthAdjust="spacing" textLength="9" x="41" y="104.4292">...</text><line style="stroke:#A80036;stroke-width:1.5;" x1="36" x2="115" y1="111.0234" y2="111.0234"/><!--MD5=[5011bf3d6c61ba0c0b7af54c2595cffb]
class CountryPortGraph--><rect codeLine="10" fill="#FEFECE" filter="url(#fzcd42faz4osb)" height="60.8047" id="CountryPortGraph" style="stroke:#A80036;stroke-width:1.5;" width="137" x="7" y="196"/><ellipse cx="22" cy="212" fill="#ADD1B2" rx="11" ry="11" style="stroke:#A80036;stroke-width:1.0;"/><path d="M24.3438,207.6719 C23.4063,207.2344 22.8125,207.0938 21.9375,207.0938 C19.3125,207.0938 17.3125,209.1719 17.3125,211.8906 L17.3125,213.0156 C17.3125,215.5938 19.4219,217.4844 22.3125,217.4844 C23.5313,217.4844 24.6875,217.1875 25.4375,216.6406 C26.0156,216.2344 26.3438,215.7813 26.3438,215.3906 C26.3438,214.9375 25.9531,214.5469 25.4844,214.5469 C25.2656,214.5469 25.0625,214.625 24.875,214.8125 C24.4219,215.2969 24.4219,215.2969 24.2344,215.3906 C23.8125,215.6563 23.125,215.7813 22.3594,215.7813 C20.3125,215.7813 19.0156,214.6875 19.0156,212.9844 L19.0156,211.8906 C19.0156,210.1094 20.2656,208.7969 22,208.7969 C22.5781,208.7969 23.1875,208.9531 23.6563,209.2031 C24.1406,209.4844 24.3125,209.7031 24.4063,210.1094 C24.4688,210.5156 24.5,210.6406 24.6406,210.7656 C24.7813,210.9063 25.0156,211.0156 25.2344,211.0156 C25.5,211.0156 25.7656,210.875 25.9375,210.6563 C26.0469,210.5 26.0781,210.3125 26.0781,209.8906 L26.0781,208.4688 C26.0781,208.0313 26.0625,207.9063 25.9688,207.75 C25.8125,207.4844 25.5313,207.3438 25.2344,207.3438 C24.9375,207.3438 24.7344,207.4375 24.5156,207.75 L24.3438,207.6719 Z " fill="#000000"/><text fill="#000000" font-family="sans-serif" font-size="12" lengthAdjust="spacing" textLength="105" x="36" y="216.1543">CountryPortGraph</text><line style="stroke:#A80036;stroke-width:1.5;" x1="8" x2="143" y1="228" y2="228"/><text fill="#000000" font-family="sans-serif" font-size="11" lengthAdjust="spacing" textLength="36" x="13" y="242.2104">-graph</text><line style="stroke:#A80036;stroke-width:1.5;" x1="8" x2="143" y1="248.8047" y2="248.8047"/><!--MD5=[ddaf6f62b0bc30921877ec9fb9463c9f]
class TrafficManager--><rect codeLine="14" fill="#FEFECE" filter="url(#fzcd42faz4osb)" height="73.6094" id="TrafficManager" style="stroke:#A80036;stroke-width:1.5;" width="121" x="15" y="334"/><ellipse cx="30" cy="350" fill="#ADD1B2" rx="11" ry="11" style="stroke:#A80036;stroke-width:1.0;"/><path d="M32.3438,345.6719 C31.4063,345.2344 30.8125,345.0938 29.9375,345.0938 C27.3125,345.0938 25.3125,347.1719 25.3125,349.8906 L25.3125,351.0156 C25.3125,353.5938 27.4219,355.4844 30.3125,355.4844 C31.5313,355.4844 32.6875,355.1875 33.4375,354.6406 C34.0156,354.2344 34.3438,353.7813 34.3438,353.3906 C34.3438,352.9375 33.9531,352.5469 33.4844,352.5469 C33.2656,352.5469 33.0625,352.625 32.875,352.8125 C32.4219,353.2969 32.4219,353.2969 32.2344,353.3906 C31.8125,353.6563 31.125,353.7813 30.3594,353.7813 C28.3125,353.7813 27.0156,352.6875 27.0156,350.9844 L27.0156,349.8906 C27.0156,348.1094 28.2656,346.7969 30,346.7969 C30.5781,346.7969 31.1875,346.9531 31.6563,347.2031 C32.1406,347.4844 32.3125,347.7031 32.4063,348.1094 C32.4688,348.5156 32.5,348.6406 32.6406,348.7656 C32.7813,348.9063 33.0156,349.0156 33.2344,349.0156 C33.5,349.0156 33.7656,348.875 33.9375,348.6563 C34.0469,348.5 34.0781,348.3125 34.0781,347.8906 L34.0781,346.4688 C34.0781,346.0313 34.0625,345.9063 33.9688,345.75 C33.8125,345.4844 33.5313,345.3438 33.2344,345.3438 C32.9375,345.3438 32.7344,345.4375 32.5156,345.75 L32.3438,345.6719 Z " fill="#000000"/><text fill="#000000" font-family="sans-serif" font-size="12" lengthAdjust="spacing" textLength="89" x="44" y="354.1543">TrafficManager</text><line style="stroke:#A80036;stroke-width:1.5;" x1="16" x2="135" y1="366" y2="366"/><text fill="#000000" font-family="sans-serif" font-size="11" lengthAdjust="spacing" textLength="41" x="21" y="380.2104">-userID</text><text fill="#000000" font-family="sans-serif" font-size="11" lengthAdjust="spacing" textLength="37" x="21" y="393.0151">-name</text><line style="stroke:#A80036;stroke-width:1.5;" x1="16" x2="135" y1="399.6094" y2="399.6094"/><!--MD5=[9d93cb1044a295c4863abd89b71832dd]
reverse link Country to CountryPortGraph--><path codeLine="20" d="M75.5,124.309 C75.5,148.798 75.5,175.972 75.5,195.988 " fill="none" id="Country-backto-CountryPortGraph" style="stroke:#A80036;stroke-width:1.0;"/><polygon fill="#A80036" points="75.5,119.127,71.5,128.127,75.5,124.127,79.5,128.127,75.5,119.127" style="stroke:#A80036;stroke-width:1.0;"/><text fill="#000000" font-family="sans-serif" font-size="13" lengthAdjust="spacing" textLength="39" x="76.5" y="162.0669">paints</text><text fill="#000000" font-family="sans-serif" font-size="13" lengthAdjust="spacing" textLength="27" x="46.8547" y="138.9551">1...*</text><text fill="#000000" font-family="sans-serif" font-size="13" lengthAdjust="spacing" textLength="8" x="66.625" y="184.7757">1</text><!--MD5=[5f6035d42901f1e9b4792f6c38fe33de]
reverse link CountryPortGraph to TrafficManager--><path codeLine="21" d="M75.5,262.133 C75.5,283.894 75.5,311.9132 75.5,333.9405 " fill="none" id="CountryPortGraph-backto-TrafficManager" style="stroke:#A80036;stroke-width:1.0;"/><polygon fill="#A80036" points="75.5,257.026,71.5,266.026,75.5,262.026,79.5,266.026,75.5,257.026" style="stroke:#A80036;stroke-width:1.0;"/><text fill="#000000" font-family="sans-serif" font-size="13" lengthAdjust="spacing" textLength="30" x="76.5" y="300.0669">uses</text><text fill="#000000" font-family="sans-serif" font-size="13" lengthAdjust="spacing" textLength="27" x="45.7156" y="276.9696">1...*</text><text fill="#000000" font-family="sans-serif" font-size="13" lengthAdjust="spacing" textLength="8" x="66.7625" y="322.84">1</text><!--MD5=[6f9b418262eb7a81d38a33e1fb553cf9]
@startuml
skinparam classAttributeIconSize 0

Class Country{
-name
-location
-capital
-alphacodes
...
}
class CountryPortGraph {
-graph
}

class TrafficManager{
-userID
-name
}


Country "1...*" <- - "1" CountryPortGraph : paints
CountryPortGraph "1...*" <- - "1" TrafficManager : uses
@enduml

PlantUML version 1.2021.17beta4(Unknown compile time)
(GPL source distribution)
Java Runtime: Java(TM) SE Runtime Environment
JVM: Java HotSpot(TM) 64-Bit Server VM
Default Encoding: UTF-8
Language: en
Country: US
--></g></svg>