<?xml version="1.0" encoding="UTF-8" standalone="no"?><svg xmlns="http://www.w3.org/2000/svg" xmlns:xlink="http://www.w3.org/1999/xlink" contentScriptType="application/ecmascript" contentStyleType="text/css" height="910px" preserveAspectRatio="none" style="width:293px;height:910px;background:#FFFFFF;" version="1.1" viewBox="0 0 293 910" width="293px" zoomAndPan="magnify"><defs><filter height="300%" id="f1od2p96r9nlij" width="300%" x="-1" y="-1"><feGaussianBlur result="blurOut" stdDeviation="2.0"/><feColorMatrix in="blurOut" result="blurOut2" type="matrix" values="0 0 0 0 0 0 0 0 0 0 0 0 0 0 0 0 0 0 .4 0"/><feOffset dx="4.0" dy="4.0" in="blurOut2" result="blurOut3"/><feBlend in="SourceGraphic" in2="blurOut3" mode="normal"/></filter></defs><g><!--MD5=[18eee71c88ab61f27581b8cbdd3ef5ee]
class Color--><rect codeLine="3" fill="#FEFECE" filter="url(#f1od2p96r9nlij)" height="60.8047" id="Color" style="stroke:#A80036;stroke-width:1.5;" width="215" x="7" y="7"/><ellipse cx="94.25" cy="23" fill="#ADD1B2" rx="11" ry="11" style="stroke:#A80036;stroke-width:1.0;"/><path d="M96.5938,18.6719 C95.6563,18.2344 95.0625,18.0938 94.1875,18.0938 C91.5625,18.0938 89.5625,20.1719 89.5625,22.8906 L89.5625,24.0156 C89.5625,26.5938 91.6719,28.4844 94.5625,28.4844 C95.7813,28.4844 96.9375,28.1875 97.6875,27.6406 C98.2656,27.2344 98.5938,26.7813 98.5938,26.3906 C98.5938,25.9375 98.2031,25.5469 97.7344,25.5469 C97.5156,25.5469 97.3125,25.625 97.125,25.8125 C96.6719,26.2969 96.6719,26.2969 96.4844,26.3906 C96.0625,26.6563 95.375,26.7813 94.6094,26.7813 C92.5625,26.7813 91.2656,25.6875 91.2656,23.9844 L91.2656,22.8906 C91.2656,21.1094 92.5156,19.7969 94.25,19.7969 C94.8281,19.7969 95.4375,19.9531 95.9063,20.2031 C96.3906,20.4844 96.5625,20.7031 96.6563,21.1094 C96.7188,21.5156 96.75,21.6406 96.8906,21.7656 C97.0313,21.9063 97.2656,22.0156 97.4844,22.0156 C97.75,22.0156 98.0156,21.875 98.1875,21.6563 C98.2969,21.5 98.3281,21.3125 98.3281,20.8906 L98.3281,19.4688 C98.3281,19.0313 98.3125,18.9063 98.2188,18.75 C98.0625,18.4844 97.7813,18.3438 97.4844,18.3438 C97.1875,18.3438 96.9844,18.4375 96.7656,18.75 L96.5938,18.6719 Z " fill="#000000"/><text fill="#000000" font-family="sans-serif" font-size="12" lengthAdjust="spacing" textLength="32" x="114.75" y="27.1543">Color</text><line style="stroke:#A80036;stroke-width:1.5;" x1="8" x2="221" y1="39" y2="39"/><line style="stroke:#A80036;stroke-width:1.5;" x1="8" x2="221" y1="47" y2="47"/><text fill="#000000" font-family="sans-serif" font-size="11" lengthAdjust="spacing" textLength="203" x="13" y="61.2104">+colorGraph(graph,initialV,vertices);</text><!--MD5=[02e4b9b7573f1156f41e60aa5b4e25a4]
class Company--><rect codeLine="6" fill="#FEFECE" filter="url(#f1od2p96r9nlij)" height="73.6094" id="Company" style="stroke:#A80036;stroke-width:1.5;" width="126" x="51.5" y="249"/><ellipse cx="83.6" cy="265" fill="#ADD1B2" rx="11" ry="11" style="stroke:#A80036;stroke-width:1.0;"/><path d="M85.9438,260.6719 C85.0063,260.2344 84.4125,260.0938 83.5375,260.0938 C80.9125,260.0938 78.9125,262.1719 78.9125,264.8906 L78.9125,266.0156 C78.9125,268.5938 81.0219,270.4844 83.9125,270.4844 C85.1313,270.4844 86.2875,270.1875 87.0375,269.6406 C87.6156,269.2344 87.9438,268.7813 87.9438,268.3906 C87.9438,267.9375 87.5531,267.5469 87.0844,267.5469 C86.8656,267.5469 86.6625,267.625 86.475,267.8125 C86.0219,268.2969 86.0219,268.2969 85.8344,268.3906 C85.4125,268.6563 84.725,268.7813 83.9594,268.7813 C81.9125,268.7813 80.6156,267.6875 80.6156,265.9844 L80.6156,264.8906 C80.6156,263.1094 81.8656,261.7969 83.6,261.7969 C84.1781,261.7969 84.7875,261.9531 85.2563,262.2031 C85.7406,262.4844 85.9125,262.7031 86.0063,263.1094 C86.0688,263.5156 86.1,263.6406 86.2406,263.7656 C86.3813,263.9063 86.6156,264.0156 86.8344,264.0156 C87.1,264.0156 87.3656,263.875 87.5375,263.6563 C87.6469,263.5 87.6781,263.3125 87.6781,262.8906 L87.6781,261.4688 C87.6781,261.0313 87.6625,260.9063 87.5688,260.75 C87.4125,260.4844 87.1313,260.3438 86.8344,260.3438 C86.5375,260.3438 86.3344,260.4375 86.1156,260.75 L85.9438,260.6719 Z " fill="#000000"/><text fill="#000000" font-family="sans-serif" font-size="12" lengthAdjust="spacing" textLength="56" x="101.4" y="269.1543">Company</text><line style="stroke:#A80036;stroke-width:1.5;" x1="52.5" x2="176.5" y1="281" y2="281"/><text fill="#000000" font-family="sans-serif" font-size="11" lengthAdjust="spacing" textLength="107" x="57.5" y="295.2104">-String designation</text><line style="stroke:#A80036;stroke-width:1.5;" x1="52.5" x2="176.5" y1="301.8047" y2="301.8047"/><text fill="#000000" font-family="sans-serif" font-size="11" lengthAdjust="spacing" textLength="114" x="57.5" y="316.0151">+getCountryStore();</text><!--MD5=[187ccc8030f0f5b4620e42336e46a3c3]
class ColorMapController--><rect codeLine="11" fill="#FEFECE" filter="url(#f1od2p96r9nlij)" height="60.8047" id="ColorMapController" style="stroke:#A80036;stroke-width:1.5;" width="215" x="7" y="128"/><ellipse cx="52.25" cy="144" fill="#ADD1B2" rx="11" ry="11" style="stroke:#A80036;stroke-width:1.0;"/><path d="M54.5938,139.6719 C53.6563,139.2344 53.0625,139.0938 52.1875,139.0938 C49.5625,139.0938 47.5625,141.1719 47.5625,143.8906 L47.5625,145.0156 C47.5625,147.5938 49.6719,149.4844 52.5625,149.4844 C53.7813,149.4844 54.9375,149.1875 55.6875,148.6406 C56.2656,148.2344 56.5938,147.7813 56.5938,147.3906 C56.5938,146.9375 56.2031,146.5469 55.7344,146.5469 C55.5156,146.5469 55.3125,146.625 55.125,146.8125 C54.6719,147.2969 54.6719,147.2969 54.4844,147.3906 C54.0625,147.6563 53.375,147.7813 52.6094,147.7813 C50.5625,147.7813 49.2656,146.6875 49.2656,144.9844 L49.2656,143.8906 C49.2656,142.1094 50.5156,140.7969 52.25,140.7969 C52.8281,140.7969 53.4375,140.9531 53.9063,141.2031 C54.3906,141.4844 54.5625,141.7031 54.6563,142.1094 C54.7188,142.5156 54.75,142.6406 54.8906,142.7656 C55.0313,142.9063 55.2656,143.0156 55.4844,143.0156 C55.75,143.0156 56.0156,142.875 56.1875,142.6563 C56.2969,142.5 56.3281,142.3125 56.3281,141.8906 L56.3281,140.4688 C56.3281,140.0313 56.3125,139.9063 56.2188,139.75 C56.0625,139.4844 55.7813,139.3438 55.4844,139.3438 C55.1875,139.3438 54.9844,139.4375 54.7656,139.75 L54.5938,139.6719 Z " fill="#000000"/><text fill="#000000" font-family="sans-serif" font-size="12" lengthAdjust="spacing" textLength="116" x="72.75" y="148.1543">ColorMapController</text><line style="stroke:#A80036;stroke-width:1.5;" x1="8" x2="221" y1="160" y2="160"/><line style="stroke:#A80036;stroke-width:1.5;" x1="8" x2="221" y1="168" y2="168"/><text fill="#000000" font-family="sans-serif" font-size="11" lengthAdjust="spacing" textLength="203" x="13" y="182.2104">+colorGraph(graph,initialV,vertices);</text><!--MD5=[39bd93f34fc8006abbe022eeaeb47b84]
class CountryDB--><rect codeLine="15" fill="#FEFECE" filter="url(#f1od2p96r9nlij)" height="73.6094" id="CountryDB" style="stroke:#A80036;stroke-width:1.5;" width="215" x="7" y="383"/><ellipse cx="78.75" cy="399" fill="#ADD1B2" rx="11" ry="11" style="stroke:#A80036;stroke-width:1.0;"/><path d="M81.0938,394.6719 C80.1563,394.2344 79.5625,394.0938 78.6875,394.0938 C76.0625,394.0938 74.0625,396.1719 74.0625,398.8906 L74.0625,400.0156 C74.0625,402.5938 76.1719,404.4844 79.0625,404.4844 C80.2813,404.4844 81.4375,404.1875 82.1875,403.6406 C82.7656,403.2344 83.0938,402.7813 83.0938,402.3906 C83.0938,401.9375 82.7031,401.5469 82.2344,401.5469 C82.0156,401.5469 81.8125,401.625 81.625,401.8125 C81.1719,402.2969 81.1719,402.2969 80.9844,402.3906 C80.5625,402.6563 79.875,402.7813 79.1094,402.7813 C77.0625,402.7813 75.7656,401.6875 75.7656,399.9844 L75.7656,398.8906 C75.7656,397.1094 77.0156,395.7969 78.75,395.7969 C79.3281,395.7969 79.9375,395.9531 80.4063,396.2031 C80.8906,396.4844 81.0625,396.7031 81.1563,397.1094 C81.2188,397.5156 81.25,397.6406 81.3906,397.7656 C81.5313,397.9063 81.7656,398.0156 81.9844,398.0156 C82.25,398.0156 82.5156,397.875 82.6875,397.6563 C82.7969,397.5 82.8281,397.3125 82.8281,396.8906 L82.8281,395.4688 C82.8281,395.0313 82.8125,394.9063 82.7188,394.75 C82.5625,394.4844 82.2813,394.3438 81.9844,394.3438 C81.6875,394.3438 81.4844,394.4375 81.2656,394.75 L81.0938,394.6719 Z " fill="#000000"/><text fill="#000000" font-family="sans-serif" font-size="12" lengthAdjust="spacing" textLength="63" x="99.25" y="403.1543">CountryDB</text><line style="stroke:#A80036;stroke-width:1.5;" x1="8" x2="221" y1="415" y2="415"/><text fill="#000000" font-family="sans-serif" font-size="11" lengthAdjust="spacing" textLength="122" x="13" y="429.2104">+Graph &lt;V,E&gt; graph;</text><line style="stroke:#A80036;stroke-width:1.5;" x1="8" x2="221" y1="435.8047" y2="435.8047"/><text fill="#000000" font-family="sans-serif" font-size="11" lengthAdjust="spacing" textLength="203" x="13" y="450.0151">+colorGraph(graph,initialV,vertices);</text><!--MD5=[deb4e1f6eb1e3c1256fdb830f96abfbb]
class Country--><rect codeLine="22" fill="#FEFECE" filter="url(#f1od2p96r9nlij)" height="124.8281" id="Country" style="stroke:#A80036;stroke-width:1.5;" width="131" x="49" y="651"/><ellipse cx="87.85" cy="667" fill="#ADD1B2" rx="11" ry="11" style="stroke:#A80036;stroke-width:1.0;"/><path d="M90.1938,662.6719 C89.2563,662.2344 88.6625,662.0938 87.7875,662.0938 C85.1625,662.0938 83.1625,664.1719 83.1625,666.8906 L83.1625,668.0156 C83.1625,670.5938 85.2719,672.4844 88.1625,672.4844 C89.3813,672.4844 90.5375,672.1875 91.2875,671.6406 C91.8656,671.2344 92.1938,670.7813 92.1938,670.3906 C92.1938,669.9375 91.8031,669.5469 91.3344,669.5469 C91.1156,669.5469 90.9125,669.625 90.725,669.8125 C90.2719,670.2969 90.2719,670.2969 90.0844,670.3906 C89.6625,670.6563 88.975,670.7813 88.2094,670.7813 C86.1625,670.7813 84.8656,669.6875 84.8656,667.9844 L84.8656,666.8906 C84.8656,665.1094 86.1156,663.7969 87.85,663.7969 C88.4281,663.7969 89.0375,663.9531 89.5063,664.2031 C89.9906,664.4844 90.1625,664.7031 90.2563,665.1094 C90.3188,665.5156 90.35,665.6406 90.4906,665.7656 C90.6313,665.9063 90.8656,666.0156 91.0844,666.0156 C91.35,666.0156 91.6156,665.875 91.7875,665.6563 C91.8969,665.5 91.9281,665.3125 91.9281,664.8906 L91.9281,663.4688 C91.9281,663.0313 91.9125,662.9063 91.8188,662.75 C91.6625,662.4844 91.3813,662.3438 91.0844,662.3438 C90.7875,662.3438 90.5844,662.4375 90.3656,662.75 L90.1938,662.6719 Z " fill="#000000"/><text fill="#000000" font-family="sans-serif" font-size="12" lengthAdjust="spacing" textLength="46" x="107.15" y="671.1543">Country</text><line style="stroke:#A80036;stroke-width:1.5;" x1="50" x2="179" y1="683" y2="683"/><text fill="#000000" font-family="sans-serif" font-size="11" lengthAdjust="spacing" textLength="119" x="55" y="697.2104">-Continent continent;</text><text fill="#000000" font-family="sans-serif" font-size="11" lengthAdjust="spacing" textLength="77" x="55" y="710.0151">-String name;</text><text fill="#000000" font-family="sans-serif" font-size="11" lengthAdjust="spacing" textLength="110" x="55" y="722.8198">-String AlphaCode2</text><text fill="#000000" font-family="sans-serif" font-size="11" lengthAdjust="spacing" textLength="110" x="55" y="735.6245">-String AlphaCode3</text><text fill="#000000" font-family="sans-serif" font-size="11" lengthAdjust="spacing" textLength="99" x="55" y="748.4292">-String Population</text><text fill="#000000" font-family="sans-serif" font-size="11" lengthAdjust="spacing" textLength="9" x="55" y="761.2339">...</text><line style="stroke:#A80036;stroke-width:1.5;" x1="50" x2="179" y1="767.8281" y2="767.8281"/><!--MD5=[e2c3cf1f717dbe59ae4ba9c73a677022]
class Continent--><rect codeLine="31" fill="#FEFECE" filter="url(#f1od2p96r9nlij)" height="60.8047" id="Continent" style="stroke:#A80036;stroke-width:1.5;" width="107" x="61" y="836"/><ellipse cx="84.55" cy="852" fill="#ADD1B2" rx="11" ry="11" style="stroke:#A80036;stroke-width:1.0;"/><path d="M86.8938,847.6719 C85.9563,847.2344 85.3625,847.0938 84.4875,847.0938 C81.8625,847.0938 79.8625,849.1719 79.8625,851.8906 L79.8625,853.0156 C79.8625,855.5938 81.9719,857.4844 84.8625,857.4844 C86.0813,857.4844 87.2375,857.1875 87.9875,856.6406 C88.5656,856.2344 88.8938,855.7813 88.8938,855.3906 C88.8938,854.9375 88.5031,854.5469 88.0344,854.5469 C87.8156,854.5469 87.6125,854.625 87.425,854.8125 C86.9719,855.2969 86.9719,855.2969 86.7844,855.3906 C86.3625,855.6563 85.675,855.7813 84.9094,855.7813 C82.8625,855.7813 81.5656,854.6875 81.5656,852.9844 L81.5656,851.8906 C81.5656,850.1094 82.8156,848.7969 84.55,848.7969 C85.1281,848.7969 85.7375,848.9531 86.2063,849.2031 C86.6906,849.4844 86.8625,849.7031 86.9563,850.1094 C87.0188,850.5156 87.05,850.6406 87.1906,850.7656 C87.3313,850.9063 87.5656,851.0156 87.7844,851.0156 C88.05,851.0156 88.3156,850.875 88.4875,850.6563 C88.5969,850.5 88.6281,850.3125 88.6281,849.8906 L88.6281,848.4688 C88.6281,848.0313 88.6125,847.9063 88.5188,847.75 C88.3625,847.4844 88.0813,847.3438 87.7844,847.3438 C87.4875,847.3438 87.2844,847.4375 87.0656,847.75 L86.8938,847.6719 Z " fill="#000000"/><text fill="#000000" font-family="sans-serif" font-size="12" lengthAdjust="spacing" textLength="56" x="100.45" y="856.1543">Continent</text><line style="stroke:#A80036;stroke-width:1.5;" x1="62" x2="167" y1="868" y2="868"/><text fill="#000000" font-family="sans-serif" font-size="11" lengthAdjust="spacing" textLength="95" x="67" y="882.2104">String Continent;</text><line style="stroke:#A80036;stroke-width:1.5;" x1="62" x2="167" y1="888.8047" y2="888.8047"/><!--MD5=[c4c4c9fe05eef2d226255f76196ccc45]
class ColorGraph--><rect codeLine="35" fill="#FEFECE" filter="url(#f1od2p96r9nlij)" height="73.6094" id="ColorGraph" style="stroke:#A80036;stroke-width:1.5;" width="183" x="96" y="517"/><ellipse cx="149.25" cy="533" fill="#ADD1B2" rx="11" ry="11" style="stroke:#A80036;stroke-width:1.0;"/><path d="M151.5938,528.6719 C150.6563,528.2344 150.0625,528.0938 149.1875,528.0938 C146.5625,528.0938 144.5625,530.1719 144.5625,532.8906 L144.5625,534.0156 C144.5625,536.5938 146.6719,538.4844 149.5625,538.4844 C150.7813,538.4844 151.9375,538.1875 152.6875,537.6406 C153.2656,537.2344 153.5938,536.7813 153.5938,536.3906 C153.5938,535.9375 153.2031,535.5469 152.7344,535.5469 C152.5156,535.5469 152.3125,535.625 152.125,535.8125 C151.6719,536.2969 151.6719,536.2969 151.4844,536.3906 C151.0625,536.6563 150.375,536.7813 149.6094,536.7813 C147.5625,536.7813 146.2656,535.6875 146.2656,533.9844 L146.2656,532.8906 C146.2656,531.1094 147.5156,529.7969 149.25,529.7969 C149.8281,529.7969 150.4375,529.9531 150.9063,530.2031 C151.3906,530.4844 151.5625,530.7031 151.6563,531.1094 C151.7188,531.5156 151.75,531.6406 151.8906,531.7656 C152.0313,531.9063 152.2656,532.0156 152.4844,532.0156 C152.75,532.0156 153.0156,531.875 153.1875,531.6563 C153.2969,531.5 153.3281,531.3125 153.3281,530.8906 L153.3281,529.4688 C153.3281,529.0313 153.3125,528.9063 153.2188,528.75 C153.0625,528.4844 152.7813,528.3438 152.4844,528.3438 C152.1875,528.3438 151.9844,528.4375 151.7656,528.75 L151.5938,528.6719 Z " fill="#000000"/><text fill="#000000" font-family="sans-serif" font-size="12" lengthAdjust="spacing" textLength="68" x="169.75" y="537.1543">ColorGraph</text><line style="stroke:#A80036;stroke-width:1.5;" x1="97" x2="278" y1="549" y2="549"/><line style="stroke:#A80036;stroke-width:1.5;" x1="97" x2="278" y1="557" y2="557"/><text fill="#000000" font-family="sans-serif" font-size="11" lengthAdjust="spacing" textLength="56" x="102" y="571.2104">isSafe(G);</text><text fill="#000000" font-family="sans-serif" font-size="11" lengthAdjust="spacing" textLength="171" x="102" y="584.0151">colorGraph(G,initialV,vertices);</text><!--MD5=[edc28f615057d308b1208166f5d18541]
link Color to ColorMapController--><path codeLine="40" d="M114.5,68.222 C114.5,84.692 114.5,105.264 114.5,122.508 " fill="none" id="Color-to-ColorMapController" style="stroke:#A80036;stroke-width:1.0;stroke-dasharray:7.0,7.0;"/><polygon fill="#A80036" points="114.5,127.745,118.5,118.745,114.5,122.745,110.5,118.745,114.5,127.745" style="stroke:#A80036;stroke-width:1.0;"/><!--MD5=[28378cbcee576952c3e42177ab692a6d]
link ColorMapController to Company--><path codeLine="41" d="M114.5,189.242 C114.5,205.401 114.5,225.644 114.5,243.349 " fill="none" id="ColorMapController-to-Company" style="stroke:#A80036;stroke-width:1.0;stroke-dasharray:7.0,7.0;"/><polygon fill="#A80036" points="114.5,248.755,118.5,239.755,114.5,243.755,110.5,239.755,114.5,248.755" style="stroke:#A80036;stroke-width:1.0;"/><!--MD5=[56070043a7460e0f93dc95f5fb50caec]
link Company to CountryDB--><path codeLine="42" d="M114.5,323.07 C114.5,339.949 114.5,360.142 114.5,377.638 " fill="none" id="Company-to-CountryDB" style="stroke:#A80036;stroke-width:1.0;"/><polygon fill="#A80036" points="114.5,382.974,118.5,373.974,114.5,377.974,110.5,373.974,114.5,382.974" style="stroke:#A80036;stroke-width:1.0;"/><!--MD5=[fcbfbc79f205c5ad7d7834381de50150]
link CountryDB to ColorGraph--><path codeLine="43" d="M134.448,457.07 C143.943,474.24 155.335,494.839 165.124,512.54 " fill="none" id="CountryDB-to-ColorGraph" style="stroke:#A80036;stroke-width:1.0;"/><polygon fill="#A80036" points="167.577,516.974,166.7241,507.1621,165.1583,512.598,159.7224,511.0321,167.577,516.974" style="stroke:#A80036;stroke-width:1.0;"/><!--MD5=[18c69b1ecfb7b304fdeb259eff371058]
link CountryDB to Country--><path codeLine="44" d="M97.4719,457.048 C90.0548,474.695 82.2159,496.508 78.5,517 C70.7211,559.898 79.3859,608.065 90.1597,645.855 " fill="none" id="CountryDB-to-Country" style="stroke:#A80036;stroke-width:1.0;"/><polygon fill="#A80036" points="91.6224,650.88,92.9482,641.1208,90.2253,646.0792,85.2669,643.3562,91.6224,650.88" style="stroke:#A80036;stroke-width:1.0;"/><!--MD5=[5441d3375ffa34077aa10d199a121070]
link ColorGraph to Country--><path codeLine="45" d="M170.752,591.134 C163.185,607.46 153.997,627.283 145.26,646.135 " fill="none" id="ColorGraph-to-Country" style="stroke:#A80036;stroke-width:1.0;"/><polygon fill="#A80036" points="143.049,650.904,150.4627,644.4204,145.1515,646.3676,143.2044,641.0564,143.049,650.904" style="stroke:#A80036;stroke-width:1.0;"/><!--MD5=[5936ec3a99dd07d607b5cbd0ac003fad]
link Country to Continent--><path codeLine="46" d="M114.5,776.353 C114.5,794.793 114.5,814.3567 114.5,830.4443 " fill="none" id="Country-to-Continent" style="stroke:#A80036;stroke-width:1.0;"/><polygon fill="#A80036" points="114.5,835.7602,118.5,826.7602,114.5,830.7602,110.5,826.7602,114.5,835.7602" style="stroke:#A80036;stroke-width:1.0;"/><!--MD5=[ab0c1e6b4a0a04419daacd73e214b816]
@startuml
skinparam classAttributeIconSize 0

class Color {
+colorGraph(graph,initialV,vertices);
}
class Company {
  -String designation
  +getCountryStore();
}

class ColorMapController {
+colorGraph(graph,initialV,vertices);
}

class CountryDB {
+Graph <V,E> graph;
+colorGraph(graph,initialV,vertices);


}

class Country {
-Continent continent;
-String name;
-String AlphaCode2
-String AlphaCode3
-String Population
...
}

class Continent {
String Continent;
}

class ColorGraph {
isSafe(G);
colorGraph(G,initialV,vertices);
}

Color ..> ColorMapController
ColorMapController ..> Company
Company - -> CountryDB
CountryDB - -> ColorGraph
CountryDB - -> Country
ColorGraph - -> Country
Country - -> Continent
@enduml

PlantUML version 1.2021.17beta3(Unknown compile time)
(GPL source distribution)
Java Runtime: Java(TM) SE Runtime Environment
JVM: Java HotSpot(TM) 64-Bit Server VM
Default Encoding: UTF-8
Language: en
Country: US
--></g></svg>