<?xml version="1.0" encoding="UTF-8" standalone="no"?><svg xmlns="http://www.w3.org/2000/svg" xmlns:xlink="http://www.w3.org/1999/xlink" contentScriptType="application/ecmascript" contentStyleType="text/css" height="368px" preserveAspectRatio="none" style="width:1269px;height:368px;background:#FFFFFF;" version="1.1" viewBox="0 0 1269 368" width="1269px" zoomAndPan="magnify"><defs><filter height="300%" id="fx4urptiz3296" width="300%" x="-1" y="-1"><feGaussianBlur result="blurOut" stdDeviation="2.0"/><feColorMatrix in="blurOut" result="blurOut2" type="matrix" values="0 0 0 0 0 0 0 0 0 0 0 0 0 0 0 0 0 0 .4 0"/><feOffset dx="4.0" dy="4.0" in="blurOut2" result="blurOut3"/><feBlend in="SourceGraphic" in2="blurOut3" mode="normal"/></filter></defs><g><rect fill="#FFFFFF" filter="url(#fx4urptiz3296)" height="176.6641" style="stroke:#A80036;stroke-width:1.0;" width="10" x="59" y="98.2969"/><rect fill="#FFFFFF" filter="url(#fx4urptiz3296)" height="146.5313" style="stroke:#A80036;stroke-width:1.0;" width="10" x="420" y="119.4297"/><rect fill="#FFFFFF" filter="url(#fx4urptiz3296)" height="88.2656" style="stroke:#A80036;stroke-width:1.0;" width="10" x="746" y="148.5625"/><rect fill="#FFFFFF" filter="url(#fx4urptiz3296)" height="30" style="stroke:#A80036;stroke-width:1.0;" width="10" x="1022" y="177.6953"/><line style="stroke:#A80036;stroke-width:1.0;stroke-dasharray:5.0,5.0;" x1="64" x2="64" y1="88.2969" y2="283.9609"/><line style="stroke:#A80036;stroke-width:1.0;stroke-dasharray:5.0,5.0;" x1="424.5" x2="424.5" y1="88.2969" y2="283.9609"/><line style="stroke:#A80036;stroke-width:1.0;stroke-dasharray:5.0,5.0;" x1="751" x2="751" y1="88.2969" y2="283.9609"/><line style="stroke:#A80036;stroke-width:1.0;stroke-dasharray:5.0,5.0;" x1="1027" x2="1027" y1="88.2969" y2="283.9609"/><line style="stroke:#A80036;stroke-width:1.0;stroke-dasharray:5.0,5.0;" x1="1128" x2="1128" y1="88.2969" y2="283.9609"/><line style="stroke:#A80036;stroke-width:1.0;stroke-dasharray:5.0,5.0;" x1="1220" x2="1220" y1="88.2969" y2="283.9609"/><text fill="#000000" font-family="sans-serif" font-size="14" lengthAdjust="spacing" textLength="112" x="5" y="84.9951">Traffic Manager</text><ellipse cx="64" cy="15" fill="#FEFECE" filter="url(#fx4urptiz3296)" rx="8" ry="8" style="stroke:#A80036;stroke-width:2.0;"/><path d="M64,23 L64,50 M51,31 L77,31 M64,50 L51,65 M64,50 L77,65 " fill="none" filter="url(#fx4urptiz3296)" style="stroke:#A80036;stroke-width:2.0;"/><text fill="#000000" font-family="sans-serif" font-size="14" lengthAdjust="spacing" textLength="112" x="5" y="295.9561">Traffic Manager</text><ellipse cx="64" cy="309.2578" fill="#FEFECE" filter="url(#fx4urptiz3296)" rx="8" ry="8" style="stroke:#A80036;stroke-width:2.0;"/><path d="M64,317.2578 L64,344.2578 M51,325.2578 L77,325.2578 M64,344.2578 L51,359.2578 M64,344.2578 L77,359.2578 " fill="none" filter="url(#fx4urptiz3296)" style="stroke:#A80036;stroke-width:2.0;"/><rect fill="#FEFECE" filter="url(#fx4urptiz3296)" height="30.2969" style="stroke:#A80036;stroke-width:1.5;" width="87" x="379.5" y="53"/><text fill="#000000" font-family="sans-serif" font-size="14" lengthAdjust="spacing" textLength="73" x="386.5" y="72.9951">:ColorMap</text><rect fill="#FEFECE" filter="url(#fx4urptiz3296)" height="30.2969" style="stroke:#A80036;stroke-width:1.5;" width="87" x="379.5" y="282.9609"/><text fill="#000000" font-family="sans-serif" font-size="14" lengthAdjust="spacing" textLength="73" x="386.5" y="302.9561">:ColorMap</text><rect fill="#FEFECE" filter="url(#fx4urptiz3296)" height="30.2969" style="stroke:#A80036;stroke-width:1.5;" width="160" x="669" y="53"/><text fill="#000000" font-family="sans-serif" font-size="14" lengthAdjust="spacing" textLength="146" x="676" y="72.9951">:ColorMapController</text><rect fill="#FEFECE" filter="url(#fx4urptiz3296)" height="30.2969" style="stroke:#A80036;stroke-width:1.5;" width="160" x="669" y="282.9609"/><text fill="#000000" font-family="sans-serif" font-size="14" lengthAdjust="spacing" textLength="146" x="676" y="302.9561">:ColorMapController</text><rect fill="#FEFECE" filter="url(#fx4urptiz3296)" height="46.5938" style="stroke:#A80036;stroke-width:1.5;" width="92" x="979" y="36.7031"/><text fill="#000000" font-family="sans-serif" font-size="14" lengthAdjust="spacing" textLength="34" x="1008" y="56.6982">cDb:</text><text fill="#000000" font-family="sans-serif" font-size="14" lengthAdjust="spacing" textLength="78" x="986" y="72.9951">CountryDB</text><rect fill="#FEFECE" filter="url(#fx4urptiz3296)" height="46.5938" style="stroke:#A80036;stroke-width:1.5;" width="92" x="979" y="282.9609"/><text fill="#000000" font-family="sans-serif" font-size="14" lengthAdjust="spacing" textLength="34" x="1008" y="302.9561">cDb:</text><text fill="#000000" font-family="sans-serif" font-size="14" lengthAdjust="spacing" textLength="78" x="986" y="319.2529">CountryDB</text><rect fill="#FEFECE" filter="url(#fx4urptiz3296)" height="46.5938" style="stroke:#A80036;stroke-width:1.5;" width="82" x="1085" y="36.7031"/><text fill="#000000" font-family="sans-serif" font-size="14" lengthAdjust="spacing" textLength="13" x="1119.5" y="56.6982">c:</text><text fill="#000000" font-family="sans-serif" font-size="14" lengthAdjust="spacing" textLength="68" x="1092" y="72.9951">ColorMap</text><rect fill="#FEFECE" filter="url(#fx4urptiz3296)" height="46.5938" style="stroke:#A80036;stroke-width:1.5;" width="82" x="1085" y="282.9609"/><text fill="#000000" font-family="sans-serif" font-size="14" lengthAdjust="spacing" textLength="13" x="1119.5" y="302.9561">c:</text><text fill="#000000" font-family="sans-serif" font-size="14" lengthAdjust="spacing" textLength="68" x="1092" y="319.2529">ColorMap</text><rect fill="#FEFECE" filter="url(#fx4urptiz3296)" height="46.5938" style="stroke:#A80036;stroke-width:1.5;" width="74" x="1181" y="36.7031"/><text fill="#000000" font-family="sans-serif" font-size="14" lengthAdjust="spacing" textLength="60" x="1188" y="56.6982">country:</text><text fill="#000000" font-family="sans-serif" font-size="14" lengthAdjust="spacing" textLength="57" x="1189.5" y="72.9951">Country</text><rect fill="#FEFECE" filter="url(#fx4urptiz3296)" height="46.5938" style="stroke:#A80036;stroke-width:1.5;" width="74" x="1181" y="282.9609"/><text fill="#000000" font-family="sans-serif" font-size="14" lengthAdjust="spacing" textLength="60" x="1188" y="302.9561">country:</text><text fill="#000000" font-family="sans-serif" font-size="14" lengthAdjust="spacing" textLength="57" x="1189.5" y="319.2529">Country</text><rect fill="#FFFFFF" filter="url(#fx4urptiz3296)" height="176.6641" style="stroke:#A80036;stroke-width:1.0;" width="10" x="59" y="98.2969"/><rect fill="#FFFFFF" filter="url(#fx4urptiz3296)" height="146.5313" style="stroke:#A80036;stroke-width:1.0;" width="10" x="420" y="119.4297"/><rect fill="#FFFFFF" filter="url(#fx4urptiz3296)" height="88.2656" style="stroke:#A80036;stroke-width:1.0;" width="10" x="746" y="148.5625"/><rect fill="#FFFFFF" filter="url(#fx4urptiz3296)" height="30" style="stroke:#A80036;stroke-width:1.0;" width="10" x="1022" y="177.6953"/><polygon fill="#A80036" points="408,115.4297,418,119.4297,408,123.4297,412,119.4297" style="stroke:#A80036;stroke-width:1.0;"/><line style="stroke:#A80036;stroke-width:1.0;" x1="69" x2="414" y1="119.4297" y2="119.4297"/><text fill="#000000" font-family="sans-serif" font-size="13" lengthAdjust="spacing" textLength="332" x="76" y="114.3638">selects to color the map using fewer colors possible</text><polygon fill="#A80036" points="734,144.5625,744,148.5625,734,152.5625,738,148.5625" style="stroke:#A80036;stroke-width:1.0;"/><line style="stroke:#A80036;stroke-width:1.0;" x1="430" x2="740" y1="148.5625" y2="148.5625"/><text fill="#000000" font-family="sans-serif" font-size="13" lengthAdjust="spacing" textLength="223" x="437" y="143.4966">colorGraph(graph,initialV,vertices);</text><polygon fill="#A80036" points="1010,173.6953,1020,177.6953,1010,181.6953,1014,177.6953" style="stroke:#A80036;stroke-width:1.0;"/><line style="stroke:#A80036;stroke-width:1.0;" x1="756" x2="1016" y1="177.6953" y2="177.6953"/><text fill="#000000" font-family="sans-serif" font-size="13" lengthAdjust="spacing" textLength="247" x="763" y="172.6294">cm.colorGraph(graph,initialV,vertices);</text><polygon fill="#A80036" points="441,232.8281,431,236.8281,441,240.8281,437,236.8281" style="stroke:#A80036;stroke-width:1.0;"/><line style="stroke:#A80036;stroke-width:1.0;" x1="435" x2="750" y1="236.8281" y2="236.8281"/><text fill="#000000" font-family="sans-serif" font-size="13" lengthAdjust="spacing" textLength="292" x="447" y="231.7622">return map colored (Map &lt;Country,Integer&gt;);</text><polygon fill="#A80036" points="80,261.9609,70,265.9609,80,269.9609,76,265.9609" style="stroke:#A80036;stroke-width:1.0;"/><line style="stroke:#A80036;stroke-width:1.0;stroke-dasharray:2.0,2.0;" x1="74" x2="424" y1="265.9609" y2="265.9609"/><text fill="#000000" font-family="sans-serif" font-size="13" lengthAdjust="spacing" textLength="125" x="86" y="260.895">shows map colored</text><!--MD5=[ab8af8c1b9cd4dcde536aa57bf2fad5d]
@startuml
actor "Traffic Manager" as TM
participant ":ColorMap" as POS
participant ":ColorMapController" as CTRL
participant "cDb:\nCountryDB" as STORE
participant "c:\nColorMap" as c
participant "country:\nCountry" as country


activate TM
TM-> POS : selects to color the map using fewer colors possible
activate POS
POS -> CTRL  : colorGraph(graph,initialV,vertices);
activate CTRL
CTRL -> STORE : cm.colorGraph(graph,initialV,vertices);
activate STORE
deactivate STORE
CTRL-> POS : return map colored (Map <Country,Integer>);
deactivate CTRL
POS - -> TM : shows map colored
deactivate POS
@enduml

PlantUML version 1.2021.17beta3(Unknown compile time)
(GPL source distribution)
Java Runtime: Java(TM) SE Runtime Environment
JVM: Java HotSpot(TM) 64-Bit Server VM
Default Encoding: UTF-8
Language: en
Country: US
--></g></svg>