<?xml version="1.0" encoding="UTF-8" standalone="no"?><svg xmlns="http://www.w3.org/2000/svg" xmlns:xlink="http://www.w3.org/1999/xlink" contentScriptType="application/ecmascript" contentStyleType="text/css" height="871px" preserveAspectRatio="none" style="width:224px;height:871px;background:#FFFFFF;" version="1.1" viewBox="0 0 224 871" width="224px" zoomAndPan="magnify"><defs><filter height="300%" id="f1f1jij96do5hx" width="300%" x="-1" y="-1"><feGaussianBlur result="blurOut" stdDeviation="2.0"/><feColorMatrix in="blurOut" result="blurOut2" type="matrix" values="0 0 0 0 0 0 0 0 0 0 0 0 0 0 0 0 0 0 .4 0"/><feOffset dx="4.0" dy="4.0" in="blurOut2" result="blurOut3"/><feBlend in="SourceGraphic" in2="blurOut3" mode="normal"/></filter></defs><g><!--MD5=[5011bf3d6c61ba0c0b7af54c2595cffb]
class CountryPortGraph--><rect codeLine="3" fill="#FEFECE" filter="url(#f1f1jij96do5hx)" height="60.8047" id="CountryPortGraph" style="stroke:#A80036;stroke-width:1.5;" width="137" x="7" y="383"/><ellipse cx="22" cy="399" fill="#ADD1B2" rx="11" ry="11" style="stroke:#A80036;stroke-width:1.0;"/><path d="M24.3438,394.6719 C23.4063,394.2344 22.8125,394.0938 21.9375,394.0938 C19.3125,394.0938 17.3125,396.1719 17.3125,398.8906 L17.3125,400.0156 C17.3125,402.5938 19.4219,404.4844 22.3125,404.4844 C23.5313,404.4844 24.6875,404.1875 25.4375,403.6406 C26.0156,403.2344 26.3438,402.7813 26.3438,402.3906 C26.3438,401.9375 25.9531,401.5469 25.4844,401.5469 C25.2656,401.5469 25.0625,401.625 24.875,401.8125 C24.4219,402.2969 24.4219,402.2969 24.2344,402.3906 C23.8125,402.6563 23.125,402.7813 22.3594,402.7813 C20.3125,402.7813 19.0156,401.6875 19.0156,399.9844 L19.0156,398.8906 C19.0156,397.1094 20.2656,395.7969 22,395.7969 C22.5781,395.7969 23.1875,395.9531 23.6563,396.2031 C24.1406,396.4844 24.3125,396.7031 24.4063,397.1094 C24.4688,397.5156 24.5,397.6406 24.6406,397.7656 C24.7813,397.9063 25.0156,398.0156 25.2344,398.0156 C25.5,398.0156 25.7656,397.875 25.9375,397.6563 C26.0469,397.5 26.0781,397.3125 26.0781,396.8906 L26.0781,395.4688 C26.0781,395.0313 26.0625,394.9063 25.9688,394.75 C25.8125,394.4844 25.5313,394.3438 25.2344,394.3438 C24.9375,394.3438 24.7344,394.4375 24.5156,394.75 L24.3438,394.6719 Z " fill="#000000"/><text fill="#000000" font-family="sans-serif" font-size="12" lengthAdjust="spacing" textLength="105" x="36" y="403.1543">CountryPortGraph</text><line style="stroke:#A80036;stroke-width:1.5;" x1="8" x2="143" y1="415" y2="415"/><line style="stroke:#A80036;stroke-width:1.5;" x1="8" x2="143" y1="423" y2="423"/><text fill="#000000" font-family="sans-serif" font-size="11" lengthAdjust="spacing" textLength="52" x="13" y="437.2104">+graph();</text><!--MD5=[18eee71c88ab61f27581b8cbdd3ef5ee]
class Color--><rect codeLine="7" fill="#FEFECE" filter="url(#f1f1jij96do5hx)" height="60.8047" id="Color" style="stroke:#A80036;stroke-width:1.5;" width="125" x="74" y="7"/><ellipse cx="116.45" cy="23" fill="#ADD1B2" rx="11" ry="11" style="stroke:#A80036;stroke-width:1.0;"/><path d="M118.7938,18.6719 C117.8563,18.2344 117.2625,18.0938 116.3875,18.0938 C113.7625,18.0938 111.7625,20.1719 111.7625,22.8906 L111.7625,24.0156 C111.7625,26.5938 113.8719,28.4844 116.7625,28.4844 C117.9813,28.4844 119.1375,28.1875 119.8875,27.6406 C120.4656,27.2344 120.7938,26.7813 120.7938,26.3906 C120.7938,25.9375 120.4031,25.5469 119.9344,25.5469 C119.7156,25.5469 119.5125,25.625 119.325,25.8125 C118.8719,26.2969 118.8719,26.2969 118.6844,26.3906 C118.2625,26.6563 117.575,26.7813 116.8094,26.7813 C114.7625,26.7813 113.4656,25.6875 113.4656,23.9844 L113.4656,22.8906 C113.4656,21.1094 114.7156,19.7969 116.45,19.7969 C117.0281,19.7969 117.6375,19.9531 118.1063,20.2031 C118.5906,20.4844 118.7625,20.7031 118.8563,21.1094 C118.9188,21.5156 118.95,21.6406 119.0906,21.7656 C119.2313,21.9063 119.4656,22.0156 119.6844,22.0156 C119.95,22.0156 120.2156,21.875 120.3875,21.6563 C120.4969,21.5 120.5281,21.3125 120.5281,20.8906 L120.5281,19.4688 C120.5281,19.0313 120.5125,18.9063 120.4188,18.75 C120.2625,18.4844 119.9813,18.3438 119.6844,18.3438 C119.3875,18.3438 119.1844,18.4375 118.9656,18.75 L118.7938,18.6719 Z " fill="#000000"/><text fill="#000000" font-family="sans-serif" font-size="12" lengthAdjust="spacing" textLength="32" x="136.55" y="27.1543">Color</text><line style="stroke:#A80036;stroke-width:1.5;" x1="75" x2="198" y1="39" y2="39"/><line style="stroke:#A80036;stroke-width:1.5;" x1="75" x2="198" y1="47" y2="47"/><text fill="#000000" font-family="sans-serif" font-size="11" lengthAdjust="spacing" textLength="113" x="80" y="61.2104">+colorGraph(graph);</text><!--MD5=[187ccc8030f0f5b4620e42336e46a3c3]
class ColorMapController--><rect codeLine="11" fill="#FEFECE" filter="url(#f1f1jij96do5hx)" height="60.8047" id="ColorMapController" style="stroke:#A80036;stroke-width:1.5;" width="148" x="62.5" y="128"/><ellipse cx="77.5" cy="144" fill="#ADD1B2" rx="11" ry="11" style="stroke:#A80036;stroke-width:1.0;"/><path d="M79.8438,139.6719 C78.9063,139.2344 78.3125,139.0938 77.4375,139.0938 C74.8125,139.0938 72.8125,141.1719 72.8125,143.8906 L72.8125,145.0156 C72.8125,147.5938 74.9219,149.4844 77.8125,149.4844 C79.0313,149.4844 80.1875,149.1875 80.9375,148.6406 C81.5156,148.2344 81.8438,147.7813 81.8438,147.3906 C81.8438,146.9375 81.4531,146.5469 80.9844,146.5469 C80.7656,146.5469 80.5625,146.625 80.375,146.8125 C79.9219,147.2969 79.9219,147.2969 79.7344,147.3906 C79.3125,147.6563 78.625,147.7813 77.8594,147.7813 C75.8125,147.7813 74.5156,146.6875 74.5156,144.9844 L74.5156,143.8906 C74.5156,142.1094 75.7656,140.7969 77.5,140.7969 C78.0781,140.7969 78.6875,140.9531 79.1563,141.2031 C79.6406,141.4844 79.8125,141.7031 79.9063,142.1094 C79.9688,142.5156 80,142.6406 80.1406,142.7656 C80.2813,142.9063 80.5156,143.0156 80.7344,143.0156 C81,143.0156 81.2656,142.875 81.4375,142.6563 C81.5469,142.5 81.5781,142.3125 81.5781,141.8906 L81.5781,140.4688 C81.5781,140.0313 81.5625,139.9063 81.4688,139.75 C81.3125,139.4844 81.0313,139.3438 80.7344,139.3438 C80.4375,139.3438 80.2344,139.4375 80.0156,139.75 L79.8438,139.6719 Z " fill="#000000"/><text fill="#000000" font-family="sans-serif" font-size="12" lengthAdjust="spacing" textLength="116" x="91.5" y="148.1543">ColorMapController</text><line style="stroke:#A80036;stroke-width:1.5;" x1="63.5" x2="209.5" y1="160" y2="160"/><line style="stroke:#A80036;stroke-width:1.5;" x1="63.5" x2="209.5" y1="168" y2="168"/><text fill="#000000" font-family="sans-serif" font-size="11" lengthAdjust="spacing" textLength="113" x="68.5" y="182.2104">+colorGraph(graph);</text><!--MD5=[deb4e1f6eb1e3c1256fdb830f96abfbb]
class Country--><rect codeLine="15" fill="#FEFECE" filter="url(#f1f1jij96do5hx)" height="124.8281" id="Country" style="stroke:#A80036;stroke-width:1.5;" width="131" x="71" y="612"/><ellipse cx="109.85" cy="628" fill="#ADD1B2" rx="11" ry="11" style="stroke:#A80036;stroke-width:1.0;"/><path d="M112.1938,623.6719 C111.2563,623.2344 110.6625,623.0938 109.7875,623.0938 C107.1625,623.0938 105.1625,625.1719 105.1625,627.8906 L105.1625,629.0156 C105.1625,631.5938 107.2719,633.4844 110.1625,633.4844 C111.3813,633.4844 112.5375,633.1875 113.2875,632.6406 C113.8656,632.2344 114.1938,631.7813 114.1938,631.3906 C114.1938,630.9375 113.8031,630.5469 113.3344,630.5469 C113.1156,630.5469 112.9125,630.625 112.725,630.8125 C112.2719,631.2969 112.2719,631.2969 112.0844,631.3906 C111.6625,631.6563 110.975,631.7813 110.2094,631.7813 C108.1625,631.7813 106.8656,630.6875 106.8656,628.9844 L106.8656,627.8906 C106.8656,626.1094 108.1156,624.7969 109.85,624.7969 C110.4281,624.7969 111.0375,624.9531 111.5063,625.2031 C111.9906,625.4844 112.1625,625.7031 112.2563,626.1094 C112.3188,626.5156 112.35,626.6406 112.4906,626.7656 C112.6313,626.9063 112.8656,627.0156 113.0844,627.0156 C113.35,627.0156 113.6156,626.875 113.7875,626.6563 C113.8969,626.5 113.9281,626.3125 113.9281,625.8906 L113.9281,624.4688 C113.9281,624.0313 113.9125,623.9063 113.8188,623.75 C113.6625,623.4844 113.3813,623.3438 113.0844,623.3438 C112.7875,623.3438 112.5844,623.4375 112.3656,623.75 L112.1938,623.6719 Z " fill="#000000"/><text fill="#000000" font-family="sans-serif" font-size="12" lengthAdjust="spacing" textLength="46" x="129.15" y="632.1543">Country</text><line style="stroke:#A80036;stroke-width:1.5;" x1="72" x2="201" y1="644" y2="644"/><text fill="#000000" font-family="sans-serif" font-size="11" lengthAdjust="spacing" textLength="119" x="77" y="658.2104">-Continent continent;</text><text fill="#000000" font-family="sans-serif" font-size="11" lengthAdjust="spacing" textLength="77" x="77" y="671.0151">-String name;</text><text fill="#000000" font-family="sans-serif" font-size="11" lengthAdjust="spacing" textLength="110" x="77" y="683.8198">-String AlphaCode2</text><text fill="#000000" font-family="sans-serif" font-size="11" lengthAdjust="spacing" textLength="110" x="77" y="696.6245">-String AlphaCode3</text><text fill="#000000" font-family="sans-serif" font-size="11" lengthAdjust="spacing" textLength="99" x="77" y="709.4292">-String Population</text><text fill="#000000" font-family="sans-serif" font-size="11" lengthAdjust="spacing" textLength="9" x="77" y="722.2339">...</text><line style="stroke:#A80036;stroke-width:1.5;" x1="72" x2="201" y1="728.8281" y2="728.8281"/><!--MD5=[e2c3cf1f717dbe59ae4ba9c73a677022]
class Continent--><rect codeLine="24" fill="#FEFECE" filter="url(#f1f1jij96do5hx)" height="60.8047" id="Continent" style="stroke:#A80036;stroke-width:1.5;" width="107" x="83" y="797"/><ellipse cx="106.55" cy="813" fill="#ADD1B2" rx="11" ry="11" style="stroke:#A80036;stroke-width:1.0;"/><path d="M108.8938,808.6719 C107.9563,808.2344 107.3625,808.0938 106.4875,808.0938 C103.8625,808.0938 101.8625,810.1719 101.8625,812.8906 L101.8625,814.0156 C101.8625,816.5938 103.9719,818.4844 106.8625,818.4844 C108.0813,818.4844 109.2375,818.1875 109.9875,817.6406 C110.5656,817.2344 110.8938,816.7813 110.8938,816.3906 C110.8938,815.9375 110.5031,815.5469 110.0344,815.5469 C109.8156,815.5469 109.6125,815.625 109.425,815.8125 C108.9719,816.2969 108.9719,816.2969 108.7844,816.3906 C108.3625,816.6563 107.675,816.7813 106.9094,816.7813 C104.8625,816.7813 103.5656,815.6875 103.5656,813.9844 L103.5656,812.8906 C103.5656,811.1094 104.8156,809.7969 106.55,809.7969 C107.1281,809.7969 107.7375,809.9531 108.2063,810.2031 C108.6906,810.4844 108.8625,810.7031 108.9563,811.1094 C109.0188,811.5156 109.05,811.6406 109.1906,811.7656 C109.3313,811.9063 109.5656,812.0156 109.7844,812.0156 C110.05,812.0156 110.3156,811.875 110.4875,811.6563 C110.5969,811.5 110.6281,811.3125 110.6281,810.8906 L110.6281,809.4688 C110.6281,809.0313 110.6125,808.9063 110.5188,808.75 C110.3625,808.4844 110.0813,808.3438 109.7844,808.3438 C109.4875,808.3438 109.2844,808.4375 109.0656,808.75 L108.8938,808.6719 Z " fill="#000000"/><text fill="#000000" font-family="sans-serif" font-size="12" lengthAdjust="spacing" textLength="56" x="122.45" y="817.1543">Continent</text><line style="stroke:#A80036;stroke-width:1.5;" x1="84" x2="189" y1="829" y2="829"/><text fill="#000000" font-family="sans-serif" font-size="11" lengthAdjust="spacing" textLength="95" x="89" y="843.2104">String Continent;</text><line style="stroke:#A80036;stroke-width:1.5;" x1="84" x2="189" y1="849.8047" y2="849.8047"/><!--MD5=[868cc55e1ee169ebd3aac63161a0438c]
class ColorMap--><rect codeLine="28" fill="#FEFECE" filter="url(#f1f1jij96do5hx)" height="73.6094" id="ColorMap" style="stroke:#A80036;stroke-width:1.5;" width="93" x="90" y="249"/><ellipse cx="106.8" cy="265" fill="#ADD1B2" rx="11" ry="11" style="stroke:#A80036;stroke-width:1.0;"/><path d="M109.1438,260.6719 C108.2063,260.2344 107.6125,260.0938 106.7375,260.0938 C104.1125,260.0938 102.1125,262.1719 102.1125,264.8906 L102.1125,266.0156 C102.1125,268.5938 104.2219,270.4844 107.1125,270.4844 C108.3313,270.4844 109.4875,270.1875 110.2375,269.6406 C110.8156,269.2344 111.1438,268.7813 111.1438,268.3906 C111.1438,267.9375 110.7531,267.5469 110.2844,267.5469 C110.0656,267.5469 109.8625,267.625 109.675,267.8125 C109.2219,268.2969 109.2219,268.2969 109.0344,268.3906 C108.6125,268.6563 107.925,268.7813 107.1594,268.7813 C105.1125,268.7813 103.8156,267.6875 103.8156,265.9844 L103.8156,264.8906 C103.8156,263.1094 105.0656,261.7969 106.8,261.7969 C107.3781,261.7969 107.9875,261.9531 108.4563,262.2031 C108.9406,262.4844 109.1125,262.7031 109.2063,263.1094 C109.2688,263.5156 109.3,263.6406 109.4406,263.7656 C109.5813,263.9063 109.8156,264.0156 110.0344,264.0156 C110.3,264.0156 110.5656,263.875 110.7375,263.6563 C110.8469,263.5 110.8781,263.3125 110.8781,262.8906 L110.8781,261.4688 C110.8781,261.0313 110.8625,260.9063 110.7688,260.75 C110.6125,260.4844 110.3313,260.3438 110.0344,260.3438 C109.7375,260.3438 109.5344,260.4375 109.3156,260.75 L109.1438,260.6719 Z " fill="#000000"/><text fill="#000000" font-family="sans-serif" font-size="12" lengthAdjust="spacing" textLength="57" x="121.2" y="269.1543">ColorMap</text><line style="stroke:#A80036;stroke-width:1.5;" x1="91" x2="182" y1="281" y2="281"/><line style="stroke:#A80036;stroke-width:1.5;" x1="91" x2="182" y1="289" y2="289"/><text fill="#000000" font-family="sans-serif" font-size="11" lengthAdjust="spacing" textLength="56" x="96" y="303.2104">isSafe(G);</text><text fill="#000000" font-family="sans-serif" font-size="11" lengthAdjust="spacing" textLength="81" x="96" y="316.0151">colorGraph(G);</text><!--MD5=[ddf964ba65dd59a9c60a1e1cd8efc8b4]
class GraphLocation--><rect codeLine="32" fill="#FEFECE" filter="url(#f1f1jij96do5hx)" height="48" id="GraphLocation" style="stroke:#A80036;stroke-width:1.5;" width="120" x="76.5" y="504"/><ellipse cx="91.5" cy="520" fill="#B4A7E5" rx="11" ry="11" style="stroke:#A80036;stroke-width:1.0;"/><path d="M92.4531,516.7813 L94.1719,516.7813 C94.5625,516.7813 94.75,516.75 94.875,516.6719 C95.1406,516.5156 95.2813,516.2344 95.2813,515.9375 C95.2813,515.6719 95.1719,515.4063 94.9375,515.2344 C94.7656,515.125 94.625,515.0938 94.1719,515.0938 L89.0313,515.0938 C88.5938,515.0938 88.4688,515.1094 88.3125,515.2031 C88.0625,515.3594 87.9063,515.6563 87.9063,515.9375 C87.9063,516.2188 88.0469,516.4688 88.2656,516.6406 C88.4219,516.75 88.6094,516.7813 89.0313,516.7813 L90.75,516.7813 L90.75,523.2969 L89.0313,523.2969 C88.5938,523.2969 88.4688,523.3125 88.3125,523.4219 C88.0625,523.5781 87.9063,523.8594 87.9063,524.1563 C87.9063,524.4063 88.0469,524.6719 88.2656,524.8281 C88.4219,524.9531 88.625,525 89.0313,525 L94.1719,525 C94.9219,525 95.2813,524.7188 95.2813,524.1563 C95.2813,523.875 95.1719,523.625 94.9375,523.4531 C94.7656,523.3281 94.625,523.2969 94.1719,523.2969 L92.4531,523.2969 L92.4531,516.7813 Z " fill="#000000"/><text fill="#000000" font-family="sans-serif" font-size="12" font-style="italic" lengthAdjust="spacing" textLength="88" x="105.5" y="524.1543">GraphLocation</text><line style="stroke:#A80036;stroke-width:1.5;" x1="77.5" x2="195.5" y1="536" y2="536"/><line style="stroke:#A80036;stroke-width:1.5;" x1="77.5" x2="195.5" y1="544" y2="544"/><!--MD5=[edc28f615057d308b1208166f5d18541]
link Color to ColorMapController--><path codeLine="35" d="M136.5,68.222 C136.5,84.692 136.5,105.264 136.5,122.508 " fill="none" id="Color-to-ColorMapController" style="stroke:#A80036;stroke-width:1.0;stroke-dasharray:7.0,7.0;"/><polygon fill="#A80036" points="136.5,127.745,140.5,118.745,136.5,122.745,132.5,118.745,136.5,127.745" style="stroke:#A80036;stroke-width:1.0;"/><!--MD5=[763637ea7f83bf758b1aeccfda75cf69]
link ColorMapController to ColorMap--><path codeLine="36" d="M136.5,189.242 C136.5,205.401 136.5,225.644 136.5,243.349 " fill="none" id="ColorMapController-to-ColorMap" style="stroke:#A80036;stroke-width:1.0;stroke-dasharray:7.0,7.0;"/><polygon fill="#A80036" points="136.5,248.755,140.5,239.755,136.5,243.755,132.5,239.755,136.5,248.755" style="stroke:#A80036;stroke-width:1.0;"/><!--MD5=[ee4ff49d521be8647bddfb5c1aff715a]
link ColorMap to CountryPortGraph--><path codeLine="37" d="M118.856,323.3 C110.494,340.504 100.5533,360.956 92.3014,377.933 " fill="none" id="ColorMap-to-CountryPortGraph" style="stroke:#A80036;stroke-width:1.0;"/><polygon fill="#A80036" points="90.0214,382.624,97.5532,376.278,92.2071,378.127,90.3581,372.7809,90.0214,382.624" style="stroke:#A80036;stroke-width:1.0;"/><!--MD5=[ff6871ea9901ec21f876547f43c07a4e]
link CountryPortGraph to GraphLocation--><path codeLine="38" d="M91.527,444.058 C100.755,461.077 112.284,482.34 121.359,499.076 " fill="none" id="CountryPortGraph-to-GraphLocation" style="stroke:#A80036;stroke-width:1.0;"/><polygon fill="#A80036" points="123.849,503.669,123.0764,493.8505,121.4662,499.2733,116.0433,497.663,123.849,503.669" style="stroke:#A80036;stroke-width:1.0;"/><!--MD5=[6bd9dcf3bbd1e8240620f72a57bc1bf6]
link ColorMap to GraphLocation--><path codeLine="39" d="M148.211,323.041 C153.405,340.871 158.918,362.842 161.5,383 C164.944,409.891 165.452,417.178 161.5,444 C158.737,462.755 152.64,483.149 147.159,499.028 " fill="none" id="ColorMap-to-GraphLocation" style="stroke:#A80036;stroke-width:1.0;"/><polygon fill="#A80036" points="145.482,503.805,152.2382,496.6389,147.1388,499.0875,144.6902,493.988,145.482,503.805" style="stroke:#A80036;stroke-width:1.0;"/><!--MD5=[5fffc172d5a2328539d4f6b325bfb5aa]
link GraphLocation to Country--><path codeLine="40" d="M136.5,552.216 C136.5,567.02 136.5,587.023 136.5,606.513 " fill="none" id="GraphLocation-to-Country" style="stroke:#A80036;stroke-width:1.0;"/><polygon fill="#A80036" points="136.5,611.991,140.5,602.991,136.5,606.991,132.5,602.991,136.5,611.991" style="stroke:#A80036;stroke-width:1.0;"/><!--MD5=[5936ec3a99dd07d607b5cbd0ac003fad]
link Country to Continent--><path codeLine="41" d="M136.5,737.353 C136.5,755.793 136.5,775.3567 136.5,791.4443 " fill="none" id="Country-to-Continent" style="stroke:#A80036;stroke-width:1.0;"/><polygon fill="#A80036" points="136.5,796.7602,140.5,787.7602,136.5,791.7602,132.5,787.7602,136.5,796.7602" style="stroke:#A80036;stroke-width:1.0;"/><!--MD5=[40f750dc63969d13b27a389972bb8f42]
@startuml
skinparam classAttributeIconSize 0

class CountryPortGraph {
+graph();
}

class Color {
+colorGraph(graph);
}

class ColorMapController {
+colorGraph(graph);
}

class Country {
-Continent continent;
-String name;
-String AlphaCode2
-String AlphaCode3
-String Population
...
}

class Continent {
String Continent;
}

class ColorMap {
isSafe(G);
colorGraph(G);
}
interface GraphLocation {
}

Color ..> ColorMapController
ColorMapController ..> ColorMap
ColorMap- -> CountryPortGraph
CountryPortGraph - -> GraphLocation
ColorMap - -> GraphLocation
GraphLocation - -> Country
Country - -> Continent
@enduml

PlantUML version 1.2021.17beta4(Unknown compile time)
(GPL source distribution)
Java Runtime: Java(TM) SE Runtime Environment
JVM: Java HotSpot(TM) 64-Bit Server VM
Default Encoding: UTF-8
Language: en
Country: US
--></g></svg>