<?xml version="1.0" encoding="UTF-8" standalone="no"?><svg xmlns="http://www.w3.org/2000/svg" xmlns:xlink="http://www.w3.org/1999/xlink" contentScriptType="application/ecmascript" contentStyleType="text/css" height="368px" preserveAspectRatio="none" style="width:1146px;height:368px;background:#FFFFFF;" version="1.1" viewBox="0 0 1146 368" width="1146px" zoomAndPan="magnify"><defs><filter height="300%" id="f1whlc83n5nzty" width="300%" x="-1" y="-1"><feGaussianBlur result="blurOut" stdDeviation="2.0"/><feColorMatrix in="blurOut" result="blurOut2" type="matrix" values="0 0 0 0 0 0 0 0 0 0 0 0 0 0 0 0 0 0 .4 0"/><feOffset dx="4.0" dy="4.0" in="blurOut2" result="blurOut3"/><feBlend in="SourceGraphic" in2="blurOut3" mode="normal"/></filter></defs><g><rect fill="#FFFFFF" filter="url(#f1whlc83n5nzty)" height="176.6641" style="stroke:#A80036;stroke-width:1.0;" width="10" x="59" y="98.2969"/><rect fill="#FFFFFF" filter="url(#f1whlc83n5nzty)" height="146.5313" style="stroke:#A80036;stroke-width:1.0;" width="10" x="420" y="119.4297"/><rect fill="#FFFFFF" filter="url(#f1whlc83n5nzty)" height="88.2656" style="stroke:#A80036;stroke-width:1.0;" width="10" x="792" y="148.5625"/><rect fill="#FFFFFF" filter="url(#f1whlc83n5nzty)" height="30" style="stroke:#A80036;stroke-width:1.0;" width="10" x="954" y="177.6953"/><line style="stroke:#A80036;stroke-width:1.0;stroke-dasharray:5.0,5.0;" x1="64" x2="64" y1="88.2969" y2="283.9609"/><line style="stroke:#A80036;stroke-width:1.0;stroke-dasharray:5.0,5.0;" x1="424.5" x2="424.5" y1="88.2969" y2="283.9609"/><line style="stroke:#A80036;stroke-width:1.0;stroke-dasharray:5.0,5.0;" x1="797" x2="797" y1="88.2969" y2="283.9609"/><line style="stroke:#A80036;stroke-width:1.0;stroke-dasharray:5.0,5.0;" x1="959" x2="959" y1="88.2969" y2="283.9609"/><line style="stroke:#A80036;stroke-width:1.0;stroke-dasharray:5.0,5.0;" x1="1074" x2="1074" y1="88.2969" y2="283.9609"/><text fill="#000000" font-family="sans-serif" font-size="14" lengthAdjust="spacing" textLength="112" x="5" y="84.9951">Traffic Manager</text><ellipse cx="64" cy="15" fill="#FEFECE" filter="url(#f1whlc83n5nzty)" rx="8" ry="8" style="stroke:#A80036;stroke-width:2.0;"/><path d="M64,23 L64,50 M51,31 L77,31 M64,50 L51,65 M64,50 L77,65 " fill="none" filter="url(#f1whlc83n5nzty)" style="stroke:#A80036;stroke-width:2.0;"/><text fill="#000000" font-family="sans-serif" font-size="14" lengthAdjust="spacing" textLength="112" x="5" y="295.9561">Traffic Manager</text><ellipse cx="64" cy="309.2578" fill="#FEFECE" filter="url(#f1whlc83n5nzty)" rx="8" ry="8" style="stroke:#A80036;stroke-width:2.0;"/><path d="M64,317.2578 L64,344.2578 M51,325.2578 L77,325.2578 M64,344.2578 L51,359.2578 M64,344.2578 L77,359.2578 " fill="none" filter="url(#f1whlc83n5nzty)" style="stroke:#A80036;stroke-width:2.0;"/><rect fill="#FEFECE" filter="url(#f1whlc83n5nzty)" height="30.2969" style="stroke:#A80036;stroke-width:1.5;" width="87" x="379.5" y="53"/><text fill="#000000" font-family="sans-serif" font-size="14" lengthAdjust="spacing" textLength="73" x="386.5" y="72.9951">:ColorMap</text><rect fill="#FEFECE" filter="url(#f1whlc83n5nzty)" height="30.2969" style="stroke:#A80036;stroke-width:1.5;" width="87" x="379.5" y="282.9609"/><text fill="#000000" font-family="sans-serif" font-size="14" lengthAdjust="spacing" textLength="73" x="386.5" y="302.9561">:ColorMap</text><rect fill="#FEFECE" filter="url(#f1whlc83n5nzty)" height="30.2969" style="stroke:#A80036;stroke-width:1.5;" width="160" x="715" y="53"/><text fill="#000000" font-family="sans-serif" font-size="14" lengthAdjust="spacing" textLength="146" x="722" y="72.9951">:ColorMapController</text><rect fill="#FEFECE" filter="url(#f1whlc83n5nzty)" height="30.2969" style="stroke:#A80036;stroke-width:1.5;" width="160" x="715" y="282.9609"/><text fill="#000000" font-family="sans-serif" font-size="14" lengthAdjust="spacing" textLength="146" x="722" y="302.9561">:ColorMapController</text><rect fill="#FEFECE" filter="url(#f1whlc83n5nzty)" height="30.2969" style="stroke:#A80036;stroke-width:1.5;" width="82" x="916" y="53"/><text fill="#000000" font-family="sans-serif" font-size="14" lengthAdjust="spacing" textLength="68" x="923" y="72.9951">ColorMap</text><rect fill="#FEFECE" filter="url(#f1whlc83n5nzty)" height="30.2969" style="stroke:#A80036;stroke-width:1.5;" width="82" x="916" y="282.9609"/><text fill="#000000" font-family="sans-serif" font-size="14" lengthAdjust="spacing" textLength="68" x="923" y="302.9561">ColorMap</text><rect fill="#FEFECE" filter="url(#f1whlc83n5nzty)" height="30.2969" style="stroke:#A80036;stroke-width:1.5;" width="120" x="1012" y="53"/><text fill="#000000" font-family="sans-serif" font-size="14" lengthAdjust="spacing" textLength="106" x="1019" y="72.9951">GraphLocation</text><rect fill="#FEFECE" filter="url(#f1whlc83n5nzty)" height="30.2969" style="stroke:#A80036;stroke-width:1.5;" width="120" x="1012" y="282.9609"/><text fill="#000000" font-family="sans-serif" font-size="14" lengthAdjust="spacing" textLength="106" x="1019" y="302.9561">GraphLocation</text><rect fill="#FFFFFF" filter="url(#f1whlc83n5nzty)" height="176.6641" style="stroke:#A80036;stroke-width:1.0;" width="10" x="59" y="98.2969"/><rect fill="#FFFFFF" filter="url(#f1whlc83n5nzty)" height="146.5313" style="stroke:#A80036;stroke-width:1.0;" width="10" x="420" y="119.4297"/><rect fill="#FFFFFF" filter="url(#f1whlc83n5nzty)" height="88.2656" style="stroke:#A80036;stroke-width:1.0;" width="10" x="792" y="148.5625"/><rect fill="#FFFFFF" filter="url(#f1whlc83n5nzty)" height="30" style="stroke:#A80036;stroke-width:1.0;" width="10" x="954" y="177.6953"/><polygon fill="#A80036" points="408,115.4297,418,119.4297,408,123.4297,412,119.4297" style="stroke:#A80036;stroke-width:1.0;"/><line style="stroke:#A80036;stroke-width:1.0;" x1="69" x2="414" y1="119.4297" y2="119.4297"/><text fill="#000000" font-family="sans-serif" font-size="13" lengthAdjust="spacing" textLength="332" x="76" y="114.3638">selects to color the map using fewer colors possible</text><polygon fill="#A80036" points="780,144.5625,790,148.5625,780,152.5625,784,148.5625" style="stroke:#A80036;stroke-width:1.0;"/><line style="stroke:#A80036;stroke-width:1.0;" x1="430" x2="786" y1="148.5625" y2="148.5625"/><text fill="#000000" font-family="sans-serif" font-size="13" lengthAdjust="spacing" textLength="109" x="437" y="143.4966">colorMap(graph);</text><polygon fill="#A80036" points="942,173.6953,952,177.6953,942,181.6953,946,177.6953" style="stroke:#A80036;stroke-width:1.0;"/><line style="stroke:#A80036;stroke-width:1.0;" x1="802" x2="948" y1="177.6953" y2="177.6953"/><text fill="#000000" font-family="sans-serif" font-size="13" lengthAdjust="spacing" textLength="133" x="809" y="172.6294">cm.colorMap(graph);</text><polygon fill="#A80036" points="441,232.8281,431,236.8281,441,240.8281,437,236.8281" style="stroke:#A80036;stroke-width:1.0;"/><line style="stroke:#A80036;stroke-width:1.0;" x1="435" x2="796" y1="236.8281" y2="236.8281"/><text fill="#000000" font-family="sans-serif" font-size="13" lengthAdjust="spacing" textLength="338" x="447" y="231.7622">return map colored (Map &lt;GraphLocation,Integer&gt; );</text><polygon fill="#A80036" points="80,261.9609,70,265.9609,80,269.9609,76,265.9609" style="stroke:#A80036;stroke-width:1.0;"/><line style="stroke:#A80036;stroke-width:1.0;stroke-dasharray:2.0,2.0;" x1="74" x2="424" y1="265.9609" y2="265.9609"/><text fill="#000000" font-family="sans-serif" font-size="13" lengthAdjust="spacing" textLength="125" x="86" y="260.895">shows map colored</text><!--MD5=[4e2222eb3d9d442073d60573aa367c42]
@startuml
actor "Traffic Manager" as TM
participant ":ColorMap" as POS
participant ":ColorMapController" as CTRL
participant "ColorMap" as STORE
participant "GraphLocation" as Country

activate TM
TM-> POS : selects to color the map using fewer colors possible
activate POS
POS -> CTRL  : colorMap(graph);
activate CTRL
CTRL -> STORE : cm.colorMap(graph);
activate STORE
deactivate STORE
CTRL-> POS : return map colored (Map <GraphLocation,Integer> );
deactivate CTRL
POS - -> TM : shows map colored
deactivate POS
@enduml

PlantUML version 1.2021.17beta4(Unknown compile time)
(GPL source distribution)
Java Runtime: Java(TM) SE Runtime Environment
JVM: Java HotSpot(TM) 64-Bit Server VM
Default Encoding: UTF-8
Language: en
Country: US
--></g></svg>