<?xml version="1.0" encoding="UTF-8" standalone="no"?><svg xmlns="http://www.w3.org/2000/svg" xmlns:xlink="http://www.w3.org/1999/xlink" contentScriptType="application/ecmascript" contentStyleType="text/css" height="289px" preserveAspectRatio="none" style="width:485px;height:289px;background:#FFFFFF;" version="1.1" viewBox="0 0 485 289" width="485px" zoomAndPan="magnify"><defs><filter height="300%" id="fxspc84rr388l" width="300%" x="-1" y="-1"><feGaussianBlur result="blurOut" stdDeviation="2.0"/><feColorMatrix in="blurOut" result="blurOut2" type="matrix" values="0 0 0 0 0 0 0 0 0 0 0 0 0 0 0 0 0 0 .4 0"/><feOffset dx="4.0" dy="4.0" in="blurOut2" result="blurOut3"/><feBlend in="SourceGraphic" in2="blurOut3" mode="normal"/></filter></defs><g><!--MD5=[019a73386217e12d5bb8e34bf0b46b9e]
class FleetManager--><rect codeLine="5" fill="#FEFECE" filter="url(#fxspc84rr388l)" height="53.8359" id="FleetManager" style="stroke:#A80036;stroke-width:1.5;" width="107" x="7" y="131.5"/><ellipse cx="22" cy="147.5" fill="#ADD1B2" rx="11" ry="11" style="stroke:#A80036;stroke-width:1.0;"/><path d="M24,144 Q24.2031,143.5 24.4375,143.25 Q24.6719,143 24.9375,143 Q25.4063,143 25.7031,143.2813 Q26,143.5625 26,144.2188 L26,145.7813 Q26,146.4375 25.7188,146.7188 Q25.4375,147 25,147 Q24.6094,147 24.3594,146.8281 Q24.1094,146.6563 24,146.2031 Q23.9531,145.8906 23.7813,145.7188 Q23.4688,145.3906 22.9063,145.2031 Q22.3438,145 21.7813,145 Q21.0781,145 20.4844,145.2813 Q19.9063,145.5625 19.4531,146.1875 Q19,146.8125 19,147.6719 L19,148.5938 Q19,149.625 19.8438,150.3125 Q20.6875,151 22.1875,151 Q23.0781,151 23.7031,150.7969 Q24.0625,150.6875 24.4688,150.3281 Q24.7344,150.125 24.875,150.0625 Q25.0156,150 25.1875,150 Q25.5156,150 25.75,150.2656 Q26,150.5156 26,150.875 Q26,151.2188 25.6563,151.625 Q25.1563,152.2188 24.3594,152.5469 Q23.3125,153 22.0313,153 Q20.5313,153 19.3281,152.4063 Q18.3594,151.9375 17.6719,150.9219 Q17,149.9063 17,148.7031 L17,147.6094 Q17,146.3594 17.5938,145.2656 Q18.2031,144.1719 19.25,143.5938 Q20.3125,143 21.5,143 Q22.2188,143 22.8438,143.25 Q23.4688,143.5 24,144 Z " fill="#000000"/><text fill="#000000" font-family="sans-serif" font-size="12" lengthAdjust="spacing" textLength="75" x="36" y="152.4102">FleetManager</text><line style="stroke:#A80036;stroke-width:1.5;" x1="8" x2="113" y1="163.5" y2="163.5"/><text fill="#000000" font-family="sans-serif" font-size="11" lengthAdjust="spacing" textLength="35" x="13" y="178.9189">-idFleet</text><!--MD5=[0dc7f2ddb409b58bcf52b12238c25399]
class Ship--><rect codeLine="9" fill="#FEFECE" filter="url(#fxspc84rr388l)" height="123.0156" id="Ship" style="stroke:#A80036;stroke-width:1.5;" width="63" x="235" y="97"/><ellipse cx="252.7" cy="113" fill="#ADD1B2" rx="11" ry="11" style="stroke:#A80036;stroke-width:1.0;"/><path d="M254.7,109.5 Q254.9031,109 255.1375,108.75 Q255.3719,108.5 255.6375,108.5 Q256.1063,108.5 256.4031,108.7813 Q256.7,109.0625 256.7,109.7188 L256.7,111.2813 Q256.7,111.9375 256.4188,112.2188 Q256.1375,112.5 255.7,112.5 Q255.3094,112.5 255.0594,112.3281 Q254.8094,112.1563 254.7,111.7031 Q254.6531,111.3906 254.4813,111.2188 Q254.1688,110.8906 253.6063,110.7031 Q253.0438,110.5 252.4813,110.5 Q251.7781,110.5 251.1844,110.7813 Q250.6063,111.0625 250.1531,111.6875 Q249.7,112.3125 249.7,113.1719 L249.7,114.0938 Q249.7,115.125 250.5438,115.8125 Q251.3875,116.5 252.8875,116.5 Q253.7781,116.5 254.4031,116.2969 Q254.7625,116.1875 255.1688,115.8281 Q255.4344,115.625 255.575,115.5625 Q255.7156,115.5 255.8875,115.5 Q256.2156,115.5 256.45,115.7656 Q256.7,116.0156 256.7,116.375 Q256.7,116.7188 256.3563,117.125 Q255.8563,117.7188 255.0594,118.0469 Q254.0125,118.5 252.7313,118.5 Q251.2313,118.5 250.0281,117.9063 Q249.0594,117.4375 248.3719,116.4219 Q247.7,115.4063 247.7,114.2031 L247.7,113.1094 Q247.7,111.8594 248.2938,110.7656 Q248.9031,109.6719 249.95,109.0938 Q251.0125,108.5 252.2,108.5 Q252.9188,108.5 253.5438,108.75 Q254.1688,109 254.7,109.5 Z " fill="#000000"/><text fill="#000000" font-family="sans-serif" font-size="12" lengthAdjust="spacing" textLength="25" x="267.3" y="117.9102">Ship</text><line style="stroke:#A80036;stroke-width:1.5;" x1="236" x2="297" y1="129" y2="129"/><text fill="#000000" font-family="sans-serif" font-size="11" lengthAdjust="spacing" textLength="28" x="241" y="144.4189">-mmsi</text><text fill="#000000" font-family="sans-serif" font-size="11" lengthAdjust="spacing" textLength="27" x="241" y="158.2549">-draft</text><text fill="#000000" font-family="sans-serif" font-size="11" lengthAdjust="spacing" textLength="51" x="241" y="172.0908">-nameShip</text><text fill="#000000" font-family="sans-serif" font-size="11" lengthAdjust="spacing" textLength="20" x="241" y="185.9268">-imo</text><text fill="#000000" font-family="sans-serif" font-size="11" lengthAdjust="spacing" textLength="46" x="241" y="199.7627">-typeShip</text><text fill="#000000" font-family="sans-serif" font-size="11" lengthAdjust="spacing" textLength="45" x="241" y="213.5986">-capacity</text><!--MD5=[a64a835c3d62471a77f615251fdde58a]
class Position--><rect codeLine="18" fill="#FEFECE" filter="url(#fxspc84rr388l)" height="150.6875" id="Position" style="stroke:#A80036;stroke-width:1.5;" width="77" x="394" y="7"/><ellipse cx="409" cy="23" fill="#ADD1B2" rx="11" ry="11" style="stroke:#A80036;stroke-width:1.0;"/><path d="M411,19.5 Q411.2031,19 411.4375,18.75 Q411.6719,18.5 411.9375,18.5 Q412.4063,18.5 412.7031,18.7813 Q413,19.0625 413,19.7188 L413,21.2813 Q413,21.9375 412.7188,22.2188 Q412.4375,22.5 412,22.5 Q411.6094,22.5 411.3594,22.3281 Q411.1094,22.1563 411,21.7031 Q410.9531,21.3906 410.7813,21.2188 Q410.4688,20.8906 409.9063,20.7031 Q409.3438,20.5 408.7813,20.5 Q408.0781,20.5 407.4844,20.7813 Q406.9063,21.0625 406.4531,21.6875 Q406,22.3125 406,23.1719 L406,24.0938 Q406,25.125 406.8438,25.8125 Q407.6875,26.5 409.1875,26.5 Q410.0781,26.5 410.7031,26.2969 Q411.0625,26.1875 411.4688,25.8281 Q411.7344,25.625 411.875,25.5625 Q412.0156,25.5 412.1875,25.5 Q412.5156,25.5 412.75,25.7656 Q413,26.0156 413,26.375 Q413,26.7188 412.6563,27.125 Q412.1563,27.7188 411.3594,28.0469 Q410.3125,28.5 409.0313,28.5 Q407.5313,28.5 406.3281,27.9063 Q405.3594,27.4375 404.6719,26.4219 Q404,25.4063 404,24.2031 L404,23.1094 Q404,21.8594 404.5938,20.7656 Q405.2031,19.6719 406.25,19.0938 Q407.3125,18.5 408.5,18.5 Q409.2188,18.5 409.8438,18.75 Q410.4688,19 411,19.5 Z " fill="#000000"/><text fill="#000000" font-family="sans-serif" font-size="12" lengthAdjust="spacing" textLength="45" x="423" y="27.9102">Position</text><line style="stroke:#A80036;stroke-width:1.5;" x1="395" x2="470" y1="39" y2="39"/><text fill="#000000" font-family="sans-serif" font-size="11" lengthAdjust="spacing" textLength="27" x="400" y="54.4189">-COG</text><text fill="#000000" font-family="sans-serif" font-size="11" lengthAdjust="spacing" textLength="38" x="400" y="68.2549">-latitude</text><text fill="#000000" font-family="sans-serif" font-size="11" lengthAdjust="spacing" textLength="47" x="400" y="82.0908">-longitude</text><text fill="#000000" font-family="sans-serif" font-size="11" lengthAdjust="spacing" textLength="27" x="400" y="95.9268">-SOG</text><text fill="#000000" font-family="sans-serif" font-size="11" lengthAdjust="spacing" textLength="42" x="400" y="109.7627">-heading</text><text fill="#000000" font-family="sans-serif" font-size="11" lengthAdjust="spacing" textLength="41" x="400" y="123.5986">-position</text><text fill="#000000" font-family="sans-serif" font-size="11" lengthAdjust="spacing" textLength="47" x="400" y="137.4346">-longitude</text><text fill="#000000" font-family="sans-serif" font-size="11" lengthAdjust="spacing" textLength="59" x="400" y="151.2705">-transceiver</text><!--MD5=[fc92a9f5bb5fae84dd7fa4034e6b4444]
class Route--><rect codeLine="29" fill="#FEFECE" filter="url(#fxspc84rr388l)" height="81.5078" id="Route" style="stroke:#A80036;stroke-width:1.5;" width="65" x="400" y="193.5"/><ellipse cx="415" cy="209.5" fill="#ADD1B2" rx="11" ry="11" style="stroke:#A80036;stroke-width:1.0;"/><path d="M417,206 Q417.2031,205.5 417.4375,205.25 Q417.6719,205 417.9375,205 Q418.4063,205 418.7031,205.2813 Q419,205.5625 419,206.2188 L419,207.7813 Q419,208.4375 418.7188,208.7188 Q418.4375,209 418,209 Q417.6094,209 417.3594,208.8281 Q417.1094,208.6563 417,208.2031 Q416.9531,207.8906 416.7813,207.7188 Q416.4688,207.3906 415.9063,207.2031 Q415.3438,207 414.7813,207 Q414.0781,207 413.4844,207.2813 Q412.9063,207.5625 412.4531,208.1875 Q412,208.8125 412,209.6719 L412,210.5938 Q412,211.625 412.8438,212.3125 Q413.6875,213 415.1875,213 Q416.0781,213 416.7031,212.7969 Q417.0625,212.6875 417.4688,212.3281 Q417.7344,212.125 417.875,212.0625 Q418.0156,212 418.1875,212 Q418.5156,212 418.75,212.2656 Q419,212.5156 419,212.875 Q419,213.2188 418.6563,213.625 Q418.1563,214.2188 417.3594,214.5469 Q416.3125,215 415.0313,215 Q413.5313,215 412.3281,214.4063 Q411.3594,213.9375 410.6719,212.9219 Q410,211.9063 410,210.7031 L410,209.6094 Q410,208.3594 410.5938,207.2656 Q411.2031,206.1719 412.25,205.5938 Q413.3125,205 414.5,205 Q415.2188,205 415.8438,205.25 Q416.4688,205.5 417,206 Z " fill="#000000"/><text fill="#000000" font-family="sans-serif" font-size="12" lengthAdjust="spacing" textLength="33" x="429" y="214.4102">Route</text><line style="stroke:#A80036;stroke-width:1.5;" x1="401" x2="464" y1="225.5" y2="225.5"/><text fill="#000000" font-family="sans-serif" font-size="11" lengthAdjust="spacing" textLength="48" x="406" y="240.9189">-startDate</text><text fill="#000000" font-family="sans-serif" font-size="11" lengthAdjust="spacing" textLength="44" x="406" y="254.7549">-endDate</text><text fill="#000000" font-family="sans-serif" font-size="11" lengthAdjust="spacing" textLength="28" x="406" y="268.5908">-mmsi</text><!--MD5=[bd668f20969913e971975f69d50ab766]
link Ship to Route--><path codeLine="35" d="M298.35,172.8 C325.91,185.57 366.32,204.3 395.39,217.77 " fill="none" id="Ship-to-Route" style="stroke:#A80036;stroke-width:1.0;"/><polygon fill="#A80036" points="399.95,219.88,393.459,212.4728,395.4115,217.782,390.1022,219.7344,399.95,219.88" style="stroke:#A80036;stroke-width:1.0;"/><polygon fill="#000000" points="337.5365,179.7781,330.5656,173.3085,328.0941,178.6415,337.5365,179.7781" style="stroke:#000000;stroke-width:1.0;"/><text fill="#000000" font-family="sans-serif" font-size="13" lengthAdjust="spacing" textLength="21" x="342" y="182.9951">has</text><text fill="#000000" font-family="sans-serif" font-size="13" lengthAdjust="spacing" textLength="7" x="306.0828" y="191.21">1</text><text fill="#000000" font-family="sans-serif" font-size="13" lengthAdjust="spacing" textLength="5" x="386.8447" y="231.9418">*</text><!--MD5=[cff912bd906a240c4b73f83b903cfe61]
link Ship to Position--><path codeLine="36" d="M298.35,144.2 C323.96,132.34 360.66,115.33 389.04,102.18 " fill="none" id="Ship-to-Position" style="stroke:#A80036;stroke-width:1.0;"/><polygon fill="#A80036" points="393.88,99.93,384.0324,100.0874,389.344,102.0335,387.3979,107.345,393.88,99.93" style="stroke:#A80036;stroke-width:1.0;"/><polygon fill="#000000" points="337.5367,105.5738,328.0942,106.7097,330.5653,112.0429,337.5367,105.5738" style="stroke:#000000;stroke-width:1.0;"/><text fill="#000000" font-family="sans-serif" font-size="13" lengthAdjust="spacing" textLength="21" x="342" y="112.9951">has</text><text fill="#000000" font-family="sans-serif" font-size="13" lengthAdjust="spacing" textLength="7" x="306.0828" y="156.3537">1</text><text fill="#000000" font-family="sans-serif" font-size="13" lengthAdjust="spacing" textLength="5" x="381.0415" y="118.336">*</text><!--MD5=[468ddd4b70c80a28a8ccd89867b6518f]
link FleetManager to Ship--><path codeLine="37" d="M114.04,158.5 C150.45,158.5 197.97,158.5 230,158.5 " fill="none" id="FleetManager-to-Ship" style="stroke:#A80036;stroke-width:1.0;"/><polygon fill="#A80036" points="235,158.5,226,154.5,230,158.5,226,162.5,235,158.5" style="stroke:#A80036;stroke-width:1.0;"/><polygon fill="#000000" points="154,149.6758,144.9549,146.7369,144.9549,152.6147,154,149.6758" style="stroke:#000000;stroke-width:1.0;"/><text fill="#000000" font-family="sans-serif" font-size="13" lengthAdjust="spacing" textLength="46" x="158" y="154.9951">manage</text><text fill="#000000" font-family="sans-serif" font-size="13" lengthAdjust="spacing" textLength="5" x="121.9206" y="173.1564">*</text><text fill="#000000" font-family="sans-serif" font-size="13" lengthAdjust="spacing" textLength="7" x="219.9063" y="173.884">1</text><!--MD5=[f22890e5956813aea3131669520c7435]
@startuml
hide methods
left to right direction
skinparam classAttributeIconSize 0

class FleetManager{
    -idFleet
}

class Ship{
    -mmsi
    -draft
    -nameShip
    -imo
    -typeShip
    -capacity
}

class Position{
    -COG
    -latitude
    -longitude
    -SOG
    -heading
    -position
    -longitude
    -transceiver
}

class Route{
    -startDate
    -endDate
    -mmsi
}

Ship "1" - -> "*" Route : has >
Ship "1" - -> "*" Position : has >
FleetManager "*" - -> "1" Ship : manage >

@enduml

PlantUML version 1.2021.11(Sat Oct 02 14:26:11 BST 2021)
(GPL source distribution)
Java Runtime: OpenJDK Runtime Environment
JVM: OpenJDK 64-Bit Server VM
Default Encoding: Cp1252
Language: pt
Country: PT
--></g></svg>