<?xml version="1.0" encoding="UTF-8" standalone="no"?><svg xmlns="http://www.w3.org/2000/svg" xmlns:xlink="http://www.w3.org/1999/xlink" contentScriptType="application/ecmascript" contentStyleType="text/css" height="377px" preserveAspectRatio="none" style="width:408px;height:377px;background:#FFFFFF;" version="1.1" viewBox="0 0 408 377" width="408px" zoomAndPan="magnify"><defs><filter height="300%" id="f1drklw7juiy7n" width="300%" x="-1" y="-1"><feGaussianBlur result="blurOut" stdDeviation="2.0"/><feColorMatrix in="blurOut" result="blurOut2" type="matrix" values="0 0 0 0 0 0 0 0 0 0 0 0 0 0 0 0 0 0 .4 0"/><feOffset dx="4.0" dy="4.0" in="blurOut2" result="blurOut3"/><feBlend in="SourceGraphic" in2="blurOut3" mode="normal"/></filter></defs><g><rect fill="#FFFFFF" filter="url(#f1drklw7juiy7n)" height="174.1094" style="stroke:#A80036;stroke-width:1.0;" width="10" x="49" y="99.6094"/><rect fill="#FFFFFF" filter="url(#f1drklw7juiy7n)" height="30.3516" style="stroke:#A80036;stroke-width:1.0;" width="10" x="359" y="121.9609"/><rect fill="#FFFFFF" filter="url(#f1drklw7juiy7n)" height="30.3516" style="stroke:#A80036;stroke-width:1.0;" width="10" x="359" y="182.6641"/><rect fill="#FFFFFF" filter="url(#f1drklw7juiy7n)" height="30.3516" style="stroke:#A80036;stroke-width:1.0;" width="10" x="359" y="243.3672"/><line style="stroke:#A80036;stroke-width:1.0;stroke-dasharray:5.0,5.0;" x1="54" x2="54" y1="89.6094" y2="291.7188"/><line style="stroke:#A80036;stroke-width:1.0;stroke-dasharray:5.0,5.0;" x1="364" x2="364" y1="89.6094" y2="291.7188"/><text fill="#000000" font-family="sans-serif" font-size="14" lengthAdjust="spacing" textLength="92" x="5" y="86.5332">Fleet Manager</text><ellipse cx="54" cy="15" fill="#FEFECE" filter="url(#f1drklw7juiy7n)" rx="8" ry="8" style="stroke:#A80036;stroke-width:2.0;"/><path d="M54,23 L54,50 M41,31 L67,31 M54,50 L41,65 M54,50 L67,65 " fill="none" filter="url(#f1drklw7juiy7n)" style="stroke:#A80036;stroke-width:2.0;"/><text fill="#000000" font-family="sans-serif" font-size="14" lengthAdjust="spacing" textLength="92" x="5" y="305.252">Fleet Manager</text><ellipse cx="54" cy="318.3281" fill="#FEFECE" filter="url(#f1drklw7juiy7n)" rx="8" ry="8" style="stroke:#A80036;stroke-width:2.0;"/><path d="M54,326.3281 L54,353.3281 M41,334.3281 L67,334.3281 M54,353.3281 L41,368.3281 M54,353.3281 L67,368.3281 " fill="none" filter="url(#f1drklw7juiy7n)" style="stroke:#A80036;stroke-width:2.0;"/><rect fill="#FEFECE" filter="url(#f1drklw7juiy7n)" height="31.6094" style="stroke:#A80036;stroke-width:1.5;" width="64" x="330" y="53"/><text fill="#000000" font-family="sans-serif" font-size="14" lengthAdjust="spacing" textLength="50" x="337" y="74.5332">:System</text><rect fill="#FEFECE" filter="url(#f1drklw7juiy7n)" height="31.6094" style="stroke:#A80036;stroke-width:1.5;" width="64" x="330" y="290.7188"/><text fill="#000000" font-family="sans-serif" font-size="14" lengthAdjust="spacing" textLength="50" x="337" y="312.252">:System</text><rect fill="#FFFFFF" filter="url(#f1drklw7juiy7n)" height="174.1094" style="stroke:#A80036;stroke-width:1.0;" width="10" x="49" y="99.6094"/><rect fill="#FFFFFF" filter="url(#f1drklw7juiy7n)" height="30.3516" style="stroke:#A80036;stroke-width:1.0;" width="10" x="359" y="121.9609"/><rect fill="#FFFFFF" filter="url(#f1drklw7juiy7n)" height="30.3516" style="stroke:#A80036;stroke-width:1.0;" width="10" x="359" y="182.6641"/><rect fill="#FFFFFF" filter="url(#f1drklw7juiy7n)" height="30.3516" style="stroke:#A80036;stroke-width:1.0;" width="10" x="359" y="243.3672"/><polygon fill="#A80036" points="347,117.9609,357,121.9609,347,125.9609,351,121.9609" style="stroke:#A80036;stroke-width:1.0;"/><line style="stroke:#A80036;stroke-width:1.0;" x1="59" x2="353" y1="121.9609" y2="121.9609"/><text fill="#000000" font-family="sans-serif" font-size="13" font-weight="bold" lengthAdjust="spacing" textLength="7" x="66" y="117.1045">1</text><text fill="#000000" font-family="sans-serif" font-size="13" lengthAdjust="spacing" textLength="270" x="77" y="117.1045">asks to create a new search for available ships</text><polygon fill="#A80036" points="70,148.3125,60,152.3125,70,156.3125,66,152.3125" style="stroke:#A80036;stroke-width:1.0;"/><line style="stroke:#A80036;stroke-width:1.0;stroke-dasharray:2.0,2.0;" x1="64" x2="363" y1="152.3125" y2="152.3125"/><text fill="#000000" font-family="sans-serif" font-size="13" font-weight="bold" lengthAdjust="spacing" textLength="7" x="76" y="147.4561">2</text><text fill="#000000" font-family="sans-serif" font-size="13" lengthAdjust="spacing" textLength="116" x="87" y="147.4561">requests data (date)</text><polygon fill="#A80036" points="347,178.6641,357,182.6641,347,186.6641,351,182.6641" style="stroke:#A80036;stroke-width:1.0;"/><line style="stroke:#A80036;stroke-width:1.0;" x1="59" x2="353" y1="182.6641" y2="182.6641"/><text fill="#000000" font-family="sans-serif" font-size="13" font-weight="bold" lengthAdjust="spacing" textLength="7" x="66" y="177.8076">3</text><text fill="#000000" font-family="sans-serif" font-size="13" lengthAdjust="spacing" textLength="122" x="77" y="177.8076">types requested data</text><polygon fill="#A80036" points="70,209.0156,60,213.0156,70,217.0156,66,213.0156" style="stroke:#A80036;stroke-width:1.0;"/><line style="stroke:#A80036;stroke-width:1.0;stroke-dasharray:2.0,2.0;" x1="64" x2="363" y1="213.0156" y2="213.0156"/><text fill="#000000" font-family="sans-serif" font-size="13" font-weight="bold" lengthAdjust="spacing" textLength="7" x="76" y="208.1592">4</text><text fill="#000000" font-family="sans-serif" font-size="13" lengthAdjust="spacing" textLength="182" x="87" y="208.1592">shows the list of available ships</text><polygon fill="#A80036" points="347,239.3672,357,243.3672,347,247.3672,351,243.3672" style="stroke:#A80036;stroke-width:1.0;"/><line style="stroke:#A80036;stroke-width:1.0;" x1="59" x2="353" y1="243.3672" y2="243.3672"/><text fill="#000000" font-family="sans-serif" font-size="13" font-weight="bold" lengthAdjust="spacing" textLength="7" x="66" y="238.5107">5</text><text fill="#000000" font-family="sans-serif" font-size="13" lengthAdjust="spacing" textLength="81" x="77" y="238.5107">selects a ship</text><polygon fill="#A80036" points="65,269.7188,55,273.7188,65,277.7188,61,273.7188" style="stroke:#A80036;stroke-width:1.0;"/><line style="stroke:#A80036;stroke-width:1.0;stroke-dasharray:2.0,2.0;" x1="59" x2="363" y1="273.7188" y2="273.7188"/><text fill="#000000" font-family="sans-serif" font-size="13" font-weight="bold" lengthAdjust="spacing" textLength="7" x="71" y="268.8623">6</text><text fill="#000000" font-family="sans-serif" font-size="13" lengthAdjust="spacing" textLength="216" x="82" y="268.8623">shows the current position of the ship</text><!--MD5=[196c2684276e15e5649920d81f0ddfdf]
@startuml
autonumber
actor "Fleet Manager" as FE

activate FE
FE -> ":System" : asks to create a new search for available ships
activate ":System"
":System" - -> FE : requests data (date)
deactivate ":System"

FE -> ":System" : types requested data
activate ":System"
":System" - -> FE : shows the list of available ships
deactivate ":System"

FE -> ":System" : selects a ship
activate ":System"
":System" - -> FE : shows the current position of the ship
deactivate ":System"

deactivate FE

@enduml

PlantUML version 1.2021.11(Sat Oct 02 14:26:11 BST 2021)
(GPL source distribution)
Java Runtime: OpenJDK Runtime Environment
JVM: OpenJDK 64-Bit Server VM
Default Encoding: Cp1252
Language: pt
Country: PT
--></g></svg>