<?xml version="1.0" encoding="UTF-8" standalone="no"?><svg xmlns="http://www.w3.org/2000/svg" xmlns:xlink="http://www.w3.org/1999/xlink" contentScriptType="application/ecmascript" contentStyleType="text/css" height="248px" preserveAspectRatio="none" style="width:1973px;height:248px;background:#FFFFFF;" version="1.1" viewBox="0 0 1973 248" width="1973px" zoomAndPan="magnify"><defs><filter height="300%" id="f13c9b6ufwo6il" width="300%" x="-1" y="-1"><feGaussianBlur result="blurOut" stdDeviation="2.0"/><feColorMatrix in="blurOut" result="blurOut2" type="matrix" values="0 0 0 0 0 0 0 0 0 0 0 0 0 0 0 0 0 0 .4 0"/><feOffset dx="4.0" dy="4.0" in="blurOut2" result="blurOut3"/><feBlend in="SourceGraphic" in2="blurOut3" mode="normal"/></filter></defs><g><!--MD5=[02e4b9b7573f1156f41e60aa5b4e25a4]
class Company--><rect codeLine="4" fill="#FEFECE" filter="url(#f13c9b6ufwo6il)" height="73.6094" id="Company" style="stroke:#A80036;stroke-width:1.5;" width="128" x="744" y="26"/><ellipse cx="777" cy="42" fill="#ADD1B2" rx="11" ry="11" style="stroke:#A80036;stroke-width:1.0;"/><path d="M779.3438,37.6719 C778.4063,37.2344 777.8125,37.0938 776.9375,37.0938 C774.3125,37.0938 772.3125,39.1719 772.3125,41.8906 L772.3125,43.0156 C772.3125,45.5938 774.4219,47.4844 777.3125,47.4844 C778.5313,47.4844 779.6875,47.1875 780.4375,46.6406 C781.0156,46.2344 781.3438,45.7813 781.3438,45.3906 C781.3438,44.9375 780.9531,44.5469 780.4844,44.5469 C780.2656,44.5469 780.0625,44.625 779.875,44.8125 C779.4219,45.2969 779.4219,45.2969 779.2344,45.3906 C778.8125,45.6563 778.125,45.7813 777.3594,45.7813 C775.3125,45.7813 774.0156,44.6875 774.0156,42.9844 L774.0156,41.8906 C774.0156,40.1094 775.2656,38.7969 777,38.7969 C777.5781,38.7969 778.1875,38.9531 778.6563,39.2031 C779.1406,39.4844 779.3125,39.7031 779.4063,40.1094 C779.4688,40.5156 779.5,40.6406 779.6406,40.7656 C779.7813,40.9063 780.0156,41.0156 780.2344,41.0156 C780.5,41.0156 780.7656,40.875 780.9375,40.6563 C781.0469,40.5 781.0781,40.3125 781.0781,39.8906 L781.0781,38.4688 C781.0781,38.0313 781.0625,37.9063 780.9688,37.75 C780.8125,37.4844 780.5313,37.3438 780.2344,37.3438 C779.9375,37.3438 779.7344,37.4375 779.5156,37.75 L779.3438,37.6719 Z " fill="#000000"/><text fill="#000000" font-family="sans-serif" font-size="12" lengthAdjust="spacing" textLength="56" x="795" y="46.1543">Company</text><line style="stroke:#A80036;stroke-width:1.5;" x1="745" x2="871" y1="58" y2="58"/><text fill="#000000" font-family="sans-serif" font-size="11" lengthAdjust="spacing" textLength="116" x="750" y="72.2104">-portStore: PortStore</text><line style="stroke:#A80036;stroke-width:1.5;" x1="745" x2="871" y1="78.8047" y2="78.8047"/><text fill="#000000" font-family="sans-serif" font-size="11" lengthAdjust="spacing" textLength="88" x="750" y="93.0151">+getPortStore()</text><!--MD5=[4f1f3706c1a355a8488e154afcaed5df]
class Location--><rect codeLine="9" fill="#FEFECE" filter="url(#f13c9b6ufwo6il)" height="112.0234" id="Location" style="stroke:#A80036;stroke-width:1.5;" width="121" x="1838" y="7"/><ellipse cx="1870.55" cy="23" fill="#ADD1B2" rx="11" ry="11" style="stroke:#A80036;stroke-width:1.0;"/><path d="M1872.8938,18.6719 C1871.9563,18.2344 1871.3625,18.0938 1870.4875,18.0938 C1867.8625,18.0938 1865.8625,20.1719 1865.8625,22.8906 L1865.8625,24.0156 C1865.8625,26.5938 1867.9719,28.4844 1870.8625,28.4844 C1872.0813,28.4844 1873.2375,28.1875 1873.9875,27.6406 C1874.5656,27.2344 1874.8938,26.7813 1874.8938,26.3906 C1874.8938,25.9375 1874.5031,25.5469 1874.0344,25.5469 C1873.8156,25.5469 1873.6125,25.625 1873.425,25.8125 C1872.9719,26.2969 1872.9719,26.2969 1872.7844,26.3906 C1872.3625,26.6563 1871.675,26.7813 1870.9094,26.7813 C1868.8625,26.7813 1867.5656,25.6875 1867.5656,23.9844 L1867.5656,22.8906 C1867.5656,21.1094 1868.8156,19.7969 1870.55,19.7969 C1871.1281,19.7969 1871.7375,19.9531 1872.2063,20.2031 C1872.6906,20.4844 1872.8625,20.7031 1872.9563,21.1094 C1873.0188,21.5156 1873.05,21.6406 1873.1906,21.7656 C1873.3313,21.9063 1873.5656,22.0156 1873.7844,22.0156 C1874.05,22.0156 1874.3156,21.875 1874.4875,21.6563 C1874.5969,21.5 1874.6281,21.3125 1874.6281,20.8906 L1874.6281,19.4688 C1874.6281,19.0313 1874.6125,18.9063 1874.5188,18.75 C1874.3625,18.4844 1874.0813,18.3438 1873.7844,18.3438 C1873.4875,18.3438 1873.2844,18.4375 1873.0656,18.75 L1872.8938,18.6719 Z " fill="#000000"/><text fill="#000000" font-family="sans-serif" font-size="12" lengthAdjust="spacing" textLength="50" x="1888.45" y="27.1543">Location</text><line style="stroke:#A80036;stroke-width:1.5;" x1="1839" x2="1958" y1="39" y2="39"/><text fill="#000000" font-family="sans-serif" font-size="11" lengthAdjust="spacing" textLength="93" x="1844" y="53.2104">-latitude: double</text><text fill="#000000" font-family="sans-serif" font-size="11" lengthAdjust="spacing" textLength="103" x="1844" y="66.0151">-longitude: double</text><line style="stroke:#A80036;stroke-width:1.5;" x1="1839" x2="1958" y1="72.6094" y2="72.6094"/><text fill="#000000" font-family="sans-serif" font-size="11" lengthAdjust="spacing" textLength="61" x="1844" y="86.8198">+toString()</text><text fill="#000000" font-family="sans-serif" font-size="11" lengthAdjust="spacing" textLength="78" x="1844" y="99.6245">+equals(ship)</text><text fill="#000000" font-family="sans-serif" font-size="11" lengthAdjust="spacing" textLength="109" x="1844" y="112.4292">+acessorMethods()</text><!--MD5=[a0bfe97ac0a38e6e74cc1c7c7b744b71]
class Port--><rect codeLine="17" fill="#FEFECE" filter="url(#f13c9b6ufwo6il)" height="73.6094" id="Port" style="stroke:#A80036;stroke-width:1.5;" width="121" x="1502" y="26"/><ellipse cx="1546.75" cy="42" fill="#ADD1B2" rx="11" ry="11" style="stroke:#A80036;stroke-width:1.0;"/><path d="M1549.0938,37.6719 C1548.1563,37.2344 1547.5625,37.0938 1546.6875,37.0938 C1544.0625,37.0938 1542.0625,39.1719 1542.0625,41.8906 L1542.0625,43.0156 C1542.0625,45.5938 1544.1719,47.4844 1547.0625,47.4844 C1548.2813,47.4844 1549.4375,47.1875 1550.1875,46.6406 C1550.7656,46.2344 1551.0938,45.7813 1551.0938,45.3906 C1551.0938,44.9375 1550.7031,44.5469 1550.2344,44.5469 C1550.0156,44.5469 1549.8125,44.625 1549.625,44.8125 C1549.1719,45.2969 1549.1719,45.2969 1548.9844,45.3906 C1548.5625,45.6563 1547.875,45.7813 1547.1094,45.7813 C1545.0625,45.7813 1543.7656,44.6875 1543.7656,42.9844 L1543.7656,41.8906 C1543.7656,40.1094 1545.0156,38.7969 1546.75,38.7969 C1547.3281,38.7969 1547.9375,38.9531 1548.4063,39.2031 C1548.8906,39.4844 1549.0625,39.7031 1549.1563,40.1094 C1549.2188,40.5156 1549.25,40.6406 1549.3906,40.7656 C1549.5313,40.9063 1549.7656,41.0156 1549.9844,41.0156 C1550.25,41.0156 1550.5156,40.875 1550.6875,40.6563 C1550.7969,40.5 1550.8281,40.3125 1550.8281,39.8906 L1550.8281,38.4688 C1550.8281,38.0313 1550.8125,37.9063 1550.7188,37.75 C1550.5625,37.4844 1550.2813,37.3438 1549.9844,37.3438 C1549.6875,37.3438 1549.4844,37.4375 1549.2656,37.75 L1549.0938,37.6719 Z " fill="#000000"/><text fill="#000000" font-family="sans-serif" font-size="12" lengthAdjust="spacing" textLength="23" x="1567.25" y="46.1543">Port</text><line style="stroke:#A80036;stroke-width:1.5;" x1="1503" x2="1622" y1="58" y2="58"/><text fill="#000000" font-family="sans-serif" font-size="11" lengthAdjust="spacing" textLength="102" x="1508" y="72.2104">-location: Location</text><line style="stroke:#A80036;stroke-width:1.5;" x1="1503" x2="1622" y1="78.8047" y2="78.8047"/><text fill="#000000" font-family="sans-serif" font-size="11" lengthAdjust="spacing" textLength="109" x="1508" y="93.0151">+acessorMethods()</text><!--MD5=[f70d2b281f9eefc1b49373c49159755a]
class PortStore--><rect codeLine="22" fill="#FEFECE" filter="url(#f13c9b6ufwo6il)" height="73.6094" id="PortStore" style="stroke:#A80036;stroke-width:1.5;" width="159" x="1028" y="26"/><ellipse cx="1075.25" cy="42" fill="#ADD1B2" rx="11" ry="11" style="stroke:#A80036;stroke-width:1.0;"/><path d="M1077.5938,37.6719 C1076.6563,37.2344 1076.0625,37.0938 1075.1875,37.0938 C1072.5625,37.0938 1070.5625,39.1719 1070.5625,41.8906 L1070.5625,43.0156 C1070.5625,45.5938 1072.6719,47.4844 1075.5625,47.4844 C1076.7813,47.4844 1077.9375,47.1875 1078.6875,46.6406 C1079.2656,46.2344 1079.5938,45.7813 1079.5938,45.3906 C1079.5938,44.9375 1079.2031,44.5469 1078.7344,44.5469 C1078.5156,44.5469 1078.3125,44.625 1078.125,44.8125 C1077.6719,45.2969 1077.6719,45.2969 1077.4844,45.3906 C1077.0625,45.6563 1076.375,45.7813 1075.6094,45.7813 C1073.5625,45.7813 1072.2656,44.6875 1072.2656,42.9844 L1072.2656,41.8906 C1072.2656,40.1094 1073.5156,38.7969 1075.25,38.7969 C1075.8281,38.7969 1076.4375,38.9531 1076.9063,39.2031 C1077.3906,39.4844 1077.5625,39.7031 1077.6563,40.1094 C1077.7188,40.5156 1077.75,40.6406 1077.8906,40.7656 C1078.0313,40.9063 1078.2656,41.0156 1078.4844,41.0156 C1078.75,41.0156 1079.0156,40.875 1079.1875,40.6563 C1079.2969,40.5 1079.3281,40.3125 1079.3281,39.8906 L1079.3281,38.4688 C1079.3281,38.0313 1079.3125,37.9063 1079.2188,37.75 C1079.0625,37.4844 1078.7813,37.3438 1078.4844,37.3438 C1078.1875,37.3438 1077.9844,37.4375 1077.7656,37.75 L1077.5938,37.6719 Z " fill="#000000"/><text fill="#000000" font-family="sans-serif" font-size="12" lengthAdjust="spacing" textLength="56" x="1095.75" y="46.1543">PortStore</text><line style="stroke:#A80036;stroke-width:1.5;" x1="1029" x2="1186" y1="58" y2="58"/><text fill="#000000" font-family="sans-serif" font-size="11" lengthAdjust="spacing" textLength="147" x="1034" y="72.2104">-KDTree &lt;Port&gt; portStore</text><line style="stroke:#A80036;stroke-width:1.5;" x1="1029" x2="1186" y1="78.8047" y2="78.8047"/><text fill="#000000" font-family="sans-serif" font-size="11" lengthAdjust="spacing" textLength="57" x="1034" y="93.0151">+getPort()</text><!--MD5=[e9680dcbbd57ee38dfd053ffcea751cd]
class KDTree--><rect codeLine="27" fill="#FEFECE" filter="url(#f13c9b6ufwo6il)" height="73.6094" id="KDTree" style="stroke:#A80036;stroke-width:1.5;" width="319" x="1403" y="140"/><ellipse cx="1535.75" cy="156" fill="#ADD1B2" rx="11" ry="11" style="stroke:#A80036;stroke-width:1.0;"/><path d="M1538.0938,151.6719 C1537.1563,151.2344 1536.5625,151.0938 1535.6875,151.0938 C1533.0625,151.0938 1531.0625,153.1719 1531.0625,155.8906 L1531.0625,157.0156 C1531.0625,159.5938 1533.1719,161.4844 1536.0625,161.4844 C1537.2813,161.4844 1538.4375,161.1875 1539.1875,160.6406 C1539.7656,160.2344 1540.0938,159.7813 1540.0938,159.3906 C1540.0938,158.9375 1539.7031,158.5469 1539.2344,158.5469 C1539.0156,158.5469 1538.8125,158.625 1538.625,158.8125 C1538.1719,159.2969 1538.1719,159.2969 1537.9844,159.3906 C1537.5625,159.6563 1536.875,159.7813 1536.1094,159.7813 C1534.0625,159.7813 1532.7656,158.6875 1532.7656,156.9844 L1532.7656,155.8906 C1532.7656,154.1094 1534.0156,152.7969 1535.75,152.7969 C1536.3281,152.7969 1536.9375,152.9531 1537.4063,153.2031 C1537.8906,153.4844 1538.0625,153.7031 1538.1563,154.1094 C1538.2188,154.5156 1538.25,154.6406 1538.3906,154.7656 C1538.5313,154.9063 1538.7656,155.0156 1538.9844,155.0156 C1539.25,155.0156 1539.5156,154.875 1539.6875,154.6563 C1539.7969,154.5 1539.8281,154.3125 1539.8281,153.8906 L1539.8281,152.4688 C1539.8281,152.0313 1539.8125,151.9063 1539.7188,151.75 C1539.5625,151.4844 1539.2813,151.3438 1538.9844,151.3438 C1538.6875,151.3438 1538.4844,151.4375 1538.2656,151.75 L1538.0938,151.6719 Z " fill="#000000"/><text fill="#000000" font-family="sans-serif" font-size="12" lengthAdjust="spacing" textLength="45" x="1556.25" y="160.1543">KDTree</text><line style="stroke:#A80036;stroke-width:1.5;" x1="1404" x2="1721" y1="172" y2="172"/><line style="stroke:#A80036;stroke-width:1.5;" x1="1404" x2="1721" y1="180" y2="180"/><text fill="#000000" font-family="sans-serif" font-size="11" lengthAdjust="spacing" textLength="181" x="1409" y="194.2104">+insert(port, longitude, latitude)</text><text fill="#000000" font-family="sans-serif" font-size="11" lengthAdjust="spacing" textLength="307" x="1409" y="207.0151">+findNearestNeighbour(node, x, y, closestNode, divX)</text><!--MD5=[ea2206eefe09474e90beb17e18e6b3d8]
class ShipStore--><rect codeLine="32" fill="#FEFECE" filter="url(#f13c9b6ufwo6il)" height="73.6094" id="ShipStore" style="stroke:#A80036;stroke-width:1.5;" width="330" x="7" y="148"/><ellipse cx="138.25" cy="164" fill="#ADD1B2" rx="11" ry="11" style="stroke:#A80036;stroke-width:1.0;"/><path d="M140.5938,159.6719 C139.6563,159.2344 139.0625,159.0938 138.1875,159.0938 C135.5625,159.0938 133.5625,161.1719 133.5625,163.8906 L133.5625,165.0156 C133.5625,167.5938 135.6719,169.4844 138.5625,169.4844 C139.7813,169.4844 140.9375,169.1875 141.6875,168.6406 C142.2656,168.2344 142.5938,167.7813 142.5938,167.3906 C142.5938,166.9375 142.2031,166.5469 141.7344,166.5469 C141.5156,166.5469 141.3125,166.625 141.125,166.8125 C140.6719,167.2969 140.6719,167.2969 140.4844,167.3906 C140.0625,167.6563 139.375,167.7813 138.6094,167.7813 C136.5625,167.7813 135.2656,166.6875 135.2656,164.9844 L135.2656,163.8906 C135.2656,162.1094 136.5156,160.7969 138.25,160.7969 C138.8281,160.7969 139.4375,160.9531 139.9063,161.2031 C140.3906,161.4844 140.5625,161.7031 140.6563,162.1094 C140.7188,162.5156 140.75,162.6406 140.8906,162.7656 C141.0313,162.9063 141.2656,163.0156 141.4844,163.0156 C141.75,163.0156 142.0156,162.875 142.1875,162.6563 C142.2969,162.5 142.3281,162.3125 142.3281,161.8906 L142.3281,160.4688 C142.3281,160.0313 142.3125,159.9063 142.2188,159.75 C142.0625,159.4844 141.7813,159.3438 141.4844,159.3438 C141.1875,159.3438 140.9844,159.4375 140.7656,159.75 L140.5938,159.6719 Z " fill="#000000"/><text fill="#000000" font-family="sans-serif" font-size="12" lengthAdjust="spacing" textLength="59" x="158.75" y="168.1543">ShipStore</text><line style="stroke:#A80036;stroke-width:1.5;" x1="8" x2="336" y1="180" y2="180"/><text fill="#000000" font-family="sans-serif" font-size="11" lengthAdjust="spacing" textLength="158" x="13" y="194.2104">-AVLTree &lt;Ship&gt; shipStore</text><line style="stroke:#A80036;stroke-width:1.5;" x1="8" x2="336" y1="200.8047" y2="200.8047"/><text fill="#000000" font-family="sans-serif" font-size="11" lengthAdjust="spacing" textLength="318" x="13" y="215.0151">+findShipDynamicUsingCallSign(callsign,basedateTime)</text><!--MD5=[0dc7f2ddb409b58bcf52b12238c25399]
class Ship--><rect codeLine="36" fill="#FEFECE" filter="url(#f13c9b6ufwo6il)" height="99.2188" id="Ship" style="stroke:#A80036;stroke-width:1.5;" width="166" x="453" y="135.5"/><ellipse cx="518.75" cy="151.5" fill="#ADD1B2" rx="11" ry="11" style="stroke:#A80036;stroke-width:1.0;"/><path d="M521.0938,147.1719 C520.1563,146.7344 519.5625,146.5938 518.6875,146.5938 C516.0625,146.5938 514.0625,148.6719 514.0625,151.3906 L514.0625,152.5156 C514.0625,155.0938 516.1719,156.9844 519.0625,156.9844 C520.2813,156.9844 521.4375,156.6875 522.1875,156.1406 C522.7656,155.7344 523.0938,155.2813 523.0938,154.8906 C523.0938,154.4375 522.7031,154.0469 522.2344,154.0469 C522.0156,154.0469 521.8125,154.125 521.625,154.3125 C521.1719,154.7969 521.1719,154.7969 520.9844,154.8906 C520.5625,155.1563 519.875,155.2813 519.1094,155.2813 C517.0625,155.2813 515.7656,154.1875 515.7656,152.4844 L515.7656,151.3906 C515.7656,149.6094 517.0156,148.2969 518.75,148.2969 C519.3281,148.2969 519.9375,148.4531 520.4063,148.7031 C520.8906,148.9844 521.0625,149.2031 521.1563,149.6094 C521.2188,150.0156 521.25,150.1406 521.3906,150.2656 C521.5313,150.4063 521.7656,150.5156 521.9844,150.5156 C522.25,150.5156 522.5156,150.375 522.6875,150.1563 C522.7969,150 522.8281,149.8125 522.8281,149.3906 L522.8281,147.9688 C522.8281,147.5313 522.8125,147.4063 522.7188,147.25 C522.5625,146.9844 522.2813,146.8438 521.9844,146.8438 C521.6875,146.8438 521.4844,146.9375 521.2656,147.25 L521.0938,147.1719 Z " fill="#000000"/><text fill="#000000" font-family="sans-serif" font-size="12" lengthAdjust="spacing" textLength="26" x="539.25" y="155.6543">Ship</text><line style="stroke:#A80036;stroke-width:1.5;" x1="454" x2="618" y1="167.5" y2="167.5"/><text fill="#000000" font-family="sans-serif" font-size="11" lengthAdjust="spacing" textLength="154" x="459" y="181.7104">-Identification identification</text><text fill="#000000" font-family="sans-serif" font-size="11" lengthAdjust="spacing" textLength="71" x="459" y="194.5151">-Route route</text><line style="stroke:#A80036;stroke-width:1.5;" x1="454" x2="618" y1="201.1094" y2="201.1094"/><text fill="#000000" font-family="sans-serif" font-size="11" lengthAdjust="spacing" textLength="69" x="459" y="215.3198">+getRoute()</text><text fill="#000000" font-family="sans-serif" font-size="11" lengthAdjust="spacing" textLength="82" x="459" y="228.1245">+getCallSign()</text><!--MD5=[fc92a9f5bb5fae84dd7fa4034e6b4444]
class Route--><rect codeLine="42" fill="#FEFECE" filter="url(#f13c9b6ufwo6il)" height="73.6094" id="Route" style="stroke:#A80036;stroke-width:1.5;" width="208" x="704" y="148"/><ellipse cx="786.75" cy="164" fill="#ADD1B2" rx="11" ry="11" style="stroke:#A80036;stroke-width:1.0;"/><path d="M789.0938,159.6719 C788.1563,159.2344 787.5625,159.0938 786.6875,159.0938 C784.0625,159.0938 782.0625,161.1719 782.0625,163.8906 L782.0625,165.0156 C782.0625,167.5938 784.1719,169.4844 787.0625,169.4844 C788.2813,169.4844 789.4375,169.1875 790.1875,168.6406 C790.7656,168.2344 791.0938,167.7813 791.0938,167.3906 C791.0938,166.9375 790.7031,166.5469 790.2344,166.5469 C790.0156,166.5469 789.8125,166.625 789.625,166.8125 C789.1719,167.2969 789.1719,167.2969 788.9844,167.3906 C788.5625,167.6563 787.875,167.7813 787.1094,167.7813 C785.0625,167.7813 783.7656,166.6875 783.7656,164.9844 L783.7656,163.8906 C783.7656,162.1094 785.0156,160.7969 786.75,160.7969 C787.3281,160.7969 787.9375,160.9531 788.4063,161.2031 C788.8906,161.4844 789.0625,161.7031 789.1563,162.1094 C789.2188,162.5156 789.25,162.6406 789.3906,162.7656 C789.5313,162.9063 789.7656,163.0156 789.9844,163.0156 C790.25,163.0156 790.5156,162.875 790.6875,162.6563 C790.7969,162.5 790.8281,162.3125 790.8281,161.8906 L790.8281,160.4688 C790.8281,160.0313 790.8125,159.9063 790.7188,159.75 C790.5625,159.4844 790.2813,159.3438 789.9844,159.3438 C789.6875,159.3438 789.4844,159.4375 789.2656,159.75 L789.0938,159.6719 Z " fill="#000000"/><text fill="#000000" font-family="sans-serif" font-size="12" lengthAdjust="spacing" textLength="34" x="807.25" y="168.1543">Route</text><line style="stroke:#A80036;stroke-width:1.5;" x1="705" x2="911" y1="180" y2="180"/><text fill="#000000" font-family="sans-serif" font-size="11" lengthAdjust="spacing" textLength="189" x="710" y="194.2104">List&lt;ShipDynamic&gt; shipDynamic</text><line style="stroke:#A80036;stroke-width:1.5;" x1="705" x2="911" y1="200.8047" y2="200.8047"/><text fill="#000000" font-family="sans-serif" font-size="11" lengthAdjust="spacing" textLength="196" x="710" y="215.0151">+getShipDynamic(baseDateTime)</text><!--MD5=[19c2b9eb46691e25b02426140995a460]
class ShipDynamic--><rect codeLine="46" fill="#FEFECE" filter="url(#f13c9b6ufwo6il)" height="99.2188" id="ShipDynamic" style="stroke:#A80036;stroke-width:1.5;" width="128" x="1043.5" y="135.5"/><ellipse cx="1067.05" cy="151.5" fill="#ADD1B2" rx="11" ry="11" style="stroke:#A80036;stroke-width:1.0;"/><path d="M1069.3938,147.1719 C1068.4563,146.7344 1067.8625,146.5938 1066.9875,146.5938 C1064.3625,146.5938 1062.3625,148.6719 1062.3625,151.3906 L1062.3625,152.5156 C1062.3625,155.0938 1064.4719,156.9844 1067.3625,156.9844 C1068.5813,156.9844 1069.7375,156.6875 1070.4875,156.1406 C1071.0656,155.7344 1071.3938,155.2813 1071.3938,154.8906 C1071.3938,154.4375 1071.0031,154.0469 1070.5344,154.0469 C1070.3156,154.0469 1070.1125,154.125 1069.925,154.3125 C1069.4719,154.7969 1069.4719,154.7969 1069.2844,154.8906 C1068.8625,155.1563 1068.175,155.2813 1067.4094,155.2813 C1065.3625,155.2813 1064.0656,154.1875 1064.0656,152.4844 L1064.0656,151.3906 C1064.0656,149.6094 1065.3156,148.2969 1067.05,148.2969 C1067.6281,148.2969 1068.2375,148.4531 1068.7063,148.7031 C1069.1906,148.9844 1069.3625,149.2031 1069.4563,149.6094 C1069.5188,150.0156 1069.55,150.1406 1069.6906,150.2656 C1069.8313,150.4063 1070.0656,150.5156 1070.2844,150.5156 C1070.55,150.5156 1070.8156,150.375 1070.9875,150.1563 C1071.0969,150 1071.1281,149.8125 1071.1281,149.3906 L1071.1281,147.9688 C1071.1281,147.5313 1071.1125,147.4063 1071.0188,147.25 C1070.8625,146.9844 1070.5813,146.8438 1070.2844,146.8438 C1069.9875,146.8438 1069.7844,146.9375 1069.5656,147.25 L1069.3938,147.1719 Z " fill="#000000"/><text fill="#000000" font-family="sans-serif" font-size="12" lengthAdjust="spacing" textLength="77" x="1082.95" y="155.6543">ShipDynamic</text><line style="stroke:#A80036;stroke-width:1.5;" x1="1044.5" x2="1170.5" y1="167.5" y2="167.5"/><text fill="#000000" font-family="sans-serif" font-size="11" lengthAdjust="spacing" textLength="95" x="1049.5" y="181.7104">Location location</text><line style="stroke:#A80036;stroke-width:1.5;" x1="1044.5" x2="1170.5" y1="188.3047" y2="188.3047"/><text fill="#000000" font-family="sans-serif" font-size="11" lengthAdjust="spacing" textLength="83" x="1049.5" y="202.5151">+getLocation()</text><text fill="#000000" font-family="sans-serif" font-size="11" lengthAdjust="spacing" textLength="116" x="1049.5" y="215.3198">+createPortFacade()</text><text fill="#000000" font-family="sans-serif" font-size="11" lengthAdjust="spacing" textLength="99" x="1049.5" y="228.1245">+getClosestPort()</text><!--MD5=[65ee90562832c0979c2c10c2e3a298d8]
link ShipDynamic to KDTree--><path codeLine="53" d="M1171.57,184.5536 C1225.16,184.1098 1304.13,183.3039 1373,182 C1381.06,181.8473 1389.32,181.6777 1397.66,181.4959 " fill="none" id="ShipDynamic-to-KDTree" style="stroke:#A80036;stroke-width:1.0;stroke-dasharray:7.0,7.0;"/><polygon fill="#A80036" points="1402.86,181.3811,1393.7818,177.5619,1397.861,181.4811,1393.9418,185.5603,1402.86,181.3811" style="stroke:#A80036;stroke-width:1.0;"/><text fill="#000000" font-family="sans-serif" font-size="13" lengthAdjust="spacing" textLength="154" x="1218" y="178.0669">uses to find closest port</text><!--MD5=[f04e04ecc6998d67821b33eb17256457]
link ShipStore to Ship--><path codeLine="54" d="M337.053,185 C375.054,185 414.059,185 447.291,185 " fill="none" id="ShipStore-to-Ship" style="stroke:#A80036;stroke-width:1.0;"/><polygon fill="#A80036" points="452.574,185,443.574,181,447.574,185,443.574,189,452.574,185" style="stroke:#A80036;stroke-width:1.0;"/><text fill="#000000" font-family="sans-serif" font-size="13" lengthAdjust="spacing" textLength="54" x="368" y="181.0669">contains</text><text fill="#000000" font-family="sans-serif" font-size="13" lengthAdjust="spacing" textLength="8" x="345.2415" y="197.4429">1</text><text fill="#000000" font-family="sans-serif" font-size="13" lengthAdjust="spacing" textLength="27" x="417.8502" y="197.6611">1...*</text><!--MD5=[bd668f20969913e971975f69d50ab766]
link Ship to Route--><path codeLine="55" d="M619.109,185 C644.126,185 672.022,185 698.502,185 " fill="none" id="Ship-to-Route" style="stroke:#A80036;stroke-width:1.0;"/><polygon fill="#A80036" points="703.778,185,694.778,181,698.778,185,694.778,189,703.778,185" style="stroke:#A80036;stroke-width:1.0;"/><text fill="#000000" font-family="sans-serif" font-size="13" lengthAdjust="spacing" textLength="23" x="650" y="181.0669">has</text><text fill="#000000" font-family="sans-serif" font-size="13" lengthAdjust="spacing" textLength="8" x="626.8671" y="197.731">1</text><text fill="#000000" font-family="sans-serif" font-size="13" lengthAdjust="spacing" textLength="8" x="688.1686" y="197.6126">1</text><!--MD5=[6e2bf1b581922c3b45ac635d439704bd]
link Route to ShipDynamic--><path codeLine="56" d="M912.216,185 C953.805,185 1000.649,185 1037.92,185 " fill="none" id="Route-to-ShipDynamic" style="stroke:#A80036;stroke-width:1.0;"/><polygon fill="#A80036" points="1043.35,185,1034.35,181,1038.35,185,1034.35,189,1043.35,185" style="stroke:#A80036;stroke-width:1.0;"/><text fill="#000000" font-family="sans-serif" font-size="13" lengthAdjust="spacing" textLength="54" x="943" y="181.0669">contains</text><text fill="#000000" font-family="sans-serif" font-size="13" lengthAdjust="spacing" textLength="8" x="920.1631" y="197.6369">1</text><text fill="#000000" font-family="sans-serif" font-size="13" lengthAdjust="spacing" textLength="27" x="1008.3423" y="197.8359">1...*</text><!--MD5=[5a03d6507d51d9583d52cfaf8d4720dd]
link Company to PortStore--><path codeLine="57" d="M872.092,63 C915.949,63 974.876,63 1022.68,63 " fill="none" id="Company-to-PortStore" style="stroke:#A80036;stroke-width:1.0;"/><polygon fill="#A80036" points="1027.85,63,1018.85,59,1022.85,63,1018.85,67,1027.85,63" style="stroke:#A80036;stroke-width:1.0;"/><text fill="#000000" font-family="sans-serif" font-size="13" lengthAdjust="spacing" textLength="54" x="943" y="59.0669">contains</text><text fill="#000000" font-family="sans-serif" font-size="13" lengthAdjust="spacing" textLength="8" x="879.9651" y="75.9643">1</text><text fill="#000000" font-family="sans-serif" font-size="13" lengthAdjust="spacing" textLength="8" x="1011.8771" y="75.8067">1</text><!--MD5=[c8440d88291d09ff9b1204d56899ac6f]
link PortStore to Port--><path codeLine="58" d="M1187.15,63 C1274.79,63 1414.87,63 1496.54,63 " fill="none" id="PortStore-to-Port" style="stroke:#A80036;stroke-width:1.0;"/><polygon fill="#A80036" points="1501.83,63,1492.83,59,1496.83,63,1492.83,67,1501.83,63" style="stroke:#A80036;stroke-width:1.0;"/><text fill="#000000" font-family="sans-serif" font-size="13" lengthAdjust="spacing" textLength="54" x="1268" y="59.0669">contains</text><text fill="#000000" font-family="sans-serif" font-size="13" lengthAdjust="spacing" textLength="8" x="1195.1229" y="75.8067">1</text><text fill="#000000" font-family="sans-serif" font-size="13" lengthAdjust="spacing" textLength="7" x="1487.0093" y="76.0129">*</text><!--MD5=[8d70ee99540c41b6b173287b4c5b2064]
link Port to Location--><path codeLine="59" d="M1623.21,63 C1682.16,63 1772.04,63 1832.7,63 " fill="none" id="Port-to-Location" style="stroke:#A80036;stroke-width:1.0;"/><polygon fill="#A80036" points="1837.74,63,1828.74,59,1832.74,63,1828.74,67,1837.74,63" style="stroke:#A80036;stroke-width:1.0;"/><text fill="#000000" font-family="sans-serif" font-size="13" lengthAdjust="spacing" textLength="54" x="1753" y="59.0669">contains</text><text fill="#000000" font-family="sans-serif" font-size="13" lengthAdjust="spacing" textLength="8" x="1631.0965" y="76.0129">1</text><text fill="#000000" font-family="sans-serif" font-size="13" lengthAdjust="spacing" textLength="8" x="1821.8474" y="75.9876">1</text><!--MD5=[ac190c9bcd29f0e150ce4358dab0a7df]
link PortStore to KDTree--><path codeLine="60" d="M1187.15,82.792 C1248.26,98.171 1334.87,119.968 1409.4,138.7232 " fill="none" id="PortStore-to-KDTree" style="stroke:#A80036;stroke-width:1.0;"/><polygon fill="#A80036" points="1414.29,139.954,1406.5481,133.866,1409.4432,138.7259,1404.5832,141.621,1414.29,139.954" style="stroke:#A80036;stroke-width:1.0;"/><text fill="#000000" font-family="sans-serif" font-size="13" lengthAdjust="spacing" textLength="30" x="1280" y="86.0669">uses</text><text fill="#000000" font-family="sans-serif" font-size="13" lengthAdjust="spacing" textLength="8" x="1195.1229" y="97.4851">1</text><text fill="#000000" font-family="sans-serif" font-size="13" lengthAdjust="spacing" textLength="8" x="1386.7881" y="131.347">1</text><!--MD5=[7e66905218a2185df861a6bb94bf6ef0]
@startuml
skinparam classAttributeIconSize 0
left to right direction

class Company{
-portStore: PortStore
+getPortStore()
}

class Location{
- latitude: double
- longitude: double
+toString()
+equals(ship)
+acessorMethods()
}

class "Port"{
-location: Location
+acessorMethods()
}

class PortStore {
  -KDTree <Port> portStore
  +getPort()
}

class KDTree {
+insert(port, longitude, latitude)
+findNearestNeighbour(node, x, y, closestNode, divX)
}

class ShipStore{
-AVLTree <Ship> shipStore
+findShipDynamicUsingCallSign(callsign,basedateTime)
}
class Ship{
-Identification identification
-Route route
+getRoute()
+getCallSign()
}
class Route{
List<ShipDynamic> shipDynamic
+getShipDynamic(baseDateTime)
}
class ShipDynamic{
Location location
+getLocation()
+createPortFacade()
+getClosestPort()
}

ShipDynamic ..> KDTree : uses to find closest port
ShipStore "1" - -> "1...*" Ship : contains
Ship "1" - -> "1" Route : has
Route "1" - -> "1...*" ShipDynamic : contains
Company "1" - -> "1" PortStore :contains
PortStore "1" - -> "*" Port: contains
Port "1" - -> "1" Location: contains
PortStore "1" - -> "1" KDTree: uses
@enduml

PlantUML version 1.2021.15beta8(Unknown compile time)
(GPL source distribution)
Java Runtime: Java(TM) SE Runtime Environment
JVM: Java HotSpot(TM) 64-Bit Server VM
Default Encoding: UTF-8
Language: en
Country: US
--></g></svg>