<?xml version="1.0" encoding="UTF-8" standalone="no"?><svg xmlns="http://www.w3.org/2000/svg" xmlns:xlink="http://www.w3.org/1999/xlink" contentScriptType="application/ecmascript" contentStyleType="text/css" height="638px" preserveAspectRatio="none" style="width:344px;height:638px;background:#FFFFFF;" version="1.1" viewBox="0 0 344 638" width="344px" zoomAndPan="magnify"><defs><filter height="300%" id="fda7oridhzxh6" width="300%" x="-1" y="-1"><feGaussianBlur result="blurOut" stdDeviation="2.0"/><feColorMatrix in="blurOut" result="blurOut2" type="matrix" values="0 0 0 0 0 0 0 0 0 0 0 0 0 0 0 0 0 0 .4 0"/><feOffset dx="4.0" dy="4.0" in="blurOut2" result="blurOut3"/><feBlend in="SourceGraphic" in2="blurOut3" mode="normal"/></filter></defs><g><!--MD5=[a0bfe97ac0a38e6e74cc1c7c7b744b71]
class Port--><rect codeLine="2" fill="#FEFECE" filter="url(#fda7oridhzxh6)" height="124.8281" id="Port" style="stroke:#A80036;stroke-width:1.5;" width="69" x="7" y="234"/><ellipse cx="28.3" cy="250" fill="#ADD1B2" rx="11" ry="11" style="stroke:#A80036;stroke-width:1.0;"/><path d="M30.6438,245.6719 C29.7063,245.2344 29.1125,245.0938 28.2375,245.0938 C25.6125,245.0938 23.6125,247.1719 23.6125,249.8906 L23.6125,251.0156 C23.6125,253.5938 25.7219,255.4844 28.6125,255.4844 C29.8313,255.4844 30.9875,255.1875 31.7375,254.6406 C32.3156,254.2344 32.6438,253.7813 32.6438,253.3906 C32.6438,252.9375 32.2531,252.5469 31.7844,252.5469 C31.5656,252.5469 31.3625,252.625 31.175,252.8125 C30.7219,253.2969 30.7219,253.2969 30.5344,253.3906 C30.1125,253.6563 29.425,253.7813 28.6594,253.7813 C26.6125,253.7813 25.3156,252.6875 25.3156,250.9844 L25.3156,249.8906 C25.3156,248.1094 26.5656,246.7969 28.3,246.7969 C28.8781,246.7969 29.4875,246.9531 29.9563,247.2031 C30.4406,247.4844 30.6125,247.7031 30.7063,248.1094 C30.7688,248.5156 30.8,248.6406 30.9406,248.7656 C31.0813,248.9063 31.3156,249.0156 31.5344,249.0156 C31.8,249.0156 32.0656,248.875 32.2375,248.6563 C32.3469,248.5 32.3781,248.3125 32.3781,247.8906 L32.3781,246.4688 C32.3781,246.0313 32.3625,245.9063 32.2688,245.75 C32.1125,245.4844 31.8313,245.3438 31.5344,245.3438 C31.2375,245.3438 31.0344,245.4375 30.8156,245.75 L30.6438,245.6719 Z " fill="#000000"/><text fill="#000000" font-family="sans-serif" font-size="12" lengthAdjust="spacing" textLength="23" x="43.7" y="254.1543">Port</text><line style="stroke:#A80036;stroke-width:1.5;" x1="8" x2="75" y1="266" y2="266"/><text fill="#000000" font-family="sans-serif" font-size="11" lengthAdjust="spacing" textLength="37" x="13" y="280.2104">-PortID</text><text fill="#000000" font-family="sans-serif" font-size="11" lengthAdjust="spacing" textLength="37" x="13" y="293.0151">-name</text><text fill="#000000" font-family="sans-serif" font-size="11" lengthAdjust="spacing" textLength="57" x="13" y="305.8198">-continent</text><text fill="#000000" font-family="sans-serif" font-size="11" lengthAdjust="spacing" textLength="46" x="13" y="318.6245">-country</text><text fill="#000000" font-family="sans-serif" font-size="11" lengthAdjust="spacing" textLength="47" x="13" y="331.4292">-latitude</text><text fill="#000000" font-family="sans-serif" font-size="11" lengthAdjust="spacing" textLength="57" x="13" y="344.2339">-longitude</text><line style="stroke:#A80036;stroke-width:1.5;" x1="8" x2="75" y1="350.8281" y2="350.8281"/><!--MD5=[0dc7f2ddb409b58bcf52b12238c25399]
class Ship--><rect codeLine="10" fill="#FEFECE" filter="url(#fda7oridhzxh6)" height="188.8516" id="Ship" style="stroke:#A80036;stroke-width:1.5;" width="177" x="153" y="436"/><ellipse cx="224.25" cy="452" fill="#ADD1B2" rx="11" ry="11" style="stroke:#A80036;stroke-width:1.0;"/><path d="M226.5938,447.6719 C225.6563,447.2344 225.0625,447.0938 224.1875,447.0938 C221.5625,447.0938 219.5625,449.1719 219.5625,451.8906 L219.5625,453.0156 C219.5625,455.5938 221.6719,457.4844 224.5625,457.4844 C225.7813,457.4844 226.9375,457.1875 227.6875,456.6406 C228.2656,456.2344 228.5938,455.7813 228.5938,455.3906 C228.5938,454.9375 228.2031,454.5469 227.7344,454.5469 C227.5156,454.5469 227.3125,454.625 227.125,454.8125 C226.6719,455.2969 226.6719,455.2969 226.4844,455.3906 C226.0625,455.6563 225.375,455.7813 224.6094,455.7813 C222.5625,455.7813 221.2656,454.6875 221.2656,452.9844 L221.2656,451.8906 C221.2656,450.1094 222.5156,448.7969 224.25,448.7969 C224.8281,448.7969 225.4375,448.9531 225.9063,449.2031 C226.3906,449.4844 226.5625,449.7031 226.6563,450.1094 C226.7188,450.5156 226.75,450.6406 226.8906,450.7656 C227.0313,450.9063 227.2656,451.0156 227.4844,451.0156 C227.75,451.0156 228.0156,450.875 228.1875,450.6563 C228.2969,450.5 228.3281,450.3125 228.3281,449.8906 L228.3281,448.4688 C228.3281,448.0313 228.3125,447.9063 228.2188,447.75 C228.0625,447.4844 227.7813,447.3438 227.4844,447.3438 C227.1875,447.3438 226.9844,447.4375 226.7656,447.75 L226.5938,447.6719 Z " fill="#000000"/><text fill="#000000" font-family="sans-serif" font-size="12" lengthAdjust="spacing" textLength="26" x="244.75" y="456.1543">Ship</text><line style="stroke:#A80036;stroke-width:1.5;" x1="154" x2="329" y1="468" y2="468"/><text fill="#000000" font-family="sans-serif" font-size="11" lengthAdjust="spacing" textLength="33" x="159" y="482.2104">-MMSI</text><text fill="#000000" font-family="sans-serif" font-size="11" lengthAdjust="spacing" textLength="37" x="159" y="495.0151">-name</text><text fill="#000000" font-family="sans-serif" font-size="11" lengthAdjust="spacing" textLength="81" x="159" y="507.8198">-IMOIDnumber</text><text fill="#000000" font-family="sans-serif" font-size="11" lengthAdjust="spacing" textLength="165" x="159" y="520.6245">-numberOfEnergyGenerators</text><text fill="#000000" font-family="sans-serif" font-size="11" lengthAdjust="spacing" textLength="132" x="159" y="533.4292">-generatorPowerOutput</text><text fill="#000000" font-family="sans-serif" font-size="11" lengthAdjust="spacing" textLength="48" x="159" y="546.2339">-callSign</text><text fill="#000000" font-family="sans-serif" font-size="11" lengthAdjust="spacing" textLength="101" x="159" y="559.0386">-vesselTypeCode</text><text fill="#000000" font-family="sans-serif" font-size="11" lengthAdjust="spacing" textLength="34" x="159" y="571.8433">-width</text><text fill="#000000" font-family="sans-serif" font-size="11" lengthAdjust="spacing" textLength="40" x="159" y="584.6479">-length</text><text fill="#000000" font-family="sans-serif" font-size="11" lengthAdjust="spacing" textLength="51" x="159" y="597.4526">-capacity</text><text fill="#000000" font-family="sans-serif" font-size="11" lengthAdjust="spacing" textLength="30" x="159" y="610.2573">-draft</text><line style="stroke:#A80036;stroke-width:1.5;" x1="154" x2="329" y1="616.8516" y2="616.8516"/><!--MD5=[19c2b9eb46691e25b02426140995a460]
class ShipDynamic--><rect codeLine="23" fill="#FEFECE" filter="url(#fda7oridhzxh6)" height="150.4375" id="ShipDynamic" style="stroke:#A80036;stroke-width:1.5;" width="110" x="86.5" y="7"/><ellipse cx="101.95" cy="23" fill="#ADD1B2" rx="11" ry="11" style="stroke:#A80036;stroke-width:1.0;"/><path d="M104.2938,18.6719 C103.3563,18.2344 102.7625,18.0938 101.8875,18.0938 C99.2625,18.0938 97.2625,20.1719 97.2625,22.8906 L97.2625,24.0156 C97.2625,26.5938 99.3719,28.4844 102.2625,28.4844 C103.4813,28.4844 104.6375,28.1875 105.3875,27.6406 C105.9656,27.2344 106.2938,26.7813 106.2938,26.3906 C106.2938,25.9375 105.9031,25.5469 105.4344,25.5469 C105.2156,25.5469 105.0125,25.625 104.825,25.8125 C104.3719,26.2969 104.3719,26.2969 104.1844,26.3906 C103.7625,26.6563 103.075,26.7813 102.3094,26.7813 C100.2625,26.7813 98.9656,25.6875 98.9656,23.9844 L98.9656,22.8906 C98.9656,21.1094 100.2156,19.7969 101.95,19.7969 C102.5281,19.7969 103.1375,19.9531 103.6063,20.2031 C104.0906,20.4844 104.2625,20.7031 104.3563,21.1094 C104.4188,21.5156 104.45,21.6406 104.5906,21.7656 C104.7313,21.9063 104.9656,22.0156 105.1844,22.0156 C105.45,22.0156 105.7156,21.875 105.8875,21.6563 C105.9969,21.5 106.0281,21.3125 106.0281,20.8906 L106.0281,19.4688 C106.0281,19.0313 106.0125,18.9063 105.9188,18.75 C105.7625,18.4844 105.4813,18.3438 105.1844,18.3438 C104.8875,18.3438 104.6844,18.4375 104.4656,18.75 L104.2938,18.6719 Z " fill="#000000"/><text fill="#000000" font-family="sans-serif" font-size="12" lengthAdjust="spacing" textLength="77" x="116.05" y="27.1543">ShipDynamic</text><line style="stroke:#A80036;stroke-width:1.5;" x1="87.5" x2="195.5" y1="39" y2="39"/><text fill="#000000" font-family="sans-serif" font-size="11" lengthAdjust="spacing" textLength="89" x="92.5" y="53.2104">-baseDateTime</text><text fill="#000000" font-family="sans-serif" font-size="11" lengthAdjust="spacing" textLength="47" x="92.5" y="66.0151">-latitude</text><text fill="#000000" font-family="sans-serif" font-size="11" lengthAdjust="spacing" textLength="57" x="92.5" y="78.8198">-longitude</text><text fill="#000000" font-family="sans-serif" font-size="11" lengthAdjust="spacing" textLength="30" x="92.5" y="91.6245">-SOG</text><text fill="#000000" font-family="sans-serif" font-size="11" lengthAdjust="spacing" textLength="30" x="92.5" y="104.4292">-COG</text><text fill="#000000" font-family="sans-serif" font-size="11" lengthAdjust="spacing" textLength="50" x="92.5" y="117.2339">-heading</text><text fill="#000000" font-family="sans-serif" font-size="11" lengthAdjust="spacing" textLength="48" x="92.5" y="130.0386">-position</text><text fill="#000000" font-family="sans-serif" font-size="11" lengthAdjust="spacing" textLength="98" x="92.5" y="142.8433">-transceiverClass</text><line style="stroke:#A80036;stroke-width:1.5;" x1="87.5" x2="195.5" y1="149.4375" y2="149.4375"/><!--MD5=[fc92a9f5bb5fae84dd7fa4034e6b4444]
class Route--><rect codeLine="33" fill="#FEFECE" filter="url(#fda7oridhzxh6)" height="60.8047" id="Route" style="stroke:#A80036;stroke-width:1.5;" width="66" x="208.5" y="266"/><ellipse cx="223.5" cy="282" fill="#ADD1B2" rx="11" ry="11" style="stroke:#A80036;stroke-width:1.0;"/><path d="M225.8438,277.6719 C224.9063,277.2344 224.3125,277.0938 223.4375,277.0938 C220.8125,277.0938 218.8125,279.1719 218.8125,281.8906 L218.8125,283.0156 C218.8125,285.5938 220.9219,287.4844 223.8125,287.4844 C225.0313,287.4844 226.1875,287.1875 226.9375,286.6406 C227.5156,286.2344 227.8438,285.7813 227.8438,285.3906 C227.8438,284.9375 227.4531,284.5469 226.9844,284.5469 C226.7656,284.5469 226.5625,284.625 226.375,284.8125 C225.9219,285.2969 225.9219,285.2969 225.7344,285.3906 C225.3125,285.6563 224.625,285.7813 223.8594,285.7813 C221.8125,285.7813 220.5156,284.6875 220.5156,282.9844 L220.5156,281.8906 C220.5156,280.1094 221.7656,278.7969 223.5,278.7969 C224.0781,278.7969 224.6875,278.9531 225.1563,279.2031 C225.6406,279.4844 225.8125,279.7031 225.9063,280.1094 C225.9688,280.5156 226,280.6406 226.1406,280.7656 C226.2813,280.9063 226.5156,281.0156 226.7344,281.0156 C227,281.0156 227.2656,280.875 227.4375,280.6563 C227.5469,280.5 227.5781,280.3125 227.5781,279.8906 L227.5781,278.4688 C227.5781,278.0313 227.5625,277.9063 227.4688,277.75 C227.3125,277.4844 227.0313,277.3438 226.7344,277.3438 C226.4375,277.3438 226.2344,277.4375 226.0156,277.75 L225.8438,277.6719 Z " fill="#000000"/><text fill="#000000" font-family="sans-serif" font-size="12" lengthAdjust="spacing" textLength="34" x="237.5" y="286.1543">Route</text><line style="stroke:#A80036;stroke-width:1.5;" x1="209.5" x2="273.5" y1="298" y2="298"/><text fill="#000000" font-family="sans-serif" font-size="11" lengthAdjust="spacing" textLength="46" x="214.5" y="312.2104">-routeID</text><line style="stroke:#A80036;stroke-width:1.5;" x1="209.5" x2="273.5" y1="318.8047" y2="318.8047"/><!--MD5=[c5e980dcaf482091f48df17b7e92074c]
link ShipDynamic to Port--><path codeLine="36" d="M86.3194,123.604 C67.439,140.812 48.5547,162.559 38.5,187 C33.1685,199.96 31.1877,214.546 31.0608,228.721 " fill="none" id="ShipDynamic-to-Port" style="stroke:#A80036;stroke-width:1.0;"/><polygon fill="#A80036" points="31.0952,233.92,35.036,224.8939,31.0623,228.9201,27.0361,224.9465,31.0952,233.92" style="stroke:#A80036;stroke-width:1.0;"/><text fill="#000000" font-family="sans-serif" font-size="13" lengthAdjust="spacing" textLength="158" x="39.5" y="200.0669">wants to find the closest</text><text fill="#000000" font-family="sans-serif" font-size="13" lengthAdjust="spacing" textLength="8" x="70.367" y="125.2331">1</text><text fill="#000000" font-family="sans-serif" font-size="13" lengthAdjust="spacing" textLength="8" x="21.4296" y="222.9015">1</text><!--MD5=[74246699266b811cd90ad4e630bec26c]
reverse link ShipDynamic to Route--><path codeLine="37" d="M189.72,161.749 C194.256,170.16 198.607,178.682 202.5,187 C214.634,212.925 225.381,243.742 232.505,265.896 " fill="none" id="ShipDynamic-backto-Route" style="stroke:#A80036;stroke-width:1.0;"/><polygon fill="#A80036" points="187.182,157.09,187.9734,166.907,189.5733,161.4811,194.9992,163.081,187.182,157.09" style="stroke:#A80036;stroke-width:1.0;"/><text fill="#000000" font-family="sans-serif" font-size="13" lengthAdjust="spacing" textLength="54" x="210.5" y="200.0669">contains</text><text fill="#000000" font-family="sans-serif" font-size="13" lengthAdjust="spacing" textLength="23" x="167.707" y="177.6583">1..*</text><text fill="#000000" font-family="sans-serif" font-size="13" lengthAdjust="spacing" textLength="8" x="221.8248" y="255.1378">1</text><!--MD5=[f2abd9a938b72dbf3c52eff8480df845]
reverse link Route to Ship--><path codeLine="38" d="M241.5,332.675 C241.5,360.097 241.5,399.499 241.5,435.856 " fill="none" id="Route-backto-Ship" style="stroke:#A80036;stroke-width:1.0;"/><polygon fill="#A80036" points="241.5,327.355,237.5,336.355,241.5,332.355,245.5,336.355,241.5,327.355" style="stroke:#A80036;stroke-width:1.0;"/><text fill="#000000" font-family="sans-serif" font-size="13" lengthAdjust="spacing" textLength="23" x="242.5" y="402.0669">has</text><text fill="#000000" font-family="sans-serif" font-size="13" lengthAdjust="spacing" textLength="23" x="216.3078" y="346.7646">1..*</text><text fill="#000000" font-family="sans-serif" font-size="13" lengthAdjust="spacing" textLength="8" x="233.1813" y="424.7945">1</text><!--MD5=[f3a1b302a27d87ba6e9e0520def15bf8]
@startuml
skinparam classAttributeIconSize 0
Class Port{
-PortID
-name
-continent
-country
-latitude
-longitude
}
class Ship {
-MMSI
-name
-IMOIDnumber
-numberOfEnergyGenerators
-generatorPowerOutput
-callSign
-vesselTypeCode
-width
-length
-capacity
-draft
}
class ShipDynamic{
-baseDateTime
-latitude
-longitude
-SOG
-COG
-heading
-position
-transceiverClass
}
Class Route{
-routeID
}
ShipDynamic "1" - -> "1" Port :wants to find the closest
ShipDynamic "1..*" <- - "1" Route: contains
Route "1..*" <- - "1" Ship : has
@enduml

PlantUML version 1.2021.15beta8(Unknown compile time)
(GPL source distribution)
Java Runtime: Java(TM) SE Runtime Environment
JVM: Java HotSpot(TM) 64-Bit Server VM
Default Encoding: UTF-8
Language: en
Country: US
--></g></svg>