<?xml version="1.0" encoding="UTF-8" standalone="no"?><svg xmlns="http://www.w3.org/2000/svg" xmlns:xlink="http://www.w3.org/1999/xlink" contentScriptType="application/ecmascript" contentStyleType="text/css" height="702px" preserveAspectRatio="none" style="width:1761px;height:702px;background:#FFFFFF;" version="1.1" viewBox="0 0 1761 702" width="1761px" zoomAndPan="magnify"><defs><filter height="300%" id="fpfmhqgssiaya" width="300%" x="-1" y="-1"><feGaussianBlur result="blurOut" stdDeviation="2.0"/><feColorMatrix in="blurOut" result="blurOut2" type="matrix" values="0 0 0 0 0 0 0 0 0 0 0 0 0 0 0 0 0 0 .4 0"/><feOffset dx="4.0" dy="4.0" in="blurOut2" result="blurOut3"/><feBlend in="SourceGraphic" in2="blurOut3" mode="normal"/></filter></defs><g><rect fill="#FFFFFF" filter="url(#fpfmhqgssiaya)" height="510.4609" style="stroke:#A80036;stroke-width:1.0;" width="10" x="47" y="98.2969"/><rect fill="#FFFFFF" filter="url(#fpfmhqgssiaya)" height="29.1328" style="stroke:#A80036;stroke-width:1.0;" width="10" x="565" y="119.4297"/><rect fill="#FFFFFF" filter="url(#fpfmhqgssiaya)" height="422.0625" style="stroke:#A80036;stroke-width:1.0;" width="10" x="565" y="177.6953"/><rect fill="#FFFFFF" filter="url(#fpfmhqgssiaya)" height="363.7969" style="stroke:#A80036;stroke-width:1.0;" width="10" x="971" y="206.8281"/><rect fill="#FFFFFF" filter="url(#fpfmhqgssiaya)" height="28" style="stroke:#A80036;stroke-width:1.0;" width="10" x="976" y="362.2266"/><rect fill="#FFFFFF" filter="url(#fpfmhqgssiaya)" height="28" style="stroke:#A80036;stroke-width:1.0;" width="10" x="976" y="434.3594"/><rect fill="#FFFFFF" filter="url(#fpfmhqgssiaya)" height="28" style="stroke:#A80036;stroke-width:1.0;" width="10" x="976" y="506.4922"/><rect fill="#FFFFFF" filter="url(#fpfmhqgssiaya)" height="30" style="stroke:#A80036;stroke-width:1.0;" width="10" x="1438" y="235.9609"/><rect fill="#FFFFFF" filter="url(#fpfmhqgssiaya)" height="30" style="stroke:#A80036;stroke-width:1.0;" width="10" x="1699.5" y="295.0938"/><line style="stroke:#A80036;stroke-width:1.0;stroke-dasharray:5.0,5.0;" x1="52" x2="52" y1="88.2969" y2="617.7578"/><line style="stroke:#A80036;stroke-width:1.0;stroke-dasharray:5.0,5.0;" x1="570" x2="570" y1="88.2969" y2="617.7578"/><line style="stroke:#A80036;stroke-width:1.0;stroke-dasharray:5.0,5.0;" x1="976" x2="976" y1="88.2969" y2="617.7578"/><line style="stroke:#A80036;stroke-width:1.0;stroke-dasharray:5.0,5.0;" x1="1442.5" x2="1442.5" y1="88.2969" y2="617.7578"/><line style="stroke:#A80036;stroke-width:1.0;stroke-dasharray:5.0,5.0;" x1="1525.5" x2="1525.5" y1="88.2969" y2="617.7578"/><line style="stroke:#A80036;stroke-width:1.0;stroke-dasharray:5.0,5.0;" x1="1604.5" x2="1604.5" y1="88.2969" y2="617.7578"/><line style="stroke:#A80036;stroke-width:1.0;stroke-dasharray:5.0,5.0;" x1="1704.5" x2="1704.5" y1="88.2969" y2="617.7578"/><text fill="#000000" font-family="sans-serif" font-size="14" lengthAdjust="spacing" textLength="88" x="5" y="84.9951">ShipCaptain</text><ellipse cx="52" cy="15" fill="#FEFECE" filter="url(#fpfmhqgssiaya)" rx="8" ry="8" style="stroke:#A80036;stroke-width:2.0;"/><path d="M52,23 L52,50 M39,31 L65,31 M52,50 L39,65 M52,50 L65,65 " fill="none" filter="url(#fpfmhqgssiaya)" style="stroke:#A80036;stroke-width:2.0;"/><text fill="#000000" font-family="sans-serif" font-size="14" lengthAdjust="spacing" textLength="88" x="5" y="629.7529">ShipCaptain</text><ellipse cx="52" cy="643.0547" fill="#FEFECE" filter="url(#fpfmhqgssiaya)" rx="8" ry="8" style="stroke:#A80036;stroke-width:2.0;"/><path d="M52,651.0547 L52,678.0547 M39,659.0547 L65,659.0547 M52,678.0547 L39,693.0547 M52,678.0547 L65,693.0547 " fill="none" filter="url(#fpfmhqgssiaya)" style="stroke:#A80036;stroke-width:2.0;"/><rect fill="#FEFECE" filter="url(#fpfmhqgssiaya)" height="30.2969" style="stroke:#A80036;stroke-width:1.5;" width="190" x="473" y="53"/><text fill="#000000" font-family="sans-serif" font-size="14" lengthAdjust="spacing" textLength="176" x="480" y="72.9951">:GetOccupancyRateTest</text><rect fill="#FEFECE" filter="url(#fpfmhqgssiaya)" height="30.2969" style="stroke:#A80036;stroke-width:1.5;" width="190" x="473" y="616.7578"/><text fill="#000000" font-family="sans-serif" font-size="14" lengthAdjust="spacing" textLength="176" x="480" y="636.7529">:GetOccupancyRateTest</text><rect fill="#FEFECE" filter="url(#fpfmhqgssiaya)" height="30.2969" style="stroke:#A80036;stroke-width:1.5;" width="158" x="895" y="53"/><text fill="#000000" font-family="sans-serif" font-size="14" lengthAdjust="spacing" textLength="144" x="902" y="72.9951">:GetOccupancyRate</text><rect fill="#FEFECE" filter="url(#fpfmhqgssiaya)" height="30.2969" style="stroke:#A80036;stroke-width:1.5;" width="158" x="895" y="616.7578"/><text fill="#000000" font-family="sans-serif" font-size="14" lengthAdjust="spacing" textLength="144" x="902" y="636.7529">:GetOccupancyRate</text><rect fill="#FEFECE" filter="url(#fpfmhqgssiaya)" height="30.2969" style="stroke:#A80036;stroke-width:1.5;" width="87" x="1397.5" y="53"/><text fill="#000000" font-family="sans-serif" font-size="14" lengthAdjust="spacing" textLength="73" x="1404.5" y="72.9951">:Company</text><rect fill="#FEFECE" filter="url(#fpfmhqgssiaya)" height="30.2969" style="stroke:#A80036;stroke-width:1.5;" width="87" x="1397.5" y="616.7578"/><text fill="#000000" font-family="sans-serif" font-size="14" lengthAdjust="spacing" textLength="73" x="1404.5" y="636.7529">:Company</text><rect fill="#FEFECE" filter="url(#fpfmhqgssiaya)" height="30.2969" style="stroke:#A80036;stroke-width:1.5;" width="50" x="1498.5" y="53"/><text fill="#000000" font-family="sans-serif" font-size="14" lengthAdjust="spacing" textLength="36" x="1505.5" y="72.9951">:Port</text><rect fill="#FEFECE" filter="url(#fpfmhqgssiaya)" height="30.2969" style="stroke:#A80036;stroke-width:1.5;" width="50" x="1498.5" y="616.7578"/><text fill="#000000" font-family="sans-serif" font-size="14" lengthAdjust="spacing" textLength="36" x="1505.5" y="636.7529">:Port</text><rect fill="#FEFECE" filter="url(#fpfmhqgssiaya)" height="30.2969" style="stroke:#A80036;stroke-width:1.5;" width="81" x="1562.5" y="53"/><text fill="#000000" font-family="sans-serif" font-size="14" lengthAdjust="spacing" textLength="67" x="1569.5" y="72.9951">:Location</text><rect fill="#FEFECE" filter="url(#fpfmhqgssiaya)" height="30.2969" style="stroke:#A80036;stroke-width:1.5;" width="81" x="1562.5" y="616.7578"/><text fill="#000000" font-family="sans-serif" font-size="14" lengthAdjust="spacing" textLength="67" x="1569.5" y="636.7529">:Location</text><rect fill="#FEFECE" filter="url(#fpfmhqgssiaya)" height="30.2969" style="stroke:#A80036;stroke-width:1.5;" width="90" x="1657.5" y="53"/><text fill="#000000" font-family="sans-serif" font-size="14" lengthAdjust="spacing" textLength="76" x="1664.5" y="72.9951">:PortStore</text><rect fill="#FEFECE" filter="url(#fpfmhqgssiaya)" height="30.2969" style="stroke:#A80036;stroke-width:1.5;" width="90" x="1657.5" y="616.7578"/><text fill="#000000" font-family="sans-serif" font-size="14" lengthAdjust="spacing" textLength="76" x="1664.5" y="636.7529">:PortStore</text><rect fill="#FFFFFF" filter="url(#fpfmhqgssiaya)" height="510.4609" style="stroke:#A80036;stroke-width:1.0;" width="10" x="47" y="98.2969"/><rect fill="#FFFFFF" filter="url(#fpfmhqgssiaya)" height="29.1328" style="stroke:#A80036;stroke-width:1.0;" width="10" x="565" y="119.4297"/><rect fill="#FFFFFF" filter="url(#fpfmhqgssiaya)" height="422.0625" style="stroke:#A80036;stroke-width:1.0;" width="10" x="565" y="177.6953"/><rect fill="#FFFFFF" filter="url(#fpfmhqgssiaya)" height="363.7969" style="stroke:#A80036;stroke-width:1.0;" width="10" x="971" y="206.8281"/><rect fill="#FFFFFF" filter="url(#fpfmhqgssiaya)" height="28" style="stroke:#A80036;stroke-width:1.0;" width="10" x="976" y="362.2266"/><rect fill="#FFFFFF" filter="url(#fpfmhqgssiaya)" height="28" style="stroke:#A80036;stroke-width:1.0;" width="10" x="976" y="434.3594"/><rect fill="#FFFFFF" filter="url(#fpfmhqgssiaya)" height="28" style="stroke:#A80036;stroke-width:1.0;" width="10" x="976" y="506.4922"/><rect fill="#FFFFFF" filter="url(#fpfmhqgssiaya)" height="30" style="stroke:#A80036;stroke-width:1.0;" width="10" x="1438" y="235.9609"/><rect fill="#FFFFFF" filter="url(#fpfmhqgssiaya)" height="30" style="stroke:#A80036;stroke-width:1.0;" width="10" x="1699.5" y="295.0938"/><polygon fill="#A80036" points="553,115.4297,563,119.4297,553,123.4297,557,119.4297" style="stroke:#A80036;stroke-width:1.0;"/><line style="stroke:#A80036;stroke-width:1.0;" x1="57" x2="559" y1="119.4297" y2="119.4297"/><text fill="#000000" font-family="sans-serif" font-size="13" font-weight="bold" lengthAdjust="spacing" textLength="9" x="64" y="114.3638">1</text><text fill="#000000" font-family="sans-serif" font-size="13" lengthAdjust="spacing" textLength="284" x="77" y="114.3638">chooses to see the occupancy rate of a ship</text><polygon fill="#A80036" points="68,144.5625,58,148.5625,68,152.5625,64,148.5625" style="stroke:#A80036;stroke-width:1.0;"/><line style="stroke:#A80036;stroke-width:1.0;stroke-dasharray:2.0,2.0;" x1="62" x2="569" y1="148.5625" y2="148.5625"/><text fill="#000000" font-family="sans-serif" font-size="13" font-weight="bold" lengthAdjust="spacing" textLength="9" x="74" y="143.4966">2</text><text fill="#000000" font-family="sans-serif" font-size="13" lengthAdjust="spacing" textLength="471" x="87" y="143.4966">asks the identifying code of the ship whose occupancy rate will be shown</text><polygon fill="#A80036" points="553,173.6953,563,177.6953,553,181.6953,557,177.6953" style="stroke:#A80036;stroke-width:1.0;"/><line style="stroke:#A80036;stroke-width:1.0;" x1="57" x2="559" y1="177.6953" y2="177.6953"/><text fill="#000000" font-family="sans-serif" font-size="13" font-weight="bold" lengthAdjust="spacing" textLength="8" x="64" y="172.6294">3</text><text fill="#000000" font-family="sans-serif" font-size="13" lengthAdjust="spacing" textLength="242" x="76" y="172.6294">writes the identifying code of the ship</text><polygon fill="#A80036" points="959,202.8281,969,206.8281,959,210.8281,963,206.8281" style="stroke:#A80036;stroke-width:1.0;"/><line style="stroke:#A80036;stroke-width:1.0;" x1="575" x2="965" y1="206.8281" y2="206.8281"/><text fill="#000000" font-family="sans-serif" font-size="13" font-weight="bold" lengthAdjust="spacing" textLength="9" x="582" y="201.7622">4</text><text fill="#000000" font-family="sans-serif" font-size="13" lengthAdjust="spacing" textLength="191" x="595" y="201.7622">getOccupancyRate(portCode)</text><polygon fill="#A80036" points="1426,231.9609,1436,235.9609,1426,239.9609,1430,235.9609" style="stroke:#A80036;stroke-width:1.0;"/><line style="stroke:#A80036;stroke-width:1.0;" x1="981" x2="1432" y1="235.9609" y2="235.9609"/><text fill="#000000" font-family="sans-serif" font-size="13" font-weight="bold" lengthAdjust="spacing" textLength="9" x="988" y="230.895">5</text><text fill="#000000" font-family="sans-serif" font-size="13" lengthAdjust="spacing" textLength="142" x="1001" y="230.895">ports = getPortStore()</text><polygon fill="#A80036" points="1687.5,291.0938,1697.5,295.0938,1687.5,299.0938,1691.5,295.0938" style="stroke:#A80036;stroke-width:1.0;"/><line style="stroke:#A80036;stroke-width:1.0;" x1="981" x2="1693.5" y1="295.0938" y2="295.0938"/><text fill="#000000" font-family="sans-serif" font-size="13" font-weight="bold" lengthAdjust="spacing" textLength="9" x="988" y="290.0278">6</text><text fill="#000000" font-family="sans-serif" font-size="13" lengthAdjust="spacing" textLength="246" x="1001" y="290.0278">port = ports.getPortByCode(portCode)</text><line style="stroke:#A80036;stroke-width:1.0;" x1="986" x2="1028" y1="354.2266" y2="354.2266"/><line style="stroke:#A80036;stroke-width:1.0;" x1="1028" x2="1028" y1="354.2266" y2="367.2266"/><line style="stroke:#A80036;stroke-width:1.0;" x1="987" x2="1028" y1="367.2266" y2="367.2266"/><polygon fill="#A80036" points="997,363.2266,987,367.2266,997,371.2266,993,367.2266" style="stroke:#A80036;stroke-width:1.0;"/><text fill="#000000" font-family="sans-serif" font-size="13" font-weight="bold" lengthAdjust="spacing" textLength="9" x="993" y="349.1606">7</text><text fill="#000000" font-family="sans-serif" font-size="13" lengthAdjust="spacing" textLength="189" x="1006" y="349.1606">capacity = port.getCapacity()</text><line style="stroke:#A80036;stroke-width:1.0;" x1="986" x2="1028" y1="426.3594" y2="426.3594"/><line style="stroke:#A80036;stroke-width:1.0;" x1="1028" x2="1028" y1="426.3594" y2="439.3594"/><line style="stroke:#A80036;stroke-width:1.0;" x1="987" x2="1028" y1="439.3594" y2="439.3594"/><polygon fill="#A80036" points="997,435.3594,987,439.3594,997,443.3594,993,439.3594" style="stroke:#A80036;stroke-width:1.0;"/><text fill="#000000" font-family="sans-serif" font-size="13" font-weight="bold" lengthAdjust="spacing" textLength="9" x="993" y="421.2935">8</text><text fill="#000000" font-family="sans-serif" font-size="13" lengthAdjust="spacing" textLength="430" x="1006" y="421.2935">containersCurrently = ship.getCargoManifest().getContainers.size()</text><line style="stroke:#A80036;stroke-width:1.0;" x1="986" x2="1028" y1="498.4922" y2="498.4922"/><line style="stroke:#A80036;stroke-width:1.0;" x1="1028" x2="1028" y1="498.4922" y2="511.4922"/><line style="stroke:#A80036;stroke-width:1.0;" x1="987" x2="1028" y1="511.4922" y2="511.4922"/><polygon fill="#A80036" points="997,507.4922,987,511.4922,997,515.4922,993,511.4922" style="stroke:#A80036;stroke-width:1.0;"/><text fill="#000000" font-family="sans-serif" font-size="13" font-weight="bold" lengthAdjust="spacing" textLength="9" x="993" y="493.4263">9</text><text fill="#000000" font-family="sans-serif" font-size="13" lengthAdjust="spacing" textLength="279" x="1006" y="493.4263">occupancy = containersCurrently / capacity</text><polygon fill="#A80036" points="586,566.625,576,570.625,586,574.625,582,570.625" style="stroke:#A80036;stroke-width:1.0;"/><line style="stroke:#A80036;stroke-width:1.0;stroke-dasharray:2.0,2.0;" x1="580" x2="975" y1="570.625" y2="570.625"/><text fill="#000000" font-family="sans-serif" font-size="13" font-weight="bold" lengthAdjust="spacing" textLength="19" x="592" y="565.5591">10</text><text fill="#000000" font-family="sans-serif" font-size="13" lengthAdjust="spacing" textLength="349" x="615" y="565.5591">presents the user with the occupancy rate of that ship</text><polygon fill="#A80036" points="68,595.7578,58,599.7578,68,603.7578,64,599.7578" style="stroke:#A80036;stroke-width:1.0;"/><line style="stroke:#A80036;stroke-width:1.0;" x1="62" x2="569" y1="599.7578" y2="599.7578"/><text fill="#000000" font-family="sans-serif" font-size="13" font-weight="bold" lengthAdjust="spacing" textLength="18" x="74" y="594.6919">11</text><text fill="#000000" font-family="sans-serif" font-size="13" lengthAdjust="spacing" textLength="349" x="96" y="594.6919">presents the user with the occupancy rate of that ship</text><!--MD5=[4807ce85749bfabf8e350e7846607803]
@startuml
autonumber
actor "ShipCaptain" as REC

participant  ":GetOccupancyRateTest" as LabCoo
participant ":GetOccupancyRate" as UI
participant ":Company" as CMP
participant ":Port" as PORT

participant ":Location" as location
participant ":PortStore" as portStore




activate REC
REC -> LabCoo : chooses to see the occupancy rate of a ship
activate LabCoo
LabCoo - -> REC : asks the identifying code of the ship whose occupancy rate will be shown

deactivate LabCoo
REC -> LabCoo : writes the identifying code of the ship
activate LabCoo

LabCoo -> UI : getOccupancyRate(portCode)
activate UI


UI -> CMP: ports = getPortStore()
activate CMP
deactivate CMP

UI -> portStore: port = ports.getPortByCode(portCode)
activate portStore
deactivate portStore


UI -> UI : capacity = port.getCapacity()
activate UI
deactivate UI
UI -> UI : containersCurrently = ship.getCargoManifest().getContainers.size()
activate UI
deactivate UI
UI -> UI : occupancy = containersCurrently / capacity
activate UI
deactivate UI

deactivate portStore
UI - -> LabCoo : presents the user with the occupancy rate of that ship

deactivate UI
LabCoo -> REC : presents the user with the occupancy rate of that ship
deactivate LabCoo
@enduml

PlantUML version 1.2021.15beta5(Unknown compile time)
(GPL source distribution)
Java Runtime: Java(TM) SE Runtime Environment
JVM: Java HotSpot(TM) 64-Bit Server VM
Default Encoding: UTF-8
Language: en
Country: US
--></g></svg>