<?xml version="1.0" encoding="UTF-8" standalone="no"?><svg xmlns="http://www.w3.org/2000/svg" xmlns:xlink="http://www.w3.org/1999/xlink" contentScriptType="application/ecmascript" contentStyleType="text/css" height="133px" preserveAspectRatio="none" style="width:775px;height:133px;background:#FFFFFF;" version="1.1" viewBox="0 0 775 133" width="775px" zoomAndPan="magnify"><defs><filter height="300%" id="ftb38cgahoy1c" width="300%" x="-1" y="-1"><feGaussianBlur result="blurOut" stdDeviation="2.0"/><feColorMatrix in="blurOut" result="blurOut2" type="matrix" values="0 0 0 0 0 0 0 0 0 0 0 0 0 0 0 0 0 0 .4 0"/><feOffset dx="4.0" dy="4.0" in="blurOut2" result="blurOut3"/><feBlend in="SourceGraphic" in2="blurOut3" mode="normal"/></filter></defs><g><!--MD5=[deb4e1f6eb1e3c1256fdb830f96abfbb]
class Country--><rect codeLine="4" fill="#FEFECE" filter="url(#ftb38cgahoy1c)" height="112.0234" id="Country" style="stroke:#A80036;stroke-width:1.5;" width="79" x="682" y="7"/><ellipse cx="697.45" cy="23" fill="#ADD1B2" rx="11" ry="11" style="stroke:#A80036;stroke-width:1.0;"/><path d="M699.7938,18.6719 C698.8563,18.2344 698.2625,18.0938 697.3875,18.0938 C694.7625,18.0938 692.7625,20.1719 692.7625,22.8906 L692.7625,24.0156 C692.7625,26.5938 694.8719,28.4844 697.7625,28.4844 C698.9813,28.4844 700.1375,28.1875 700.8875,27.6406 C701.4656,27.2344 701.7938,26.7813 701.7938,26.3906 C701.7938,25.9375 701.4031,25.5469 700.9344,25.5469 C700.7156,25.5469 700.5125,25.625 700.325,25.8125 C699.8719,26.2969 699.8719,26.2969 699.6844,26.3906 C699.2625,26.6563 698.575,26.7813 697.8094,26.7813 C695.7625,26.7813 694.4656,25.6875 694.4656,23.9844 L694.4656,22.8906 C694.4656,21.1094 695.7156,19.7969 697.45,19.7969 C698.0281,19.7969 698.6375,19.9531 699.1063,20.2031 C699.5906,20.4844 699.7625,20.7031 699.8563,21.1094 C699.9188,21.5156 699.95,21.6406 700.0906,21.7656 C700.2313,21.9063 700.4656,22.0156 700.6844,22.0156 C700.95,22.0156 701.2156,21.875 701.3875,21.6563 C701.4969,21.5 701.5281,21.3125 701.5281,20.8906 L701.5281,19.4688 C701.5281,19.0313 701.5125,18.9063 701.4188,18.75 C701.2625,18.4844 700.9813,18.3438 700.6844,18.3438 C700.3875,18.3438 700.1844,18.4375 699.9656,18.75 L699.7938,18.6719 Z " fill="#000000"/><text fill="#000000" font-family="sans-serif" font-size="12" lengthAdjust="spacing" textLength="46" x="711.55" y="27.1543">Country</text><line style="stroke:#A80036;stroke-width:1.5;" x1="683" x2="760" y1="39" y2="39"/><text fill="#000000" font-family="sans-serif" font-size="11" lengthAdjust="spacing" textLength="37" x="688" y="53.2104">-name</text><text fill="#000000" font-family="sans-serif" font-size="11" lengthAdjust="spacing" textLength="32" x="688" y="66.0151">-code</text><text fill="#000000" font-family="sans-serif" font-size="11" lengthAdjust="spacing" textLength="67" x="688" y="78.8198">-alpha-code</text><text fill="#000000" font-family="sans-serif" font-size="11" lengthAdjust="spacing" textLength="48" x="688" y="91.6245">-location</text><text fill="#000000" font-family="sans-serif" font-size="11" lengthAdjust="spacing" textLength="9" x="688" y="104.4292">...</text><line style="stroke:#A80036;stroke-width:1.5;" x1="683" x2="760" y1="111.0234" y2="111.0234"/><!--MD5=[ddaf6f62b0bc30921877ec9fb9463c9f]
class TrafficManager--><rect codeLine="13" fill="#FEFECE" filter="url(#ftb38cgahoy1c)" height="73.6094" id="TrafficManager" style="stroke:#A80036;stroke-width:1.5;" width="121" x="7" y="26"/><ellipse cx="22" cy="42" fill="#ADD1B2" rx="11" ry="11" style="stroke:#A80036;stroke-width:1.0;"/><path d="M24.3438,37.6719 C23.4063,37.2344 22.8125,37.0938 21.9375,37.0938 C19.3125,37.0938 17.3125,39.1719 17.3125,41.8906 L17.3125,43.0156 C17.3125,45.5938 19.4219,47.4844 22.3125,47.4844 C23.5313,47.4844 24.6875,47.1875 25.4375,46.6406 C26.0156,46.2344 26.3438,45.7813 26.3438,45.3906 C26.3438,44.9375 25.9531,44.5469 25.4844,44.5469 C25.2656,44.5469 25.0625,44.625 24.875,44.8125 C24.4219,45.2969 24.4219,45.2969 24.2344,45.3906 C23.8125,45.6563 23.125,45.7813 22.3594,45.7813 C20.3125,45.7813 19.0156,44.6875 19.0156,42.9844 L19.0156,41.8906 C19.0156,40.1094 20.2656,38.7969 22,38.7969 C22.5781,38.7969 23.1875,38.9531 23.6563,39.2031 C24.1406,39.4844 24.3125,39.7031 24.4063,40.1094 C24.4688,40.5156 24.5,40.6406 24.6406,40.7656 C24.7813,40.9063 25.0156,41.0156 25.2344,41.0156 C25.5,41.0156 25.7656,40.875 25.9375,40.6563 C26.0469,40.5 26.0781,40.3125 26.0781,39.8906 L26.0781,38.4688 C26.0781,38.0313 26.0625,37.9063 25.9688,37.75 C25.8125,37.4844 25.5313,37.3438 25.2344,37.3438 C24.9375,37.3438 24.7344,37.4375 24.5156,37.75 L24.3438,37.6719 Z " fill="#000000"/><text fill="#000000" font-family="sans-serif" font-size="12" lengthAdjust="spacing" textLength="89" x="36" y="46.1543">TrafficManager</text><line style="stroke:#A80036;stroke-width:1.5;" x1="8" x2="127" y1="58" y2="58"/><text fill="#000000" font-family="sans-serif" font-size="11" lengthAdjust="spacing" textLength="39" x="13" y="72.2104">-userId</text><text fill="#000000" font-family="sans-serif" font-size="11" lengthAdjust="spacing" textLength="37" x="13" y="85.0151">-name</text><line style="stroke:#A80036;stroke-width:1.5;" x1="8" x2="127" y1="91.6094" y2="91.6094"/><!--MD5=[3ddcd10e799c08eb09ca90d11440413b]
link TrafficManager to Country--><path codeLine="18" d="M128.147,63 C258.286,63 561.806,63 676.515,63 " fill="none" id="TrafficManager-to-Country" style="stroke:#A80036;stroke-width:1.0;"/><polygon fill="#A80036" points="681.833,63,672.833,59,676.833,63,672.833,67,681.833,63" style="stroke:#A80036;stroke-width:1.0;"/><text fill="#000000" font-family="sans-serif" font-size="13" lengthAdjust="spacing" textLength="498" x="156" y="56.0669">gets the cycle with the less distance covered and the most countries possible</text><text fill="#000000" font-family="sans-serif" font-size="13" lengthAdjust="spacing" textLength="8" x="136.0259" y="59.1847">1</text><text fill="#000000" font-family="sans-serif" font-size="13" lengthAdjust="spacing" textLength="19" x="654.997" y="58.8803">1 *</text><!--MD5=[07c5e236dc5bcf8f0b7ee55fa67fda1b]
@startuml
skinparam classAttributeIconSize 0


class Country{
  -name
  -code
  -alpha-code
  -location
...
}


class TrafficManager {
-userId
-name
}

TrafficManager "1" -> "1 *" Country : gets the cycle with the less distance covered and the most countries possible
@enduml

PlantUML version 1.2022.1beta4(Unknown compile time)
(GPL source distribution)
Java Runtime: Java(TM) SE Runtime Environment
JVM: Java HotSpot(TM) 64-Bit Server VM
Default Encoding: UTF-8
Language: en
Country: US
--></g></svg>