<?xml version="1.0" encoding="UTF-8" standalone="no"?><svg xmlns="http://www.w3.org/2000/svg" xmlns:xlink="http://www.w3.org/1999/xlink" contentScriptType="application/ecmascript" contentStyleType="text/css" height="556px" preserveAspectRatio="none" style="width:1197px;height:556px;background:#FFFFFF;" version="1.1" viewBox="0 0 1197 556" width="1197px" zoomAndPan="magnify"><defs><filter height="300%" id="f1wftufrp72rei" width="300%" x="-1" y="-1"><feGaussianBlur result="blurOut" stdDeviation="2.0"/><feColorMatrix in="blurOut" result="blurOut2" type="matrix" values="0 0 0 0 0 0 0 0 0 0 0 0 0 0 0 0 0 0 .4 0"/><feOffset dx="4.0" dy="4.0" in="blurOut2" result="blurOut3"/><feBlend in="SourceGraphic" in2="blurOut3" mode="normal"/></filter></defs><g><rect fill="#FFFFFF" filter="url(#f1wftufrp72rei)" height="364.4922" style="stroke:#A80036;stroke-width:1.0;" width="10" x="57" y="98.2969"/><rect fill="#FFFFFF" filter="url(#f1wftufrp72rei)" height="29.1328" style="stroke:#A80036;stroke-width:1.0;" width="10" x="514" y="119.4297"/><rect fill="#FFFFFF" filter="url(#f1wftufrp72rei)" height="285.0938" style="stroke:#A80036;stroke-width:1.0;" width="10" x="514" y="177.6953"/><rect fill="#FFFFFF" filter="url(#f1wftufrp72rei)" height="217.8281" style="stroke:#A80036;stroke-width:1.0;" width="10" x="743" y="206.8281"/><rect fill="#FFFFFF" filter="url(#f1wftufrp72rei)" height="30" style="stroke:#A80036;stroke-width:1.0;" width="10" x="1105" y="281.2578"/><line style="stroke:#A80036;stroke-width:1.0;stroke-dasharray:5.0,5.0;" x1="62" x2="62" y1="88.2969" y2="471.7891"/><line style="stroke:#A80036;stroke-width:1.0;stroke-dasharray:5.0,5.0;" x1="519" x2="519" y1="88.2969" y2="471.7891"/><line style="stroke:#A80036;stroke-width:1.0;stroke-dasharray:5.0,5.0;" x1="748" x2="748" y1="88.2969" y2="471.7891"/><line style="stroke:#A80036;stroke-width:1.0;stroke-dasharray:5.0,5.0;" x1="1109.5" x2="1109.5" y1="247.4766" y2="471.7891"/><text fill="#000000" font-family="sans-serif" font-size="14" lengthAdjust="spacing" textLength="108" x="5" y="84.9951">TrafficManager</text><ellipse cx="62" cy="15" fill="#FEFECE" filter="url(#f1wftufrp72rei)" rx="8" ry="8" style="stroke:#A80036;stroke-width:2.0;"/><path d="M62,23 L62,50 M49,31 L75,31 M62,50 L49,65 M62,50 L75,65 " fill="none" filter="url(#f1wftufrp72rei)" style="stroke:#A80036;stroke-width:2.0;"/><text fill="#000000" font-family="sans-serif" font-size="14" lengthAdjust="spacing" textLength="108" x="5" y="483.7842">TrafficManager</text><ellipse cx="62" cy="497.0859" fill="#FEFECE" filter="url(#f1wftufrp72rei)" rx="8" ry="8" style="stroke:#A80036;stroke-width:2.0;"/><path d="M62,505.0859 L62,532.0859 M49,513.0859 L75,513.0859 M62,532.0859 L49,547.0859 M62,532.0859 L75,547.0859 " fill="none" filter="url(#f1wftufrp72rei)" style="stroke:#A80036;stroke-width:2.0;"/><rect fill="#FEFECE" filter="url(#f1wftufrp72rei)" height="30.2969" style="stroke:#A80036;stroke-width:1.5;" width="176" x="429" y="53"/><text fill="#000000" font-family="sans-serif" font-size="14" lengthAdjust="spacing" textLength="162" x="436" y="72.9951">:HamiltonianCycleTest</text><rect fill="#FEFECE" filter="url(#f1wftufrp72rei)" height="30.2969" style="stroke:#A80036;stroke-width:1.5;" width="176" x="429" y="470.7891"/><text fill="#000000" font-family="sans-serif" font-size="14" lengthAdjust="spacing" textLength="162" x="436" y="490.7842">:HamiltonianCycleTest</text><rect fill="#FEFECE" filter="url(#f1wftufrp72rei)" height="30.2969" style="stroke:#A80036;stroke-width:1.5;" width="144" x="674" y="53"/><text fill="#000000" font-family="sans-serif" font-size="14" lengthAdjust="spacing" textLength="130" x="681" y="72.9951">:HamiltonianCycle</text><rect fill="#FEFECE" filter="url(#f1wftufrp72rei)" height="30.2969" style="stroke:#A80036;stroke-width:1.5;" width="144" x="674" y="470.7891"/><text fill="#000000" font-family="sans-serif" font-size="14" lengthAdjust="spacing" textLength="130" x="681" y="490.7842">:HamiltonianCycle</text><rect fill="#FEFECE" filter="url(#f1wftufrp72rei)" height="30.2969" style="stroke:#A80036;stroke-width:1.5;" width="151" x="1032.5" y="470.7891"/><text fill="#000000" font-family="sans-serif" font-size="14" lengthAdjust="spacing" textLength="137" x="1039.5" y="490.7842">:CountryPortGraph</text><rect fill="#FFFFFF" filter="url(#f1wftufrp72rei)" height="364.4922" style="stroke:#A80036;stroke-width:1.0;" width="10" x="57" y="98.2969"/><rect fill="#FFFFFF" filter="url(#f1wftufrp72rei)" height="29.1328" style="stroke:#A80036;stroke-width:1.0;" width="10" x="514" y="119.4297"/><rect fill="#FFFFFF" filter="url(#f1wftufrp72rei)" height="285.0938" style="stroke:#A80036;stroke-width:1.0;" width="10" x="514" y="177.6953"/><rect fill="#FFFFFF" filter="url(#f1wftufrp72rei)" height="217.8281" style="stroke:#A80036;stroke-width:1.0;" width="10" x="743" y="206.8281"/><rect fill="#FFFFFF" filter="url(#f1wftufrp72rei)" height="30" style="stroke:#A80036;stroke-width:1.0;" width="10" x="1105" y="281.2578"/><polygon fill="#A80036" points="502,115.4297,512,119.4297,502,123.4297,506,119.4297" style="stroke:#A80036;stroke-width:1.0;"/><line style="stroke:#A80036;stroke-width:1.0;" x1="67" x2="508" y1="119.4297" y2="119.4297"/><text fill="#000000" font-family="sans-serif" font-size="13" font-weight="bold" lengthAdjust="spacing" textLength="9" x="74" y="114.3638">1</text><text fill="#000000" font-family="sans-serif" font-size="13" lengthAdjust="spacing" textLength="415" x="87" y="114.3638">chooses to see the n closeness countries/ports in each continent</text><polygon fill="#A80036" points="78,144.5625,68,148.5625,78,152.5625,74,148.5625" style="stroke:#A80036;stroke-width:1.0;"/><line style="stroke:#A80036;stroke-width:1.0;stroke-dasharray:2.0,2.0;" x1="72" x2="518" y1="148.5625" y2="148.5625"/><text fill="#000000" font-family="sans-serif" font-size="13" font-weight="bold" lengthAdjust="spacing" textLength="9" x="84" y="143.4966">2</text><text fill="#000000" font-family="sans-serif" font-size="13" lengthAdjust="spacing" textLength="308" x="97" y="143.4966">asks the number of countries/ports to be shown</text><polygon fill="#A80036" points="502,173.6953,512,177.6953,502,181.6953,506,177.6953" style="stroke:#A80036;stroke-width:1.0;"/><line style="stroke:#A80036;stroke-width:1.0;" x1="67" x2="508" y1="177.6953" y2="177.6953"/><text fill="#000000" font-family="sans-serif" font-size="13" font-weight="bold" lengthAdjust="spacing" textLength="8" x="74" y="172.6294">3</text><text fill="#000000" font-family="sans-serif" font-size="13" lengthAdjust="spacing" textLength="118" x="86" y="172.6294">writes the number</text><polygon fill="#A80036" points="731,202.8281,741,206.8281,731,210.8281,735,206.8281" style="stroke:#A80036;stroke-width:1.0;"/><line style="stroke:#A80036;stroke-width:1.0;" x1="524" x2="737" y1="206.8281" y2="206.8281"/><text fill="#000000" font-family="sans-serif" font-size="13" font-weight="bold" lengthAdjust="spacing" textLength="9" x="531" y="201.7622">4</text><text fill="#000000" font-family="sans-serif" font-size="13" lengthAdjust="spacing" textLength="187" x="544" y="201.7622">findCycle(graph, startVertex)</text><polygon fill="#A80036" points="1020.5,231.9609,1030.5,235.9609,1020.5,239.9609,1024.5,235.9609" style="stroke:#A80036;stroke-width:1.0;"/><line style="stroke:#A80036;stroke-width:1.0;" x1="753" x2="1026.5" y1="235.9609" y2="235.9609"/><text fill="#000000" font-family="sans-serif" font-size="13" font-weight="bold" lengthAdjust="spacing" textLength="9" x="760" y="230.895">5</text><text fill="#000000" font-family="sans-serif" font-size="13" lengthAdjust="spacing" textLength="65" x="773" y="230.895">portGraph</text><rect fill="#FEFECE" filter="url(#f1wftufrp72rei)" height="30.2969" style="stroke:#A80036;stroke-width:1.5;" width="151" x="1032.5" y="214.8281"/><text fill="#000000" font-family="sans-serif" font-size="14" lengthAdjust="spacing" textLength="137" x="1039.5" y="234.8232">:CountryPortGraph</text><polygon fill="#A80036" points="1093,277.2578,1103,281.2578,1093,285.2578,1097,281.2578" style="stroke:#A80036;stroke-width:1.0;"/><line style="stroke:#A80036;stroke-width:1.0;" x1="753" x2="1099" y1="281.2578" y2="281.2578"/><text fill="#000000" font-family="sans-serif" font-size="13" font-weight="bold" lengthAdjust="spacing" textLength="9" x="760" y="276.1919">6</text><text fill="#000000" font-family="sans-serif" font-size="13" lengthAdjust="spacing" textLength="320" x="773" y="276.1919">portGraph.createGraphWithPortsAndCountries(2);</text><line style="stroke:#A80036;stroke-width:1.0;" x1="753" x2="795" y1="340.3906" y2="340.3906"/><line style="stroke:#A80036;stroke-width:1.0;" x1="795" x2="795" y1="340.3906" y2="353.3906"/><line style="stroke:#A80036;stroke-width:1.0;" x1="754" x2="795" y1="353.3906" y2="353.3906"/><polygon fill="#A80036" points="764,349.3906,754,353.3906,764,357.3906,760,353.3906" style="stroke:#A80036;stroke-width:1.0;"/><text fill="#000000" font-family="sans-serif" font-size="13" font-weight="bold" lengthAdjust="spacing" textLength="9" x="760" y="335.3247">7</text><text fill="#000000" font-family="sans-serif" font-size="13" lengthAdjust="spacing" textLength="131" x="773" y="335.3247">solve(graph, vertex)</text><line style="stroke:#A80036;stroke-width:1.0;" x1="753" x2="795" y1="382.5234" y2="382.5234"/><line style="stroke:#A80036;stroke-width:1.0;" x1="795" x2="795" y1="382.5234" y2="395.5234"/><line style="stroke:#A80036;stroke-width:1.0;" x1="754" x2="795" y1="395.5234" y2="395.5234"/><polygon fill="#A80036" points="764,391.5234,754,395.5234,764,399.5234,760,395.5234" style="stroke:#A80036;stroke-width:1.0;"/><text fill="#000000" font-family="sans-serif" font-size="13" font-weight="bold" lengthAdjust="spacing" textLength="9" x="760" y="377.4575">8</text><text fill="#000000" font-family="sans-serif" font-size="13" lengthAdjust="spacing" textLength="320" x="773" y="377.4575">getVertMinDist(graph, dist, visited, vIntermedium)</text><polygon fill="#A80036" points="535,420.6563,525,424.6563,535,428.6563,531,424.6563" style="stroke:#A80036;stroke-width:1.0;"/><line style="stroke:#A80036;stroke-width:1.0;stroke-dasharray:2.0,2.0;" x1="529" x2="747" y1="424.6563" y2="424.6563"/><text fill="#000000" font-family="sans-serif" font-size="13" font-weight="bold" lengthAdjust="spacing" textLength="9" x="541" y="419.5903">9</text><text fill="#000000" font-family="sans-serif" font-size="13" lengthAdjust="spacing" textLength="90" x="554" y="419.5903">displayCycle()</text><polygon fill="#A80036" points="78,449.7891,68,453.7891,78,457.7891,74,453.7891" style="stroke:#A80036;stroke-width:1.0;"/><line style="stroke:#A80036;stroke-width:1.0;" x1="72" x2="513" y1="453.7891" y2="453.7891"/><text fill="#000000" font-family="sans-serif" font-size="13" font-weight="bold" lengthAdjust="spacing" textLength="19" x="84" y="448.7231">10</text><text fill="#000000" font-family="sans-serif" font-size="13" lengthAdjust="spacing" textLength="313" x="107" y="448.7231">Show the n closeness countries/ports to the user</text><!--MD5=[e133325eef1f104de0722d83285cb688]
@startuml
autonumber
actor "TrafficManager" as REC

participant  ":HamiltonianCycleTest" as LabCoo
participant ":HamiltonianCycle" as UI

participant ":CountryPortGraph" as countryGraph




activate REC
REC -> LabCoo : chooses to see the n closeness countries/ports in each continent
activate LabCoo
LabCoo - -> REC : asks the number of countries/ports to be shown
deactivate LabCoo
REC -> LabCoo : writes the number
activate LabCoo

LabCoo -> UI : findCycle(graph, startVertex)
activate UI

UI -> countryGraph** : portGraph

UI -> countryGraph :portGraph.createGraphWithPortsAndCountries(2);

activate countryGraph
deactivate countryGraph


UI -> UI:solve(graph, vertex)

UI -> UI:getVertMinDist(graph, dist, visited, vIntermedium)



UI - -> LabCoo : displayCycle()

deactivate UI
LabCoo -> REC : Show the n closeness countries/ports to the user
@enduml

PlantUML version 1.2022.1beta4(Unknown compile time)
(GPL source distribution)
Java Runtime: Java(TM) SE Runtime Environment
JVM: Java HotSpot(TM) 64-Bit Server VM
Default Encoding: UTF-8
Language: en
Country: US
--></g></svg>