<?xml version="1.0" encoding="UTF-8" standalone="no"?><svg xmlns="http://www.w3.org/2000/svg" xmlns:xlink="http://www.w3.org/1999/xlink" contentScriptType="application/ecmascript" contentStyleType="text/css" height="120px" preserveAspectRatio="none" style="width:1242px;height:120px;background:#FFFFFF;" version="1.1" viewBox="0 0 1242 120" width="1242px" zoomAndPan="magnify"><defs><filter height="300%" id="fw3obx0zd59af" width="300%" x="-1" y="-1"><feGaussianBlur result="blurOut" stdDeviation="2.0"/><feColorMatrix in="blurOut" result="blurOut2" type="matrix" values="0 0 0 0 0 0 0 0 0 0 0 0 0 0 0 0 0 0 .4 0"/><feOffset dx="4.0" dy="4.0" in="blurOut2" result="blurOut3"/><feBlend in="SourceGraphic" in2="blurOut3" mode="normal"/></filter></defs><g><!--MD5=[8ecc9f8ee1a5676ac2a764376c5f4e68]
class HamiltonianCycle--><rect codeLine="4" fill="#FEFECE" filter="url(#fw3obx0zd59af)" height="99.2188" id="HamiltonianCycle" style="stroke:#A80036;stroke-width:1.5;" width="678" x="228" y="7"/><ellipse cx="511.75" cy="23" fill="#ADD1B2" rx="11" ry="11" style="stroke:#A80036;stroke-width:1.0;"/><path d="M514.0938,18.6719 C513.1563,18.2344 512.5625,18.0938 511.6875,18.0938 C509.0625,18.0938 507.0625,20.1719 507.0625,22.8906 L507.0625,24.0156 C507.0625,26.5938 509.1719,28.4844 512.0625,28.4844 C513.2813,28.4844 514.4375,28.1875 515.1875,27.6406 C515.7656,27.2344 516.0938,26.7813 516.0938,26.3906 C516.0938,25.9375 515.7031,25.5469 515.2344,25.5469 C515.0156,25.5469 514.8125,25.625 514.625,25.8125 C514.1719,26.2969 514.1719,26.2969 513.9844,26.3906 C513.5625,26.6563 512.875,26.7813 512.1094,26.7813 C510.0625,26.7813 508.7656,25.6875 508.7656,23.9844 L508.7656,22.8906 C508.7656,21.1094 510.0156,19.7969 511.75,19.7969 C512.3281,19.7969 512.9375,19.9531 513.4063,20.2031 C513.8906,20.4844 514.0625,20.7031 514.1563,21.1094 C514.2188,21.5156 514.25,21.6406 514.3906,21.7656 C514.5313,21.9063 514.7656,22.0156 514.9844,22.0156 C515.25,22.0156 515.5156,21.875 515.6875,21.6563 C515.7969,21.5 515.8281,21.3125 515.8281,20.8906 L515.8281,19.4688 C515.8281,19.0313 515.8125,18.9063 515.7188,18.75 C515.5625,18.4844 515.2813,18.3438 514.9844,18.3438 C514.6875,18.3438 514.4844,18.4375 514.2656,18.75 L514.0938,18.6719 Z " fill="#000000"/><text fill="#000000" font-family="sans-serif" font-size="12" lengthAdjust="spacing" textLength="102" x="532.25" y="27.1543">HamiltonianCycle</text><line style="stroke:#A80036;stroke-width:1.5;" x1="229" x2="905" y1="39" y2="39"/><line style="stroke:#A80036;stroke-width:1.5;" x1="229" x2="905" y1="47" y2="47"/><text fill="#000000" font-family="sans-serif" font-size="11" lengthAdjust="spacing" textLength="376" x="234" y="61.2104">+findCycle(Graph&lt;GraphLocation, Double&gt; graph, int startVertex)</text><text fill="#000000" font-family="sans-serif" font-size="11" lengthAdjust="spacing" textLength="390" x="234" y="74.0151">-solve(Graph&lt;GraphLocation, Double&gt; graph, GraphLocation vertex)</text><text fill="#000000" font-family="sans-serif" font-size="11" lengthAdjust="spacing" textLength="666" x="234" y="86.8198">-getVertMinDist(Graph&lt;GraphLocation, Double&gt; graph, double[] dist, boolean[] visited, GraphLocation vIntermedium)</text><text fill="#000000" font-family="sans-serif" font-size="11" lengthAdjust="spacing" textLength="84" x="234" y="99.6245">-displayCycle()</text><!--MD5=[ddf964ba65dd59a9c60a1e1cd8efc8b4]
class GraphLocation--><rect codeLine="11" fill="#FEFECE" filter="url(#fw3obx0zd59af)" height="60.8047" id="GraphLocation" style="stroke:#A80036;stroke-width:1.5;" width="120" x="966" y="26"/><ellipse cx="981" cy="42" fill="#B4A7E5" rx="11" ry="11" style="stroke:#A80036;stroke-width:1.0;"/><path d="M981.9531,38.7813 L983.6719,38.7813 C984.0625,38.7813 984.25,38.75 984.375,38.6719 C984.6406,38.5156 984.7813,38.2344 984.7813,37.9375 C984.7813,37.6719 984.6719,37.4063 984.4375,37.2344 C984.2656,37.125 984.125,37.0938 983.6719,37.0938 L978.5313,37.0938 C978.0938,37.0938 977.9688,37.1094 977.8125,37.2031 C977.5625,37.3594 977.4063,37.6563 977.4063,37.9375 C977.4063,38.2188 977.5469,38.4688 977.7656,38.6406 C977.9219,38.75 978.1094,38.7813 978.5313,38.7813 L980.25,38.7813 L980.25,45.2969 L978.5313,45.2969 C978.0938,45.2969 977.9688,45.3125 977.8125,45.4219 C977.5625,45.5781 977.4063,45.8594 977.4063,46.1563 C977.4063,46.4063 977.5469,46.6719 977.7656,46.8281 C977.9219,46.9531 978.125,47 978.5313,47 L983.6719,47 C984.4219,47 984.7813,46.7188 984.7813,46.1563 C984.7813,45.875 984.6719,45.625 984.4375,45.4531 C984.2656,45.3281 984.125,45.2969 983.6719,45.2969 L981.9531,45.2969 L981.9531,38.7813 Z " fill="#000000"/><text fill="#000000" font-family="sans-serif" font-size="12" font-style="italic" lengthAdjust="spacing" textLength="88" x="995" y="46.1543">GraphLocation</text><line style="stroke:#A80036;stroke-width:1.5;" x1="967" x2="1085" y1="58" y2="58"/><line style="stroke:#A80036;stroke-width:1.5;" x1="967" x2="1085" y1="66" y2="66"/><text fill="#000000" font-family="sans-serif" font-size="11" lengthAdjust="spacing" textLength="70" x="972" y="80.2104">+getName()</text><!--MD5=[339a849a4aec38b1b58b5639e8570301]
class HamiltonianCycleTest--><rect codeLine="15" fill="#FEFECE" filter="url(#fw3obx0zd59af)" height="60.8047" id="HamiltonianCycleTest" style="stroke:#A80036;stroke-width:1.5;" width="161" x="7" y="26"/><ellipse cx="22.45" cy="42" fill="#ADD1B2" rx="11" ry="11" style="stroke:#A80036;stroke-width:1.0;"/><path d="M24.7938,37.6719 C23.8563,37.2344 23.2625,37.0938 22.3875,37.0938 C19.7625,37.0938 17.7625,39.1719 17.7625,41.8906 L17.7625,43.0156 C17.7625,45.5938 19.8719,47.4844 22.7625,47.4844 C23.9813,47.4844 25.1375,47.1875 25.8875,46.6406 C26.4656,46.2344 26.7938,45.7813 26.7938,45.3906 C26.7938,44.9375 26.4031,44.5469 25.9344,44.5469 C25.7156,44.5469 25.5125,44.625 25.325,44.8125 C24.8719,45.2969 24.8719,45.2969 24.6844,45.3906 C24.2625,45.6563 23.575,45.7813 22.8094,45.7813 C20.7625,45.7813 19.4656,44.6875 19.4656,42.9844 L19.4656,41.8906 C19.4656,40.1094 20.7156,38.7969 22.45,38.7969 C23.0281,38.7969 23.6375,38.9531 24.1063,39.2031 C24.5906,39.4844 24.7625,39.7031 24.8563,40.1094 C24.9188,40.5156 24.95,40.6406 25.0906,40.7656 C25.2313,40.9063 25.4656,41.0156 25.6844,41.0156 C25.95,41.0156 26.2156,40.875 26.3875,40.6563 C26.4969,40.5 26.5281,40.3125 26.5281,39.8906 L26.5281,38.4688 C26.5281,38.0313 26.5125,37.9063 26.4188,37.75 C26.2625,37.4844 25.9813,37.3438 25.6844,37.3438 C25.3875,37.3438 25.1844,37.4375 24.9656,37.75 L24.7938,37.6719 Z " fill="#000000"/><text fill="#000000" font-family="sans-serif" font-size="12" lengthAdjust="spacing" textLength="128" x="36.55" y="46.1543">HamiltonianCycleTest</text><line style="stroke:#A80036;stroke-width:1.5;" x1="8" x2="167" y1="58" y2="58"/><line style="stroke:#A80036;stroke-width:1.5;" x1="8" x2="167" y1="66" y2="66"/><text fill="#000000" font-family="sans-serif" font-size="11" lengthAdjust="spacing" textLength="149" x="13" y="80.2104">+getCycle(graph, country)</text><!--MD5=[deb4e1f6eb1e3c1256fdb830f96abfbb]
class Country--><rect codeLine="19" fill="#FEFECE" filter="url(#fw3obx0zd59af)" height="99.2188" id="Country" style="stroke:#A80036;stroke-width:1.5;" width="82" x="1146" y="7"/><ellipse cx="1162.8" cy="23" fill="#ADD1B2" rx="11" ry="11" style="stroke:#A80036;stroke-width:1.0;"/><path d="M1165.1438,18.6719 C1164.2063,18.2344 1163.6125,18.0938 1162.7375,18.0938 C1160.1125,18.0938 1158.1125,20.1719 1158.1125,22.8906 L1158.1125,24.0156 C1158.1125,26.5938 1160.2219,28.4844 1163.1125,28.4844 C1164.3313,28.4844 1165.4875,28.1875 1166.2375,27.6406 C1166.8156,27.2344 1167.1438,26.7813 1167.1438,26.3906 C1167.1438,25.9375 1166.7531,25.5469 1166.2844,25.5469 C1166.0656,25.5469 1165.8625,25.625 1165.675,25.8125 C1165.2219,26.2969 1165.2219,26.2969 1165.0344,26.3906 C1164.6125,26.6563 1163.925,26.7813 1163.1594,26.7813 C1161.1125,26.7813 1159.8156,25.6875 1159.8156,23.9844 L1159.8156,22.8906 C1159.8156,21.1094 1161.0656,19.7969 1162.8,19.7969 C1163.3781,19.7969 1163.9875,19.9531 1164.4563,20.2031 C1164.9406,20.4844 1165.1125,20.7031 1165.2063,21.1094 C1165.2688,21.5156 1165.3,21.6406 1165.4406,21.7656 C1165.5813,21.9063 1165.8156,22.0156 1166.0344,22.0156 C1166.3,22.0156 1166.5656,21.875 1166.7375,21.6563 C1166.8469,21.5 1166.8781,21.3125 1166.8781,20.8906 L1166.8781,19.4688 C1166.8781,19.0313 1166.8625,18.9063 1166.7688,18.75 C1166.6125,18.4844 1166.3313,18.3438 1166.0344,18.3438 C1165.7375,18.3438 1165.5344,18.4375 1165.3156,18.75 L1165.1438,18.6719 Z " fill="#000000"/><text fill="#000000" font-family="sans-serif" font-size="12" lengthAdjust="spacing" textLength="46" x="1177.2" y="27.1543">Country</text><line style="stroke:#A80036;stroke-width:1.5;" x1="1147" x2="1227" y1="39" y2="39"/><text fill="#000000" font-family="sans-serif" font-size="11" lengthAdjust="spacing" textLength="57" x="1152" y="53.2104">-continent</text><text fill="#000000" font-family="sans-serif" font-size="11" lengthAdjust="spacing" textLength="37" x="1152" y="66.0151">-name</text><text fill="#000000" font-family="sans-serif" font-size="11" lengthAdjust="spacing" textLength="70" x="1152" y="78.8198">-alpha2code</text><text fill="#000000" font-family="sans-serif" font-size="11" lengthAdjust="spacing" textLength="9" x="1152" y="91.6245">...</text><line style="stroke:#A80036;stroke-width:1.5;" x1="1147" x2="1227" y1="98.2188" y2="98.2188"/><!--MD5=[da389338cd0e20841e6ed93cc9ce4931]
link HamiltonianCycleTest to HamiltonianCycle--><path codeLine="26" d="M168.154,56.5 C184.525,56.5 202.729,56.5 222.084,56.5 " fill="none" id="HamiltonianCycleTest-to-HamiltonianCycle" style="stroke:#A80036;stroke-width:1.0;"/><polygon fill="#A80036" points="227.574,56.5,218.574,52.5,222.574,56.5,218.574,60.5,227.574,56.5" style="stroke:#A80036;stroke-width:1.0;"/><!--MD5=[7c513cc5a0f1a1fe7c8e30b4ab001ec0]
link HamiltonianCycle to GraphLocation--><path codeLine="27" d="M906.122,56.5 C926.02,56.5 944.465,56.5 960.599,56.5 " fill="none" id="HamiltonianCycle-to-GraphLocation" style="stroke:#A80036;stroke-width:1.0;"/><polygon fill="#A80036" points="965.981,56.5,956.981,52.5,960.981,56.5,956.981,60.5,965.981,56.5" style="stroke:#A80036;stroke-width:1.0;"/><!--MD5=[5fffc172d5a2328539d4f6b325bfb5aa]
link GraphLocation to Country--><path codeLine="28" d="M1086.21,56.5 C1104.13,56.5 1123.53,56.5 1140.41,56.5 " fill="none" id="GraphLocation-to-Country" style="stroke:#A80036;stroke-width:1.0;stroke-dasharray:7.0,7.0;"/><polygon fill="#A80036" points="1145.57,56.5,1136.57,52.5,1140.57,56.5,1136.57,60.5,1145.57,56.5" style="stroke:#A80036;stroke-width:1.0;"/><!--MD5=[c952cb713f2dc971c02acdce63872a2c]
@startuml
skinparam classAttributeIconSize 0
left to right direction

class HamiltonianCycle{
  +findCycle(Graph<GraphLocation, Double> graph, int startVertex)
  -solve(Graph<GraphLocation, Double> graph, GraphLocation vertex)
  -getVertMinDist(Graph<GraphLocation, Double> graph, double[] dist, boolean[] visited, GraphLocation vIntermedium)
  -displayCycle()
}

Interface GraphLocation {
 +getName()
}

class HamiltonianCycleTest{
  +getCycle(graph, country)
}

class Country{
-continent
-name
-alpha2code
...
}

HamiltonianCycleTest- ->  HamiltonianCycle
HamiltonianCycle- -> GraphLocation
GraphLocation ..> Country
@enduml

PlantUML version 1.2022.1beta4(Unknown compile time)
(GPL source distribution)
Java Runtime: Java(TM) SE Runtime Environment
JVM: Java HotSpot(TM) 64-Bit Server VM
Default Encoding: UTF-8
Language: en
Country: US
--></g></svg>