<?xml version="1.0" encoding="UTF-8" standalone="no"?><svg xmlns="http://www.w3.org/2000/svg" xmlns:xlink="http://www.w3.org/1999/xlink" contentScriptType="application/ecmascript" contentStyleType="text/css" height="374px" preserveAspectRatio="none" style="width:1108px;height:374px;background:#FFFFFF;" version="1.1" viewBox="0 0 1108 374" width="1108px" zoomAndPan="magnify"><defs><filter height="300%" id="f1hf8v93xhvkva" width="300%" x="-1" y="-1"><feGaussianBlur result="blurOut" stdDeviation="2.0"/><feColorMatrix in="blurOut" result="blurOut2" type="matrix" values="0 0 0 0 0 0 0 0 0 0 0 0 0 0 0 0 0 0 .4 0"/><feOffset dx="4.0" dy="4.0" in="blurOut2" result="blurOut3"/><feBlend in="SourceGraphic" in2="blurOut3" mode="normal"/></filter></defs><g><!--MD5=[0dc7f2ddb409b58bcf52b12238c25399]
class Ship--><rect codeLine="3" fill="#FEFECE" filter="url(#f1hf8v93xhvkva)" height="188.8516" id="Ship" style="stroke:#A80036;stroke-width:1.5;" width="177" x="441" y="7.5"/><ellipse cx="512.25" cy="23.5" fill="#ADD1B2" rx="11" ry="11" style="stroke:#A80036;stroke-width:1.0;"/><path d="M514.5938,19.1719 C513.6563,18.7344 513.0625,18.5938 512.1875,18.5938 C509.5625,18.5938 507.5625,20.6719 507.5625,23.3906 L507.5625,24.5156 C507.5625,27.0938 509.6719,28.9844 512.5625,28.9844 C513.7813,28.9844 514.9375,28.6875 515.6875,28.1406 C516.2656,27.7344 516.5938,27.2813 516.5938,26.8906 C516.5938,26.4375 516.2031,26.0469 515.7344,26.0469 C515.5156,26.0469 515.3125,26.125 515.125,26.3125 C514.6719,26.7969 514.6719,26.7969 514.4844,26.8906 C514.0625,27.1563 513.375,27.2813 512.6094,27.2813 C510.5625,27.2813 509.2656,26.1875 509.2656,24.4844 L509.2656,23.3906 C509.2656,21.6094 510.5156,20.2969 512.25,20.2969 C512.8281,20.2969 513.4375,20.4531 513.9063,20.7031 C514.3906,20.9844 514.5625,21.2031 514.6563,21.6094 C514.7188,22.0156 514.75,22.1406 514.8906,22.2656 C515.0313,22.4063 515.2656,22.5156 515.4844,22.5156 C515.75,22.5156 516.0156,22.375 516.1875,22.1563 C516.2969,22 516.3281,21.8125 516.3281,21.3906 L516.3281,19.9688 C516.3281,19.5313 516.3125,19.4063 516.2188,19.25 C516.0625,18.9844 515.7813,18.8438 515.4844,18.8438 C515.1875,18.8438 514.9844,18.9375 514.7656,19.25 L514.5938,19.1719 Z " fill="#000000"/><text fill="#000000" font-family="sans-serif" font-size="12" lengthAdjust="spacing" textLength="26" x="532.75" y="27.6543">Ship</text><line style="stroke:#A80036;stroke-width:1.5;" x1="442" x2="617" y1="39.5" y2="39.5"/><text fill="#000000" font-family="sans-serif" font-size="11" lengthAdjust="spacing" textLength="33" x="447" y="53.7104">-MMSI</text><text fill="#000000" font-family="sans-serif" font-size="11" lengthAdjust="spacing" textLength="37" x="447" y="66.5151">-name</text><text fill="#000000" font-family="sans-serif" font-size="11" lengthAdjust="spacing" textLength="81" x="447" y="79.3198">-IMOIDnumber</text><text fill="#000000" font-family="sans-serif" font-size="11" lengthAdjust="spacing" textLength="165" x="447" y="92.1245">-numberOfEnergyGenerators</text><text fill="#000000" font-family="sans-serif" font-size="11" lengthAdjust="spacing" textLength="132" x="447" y="104.9292">-generatorPowerOutput</text><text fill="#000000" font-family="sans-serif" font-size="11" lengthAdjust="spacing" textLength="48" x="447" y="117.7339">-callSign</text><text fill="#000000" font-family="sans-serif" font-size="11" lengthAdjust="spacing" textLength="101" x="447" y="130.5386">-vesselTypeCode</text><text fill="#000000" font-family="sans-serif" font-size="11" lengthAdjust="spacing" textLength="34" x="447" y="143.3433">-width</text><text fill="#000000" font-family="sans-serif" font-size="11" lengthAdjust="spacing" textLength="40" x="447" y="156.1479">-length</text><text fill="#000000" font-family="sans-serif" font-size="11" lengthAdjust="spacing" textLength="51" x="447" y="168.9526">-capacity</text><text fill="#000000" font-family="sans-serif" font-size="11" lengthAdjust="spacing" textLength="30" x="447" y="181.7573">-draft</text><line style="stroke:#A80036;stroke-width:1.5;" x1="442" x2="617" y1="188.3516" y2="188.3516"/><!--MD5=[e6b394b930674b2255938b8afe6bb7b4]
class ShipCaptain--><rect codeLine="17" fill="#FEFECE" filter="url(#f1hf8v93xhvkva)" height="73.6094" id="ShipCaptain" style="stroke:#A80036;stroke-width:1.5;" width="102" x="7" y="7"/><ellipse cx="22" cy="23" fill="#ADD1B2" rx="11" ry="11" style="stroke:#A80036;stroke-width:1.0;"/><path d="M24.3438,18.6719 C23.4063,18.2344 22.8125,18.0938 21.9375,18.0938 C19.3125,18.0938 17.3125,20.1719 17.3125,22.8906 L17.3125,24.0156 C17.3125,26.5938 19.4219,28.4844 22.3125,28.4844 C23.5313,28.4844 24.6875,28.1875 25.4375,27.6406 C26.0156,27.2344 26.3438,26.7813 26.3438,26.3906 C26.3438,25.9375 25.9531,25.5469 25.4844,25.5469 C25.2656,25.5469 25.0625,25.625 24.875,25.8125 C24.4219,26.2969 24.4219,26.2969 24.2344,26.3906 C23.8125,26.6563 23.125,26.7813 22.3594,26.7813 C20.3125,26.7813 19.0156,25.6875 19.0156,23.9844 L19.0156,22.8906 C19.0156,21.1094 20.2656,19.7969 22,19.7969 C22.5781,19.7969 23.1875,19.9531 23.6563,20.2031 C24.1406,20.4844 24.3125,20.7031 24.4063,21.1094 C24.4688,21.5156 24.5,21.6406 24.6406,21.7656 C24.7813,21.9063 25.0156,22.0156 25.2344,22.0156 C25.5,22.0156 25.7656,21.875 25.9375,21.6563 C26.0469,21.5 26.0781,21.3125 26.0781,20.8906 L26.0781,19.4688 C26.0781,19.0313 26.0625,18.9063 25.9688,18.75 C25.8125,18.4844 25.5313,18.3438 25.2344,18.3438 C24.9375,18.3438 24.7344,18.4375 24.5156,18.75 L24.3438,18.6719 Z " fill="#000000"/><text fill="#000000" font-family="sans-serif" font-size="12" lengthAdjust="spacing" textLength="70" x="36" y="27.1543">ShipCaptain</text><line style="stroke:#A80036;stroke-width:1.5;" x1="8" x2="108" y1="39" y2="39"/><text fill="#000000" font-family="sans-serif" font-size="11" lengthAdjust="spacing" textLength="41" x="13" y="53.2104">-userID</text><text fill="#000000" font-family="sans-serif" font-size="11" lengthAdjust="spacing" textLength="37" x="13" y="66.0151">-name</text><line style="stroke:#A80036;stroke-width:1.5;" x1="8" x2="108" y1="72.6094" y2="72.6094"/><!--MD5=[19c2b9eb46691e25b02426140995a460]
class ShipDynamic--><rect codeLine="21" fill="#FEFECE" filter="url(#f1hf8v93xhvkva)" height="150.4375" id="ShipDynamic" style="stroke:#A80036;stroke-width:1.5;" width="110" x="984" y="113"/><ellipse cx="999.45" cy="129" fill="#ADD1B2" rx="11" ry="11" style="stroke:#A80036;stroke-width:1.0;"/><path d="M1001.7938,124.6719 C1000.8563,124.2344 1000.2625,124.0938 999.3875,124.0938 C996.7625,124.0938 994.7625,126.1719 994.7625,128.8906 L994.7625,130.0156 C994.7625,132.5938 996.8719,134.4844 999.7625,134.4844 C1000.9813,134.4844 1002.1375,134.1875 1002.8875,133.6406 C1003.4656,133.2344 1003.7938,132.7813 1003.7938,132.3906 C1003.7938,131.9375 1003.4031,131.5469 1002.9344,131.5469 C1002.7156,131.5469 1002.5125,131.625 1002.325,131.8125 C1001.8719,132.2969 1001.8719,132.2969 1001.6844,132.3906 C1001.2625,132.6563 1000.575,132.7813 999.8094,132.7813 C997.7625,132.7813 996.4656,131.6875 996.4656,129.9844 L996.4656,128.8906 C996.4656,127.1094 997.7156,125.7969 999.45,125.7969 C1000.0281,125.7969 1000.6375,125.9531 1001.1063,126.2031 C1001.5906,126.4844 1001.7625,126.7031 1001.8563,127.1094 C1001.9188,127.5156 1001.95,127.6406 1002.0906,127.7656 C1002.2313,127.9063 1002.4656,128.0156 1002.6844,128.0156 C1002.95,128.0156 1003.2156,127.875 1003.3875,127.6563 C1003.4969,127.5 1003.5281,127.3125 1003.5281,126.8906 L1003.5281,125.4688 C1003.5281,125.0313 1003.5125,124.9063 1003.4188,124.75 C1003.2625,124.4844 1002.9813,124.3438 1002.6844,124.3438 C1002.3875,124.3438 1002.1844,124.4375 1001.9656,124.75 L1001.7938,124.6719 Z " fill="#000000"/><text fill="#000000" font-family="sans-serif" font-size="12" lengthAdjust="spacing" textLength="77" x="1013.55" y="133.1543">ShipDynamic</text><line style="stroke:#A80036;stroke-width:1.5;" x1="985" x2="1093" y1="145" y2="145"/><text fill="#000000" font-family="sans-serif" font-size="11" lengthAdjust="spacing" textLength="89" x="990" y="159.2104">-baseDateTime</text><text fill="#000000" font-family="sans-serif" font-size="11" lengthAdjust="spacing" textLength="47" x="990" y="172.0151">-latitude</text><text fill="#000000" font-family="sans-serif" font-size="11" lengthAdjust="spacing" textLength="57" x="990" y="184.8198">-longitude</text><text fill="#000000" font-family="sans-serif" font-size="11" lengthAdjust="spacing" textLength="30" x="990" y="197.6245">-SOG</text><text fill="#000000" font-family="sans-serif" font-size="11" lengthAdjust="spacing" textLength="30" x="990" y="210.4292">-COG</text><text fill="#000000" font-family="sans-serif" font-size="11" lengthAdjust="spacing" textLength="50" x="990" y="223.2339">-heading</text><text fill="#000000" font-family="sans-serif" font-size="11" lengthAdjust="spacing" textLength="48" x="990" y="236.0386">-position</text><text fill="#000000" font-family="sans-serif" font-size="11" lengthAdjust="spacing" textLength="98" x="990" y="248.8433">-transceiverClass</text><line style="stroke:#A80036;stroke-width:1.5;" x1="985" x2="1093" y1="255.4375" y2="255.4375"/><!--MD5=[82dc263f563d227779ba81db65b2fd4d]
class Identification--><rect codeLine="32" fill="#FEFECE" filter="url(#f1hf8v93xhvkva)" height="99.2188" id="Identification" style="stroke:#A80036;stroke-width:1.5;" width="108" x="747" y="23.5"/><ellipse cx="762" cy="39.5" fill="#ADD1B2" rx="11" ry="11" style="stroke:#A80036;stroke-width:1.0;"/><path d="M764.3438,35.1719 C763.4063,34.7344 762.8125,34.5938 761.9375,34.5938 C759.3125,34.5938 757.3125,36.6719 757.3125,39.3906 L757.3125,40.5156 C757.3125,43.0938 759.4219,44.9844 762.3125,44.9844 C763.5313,44.9844 764.6875,44.6875 765.4375,44.1406 C766.0156,43.7344 766.3438,43.2813 766.3438,42.8906 C766.3438,42.4375 765.9531,42.0469 765.4844,42.0469 C765.2656,42.0469 765.0625,42.125 764.875,42.3125 C764.4219,42.7969 764.4219,42.7969 764.2344,42.8906 C763.8125,43.1563 763.125,43.2813 762.3594,43.2813 C760.3125,43.2813 759.0156,42.1875 759.0156,40.4844 L759.0156,39.3906 C759.0156,37.6094 760.2656,36.2969 762,36.2969 C762.5781,36.2969 763.1875,36.4531 763.6563,36.7031 C764.1406,36.9844 764.3125,37.2031 764.4063,37.6094 C764.4688,38.0156 764.5,38.1406 764.6406,38.2656 C764.7813,38.4063 765.0156,38.5156 765.2344,38.5156 C765.5,38.5156 765.7656,38.375 765.9375,38.1563 C766.0469,38 766.0781,37.8125 766.0781,37.3906 L766.0781,35.9688 C766.0781,35.5313 766.0625,35.4063 765.9688,35.25 C765.8125,34.9844 765.5313,34.8438 765.2344,34.8438 C764.9375,34.8438 764.7344,34.9375 764.5156,35.25 L764.3438,35.1719 Z " fill="#000000"/><text fill="#000000" font-family="sans-serif" font-size="12" lengthAdjust="spacing" textLength="76" x="776" y="43.6543">Identification</text><line style="stroke:#A80036;stroke-width:1.5;" x1="748" x2="854" y1="55.5" y2="55.5"/><text fill="#000000" font-family="sans-serif" font-size="11" lengthAdjust="spacing" textLength="35" x="753" y="69.7104">-mmsi</text><text fill="#000000" font-family="sans-serif" font-size="11" lengthAdjust="spacing" textLength="61" x="753" y="82.5151">-shipName</text><text fill="#000000" font-family="sans-serif" font-size="11" lengthAdjust="spacing" textLength="48" x="753" y="95.3198">-callSign</text><text fill="#000000" font-family="sans-serif" font-size="11" lengthAdjust="spacing" textLength="37" x="753" y="108.1245">-imoID</text><line style="stroke:#A80036;stroke-width:1.5;" x1="748" x2="854" y1="114.7188" y2="114.7188"/><!--MD5=[2523412913e10183997a259215d888d9]
class Characteristics--><rect codeLine="39" fill="#FEFECE" filter="url(#f1hf8v93xhvkva)" height="112.0234" id="Characteristics" style="stroke:#A80036;stroke-width:1.5;" width="121" x="469" y="248"/><ellipse cx="484" cy="264" fill="#ADD1B2" rx="11" ry="11" style="stroke:#A80036;stroke-width:1.0;"/><path d="M486.3438,259.6719 C485.4063,259.2344 484.8125,259.0938 483.9375,259.0938 C481.3125,259.0938 479.3125,261.1719 479.3125,263.8906 L479.3125,265.0156 C479.3125,267.5938 481.4219,269.4844 484.3125,269.4844 C485.5313,269.4844 486.6875,269.1875 487.4375,268.6406 C488.0156,268.2344 488.3438,267.7813 488.3438,267.3906 C488.3438,266.9375 487.9531,266.5469 487.4844,266.5469 C487.2656,266.5469 487.0625,266.625 486.875,266.8125 C486.4219,267.2969 486.4219,267.2969 486.2344,267.3906 C485.8125,267.6563 485.125,267.7813 484.3594,267.7813 C482.3125,267.7813 481.0156,266.6875 481.0156,264.9844 L481.0156,263.8906 C481.0156,262.1094 482.2656,260.7969 484,260.7969 C484.5781,260.7969 485.1875,260.9531 485.6563,261.2031 C486.1406,261.4844 486.3125,261.7031 486.4063,262.1094 C486.4688,262.5156 486.5,262.6406 486.6406,262.7656 C486.7813,262.9063 487.0156,263.0156 487.2344,263.0156 C487.5,263.0156 487.7656,262.875 487.9375,262.6563 C488.0469,262.5 488.0781,262.3125 488.0781,261.8906 L488.0781,260.4688 C488.0781,260.0313 488.0625,259.9063 487.9688,259.75 C487.8125,259.4844 487.5313,259.3438 487.2344,259.3438 C486.9375,259.3438 486.7344,259.4375 486.5156,259.75 L486.3438,259.6719 Z " fill="#000000"/><text fill="#000000" font-family="sans-serif" font-size="12" lengthAdjust="spacing" textLength="89" x="498" y="268.1543">Characteristics</text><line style="stroke:#A80036;stroke-width:1.5;" x1="470" x2="589" y1="280" y2="280"/><text fill="#000000" font-family="sans-serif" font-size="11" lengthAdjust="spacing" textLength="71" x="475" y="294.2104">-vesselType</text><text fill="#000000" font-family="sans-serif" font-size="11" lengthAdjust="spacing" textLength="40" x="475" y="307.0151">-lenght</text><text fill="#000000" font-family="sans-serif" font-size="11" lengthAdjust="spacing" textLength="34" x="475" y="319.8198">-width</text><text fill="#000000" font-family="sans-serif" font-size="11" lengthAdjust="spacing" textLength="51" x="475" y="332.6245">-capacity</text><text fill="#000000" font-family="sans-serif" font-size="11" lengthAdjust="spacing" textLength="30" x="475" y="345.4292">-draft</text><line style="stroke:#A80036;stroke-width:1.5;" x1="470" x2="589" y1="352.0234" y2="352.0234"/><!--MD5=[76562047389981627aea27c31a97aff5]
class CargoManifest--><rect codeLine="47" fill="#FEFECE" filter="url(#f1hf8v93xhvkva)" height="60.8047" id="CargoManifest" style="stroke:#A80036;stroke-width:1.5;" width="118" x="214" y="13.5"/><ellipse cx="229" cy="29.5" fill="#ADD1B2" rx="11" ry="11" style="stroke:#A80036;stroke-width:1.0;"/><path d="M231.3438,25.1719 C230.4063,24.7344 229.8125,24.5938 228.9375,24.5938 C226.3125,24.5938 224.3125,26.6719 224.3125,29.3906 L224.3125,30.5156 C224.3125,33.0938 226.4219,34.9844 229.3125,34.9844 C230.5313,34.9844 231.6875,34.6875 232.4375,34.1406 C233.0156,33.7344 233.3438,33.2813 233.3438,32.8906 C233.3438,32.4375 232.9531,32.0469 232.4844,32.0469 C232.2656,32.0469 232.0625,32.125 231.875,32.3125 C231.4219,32.7969 231.4219,32.7969 231.2344,32.8906 C230.8125,33.1563 230.125,33.2813 229.3594,33.2813 C227.3125,33.2813 226.0156,32.1875 226.0156,30.4844 L226.0156,29.3906 C226.0156,27.6094 227.2656,26.2969 229,26.2969 C229.5781,26.2969 230.1875,26.4531 230.6563,26.7031 C231.1406,26.9844 231.3125,27.2031 231.4063,27.6094 C231.4688,28.0156 231.5,28.1406 231.6406,28.2656 C231.7813,28.4063 232.0156,28.5156 232.2344,28.5156 C232.5,28.5156 232.7656,28.375 232.9375,28.1563 C233.0469,28 233.0781,27.8125 233.0781,27.3906 L233.0781,25.9688 C233.0781,25.5313 233.0625,25.4063 232.9688,25.25 C232.8125,24.9844 232.5313,24.8438 232.2344,24.8438 C231.9375,24.8438 231.7344,24.9375 231.5156,25.25 L231.3438,25.1719 Z " fill="#000000"/><text fill="#000000" font-family="sans-serif" font-size="12" lengthAdjust="spacing" textLength="86" x="243" y="33.6543">CargoManifest</text><line style="stroke:#A80036;stroke-width:1.5;" x1="215" x2="331" y1="45.5" y2="45.5"/><text fill="#000000" font-family="sans-serif" font-size="11" lengthAdjust="spacing" textLength="35" x="220" y="59.7104">-cargo</text><line style="stroke:#A80036;stroke-width:1.5;" x1="215" x2="331" y1="66.3047" y2="66.3047"/><!--MD5=[fc92a9f5bb5fae84dd7fa4034e6b4444]
class Route--><rect codeLine="51" fill="#FEFECE" filter="url(#f1hf8v93xhvkva)" height="60.8047" id="Route" style="stroke:#A80036;stroke-width:1.5;" width="66" x="768" y="157.5"/><ellipse cx="783" cy="173.5" fill="#ADD1B2" rx="11" ry="11" style="stroke:#A80036;stroke-width:1.0;"/><path d="M785.3438,169.1719 C784.4063,168.7344 783.8125,168.5938 782.9375,168.5938 C780.3125,168.5938 778.3125,170.6719 778.3125,173.3906 L778.3125,174.5156 C778.3125,177.0938 780.4219,178.9844 783.3125,178.9844 C784.5313,178.9844 785.6875,178.6875 786.4375,178.1406 C787.0156,177.7344 787.3438,177.2813 787.3438,176.8906 C787.3438,176.4375 786.9531,176.0469 786.4844,176.0469 C786.2656,176.0469 786.0625,176.125 785.875,176.3125 C785.4219,176.7969 785.4219,176.7969 785.2344,176.8906 C784.8125,177.1563 784.125,177.2813 783.3594,177.2813 C781.3125,177.2813 780.0156,176.1875 780.0156,174.4844 L780.0156,173.3906 C780.0156,171.6094 781.2656,170.2969 783,170.2969 C783.5781,170.2969 784.1875,170.4531 784.6563,170.7031 C785.1406,170.9844 785.3125,171.2031 785.4063,171.6094 C785.4688,172.0156 785.5,172.1406 785.6406,172.2656 C785.7813,172.4063 786.0156,172.5156 786.2344,172.5156 C786.5,172.5156 786.7656,172.375 786.9375,172.1563 C787.0469,172 787.0781,171.8125 787.0781,171.3906 L787.0781,169.9688 C787.0781,169.5313 787.0625,169.4063 786.9688,169.25 C786.8125,168.9844 786.5313,168.8438 786.2344,168.8438 C785.9375,168.8438 785.7344,168.9375 785.5156,169.25 L785.3438,169.1719 Z " fill="#000000"/><text fill="#000000" font-family="sans-serif" font-size="12" lengthAdjust="spacing" textLength="34" x="797" y="177.6543">Route</text><line style="stroke:#A80036;stroke-width:1.5;" x1="769" x2="833" y1="189.5" y2="189.5"/><text fill="#000000" font-family="sans-serif" font-size="11" lengthAdjust="spacing" textLength="46" x="774" y="203.7104">-routeID</text><line style="stroke:#A80036;stroke-width:1.5;" x1="769" x2="833" y1="210.3047" y2="210.3047"/><!--MD5=[02e4b9b7573f1156f41e60aa5b4e25a4]
class Company--><rect codeLine="55" fill="#FEFECE" filter="url(#f1hf8v93xhvkva)" height="60.8047" id="Company" style="stroke:#A80036;stroke-width:1.5;" width="88" x="229" y="109.5"/><ellipse cx="244" cy="125.5" fill="#ADD1B2" rx="11" ry="11" style="stroke:#A80036;stroke-width:1.0;"/><path d="M246.3438,121.1719 C245.4063,120.7344 244.8125,120.5938 243.9375,120.5938 C241.3125,120.5938 239.3125,122.6719 239.3125,125.3906 L239.3125,126.5156 C239.3125,129.0938 241.4219,130.9844 244.3125,130.9844 C245.5313,130.9844 246.6875,130.6875 247.4375,130.1406 C248.0156,129.7344 248.3438,129.2813 248.3438,128.8906 C248.3438,128.4375 247.9531,128.0469 247.4844,128.0469 C247.2656,128.0469 247.0625,128.125 246.875,128.3125 C246.4219,128.7969 246.4219,128.7969 246.2344,128.8906 C245.8125,129.1563 245.125,129.2813 244.3594,129.2813 C242.3125,129.2813 241.0156,128.1875 241.0156,126.4844 L241.0156,125.3906 C241.0156,123.6094 242.2656,122.2969 244,122.2969 C244.5781,122.2969 245.1875,122.4531 245.6563,122.7031 C246.1406,122.9844 246.3125,123.2031 246.4063,123.6094 C246.4688,124.0156 246.5,124.1406 246.6406,124.2656 C246.7813,124.4063 247.0156,124.5156 247.2344,124.5156 C247.5,124.5156 247.7656,124.375 247.9375,124.1563 C248.0469,124 248.0781,123.8125 248.0781,123.3906 L248.0781,121.9688 C248.0781,121.5313 248.0625,121.4063 247.9688,121.25 C247.8125,120.9844 247.5313,120.8438 247.2344,120.8438 C246.9375,120.8438 246.7344,120.9375 246.5156,121.25 L246.3438,121.1719 Z " fill="#000000"/><text fill="#000000" font-family="sans-serif" font-size="12" lengthAdjust="spacing" textLength="56" x="258" y="129.6543">Company</text><line style="stroke:#A80036;stroke-width:1.5;" x1="230" x2="316" y1="141.5" y2="141.5"/><text fill="#000000" font-family="sans-serif" font-size="11" lengthAdjust="spacing" textLength="70" x="235" y="155.7104">-designation</text><line style="stroke:#A80036;stroke-width:1.5;" x1="230" x2="316" y1="162.3047" y2="162.3047"/><!--MD5=[0235fc0fb671e7d065092a49e0fba271]
link ShipCaptain to CargoManifest--><path codeLine="60" d="M109.208,44 C138.979,44 176.984,44 208.785,44 " fill="none" id="ShipCaptain-to-CargoManifest" style="stroke:#A80036;stroke-width:1.0;"/><polygon fill="#A80036" points="213.834,44,204.834,40,208.834,44,204.834,48,213.834,44" style="stroke:#A80036;stroke-width:1.0;"/><polygon fill="#000000" points="149,35.5664,139.9549,32.6275,139.9549,38.5053,149,35.5664" style="stroke:#000000;stroke-width:1.0;"/><text fill="#000000" font-family="sans-serif" font-size="13" lengthAdjust="spacing" textLength="30" x="153" y="40.0669">uses</text><text fill="#000000" font-family="sans-serif" font-size="13" lengthAdjust="spacing" textLength="8" x="116.9716" y="57.1584">1</text><text fill="#000000" font-family="sans-serif" font-size="13" lengthAdjust="spacing" textLength="23" x="183.1049" y="56.9052">1..*</text><!--MD5=[495fae50e5964e36f0a771ac5477efc8]
link CargoManifest to Ship--><path codeLine="61" d="M332.068,57.234 C362.691,64.212 400.993,72.941 435.623,80.834 " fill="none" id="CargoManifest-to-Ship" style="stroke:#A80036;stroke-width:1.0;"/><polygon fill="#A80036" points="440.705,81.992,432.8191,76.0918,435.8301,80.8807,431.0411,83.8917,440.705,81.992" style="stroke:#A80036;stroke-width:1.0;"/><text fill="#000000" font-family="sans-serif" font-size="13" lengthAdjust="spacing" textLength="23" x="375" y="60.0669">of&gt;</text><text fill="#000000" font-family="sans-serif" font-size="13" lengthAdjust="spacing" textLength="8" x="340.1486" y="71.9785">1</text><text fill="#000000" font-family="sans-serif" font-size="13" lengthAdjust="spacing" textLength="23" x="410.0262" y="93.112">1..*</text><!--MD5=[bd668f20969913e971975f69d50ab766]
link Ship to Route--><path codeLine="62" d="M618.371,130.041 C667.324,145.662 725.706,164.292 762.812,176.133 " fill="none" id="Ship-to-Route" style="stroke:#A80036;stroke-width:1.0;"/><polygon fill="#A80036" points="767.679,177.686,760.3212,171.1391,762.9157,176.1659,757.8889,178.7604,767.679,177.686" style="stroke:#A80036;stroke-width:1.0;"/><polygon fill="#000000" points="673.2634,132.0864,665.5398,126.5369,663.7529,132.1365,673.2634,132.0864" style="stroke:#000000;stroke-width:1.0;"/><text fill="#000000" font-family="sans-serif" font-size="13" lengthAdjust="spacing" textLength="23" x="677.5" y="135.0669">has</text><text fill="#000000" font-family="sans-serif" font-size="13" lengthAdjust="spacing" textLength="8" x="626.0619" y="145.0628">1</text><text fill="#000000" font-family="sans-serif" font-size="13" lengthAdjust="spacing" textLength="23" x="736.9754" y="189.2974">1..*</text><!--MD5=[777bd18e7fd60fc9f8777acca57a952c]
link Ship to Characteristics--><path codeLine="63" d="M529.5,196.877 C529.5,212.462 529.5,228.242 529.5,242.725 " fill="none" id="Ship-to-Characteristics" style="stroke:#A80036;stroke-width:1.0;"/><polygon fill="#A80036" points="529.5,248,533.5,239,529.5,243,525.5,239,529.5,248" style="stroke:#A80036;stroke-width:1.0;"/><polygon fill="#000000" points="488.5,227.3164,491.4389,218.2713,485.5611,218.2713,488.5,227.3164" style="stroke:#000000;stroke-width:1.0;"/><text fill="#000000" font-family="sans-serif" font-size="13" lengthAdjust="spacing" textLength="54" x="497.5" y="226.8169">contains</text><text fill="#000000" font-family="sans-serif" font-size="13" lengthAdjust="spacing" textLength="8" x="521.2063" y="216.4725">1</text><text fill="#000000" font-family="sans-serif" font-size="13" lengthAdjust="spacing" textLength="8" x="520.9875" y="236.938">1</text><!--MD5=[b548f9cab810c886ef8d517236ce8553]
link Ship to Identification--><path codeLine="64" d="M618.371,92.544 C658.779,88.196 705.611,83.157 741.599,79.284 " fill="none" id="Ship-to-Identification" style="stroke:#A80036;stroke-width:1.0;"/><polygon fill="#A80036" points="746.828,78.722,737.4521,75.7066,741.8566,79.2563,738.307,83.6608,746.828,78.722" style="stroke:#A80036;stroke-width:1.0;"/><polygon fill="#000000" points="657.9713,73.0315,648.6637,71.0771,649.2926,76.9212,657.9713,73.0315" style="stroke:#000000;stroke-width:1.0;"/><text fill="#000000" font-family="sans-serif" font-size="13" lengthAdjust="spacing" textLength="54" x="662" y="78.0669">contains</text><text fill="#000000" font-family="sans-serif" font-size="13" lengthAdjust="spacing" textLength="8" x="626.0619" y="104.4606">1</text><text fill="#000000" font-family="sans-serif" font-size="13" lengthAdjust="spacing" textLength="8" x="731.0111" y="92.5598">1</text><!--MD5=[6e2bf1b581922c3b45ac635d439704bd]
link Route to ShipDynamic--><path codeLine="65" d="M834.32,188 C871.394,188 932.95,188 978.705,188 " fill="none" id="Route-to-ShipDynamic" style="stroke:#A80036;stroke-width:1.0;"/><polygon fill="#A80036" points="983.923,188,974.923,184,978.923,188,974.923,192,983.923,188" style="stroke:#A80036;stroke-width:1.0;"/><polygon fill="#000000" points="895,179.5664,885.9549,176.6275,885.9549,182.5053,895,179.5664" style="stroke:#000000;stroke-width:1.0;"/><text fill="#000000" font-family="sans-serif" font-size="13" lengthAdjust="spacing" textLength="54" x="899" y="184.0669">contains</text><text fill="#000000" font-family="sans-serif" font-size="13" lengthAdjust="spacing" textLength="8" x="842.0173" y="201.6476">1</text><text fill="#000000" font-family="sans-serif" font-size="13" lengthAdjust="spacing" textLength="23" x="952.8089" y="200.9624">1..*</text><!--MD5=[37a14a5de6d6fd738aee271300f4b5c8]
link Company to Ship--><path codeLine="66" d="M317.294,135.715 C344.301,132.85 379.749,128.745 411,124 C418.986,122.787 427.26,121.435 435.55,120.013 " fill="none" id="Company-to-Ship" style="stroke:#A80036;stroke-width:1.0;"/><polygon fill="#A80036" points="440.711,119.12,431.1605,116.7141,435.7843,119.973,432.5254,124.5968,440.711,119.12" style="stroke:#A80036;stroke-width:1.0;"/><polygon fill="#000000" points="371.9565,114.9083,362.6033,113.1855,363.3769,119.0122,371.9565,114.9083" style="stroke:#000000;stroke-width:1.0;"/><text fill="#000000" font-family="sans-serif" font-size="13" lengthAdjust="spacing" textLength="34" x="376" y="120.0669">owns</text><text fill="#000000" font-family="sans-serif" font-size="13" lengthAdjust="spacing" textLength="8" x="324.9909" y="148.3204">1</text><text fill="#000000" font-family="sans-serif" font-size="13" lengthAdjust="spacing" textLength="23" x="410.0326" y="133.0826">1..*</text><!--MD5=[b5586bf4ee5dbbb166cf18555d980cdf]
@startuml
skinparam classAttributeIconSize 0
left to right direction
class Ship {
-MMSI
-name
-IMOIDnumber
-numberOfEnergyGenerators
-generatorPowerOutput
-callSign
-vesselTypeCode
-width
-length
-capacity
-draft
}

class ShipCaptain{
-userID
-name
}
class ShipDynamic{
-baseDateTime
-latitude
-longitude
-SOG
-COG
-heading
-position
-transceiverClass
}

class Identification{
-mmsi
-shipName
-callSign
-imoID
}

class Characteristics{
-vesselType
-lenght
-width
-capacity
-draft
}

class CargoManifest{
-cargo
}

class Route{
-routeID
}

class Company {
-designation
}


ShipCaptain "1" - -> "1..*" CargoManifest: uses >
CargoManifest "1" - -> "1..*" Ship: of>
Ship "1" - -> "1..*" Route : has >
Ship "1" -r-> "1" Characteristics: contains >
Ship "1" - -> "1" Identification: contains >
Route "1" - -> "1..*" ShipDynamic : contains >
Company"1" - -> "1..*" Ship : owns >
@enduml

PlantUML version 1.2021.15beta3(Unknown compile time)
(GPL source distribution)
Java Runtime: Java(TM) SE Runtime Environment
JVM: Java HotSpot(TM) 64-Bit Server VM
Default Encoding: UTF-8
Language: en
Country: US
--></g></svg>