<?xml version="1.0" encoding="UTF-8" standalone="no"?><svg xmlns="http://www.w3.org/2000/svg" xmlns:xlink="http://www.w3.org/1999/xlink" contentScriptType="application/ecmascript" contentStyleType="text/css" height="120px" preserveAspectRatio="none" style="width:1640px;height:120px;background:#FFFFFF;" version="1.1" viewBox="0 0 1640 120" width="1640px" zoomAndPan="magnify"><defs><filter height="300%" id="f1urqnejh19bkv" width="300%" x="-1" y="-1"><feGaussianBlur result="blurOut" stdDeviation="2.0"/><feColorMatrix in="blurOut" result="blurOut2" type="matrix" values="0 0 0 0 0 0 0 0 0 0 0 0 0 0 0 0 0 0 .4 0"/><feOffset dx="4.0" dy="4.0" in="blurOut2" result="blurOut3"/><feBlend in="SourceGraphic" in2="blurOut3" mode="normal"/></filter></defs><g><!--MD5=[747ab85aa750c194347df157b73d0de3]
class ContainerDB--><rect codeLine="6" fill="#FEFECE" filter="url(#f1urqnejh19bkv)" height="99.2188" id="ContainerDB" style="stroke:#A80036;stroke-width:1.5;" width="623" x="1003" y="7"/><ellipse cx="1273.25" cy="23" fill="#ADD1B2" rx="11" ry="11" style="stroke:#A80036;stroke-width:1.0;"/><path d="M1275.5938,18.6719 C1274.6563,18.2344 1274.0625,18.0938 1273.1875,18.0938 C1270.5625,18.0938 1268.5625,20.1719 1268.5625,22.8906 L1268.5625,24.0156 C1268.5625,26.5938 1270.6719,28.4844 1273.5625,28.4844 C1274.7813,28.4844 1275.9375,28.1875 1276.6875,27.6406 C1277.2656,27.2344 1277.5938,26.7813 1277.5938,26.3906 C1277.5938,25.9375 1277.2031,25.5469 1276.7344,25.5469 C1276.5156,25.5469 1276.3125,25.625 1276.125,25.8125 C1275.6719,26.2969 1275.6719,26.2969 1275.4844,26.3906 C1275.0625,26.6563 1274.375,26.7813 1273.6094,26.7813 C1271.5625,26.7813 1270.2656,25.6875 1270.2656,23.9844 L1270.2656,22.8906 C1270.2656,21.1094 1271.5156,19.7969 1273.25,19.7969 C1273.8281,19.7969 1274.4375,19.9531 1274.9063,20.2031 C1275.3906,20.4844 1275.5625,20.7031 1275.6563,21.1094 C1275.7188,21.5156 1275.75,21.6406 1275.8906,21.7656 C1276.0313,21.9063 1276.2656,22.0156 1276.4844,22.0156 C1276.75,22.0156 1277.0156,21.875 1277.1875,21.6563 C1277.2969,21.5 1277.3281,21.3125 1277.3281,20.8906 L1277.3281,19.4688 C1277.3281,19.0313 1277.3125,18.9063 1277.2188,18.75 C1277.0625,18.4844 1276.7813,18.3438 1276.4844,18.3438 C1276.1875,18.3438 1275.9844,18.4375 1275.7656,18.75 L1275.5938,18.6719 Z " fill="#000000"/><text fill="#000000" font-family="sans-serif" font-size="12" lengthAdjust="spacing" textLength="74" x="1293.75" y="27.1543">ContainerDB</text><line style="stroke:#A80036;stroke-width:1.5;" x1="1004" x2="1625" y1="39" y2="39"/><text fill="#000000" font-family="sans-serif" font-size="11" lengthAdjust="spacing" textLength="247" x="1009" y="53.2104">-databaseConnection: DatabaseConnection</text><line style="stroke:#A80036;stroke-width:1.5;" x1="1004" x2="1625" y1="59.8047" y2="59.8047"/><text fill="#000000" font-family="sans-serif" font-size="11" lengthAdjust="spacing" textLength="600" x="1009" y="74.0151">+getOccupancyRateFromDate(DatabaseConnection connection, String mmsi, String dateToBeIntroduced)</text><text fill="#000000" font-family="sans-serif" font-size="11" lengthAdjust="spacing" textLength="611" x="1009" y="86.8198">+getOccupancyRateFromCertainManifest(DatabaseConnection connection, String mmsi, Integer idManifest)</text><text fill="#000000" font-family="sans-serif" font-size="11" lengthAdjust="spacing" textLength="17" x="1009" y="99.6245">...()</text><!--MD5=[c51bc769145f25d59c587211eceb7951]
class ContainerController--><rect codeLine="13" fill="#FEFECE" filter="url(#f1urqnejh19bkv)" height="99.2188" id="ContainerController" style="stroke:#A80036;stroke-width:1.5;" width="623" x="320" y="7"/><ellipse cx="569.25" cy="23" fill="#ADD1B2" rx="11" ry="11" style="stroke:#A80036;stroke-width:1.0;"/><path d="M571.5938,18.6719 C570.6563,18.2344 570.0625,18.0938 569.1875,18.0938 C566.5625,18.0938 564.5625,20.1719 564.5625,22.8906 L564.5625,24.0156 C564.5625,26.5938 566.6719,28.4844 569.5625,28.4844 C570.7813,28.4844 571.9375,28.1875 572.6875,27.6406 C573.2656,27.2344 573.5938,26.7813 573.5938,26.3906 C573.5938,25.9375 573.2031,25.5469 572.7344,25.5469 C572.5156,25.5469 572.3125,25.625 572.125,25.8125 C571.6719,26.2969 571.6719,26.2969 571.4844,26.3906 C571.0625,26.6563 570.375,26.7813 569.6094,26.7813 C567.5625,26.7813 566.2656,25.6875 566.2656,23.9844 L566.2656,22.8906 C566.2656,21.1094 567.5156,19.7969 569.25,19.7969 C569.8281,19.7969 570.4375,19.9531 570.9063,20.2031 C571.3906,20.4844 571.5625,20.7031 571.6563,21.1094 C571.7188,21.5156 571.75,21.6406 571.8906,21.7656 C572.0313,21.9063 572.2656,22.0156 572.4844,22.0156 C572.75,22.0156 573.0156,21.875 573.1875,21.6563 C573.2969,21.5 573.3281,21.3125 573.3281,20.8906 L573.3281,19.4688 C573.3281,19.0313 573.3125,18.9063 573.2188,18.75 C573.0625,18.4844 572.7813,18.3438 572.4844,18.3438 C572.1875,18.3438 571.9844,18.4375 571.7656,18.75 L571.5938,18.6719 Z " fill="#000000"/><text fill="#000000" font-family="sans-serif" font-size="12" lengthAdjust="spacing" textLength="116" x="589.75" y="27.1543">ContainerController</text><line style="stroke:#A80036;stroke-width:1.5;" x1="321" x2="942" y1="39" y2="39"/><text fill="#000000" font-family="sans-serif" font-size="11" lengthAdjust="spacing" textLength="102" x="326" y="53.2104">-cDB:ContainerDB</text><line style="stroke:#A80036;stroke-width:1.5;" x1="321" x2="942" y1="59.8047" y2="59.8047"/><text fill="#000000" font-family="sans-serif" font-size="11" lengthAdjust="spacing" textLength="600" x="326" y="74.0151">+getOccupancyRateFromDate(DatabaseConnection connection, String mmsi, String dateToBeIntroduced)</text><text fill="#000000" font-family="sans-serif" font-size="11" lengthAdjust="spacing" textLength="611" x="326" y="86.8198">+getOccupancyRateFromCertainManifest(DatabaseConnection connection, String mmsi, Integer idManifest)</text><text fill="#000000" font-family="sans-serif" font-size="11" lengthAdjust="spacing" textLength="17" x="326" y="99.6245">...()</text><!--MD5=[1ed39845ac3a31856c52c42a2a4bbd69]
class CountainerControllerTest--><rect codeLine="20" fill="#FEFECE" filter="url(#f1urqnejh19bkv)" height="73.6094" id="CountainerControllerTest" style="stroke:#A80036;stroke-width:1.5;" width="253" x="7" y="19.5"/><ellipse cx="54.75" cy="35.5" fill="#ADD1B2" rx="11" ry="11" style="stroke:#A80036;stroke-width:1.0;"/><path d="M57.0938,31.1719 C56.1563,30.7344 55.5625,30.5938 54.6875,30.5938 C52.0625,30.5938 50.0625,32.6719 50.0625,35.3906 L50.0625,36.5156 C50.0625,39.0938 52.1719,40.9844 55.0625,40.9844 C56.2813,40.9844 57.4375,40.6875 58.1875,40.1406 C58.7656,39.7344 59.0938,39.2813 59.0938,38.8906 C59.0938,38.4375 58.7031,38.0469 58.2344,38.0469 C58.0156,38.0469 57.8125,38.125 57.625,38.3125 C57.1719,38.7969 57.1719,38.7969 56.9844,38.8906 C56.5625,39.1563 55.875,39.2813 55.1094,39.2813 C53.0625,39.2813 51.7656,38.1875 51.7656,36.4844 L51.7656,35.3906 C51.7656,33.6094 53.0156,32.2969 54.75,32.2969 C55.3281,32.2969 55.9375,32.4531 56.4063,32.7031 C56.8906,32.9844 57.0625,33.2031 57.1563,33.6094 C57.2188,34.0156 57.25,34.1406 57.3906,34.2656 C57.5313,34.4063 57.7656,34.5156 57.9844,34.5156 C58.25,34.5156 58.5156,34.375 58.6875,34.1563 C58.7969,34 58.8281,33.8125 58.8281,33.3906 L58.8281,31.9688 C58.8281,31.5313 58.8125,31.4063 58.7188,31.25 C58.5625,30.9844 58.2813,30.8438 57.9844,30.8438 C57.6875,30.8438 57.4844,30.9375 57.2656,31.25 L57.0938,31.1719 Z " fill="#000000"/><text fill="#000000" font-family="sans-serif" font-size="12" lengthAdjust="spacing" textLength="149" x="75.25" y="39.6543">CountainerControllerTest</text><line style="stroke:#A80036;stroke-width:1.5;" x1="8" x2="259" y1="51.5" y2="51.5"/><line style="stroke:#A80036;stroke-width:1.5;" x1="8" x2="259" y1="59.5" y2="59.5"/><text fill="#000000" font-family="sans-serif" font-size="11" lengthAdjust="spacing" textLength="180" x="13" y="73.7104">+getOccupancyRateFromDate()</text><text fill="#000000" font-family="sans-serif" font-size="11" lengthAdjust="spacing" textLength="241" x="13" y="86.5151">+getOccupancyRateFromCertainManifest()</text><!--MD5=[c761e01612c93ff47c5d5eeb4d5ce7da]
link CountainerControllerTest to ContainerController--><path codeLine="25" d="M260.303,56.5 C277.486,56.5 295.713,56.5 314.504,56.5 " fill="none" id="CountainerControllerTest-to-ContainerController" style="stroke:#A80036;stroke-width:1.0;stroke-dasharray:7.0,7.0;"/><polygon fill="#A80036" points="319.818,56.5,310.818,52.5,314.818,56.5,310.818,60.5,319.818,56.5" style="stroke:#A80036;stroke-width:1.0;"/><!--MD5=[3d337865db9ae44dc4c7ce932b068f53]
link ContainerController to ContainerDB--><path codeLine="26" d="M943.107,56.5 C961.304,56.5 979.616,56.5 997.832,56.5 " fill="none" id="ContainerController-to-ContainerDB" style="stroke:#A80036;stroke-width:1.0;"/><polygon fill="#A80036" points="1002.967,56.5,993.967,52.5,997.967,56.5,993.967,60.5,1002.967,56.5" style="stroke:#A80036;stroke-width:1.0;"/><!--MD5=[8b2093d4cf0bc169b2e032fb18c08603]
@startuml
skinparam classAttributeIconSize 0
left to right direction



class ContainerDB{
-databaseConnection: DatabaseConnection
+getOccupancyRateFromDate(DatabaseConnection connection, String mmsi, String dateToBeIntroduced)
+getOccupancyRateFromCertainManifest(DatabaseConnection connection, String mmsi, Integer idManifest)
...()
}

class ContainerController{
-cDB:ContainerDB
+getOccupancyRateFromDate(DatabaseConnection connection, String mmsi, String dateToBeIntroduced)
+getOccupancyRateFromCertainManifest(DatabaseConnection connection, String mmsi, Integer idManifest)
...()
}

Class "CountainerControllerTest"{
+getOccupancyRateFromDate()
+getOccupancyRateFromCertainManifest()
}

CountainerControllerTest..>ContainerController
ContainerController- ->ContainerDB
@enduml

PlantUML version 1.2021.16beta1(Unknown compile time)
(GPL source distribution)
Java Runtime: Java(TM) SE Runtime Environment
JVM: Java HotSpot(TM) 64-Bit Server VM
Default Encoding: UTF-8
Language: en
Country: US
--></g></svg>