<?xml version="1.0" encoding="UTF-8" standalone="no"?><svg xmlns="http://www.w3.org/2000/svg" xmlns:xlink="http://www.w3.org/1999/xlink" contentScriptType="application/ecmascript" contentStyleType="text/css" height="367px" preserveAspectRatio="none" style="width:641px;height:367px;background:#FFFFFF;" version="1.1" viewBox="0 0 641 367" width="641px" zoomAndPan="magnify"><defs><filter height="300%" id="f1uv8pvbvkanj7" width="300%" x="-1" y="-1"><feGaussianBlur result="blurOut" stdDeviation="2.0"/><feColorMatrix in="blurOut" result="blurOut2" type="matrix" values="0 0 0 0 0 0 0 0 0 0 0 0 0 0 0 0 0 0 .4 0"/><feOffset dx="4.0" dy="4.0" in="blurOut2" result="blurOut3"/><feBlend in="SourceGraphic" in2="blurOut3" mode="normal"/></filter></defs><g><rect fill="#FFFFFF" filter="url(#f1uv8pvbvkanj7)" height="175.7969" style="stroke:#A80036;stroke-width:1.0;" width="10" x="49" y="98.2969"/><rect fill="#FFFFFF" filter="url(#f1uv8pvbvkanj7)" height="29.1328" style="stroke:#A80036;stroke-width:1.0;" width="10" x="588" y="119.4297"/><rect fill="#FFFFFF" filter="url(#f1uv8pvbvkanj7)" height="29.1328" style="stroke:#A80036;stroke-width:1.0;" width="10" x="588" y="177.6953"/><rect fill="#FFFFFF" filter="url(#f1uv8pvbvkanj7)" height="29.1328" style="stroke:#A80036;stroke-width:1.0;" width="10" x="588" y="235.9609"/><line style="stroke:#A80036;stroke-width:1.0;stroke-dasharray:5.0,5.0;" x1="54" x2="54" y1="88.2969" y2="283.0938"/><line style="stroke:#A80036;stroke-width:1.0;stroke-dasharray:5.0,5.0;" x1="592.5" x2="592.5" y1="88.2969" y2="283.0938"/><text fill="#000000" font-family="sans-serif" font-size="14" lengthAdjust="spacing" textLength="92" x="5" y="84.9951">Ship Captain</text><ellipse cx="54" cy="15" fill="#FEFECE" filter="url(#f1uv8pvbvkanj7)" rx="8" ry="8" style="stroke:#A80036;stroke-width:2.0;"/><path d="M54,23 L54,50 M41,31 L67,31 M54,50 L41,65 M54,50 L67,65 " fill="none" filter="url(#f1uv8pvbvkanj7)" style="stroke:#A80036;stroke-width:2.0;"/><text fill="#000000" font-family="sans-serif" font-size="14" lengthAdjust="spacing" textLength="92" x="5" y="295.0889">Ship Captain</text><ellipse cx="54" cy="308.3906" fill="#FEFECE" filter="url(#f1uv8pvbvkanj7)" rx="8" ry="8" style="stroke:#A80036;stroke-width:2.0;"/><path d="M54,316.3906 L54,343.3906 M41,324.3906 L67,324.3906 M54,343.3906 L41,358.3906 M54,343.3906 L67,358.3906 " fill="none" filter="url(#f1uv8pvbvkanj7)" style="stroke:#A80036;stroke-width:2.0;"/><rect fill="#FEFECE" filter="url(#f1uv8pvbvkanj7)" height="30.2969" style="stroke:#A80036;stroke-width:1.5;" width="73" x="554.5" y="53"/><text fill="#000000" font-family="sans-serif" font-size="14" lengthAdjust="spacing" textLength="59" x="561.5" y="72.9951">:System</text><rect fill="#FEFECE" filter="url(#f1uv8pvbvkanj7)" height="30.2969" style="stroke:#A80036;stroke-width:1.5;" width="73" x="554.5" y="282.0938"/><text fill="#000000" font-family="sans-serif" font-size="14" lengthAdjust="spacing" textLength="59" x="561.5" y="302.0889">:System</text><rect fill="#FFFFFF" filter="url(#f1uv8pvbvkanj7)" height="175.7969" style="stroke:#A80036;stroke-width:1.0;" width="10" x="49" y="98.2969"/><rect fill="#FFFFFF" filter="url(#f1uv8pvbvkanj7)" height="29.1328" style="stroke:#A80036;stroke-width:1.0;" width="10" x="588" y="119.4297"/><rect fill="#FFFFFF" filter="url(#f1uv8pvbvkanj7)" height="29.1328" style="stroke:#A80036;stroke-width:1.0;" width="10" x="588" y="177.6953"/><rect fill="#FFFFFF" filter="url(#f1uv8pvbvkanj7)" height="29.1328" style="stroke:#A80036;stroke-width:1.0;" width="10" x="588" y="235.9609"/><polygon fill="#A80036" points="576,115.4297,586,119.4297,576,123.4297,580,119.4297" style="stroke:#A80036;stroke-width:1.0;"/><line style="stroke:#A80036;stroke-width:1.0;" x1="59" x2="582" y1="119.4297" y2="119.4297"/><text fill="#000000" font-family="sans-serif" font-size="13" font-weight="bold" lengthAdjust="spacing" textLength="9" x="66" y="114.3638">1</text><text fill="#000000" font-family="sans-serif" font-size="13" lengthAdjust="spacing" textLength="284" x="79" y="114.3638">chooses to see the occupancy rate of a ship</text><polygon fill="#A80036" points="70,144.5625,60,148.5625,70,152.5625,66,148.5625" style="stroke:#A80036;stroke-width:1.0;"/><line style="stroke:#A80036;stroke-width:1.0;stroke-dasharray:2.0,2.0;" x1="64" x2="592" y1="148.5625" y2="148.5625"/><text fill="#000000" font-family="sans-serif" font-size="13" font-weight="bold" lengthAdjust="spacing" textLength="9" x="76" y="143.4966">2</text><text fill="#000000" font-family="sans-serif" font-size="13" lengthAdjust="spacing" textLength="471" x="89" y="143.4966">asks the identifying code of the ship whose occupancy rate will be shown</text><polygon fill="#A80036" points="576,173.6953,586,177.6953,576,181.6953,580,177.6953" style="stroke:#A80036;stroke-width:1.0;"/><line style="stroke:#A80036;stroke-width:1.0;" x1="59" x2="582" y1="177.6953" y2="177.6953"/><text fill="#000000" font-family="sans-serif" font-size="13" font-weight="bold" lengthAdjust="spacing" textLength="8" x="66" y="172.6294">3</text><text fill="#000000" font-family="sans-serif" font-size="13" lengthAdjust="spacing" textLength="242" x="78" y="172.6294">writes the identifying code of the ship</text><polygon fill="#A80036" points="70,202.8281,60,206.8281,70,210.8281,66,206.8281" style="stroke:#A80036;stroke-width:1.0;"/><line style="stroke:#A80036;stroke-width:1.0;stroke-dasharray:2.0,2.0;" x1="64" x2="592" y1="206.8281" y2="206.8281"/><text fill="#000000" font-family="sans-serif" font-size="13" font-weight="bold" lengthAdjust="spacing" textLength="9" x="76" y="201.7622">4</text><text fill="#000000" font-family="sans-serif" font-size="13" lengthAdjust="spacing" textLength="337" x="89" y="201.7622">asks the given manifest to show the occupancy rate</text><polygon fill="#A80036" points="576,231.9609,586,235.9609,576,239.9609,580,235.9609" style="stroke:#A80036;stroke-width:1.0;"/><line style="stroke:#A80036;stroke-width:1.0;" x1="59" x2="582" y1="235.9609" y2="235.9609"/><text fill="#000000" font-family="sans-serif" font-size="13" font-weight="bold" lengthAdjust="spacing" textLength="9" x="66" y="230.895">5</text><text fill="#000000" font-family="sans-serif" font-size="13" lengthAdjust="spacing" textLength="177" x="79" y="230.895">writes the manifest wanted</text><polygon fill="#A80036" points="70,261.0938,60,265.0938,70,269.0938,66,265.0938" style="stroke:#A80036;stroke-width:1.0;"/><line style="stroke:#A80036;stroke-width:1.0;stroke-dasharray:2.0,2.0;" x1="64" x2="592" y1="265.0938" y2="265.0938"/><text fill="#000000" font-family="sans-serif" font-size="13" font-weight="bold" lengthAdjust="spacing" textLength="9" x="76" y="260.0278">6</text><text fill="#000000" font-family="sans-serif" font-size="13" lengthAdjust="spacing" textLength="492" x="89" y="260.0278">presents the user with the occupancy rate of that ship on the given moment</text><!--MD5=[ab5d46f00507cb0d61f721bc345d021b]
@startuml
autonumber
actor "Ship Captain" as Rec

activate Rec
Rec-> ":System" : chooses to see the occupancy rate of a ship
activate ":System"
":System" - -> Rec : asks the identifying code of the ship whose occupancy rate will be shown

deactivate ":System"

Rec -> ":System" : writes the identifying code of the ship
activate ":System"

":System" - -> Rec : asks the given manifest to show the occupancy rate
deactivate ":System"

Rec -> ":System" : writes the manifest wanted
activate ":System"

":System" - -> Rec : presents the user with the occupancy rate of that ship on the given moment
deactivate ":System"
@enduml

PlantUML version 1.2021.16beta1(Unknown compile time)
(GPL source distribution)
Java Runtime: Java(TM) SE Runtime Environment
JVM: Java HotSpot(TM) 64-Bit Server VM
Default Encoding: UTF-8
Language: en
Country: US
--></g></svg>