<?xml version="1.0" encoding="UTF-8" standalone="no"?><svg xmlns="http://www.w3.org/2000/svg" xmlns:xlink="http://www.w3.org/1999/xlink" contentScriptType="application/ecmascript" contentStyleType="text/css" height="818px" preserveAspectRatio="none" style="width:1864px;height:818px;background:#FFFFFF;" version="1.1" viewBox="0 0 1864 818" width="1864px" zoomAndPan="magnify"><defs><filter height="300%" id="f1es9epheh1u3o" width="300%" x="-1" y="-1"><feGaussianBlur result="blurOut" stdDeviation="2.0"/><feColorMatrix in="blurOut" result="blurOut2" type="matrix" values="0 0 0 0 0 0 0 0 0 0 0 0 0 0 0 0 0 0 .4 0"/><feOffset dx="4.0" dy="4.0" in="blurOut2" result="blurOut3"/><feBlend in="SourceGraphic" in2="blurOut3" mode="normal"/></filter></defs><g><rect fill="#FFFFFF" filter="url(#f1es9epheh1u3o)" height="626.9922" style="stroke:#A80036;stroke-width:1.0;" width="10" x="47" y="98.2969"/><rect fill="#FFFFFF" filter="url(#f1es9epheh1u3o)" height="29.1328" style="stroke:#A80036;stroke-width:1.0;" width="10" x="565" y="119.4297"/><rect fill="#FFFFFF" filter="url(#f1es9epheh1u3o)" height="29.1328" style="stroke:#A80036;stroke-width:1.0;" width="10" x="565" y="177.6953"/><rect fill="#FFFFFF" filter="url(#f1es9epheh1u3o)" height="29.1328" style="stroke:#A80036;stroke-width:1.0;" width="10" x="565" y="426.3594"/><rect fill="#FFFFFF" filter="url(#f1es9epheh1u3o)" height="29.1328" style="stroke:#A80036;stroke-width:1.0;" width="10" x="565" y="484.625"/><rect fill="#FFFFFF" filter="url(#f1es9epheh1u3o)" height="29.1328" style="stroke:#A80036;stroke-width:1.0;" width="10" x="565" y="687.1563"/><rect fill="#FFFFFF" filter="url(#f1es9epheh1u3o)" height="480.3281" style="stroke:#A80036;stroke-width:1.0;" width="10" x="965" y="206.8281"/><rect fill="#FFFFFF" filter="url(#f1es9epheh1u3o)" height="28" style="stroke:#A80036;stroke-width:1.0;" width="10" x="970" y="362.2266"/><rect fill="#FFFFFF" filter="url(#f1es9epheh1u3o)" height="28" style="stroke:#A80036;stroke-width:1.0;" width="10" x="970" y="550.8906"/><rect fill="#FFFFFF" filter="url(#f1es9epheh1u3o)" height="28" style="stroke:#A80036;stroke-width:1.0;" width="10" x="970" y="623.0234"/><rect fill="#FFFFFF" filter="url(#f1es9epheh1u3o)" height="30" style="stroke:#A80036;stroke-width:1.0;" width="10" x="1441" y="235.9609"/><rect fill="#FFFFFF" filter="url(#f1es9epheh1u3o)" height="30" style="stroke:#A80036;stroke-width:1.0;" width="10" x="1805.5" y="295.0938"/><line style="stroke:#A80036;stroke-width:1.0;stroke-dasharray:5.0,5.0;" x1="52" x2="52" y1="88.2969" y2="734.2891"/><line style="stroke:#A80036;stroke-width:1.0;stroke-dasharray:5.0,5.0;" x1="570" x2="570" y1="88.2969" y2="734.2891"/><line style="stroke:#A80036;stroke-width:1.0;stroke-dasharray:5.0,5.0;" x1="970" x2="970" y1="88.2969" y2="734.2891"/><line style="stroke:#A80036;stroke-width:1.0;stroke-dasharray:5.0,5.0;" x1="1445.5" x2="1445.5" y1="88.2969" y2="734.2891"/><line style="stroke:#A80036;stroke-width:1.0;stroke-dasharray:5.0,5.0;" x1="1528.5" x2="1528.5" y1="88.2969" y2="734.2891"/><line style="stroke:#A80036;stroke-width:1.0;stroke-dasharray:5.0,5.0;" x1="1608.5" x2="1608.5" y1="88.2969" y2="734.2891"/><line style="stroke:#A80036;stroke-width:1.0;stroke-dasharray:5.0,5.0;" x1="1708.5" x2="1708.5" y1="88.2969" y2="734.2891"/><line style="stroke:#A80036;stroke-width:1.0;stroke-dasharray:5.0,5.0;" x1="1810.5" x2="1810.5" y1="88.2969" y2="734.2891"/><text fill="#000000" font-family="sans-serif" font-size="14" lengthAdjust="spacing" textLength="88" x="5" y="84.9951">ShipCaptain</text><ellipse cx="52" cy="15" fill="#FEFECE" filter="url(#f1es9epheh1u3o)" rx="8" ry="8" style="stroke:#A80036;stroke-width:2.0;"/><path d="M52,23 L52,50 M39,31 L65,31 M52,50 L39,65 M52,50 L65,65 " fill="none" filter="url(#f1es9epheh1u3o)" style="stroke:#A80036;stroke-width:2.0;"/><text fill="#000000" font-family="sans-serif" font-size="14" lengthAdjust="spacing" textLength="88" x="5" y="746.2842">ShipCaptain</text><ellipse cx="52" cy="759.5859" fill="#FEFECE" filter="url(#f1es9epheh1u3o)" rx="8" ry="8" style="stroke:#A80036;stroke-width:2.0;"/><path d="M52,767.5859 L52,794.5859 M39,775.5859 L65,775.5859 M52,794.5859 L39,809.5859 M52,794.5859 L65,809.5859 " fill="none" filter="url(#f1es9epheh1u3o)" style="stroke:#A80036;stroke-width:2.0;"/><rect fill="#FEFECE" filter="url(#f1es9epheh1u3o)" height="30.2969" style="stroke:#A80036;stroke-width:1.5;" width="190" x="473" y="53"/><text fill="#000000" font-family="sans-serif" font-size="14" lengthAdjust="spacing" textLength="176" x="480" y="72.9951">:GetOccupancyRateTest</text><rect fill="#FEFECE" filter="url(#f1es9epheh1u3o)" height="30.2969" style="stroke:#A80036;stroke-width:1.5;" width="190" x="473" y="733.2891"/><text fill="#000000" font-family="sans-serif" font-size="14" lengthAdjust="spacing" textLength="176" x="480" y="753.2842">:GetOccupancyRateTest</text><rect fill="#FEFECE" filter="url(#f1es9epheh1u3o)" height="30.2969" style="stroke:#A80036;stroke-width:1.5;" width="158" x="889" y="53"/><text fill="#000000" font-family="sans-serif" font-size="14" lengthAdjust="spacing" textLength="144" x="896" y="72.9951">:GetOccupancyRate</text><rect fill="#FEFECE" filter="url(#f1es9epheh1u3o)" height="30.2969" style="stroke:#A80036;stroke-width:1.5;" width="158" x="889" y="733.2891"/><text fill="#000000" font-family="sans-serif" font-size="14" lengthAdjust="spacing" textLength="144" x="896" y="753.2842">:GetOccupancyRate</text><rect fill="#FEFECE" filter="url(#f1es9epheh1u3o)" height="30.2969" style="stroke:#A80036;stroke-width:1.5;" width="87" x="1400.5" y="53"/><text fill="#000000" font-family="sans-serif" font-size="14" lengthAdjust="spacing" textLength="73" x="1407.5" y="72.9951">:Company</text><rect fill="#FEFECE" filter="url(#f1es9epheh1u3o)" height="30.2969" style="stroke:#A80036;stroke-width:1.5;" width="87" x="1400.5" y="733.2891"/><text fill="#000000" font-family="sans-serif" font-size="14" lengthAdjust="spacing" textLength="73" x="1407.5" y="753.2842">:Company</text><rect fill="#FEFECE" filter="url(#f1es9epheh1u3o)" height="30.2969" style="stroke:#A80036;stroke-width:1.5;" width="51" x="1501.5" y="53"/><text fill="#000000" font-family="sans-serif" font-size="14" lengthAdjust="spacing" textLength="37" x="1508.5" y="72.9951">:Ship</text><rect fill="#FEFECE" filter="url(#f1es9epheh1u3o)" height="30.2969" style="stroke:#A80036;stroke-width:1.5;" width="51" x="1501.5" y="733.2891"/><text fill="#000000" font-family="sans-serif" font-size="14" lengthAdjust="spacing" textLength="37" x="1508.5" y="753.2842">:Ship</text><rect fill="#FEFECE" filter="url(#f1es9epheh1u3o)" height="30.2969" style="stroke:#A80036;stroke-width:1.5;" width="81" x="1566.5" y="53"/><text fill="#000000" font-family="sans-serif" font-size="14" lengthAdjust="spacing" textLength="67" x="1573.5" y="72.9951">:Location</text><rect fill="#FEFECE" filter="url(#f1es9epheh1u3o)" height="30.2969" style="stroke:#A80036;stroke-width:1.5;" width="81" x="1566.5" y="733.2891"/><text fill="#000000" font-family="sans-serif" font-size="14" lengthAdjust="spacing" textLength="67" x="1573.5" y="753.2842">:Location</text><rect fill="#FEFECE" filter="url(#f1es9epheh1u3o)" height="30.2969" style="stroke:#A80036;stroke-width:1.5;" width="91" x="1661.5" y="53"/><text fill="#000000" font-family="sans-serif" font-size="14" lengthAdjust="spacing" textLength="77" x="1668.5" y="72.9951">:ShipStore</text><rect fill="#FEFECE" filter="url(#f1es9epheh1u3o)" height="30.2969" style="stroke:#A80036;stroke-width:1.5;" width="91" x="1661.5" y="733.2891"/><text fill="#000000" font-family="sans-serif" font-size="14" lengthAdjust="spacing" textLength="77" x="1668.5" y="753.2842">:ShipStore</text><rect fill="#FEFECE" filter="url(#f1es9epheh1u3o)" height="30.2969" style="stroke:#A80036;stroke-width:1.5;" width="84" x="1766.5" y="53"/><text fill="#000000" font-family="sans-serif" font-size="14" lengthAdjust="spacing" textLength="70" x="1773.5" y="72.9951">shipStore</text><rect fill="#FEFECE" filter="url(#f1es9epheh1u3o)" height="30.2969" style="stroke:#A80036;stroke-width:1.5;" width="84" x="1766.5" y="733.2891"/><text fill="#000000" font-family="sans-serif" font-size="14" lengthAdjust="spacing" textLength="70" x="1773.5" y="753.2842">shipStore</text><rect fill="#FFFFFF" filter="url(#f1es9epheh1u3o)" height="626.9922" style="stroke:#A80036;stroke-width:1.0;" width="10" x="47" y="98.2969"/><rect fill="#FFFFFF" filter="url(#f1es9epheh1u3o)" height="29.1328" style="stroke:#A80036;stroke-width:1.0;" width="10" x="565" y="119.4297"/><rect fill="#FFFFFF" filter="url(#f1es9epheh1u3o)" height="29.1328" style="stroke:#A80036;stroke-width:1.0;" width="10" x="565" y="177.6953"/><rect fill="#FFFFFF" filter="url(#f1es9epheh1u3o)" height="29.1328" style="stroke:#A80036;stroke-width:1.0;" width="10" x="565" y="426.3594"/><rect fill="#FFFFFF" filter="url(#f1es9epheh1u3o)" height="29.1328" style="stroke:#A80036;stroke-width:1.0;" width="10" x="565" y="484.625"/><rect fill="#FFFFFF" filter="url(#f1es9epheh1u3o)" height="29.1328" style="stroke:#A80036;stroke-width:1.0;" width="10" x="565" y="687.1563"/><rect fill="#FFFFFF" filter="url(#f1es9epheh1u3o)" height="480.3281" style="stroke:#A80036;stroke-width:1.0;" width="10" x="965" y="206.8281"/><rect fill="#FFFFFF" filter="url(#f1es9epheh1u3o)" height="28" style="stroke:#A80036;stroke-width:1.0;" width="10" x="970" y="362.2266"/><rect fill="#FFFFFF" filter="url(#f1es9epheh1u3o)" height="28" style="stroke:#A80036;stroke-width:1.0;" width="10" x="970" y="550.8906"/><rect fill="#FFFFFF" filter="url(#f1es9epheh1u3o)" height="28" style="stroke:#A80036;stroke-width:1.0;" width="10" x="970" y="623.0234"/><rect fill="#FFFFFF" filter="url(#f1es9epheh1u3o)" height="30" style="stroke:#A80036;stroke-width:1.0;" width="10" x="1441" y="235.9609"/><rect fill="#FFFFFF" filter="url(#f1es9epheh1u3o)" height="30" style="stroke:#A80036;stroke-width:1.0;" width="10" x="1805.5" y="295.0938"/><polygon fill="#A80036" points="553,115.4297,563,119.4297,553,123.4297,557,119.4297" style="stroke:#A80036;stroke-width:1.0;"/><line style="stroke:#A80036;stroke-width:1.0;" x1="57" x2="559" y1="119.4297" y2="119.4297"/><text fill="#000000" font-family="sans-serif" font-size="13" font-weight="bold" lengthAdjust="spacing" textLength="9" x="64" y="114.3638">1</text><text fill="#000000" font-family="sans-serif" font-size="13" lengthAdjust="spacing" textLength="284" x="77" y="114.3638">chooses to see the occupancy rate of a ship</text><polygon fill="#A80036" points="68,144.5625,58,148.5625,68,152.5625,64,148.5625" style="stroke:#A80036;stroke-width:1.0;"/><line style="stroke:#A80036;stroke-width:1.0;stroke-dasharray:2.0,2.0;" x1="62" x2="569" y1="148.5625" y2="148.5625"/><text fill="#000000" font-family="sans-serif" font-size="13" font-weight="bold" lengthAdjust="spacing" textLength="9" x="74" y="143.4966">2</text><text fill="#000000" font-family="sans-serif" font-size="13" lengthAdjust="spacing" textLength="471" x="87" y="143.4966">asks the identifying code of the ship whose occupancy rate will be shown</text><polygon fill="#A80036" points="553,173.6953,563,177.6953,553,181.6953,557,177.6953" style="stroke:#A80036;stroke-width:1.0;"/><line style="stroke:#A80036;stroke-width:1.0;" x1="57" x2="559" y1="177.6953" y2="177.6953"/><text fill="#000000" font-family="sans-serif" font-size="13" font-weight="bold" lengthAdjust="spacing" textLength="8" x="64" y="172.6294">3</text><text fill="#000000" font-family="sans-serif" font-size="13" lengthAdjust="spacing" textLength="242" x="76" y="172.6294">writes the identifying code of the ship</text><polygon fill="#A80036" points="953,202.8281,963,206.8281,953,210.8281,957,206.8281" style="stroke:#A80036;stroke-width:1.0;"/><line style="stroke:#A80036;stroke-width:1.0;" x1="570" x2="959" y1="206.8281" y2="206.8281"/><text fill="#000000" font-family="sans-serif" font-size="13" font-weight="bold" lengthAdjust="spacing" textLength="9" x="577" y="201.7622">4</text><text fill="#000000" font-family="sans-serif" font-size="13" lengthAdjust="spacing" textLength="191" x="590" y="201.7622">getOccupancyRate(shipCode)</text><polygon fill="#A80036" points="1429,231.9609,1439,235.9609,1429,239.9609,1433,235.9609" style="stroke:#A80036;stroke-width:1.0;"/><line style="stroke:#A80036;stroke-width:1.0;" x1="975" x2="1435" y1="235.9609" y2="235.9609"/><text fill="#000000" font-family="sans-serif" font-size="13" font-weight="bold" lengthAdjust="spacing" textLength="9" x="982" y="230.895">5</text><text fill="#000000" font-family="sans-serif" font-size="13" lengthAdjust="spacing" textLength="143" x="995" y="230.895">ships = getShipStore()</text><polygon fill="#A80036" points="1793.5,291.0938,1803.5,295.0938,1793.5,299.0938,1797.5,295.0938" style="stroke:#A80036;stroke-width:1.0;"/><line style="stroke:#A80036;stroke-width:1.0;" x1="975" x2="1799.5" y1="295.0938" y2="295.0938"/><text fill="#000000" font-family="sans-serif" font-size="13" font-weight="bold" lengthAdjust="spacing" textLength="9" x="982" y="290.0278">6</text><text fill="#000000" font-family="sans-serif" font-size="13" lengthAdjust="spacing" textLength="247" x="995" y="290.0278">ship = ships.getShipByCode(shipCode)</text><line style="stroke:#A80036;stroke-width:1.0;" x1="980" x2="1022" y1="354.2266" y2="354.2266"/><line style="stroke:#A80036;stroke-width:1.0;" x1="1022" x2="1022" y1="354.2266" y2="367.2266"/><line style="stroke:#A80036;stroke-width:1.0;" x1="981" x2="1022" y1="367.2266" y2="367.2266"/><polygon fill="#A80036" points="991,363.2266,981,367.2266,991,371.2266,987,367.2266" style="stroke:#A80036;stroke-width:1.0;"/><text fill="#000000" font-family="sans-serif" font-size="13" font-weight="bold" lengthAdjust="spacing" textLength="9" x="987" y="349.1606">7</text><text fill="#000000" font-family="sans-serif" font-size="13" lengthAdjust="spacing" textLength="189" x="1000" y="349.1606">capacity = ship.getCapacity()</text><polygon fill="#A80036" points="586,422.3594,576,426.3594,586,430.3594,582,426.3594" style="stroke:#A80036;stroke-width:1.0;"/><line style="stroke:#A80036;stroke-width:1.0;" x1="580" x2="964" y1="426.3594" y2="426.3594"/><text fill="#000000" font-family="sans-serif" font-size="13" font-weight="bold" lengthAdjust="spacing" textLength="9" x="592" y="421.2935">8</text><text fill="#000000" font-family="sans-serif" font-size="13" lengthAdjust="spacing" textLength="0" x="609" y="421.2935"/><polygon fill="#A80036" points="68,451.4922,58,455.4922,68,459.4922,64,455.4922" style="stroke:#A80036;stroke-width:1.0;"/><line style="stroke:#A80036;stroke-width:1.0;stroke-dasharray:2.0,2.0;" x1="62" x2="569" y1="455.4922" y2="455.4922"/><text fill="#000000" font-family="sans-serif" font-size="13" font-weight="bold" lengthAdjust="spacing" textLength="9" x="74" y="450.4263">9</text><text fill="#000000" font-family="sans-serif" font-size="13" lengthAdjust="spacing" textLength="416" x="87" y="450.4263">asks to introduce the given moment to show the occupancy rate</text><polygon fill="#A80036" points="553,480.625,563,484.625,553,488.625,557,484.625" style="stroke:#A80036;stroke-width:1.0;"/><line style="stroke:#A80036;stroke-width:1.0;" x1="57" x2="559" y1="484.625" y2="484.625"/><text fill="#000000" font-family="sans-serif" font-size="13" font-weight="bold" lengthAdjust="spacing" textLength="19" x="64" y="479.5591">10</text><text fill="#000000" font-family="sans-serif" font-size="13" lengthAdjust="spacing" textLength="159" x="87" y="479.5591">insert the given moment</text><polygon fill="#A80036" points="953,509.7578,963,513.7578,953,517.7578,957,513.7578" style="stroke:#A80036;stroke-width:1.0;"/><line style="stroke:#A80036;stroke-width:1.0;" x1="570" x2="959" y1="513.7578" y2="513.7578"/><text fill="#000000" font-family="sans-serif" font-size="13" font-weight="bold" lengthAdjust="spacing" textLength="18" x="577" y="508.6919">11</text><text fill="#000000" font-family="sans-serif" font-size="13" lengthAdjust="spacing" textLength="191" x="599" y="508.6919">getOccupancyRate(shipCode)</text><line style="stroke:#A80036;stroke-width:1.0;" x1="980" x2="1022" y1="542.8906" y2="542.8906"/><line style="stroke:#A80036;stroke-width:1.0;" x1="1022" x2="1022" y1="542.8906" y2="555.8906"/><line style="stroke:#A80036;stroke-width:1.0;" x1="981" x2="1022" y1="555.8906" y2="555.8906"/><polygon fill="#A80036" points="991,551.8906,981,555.8906,991,559.8906,987,555.8906" style="stroke:#A80036;stroke-width:1.0;"/><text fill="#000000" font-family="sans-serif" font-size="13" font-weight="bold" lengthAdjust="spacing" textLength="18" x="987" y="537.8247">12</text><text fill="#000000" font-family="sans-serif" font-size="13" lengthAdjust="spacing" textLength="430" x="1009" y="537.8247">containersCurrently = ship.getCargoManifest().getContainers.size()</text><line style="stroke:#A80036;stroke-width:1.0;" x1="980" x2="1022" y1="615.0234" y2="615.0234"/><line style="stroke:#A80036;stroke-width:1.0;" x1="1022" x2="1022" y1="615.0234" y2="628.0234"/><line style="stroke:#A80036;stroke-width:1.0;" x1="981" x2="1022" y1="628.0234" y2="628.0234"/><polygon fill="#A80036" points="991,624.0234,981,628.0234,991,632.0234,987,628.0234" style="stroke:#A80036;stroke-width:1.0;"/><text fill="#000000" font-family="sans-serif" font-size="13" font-weight="bold" lengthAdjust="spacing" textLength="17" x="987" y="609.9575">13</text><text fill="#000000" font-family="sans-serif" font-size="13" lengthAdjust="spacing" textLength="279" x="1008" y="609.9575">occupancy = containersCurrently / capacity</text><polygon fill="#A80036" points="586,683.1563,576,687.1563,586,691.1563,582,687.1563" style="stroke:#A80036;stroke-width:1.0;"/><line style="stroke:#A80036;stroke-width:1.0;stroke-dasharray:2.0,2.0;" x1="580" x2="969" y1="687.1563" y2="687.1563"/><text fill="#000000" font-family="sans-serif" font-size="13" font-weight="bold" lengthAdjust="spacing" textLength="18" x="592" y="682.0903">14</text><text fill="#000000" font-family="sans-serif" font-size="13" lengthAdjust="spacing" textLength="349" x="614" y="682.0903">presents the user with the occupancy rate of that ship</text><polygon fill="#A80036" points="68,712.2891,58,716.2891,68,720.2891,64,716.2891" style="stroke:#A80036;stroke-width:1.0;"/><line style="stroke:#A80036;stroke-width:1.0;" x1="62" x2="569" y1="716.2891" y2="716.2891"/><text fill="#000000" font-family="sans-serif" font-size="13" font-weight="bold" lengthAdjust="spacing" textLength="18" x="74" y="711.2231">15</text><text fill="#000000" font-family="sans-serif" font-size="13" lengthAdjust="spacing" textLength="349" x="96" y="711.2231">presents the user with the occupancy rate of that ship</text><!--MD5=[006fef3304989200947b6a7dac1aeb3e]
@startuml
autonumber
actor "ShipCaptain" as REC

participant  ":GetOccupancyRateTest" as TEST
participant ":GetOccupancyRate" as UI
participant ":Company" as CMP
participant ":Ship" as PORT

participant ":Location" as location
participant ":ShipStore" as portStore




activate REC
REC -> TEST: chooses to see the occupancy rate of a ship
activate TEST
TEST - -> REC : asks the identifying code of the ship whose occupancy rate will be shown
deactivate TEST
REC -> TEST: writes the identifying code of the ship
activate TEST


TEST-> UI : getOccupancyRate(shipCode)
deactivate TEST
activate UI

UI -> CMP: ships = getShipStore()
activate CMP
deactivate CMP

UI -> shipStore: ship = ships.getShipByCode(shipCode)
activate shipStore
deactivate shipStore


UI -> UI : capacity = ship.getCapacity()
activate UI
deactivate UI


UI -> TEST
activate TEST
TEST- -> REC : asks to introduce the given moment to show the occupancy rate
deactivate TEST



REC -> TEST: insert the given moment
activate TEST

TEST-> UI : getOccupancyRate(shipCode)

deactivate TEST

UI -> UI : containersCurrently = ship.getCargoManifest().getContainers.size()
activate UI
deactivate UI
UI -> UI : occupancy = containersCurrently / capacity
activate UI
deactivate UI

deactivate portStore
UI - -> TEST: presents the user with the occupancy rate of that ship
deactivate UI

activate TEST
TEST-> REC : presents the user with the occupancy rate of that ship
deactivate TEST
@enduml

PlantUML version 1.2021.15beta6(Unknown compile time)
(GPL source distribution)
Java Runtime: Java(TM) SE Runtime Environment
JVM: Java HotSpot(TM) 64-Bit Server VM
Default Encoding: UTF-8
Language: en
Country: US
--></g></svg>