<?xml version="1.0" encoding="UTF-8" standalone="no"?><svg xmlns="http://www.w3.org/2000/svg" xmlns:xlink="http://www.w3.org/1999/xlink" contentScriptType="application/ecmascript" contentStyleType="text/css" height="178px" preserveAspectRatio="none" style="width:532px;height:178px;background:#FFFFFF;" version="1.1" viewBox="0 0 532 178" width="532px" zoomAndPan="magnify"><defs><filter height="300%" id="f13t5n555tb8d4" width="300%" x="-1" y="-1"><feGaussianBlur result="blurOut" stdDeviation="2.0"/><feColorMatrix in="blurOut" result="blurOut2" type="matrix" values="0 0 0 0 0 0 0 0 0 0 0 0 0 0 0 0 0 0 .4 0"/><feOffset dx="4.0" dy="4.0" in="blurOut2" result="blurOut3"/><feBlend in="SourceGraphic" in2="blurOut3" mode="normal"/></filter></defs><g><!--MD5=[a0bfe97ac0a38e6e74cc1c7c7b744b71]
class Port--><rect codeLine="3" fill="#FEFECE" filter="url(#f13t5n555tb8d4)" height="124.8281" id="Port" style="stroke:#A80036;stroke-width:1.5;" width="69" x="238" y="29.5"/><ellipse cx="259.3" cy="45.5" fill="#ADD1B2" rx="11" ry="11" style="stroke:#A80036;stroke-width:1.0;"/><path d="M261.6438,41.1719 C260.7063,40.7344 260.1125,40.5938 259.2375,40.5938 C256.6125,40.5938 254.6125,42.6719 254.6125,45.3906 L254.6125,46.5156 C254.6125,49.0938 256.7219,50.9844 259.6125,50.9844 C260.8313,50.9844 261.9875,50.6875 262.7375,50.1406 C263.3156,49.7344 263.6438,49.2813 263.6438,48.8906 C263.6438,48.4375 263.2531,48.0469 262.7844,48.0469 C262.5656,48.0469 262.3625,48.125 262.175,48.3125 C261.7219,48.7969 261.7219,48.7969 261.5344,48.8906 C261.1125,49.1563 260.425,49.2813 259.6594,49.2813 C257.6125,49.2813 256.3156,48.1875 256.3156,46.4844 L256.3156,45.3906 C256.3156,43.6094 257.5656,42.2969 259.3,42.2969 C259.8781,42.2969 260.4875,42.4531 260.9563,42.7031 C261.4406,42.9844 261.6125,43.2031 261.7063,43.6094 C261.7688,44.0156 261.8,44.1406 261.9406,44.2656 C262.0813,44.4063 262.3156,44.5156 262.5344,44.5156 C262.8,44.5156 263.0656,44.375 263.2375,44.1563 C263.3469,44 263.3781,43.8125 263.3781,43.3906 L263.3781,41.9688 C263.3781,41.5313 263.3625,41.4063 263.2688,41.25 C263.1125,40.9844 262.8313,40.8438 262.5344,40.8438 C262.2375,40.8438 262.0344,40.9375 261.8156,41.25 L261.6438,41.1719 Z " fill="#000000"/><text fill="#000000" font-family="sans-serif" font-size="12" lengthAdjust="spacing" textLength="23" x="274.7" y="49.6543">Port</text><line style="stroke:#A80036;stroke-width:1.5;" x1="239" x2="306" y1="61.5" y2="61.5"/><text fill="#000000" font-family="sans-serif" font-size="11" lengthAdjust="spacing" textLength="38" x="244" y="75.7104">-portID</text><text fill="#000000" font-family="sans-serif" font-size="11" lengthAdjust="spacing" textLength="37" x="244" y="88.5151">-name</text><text fill="#000000" font-family="sans-serif" font-size="11" lengthAdjust="spacing" textLength="57" x="244" y="101.3198">-continent</text><text fill="#000000" font-family="sans-serif" font-size="11" lengthAdjust="spacing" textLength="46" x="244" y="114.1245">-country</text><text fill="#000000" font-family="sans-serif" font-size="11" lengthAdjust="spacing" textLength="47" x="244" y="126.9292">-latitude</text><text fill="#000000" font-family="sans-serif" font-size="11" lengthAdjust="spacing" textLength="57" x="244" y="139.7339">-longitude</text><line style="stroke:#A80036;stroke-width:1.5;" x1="239" x2="306" y1="146.3281" y2="146.3281"/><!--MD5=[99d8f1361a72f685c413d1fd21efef1c]
class PortManager--><rect codeLine="12" fill="#FEFECE" filter="url(#f13t5n555tb8d4)" height="73.6094" id="PortManager" style="stroke:#A80036;stroke-width:1.5;" width="107" x="7" y="7"/><ellipse cx="22" cy="23" fill="#ADD1B2" rx="11" ry="11" style="stroke:#A80036;stroke-width:1.0;"/><path d="M24.3438,18.6719 C23.4063,18.2344 22.8125,18.0938 21.9375,18.0938 C19.3125,18.0938 17.3125,20.1719 17.3125,22.8906 L17.3125,24.0156 C17.3125,26.5938 19.4219,28.4844 22.3125,28.4844 C23.5313,28.4844 24.6875,28.1875 25.4375,27.6406 C26.0156,27.2344 26.3438,26.7813 26.3438,26.3906 C26.3438,25.9375 25.9531,25.5469 25.4844,25.5469 C25.2656,25.5469 25.0625,25.625 24.875,25.8125 C24.4219,26.2969 24.4219,26.2969 24.2344,26.3906 C23.8125,26.6563 23.125,26.7813 22.3594,26.7813 C20.3125,26.7813 19.0156,25.6875 19.0156,23.9844 L19.0156,22.8906 C19.0156,21.1094 20.2656,19.7969 22,19.7969 C22.5781,19.7969 23.1875,19.9531 23.6563,20.2031 C24.1406,20.4844 24.3125,20.7031 24.4063,21.1094 C24.4688,21.5156 24.5,21.6406 24.6406,21.7656 C24.7813,21.9063 25.0156,22.0156 25.2344,22.0156 C25.5,22.0156 25.7656,21.875 25.9375,21.6563 C26.0469,21.5 26.0781,21.3125 26.0781,20.8906 L26.0781,19.4688 C26.0781,19.0313 26.0625,18.9063 25.9688,18.75 C25.8125,18.4844 25.5313,18.3438 25.2344,18.3438 C24.9375,18.3438 24.7344,18.4375 24.5156,18.75 L24.3438,18.6719 Z " fill="#000000"/><text fill="#000000" font-family="sans-serif" font-size="12" lengthAdjust="spacing" textLength="75" x="36" y="27.1543">PortManager</text><line style="stroke:#A80036;stroke-width:1.5;" x1="8" x2="113" y1="39" y2="39"/><text fill="#000000" font-family="sans-serif" font-size="11" lengthAdjust="spacing" textLength="41" x="13" y="53.2104">-userID</text><text fill="#000000" font-family="sans-serif" font-size="11" lengthAdjust="spacing" textLength="37" x="13" y="66.0151">-name</text><line style="stroke:#A80036;stroke-width:1.5;" x1="8" x2="113" y1="72.6094" y2="72.6094"/><!--MD5=[4f1f3706c1a355a8488e154afcaed5df]
class Location--><rect codeLine="16" fill="#FEFECE" filter="url(#f13t5n555tb8d4)" height="73.6094" id="Location" style="stroke:#A80036;stroke-width:1.5;" width="82" x="436" y="55"/><ellipse cx="451" cy="71" fill="#ADD1B2" rx="11" ry="11" style="stroke:#A80036;stroke-width:1.0;"/><path d="M453.3438,66.6719 C452.4063,66.2344 451.8125,66.0938 450.9375,66.0938 C448.3125,66.0938 446.3125,68.1719 446.3125,70.8906 L446.3125,72.0156 C446.3125,74.5938 448.4219,76.4844 451.3125,76.4844 C452.5313,76.4844 453.6875,76.1875 454.4375,75.6406 C455.0156,75.2344 455.3438,74.7813 455.3438,74.3906 C455.3438,73.9375 454.9531,73.5469 454.4844,73.5469 C454.2656,73.5469 454.0625,73.625 453.875,73.8125 C453.4219,74.2969 453.4219,74.2969 453.2344,74.3906 C452.8125,74.6563 452.125,74.7813 451.3594,74.7813 C449.3125,74.7813 448.0156,73.6875 448.0156,71.9844 L448.0156,70.8906 C448.0156,69.1094 449.2656,67.7969 451,67.7969 C451.5781,67.7969 452.1875,67.9531 452.6563,68.2031 C453.1406,68.4844 453.3125,68.7031 453.4063,69.1094 C453.4688,69.5156 453.5,69.6406 453.6406,69.7656 C453.7813,69.9063 454.0156,70.0156 454.2344,70.0156 C454.5,70.0156 454.7656,69.875 454.9375,69.6563 C455.0469,69.5 455.0781,69.3125 455.0781,68.8906 L455.0781,67.4688 C455.0781,67.0313 455.0625,66.9063 454.9688,66.75 C454.8125,66.4844 454.5313,66.3438 454.2344,66.3438 C453.9375,66.3438 453.7344,66.4375 453.5156,66.75 L453.3438,66.6719 Z " fill="#000000"/><text fill="#000000" font-family="sans-serif" font-size="12" lengthAdjust="spacing" textLength="50" x="465" y="75.1543">Location</text><line style="stroke:#A80036;stroke-width:1.5;" x1="437" x2="517" y1="87" y2="87"/><text fill="#000000" font-family="sans-serif" font-size="11" lengthAdjust="spacing" textLength="47" x="442" y="101.2104">-latitude</text><text fill="#000000" font-family="sans-serif" font-size="11" lengthAdjust="spacing" textLength="57" x="442" y="114.0151">-longitude</text><line style="stroke:#A80036;stroke-width:1.5;" x1="437" x2="517" y1="120.6094" y2="120.6094"/><!--MD5=[02e4b9b7573f1156f41e60aa5b4e25a4]
class Company--><rect fill="#FEFECE" filter="url(#f13t5n555tb8d4)" height="48" id="Company" style="stroke:#A80036;stroke-width:1.5;" width="88" x="16.5" y="116"/><ellipse cx="31.5" cy="132" fill="#ADD1B2" rx="11" ry="11" style="stroke:#A80036;stroke-width:1.0;"/><path d="M33.8438,127.6719 C32.9063,127.2344 32.3125,127.0938 31.4375,127.0938 C28.8125,127.0938 26.8125,129.1719 26.8125,131.8906 L26.8125,133.0156 C26.8125,135.5938 28.9219,137.4844 31.8125,137.4844 C33.0313,137.4844 34.1875,137.1875 34.9375,136.6406 C35.5156,136.2344 35.8438,135.7813 35.8438,135.3906 C35.8438,134.9375 35.4531,134.5469 34.9844,134.5469 C34.7656,134.5469 34.5625,134.625 34.375,134.8125 C33.9219,135.2969 33.9219,135.2969 33.7344,135.3906 C33.3125,135.6563 32.625,135.7813 31.8594,135.7813 C29.8125,135.7813 28.5156,134.6875 28.5156,132.9844 L28.5156,131.8906 C28.5156,130.1094 29.7656,128.7969 31.5,128.7969 C32.0781,128.7969 32.6875,128.9531 33.1563,129.2031 C33.6406,129.4844 33.8125,129.7031 33.9063,130.1094 C33.9688,130.5156 34,130.6406 34.1406,130.7656 C34.2813,130.9063 34.5156,131.0156 34.7344,131.0156 C35,131.0156 35.2656,130.875 35.4375,130.6563 C35.5469,130.5 35.5781,130.3125 35.5781,129.8906 L35.5781,128.4688 C35.5781,128.0313 35.5625,127.9063 35.4688,127.75 C35.3125,127.4844 35.0313,127.3438 34.7344,127.3438 C34.4375,127.3438 34.2344,127.4375 34.0156,127.75 L33.8438,127.6719 Z " fill="#000000"/><text fill="#000000" font-family="sans-serif" font-size="12" lengthAdjust="spacing" textLength="56" x="45.5" y="136.1543">Company</text><line style="stroke:#A80036;stroke-width:1.5;" x1="17.5" x2="103.5" y1="148" y2="148"/><line style="stroke:#A80036;stroke-width:1.5;" x1="17.5" x2="103.5" y1="156" y2="156"/><!--MD5=[9eb8cece74e91f217f5849e8308bf70d]
link PortManager to Port--><path codeLine="22" d="M114.221,56.05 C151.01,64.4594 199.295,75.496 232.611,83.111 " fill="none" id="PortManager-to-Port" style="stroke:#A80036;stroke-width:1.0;"/><polygon fill="#A80036" points="237.825,84.3028,229.9427,78.3977,232.9507,83.1886,228.1599,86.1966,237.825,84.3028" style="stroke:#A80036;stroke-width:1.0;"/><polygon fill="#000000" points="153.8743,56.6805,145.7115,51.8,144.4017,57.5301,153.8743,56.6805" style="stroke:#000000;stroke-width:1.0;"/><text fill="#000000" font-family="sans-serif" font-size="13" lengthAdjust="spacing" textLength="49" x="158" y="60.0669">imports</text><text fill="#000000" font-family="sans-serif" font-size="13" lengthAdjust="spacing" textLength="8" x="121.9773" y="70.7791">1</text><text fill="#000000" font-family="sans-serif" font-size="13" lengthAdjust="spacing" textLength="23" x="206.8887" y="96.362">1..*</text><!--MD5=[8d70ee99540c41b6b173287b4c5b2064]
link Port to Location--><path codeLine="23" d="M307.394,92 C341.09,92 393.003,92 430.322,92 " fill="none" id="Port-to-Location" style="stroke:#A80036;stroke-width:1.0;"/><polygon fill="#A80036" points="435.718,92,426.718,88,430.718,92,426.718,96,435.718,92" style="stroke:#A80036;stroke-width:1.0;"/><polygon fill="#000000" points="347,83.5664,337.9549,80.6275,337.9549,86.5053,347,83.5664" style="stroke:#000000;stroke-width:1.0;"/><text fill="#000000" font-family="sans-serif" font-size="13" lengthAdjust="spacing" textLength="54" x="351" y="88.0669">contains</text><text fill="#000000" font-family="sans-serif" font-size="13" lengthAdjust="spacing" textLength="8" x="315.0513" y="105.5734">1</text><text fill="#000000" font-family="sans-serif" font-size="13" lengthAdjust="spacing" textLength="8" x="419.9352" y="105.4009">1</text><!--MD5=[5fd98a8c03cc0e5a408f548eb1c0ace8]
link Company to Port--><path codeLine="24" d="M104.5034,130.1707 C142.132,121.5699 196.31,109.1864 232.651,100.8798 " fill="none" id="Company-to-Port" style="stroke:#A80036;stroke-width:1.0;"/><polygon fill="#A80036" points="237.879,99.6848,228.2139,97.7911,233.0047,100.7991,229.9968,105.5899,237.879,99.6848" style="stroke:#A80036;stroke-width:1.0;"/><polygon fill="#000000" points="161.3743,98.4523,151.9017,97.6027,153.2115,103.3328,161.3743,98.4523" style="stroke:#000000;stroke-width:1.0;"/><text fill="#000000" font-family="sans-serif" font-size="13" lengthAdjust="spacing" textLength="34" x="165.5" y="104.0669">owns</text><text fill="#000000" font-family="sans-serif" font-size="13" lengthAdjust="spacing" textLength="8" x="112.454" y="141.8628">1</text><text fill="#000000" font-family="sans-serif" font-size="13" lengthAdjust="spacing" textLength="23" x="206.952" y="114.3878">1..*</text><!--MD5=[022fc87bf85c70bfde0a272e7254966c]
@startuml
skinparam classAttributeIconSize 0
left to right direction
class Port {
-portID
-name
-continent
-country
-latitude
-longitude
}

class PortManager{
-userID
-name
}
class Location{
-latitude
-longitude
}


PortManager "1" - -> "1..*" Port : imports >
Port "1" - -> "1" Location: contains >
Company"1" - -> "1..*" Port : owns >
@enduml

PlantUML version 1.2021.15beta2(Unknown compile time)
(GPL source distribution)
Java Runtime: Java(TM) SE Runtime Environment
JVM: Java HotSpot(TM) 64-Bit Server VM
Default Encoding: UTF-8
Language: en
Country: US
--></g></svg>