<?xml version="1.0" encoding="UTF-8" standalone="no"?><svg xmlns="http://www.w3.org/2000/svg" xmlns:xlink="http://www.w3.org/1999/xlink" contentScriptType="application/ecmascript" contentStyleType="text/css" height="305px" preserveAspectRatio="none" style="width:1478px;height:305px;background:#FFFFFF;" version="1.1" viewBox="0 0 1478 305" width="1478px" zoomAndPan="magnify"><defs><filter height="300%" id="f12bfor9xah7e8" width="300%" x="-1" y="-1"><feGaussianBlur result="blurOut" stdDeviation="2.0"/><feColorMatrix in="blurOut" result="blurOut2" type="matrix" values="0 0 0 0 0 0 0 0 0 0 0 0 0 0 0 0 0 0 .4 0"/><feOffset dx="4.0" dy="4.0" in="blurOut2" result="blurOut3"/><feBlend in="SourceGraphic" in2="blurOut3" mode="normal"/></filter></defs><g><!--MD5=[02e4b9b7573f1156f41e60aa5b4e25a4]
class Company--><rect codeLine="4" fill="#FEFECE" filter="url(#f12bfor9xah7e8)" height="73.6094" id="Company" style="stroke:#A80036;stroke-width:1.5;" width="128" x="212" y="164.5"/><ellipse cx="245" cy="180.5" fill="#ADD1B2" rx="11" ry="11" style="stroke:#A80036;stroke-width:1.0;"/><path d="M247.3438,176.1719 C246.4063,175.7344 245.8125,175.5938 244.9375,175.5938 C242.3125,175.5938 240.3125,177.6719 240.3125,180.3906 L240.3125,181.5156 C240.3125,184.0938 242.4219,185.9844 245.3125,185.9844 C246.5313,185.9844 247.6875,185.6875 248.4375,185.1406 C249.0156,184.7344 249.3438,184.2813 249.3438,183.8906 C249.3438,183.4375 248.9531,183.0469 248.4844,183.0469 C248.2656,183.0469 248.0625,183.125 247.875,183.3125 C247.4219,183.7969 247.4219,183.7969 247.2344,183.8906 C246.8125,184.1563 246.125,184.2813 245.3594,184.2813 C243.3125,184.2813 242.0156,183.1875 242.0156,181.4844 L242.0156,180.3906 C242.0156,178.6094 243.2656,177.2969 245,177.2969 C245.5781,177.2969 246.1875,177.4531 246.6563,177.7031 C247.1406,177.9844 247.3125,178.2031 247.4063,178.6094 C247.4688,179.0156 247.5,179.1406 247.6406,179.2656 C247.7813,179.4063 248.0156,179.5156 248.2344,179.5156 C248.5,179.5156 248.7656,179.375 248.9375,179.1563 C249.0469,179 249.0781,178.8125 249.0781,178.3906 L249.0781,176.9688 C249.0781,176.5313 249.0625,176.4063 248.9688,176.25 C248.8125,175.9844 248.5313,175.8438 248.2344,175.8438 C247.9375,175.8438 247.7344,175.9375 247.5156,176.25 L247.3438,176.1719 Z " fill="#000000"/><text fill="#000000" font-family="sans-serif" font-size="12" lengthAdjust="spacing" textLength="56" x="263" y="184.6543">Company</text><line style="stroke:#A80036;stroke-width:1.5;" x1="213" x2="339" y1="196.5" y2="196.5"/><text fill="#000000" font-family="sans-serif" font-size="11" lengthAdjust="spacing" textLength="116" x="218" y="210.7104">-portStore: PortStore</text><line style="stroke:#A80036;stroke-width:1.5;" x1="213" x2="339" y1="217.3047" y2="217.3047"/><text fill="#000000" font-family="sans-serif" font-size="11" lengthAdjust="spacing" textLength="88" x="218" y="231.5151">+getPortStore()</text><!--MD5=[4f1f3706c1a355a8488e154afcaed5df]
class Location--><rect codeLine="9" fill="#FEFECE" filter="url(#f12bfor9xah7e8)" height="112.0234" id="Location" style="stroke:#A80036;stroke-width:1.5;" width="121" x="1343" y="168.5"/><ellipse cx="1375.55" cy="184.5" fill="#ADD1B2" rx="11" ry="11" style="stroke:#A80036;stroke-width:1.0;"/><path d="M1377.8938,180.1719 C1376.9563,179.7344 1376.3625,179.5938 1375.4875,179.5938 C1372.8625,179.5938 1370.8625,181.6719 1370.8625,184.3906 L1370.8625,185.5156 C1370.8625,188.0938 1372.9719,189.9844 1375.8625,189.9844 C1377.0813,189.9844 1378.2375,189.6875 1378.9875,189.1406 C1379.5656,188.7344 1379.8938,188.2813 1379.8938,187.8906 C1379.8938,187.4375 1379.5031,187.0469 1379.0344,187.0469 C1378.8156,187.0469 1378.6125,187.125 1378.425,187.3125 C1377.9719,187.7969 1377.9719,187.7969 1377.7844,187.8906 C1377.3625,188.1563 1376.675,188.2813 1375.9094,188.2813 C1373.8625,188.2813 1372.5656,187.1875 1372.5656,185.4844 L1372.5656,184.3906 C1372.5656,182.6094 1373.8156,181.2969 1375.55,181.2969 C1376.1281,181.2969 1376.7375,181.4531 1377.2063,181.7031 C1377.6906,181.9844 1377.8625,182.2031 1377.9563,182.6094 C1378.0188,183.0156 1378.05,183.1406 1378.1906,183.2656 C1378.3313,183.4063 1378.5656,183.5156 1378.7844,183.5156 C1379.05,183.5156 1379.3156,183.375 1379.4875,183.1563 C1379.5969,183 1379.6281,182.8125 1379.6281,182.3906 L1379.6281,180.9688 C1379.6281,180.5313 1379.6125,180.4063 1379.5188,180.25 C1379.3625,179.9844 1379.0813,179.8438 1378.7844,179.8438 C1378.4875,179.8438 1378.2844,179.9375 1378.0656,180.25 L1377.8938,180.1719 Z " fill="#000000"/><text fill="#000000" font-family="sans-serif" font-size="12" lengthAdjust="spacing" textLength="50" x="1393.45" y="188.6543">Location</text><line style="stroke:#A80036;stroke-width:1.5;" x1="1344" x2="1463" y1="200.5" y2="200.5"/><text fill="#000000" font-family="sans-serif" font-size="11" lengthAdjust="spacing" textLength="93" x="1349" y="214.7104">-latitude: double</text><text fill="#000000" font-family="sans-serif" font-size="11" lengthAdjust="spacing" textLength="103" x="1349" y="227.5151">-longitude: double</text><line style="stroke:#A80036;stroke-width:1.5;" x1="1344" x2="1463" y1="234.1094" y2="234.1094"/><text fill="#000000" font-family="sans-serif" font-size="11" lengthAdjust="spacing" textLength="61" x="1349" y="248.3198">+toString()</text><text fill="#000000" font-family="sans-serif" font-size="11" lengthAdjust="spacing" textLength="78" x="1349" y="261.1245">+equals(ship)</text><text fill="#000000" font-family="sans-serif" font-size="11" lengthAdjust="spacing" textLength="109" x="1349" y="273.9292">+acessorMethods()</text><!--MD5=[a0bfe97ac0a38e6e74cc1c7c7b744b71]
class Port--><rect codeLine="17" fill="#FEFECE" filter="url(#f12bfor9xah7e8)" height="124.8281" id="Port" style="stroke:#A80036;stroke-width:1.5;" width="121" x="1007" y="7"/><ellipse cx="1051.75" cy="23" fill="#ADD1B2" rx="11" ry="11" style="stroke:#A80036;stroke-width:1.0;"/><path d="M1054.0938,18.6719 C1053.1563,18.2344 1052.5625,18.0938 1051.6875,18.0938 C1049.0625,18.0938 1047.0625,20.1719 1047.0625,22.8906 L1047.0625,24.0156 C1047.0625,26.5938 1049.1719,28.4844 1052.0625,28.4844 C1053.2813,28.4844 1054.4375,28.1875 1055.1875,27.6406 C1055.7656,27.2344 1056.0938,26.7813 1056.0938,26.3906 C1056.0938,25.9375 1055.7031,25.5469 1055.2344,25.5469 C1055.0156,25.5469 1054.8125,25.625 1054.625,25.8125 C1054.1719,26.2969 1054.1719,26.2969 1053.9844,26.3906 C1053.5625,26.6563 1052.875,26.7813 1052.1094,26.7813 C1050.0625,26.7813 1048.7656,25.6875 1048.7656,23.9844 L1048.7656,22.8906 C1048.7656,21.1094 1050.0156,19.7969 1051.75,19.7969 C1052.3281,19.7969 1052.9375,19.9531 1053.4063,20.2031 C1053.8906,20.4844 1054.0625,20.7031 1054.1563,21.1094 C1054.2188,21.5156 1054.25,21.6406 1054.3906,21.7656 C1054.5313,21.9063 1054.7656,22.0156 1054.9844,22.0156 C1055.25,22.0156 1055.5156,21.875 1055.6875,21.6563 C1055.7969,21.5 1055.8281,21.3125 1055.8281,20.8906 L1055.8281,19.4688 C1055.8281,19.0313 1055.8125,18.9063 1055.7188,18.75 C1055.5625,18.4844 1055.2813,18.3438 1054.9844,18.3438 C1054.6875,18.3438 1054.4844,18.4375 1054.2656,18.75 L1054.0938,18.6719 Z " fill="#000000"/><text fill="#000000" font-family="sans-serif" font-size="12" lengthAdjust="spacing" textLength="23" x="1072.25" y="27.1543">Port</text><line style="stroke:#A80036;stroke-width:1.5;" x1="1008" x2="1127" y1="39" y2="39"/><text fill="#000000" font-family="sans-serif" font-size="11" lengthAdjust="spacing" textLength="93" x="1013" y="53.2104">-continent:String</text><text fill="#000000" font-family="sans-serif" font-size="11" lengthAdjust="spacing" textLength="82" x="1013" y="66.0151">-country:String</text><text fill="#000000" font-family="sans-serif" font-size="11" lengthAdjust="spacing" textLength="49" x="1013" y="78.8198">-code:int</text><text fill="#000000" font-family="sans-serif" font-size="11" lengthAdjust="spacing" textLength="94" x="1013" y="91.6245">-namePort:String</text><text fill="#000000" font-family="sans-serif" font-size="11" lengthAdjust="spacing" textLength="102" x="1013" y="104.4292">-location: Location</text><line style="stroke:#A80036;stroke-width:1.5;" x1="1008" x2="1127" y1="111.0234" y2="111.0234"/><text fill="#000000" font-family="sans-serif" font-size="11" lengthAdjust="spacing" textLength="109" x="1013" y="125.2339">+acessorMethods()</text><!--MD5=[f70d2b281f9eefc1b49373c49159755a]
class PortStore--><rect codeLine="26" fill="#FEFECE" filter="url(#f12bfor9xah7e8)" height="99.2188" id="PortStore" style="stroke:#A80036;stroke-width:1.5;" width="336" x="456" y="142"/><ellipse cx="591.75" cy="158" fill="#ADD1B2" rx="11" ry="11" style="stroke:#A80036;stroke-width:1.0;"/><path d="M594.0938,153.6719 C593.1563,153.2344 592.5625,153.0938 591.6875,153.0938 C589.0625,153.0938 587.0625,155.1719 587.0625,157.8906 L587.0625,159.0156 C587.0625,161.5938 589.1719,163.4844 592.0625,163.4844 C593.2813,163.4844 594.4375,163.1875 595.1875,162.6406 C595.7656,162.2344 596.0938,161.7813 596.0938,161.3906 C596.0938,160.9375 595.7031,160.5469 595.2344,160.5469 C595.0156,160.5469 594.8125,160.625 594.625,160.8125 C594.1719,161.2969 594.1719,161.2969 593.9844,161.3906 C593.5625,161.6563 592.875,161.7813 592.1094,161.7813 C590.0625,161.7813 588.7656,160.6875 588.7656,158.9844 L588.7656,157.8906 C588.7656,156.1094 590.0156,154.7969 591.75,154.7969 C592.3281,154.7969 592.9375,154.9531 593.4063,155.2031 C593.8906,155.4844 594.0625,155.7031 594.1563,156.1094 C594.2188,156.5156 594.25,156.6406 594.3906,156.7656 C594.5313,156.9063 594.7656,157.0156 594.9844,157.0156 C595.25,157.0156 595.5156,156.875 595.6875,156.6563 C595.7969,156.5 595.8281,156.3125 595.8281,155.8906 L595.8281,154.4688 C595.8281,154.0313 595.8125,153.9063 595.7188,153.75 C595.5625,153.4844 595.2813,153.3438 594.9844,153.3438 C594.6875,153.3438 594.4844,153.4375 594.2656,153.75 L594.0938,153.6719 Z " fill="#000000"/><text fill="#000000" font-family="sans-serif" font-size="12" lengthAdjust="spacing" textLength="56" x="612.25" y="162.1543">PortStore</text><line style="stroke:#A80036;stroke-width:1.5;" x1="457" x2="791" y1="174" y2="174"/><text fill="#000000" font-family="sans-serif" font-size="11" lengthAdjust="spacing" textLength="147" x="462" y="188.2104">-KDTree &lt;Port&gt; portStore</text><line style="stroke:#A80036;stroke-width:1.5;" x1="457" x2="791" y1="194.8047" y2="194.8047"/><text fill="#000000" font-family="sans-serif" font-size="11" lengthAdjust="spacing" textLength="324" x="462" y="209.0151">+createPort(continent, country, code, namePort, location)</text><text fill="#000000" font-family="sans-serif" font-size="11" lengthAdjust="spacing" textLength="181" x="462" y="221.8198">+insert(port, longitude, latitude)</text><text fill="#000000" font-family="sans-serif" font-size="11" lengthAdjust="spacing" textLength="57" x="462" y="234.6245">+getPort()</text><!--MD5=[e9680dcbbd57ee38dfd053ffcea751cd]
class KDTree--><rect codeLine="33" fill="#FEFECE" filter="url(#f12bfor9xah7e8)" height="73.6094" id="KDTree" style="stroke:#A80036;stroke-width:1.5;" width="319" x="908" y="167.5"/><ellipse cx="1040.75" cy="183.5" fill="#ADD1B2" rx="11" ry="11" style="stroke:#A80036;stroke-width:1.0;"/><path d="M1043.0938,179.1719 C1042.1563,178.7344 1041.5625,178.5938 1040.6875,178.5938 C1038.0625,178.5938 1036.0625,180.6719 1036.0625,183.3906 L1036.0625,184.5156 C1036.0625,187.0938 1038.1719,188.9844 1041.0625,188.9844 C1042.2813,188.9844 1043.4375,188.6875 1044.1875,188.1406 C1044.7656,187.7344 1045.0938,187.2813 1045.0938,186.8906 C1045.0938,186.4375 1044.7031,186.0469 1044.2344,186.0469 C1044.0156,186.0469 1043.8125,186.125 1043.625,186.3125 C1043.1719,186.7969 1043.1719,186.7969 1042.9844,186.8906 C1042.5625,187.1563 1041.875,187.2813 1041.1094,187.2813 C1039.0625,187.2813 1037.7656,186.1875 1037.7656,184.4844 L1037.7656,183.3906 C1037.7656,181.6094 1039.0156,180.2969 1040.75,180.2969 C1041.3281,180.2969 1041.9375,180.4531 1042.4063,180.7031 C1042.8906,180.9844 1043.0625,181.2031 1043.1563,181.6094 C1043.2188,182.0156 1043.25,182.1406 1043.3906,182.2656 C1043.5313,182.4063 1043.7656,182.5156 1043.9844,182.5156 C1044.25,182.5156 1044.5156,182.375 1044.6875,182.1563 C1044.7969,182 1044.8281,181.8125 1044.8281,181.3906 L1044.8281,179.9688 C1044.8281,179.5313 1044.8125,179.4063 1044.7188,179.25 C1044.5625,178.9844 1044.2813,178.8438 1043.9844,178.8438 C1043.6875,178.8438 1043.4844,178.9375 1043.2656,179.25 L1043.0938,179.1719 Z " fill="#000000"/><text fill="#000000" font-family="sans-serif" font-size="12" lengthAdjust="spacing" textLength="45" x="1061.25" y="187.6543">KDTree</text><line style="stroke:#A80036;stroke-width:1.5;" x1="909" x2="1226" y1="199.5" y2="199.5"/><line style="stroke:#A80036;stroke-width:1.5;" x1="909" x2="1226" y1="207.5" y2="207.5"/><text fill="#000000" font-family="sans-serif" font-size="11" lengthAdjust="spacing" textLength="181" x="914" y="221.7104">+insert(port, longitude, latitude)</text><text fill="#000000" font-family="sans-serif" font-size="11" lengthAdjust="spacing" textLength="307" x="914" y="234.5151">+findNearestNeighbour(node, x, y, closestNode, divX)</text><!--MD5=[da03f592567b03e32cb6bdc47c445822]
class ImportPorts--><rect codeLine="38" fill="#FEFECE" filter="url(#f12bfor9xah7e8)" height="60.8047" id="ImportPorts" style="stroke:#A80036;stroke-width:1.5;" width="144" x="7" y="231"/><ellipse cx="41.35" cy="247" fill="#ADD1B2" rx="11" ry="11" style="stroke:#A80036;stroke-width:1.0;"/><path d="M43.6938,242.6719 C42.7563,242.2344 42.1625,242.0938 41.2875,242.0938 C38.6625,242.0938 36.6625,244.1719 36.6625,246.8906 L36.6625,248.0156 C36.6625,250.5938 38.7719,252.4844 41.6625,252.4844 C42.8813,252.4844 44.0375,252.1875 44.7875,251.6406 C45.3656,251.2344 45.6938,250.7813 45.6938,250.3906 C45.6938,249.9375 45.3031,249.5469 44.8344,249.5469 C44.6156,249.5469 44.4125,249.625 44.225,249.8125 C43.7719,250.2969 43.7719,250.2969 43.5844,250.3906 C43.1625,250.6563 42.475,250.7813 41.7094,250.7813 C39.6625,250.7813 38.3656,249.6875 38.3656,247.9844 L38.3656,246.8906 C38.3656,245.1094 39.6156,243.7969 41.35,243.7969 C41.9281,243.7969 42.5375,243.9531 43.0063,244.2031 C43.4906,244.4844 43.6625,244.7031 43.7563,245.1094 C43.8188,245.5156 43.85,245.6406 43.9906,245.7656 C44.1313,245.9063 44.3656,246.0156 44.5844,246.0156 C44.85,246.0156 45.1156,245.875 45.2875,245.6563 C45.3969,245.5 45.4281,245.3125 45.4281,244.8906 L45.4281,243.4688 C45.4281,243.0313 45.4125,242.9063 45.3188,242.75 C45.1625,242.4844 44.8813,242.3438 44.5844,242.3438 C44.2875,242.3438 44.0844,242.4375 43.8656,242.75 L43.6938,242.6719 Z " fill="#000000"/><text fill="#000000" font-family="sans-serif" font-size="12" lengthAdjust="spacing" textLength="69" x="59.65" y="251.1543">ImportPorts</text><line style="stroke:#A80036;stroke-width:1.5;" x1="8" x2="150" y1="263" y2="263"/><line style="stroke:#A80036;stroke-width:1.5;" x1="8" x2="150" y1="271" y2="271"/><text fill="#000000" font-family="sans-serif" font-size="11" lengthAdjust="spacing" textLength="132" x="13" y="285.2104">+importPorts(fileName)</text><!--MD5=[57af8a611034e79a860f03a13d55c1db]
link ImportPorts to Location--><path codeLine="43" d="M151.286,279.4485 C187.997,287.1885 233.626,294.5 275,294.5 C275,294.5 275,294.5 1068.5,294.5 C1163.77,294.5 1271.15,266.8785 1337.82,246.3373 " fill="none" id="ImportPorts-to-Location" style="stroke:#A80036;stroke-width:1.0;"/><polygon fill="#A80036" points="1342.95,244.7469,1333.1712,243.5743,1338.1717,246.2192,1335.5268,251.2197,1342.95,244.7469" style="stroke:#A80036;stroke-width:1.0;"/><!--MD5=[9238026396c45a7b792b5e668392f5ac]
link ImportPorts to Company--><path codeLine="44" d="M151.227,239.5839 C169.327,234.0149 188.732,228.0441 206.683,222.5207 " fill="none" id="ImportPorts-to-Company" style="stroke:#A80036;stroke-width:1.0;stroke-dasharray:7.0,7.0;"/><polygon fill="#A80036" points="211.705,220.9754,201.9264,219.8009,206.9264,222.4468,204.2806,227.4467,211.705,220.9754" style="stroke:#A80036;stroke-width:1.0;"/><!--MD5=[5a03d6507d51d9583d52cfaf8d4720dd]
link Company to PortStore--><path codeLine="45" d="M340.059,199.6775 C371.399,198.7717 410.957,197.6284 450.481,196.4861 " fill="none" id="Company-to-PortStore" style="stroke:#A80036;stroke-width:1.0;"/><polygon fill="#A80036" points="455.804,196.3323,446.6913,192.5963,450.8061,196.478,446.9244,200.5929,455.804,196.3323" style="stroke:#A80036;stroke-width:1.0;"/><text fill="#000000" font-family="sans-serif" font-size="13" lengthAdjust="spacing" textLength="54" x="371" y="192.5669">contains</text><text fill="#000000" font-family="sans-serif" font-size="13" lengthAdjust="spacing" textLength="8" x="347.9283" y="212.4311">1</text><text fill="#000000" font-family="sans-serif" font-size="13" lengthAdjust="spacing" textLength="8" x="440.0014" y="208.9561">1</text><!--MD5=[c8440d88291d09ff9b1204d56899ac6f]
link PortStore to Port--><path codeLine="46" d="M792.227,145.29 C865.434,125.061 946.997,102.522 1002.002,87.323 " fill="none" id="PortStore-to-Port" style="stroke:#A80036;stroke-width:1.0;"/><polygon fill="#A80036" points="1006.909,85.967,997.1689,84.5077,1002.0895,87.2983,999.2989,92.2189,1006.909,85.967" style="stroke:#A80036;stroke-width:1.0;"/><text fill="#000000" font-family="sans-serif" font-size="13" lengthAdjust="spacing" textLength="54" x="823" y="119.5669">contains</text><text fill="#000000" font-family="sans-serif" font-size="13" lengthAdjust="spacing" textLength="8" x="800.031" y="155.6009">1</text><text fill="#000000" font-family="sans-serif" font-size="13" lengthAdjust="spacing" textLength="7" x="992.0979" y="100.9734">*</text><!--MD5=[8d70ee99540c41b6b173287b4c5b2064]
link Port to Location--><path codeLine="47" d="M1128.21,97.211 C1187.28,124.623 1277.4,166.446 1338.06,194.5963 " fill="none" id="Port-to-Location" style="stroke:#A80036;stroke-width:1.0;"/><polygon fill="#A80036" points="1342.74,196.7681,1336.2537,189.3567,1338.2028,194.6672,1332.8923,196.6163,1342.74,196.7681" style="stroke:#A80036;stroke-width:1.0;"/><text fill="#000000" font-family="sans-serif" font-size="13" lengthAdjust="spacing" textLength="54" x="1258" y="156.5669">contains</text><text fill="#000000" font-family="sans-serif" font-size="13" lengthAdjust="spacing" textLength="8" x="1136.0965" y="113.5878">1</text><text fill="#000000" font-family="sans-serif" font-size="13" lengthAdjust="spacing" textLength="8" x="1326.8474" y="206.3759">1</text><!--MD5=[ac190c9bcd29f0e150ce4358dab0a7df]
link PortStore to KDTree--><path codeLine="48" d="M792.227,196.424 C828.4,197.4891 866.614,198.6143 902.655,199.6756 " fill="none" id="PortStore-to-KDTree" style="stroke:#A80036;stroke-width:1.0;"/><polygon fill="#A80036" points="907.956,199.8317,899.0776,195.5686,902.9582,199.6846,898.8422,203.5651,907.956,199.8317" style="stroke:#A80036;stroke-width:1.0;"/><text fill="#000000" font-family="sans-serif" font-size="13" lengthAdjust="spacing" textLength="30" x="835" y="193.5669">uses</text><text fill="#000000" font-family="sans-serif" font-size="13" lengthAdjust="spacing" textLength="8" x="800.031" y="209.0519">1</text><text fill="#000000" font-family="sans-serif" font-size="13" lengthAdjust="spacing" textLength="8" x="892.0343" y="212.0484">1</text><!--MD5=[ffa251b1b788d32d6c4d18bf5fcf4db3]
@startuml
skinparam classAttributeIconSize 0
left to right direction

class Company{
-portStore: PortStore
+getPortStore()
}

class Location{
- latitude: double
- longitude: double
+toString()
+equals(ship)
+acessorMethods()
}

class "Port"{
-continent:String
-country:String
-code:int
-namePort:String
-location: Location
+acessorMethods()
}

class PortStore {
  -KDTree <Port> portStore
  +createPort(continent, country, code, namePort, location)
  +insert(port, longitude, latitude)
  +getPort()
}

class KDTree {
+insert(port, longitude, latitude)
+findNearestNeighbour(node, x, y, closestNode, divX)
}

class ImportPorts {
+importPorts(fileName)
}


ImportPorts - -> Location
ImportPorts ..> Company
Company "1" - -> "1" PortStore :contains
PortStore "1" - -> "*" Port: contains
Port "1" - -> "1" Location: contains
PortStore "1" - -> "1" KDTree: uses
@enduml

PlantUML version 1.2021.15beta3(Unknown compile time)
(GPL source distribution)
Java Runtime: Java(TM) SE Runtime Environment
JVM: Java HotSpot(TM) 64-Bit Server VM
Default Encoding: UTF-8
Language: en
Country: US
--></g></svg>