<?xml version="1.0" encoding="UTF-8" standalone="no"?><svg xmlns="http://www.w3.org/2000/svg" xmlns:xlink="http://www.w3.org/1999/xlink" contentScriptType="application/ecmascript" contentStyleType="text/css" height="518px" preserveAspectRatio="none" style="width:1268px;height:518px;background:#FFFFFF;" version="1.1" viewBox="0 0 1268 518" width="1268px" zoomAndPan="magnify"><defs><filter height="300%" id="f1ildyi3pu4kcr" width="300%" x="-1" y="-1"><feGaussianBlur result="blurOut" stdDeviation="2.0"/><feColorMatrix in="blurOut" result="blurOut2" type="matrix" values="0 0 0 0 0 0 0 0 0 0 0 0 0 0 0 0 0 0 .4 0"/><feOffset dx="4.0" dy="4.0" in="blurOut2" result="blurOut3"/><feBlend in="SourceGraphic" in2="blurOut3" mode="normal"/></filter></defs><g><!--MD5=[02e4b9b7573f1156f41e60aa5b4e25a4]
class Company--><rect codeLine="4" fill="#FEFECE" filter="url(#f1ildyi3pu4kcr)" height="73.6094" id="Company" style="stroke:#A80036;stroke-width:1.5;" width="128" x="212" y="357.5"/><ellipse cx="245" cy="373.5" fill="#ADD1B2" rx="11" ry="11" style="stroke:#A80036;stroke-width:1.0;"/><path d="M247.3438,369.1719 C246.4063,368.7344 245.8125,368.5938 244.9375,368.5938 C242.3125,368.5938 240.3125,370.6719 240.3125,373.3906 L240.3125,374.5156 C240.3125,377.0938 242.4219,378.9844 245.3125,378.9844 C246.5313,378.9844 247.6875,378.6875 248.4375,378.1406 C249.0156,377.7344 249.3438,377.2813 249.3438,376.8906 C249.3438,376.4375 248.9531,376.0469 248.4844,376.0469 C248.2656,376.0469 248.0625,376.125 247.875,376.3125 C247.4219,376.7969 247.4219,376.7969 247.2344,376.8906 C246.8125,377.1563 246.125,377.2813 245.3594,377.2813 C243.3125,377.2813 242.0156,376.1875 242.0156,374.4844 L242.0156,373.3906 C242.0156,371.6094 243.2656,370.2969 245,370.2969 C245.5781,370.2969 246.1875,370.4531 246.6563,370.7031 C247.1406,370.9844 247.3125,371.2031 247.4063,371.6094 C247.4688,372.0156 247.5,372.1406 247.6406,372.2656 C247.7813,372.4063 248.0156,372.5156 248.2344,372.5156 C248.5,372.5156 248.7656,372.375 248.9375,372.1563 C249.0469,372 249.0781,371.8125 249.0781,371.3906 L249.0781,369.9688 C249.0781,369.5313 249.0625,369.4063 248.9688,369.25 C248.8125,368.9844 248.5313,368.8438 248.2344,368.8438 C247.9375,368.8438 247.7344,368.9375 247.5156,369.25 L247.3438,369.1719 Z " fill="#000000"/><text fill="#000000" font-family="sans-serif" font-size="12" lengthAdjust="spacing" textLength="56" x="263" y="377.6543">Company</text><line style="stroke:#A80036;stroke-width:1.5;" x1="213" x2="339" y1="389.5" y2="389.5"/><text fill="#000000" font-family="sans-serif" font-size="11" lengthAdjust="spacing" textLength="116" x="218" y="403.7104">-portStore: PortStore</text><line style="stroke:#A80036;stroke-width:1.5;" x1="213" x2="339" y1="410.3047" y2="410.3047"/><text fill="#000000" font-family="sans-serif" font-size="11" lengthAdjust="spacing" textLength="88" x="218" y="424.5151">+getPortStore()</text><!--MD5=[4f1f3706c1a355a8488e154afcaed5df]
class Location--><rect codeLine="9" fill="#FEFECE" filter="url(#f1ildyi3pu4kcr)" height="112.0234" id="Location" style="stroke:#A80036;stroke-width:1.5;" width="121" x="1133" y="330.5"/><ellipse cx="1165.55" cy="346.5" fill="#ADD1B2" rx="11" ry="11" style="stroke:#A80036;stroke-width:1.0;"/><path d="M1167.8938,342.1719 C1166.9563,341.7344 1166.3625,341.5938 1165.4875,341.5938 C1162.8625,341.5938 1160.8625,343.6719 1160.8625,346.3906 L1160.8625,347.5156 C1160.8625,350.0938 1162.9719,351.9844 1165.8625,351.9844 C1167.0813,351.9844 1168.2375,351.6875 1168.9875,351.1406 C1169.5656,350.7344 1169.8938,350.2813 1169.8938,349.8906 C1169.8938,349.4375 1169.5031,349.0469 1169.0344,349.0469 C1168.8156,349.0469 1168.6125,349.125 1168.425,349.3125 C1167.9719,349.7969 1167.9719,349.7969 1167.7844,349.8906 C1167.3625,350.1563 1166.675,350.2813 1165.9094,350.2813 C1163.8625,350.2813 1162.5656,349.1875 1162.5656,347.4844 L1162.5656,346.3906 C1162.5656,344.6094 1163.8156,343.2969 1165.55,343.2969 C1166.1281,343.2969 1166.7375,343.4531 1167.2063,343.7031 C1167.6906,343.9844 1167.8625,344.2031 1167.9563,344.6094 C1168.0188,345.0156 1168.05,345.1406 1168.1906,345.2656 C1168.3313,345.4063 1168.5656,345.5156 1168.7844,345.5156 C1169.05,345.5156 1169.3156,345.375 1169.4875,345.1563 C1169.5969,345 1169.6281,344.8125 1169.6281,344.3906 L1169.6281,342.9688 C1169.6281,342.5313 1169.6125,342.4063 1169.5188,342.25 C1169.3625,341.9844 1169.0813,341.8438 1168.7844,341.8438 C1168.4875,341.8438 1168.2844,341.9375 1168.0656,342.25 L1167.8938,342.1719 Z " fill="#000000"/><text fill="#000000" font-family="sans-serif" font-size="12" lengthAdjust="spacing" textLength="50" x="1183.45" y="350.6543">Location</text><line style="stroke:#A80036;stroke-width:1.5;" x1="1134" x2="1253" y1="362.5" y2="362.5"/><text fill="#000000" font-family="sans-serif" font-size="11" lengthAdjust="spacing" textLength="93" x="1139" y="376.7104">-latitude: double</text><text fill="#000000" font-family="sans-serif" font-size="11" lengthAdjust="spacing" textLength="103" x="1139" y="389.5151">-longitude: double</text><line style="stroke:#A80036;stroke-width:1.5;" x1="1134" x2="1253" y1="396.1094" y2="396.1094"/><text fill="#000000" font-family="sans-serif" font-size="11" lengthAdjust="spacing" textLength="61" x="1139" y="410.3198">+toString()</text><text fill="#000000" font-family="sans-serif" font-size="11" lengthAdjust="spacing" textLength="78" x="1139" y="423.1245">+equals(ship)</text><text fill="#000000" font-family="sans-serif" font-size="11" lengthAdjust="spacing" textLength="109" x="1139" y="435.9292">+acessorMethods()</text><!--MD5=[a0bfe97ac0a38e6e74cc1c7c7b744b71]
class Port--><rect codeLine="17" fill="#FEFECE" filter="url(#f1ildyi3pu4kcr)" height="124.8281" id="Port" style="stroke:#A80036;stroke-width:1.5;" width="121" x="799.5" y="7"/><ellipse cx="844.25" cy="23" fill="#ADD1B2" rx="11" ry="11" style="stroke:#A80036;stroke-width:1.0;"/><path d="M846.5938,18.6719 C845.6563,18.2344 845.0625,18.0938 844.1875,18.0938 C841.5625,18.0938 839.5625,20.1719 839.5625,22.8906 L839.5625,24.0156 C839.5625,26.5938 841.6719,28.4844 844.5625,28.4844 C845.7813,28.4844 846.9375,28.1875 847.6875,27.6406 C848.2656,27.2344 848.5938,26.7813 848.5938,26.3906 C848.5938,25.9375 848.2031,25.5469 847.7344,25.5469 C847.5156,25.5469 847.3125,25.625 847.125,25.8125 C846.6719,26.2969 846.6719,26.2969 846.4844,26.3906 C846.0625,26.6563 845.375,26.7813 844.6094,26.7813 C842.5625,26.7813 841.2656,25.6875 841.2656,23.9844 L841.2656,22.8906 C841.2656,21.1094 842.5156,19.7969 844.25,19.7969 C844.8281,19.7969 845.4375,19.9531 845.9063,20.2031 C846.3906,20.4844 846.5625,20.7031 846.6563,21.1094 C846.7188,21.5156 846.75,21.6406 846.8906,21.7656 C847.0313,21.9063 847.2656,22.0156 847.4844,22.0156 C847.75,22.0156 848.0156,21.875 848.1875,21.6563 C848.2969,21.5 848.3281,21.3125 848.3281,20.8906 L848.3281,19.4688 C848.3281,19.0313 848.3125,18.9063 848.2188,18.75 C848.0625,18.4844 847.7813,18.3438 847.4844,18.3438 C847.1875,18.3438 846.9844,18.4375 846.7656,18.75 L846.5938,18.6719 Z " fill="#000000"/><text fill="#000000" font-family="sans-serif" font-size="12" lengthAdjust="spacing" textLength="23" x="864.75" y="27.1543">Port</text><line style="stroke:#A80036;stroke-width:1.5;" x1="800.5" x2="919.5" y1="39" y2="39"/><text fill="#000000" font-family="sans-serif" font-size="11" lengthAdjust="spacing" textLength="93" x="805.5" y="53.2104">-continent:String</text><text fill="#000000" font-family="sans-serif" font-size="11" lengthAdjust="spacing" textLength="82" x="805.5" y="66.0151">-country:String</text><text fill="#000000" font-family="sans-serif" font-size="11" lengthAdjust="spacing" textLength="49" x="805.5" y="78.8198">-code:int</text><text fill="#000000" font-family="sans-serif" font-size="11" lengthAdjust="spacing" textLength="94" x="805.5" y="91.6245">-namePort:String</text><text fill="#000000" font-family="sans-serif" font-size="11" lengthAdjust="spacing" textLength="102" x="805.5" y="104.4292">-location: Location</text><line style="stroke:#A80036;stroke-width:1.5;" x1="800.5" x2="919.5" y1="111.0234" y2="111.0234"/><text fill="#000000" font-family="sans-serif" font-size="11" lengthAdjust="spacing" textLength="109" x="805.5" y="125.2339">+acessorMethods()</text><!--MD5=[f70d2b281f9eefc1b49373c49159755a]
class PortStore--><rect codeLine="26" fill="#FEFECE" filter="url(#f1ildyi3pu4kcr)" height="99.2188" id="PortStore" style="stroke:#A80036;stroke-width:1.5;" width="131" x="456" y="263"/><ellipse cx="490.35" cy="279" fill="#ADD1B2" rx="11" ry="11" style="stroke:#A80036;stroke-width:1.0;"/><path d="M492.6938,274.6719 C491.7563,274.2344 491.1625,274.0938 490.2875,274.0938 C487.6625,274.0938 485.6625,276.1719 485.6625,278.8906 L485.6625,280.0156 C485.6625,282.5938 487.7719,284.4844 490.6625,284.4844 C491.8813,284.4844 493.0375,284.1875 493.7875,283.6406 C494.3656,283.2344 494.6938,282.7813 494.6938,282.3906 C494.6938,281.9375 494.3031,281.5469 493.8344,281.5469 C493.6156,281.5469 493.4125,281.625 493.225,281.8125 C492.7719,282.2969 492.7719,282.2969 492.5844,282.3906 C492.1625,282.6563 491.475,282.7813 490.7094,282.7813 C488.6625,282.7813 487.3656,281.6875 487.3656,279.9844 L487.3656,278.8906 C487.3656,277.1094 488.6156,275.7969 490.35,275.7969 C490.9281,275.7969 491.5375,275.9531 492.0063,276.2031 C492.4906,276.4844 492.6625,276.7031 492.7563,277.1094 C492.8188,277.5156 492.85,277.6406 492.9906,277.7656 C493.1313,277.9063 493.3656,278.0156 493.5844,278.0156 C493.85,278.0156 494.1156,277.875 494.2875,277.6563 C494.3969,277.5 494.4281,277.3125 494.4281,276.8906 L494.4281,275.4688 C494.4281,275.0313 494.4125,274.9063 494.3188,274.75 C494.1625,274.4844 493.8813,274.3438 493.5844,274.3438 C493.2875,274.3438 493.0844,274.4375 492.8656,274.75 L492.6938,274.6719 Z " fill="#000000"/><text fill="#000000" font-family="sans-serif" font-size="12" lengthAdjust="spacing" textLength="56" x="508.65" y="283.1543">PortStore</text><line style="stroke:#A80036;stroke-width:1.5;" x1="457" x2="586" y1="295" y2="295"/><text fill="#000000" font-family="sans-serif" font-size="11" lengthAdjust="spacing" textLength="119" x="462" y="309.2104">-KDTree&lt;Port&gt; store</text><line style="stroke:#A80036;stroke-width:1.5;" x1="457" x2="586" y1="315.8047" y2="315.8047"/><text fill="#000000" font-family="sans-serif" font-size="11" lengthAdjust="spacing" textLength="49" x="462" y="330.0151">+insert()</text><text fill="#000000" font-family="sans-serif" font-size="11" lengthAdjust="spacing" textLength="62" x="462" y="342.8198">+getSize()</text><text fill="#000000" font-family="sans-serif" font-size="11" lengthAdjust="spacing" textLength="113" x="462" y="355.6245">+addToList(port,x,y)</text><!--MD5=[e9680dcbbd57ee38dfd053ffcea751cd]
class KDTree--><rect codeLine="33" fill="#FEFECE" filter="url(#f1ildyi3pu4kcr)" height="291.2891" id="KDTree" style="stroke:#A80036;stroke-width:1.5;" width="314" x="703" y="167"/><ellipse cx="833.25" cy="183" fill="#ADD1B2" rx="11" ry="11" style="stroke:#A80036;stroke-width:1.0;"/><path d="M835.5938,178.6719 C834.6563,178.2344 834.0625,178.0938 833.1875,178.0938 C830.5625,178.0938 828.5625,180.1719 828.5625,182.8906 L828.5625,184.0156 C828.5625,186.5938 830.6719,188.4844 833.5625,188.4844 C834.7813,188.4844 835.9375,188.1875 836.6875,187.6406 C837.2656,187.2344 837.5938,186.7813 837.5938,186.3906 C837.5938,185.9375 837.2031,185.5469 836.7344,185.5469 C836.5156,185.5469 836.3125,185.625 836.125,185.8125 C835.6719,186.2969 835.6719,186.2969 835.4844,186.3906 C835.0625,186.6563 834.375,186.7813 833.6094,186.7813 C831.5625,186.7813 830.2656,185.6875 830.2656,183.9844 L830.2656,182.8906 C830.2656,181.1094 831.5156,179.7969 833.25,179.7969 C833.8281,179.7969 834.4375,179.9531 834.9063,180.2031 C835.3906,180.4844 835.5625,180.7031 835.6563,181.1094 C835.7188,181.5156 835.75,181.6406 835.8906,181.7656 C836.0313,181.9063 836.2656,182.0156 836.4844,182.0156 C836.75,182.0156 837.0156,181.875 837.1875,181.6563 C837.2969,181.5 837.3281,181.3125 837.3281,180.8906 L837.3281,179.4688 C837.3281,179.0313 837.3125,178.9063 837.2188,178.75 C837.0625,178.4844 836.7813,178.3438 836.4844,178.3438 C836.1875,178.3438 835.9844,178.4375 835.7656,178.75 L835.5938,178.6719 Z " fill="#000000"/><text fill="#000000" font-family="sans-serif" font-size="12" lengthAdjust="spacing" textLength="45" x="853.75" y="187.1543">KDTree</text><line style="stroke:#A80036;stroke-width:1.5;" x1="704" x2="1016" y1="199" y2="199"/><text fill="#000000" font-family="sans-serif" font-size="11" lengthAdjust="spacing" textLength="45" x="709" y="213.2104">-size:int</text><text fill="#000000" font-family="sans-serif" font-size="11" lengthAdjust="spacing" textLength="27" x="709" y="226.0151">-k:int</text><text fill="#000000" font-family="sans-serif" font-size="11" lengthAdjust="spacing" textLength="62" x="709" y="238.8198">-X_AXIS:int</text><text fill="#000000" font-family="sans-serif" font-size="11" lengthAdjust="spacing" textLength="61" x="709" y="251.6245">-Y_AXIS:int</text><line style="stroke:#A80036;stroke-width:1.5;" x1="704" x2="1016" y1="258.2188" y2="258.2188"/><text fill="#000000" font-family="sans-serif" font-size="11" lengthAdjust="spacing" textLength="68" x="709" y="272.4292">+Node(x, y)</text><text fill="#000000" font-family="sans-serif" font-size="11" lengthAdjust="spacing" textLength="224" x="709" y="285.2339">+Node(info, x, y, leftChild, rightChild, v)</text><text fill="#000000" font-family="sans-serif" font-size="11" lengthAdjust="spacing" textLength="121" x="709" y="298.0386">+addToList(port, x, y)</text><text fill="#000000" font-family="sans-serif" font-size="11" lengthAdjust="spacing" textLength="57" x="709" y="310.8433">+getPort()</text><text fill="#000000" font-family="sans-serif" font-size="11" lengthAdjust="spacing" textLength="150" x="709" y="323.6479">+compareAxis(node, axis)</text><text fill="#000000" font-family="sans-serif" font-size="11" lengthAdjust="spacing" textLength="48" x="709" y="336.4526">+cmpY()</text><text fill="#000000" font-family="sans-serif" font-size="11" lengthAdjust="spacing" textLength="49" x="709" y="349.2573">+cmpX()</text><text fill="#000000" font-family="sans-serif" font-size="11" lengthAdjust="spacing" textLength="71" x="709" y="362.062">+contains(p)</text><text fill="#000000" font-family="sans-serif" font-size="11" lengthAdjust="spacing" textLength="116" x="709" y="374.8667">-contains(node, x, y)</text><text fill="#000000" font-family="sans-serif" font-size="11" lengthAdjust="spacing" textLength="155" x="709" y="387.6714">+findNearestNeigbour(x, y)</text><text fill="#000000" font-family="sans-serif" font-size="11" lengthAdjust="spacing" textLength="302" x="709" y="400.4761">-findNearestNeighbour(node, x, y, closestNode, divX)</text><text fill="#000000" font-family="sans-serif" font-size="11" lengthAdjust="spacing" textLength="49" x="709" y="413.2808">+insert()</text><text fill="#000000" font-family="sans-serif" font-size="11" lengthAdjust="spacing" textLength="100" x="709" y="426.0854">-insert(list, depth)</text><text fill="#000000" font-family="sans-serif" font-size="11" lengthAdjust="spacing" textLength="41" x="709" y="438.8901">+size()</text><text fill="#000000" font-family="sans-serif" font-size="11" lengthAdjust="spacing" textLength="109" x="709" y="451.6948">+acessorMethods()</text><!--MD5=[da03f592567b03e32cb6bdc47c445822]
class ImportPorts--><rect codeLine="55" fill="#FEFECE" filter="url(#f1ildyi3pu4kcr)" height="60.8047" id="ImportPorts" style="stroke:#A80036;stroke-width:1.5;" width="144" x="7" y="442"/><ellipse cx="41.35" cy="458" fill="#ADD1B2" rx="11" ry="11" style="stroke:#A80036;stroke-width:1.0;"/><path d="M43.6938,453.6719 C42.7563,453.2344 42.1625,453.0938 41.2875,453.0938 C38.6625,453.0938 36.6625,455.1719 36.6625,457.8906 L36.6625,459.0156 C36.6625,461.5938 38.7719,463.4844 41.6625,463.4844 C42.8813,463.4844 44.0375,463.1875 44.7875,462.6406 C45.3656,462.2344 45.6938,461.7813 45.6938,461.3906 C45.6938,460.9375 45.3031,460.5469 44.8344,460.5469 C44.6156,460.5469 44.4125,460.625 44.225,460.8125 C43.7719,461.2969 43.7719,461.2969 43.5844,461.3906 C43.1625,461.6563 42.475,461.7813 41.7094,461.7813 C39.6625,461.7813 38.3656,460.6875 38.3656,458.9844 L38.3656,457.8906 C38.3656,456.1094 39.6156,454.7969 41.35,454.7969 C41.9281,454.7969 42.5375,454.9531 43.0063,455.2031 C43.4906,455.4844 43.6625,455.7031 43.7563,456.1094 C43.8188,456.5156 43.85,456.6406 43.9906,456.7656 C44.1313,456.9063 44.3656,457.0156 44.5844,457.0156 C44.85,457.0156 45.1156,456.875 45.2875,456.6563 C45.3969,456.5 45.4281,456.3125 45.4281,455.8906 L45.4281,454.4688 C45.4281,454.0313 45.4125,453.9063 45.3188,453.75 C45.1625,453.4844 44.8813,453.3438 44.5844,453.3438 C44.2875,453.3438 44.0844,453.4375 43.8656,453.75 L43.6938,453.6719 Z " fill="#000000"/><text fill="#000000" font-family="sans-serif" font-size="12" lengthAdjust="spacing" textLength="69" x="59.65" y="462.1543">ImportPorts</text><line style="stroke:#A80036;stroke-width:1.5;" x1="8" x2="150" y1="474" y2="474"/><line style="stroke:#A80036;stroke-width:1.5;" x1="8" x2="150" y1="482" y2="482"/><text fill="#000000" font-family="sans-serif" font-size="11" lengthAdjust="spacing" textLength="132" x="13" y="496.2104">+importPorts(fileName)</text><!--MD5=[57af8a611034e79a860f03a13d55c1db]
link ImportPorts to Location--><path codeLine="60" d="M151.094,493.7119 C187.756,502.8591 233.398,511.5 275,511.5 C275,511.5 275,511.5 861,511.5 C958.908,511.5 1063.23,463.1713 1128.13,426.615 " fill="none" id="ImportPorts-to-Location" style="stroke:#A80036;stroke-width:1.0;"/><polygon fill="#A80036" points="1132.73,424.0041,1122.9289,424.9726,1128.3828,426.4743,1126.8812,431.9282,1132.73,424.0041" style="stroke:#A80036;stroke-width:1.0;"/><!--MD5=[9238026396c45a7b792b5e668392f5ac]
link ImportPorts to Company--><path codeLine="61" d="M151.227,444.0091 C169.327,436.7693 188.732,429.0074 206.683,421.827 " fill="none" id="ImportPorts-to-Company" style="stroke:#A80036;stroke-width:1.0;stroke-dasharray:7.0,7.0;"/><polygon fill="#A80036" points="211.705,419.8181,201.8632,419.4444,207.0622,421.674,204.8326,426.8729,211.705,419.8181" style="stroke:#A80036;stroke-width:1.0;"/><!--MD5=[5a03d6507d51d9583d52cfaf8d4720dd]
link Company to PortStore--><path codeLine="62" d="M340.024,373.276 C373.87,361.879 415.678,347.799 450.529,336.063 " fill="none" id="Company-to-PortStore" style="stroke:#A80036;stroke-width:1.0;"/><polygon fill="#A80036" points="455.619,334.349,445.8131,333.4304,450.8805,335.9447,448.3662,341.0121,455.619,334.349" style="stroke:#A80036;stroke-width:1.0;"/><text fill="#000000" font-family="sans-serif" font-size="13" lengthAdjust="spacing" textLength="54" x="371" y="341.5669">contains</text><text fill="#000000" font-family="sans-serif" font-size="13" lengthAdjust="spacing" textLength="8" x="347.8893" y="383.7863">1</text><text fill="#000000" font-family="sans-serif" font-size="13" lengthAdjust="spacing" textLength="8" x="439.9758" y="349.6212">1</text><!--MD5=[c8440d88291d09ff9b1204d56899ac6f]
link PortStore to Port--><path codeLine="63" d="M570.504,262.743 C605.283,228.356 654.526,182.961 703,149.5 C731.532,129.805 765.558,111.798 794.54,97.876 " fill="none" id="PortStore-to-Port" style="stroke:#A80036;stroke-width:1.0;"/><polygon fill="#A80036" points="799.147,95.678,789.3018,95.9454,794.6348,97.832,792.7482,103.165,799.147,95.678" style="stroke:#A80036;stroke-width:1.0;"/><text fill="#000000" font-family="sans-serif" font-size="13" lengthAdjust="spacing" textLength="54" x="618" y="169.5669">contains</text><text fill="#000000" font-family="sans-serif" font-size="13" lengthAdjust="spacing" textLength="8" x="568.5514" y="252.1102">1</text><text fill="#000000" font-family="sans-serif" font-size="13" lengthAdjust="spacing" textLength="7" x="784.304" y="111.868">*</text><!--MD5=[8d70ee99540c41b6b173287b4c5b2064]
link Port to Location--><path codeLine="64" d="M920.83,92.396 C951.628,106.022 988.57,125.377 1017,149.5 C1076.43,199.923 1127.23,274.176 1158.66,326.093 " fill="none" id="Port-to-Location" style="stroke:#A80036;stroke-width:1.0;"/><polygon fill="#A80036" points="1161.26,330.417,1160.0451,320.6434,1158.6812,326.1333,1153.1913,324.7694,1161.26,330.417" style="stroke:#A80036;stroke-width:1.0;"/><text fill="#000000" font-family="sans-serif" font-size="13" lengthAdjust="spacing" textLength="54" x="1048" y="179.5669">contains</text><text fill="#000000" font-family="sans-serif" font-size="13" lengthAdjust="spacing" textLength="8" x="928.326" y="107.995">1</text><text fill="#000000" font-family="sans-serif" font-size="13" lengthAdjust="spacing" textLength="8" x="1148.6168" y="319.3443">1</text><!--MD5=[ac190c9bcd29f0e150ce4358dab0a7df]
link PortStore to KDTree--><path codeLine="65" d="M587.381,312.5 C619.001,312.5 658.574,312.5 697.65,312.5 " fill="none" id="PortStore-to-KDTree" style="stroke:#A80036;stroke-width:1.0;"/><polygon fill="#A80036" points="702.91,312.5,693.91,308.5,697.91,312.5,693.91,316.5,702.91,312.5" style="stroke:#A80036;stroke-width:1.0;"/><text fill="#000000" font-family="sans-serif" font-size="13" lengthAdjust="spacing" textLength="30" x="630" y="308.5669">uses</text><text fill="#000000" font-family="sans-serif" font-size="13" lengthAdjust="spacing" textLength="8" x="595.0242" y="325.3825">1</text><text fill="#000000" font-family="sans-serif" font-size="13" lengthAdjust="spacing" textLength="8" x="687.1072" y="324.9264">1</text><!--MD5=[2dbd41b2b7e01ea7667232c12c2de7c2]
@startuml
skinparam classAttributeIconSize 0
left to right direction

class Company{
-portStore: PortStore
+getPortStore()
}

class Location{
- latitude: double
- longitude: double
+toString()
+equals(ship)
+acessorMethods()
}

class "Port"{
-continent:String
-country:String
-code:int
-namePort:String
-location: Location
+acessorMethods()
}

class PortStore {
-KDTree<Port> store
+insert()
+getSize()
+addToList(port,x,y)
}

class KDTree {
  -size:int
-k:int
-X_AXIS:int
-Y_AXIS:int
  +Node(x, y)
  +Node(info, x, y, leftChild, rightChild, v)
  +addToList(port, x, y)
  +getPort()
+compareAxis(node, axis)
+cmpY()
+cmpX()
+contains(p)
-contains(node, x, y)
+findNearestNeigbour(x, y)
-findNearestNeighbour(node, x, y, closestNode, divX)
+insert()
-insert(list, depth)
+size()
+acessorMethods()
}

class ImportPorts {
+importPorts(fileName)
}


ImportPorts - -> Location
ImportPorts ..> Company
Company "1" - -> "1" PortStore :contains
PortStore "1" - -> "*" Port: contains
Port "1" - -> "1" Location: contains
PortStore "1" - -> "1" KDTree: uses
@enduml

PlantUML version 1.2021.16beta1(Unknown compile time)
(GPL source distribution)
Java Runtime: Java(TM) SE Runtime Environment
JVM: Java HotSpot(TM) 64-Bit Server VM
Default Encoding: UTF-8
Language: en
Country: US
--></g></svg>