<?xml version="1.0" encoding="UTF-8" standalone="no"?><svg xmlns="http://www.w3.org/2000/svg" xmlns:xlink="http://www.w3.org/1999/xlink" contentScriptType="application/ecmascript" contentStyleType="text/css" height="927px" preserveAspectRatio="none" style="width:1388px;height:927px;background:#FFFFFF;" version="1.1" viewBox="0 0 1388 927" width="1388px" zoomAndPan="magnify"><defs><filter height="300%" id="f3cywmszirtm6" width="300%" x="-1" y="-1"><feGaussianBlur result="blurOut" stdDeviation="2.0"/><feColorMatrix in="blurOut" result="blurOut2" type="matrix" values="0 0 0 0 0 0 0 0 0 0 0 0 0 0 0 0 0 0 .4 0"/><feOffset dx="4.0" dy="4.0" in="blurOut2" result="blurOut3"/><feBlend in="SourceGraphic" in2="blurOut3" mode="normal"/></filter></defs><g><rect fill="#FFFFFF" filter="url(#f3cywmszirtm6)" height="735.8516" style="stroke:#A80036;stroke-width:1.0;" width="10" x="49" y="98.2969"/><rect fill="#FFFFFF" filter="url(#f3cywmszirtm6)" height="29.1328" style="stroke:#A80036;stroke-width:1.0;" width="10" x="434" y="119.4297"/><rect fill="#FFFFFF" filter="url(#f3cywmszirtm6)" height="656.4531" style="stroke:#A80036;stroke-width:1.0;" width="10" x="434" y="177.6953"/><rect fill="#FFFFFF" filter="url(#f3cywmszirtm6)" height="589.1875" style="stroke:#A80036;stroke-width:1.0;" width="10" x="659" y="206.8281"/><rect fill="#FFFFFF" filter="url(#f3cywmszirtm6)" height="30" style="stroke:#A80036;stroke-width:1.0;" width="10" x="1312" y="729.8828"/><rect fill="#FFFFFF" filter="url(#f3cywmszirtm6)" height="377.5234" style="stroke:#000000;stroke-width:2.0;" width="775.5" x="598.5" y="390.3594"/><line style="stroke:#A80036;stroke-width:1.0;stroke-dasharray:5.0,5.0;" x1="54" x2="54" y1="88.2969" y2="843.1484"/><line style="stroke:#A80036;stroke-width:1.0;stroke-dasharray:5.0,5.0;" x1="438.5" x2="438.5" y1="88.2969" y2="843.1484"/><line style="stroke:#A80036;stroke-width:1.0;stroke-dasharray:5.0,5.0;" x1="663.5" x2="663.5" y1="88.2969" y2="843.1484"/><line style="stroke:#A80036;stroke-width:1.0;stroke-dasharray:5.0,5.0;" x1="930.5" x2="930.5" y1="88.2969" y2="843.1484"/><line style="stroke:#A80036;stroke-width:1.0;stroke-dasharray:5.0,5.0;" x1="1138" x2="1138" y1="696.1016" y2="843.1484"/><line style="stroke:#A80036;stroke-width:1.0;stroke-dasharray:5.0,5.0;" x1="1217" x2="1217" y1="650.8047" y2="843.1484"/><line style="stroke:#A80036;stroke-width:1.0;stroke-dasharray:5.0,5.0;" x1="1317" x2="1317" y1="88.2969" y2="843.1484"/><text fill="#000000" font-family="sans-serif" font-size="14" lengthAdjust="spacing" textLength="92" x="5" y="84.9951">PortManager</text><ellipse cx="54" cy="15" fill="#FEFECE" filter="url(#f3cywmszirtm6)" rx="8" ry="8" style="stroke:#A80036;stroke-width:2.0;"/><path d="M54,23 L54,50 M41,31 L67,31 M54,50 L41,65 M54,50 L67,65 " fill="none" filter="url(#f3cywmszirtm6)" style="stroke:#A80036;stroke-width:2.0;"/><text fill="#000000" font-family="sans-serif" font-size="14" lengthAdjust="spacing" textLength="92" x="5" y="855.1436">PortManager</text><ellipse cx="54" cy="868.4453" fill="#FEFECE" filter="url(#f3cywmszirtm6)" rx="8" ry="8" style="stroke:#A80036;stroke-width:2.0;"/><path d="M54,876.4453 L54,903.4453 M41,884.4453 L67,884.4453 M54,903.4453 L41,918.4453 M54,903.4453 L67,918.4453 " fill="none" filter="url(#f3cywmszirtm6)" style="stroke:#A80036;stroke-width:2.0;"/><rect fill="#FEFECE" filter="url(#f3cywmszirtm6)" height="30.2969" style="stroke:#A80036;stroke-width:1.5;" width="139" x="367.5" y="53"/><text fill="#000000" font-family="sans-serif" font-size="14" lengthAdjust="spacing" textLength="125" x="374.5" y="72.9951">:importPortsTest</text><rect fill="#FEFECE" filter="url(#f3cywmszirtm6)" height="30.2969" style="stroke:#A80036;stroke-width:1.5;" width="139" x="367.5" y="842.1484"/><text fill="#000000" font-family="sans-serif" font-size="14" lengthAdjust="spacing" textLength="125" x="374.5" y="862.1436">:importPortsTest</text><rect fill="#FEFECE" filter="url(#f3cywmszirtm6)" height="30.2969" style="stroke:#A80036;stroke-width:1.5;" width="107" x="608.5" y="53"/><text fill="#000000" font-family="sans-serif" font-size="14" lengthAdjust="spacing" textLength="93" x="615.5" y="72.9951">:importPorts</text><rect fill="#FEFECE" filter="url(#f3cywmszirtm6)" height="30.2969" style="stroke:#A80036;stroke-width:1.5;" width="107" x="608.5" y="842.1484"/><text fill="#000000" font-family="sans-serif" font-size="14" lengthAdjust="spacing" textLength="93" x="615.5" y="862.1436">:importPorts</text><rect fill="#FEFECE" filter="url(#f3cywmszirtm6)" height="30.2969" style="stroke:#A80036;stroke-width:1.5;" width="87" x="885.5" y="53"/><text fill="#000000" font-family="sans-serif" font-size="14" lengthAdjust="spacing" textLength="73" x="892.5" y="72.9951">:Company</text><rect fill="#FEFECE" filter="url(#f3cywmszirtm6)" height="30.2969" style="stroke:#A80036;stroke-width:1.5;" width="87" x="885.5" y="842.1484"/><text fill="#000000" font-family="sans-serif" font-size="14" lengthAdjust="spacing" textLength="73" x="892.5" y="862.1436">:Company</text><rect fill="#FEFECE" filter="url(#f3cywmszirtm6)" height="30.2969" style="stroke:#A80036;stroke-width:1.5;" width="50" x="1111" y="842.1484"/><text fill="#000000" font-family="sans-serif" font-size="14" lengthAdjust="spacing" textLength="36" x="1118" y="862.1436">:Port</text><rect fill="#FEFECE" filter="url(#f3cywmszirtm6)" height="30.2969" style="stroke:#A80036;stroke-width:1.5;" width="81" x="1175" y="842.1484"/><text fill="#000000" font-family="sans-serif" font-size="14" lengthAdjust="spacing" textLength="67" x="1182" y="862.1436">:Location</text><rect fill="#FEFECE" filter="url(#f3cywmszirtm6)" height="30.2969" style="stroke:#A80036;stroke-width:1.5;" width="90" x="1270" y="53"/><text fill="#000000" font-family="sans-serif" font-size="14" lengthAdjust="spacing" textLength="76" x="1277" y="72.9951">:PortStore</text><rect fill="#FEFECE" filter="url(#f3cywmszirtm6)" height="30.2969" style="stroke:#A80036;stroke-width:1.5;" width="90" x="1270" y="842.1484"/><text fill="#000000" font-family="sans-serif" font-size="14" lengthAdjust="spacing" textLength="76" x="1277" y="862.1436">:PortStore</text><rect fill="#FFFFFF" filter="url(#f3cywmszirtm6)" height="735.8516" style="stroke:#A80036;stroke-width:1.0;" width="10" x="49" y="98.2969"/><rect fill="#FFFFFF" filter="url(#f3cywmszirtm6)" height="29.1328" style="stroke:#A80036;stroke-width:1.0;" width="10" x="434" y="119.4297"/><rect fill="#FFFFFF" filter="url(#f3cywmszirtm6)" height="656.4531" style="stroke:#A80036;stroke-width:1.0;" width="10" x="434" y="177.6953"/><rect fill="#FFFFFF" filter="url(#f3cywmszirtm6)" height="589.1875" style="stroke:#A80036;stroke-width:1.0;" width="10" x="659" y="206.8281"/><rect fill="#FFFFFF" filter="url(#f3cywmszirtm6)" height="30" style="stroke:#A80036;stroke-width:1.0;" width="10" x="1312" y="729.8828"/><polygon fill="#A80036" points="422,115.4297,432,119.4297,422,123.4297,426,119.4297" style="stroke:#A80036;stroke-width:1.0;"/><line style="stroke:#A80036;stroke-width:1.0;" x1="59" x2="428" y1="119.4297" y2="119.4297"/><text fill="#000000" font-family="sans-serif" font-size="13" font-weight="bold" lengthAdjust="spacing" textLength="9" x="66" y="114.3638">1</text><text fill="#000000" font-family="sans-serif" font-size="13" lengthAdjust="spacing" textLength="343" x="79" y="114.3638">chooses to import ports' informations from a CSV File</text><polygon fill="#A80036" points="70,144.5625,60,148.5625,70,152.5625,66,148.5625" style="stroke:#A80036;stroke-width:1.0;"/><line style="stroke:#A80036;stroke-width:1.0;stroke-dasharray:2.0,2.0;" x1="64" x2="438" y1="148.5625" y2="148.5625"/><text fill="#000000" font-family="sans-serif" font-size="13" font-weight="bold" lengthAdjust="spacing" textLength="9" x="76" y="143.4966">2</text><text fill="#000000" font-family="sans-serif" font-size="13" lengthAdjust="spacing" textLength="278" x="89" y="143.4966">asks the name of the file it wants to import</text><polygon fill="#A80036" points="422,173.6953,432,177.6953,422,181.6953,426,177.6953" style="stroke:#A80036;stroke-width:1.0;"/><line style="stroke:#A80036;stroke-width:1.0;" x1="59" x2="428" y1="177.6953" y2="177.6953"/><text fill="#000000" font-family="sans-serif" font-size="13" font-weight="bold" lengthAdjust="spacing" textLength="8" x="66" y="172.6294">3</text><text fill="#000000" font-family="sans-serif" font-size="13" lengthAdjust="spacing" textLength="200" x="78" y="172.6294">writes the name of the CSV file</text><polygon fill="#A80036" points="647,202.8281,657,206.8281,647,210.8281,651,206.8281" style="stroke:#A80036;stroke-width:1.0;"/><line style="stroke:#A80036;stroke-width:1.0;" x1="444" x2="653" y1="206.8281" y2="206.8281"/><text fill="#000000" font-family="sans-serif" font-size="13" font-weight="bold" lengthAdjust="spacing" textLength="9" x="451" y="201.7622">4</text><text fill="#000000" font-family="sans-serif" font-size="13" lengthAdjust="spacing" textLength="142" x="464" y="201.7622">importPorts(fileName)</text><line style="stroke:#A80036;stroke-width:1.0;" x1="669" x2="711" y1="235.9609" y2="235.9609"/><line style="stroke:#A80036;stroke-width:1.0;" x1="711" x2="711" y1="235.9609" y2="248.9609"/><line style="stroke:#A80036;stroke-width:1.0;" x1="670" x2="711" y1="248.9609" y2="248.9609"/><polygon fill="#A80036" points="680,244.9609,670,248.9609,680,252.9609,676,248.9609" style="stroke:#A80036;stroke-width:1.0;"/><text fill="#000000" font-family="sans-serif" font-size="13" font-weight="bold" lengthAdjust="spacing" textLength="9" x="676" y="230.895">5</text><text fill="#000000" font-family="sans-serif" font-size="13" lengthAdjust="spacing" textLength="230" x="689" y="230.895">br = new BufferedReader(fileName)</text><line style="stroke:#A80036;stroke-width:1.0;" x1="669" x2="711" y1="278.0938" y2="278.0938"/><line style="stroke:#A80036;stroke-width:1.0;" x1="711" x2="711" y1="278.0938" y2="291.0938"/><line style="stroke:#A80036;stroke-width:1.0;" x1="670" x2="711" y1="291.0938" y2="291.0938"/><polygon fill="#A80036" points="680,287.0938,670,291.0938,680,295.0938,676,291.0938" style="stroke:#A80036;stroke-width:1.0;"/><text fill="#000000" font-family="sans-serif" font-size="13" font-weight="bold" lengthAdjust="spacing" textLength="9" x="676" y="273.0278">6</text><text fill="#000000" font-family="sans-serif" font-size="13" lengthAdjust="spacing" textLength="168" x="689" y="273.0278">String line = br.readLine();</text><line style="stroke:#A80036;stroke-width:1.0;" x1="669" x2="711" y1="320.2266" y2="320.2266"/><line style="stroke:#A80036;stroke-width:1.0;" x1="711" x2="711" y1="320.2266" y2="333.2266"/><line style="stroke:#A80036;stroke-width:1.0;" x1="670" x2="711" y1="333.2266" y2="333.2266"/><polygon fill="#A80036" points="680,329.2266,670,333.2266,680,337.2266,676,333.2266" style="stroke:#A80036;stroke-width:1.0;"/><text fill="#000000" font-family="sans-serif" font-size="13" font-weight="bold" lengthAdjust="spacing" textLength="9" x="676" y="315.1606">7</text><text fill="#000000" font-family="sans-serif" font-size="13" lengthAdjust="spacing" textLength="196" x="689" y="315.1606">String[] header = line.split(";");</text><line style="stroke:#A80036;stroke-width:1.0;" x1="669" x2="711" y1="362.3594" y2="362.3594"/><line style="stroke:#A80036;stroke-width:1.0;" x1="711" x2="711" y1="362.3594" y2="375.3594"/><line style="stroke:#A80036;stroke-width:1.0;" x1="670" x2="711" y1="375.3594" y2="375.3594"/><polygon fill="#A80036" points="680,371.3594,670,375.3594,680,379.3594,676,375.3594" style="stroke:#A80036;stroke-width:1.0;"/><text fill="#000000" font-family="sans-serif" font-size="13" font-weight="bold" lengthAdjust="spacing" textLength="9" x="676" y="357.2935">8</text><text fill="#000000" font-family="sans-serif" font-size="13" lengthAdjust="spacing" textLength="66" x="689" y="357.2935">port = null</text><path d="M598.5,390.3594 L676.5,390.3594 L676.5,397.3594 L666.5,407.3594 L598.5,407.3594 L598.5,390.3594 " fill="#EEEEEE" style="stroke:#000000;stroke-width:1.0;"/><rect fill="none" height="377.5234" style="stroke:#000000;stroke-width:2.0;" width="775.5" x="598.5" y="390.3594"/><text fill="#000000" font-family="sans-serif" font-size="13" font-weight="bold" lengthAdjust="spacing" textLength="33" x="613.5" y="403.4263">loop</text><text fill="#000000" font-family="sans-serif" font-size="11" font-weight="bold" lengthAdjust="spacing" textLength="323" x="691.5" y="402.5698">[for every line of the file (except the first line)]</text><line style="stroke:#A80036;stroke-width:1.0;" x1="669" x2="711" y1="428.625" y2="428.625"/><line style="stroke:#A80036;stroke-width:1.0;" x1="711" x2="711" y1="428.625" y2="441.625"/><line style="stroke:#A80036;stroke-width:1.0;" x1="670" x2="711" y1="441.625" y2="441.625"/><polygon fill="#A80036" points="680,437.625,670,441.625,680,445.625,676,441.625" style="stroke:#A80036;stroke-width:1.0;"/><text fill="#000000" font-family="sans-serif" font-size="13" font-weight="bold" lengthAdjust="spacing" textLength="9" x="676" y="423.5591">9</text><text fill="#000000" font-family="sans-serif" font-size="13" lengthAdjust="spacing" textLength="206" x="689" y="423.5591">String[] elements = line.split(";")</text><line style="stroke:#A80036;stroke-width:1.0;" x1="669" x2="711" y1="470.7578" y2="470.7578"/><line style="stroke:#A80036;stroke-width:1.0;" x1="711" x2="711" y1="470.7578" y2="483.7578"/><line style="stroke:#A80036;stroke-width:1.0;" x1="670" x2="711" y1="483.7578" y2="483.7578"/><polygon fill="#A80036" points="680,479.7578,670,483.7578,680,487.7578,676,483.7578" style="stroke:#A80036;stroke-width:1.0;"/><text fill="#000000" font-family="sans-serif" font-size="13" font-weight="bold" lengthAdjust="spacing" textLength="19" x="676" y="465.6919">10</text><text fill="#000000" font-family="sans-serif" font-size="13" lengthAdjust="spacing" textLength="122" x="699" y="465.6919">continent = text[0]</text><line style="stroke:#A80036;stroke-width:1.0;" x1="669" x2="711" y1="512.8906" y2="512.8906"/><line style="stroke:#A80036;stroke-width:1.0;" x1="711" x2="711" y1="512.8906" y2="525.8906"/><line style="stroke:#A80036;stroke-width:1.0;" x1="670" x2="711" y1="525.8906" y2="525.8906"/><polygon fill="#A80036" points="680,521.8906,670,525.8906,680,529.8906,676,525.8906" style="stroke:#A80036;stroke-width:1.0;"/><text fill="#000000" font-family="sans-serif" font-size="13" font-weight="bold" lengthAdjust="spacing" textLength="18" x="676" y="507.8247">11</text><text fill="#000000" font-family="sans-serif" font-size="13" lengthAdjust="spacing" textLength="111" x="698" y="507.8247">country = text[1]</text><line style="stroke:#A80036;stroke-width:1.0;" x1="669" x2="711" y1="555.0234" y2="555.0234"/><line style="stroke:#A80036;stroke-width:1.0;" x1="711" x2="711" y1="555.0234" y2="568.0234"/><line style="stroke:#A80036;stroke-width:1.0;" x1="670" x2="711" y1="568.0234" y2="568.0234"/><polygon fill="#A80036" points="680,564.0234,670,568.0234,680,572.0234,676,568.0234" style="stroke:#A80036;stroke-width:1.0;"/><text fill="#000000" font-family="sans-serif" font-size="13" font-weight="bold" lengthAdjust="spacing" textLength="18" x="676" y="549.9575">12</text><text fill="#000000" font-family="sans-serif" font-size="13" lengthAdjust="spacing" textLength="89" x="698" y="549.9575">code= text[2]</text><line style="stroke:#A80036;stroke-width:1.0;" x1="669" x2="711" y1="597.1563" y2="597.1563"/><line style="stroke:#A80036;stroke-width:1.0;" x1="711" x2="711" y1="597.1563" y2="610.1563"/><line style="stroke:#A80036;stroke-width:1.0;" x1="670" x2="711" y1="610.1563" y2="610.1563"/><polygon fill="#A80036" points="680,606.1563,670,610.1563,680,614.1563,676,610.1563" style="stroke:#A80036;stroke-width:1.0;"/><text fill="#000000" font-family="sans-serif" font-size="13" font-weight="bold" lengthAdjust="spacing" textLength="17" x="676" y="592.0903">13</text><text fill="#000000" font-family="sans-serif" font-size="13" lengthAdjust="spacing" textLength="125" x="697" y="592.0903">namePort = text[3]</text><polygon fill="#A80036" points="1163,635.2891,1173,639.2891,1163,643.2891,1167,639.2891" style="stroke:#A80036;stroke-width:1.0;"/><line style="stroke:#A80036;stroke-width:1.0;" x1="669" x2="1169" y1="639.2891" y2="639.2891"/><text fill="#000000" font-family="sans-serif" font-size="13" font-weight="bold" lengthAdjust="spacing" textLength="18" x="676" y="634.2231">14</text><text fill="#000000" font-family="sans-serif" font-size="13" lengthAdjust="spacing" textLength="278" x="698" y="634.2231">location = new Location(longitude, latitude)</text><rect fill="#FEFECE" filter="url(#f3cywmszirtm6)" height="30.2969" style="stroke:#A80036;stroke-width:1.5;" width="81" x="1175" y="618.1563"/><text fill="#000000" font-family="sans-serif" font-size="14" lengthAdjust="spacing" textLength="67" x="1182" y="638.1514">:Location</text><polygon fill="#A80036" points="1099,680.5859,1109,684.5859,1099,688.5859,1103,684.5859" style="stroke:#A80036;stroke-width:1.0;"/><line style="stroke:#A80036;stroke-width:1.0;" x1="669" x2="1105" y1="684.5859" y2="684.5859"/><text fill="#000000" font-family="sans-serif" font-size="13" font-weight="bold" lengthAdjust="spacing" textLength="18" x="676" y="679.52">15</text><text fill="#000000" font-family="sans-serif" font-size="13" lengthAdjust="spacing" textLength="396" x="698" y="679.52">port = new Port(continent, country, code, namePort, location)</text><rect fill="#FEFECE" filter="url(#f3cywmszirtm6)" height="30.2969" style="stroke:#A80036;stroke-width:1.5;" width="50" x="1111" y="663.4531"/><text fill="#000000" font-family="sans-serif" font-size="14" lengthAdjust="spacing" textLength="36" x="1118" y="683.4482">:Port</text><polygon fill="#A80036" points="1300,725.8828,1310,729.8828,1300,733.8828,1304,729.8828" style="stroke:#A80036;stroke-width:1.0;"/><line style="stroke:#A80036;stroke-width:1.0;" x1="669" x2="1306" y1="729.8828" y2="729.8828"/><text fill="#000000" font-family="sans-serif" font-size="13" font-weight="bold" lengthAdjust="spacing" textLength="18" x="676" y="724.8169">16</text><text fill="#000000" font-family="sans-serif" font-size="13" lengthAdjust="spacing" textLength="232" x="698" y="724.8169">ports.insert(port, longitude, latitude)</text><polygon fill="#A80036" points="455,792.0156,445,796.0156,455,800.0156,451,796.0156" style="stroke:#A80036;stroke-width:1.0;"/><line style="stroke:#A80036;stroke-width:1.0;stroke-dasharray:2.0,2.0;" x1="449" x2="663" y1="796.0156" y2="796.0156"/><text fill="#000000" font-family="sans-serif" font-size="13" font-weight="bold" lengthAdjust="spacing" textLength="18" x="461" y="790.9497">17</text><text fill="#000000" font-family="sans-serif" font-size="13" lengthAdjust="spacing" textLength="169" x="483" y="790.9497">informs operation success</text><polygon fill="#A80036" points="70,821.1484,60,825.1484,70,829.1484,66,825.1484" style="stroke:#A80036;stroke-width:1.0;"/><line style="stroke:#A80036;stroke-width:1.0;" x1="64" x2="433" y1="825.1484" y2="825.1484"/><text fill="#000000" font-family="sans-serif" font-size="13" font-weight="bold" lengthAdjust="spacing" textLength="18" x="76" y="820.0825">18</text><text fill="#000000" font-family="sans-serif" font-size="13" lengthAdjust="spacing" textLength="169" x="98" y="820.0825">informs operation success</text><!--MD5=[92519fe33b0d8fcffccec6f95972f0c2]
@startuml
autonumber
actor "PortManager" as REC

participant  ":importPortsTest" as LabCoo
participant ":importPorts" as UI
participant ":Company" as CMP
participant ":Port" as PORT

participant ":Location" as location
participant ":PortStore" as portStore




activate REC
REC -> LabCoo : chooses to import ports' informations from a CSV File
activate LabCoo
LabCoo - -> REC : asks the name of the file it wants to import
deactivate LabCoo
REC -> LabCoo : writes the name of the CSV file
activate LabCoo

LabCoo -> UI : importPorts(fileName)
activate UI



UI -> UI : br = new BufferedReader(fileName)
UI -> UI : String line = br.readLine();
UI -> UI : String[] header = line.split(";");




UI -> UI: port = null

loop for every line of the file (except the first line)

UI -> UI: String[] elements = line.split(";")
UI -> UI : continent = text[0]

UI -> UI : country = text[1]

UI -> UI : code= text[2]

UI -> UI : namePort = text[3]

UI -> location**: location = new Location(longitude, latitude)

UI -> PORT**: port = new Port(continent, country, code, namePort, location)


UI -> portStore: ports.insert(port, longitude, latitude)
activate portStore
deactivate portStore

end
deactivate portStore
UI - -> LabCoo : informs operation success

deactivate UI
LabCoo -> REC : informs operation success
@enduml

PlantUML version 1.2021.15beta3(Unknown compile time)
(GPL source distribution)
Java Runtime: Java(TM) SE Runtime Environment
JVM: Java HotSpot(TM) 64-Bit Server VM
Default Encoding: UTF-8
Language: en
Country: US
--></g></svg>