<?xml version="1.0" encoding="UTF-8" standalone="no"?><svg xmlns="http://www.w3.org/2000/svg" xmlns:xlink="http://www.w3.org/1999/xlink" contentScriptType="application/ecmascript" contentStyleType="text/css" height="549px" preserveAspectRatio="none" style="width:1616px;height:549px;background:#FFFFFF;" version="1.1" viewBox="0 0 1616 549" width="1616px" zoomAndPan="magnify"><defs><filter height="300%" id="f8gcx986su1ta" width="300%" x="-1" y="-1"><feGaussianBlur result="blurOut" stdDeviation="2.0"/><feColorMatrix in="blurOut" result="blurOut2" type="matrix" values="0 0 0 0 0 0 0 0 0 0 0 0 0 0 0 0 0 0 .4 0"/><feOffset dx="4.0" dy="4.0" in="blurOut2" result="blurOut3"/><feBlend in="SourceGraphic" in2="blurOut3" mode="normal"/></filter></defs><g><!--MD5=[82dc263f563d227779ba81db65b2fd4d]
class Identification--><rect codeLine="6" fill="#FEFECE" filter="url(#f8gcx986su1ta)" height="163.2422" id="Identification" style="stroke:#A80036;stroke-width:1.5;" width="291" x="352" y="7"/><ellipse cx="455.25" cy="23" fill="#ADD1B2" rx="11" ry="11" style="stroke:#A80036;stroke-width:1.0;"/><path d="M457.5938,18.6719 C456.6563,18.2344 456.0625,18.0938 455.1875,18.0938 C452.5625,18.0938 450.5625,20.1719 450.5625,22.8906 L450.5625,24.0156 C450.5625,26.5938 452.6719,28.4844 455.5625,28.4844 C456.7813,28.4844 457.9375,28.1875 458.6875,27.6406 C459.2656,27.2344 459.5938,26.7813 459.5938,26.3906 C459.5938,25.9375 459.2031,25.5469 458.7344,25.5469 C458.5156,25.5469 458.3125,25.625 458.125,25.8125 C457.6719,26.2969 457.6719,26.2969 457.4844,26.3906 C457.0625,26.6563 456.375,26.7813 455.6094,26.7813 C453.5625,26.7813 452.2656,25.6875 452.2656,23.9844 L452.2656,22.8906 C452.2656,21.1094 453.5156,19.7969 455.25,19.7969 C455.8281,19.7969 456.4375,19.9531 456.9063,20.2031 C457.3906,20.4844 457.5625,20.7031 457.6563,21.1094 C457.7188,21.5156 457.75,21.6406 457.8906,21.7656 C458.0313,21.9063 458.2656,22.0156 458.4844,22.0156 C458.75,22.0156 459.0156,21.875 459.1875,21.6563 C459.2969,21.5 459.3281,21.3125 459.3281,20.8906 L459.3281,19.4688 C459.3281,19.0313 459.3125,18.9063 459.2188,18.75 C459.0625,18.4844 458.7813,18.3438 458.4844,18.3438 C458.1875,18.3438 457.9844,18.4375 457.7656,18.75 L457.5938,18.6719 Z " fill="#000000"/><text fill="#000000" font-family="sans-serif" font-size="12" lengthAdjust="spacing" textLength="76" x="475.75" y="27.1543">Identification</text><line style="stroke:#A80036;stroke-width:1.5;" x1="353" x2="642" y1="39" y2="39"/><text fill="#000000" font-family="sans-serif" font-size="11" lengthAdjust="spacing" textLength="75" x="358" y="53.2104">-mmsi: String</text><text fill="#000000" font-family="sans-serif" font-size="11" lengthAdjust="spacing" textLength="101" x="358" y="66.0151">-shipName: String</text><text fill="#000000" font-family="sans-serif" font-size="11" lengthAdjust="spacing" textLength="77" x="358" y="78.8198">-imoID: String</text><text fill="#000000" font-family="sans-serif" font-size="11" lengthAdjust="spacing" textLength="112" x="358" y="91.6245">-searchCode: String</text><line style="stroke:#A80036;stroke-width:1.5;" x1="353" x2="642" y1="98.2188" y2="98.2188"/><text fill="#000000" font-family="sans-serif" font-size="11" lengthAdjust="spacing" textLength="61" x="358" y="112.4292">+toString()</text><text fill="#000000" font-family="sans-serif" font-size="11" lengthAdjust="spacing" textLength="78" x="358" y="125.2339">+equals(ship)</text><text fill="#000000" font-family="sans-serif" font-size="11" lengthAdjust="spacing" textLength="74" x="358" y="138.0386">+hashCode()</text><text fill="#000000" font-family="sans-serif" font-size="11" lengthAdjust="spacing" textLength="109" x="358" y="150.8433">+acessorMethods()</text><text fill="#000000" font-family="sans-serif" font-size="11" lengthAdjust="spacing" textLength="279" x="358" y="163.6479">+returnCodeAccordingToTheFormat(searchCode)</text><!--MD5=[9a305ff8ded9dfea1b145311e23eef54]
class ShipCharacteristics--><rect codeLine="19" fill="#FEFECE" filter="url(#f8gcx986su1ta)" height="150.4375" id="ShipCharacteristics" style="stroke:#A80036;stroke-width:1.5;" width="147" x="710" y="146.5"/><ellipse cx="725" cy="162.5" fill="#ADD1B2" rx="11" ry="11" style="stroke:#A80036;stroke-width:1.0;"/><path d="M727.3438,158.1719 C726.4063,157.7344 725.8125,157.5938 724.9375,157.5938 C722.3125,157.5938 720.3125,159.6719 720.3125,162.3906 L720.3125,163.5156 C720.3125,166.0938 722.4219,167.9844 725.3125,167.9844 C726.5313,167.9844 727.6875,167.6875 728.4375,167.1406 C729.0156,166.7344 729.3438,166.2813 729.3438,165.8906 C729.3438,165.4375 728.9531,165.0469 728.4844,165.0469 C728.2656,165.0469 728.0625,165.125 727.875,165.3125 C727.4219,165.7969 727.4219,165.7969 727.2344,165.8906 C726.8125,166.1563 726.125,166.2813 725.3594,166.2813 C723.3125,166.2813 722.0156,165.1875 722.0156,163.4844 L722.0156,162.3906 C722.0156,160.6094 723.2656,159.2969 725,159.2969 C725.5781,159.2969 726.1875,159.4531 726.6563,159.7031 C727.1406,159.9844 727.3125,160.2031 727.4063,160.6094 C727.4688,161.0156 727.5,161.1406 727.6406,161.2656 C727.7813,161.4063 728.0156,161.5156 728.2344,161.5156 C728.5,161.5156 728.7656,161.375 728.9375,161.1563 C729.0469,161 729.0781,160.8125 729.0781,160.3906 L729.0781,158.9688 C729.0781,158.5313 729.0625,158.4063 728.9688,158.25 C728.8125,157.9844 728.5313,157.8438 728.2344,157.8438 C727.9375,157.8438 727.7344,157.9375 727.5156,158.25 L727.3438,158.1719 Z " fill="#000000"/><text fill="#000000" font-family="sans-serif" font-size="12" lengthAdjust="spacing" textLength="115" x="739" y="166.6543">ShipCharacteristics</text><line style="stroke:#A80036;stroke-width:1.5;" x1="711" x2="856" y1="178.5" y2="178.5"/><text fill="#000000" font-family="sans-serif" font-size="11" lengthAdjust="spacing" textLength="92" x="716" y="192.7104">-vesselType: int</text><text fill="#000000" font-family="sans-serif" font-size="11" lengthAdjust="spacing" textLength="61" x="716" y="205.5151">-length: int</text><text fill="#000000" font-family="sans-serif" font-size="11" lengthAdjust="spacing" textLength="55" x="716" y="218.3198">-width: int</text><text fill="#000000" font-family="sans-serif" font-size="11" lengthAdjust="spacing" textLength="72" x="716" y="231.1245">-capacity: int</text><text fill="#000000" font-family="sans-serif" font-size="11" lengthAdjust="spacing" textLength="51" x="716" y="243.9292">-draft: int</text><text fill="#000000" font-family="sans-serif" font-size="11" lengthAdjust="spacing" textLength="101" x="716" y="256.7339">+acessorMethods</text><line style="stroke:#A80036;stroke-width:1.5;" x1="711" x2="856" y1="263.3281" y2="263.3281"/><text fill="#000000" font-family="sans-serif" font-size="11" lengthAdjust="spacing" textLength="61" x="716" y="277.5386">+toString()</text><text fill="#000000" font-family="sans-serif" font-size="11" lengthAdjust="spacing" textLength="78" x="716" y="290.3433">+equals(ship)</text><!--MD5=[0dc7f2ddb409b58bcf52b12238c25399]
class Ship--><rect codeLine="30" fill="#FEFECE" filter="url(#f8gcx986su1ta)" height="214.4609" id="Ship" style="stroke:#A80036;stroke-width:1.5;" width="225" x="1377" y="114.5"/><ellipse cx="1472.25" cy="130.5" fill="#ADD1B2" rx="11" ry="11" style="stroke:#A80036;stroke-width:1.0;"/><path d="M1474.5938,126.1719 C1473.6563,125.7344 1473.0625,125.5938 1472.1875,125.5938 C1469.5625,125.5938 1467.5625,127.6719 1467.5625,130.3906 L1467.5625,131.5156 C1467.5625,134.0938 1469.6719,135.9844 1472.5625,135.9844 C1473.7813,135.9844 1474.9375,135.6875 1475.6875,135.1406 C1476.2656,134.7344 1476.5938,134.2813 1476.5938,133.8906 C1476.5938,133.4375 1476.2031,133.0469 1475.7344,133.0469 C1475.5156,133.0469 1475.3125,133.125 1475.125,133.3125 C1474.6719,133.7969 1474.6719,133.7969 1474.4844,133.8906 C1474.0625,134.1563 1473.375,134.2813 1472.6094,134.2813 C1470.5625,134.2813 1469.2656,133.1875 1469.2656,131.4844 L1469.2656,130.3906 C1469.2656,128.6094 1470.5156,127.2969 1472.25,127.2969 C1472.8281,127.2969 1473.4375,127.4531 1473.9063,127.7031 C1474.3906,127.9844 1474.5625,128.2031 1474.6563,128.6094 C1474.7188,129.0156 1474.75,129.1406 1474.8906,129.2656 C1475.0313,129.4063 1475.2656,129.5156 1475.4844,129.5156 C1475.75,129.5156 1476.0156,129.375 1476.1875,129.1563 C1476.2969,129 1476.3281,128.8125 1476.3281,128.3906 L1476.3281,126.9688 C1476.3281,126.5313 1476.3125,126.4063 1476.2188,126.25 C1476.0625,125.9844 1475.7813,125.8438 1475.4844,125.8438 C1475.1875,125.8438 1474.9844,125.9375 1474.7656,126.25 L1474.5938,126.1719 Z " fill="#000000"/><text fill="#000000" font-family="sans-serif" font-size="12" lengthAdjust="spacing" textLength="26" x="1492.75" y="134.6543">Ship</text><line style="stroke:#A80036;stroke-width:1.5;" x1="1378" x2="1601" y1="146.5" y2="146.5"/><text fill="#000000" font-family="sans-serif" font-size="11" lengthAdjust="spacing" textLength="119" x="1383" y="160.7104">-idShip: Identification</text><text fill="#000000" font-family="sans-serif" font-size="11" lengthAdjust="spacing" textLength="200" x="1383" y="173.5151">-characteristics: ShipCharacteristics</text><text fill="#000000" font-family="sans-serif" font-size="11" lengthAdjust="spacing" textLength="70" x="1383" y="186.3198">-route:Route</text><line style="stroke:#A80036;stroke-width:1.5;" x1="1378" x2="1601" y1="192.9141" y2="192.9141"/><text fill="#000000" font-family="sans-serif" font-size="11" lengthAdjust="spacing" textLength="61" x="1383" y="207.1245">+toString()</text><text fill="#000000" font-family="sans-serif" font-size="11" lengthAdjust="spacing" textLength="78" x="1383" y="219.9292">+equals(ship)</text><text fill="#000000" font-family="sans-serif" font-size="11" lengthAdjust="spacing" textLength="136" x="1383" y="232.7339">+validateIdentification()</text><text fill="#000000" font-family="sans-serif" font-size="11" lengthAdjust="spacing" textLength="103" x="1383" y="245.5386">+validateEnergy()</text><text fill="#000000" font-family="sans-serif" font-size="11" lengthAdjust="spacing" textLength="146" x="1383" y="258.3433">+validateCharacteristics()</text><text fill="#000000" font-family="sans-serif" font-size="11" lengthAdjust="spacing" textLength="96" x="1383" y="271.1479">+validateRoute()</text><text fill="#000000" font-family="sans-serif" font-size="11" lengthAdjust="spacing" textLength="109" x="1383" y="283.9526">+acessorMethods()</text><text fill="#000000" font-family="sans-serif" font-size="11" lengthAdjust="spacing" textLength="0" x="1387" y="296.7573"/><text fill="#000000" font-family="sans-serif" font-size="11" lengthAdjust="spacing" textLength="213" x="1383" y="309.562">+Ship(idShip, energy, characteristics)</text><text fill="#000000" font-family="sans-serif" font-size="11" lengthAdjust="spacing" textLength="26" x="1383" y="322.3667">+...()</text><!--MD5=[ea2206eefe09474e90beb17e18e6b3d8]
class ShipStore--><rect codeLine="46" fill="#FEFECE" filter="url(#f8gcx986su1ta)" height="150.4375" id="ShipStore" style="stroke:#A80036;stroke-width:1.5;" width="393" x="924" y="146.5"/><ellipse cx="1086.75" cy="162.5" fill="#ADD1B2" rx="11" ry="11" style="stroke:#A80036;stroke-width:1.0;"/><path d="M1089.0938,158.1719 C1088.1563,157.7344 1087.5625,157.5938 1086.6875,157.5938 C1084.0625,157.5938 1082.0625,159.6719 1082.0625,162.3906 L1082.0625,163.5156 C1082.0625,166.0938 1084.1719,167.9844 1087.0625,167.9844 C1088.2813,167.9844 1089.4375,167.6875 1090.1875,167.1406 C1090.7656,166.7344 1091.0938,166.2813 1091.0938,165.8906 C1091.0938,165.4375 1090.7031,165.0469 1090.2344,165.0469 C1090.0156,165.0469 1089.8125,165.125 1089.625,165.3125 C1089.1719,165.7969 1089.1719,165.7969 1088.9844,165.8906 C1088.5625,166.1563 1087.875,166.2813 1087.1094,166.2813 C1085.0625,166.2813 1083.7656,165.1875 1083.7656,163.4844 L1083.7656,162.3906 C1083.7656,160.6094 1085.0156,159.2969 1086.75,159.2969 C1087.3281,159.2969 1087.9375,159.4531 1088.4063,159.7031 C1088.8906,159.9844 1089.0625,160.2031 1089.1563,160.6094 C1089.2188,161.0156 1089.25,161.1406 1089.3906,161.2656 C1089.5313,161.4063 1089.7656,161.5156 1089.9844,161.5156 C1090.25,161.5156 1090.5156,161.375 1090.6875,161.1563 C1090.7969,161 1090.8281,160.8125 1090.8281,160.3906 L1090.8281,158.9688 C1090.8281,158.5313 1090.8125,158.4063 1090.7188,158.25 C1090.5625,157.9844 1090.2813,157.8438 1089.9844,157.8438 C1089.6875,157.8438 1089.4844,157.9375 1089.2656,158.25 L1089.0938,158.1719 Z " fill="#000000"/><text fill="#000000" font-family="sans-serif" font-size="12" lengthAdjust="spacing" textLength="59" x="1107.25" y="166.6543">ShipStore</text><line style="stroke:#A80036;stroke-width:1.5;" x1="925" x2="1316" y1="178.5" y2="178.5"/><text fill="#000000" font-family="sans-serif" font-size="11" lengthAdjust="spacing" textLength="127" x="930" y="192.7104">-AVL&lt;Ship&gt; shipStore</text><line style="stroke:#A80036;stroke-width:1.5;" x1="925" x2="1316" y1="199.3047" y2="199.3047"/><text fill="#000000" font-family="sans-serif" font-size="11" lengthAdjust="spacing" textLength="122" x="930" y="213.5151">+addShipToAVL(ship)</text><text fill="#000000" font-family="sans-serif" font-size="11" lengthAdjust="spacing" textLength="143" x="930" y="226.3198">+organizeShipMessage()</text><text fill="#000000" font-family="sans-serif" font-size="11" lengthAdjust="spacing" textLength="381" x="930" y="239.1245">+getPositionOfShipPeriod(mmsi, baseDateTime1, baseDateTime2)</text><text fill="#000000" font-family="sans-serif" font-size="11" lengthAdjust="spacing" textLength="131" x="930" y="251.9292">+findShipDetails(code)</text><text fill="#000000" font-family="sans-serif" font-size="11" lengthAdjust="spacing" textLength="287" x="930" y="264.7339">+createShip(idShip, energy, characteristics, route)</text><text fill="#000000" font-family="sans-serif" font-size="11" lengthAdjust="spacing" textLength="93" x="930" y="277.5386">+saveShip(ship)</text><text fill="#000000" font-family="sans-serif" font-size="11" lengthAdjust="spacing" textLength="61" x="930" y="290.3433">+getShip()</text><!--MD5=[59eadd507c5bf63d898fd8343ac3483d]
class ImportShips--><rect codeLine="57" fill="#FEFECE" filter="url(#f8gcx986su1ta)" height="48" id="ImportShips" style="stroke:#A80036;stroke-width:1.5;" width="104" x="7" y="251.5"/><ellipse cx="22" cy="267.5" fill="#ADD1B2" rx="11" ry="11" style="stroke:#A80036;stroke-width:1.0;"/><path d="M24.3438,263.1719 C23.4063,262.7344 22.8125,262.5938 21.9375,262.5938 C19.3125,262.5938 17.3125,264.6719 17.3125,267.3906 L17.3125,268.5156 C17.3125,271.0938 19.4219,272.9844 22.3125,272.9844 C23.5313,272.9844 24.6875,272.6875 25.4375,272.1406 C26.0156,271.7344 26.3438,271.2813 26.3438,270.8906 C26.3438,270.4375 25.9531,270.0469 25.4844,270.0469 C25.2656,270.0469 25.0625,270.125 24.875,270.3125 C24.4219,270.7969 24.4219,270.7969 24.2344,270.8906 C23.8125,271.1563 23.125,271.2813 22.3594,271.2813 C20.3125,271.2813 19.0156,270.1875 19.0156,268.4844 L19.0156,267.3906 C19.0156,265.6094 20.2656,264.2969 22,264.2969 C22.5781,264.2969 23.1875,264.4531 23.6563,264.7031 C24.1406,264.9844 24.3125,265.2031 24.4063,265.6094 C24.4688,266.0156 24.5,266.1406 24.6406,266.2656 C24.7813,266.4063 25.0156,266.5156 25.2344,266.5156 C25.5,266.5156 25.7656,266.375 25.9375,266.1563 C26.0469,266 26.0781,265.8125 26.0781,265.3906 L26.0781,263.9688 C26.0781,263.5313 26.0625,263.4063 25.9688,263.25 C25.8125,262.9844 25.5313,262.8438 25.2344,262.8438 C24.9375,262.8438 24.7344,262.9375 24.5156,263.25 L24.3438,263.1719 Z " fill="#000000"/><text fill="#000000" font-family="sans-serif" font-size="12" lengthAdjust="spacing" textLength="72" x="36" y="271.6543">ImportShips</text><line style="stroke:#A80036;stroke-width:1.5;" x1="8" x2="110" y1="283.5" y2="283.5"/><line style="stroke:#A80036;stroke-width:1.5;" x1="8" x2="110" y1="291.5" y2="291.5"/><!--MD5=[19c2b9eb46691e25b02426140995a460]
class ShipDynamic--><rect codeLine="60" fill="#FEFECE" filter="url(#f8gcx986su1ta)" height="137.6328" id="ShipDynamic" style="stroke:#A80036;stroke-width:1.5;" width="156" x="419.5" y="305.5"/><ellipse cx="455.65" cy="321.5" fill="#ADD1B2" rx="11" ry="11" style="stroke:#A80036;stroke-width:1.0;"/><path d="M457.9938,317.1719 C457.0563,316.7344 456.4625,316.5938 455.5875,316.5938 C452.9625,316.5938 450.9625,318.6719 450.9625,321.3906 L450.9625,322.5156 C450.9625,325.0938 453.0719,326.9844 455.9625,326.9844 C457.1813,326.9844 458.3375,326.6875 459.0875,326.1406 C459.6656,325.7344 459.9938,325.2813 459.9938,324.8906 C459.9938,324.4375 459.6031,324.0469 459.1344,324.0469 C458.9156,324.0469 458.7125,324.125 458.525,324.3125 C458.0719,324.7969 458.0719,324.7969 457.8844,324.8906 C457.4625,325.1563 456.775,325.2813 456.0094,325.2813 C453.9625,325.2813 452.6656,324.1875 452.6656,322.4844 L452.6656,321.3906 C452.6656,319.6094 453.9156,318.2969 455.65,318.2969 C456.2281,318.2969 456.8375,318.4531 457.3063,318.7031 C457.7906,318.9844 457.9625,319.2031 458.0563,319.6094 C458.1188,320.0156 458.15,320.1406 458.2906,320.2656 C458.4313,320.4063 458.6656,320.5156 458.8844,320.5156 C459.15,320.5156 459.4156,320.375 459.5875,320.1563 C459.6969,320 459.7281,319.8125 459.7281,319.3906 L459.7281,317.9688 C459.7281,317.5313 459.7125,317.4063 459.6188,317.25 C459.4625,316.9844 459.1813,316.8438 458.8844,316.8438 C458.5875,316.8438 458.3844,316.9375 458.1656,317.25 L457.9938,317.1719 Z " fill="#000000"/><text fill="#000000" font-family="sans-serif" font-size="12" lengthAdjust="spacing" textLength="77" x="474.35" y="325.6543">ShipDynamic</text><line style="stroke:#A80036;stroke-width:1.5;" x1="420.5" x2="574.5" y1="337.5" y2="337.5"/><text fill="#000000" font-family="sans-serif" font-size="11" lengthAdjust="spacing" textLength="125" x="425.5" y="351.7104">-baseDateTime:String</text><text fill="#000000" font-family="sans-serif" font-size="11" lengthAdjust="spacing" textLength="98" x="425.5" y="364.5151">-location:Location</text><text fill="#000000" font-family="sans-serif" font-size="11" lengthAdjust="spacing" textLength="131" x="425.5" y="377.3198">-movement:Movement</text><text fill="#000000" font-family="sans-serif" font-size="11" lengthAdjust="spacing" textLength="71" x="425.5" y="390.1245">-cargo:String</text><text fill="#000000" font-family="sans-serif" font-size="11" lengthAdjust="spacing" textLength="134" x="425.5" y="402.9292">-transceiverClass:String</text><line style="stroke:#A80036;stroke-width:1.5;" x1="420.5" x2="574.5" y1="409.5234" y2="409.5234"/><text fill="#000000" font-family="sans-serif" font-size="11" lengthAdjust="spacing" textLength="144" x="425.5" y="423.7339">+getBaseDateTimeLDT()</text><text fill="#000000" font-family="sans-serif" font-size="11" lengthAdjust="spacing" textLength="109" x="425.5" y="436.5386">+acessorMethods()</text><!--MD5=[4f1f3706c1a355a8488e154afcaed5df]
class Location--><rect codeLine="70" fill="#FEFECE" filter="url(#f8gcx986su1ta)" height="99.2188" id="Location" style="stroke:#A80036;stroke-width:1.5;" width="121" x="171" y="277"/><ellipse cx="203.55" cy="293" fill="#ADD1B2" rx="11" ry="11" style="stroke:#A80036;stroke-width:1.0;"/><path d="M205.8938,288.6719 C204.9563,288.2344 204.3625,288.0938 203.4875,288.0938 C200.8625,288.0938 198.8625,290.1719 198.8625,292.8906 L198.8625,294.0156 C198.8625,296.5938 200.9719,298.4844 203.8625,298.4844 C205.0813,298.4844 206.2375,298.1875 206.9875,297.6406 C207.5656,297.2344 207.8938,296.7813 207.8938,296.3906 C207.8938,295.9375 207.5031,295.5469 207.0344,295.5469 C206.8156,295.5469 206.6125,295.625 206.425,295.8125 C205.9719,296.2969 205.9719,296.2969 205.7844,296.3906 C205.3625,296.6563 204.675,296.7813 203.9094,296.7813 C201.8625,296.7813 200.5656,295.6875 200.5656,293.9844 L200.5656,292.8906 C200.5656,291.1094 201.8156,289.7969 203.55,289.7969 C204.1281,289.7969 204.7375,289.9531 205.2063,290.2031 C205.6906,290.4844 205.8625,290.7031 205.9563,291.1094 C206.0188,291.5156 206.05,291.6406 206.1906,291.7656 C206.3313,291.9063 206.5656,292.0156 206.7844,292.0156 C207.05,292.0156 207.3156,291.875 207.4875,291.6563 C207.5969,291.5 207.6281,291.3125 207.6281,290.8906 L207.6281,289.4688 C207.6281,289.0313 207.6125,288.9063 207.5188,288.75 C207.3625,288.4844 207.0813,288.3438 206.7844,288.3438 C206.4875,288.3438 206.2844,288.4375 206.0656,288.75 L205.8938,288.6719 Z " fill="#000000"/><text fill="#000000" font-family="sans-serif" font-size="12" lengthAdjust="spacing" textLength="50" x="221.45" y="297.1543">Location</text><line style="stroke:#A80036;stroke-width:1.5;" x1="172" x2="291" y1="309" y2="309"/><text fill="#000000" font-family="sans-serif" font-size="11" lengthAdjust="spacing" textLength="93" x="177" y="323.2104">-longitude:String</text><text fill="#000000" font-family="sans-serif" font-size="11" lengthAdjust="spacing" textLength="83" x="177" y="336.0151">-latitude:String</text><line style="stroke:#A80036;stroke-width:1.5;" x1="172" x2="291" y1="342.6094" y2="342.6094"/><text fill="#000000" font-family="sans-serif" font-size="11" lengthAdjust="spacing" textLength="109" x="177" y="356.8198">+acessorMethods()</text><text fill="#000000" font-family="sans-serif" font-size="11" lengthAdjust="spacing" textLength="61" x="177" y="369.6245">+toString()</text><!--MD5=[fc92a9f5bb5fae84dd7fa4034e6b4444]
class Route--><rect codeLine="77" fill="#FEFECE" filter="url(#f8gcx986su1ta)" height="86.4141" id="Route" style="stroke:#A80036;stroke-width:1.5;" width="161" x="703" y="331.5"/><ellipse cx="762.25" cy="347.5" fill="#ADD1B2" rx="11" ry="11" style="stroke:#A80036;stroke-width:1.0;"/><path d="M764.5938,343.1719 C763.6563,342.7344 763.0625,342.5938 762.1875,342.5938 C759.5625,342.5938 757.5625,344.6719 757.5625,347.3906 L757.5625,348.5156 C757.5625,351.0938 759.6719,352.9844 762.5625,352.9844 C763.7813,352.9844 764.9375,352.6875 765.6875,352.1406 C766.2656,351.7344 766.5938,351.2813 766.5938,350.8906 C766.5938,350.4375 766.2031,350.0469 765.7344,350.0469 C765.5156,350.0469 765.3125,350.125 765.125,350.3125 C764.6719,350.7969 764.6719,350.7969 764.4844,350.8906 C764.0625,351.1563 763.375,351.2813 762.6094,351.2813 C760.5625,351.2813 759.2656,350.1875 759.2656,348.4844 L759.2656,347.3906 C759.2656,345.6094 760.5156,344.2969 762.25,344.2969 C762.8281,344.2969 763.4375,344.4531 763.9063,344.7031 C764.3906,344.9844 764.5625,345.2031 764.6563,345.6094 C764.7188,346.0156 764.75,346.1406 764.8906,346.2656 C765.0313,346.4063 765.2656,346.5156 765.4844,346.5156 C765.75,346.5156 766.0156,346.375 766.1875,346.1563 C766.2969,346 766.3281,345.8125 766.3281,345.3906 L766.3281,343.9688 C766.3281,343.5313 766.3125,343.4063 766.2188,343.25 C766.0625,342.9844 765.7813,342.8438 765.4844,342.8438 C765.1875,342.8438 764.9844,342.9375 764.7656,343.25 L764.5938,343.1719 Z " fill="#000000"/><text fill="#000000" font-family="sans-serif" font-size="12" lengthAdjust="spacing" textLength="34" x="782.75" y="351.6543">Route</text><line style="stroke:#A80036;stroke-width:1.5;" x1="704" x2="863" y1="363.5" y2="363.5"/><text fill="#000000" font-family="sans-serif" font-size="11" lengthAdjust="spacing" textLength="149" x="709" y="377.7104">-route:List&lt;ShipDynamic&gt;</text><line style="stroke:#A80036;stroke-width:1.5;" x1="704" x2="863" y1="384.3047" y2="384.3047"/><text fill="#000000" font-family="sans-serif" font-size="11" lengthAdjust="spacing" textLength="111" x="709" y="398.5151">+getShipDynamic()</text><text fill="#000000" font-family="sans-serif" font-size="11" lengthAdjust="spacing" textLength="109" x="709" y="411.3198">+acessorMethods()</text><!--MD5=[bc87bf052131b9ca3b54b8ba84b5b110]
class Movement--><rect codeLine="83" fill="#FEFECE" filter="url(#f8gcx986su1ta)" height="124.8281" id="Movement" style="stroke:#A80036;stroke-width:1.5;" width="121" x="171" y="411"/><ellipse cx="197.7" cy="427" fill="#ADD1B2" rx="11" ry="11" style="stroke:#A80036;stroke-width:1.0;"/><path d="M200.0438,422.6719 C199.1063,422.2344 198.5125,422.0938 197.6375,422.0938 C195.0125,422.0938 193.0125,424.1719 193.0125,426.8906 L193.0125,428.0156 C193.0125,430.5938 195.1219,432.4844 198.0125,432.4844 C199.2313,432.4844 200.3875,432.1875 201.1375,431.6406 C201.7156,431.2344 202.0438,430.7813 202.0438,430.3906 C202.0438,429.9375 201.6531,429.5469 201.1844,429.5469 C200.9656,429.5469 200.7625,429.625 200.575,429.8125 C200.1219,430.2969 200.1219,430.2969 199.9344,430.3906 C199.5125,430.6563 198.825,430.7813 198.0594,430.7813 C196.0125,430.7813 194.7156,429.6875 194.7156,427.9844 L194.7156,426.8906 C194.7156,425.1094 195.9656,423.7969 197.7,423.7969 C198.2781,423.7969 198.8875,423.9531 199.3563,424.2031 C199.8406,424.4844 200.0125,424.7031 200.1063,425.1094 C200.1688,425.5156 200.2,425.6406 200.3406,425.7656 C200.4813,425.9063 200.7156,426.0156 200.9344,426.0156 C201.2,426.0156 201.4656,425.875 201.6375,425.6563 C201.7469,425.5 201.7781,425.3125 201.7781,424.8906 L201.7781,423.4688 C201.7781,423.0313 201.7625,422.9063 201.6688,422.75 C201.5125,422.4844 201.2313,422.3438 200.9344,422.3438 C200.6375,422.3438 200.4344,422.4375 200.2156,422.75 L200.0438,422.6719 Z " fill="#000000"/><text fill="#000000" font-family="sans-serif" font-size="12" lengthAdjust="spacing" textLength="63" x="214.3" y="431.1543">Movement</text><line style="stroke:#A80036;stroke-width:1.5;" x1="172" x2="291" y1="443" y2="443"/><text fill="#000000" font-family="sans-serif" font-size="11" lengthAdjust="spacing" textLength="41" x="177" y="457.2104">-sog:int</text><text fill="#000000" font-family="sans-serif" font-size="11" lengthAdjust="spacing" textLength="41" x="177" y="470.0151">-cog:int</text><text fill="#000000" font-family="sans-serif" font-size="11" lengthAdjust="spacing" textLength="67" x="177" y="482.8198">-heading:int</text><line style="stroke:#A80036;stroke-width:1.5;" x1="172" x2="291" y1="489.4141" y2="489.4141"/><text fill="#000000" font-family="sans-serif" font-size="11" lengthAdjust="spacing" textLength="102" x="177" y="503.6245">+convertCog(cog)</text><text fill="#000000" font-family="sans-serif" font-size="11" lengthAdjust="spacing" textLength="109" x="177" y="516.4292">+acessorMethods()</text><text fill="#000000" font-family="sans-serif" font-size="11" lengthAdjust="spacing" textLength="61" x="177" y="529.2339">+toString()</text><!--MD5=[ecf0fdc6df089cc6f081e451a577ecd6]
link ImportShips to Identification--><path codeLine="92" d="M89.1294,251.487 C110.696,234.617 141.359,212.476 171,197.5 C226.247,169.587 290.245,146.381 346.799,128.658 " fill="none" id="ImportShips-to-Identification" style="stroke:#A80036;stroke-width:1.0;stroke-dasharray:7.0,7.0;"/><polygon fill="#A80036" points="351.899,127.068,342.1163,125.9282,347.1256,128.5563,344.4976,133.5656,351.899,127.068" style="stroke:#A80036;stroke-width:1.0;"/><!--MD5=[b613498df96574dc933e0e456b05a9be]
link ImportShips to ShipCharacteristics--><path codeLine="93" d="M111.009,267.263 C129.823,264.459 151.342,261.524 171,259.5 C362.314,239.8 588.429,228.972 704.748,224.31 " fill="none" id="ImportShips-to-ShipCharacteristics" style="stroke:#A80036;stroke-width:1.0;stroke-dasharray:7.0,7.0;"/><polygon fill="#A80036" points="709.862,224.106,700.7092,220.4692,704.866,224.306,701.0292,228.4628,709.862,224.106" style="stroke:#A80036;stroke-width:1.0;"/><!--MD5=[a6257afd4fcf439031adb95cb3a79487]
link ImportShips to Movement--><path codeLine="94" d="M80.9066,299.779 C103.7285,326.281 141.259,369.865 173.017,406.746 " fill="none" id="ImportShips-to-Movement" style="stroke:#A80036;stroke-width:1.0;stroke-dasharray:7.0,7.0;"/><polygon fill="#A80036" points="176.465,410.75,173.6227,401.3202,173.2021,406.9614,167.5609,406.5408,176.465,410.75" style="stroke:#A80036;stroke-width:1.0;"/><!--MD5=[6f64efe27e582d6770b68c62003cf591]
link ImportShips to Location--><path codeLine="95" d="M111.156,290.802 C128.37,295.951 147.806,301.764 165.917,307.182 " fill="none" id="ImportShips-to-Location" style="stroke:#A80036;stroke-width:1.0;stroke-dasharray:7.0,7.0;"/><polygon fill="#A80036" points="170.987,308.698,163.5109,302.2865,166.1967,307.2651,161.2182,309.9509,170.987,308.698" style="stroke:#A80036;stroke-width:1.0;"/><!--MD5=[801ba4c38298197731b6140270da2444]
link ShipCharacteristics to ShipStore--><path codeLine="96" d="M857.19,221.5 C875.807,221.5 896.754,221.5 918.485,221.5 " fill="none" id="ShipCharacteristics-to-ShipStore" style="stroke:#A80036;stroke-width:1.0;"/><polygon fill="#A80036" points="923.726,221.5,914.726,217.5,918.726,221.5,914.726,225.5,923.726,221.5" style="stroke:#A80036;stroke-width:1.0;"/><!--MD5=[1de74b7d934583784d3efc8da1611fdd]
link Identification to ShipStore--><path codeLine="97" d="M643.052,96.294 C710.786,101.983 792.198,111.76 864,128.5 C883.684,133.089 903.931,138.745 924.002,144.982 " fill="none" id="Identification-to-ShipStore" style="stroke:#A80036;stroke-width:1.0;"/><polygon fill="#A80036" points="928.825,146.493,921.4318,139.9861,924.0535,144.9987,919.0409,147.6204,928.825,146.493" style="stroke:#A80036;stroke-width:1.0;"/><!--MD5=[c9ac31e97cc00216da9abf3408012da6]
link ShipDynamic to Route--><path codeLine="98" d="M575.729,374.5 C613.456,374.5 658.946,374.5 697.642,374.5 " fill="none" id="ShipDynamic-to-Route" style="stroke:#A80036;stroke-width:1.0;"/><polygon fill="#A80036" points="702.812,374.5,693.812,370.5,697.812,374.5,693.812,378.5,702.812,374.5" style="stroke:#A80036;stroke-width:1.0;"/><!--MD5=[ff5f5c8cd259ad0188b63d14dc086cf5]
link Route to ShipStore--><path codeLine="99" d="M864.315,338.047 C890.309,326.175 920.226,312.512 950.219,298.813 " fill="none" id="Route-to-ShipStore" style="stroke:#A80036;stroke-width:1.0;"/><polygon fill="#A80036" points="955.033,296.615,945.1846,296.715,950.4848,298.692,948.5078,303.9921,955.033,296.615" style="stroke:#A80036;stroke-width:1.0;"/><!--MD5=[7e679fefda626554512f27693c41bc95]
link Location to ShipDynamic--><path codeLine="100" d="M292.076,337.332 C328.025,343.868 374.355,352.292 413.816,359.467 " fill="none" id="Location-to-ShipDynamic" style="stroke:#A80036;stroke-width:1.0;"/><polygon fill="#A80036" points="419.088,360.425,410.9487,354.8796,414.1687,359.5306,409.5176,362.7505,419.088,360.425" style="stroke:#A80036;stroke-width:1.0;"/><!--MD5=[6b6f95c8f746e5dc4fe2c77c1eb958e8]
link Movement to ShipDynamic--><path codeLine="101" d="M292.076,451.159 C328.172,437.623 374.733,420.163 414.299,405.325 " fill="none" id="Movement-to-ShipDynamic" style="stroke:#A80036;stroke-width:1.0;"/><polygon fill="#A80036" points="419.088,403.529,409.2566,402.9431,414.4062,405.2843,412.0651,410.434,419.088,403.529" style="stroke:#A80036;stroke-width:1.0;"/><!--MD5=[f04e04ecc6998d67821b33eb17256457]
link ShipStore to Ship--><path codeLine="102" d="M1317.09,221.5 C1335.53,221.5 1353.81,221.5 1371.17,221.5 " fill="none" id="ShipStore-to-Ship" style="stroke:#A80036;stroke-width:1.0;"/><polygon fill="#A80036" points="1376.53,221.5,1367.53,217.5,1371.53,221.5,1367.53,225.5,1376.53,221.5" style="stroke:#A80036;stroke-width:1.0;"/><text fill="#000000" font-family="sans-serif" font-size="13" lengthAdjust="spacing" textLength="8" x="1324.9255" y="233.8539">1</text><text fill="#000000" font-family="sans-serif" font-size="13" lengthAdjust="spacing" textLength="7" x="1362.0686" y="234.0369">*</text><!--MD5=[fabe094dfdcad3ae0cf950c1dc2c6492]
@startuml
skinparam classAttributeIconSize 0
left to right direction



class Identification {
-mmsi: String
-shipName: String
-imoID: String
-searchCode: String
+toString()
+equals(ship)
+hashCode()
+acessorMethods()
+returnCodeAccordingToTheFormat(searchCode)

}

class ShipCharacteristics {
- vesselType: int
- length: int
- width: int
- capacity: int
- draft: int
+toString()
+equals(ship)
+acessorMethods
}

Class "Ship"{
-idShip: Identification
-characteristics: ShipCharacteristics
-route:Route
+toString()
+equals(ship)
+validateIdentification()
+validateEnergy()
+validateCharacteristics()
+validateRoute()
+acessorMethods()

+Ship(idShip, energy, characteristics)
+...() 
}

class ShipStore {
  -AVL<Ship> shipStore
  +addShipToAVL(ship)
  +organizeShipMessage()
  +getPositionOfShipPeriod(mmsi, baseDateTime1, baseDateTime2)
  +findShipDetails(code)
  +createShip(idShip, energy, characteristics, route)
  +saveShip(ship)
  +getShip()
}

class ImportShips {
}

Class "ShipDynamic" {
-baseDateTime:String
-location:Location
-movement:Movement
-cargo:String
-transceiverClass:String
+getBaseDateTimeLDT()
+acessorMethods()
}

Class "Location" {
-longitude:String
-latitude:String
+acessorMethods()
+toString()
}

Class "Route" {
-route:List<ShipDynamic>
+getShipDynamic()
+acessorMethods()
}

Class "Movement" {
-sog:int
-cog:int
-heading:int
+convertCog(cog)
+acessorMethods()
+toString()
}

ImportShips ..> Identification 
ImportShips ..> ShipCharacteristics 
ImportShips ..> Movement
ImportShips ..> Location 
ShipCharacteristics - -> ShipStore 
Identification - -> ShipStore 
ShipDynamic - -> Route
Route - -> ShipStore 
Location - -> ShipDynamic
Movement - -> ShipDynamic
ShipStore "1" - -> "*" Ship
@enduml

PlantUML version 1.2021.14beta3(Unknown compile time)
(GPL source distribution)
Java Runtime: Java(TM) SE Runtime Environment
JVM: Java HotSpot(TM) 64-Bit Server VM
Default Encoding: UTF-8
Language: en
Country: US
--></g></svg>