<?xml version="1.0" encoding="UTF-8" standalone="no"?><svg xmlns="http://www.w3.org/2000/svg" xmlns:xlink="http://www.w3.org/1999/xlink" contentScriptType="application/ecmascript" contentStyleType="text/css" height="588px" preserveAspectRatio="none" style="width:1749px;height:588px;background:#FFFFFF;" version="1.1" viewBox="0 0 1749 588" width="1749px" zoomAndPan="magnify"><defs><filter height="300%" id="f19yizdjm6yre4" width="300%" x="-1" y="-1"><feGaussianBlur result="blurOut" stdDeviation="2.0"/><feColorMatrix in="blurOut" result="blurOut2" type="matrix" values="0 0 0 0 0 0 0 0 0 0 0 0 0 0 0 0 0 0 .4 0"/><feOffset dx="4.0" dy="4.0" in="blurOut2" result="blurOut3"/><feBlend in="SourceGraphic" in2="blurOut3" mode="normal"/></filter></defs><g><rect fill="#FFFFFF" filter="url(#f19yizdjm6yre4)" height="397.0547" style="stroke:#A80036;stroke-width:1.0;" width="10" x="57" y="98.2969"/><rect fill="#FFFFFF" filter="url(#f19yizdjm6yre4)" height="366.9219" style="stroke:#A80036;stroke-width:1.0;" width="10" x="187.5" y="119.4297"/><rect fill="#FFFFFF" filter="url(#f19yizdjm6yre4)" height="308.6563" style="stroke:#A80036;stroke-width:1.0;" width="10" x="544.5" y="148.5625"/><rect fill="#FFFFFF" filter="url(#f19yizdjm6yre4)" height="30" style="stroke:#A80036;stroke-width:1.0;" width="10" x="703.5" y="177.6953"/><rect fill="#FFFFFF" filter="url(#f19yizdjm6yre4)" height="155.9922" style="stroke:#A80036;stroke-width:1.0;" width="10" x="966.5" y="272.0938"/><line style="stroke:#A80036;stroke-width:1.0;stroke-dasharray:5.0,5.0;" x1="62" x2="62" y1="88.2969" y2="504.3516"/><line style="stroke:#A80036;stroke-width:1.0;stroke-dasharray:5.0,5.0;" x1="192" x2="192" y1="88.2969" y2="504.3516"/><line style="stroke:#A80036;stroke-width:1.0;stroke-dasharray:5.0,5.0;" x1="549.5" x2="549.5" y1="88.2969" y2="504.3516"/><line style="stroke:#A80036;stroke-width:1.0;stroke-dasharray:5.0,5.0;" x1="708" x2="708" y1="88.2969" y2="504.3516"/><line style="stroke:#A80036;stroke-width:1.0;stroke-dasharray:5.0,5.0;" x1="971.5" x2="971.5" y1="88.2969" y2="504.3516"/><line style="stroke:#A80036;stroke-width:1.0;stroke-dasharray:5.0,5.0;" x1="1460.5" x2="1460.5" y1="386.1563" y2="504.3516"/><line style="stroke:#A80036;stroke-width:1.0;stroke-dasharray:5.0,5.0;" x1="1635.5" x2="1635.5" y1="88.2969" y2="504.3516"/><line style="stroke:#A80036;stroke-width:1.0;stroke-dasharray:5.0,5.0;" x1="1706.5" x2="1706.5" y1="88.2969" y2="504.3516"/><text fill="#000000" font-family="sans-serif" font-size="14" lengthAdjust="spacing" textLength="108" x="5" y="84.9951">TrafficManager</text><ellipse cx="62" cy="15" fill="#FEFECE" filter="url(#f19yizdjm6yre4)" rx="8" ry="8" style="stroke:#A80036;stroke-width:2.0;"/><path d="M62,23 L62,50 M49,31 L75,31 M62,50 L49,65 M62,50 L75,65 " fill="none" filter="url(#f19yizdjm6yre4)" style="stroke:#A80036;stroke-width:2.0;"/><text fill="#000000" font-family="sans-serif" font-size="14" lengthAdjust="spacing" textLength="108" x="5" y="516.3467">TrafficManager</text><ellipse cx="62" cy="529.6484" fill="#FEFECE" filter="url(#f19yizdjm6yre4)" rx="8" ry="8" style="stroke:#A80036;stroke-width:2.0;"/><path d="M62,537.6484 L62,564.6484 M49,545.6484 L75,545.6484 M62,564.6484 L49,579.6484 M62,564.6484 L75,579.6484 " fill="none" filter="url(#f19yizdjm6yre4)" style="stroke:#A80036;stroke-width:2.0;"/><rect fill="#FEFECE" filter="url(#f19yizdjm6yre4)" height="30.2969" style="stroke:#A80036;stroke-width:1.5;" width="123" x="129" y="53"/><text fill="#000000" font-family="sans-serif" font-size="14" lengthAdjust="spacing" textLength="109" x="136" y="72.9951">:GetTopNShips</text><rect fill="#FEFECE" filter="url(#f19yizdjm6yre4)" height="30.2969" style="stroke:#A80036;stroke-width:1.5;" width="123" x="129" y="503.3516"/><text fill="#000000" font-family="sans-serif" font-size="14" lengthAdjust="spacing" textLength="109" x="136" y="523.3467">:GetTopNShips</text><rect fill="#FEFECE" filter="url(#f19yizdjm6yre4)" height="30.2969" style="stroke:#A80036;stroke-width:1.5;" width="124" x="485.5" y="53"/><text fill="#000000" font-family="sans-serif" font-size="14" lengthAdjust="spacing" textLength="110" x="492.5" y="72.9951">:ShipController</text><rect fill="#FEFECE" filter="url(#f19yizdjm6yre4)" height="30.2969" style="stroke:#A80036;stroke-width:1.5;" width="124" x="485.5" y="503.3516"/><text fill="#000000" font-family="sans-serif" font-size="14" lengthAdjust="spacing" textLength="110" x="492.5" y="523.3467">:ShipController</text><rect fill="#FEFECE" filter="url(#f19yizdjm6yre4)" height="30.2969" style="stroke:#A80036;stroke-width:1.5;" width="87" x="663" y="53"/><text fill="#000000" font-family="sans-serif" font-size="14" lengthAdjust="spacing" textLength="73" x="670" y="72.9951">:Company</text><rect fill="#FEFECE" filter="url(#f19yizdjm6yre4)" height="30.2969" style="stroke:#A80036;stroke-width:1.5;" width="87" x="663" y="503.3516"/><text fill="#000000" font-family="sans-serif" font-size="14" lengthAdjust="spacing" textLength="73" x="670" y="523.3467">:Company</text><rect fill="#FEFECE" filter="url(#f19yizdjm6yre4)" height="46.5938" style="stroke:#A80036;stroke-width:1.5;" width="86" x="926.5" y="36.7031"/><text fill="#000000" font-family="sans-serif" font-size="14" lengthAdjust="spacing" textLength="22" x="958.5" y="56.6982">sp:</text><text fill="#000000" font-family="sans-serif" font-size="14" lengthAdjust="spacing" textLength="72" x="933.5" y="72.9951">ShipStore</text><rect fill="#FEFECE" filter="url(#f19yizdjm6yre4)" height="46.5938" style="stroke:#A80036;stroke-width:1.5;" width="86" x="926.5" y="503.3516"/><text fill="#000000" font-family="sans-serif" font-size="14" lengthAdjust="spacing" textLength="22" x="958.5" y="523.3467">sp:</text><text fill="#000000" font-family="sans-serif" font-size="14" lengthAdjust="spacing" textLength="72" x="933.5" y="539.6436">ShipStore</text><rect fill="#FEFECE" filter="url(#f19yizdjm6yre4)" height="46.5938" style="stroke:#A80036;stroke-width:1.5;" width="271" x="1323.5" y="503.3516"/><text fill="#000000" font-family="sans-serif" font-size="14" lengthAdjust="spacing" textLength="42" x="1438" y="523.3467">ships:</text><text fill="#000000" font-family="sans-serif" font-size="14" lengthAdjust="spacing" textLength="253" x="1334.5" y="539.6436">Map &lt;Integer , List &lt;Ships&gt;&gt; ships</text><rect fill="#FEFECE" filter="url(#f19yizdjm6yre4)" height="30.2969" style="stroke:#A80036;stroke-width:1.5;" width="51" x="1608.5" y="53"/><text fill="#000000" font-family="sans-serif" font-size="14" lengthAdjust="spacing" textLength="37" x="1615.5" y="72.9951">:Ship</text><rect fill="#FEFECE" filter="url(#f19yizdjm6yre4)" height="30.2969" style="stroke:#A80036;stroke-width:1.5;" width="51" x="1608.5" y="503.3516"/><text fill="#000000" font-family="sans-serif" font-size="14" lengthAdjust="spacing" textLength="37" x="1615.5" y="523.3467">:Ship</text><rect fill="#FEFECE" filter="url(#f19yizdjm6yre4)" height="30.2969" style="stroke:#A80036;stroke-width:1.5;" width="62" x="1673.5" y="53"/><text fill="#000000" font-family="sans-serif" font-size="14" lengthAdjust="spacing" textLength="48" x="1680.5" y="72.9951">:Route</text><rect fill="#FEFECE" filter="url(#f19yizdjm6yre4)" height="30.2969" style="stroke:#A80036;stroke-width:1.5;" width="62" x="1673.5" y="503.3516"/><text fill="#000000" font-family="sans-serif" font-size="14" lengthAdjust="spacing" textLength="48" x="1680.5" y="523.3467">:Route</text><rect fill="#FFFFFF" filter="url(#f19yizdjm6yre4)" height="397.0547" style="stroke:#A80036;stroke-width:1.0;" width="10" x="57" y="98.2969"/><rect fill="#FFFFFF" filter="url(#f19yizdjm6yre4)" height="366.9219" style="stroke:#A80036;stroke-width:1.0;" width="10" x="187.5" y="119.4297"/><rect fill="#FFFFFF" filter="url(#f19yizdjm6yre4)" height="308.6563" style="stroke:#A80036;stroke-width:1.0;" width="10" x="544.5" y="148.5625"/><rect fill="#FFFFFF" filter="url(#f19yizdjm6yre4)" height="30" style="stroke:#A80036;stroke-width:1.0;" width="10" x="703.5" y="177.6953"/><rect fill="#FFFFFF" filter="url(#f19yizdjm6yre4)" height="155.9922" style="stroke:#A80036;stroke-width:1.0;" width="10" x="966.5" y="272.0938"/><polygon fill="#A80036" points="175.5,115.4297,185.5,119.4297,175.5,123.4297,179.5,119.4297" style="stroke:#A80036;stroke-width:1.0;"/><line style="stroke:#A80036;stroke-width:1.0;" x1="67" x2="181.5" y1="119.4297" y2="119.4297"/><text fill="#000000" font-family="sans-serif" font-size="13" lengthAdjust="spacing" textLength="37" x="74" y="114.3638">starts</text><polygon fill="#A80036" points="532.5,144.5625,542.5,148.5625,532.5,152.5625,536.5,148.5625" style="stroke:#A80036;stroke-width:1.0;"/><line style="stroke:#A80036;stroke-width:1.0;" x1="197.5" x2="538.5" y1="148.5625" y2="148.5625"/><text fill="#000000" font-family="sans-serif" font-size="13" lengthAdjust="spacing" textLength="328" x="204.5" y="143.4966">getTopNShips(n,baseDateTime1,baseDateTime2);;</text><polygon fill="#A80036" points="691.5,173.6953,701.5,177.6953,691.5,181.6953,695.5,177.6953" style="stroke:#A80036;stroke-width:1.0;"/><line style="stroke:#A80036;stroke-width:1.0;" x1="554.5" x2="697.5" y1="177.6953" y2="177.6953"/><text fill="#000000" font-family="sans-serif" font-size="13" lengthAdjust="spacing" textLength="130" x="561.5" y="172.6294">sp = getShipStore();</text><polygon fill="#A80036" points="954.5,268.0938,964.5,272.0938,954.5,276.0938,958.5,272.0938" style="stroke:#A80036;stroke-width:1.0;"/><line style="stroke:#A80036;stroke-width:1.0;" x1="554.5" x2="960.5" y1="272.0938" y2="272.0938"/><text fill="#000000" font-family="sans-serif" font-size="13" lengthAdjust="spacing" textLength="393" x="561.5" y="267.0278">ships = sp.getTopNShips(n,baseDateTime1,baseDateTime2);</text><path d="M981,220.6953 L981,305.6953 L1271,305.6953 L1271,230.6953 L1261,220.6953 L981,220.6953 " fill="#FBFB77" filter="url(#f19yizdjm6yre4)" style="stroke:#A80036;stroke-width:1.0;"/><path d="M1261,220.6953 L1261,230.6953 L1271,230.6953 L1261,220.6953 " fill="#FBFB77" style="stroke:#A80036;stroke-width:1.0;"/><text fill="#000000" font-family="sans-serif" font-size="13" lengthAdjust="spacing" textLength="259" x="987" y="237.7622">for getting the top n ships with the most</text><text fill="#000000" font-family="sans-serif" font-size="13" lengthAdjust="spacing" textLength="261" x="991" y="252.895">kilometres travelled and their mean SOG</text><text fill="#000000" font-family="sans-serif" font-size="13" lengthAdjust="spacing" textLength="241" x="991" y="268.0278">we need to access the Route method</text><text fill="#000000" font-family="sans-serif" font-size="13" lengthAdjust="spacing" textLength="230" x="991" y="283.1606">meanSOG() and distanceTravelled()</text><text fill="#000000" font-family="sans-serif" font-size="13" lengthAdjust="spacing" textLength="157" x="991" y="298.2935">(ex.ship.getMeanSOG()).</text><polygon fill="#A80036" points="1311.5,362.4922,1321.5,366.4922,1311.5,370.4922,1315.5,366.4922" style="stroke:#A80036;stroke-width:1.0;"/><line style="stroke:#A80036;stroke-width:1.0;stroke-dasharray:2.0,2.0;" x1="976.5" x2="1317.5" y1="366.4922" y2="366.4922"/><text fill="#000000" font-family="sans-serif" font-size="13" lengthAdjust="spacing" textLength="323" x="983.5" y="361.4263">getTopNShips(n,baseDateTime1,baseDateTime2);</text><rect fill="#FEFECE" filter="url(#f19yizdjm6yre4)" height="46.5938" style="stroke:#A80036;stroke-width:1.5;" width="271" x="1323.5" y="345.3594"/><text fill="#000000" font-family="sans-serif" font-size="14" lengthAdjust="spacing" textLength="42" x="1438" y="365.3545">ships:</text><text fill="#000000" font-family="sans-serif" font-size="14" lengthAdjust="spacing" textLength="253" x="1334.5" y="381.6514">Map &lt;Integer , List &lt;Ships&gt;&gt; ships</text><polygon fill="#A80036" points="565.5,424.0859,555.5,428.0859,565.5,432.0859,561.5,428.0859" style="stroke:#A80036;stroke-width:1.0;"/><line style="stroke:#A80036;stroke-width:1.0;" x1="559.5" x2="970.5" y1="428.0859" y2="428.0859"/><text fill="#000000" font-family="sans-serif" font-size="13" lengthAdjust="spacing" textLength="33" x="571.5" y="423.02">ships</text><polygon fill="#A80036" points="208.5,453.2188,198.5,457.2188,208.5,461.2188,204.5,457.2188" style="stroke:#A80036;stroke-width:1.0;"/><line style="stroke:#A80036;stroke-width:1.0;" x1="202.5" x2="548.5" y1="457.2188" y2="457.2188"/><text fill="#000000" font-family="sans-serif" font-size="13" lengthAdjust="spacing" textLength="33" x="214.5" y="452.1528">ships</text><polygon fill="#A80036" points="78,482.3516,68,486.3516,78,490.3516,74,486.3516" style="stroke:#A80036;stroke-width:1.0;"/><line style="stroke:#A80036;stroke-width:1.0;" x1="72" x2="191.5" y1="486.3516" y2="486.3516"/><text fill="#000000" font-family="sans-serif" font-size="13" lengthAdjust="spacing" textLength="78" x="84" y="481.2856">shows ships</text><!--MD5=[e9cfd1163db12a7157d53bba1b8d1f26]
@startuml
actor "TrafficManager" as TM
participant ":GetTopNShips" as POS
participant ":ShipController" as CTRL
participant ":Company" as CMP
participant "sp:\nShipStore" as STORE
participant "ships:\n Map <Integer , List <Ships>> ships" as pos
participant ":Ship" as ship
participant ":Route" as route 


activate TM
TM-> POS : starts
activate POS 
POS -> CTRL : getTopNShips(n,baseDateTime1,baseDateTime2);;
activate CTRL
CTRL -> CMP : sp = getShipStore();
activate CMP
deactivate CMP
CTRL -> STORE : ships = sp.getTopNShips(n,baseDateTime1,baseDateTime2);
activate STORE
deactivate CMP
note right : for getting the top n ships with the most \n kilometres travelled and their mean SOG \n we need to access the Route method \n meanSOG() and distanceTravelled() \n (ex.ship.getMeanSOG()).

STORE - -> pos** : getTopNShips(n,baseDateTime1,baseDateTime2);

STORE -> CTRL : ships
deactivate STORE
CTRL -> POS :ships
deactivate CTRL
POS -> TM : shows ships
deactivate POS
@enduml

PlantUML version 1.2021.14(Fri Nov 12 16:46:50 UTC 2021)
(GPL source distribution)
Java Runtime: Java(TM) SE Runtime Environment
JVM: Java HotSpot(TM) 64-Bit Server VM
Default Encoding: UTF-8
Language: en
Country: US
--></g></svg>