<?xml version="1.0" encoding="UTF-8" standalone="no"?><svg xmlns="http://www.w3.org/2000/svg" xmlns:xlink="http://www.w3.org/1999/xlink" contentScriptType="application/ecmascript" contentStyleType="text/css" height="656px" preserveAspectRatio="none" style="width:1592px;height:656px;background:#FFFFFF;" version="1.1" viewBox="0 0 1592 656" width="1592px" zoomAndPan="magnify"><defs><filter height="300%" id="f1xswb7o0lsld8" width="300%" x="-1" y="-1"><feGaussianBlur result="blurOut" stdDeviation="2.0"/><feColorMatrix in="blurOut" result="blurOut2" type="matrix" values="0 0 0 0 0 0 0 0 0 0 0 0 0 0 0 0 0 0 .4 0"/><feOffset dx="4.0" dy="4.0" in="blurOut2" result="blurOut3"/><feBlend in="SourceGraphic" in2="blurOut3" mode="normal"/></filter></defs><g><rect fill="#FFFFFF" filter="url(#f1xswb7o0lsld8)" height="465.1953" style="stroke:#A80036;stroke-width:1.0;" width="10" x="24.5" y="98.2969"/><rect fill="#FFFFFF" filter="url(#f1xswb7o0lsld8)" height="29.1328" style="stroke:#A80036;stroke-width:1.0;" width="10" x="396.5" y="119.4297"/><rect fill="#FFFFFF" filter="url(#f1xswb7o0lsld8)" height="29.1328" style="stroke:#A80036;stroke-width:1.0;" width="10" x="396.5" y="525.3594"/><rect fill="#FFFFFF" filter="url(#f1xswb7o0lsld8)" height="376.7969" style="stroke:#A80036;stroke-width:1.0;" width="10" x="763.5" y="148.5625"/><rect fill="#FFFFFF" filter="url(#f1xswb7o0lsld8)" height="28" style="stroke:#A80036;stroke-width:1.0;" width="10" x="768.5" y="244.8281"/><rect fill="#FFFFFF" filter="url(#f1xswb7o0lsld8)" height="28" style="stroke:#A80036;stroke-width:1.0;" width="10" x="768.5" y="316.9609"/><rect fill="#FFFFFF" filter="url(#f1xswb7o0lsld8)" height="28" style="stroke:#A80036;stroke-width:1.0;" width="10" x="768.5" y="389.0938"/><rect fill="#FFFFFF" filter="url(#f1xswb7o0lsld8)" height="28" style="stroke:#A80036;stroke-width:1.0;" width="10" x="768.5" y="461.2266"/><rect fill="#FFFFFF" filter="url(#f1xswb7o0lsld8)" height="30" style="stroke:#A80036;stroke-width:1.0;" width="10" x="1390.5" y="177.6953"/><line style="stroke:#A80036;stroke-width:1.0;stroke-dasharray:5.0,5.0;" x1="29" x2="29" y1="88.2969" y2="572.4922"/><line style="stroke:#A80036;stroke-width:1.0;stroke-dasharray:5.0,5.0;" x1="401" x2="401" y1="88.2969" y2="572.4922"/><line style="stroke:#A80036;stroke-width:1.0;stroke-dasharray:5.0,5.0;" x1="768" x2="768" y1="88.2969" y2="572.4922"/><line style="stroke:#A80036;stroke-width:1.0;stroke-dasharray:5.0,5.0;" x1="1174" x2="1174" y1="88.2969" y2="572.4922"/><line style="stroke:#A80036;stroke-width:1.0;stroke-dasharray:5.0,5.0;" x1="1257" x2="1257" y1="88.2969" y2="572.4922"/><line style="stroke:#A80036;stroke-width:1.0;stroke-dasharray:5.0,5.0;" x1="1395.5" x2="1395.5" y1="88.2969" y2="572.4922"/><line style="stroke:#A80036;stroke-width:1.0;stroke-dasharray:5.0,5.0;" x1="1537.5" x2="1537.5" y1="88.2969" y2="572.4922"/><text fill="#000000" font-family="sans-serif" font-size="14" lengthAdjust="spacing" textLength="43" x="5" y="84.9951">Client</text><ellipse cx="29.5" cy="15" fill="#FEFECE" filter="url(#f1xswb7o0lsld8)" rx="8" ry="8" style="stroke:#A80036;stroke-width:2.0;"/><path d="M29.5,23 L29.5,50 M16.5,31 L42.5,31 M29.5,50 L16.5,65 M29.5,50 L42.5,65 " fill="none" filter="url(#f1xswb7o0lsld8)" style="stroke:#A80036;stroke-width:2.0;"/><text fill="#000000" font-family="sans-serif" font-size="14" lengthAdjust="spacing" textLength="43" x="5" y="584.4873">Client</text><ellipse cx="29.5" cy="597.7891" fill="#FEFECE" filter="url(#f1xswb7o0lsld8)" rx="8" ry="8" style="stroke:#A80036;stroke-width:2.0;"/><path d="M29.5,605.7891 L29.5,632.7891 M16.5,613.7891 L42.5,613.7891 M29.5,632.7891 L16.5,647.7891 M29.5,632.7891 L42.5,647.7891 " fill="none" filter="url(#f1xswb7o0lsld8)" style="stroke:#A80036;stroke-width:2.0;"/><rect fill="#FEFECE" filter="url(#f1xswb7o0lsld8)" height="30.2969" style="stroke:#A80036;stroke-width:1.5;" width="195" x="302" y="53"/><text fill="#000000" font-family="sans-serif" font-size="14" lengthAdjust="spacing" textLength="181" x="309" y="72.9951">:ContainerControllerTest</text><rect fill="#FEFECE" filter="url(#f1xswb7o0lsld8)" height="30.2969" style="stroke:#A80036;stroke-width:1.5;" width="195" x="302" y="571.4922"/><text fill="#000000" font-family="sans-serif" font-size="14" lengthAdjust="spacing" textLength="181" x="309" y="591.4873">:ContainerControllerTest</text><rect fill="#FEFECE" filter="url(#f1xswb7o0lsld8)" height="30.2969" style="stroke:#A80036;stroke-width:1.5;" width="163" x="685" y="53"/><text fill="#000000" font-family="sans-serif" font-size="14" lengthAdjust="spacing" textLength="149" x="692" y="72.9951">:ContainerController</text><rect fill="#FEFECE" filter="url(#f1xswb7o0lsld8)" height="30.2969" style="stroke:#A80036;stroke-width:1.5;" width="163" x="685" y="571.4922"/><text fill="#000000" font-family="sans-serif" font-size="14" lengthAdjust="spacing" textLength="149" x="692" y="591.4873">:ContainerController</text><rect fill="#FEFECE" filter="url(#f1xswb7o0lsld8)" height="30.2969" style="stroke:#A80036;stroke-width:1.5;" width="87" x="1129" y="53"/><text fill="#000000" font-family="sans-serif" font-size="14" lengthAdjust="spacing" textLength="73" x="1136" y="72.9951">:Company</text><rect fill="#FEFECE" filter="url(#f1xswb7o0lsld8)" height="30.2969" style="stroke:#A80036;stroke-width:1.5;" width="87" x="1129" y="571.4922"/><text fill="#000000" font-family="sans-serif" font-size="14" lengthAdjust="spacing" textLength="73" x="1136" y="591.4873">:Company</text><rect fill="#FEFECE" filter="url(#f1xswb7o0lsld8)" height="30.2969" style="stroke:#A80036;stroke-width:1.5;" width="51" x="1230" y="53"/><text fill="#000000" font-family="sans-serif" font-size="14" lengthAdjust="spacing" textLength="37" x="1237" y="72.9951">:Ship</text><rect fill="#FEFECE" filter="url(#f1xswb7o0lsld8)" height="30.2969" style="stroke:#A80036;stroke-width:1.5;" width="51" x="1230" y="571.4922"/><text fill="#000000" font-family="sans-serif" font-size="14" lengthAdjust="spacing" textLength="37" x="1237" y="591.4873">:Ship</text><rect fill="#FEFECE" filter="url(#f1xswb7o0lsld8)" height="30.2969" style="stroke:#A80036;stroke-width:1.5;" width="170" x="1308.5" y="53"/><text fill="#000000" font-family="sans-serif" font-size="14" lengthAdjust="spacing" textLength="156" x="1315.5" y="72.9951">:DatabaseConnection</text><rect fill="#FEFECE" filter="url(#f1xswb7o0lsld8)" height="30.2969" style="stroke:#A80036;stroke-width:1.5;" width="170" x="1308.5" y="571.4922"/><text fill="#000000" font-family="sans-serif" font-size="14" lengthAdjust="spacing" textLength="156" x="1315.5" y="591.4873">:DatabaseConnection</text><rect fill="#FEFECE" filter="url(#f1xswb7o0lsld8)" height="30.2969" style="stroke:#A80036;stroke-width:1.5;" width="86" x="1492.5" y="53"/><text fill="#000000" font-family="sans-serif" font-size="14" lengthAdjust="spacing" textLength="72" x="1499.5" y="72.9951">portStore</text><rect fill="#FEFECE" filter="url(#f1xswb7o0lsld8)" height="30.2969" style="stroke:#A80036;stroke-width:1.5;" width="86" x="1492.5" y="571.4922"/><text fill="#000000" font-family="sans-serif" font-size="14" lengthAdjust="spacing" textLength="72" x="1499.5" y="591.4873">portStore</text><rect fill="#FFFFFF" filter="url(#f1xswb7o0lsld8)" height="465.1953" style="stroke:#A80036;stroke-width:1.0;" width="10" x="24.5" y="98.2969"/><rect fill="#FFFFFF" filter="url(#f1xswb7o0lsld8)" height="29.1328" style="stroke:#A80036;stroke-width:1.0;" width="10" x="396.5" y="119.4297"/><rect fill="#FFFFFF" filter="url(#f1xswb7o0lsld8)" height="29.1328" style="stroke:#A80036;stroke-width:1.0;" width="10" x="396.5" y="525.3594"/><rect fill="#FFFFFF" filter="url(#f1xswb7o0lsld8)" height="376.7969" style="stroke:#A80036;stroke-width:1.0;" width="10" x="763.5" y="148.5625"/><rect fill="#FFFFFF" filter="url(#f1xswb7o0lsld8)" height="28" style="stroke:#A80036;stroke-width:1.0;" width="10" x="768.5" y="244.8281"/><rect fill="#FFFFFF" filter="url(#f1xswb7o0lsld8)" height="28" style="stroke:#A80036;stroke-width:1.0;" width="10" x="768.5" y="316.9609"/><rect fill="#FFFFFF" filter="url(#f1xswb7o0lsld8)" height="28" style="stroke:#A80036;stroke-width:1.0;" width="10" x="768.5" y="389.0938"/><rect fill="#FFFFFF" filter="url(#f1xswb7o0lsld8)" height="28" style="stroke:#A80036;stroke-width:1.0;" width="10" x="768.5" y="461.2266"/><rect fill="#FFFFFF" filter="url(#f1xswb7o0lsld8)" height="30" style="stroke:#A80036;stroke-width:1.0;" width="10" x="1390.5" y="177.6953"/><polygon fill="#A80036" points="384.5,115.4297,394.5,119.4297,384.5,123.4297,388.5,119.4297" style="stroke:#A80036;stroke-width:1.0;"/><line style="stroke:#A80036;stroke-width:1.0;" x1="34.5" x2="390.5" y1="119.4297" y2="119.4297"/><text fill="#000000" font-family="sans-serif" font-size="13" font-weight="bold" lengthAdjust="spacing" textLength="9" x="41.5" y="114.3638">1</text><text fill="#000000" font-family="sans-serif" font-size="13" lengthAdjust="spacing" textLength="236" x="54.5" y="114.3638">chooses container to check status of</text><polygon fill="#A80036" points="751.5,144.5625,761.5,148.5625,751.5,152.5625,755.5,148.5625" style="stroke:#A80036;stroke-width:1.0;"/><line style="stroke:#A80036;stroke-width:1.0;" x1="401.5" x2="757.5" y1="148.5625" y2="148.5625"/><text fill="#000000" font-family="sans-serif" font-size="13" font-weight="bold" lengthAdjust="spacing" textLength="9" x="408.5" y="143.4966">2</text><text fill="#000000" font-family="sans-serif" font-size="13" lengthAdjust="spacing" textLength="320" x="421.5" y="143.4966">getContainerStatus(connection,numberContainer)</text><polygon fill="#A80036" points="1378.5,173.6953,1388.5,177.6953,1378.5,181.6953,1382.5,177.6953" style="stroke:#A80036;stroke-width:1.0;"/><line style="stroke:#A80036;stroke-width:1.0;" x1="773.5" x2="1384.5" y1="177.6953" y2="177.6953"/><text fill="#000000" font-family="sans-serif" font-size="13" font-weight="bold" lengthAdjust="spacing" textLength="8" x="780.5" y="172.6294">3</text><text fill="#000000" font-family="sans-serif" font-size="13" lengthAdjust="spacing" textLength="586" x="792.5" y="172.6294">connection.getConnection().prepareCall("{ ? = { ? = call FUNC_GETSTATUSCONTAINER(?) }</text><line style="stroke:#A80036;stroke-width:1.0;" x1="778.5" x2="820.5" y1="236.8281" y2="236.8281"/><line style="stroke:#A80036;stroke-width:1.0;" x1="820.5" x2="820.5" y1="236.8281" y2="249.8281"/><line style="stroke:#A80036;stroke-width:1.0;" x1="779.5" x2="820.5" y1="249.8281" y2="249.8281"/><polygon fill="#A80036" points="789.5,245.8281,779.5,249.8281,789.5,253.8281,785.5,249.8281" style="stroke:#A80036;stroke-width:1.0;"/><text fill="#000000" font-family="sans-serif" font-size="13" font-weight="bold" lengthAdjust="spacing" textLength="9" x="785.5" y="231.7622">4</text><text fill="#000000" font-family="sans-serif" font-size="13" lengthAdjust="spacing" textLength="369" x="798.5" y="231.7622">callStmt.registerOutParameter(1, OracleTypes.VARCHAR)</text><line style="stroke:#A80036;stroke-width:1.0;" x1="778.5" x2="820.5" y1="308.9609" y2="308.9609"/><line style="stroke:#A80036;stroke-width:1.0;" x1="820.5" x2="820.5" y1="308.9609" y2="321.9609"/><line style="stroke:#A80036;stroke-width:1.0;" x1="779.5" x2="820.5" y1="321.9609" y2="321.9609"/><polygon fill="#A80036" points="789.5,317.9609,779.5,321.9609,789.5,325.9609,785.5,321.9609" style="stroke:#A80036;stroke-width:1.0;"/><text fill="#000000" font-family="sans-serif" font-size="13" font-weight="bold" lengthAdjust="spacing" textLength="9" x="785.5" y="303.895">5</text><text fill="#000000" font-family="sans-serif" font-size="13" lengthAdjust="spacing" textLength="249" x="798.5" y="303.895">callStmt.setString(2, numbercontainer)</text><line style="stroke:#A80036;stroke-width:1.0;" x1="778.5" x2="820.5" y1="381.0938" y2="381.0938"/><line style="stroke:#A80036;stroke-width:1.0;" x1="820.5" x2="820.5" y1="381.0938" y2="394.0938"/><line style="stroke:#A80036;stroke-width:1.0;" x1="779.5" x2="820.5" y1="394.0938" y2="394.0938"/><polygon fill="#A80036" points="789.5,390.0938,779.5,394.0938,789.5,398.0938,785.5,394.0938" style="stroke:#A80036;stroke-width:1.0;"/><text fill="#000000" font-family="sans-serif" font-size="13" font-weight="bold" lengthAdjust="spacing" textLength="9" x="785.5" y="376.0278">6</text><text fill="#000000" font-family="sans-serif" font-size="13" lengthAdjust="spacing" textLength="118" x="798.5" y="376.0278">callStmt.execute()</text><line style="stroke:#A80036;stroke-width:1.0;" x1="778.5" x2="820.5" y1="453.2266" y2="453.2266"/><line style="stroke:#A80036;stroke-width:1.0;" x1="820.5" x2="820.5" y1="453.2266" y2="466.2266"/><line style="stroke:#A80036;stroke-width:1.0;" x1="779.5" x2="820.5" y1="466.2266" y2="466.2266"/><polygon fill="#A80036" points="789.5,462.2266,779.5,466.2266,789.5,470.2266,785.5,466.2266" style="stroke:#A80036;stroke-width:1.0;"/><text fill="#000000" font-family="sans-serif" font-size="13" font-weight="bold" lengthAdjust="spacing" textLength="9" x="785.5" y="448.1606">7</text><text fill="#000000" font-family="sans-serif" font-size="13" lengthAdjust="spacing" textLength="229" x="798.5" y="448.1606">res  = (String) callStmt.getObject(1)</text><polygon fill="#A80036" points="417.5,521.3594,407.5,525.3594,417.5,529.3594,413.5,525.3594" style="stroke:#A80036;stroke-width:1.0;"/><line style="stroke:#A80036;stroke-width:1.0;stroke-dasharray:2.0,2.0;" x1="411.5" x2="767.5" y1="525.3594" y2="525.3594"/><text fill="#000000" font-family="sans-serif" font-size="13" font-weight="bold" lengthAdjust="spacing" textLength="9" x="423.5" y="520.2935">8</text><text fill="#000000" font-family="sans-serif" font-size="13" lengthAdjust="spacing" textLength="325" x="436.5" y="520.2935">presents the client with the status of the container</text><polygon fill="#A80036" points="45.5,550.4922,35.5,554.4922,45.5,558.4922,41.5,554.4922" style="stroke:#A80036;stroke-width:1.0;"/><line style="stroke:#A80036;stroke-width:1.0;" x1="39.5" x2="400.5" y1="554.4922" y2="554.4922"/><text fill="#000000" font-family="sans-serif" font-size="13" font-weight="bold" lengthAdjust="spacing" textLength="9" x="51.5" y="549.4263">9</text><text fill="#000000" font-family="sans-serif" font-size="13" lengthAdjust="spacing" textLength="325" x="64.5" y="549.4263">presents the client with the status of the container</text><!--MD5=[d1b90711f8abd8573d8beac07b75cfa9]
@startuml
autonumber
actor "Client" as REC

participant  ":ContainerControllerTest" as TEST
participant ":ContainerController" as UI
participant ":Company" as CMP
participant ":Ship" as PORT
participant ":DatabaseConnection" as DBCON





activate REC




REC -> TEST: chooses container to check status of
activate TEST

TEST-> UI : getContainerStatus(connection,numberContainer)
deactivate TEST
activate UI



UI -> DBCON: connection.getConnection().prepareCall("{ ? = { ? = call FUNC_GETSTATUSCONTAINER(?) }
activate DBCON
deactivate DBCON

UI -> UI : callStmt.registerOutParameter(1, OracleTypes.VARCHAR)
activate UI
deactivate UI

UI -> UI : callStmt.setString(2, numbercontainer)
activate UI
deactivate UI

UI -> UI : callStmt.execute()
activate UI
deactivate UI

UI -> UI : res  = (String) callStmt.getObject(1)
activate UI
deactivate UI

deactivate TEST


deactivate portStore
UI - -> TEST: presents the client with the status of the container 
deactivate UI

activate TEST
TEST-> REC : presents the client with the status of the container 
deactivate TEST
@enduml

PlantUML version 1.2021.16beta1(Unknown compile time)
(GPL source distribution)
Java Runtime: Java(TM) SE Runtime Environment
JVM: Java HotSpot(TM) 64-Bit Server VM
Default Encoding: UTF-8
Language: en
Country: US
--></g></svg>