<?xml version="1.0" encoding="UTF-8" standalone="no"?><svg xmlns="http://www.w3.org/2000/svg" xmlns:xlink="http://www.w3.org/1999/xlink" contentScriptType="application/ecmascript" contentStyleType="text/css" height="107px" preserveAspectRatio="none" style="width:1249px;height:107px;background:#FFFFFF;" version="1.1" viewBox="0 0 1249 107" width="1249px" zoomAndPan="magnify"><defs><filter height="300%" id="f1pr3wwnc8pwr4" width="300%" x="-1" y="-1"><feGaussianBlur result="blurOut" stdDeviation="2.0"/><feColorMatrix in="blurOut" result="blurOut2" type="matrix" values="0 0 0 0 0 0 0 0 0 0 0 0 0 0 0 0 0 0 .4 0"/><feOffset dx="4.0" dy="4.0" in="blurOut2" result="blurOut3"/><feBlend in="SourceGraphic" in2="blurOut3" mode="normal"/></filter></defs><g><!--MD5=[747ab85aa750c194347df157b73d0de3]
class ContainerDB--><rect codeLine="6" fill="#FEFECE" filter="url(#f1pr3wwnc8pwr4)" height="86.4141" id="ContainerDB" style="stroke:#A80036;stroke-width:1.5;" width="467" x="768" y="7"/><ellipse cx="960.25" cy="23" fill="#ADD1B2" rx="11" ry="11" style="stroke:#A80036;stroke-width:1.0;"/><path d="M962.5938,18.6719 C961.6563,18.2344 961.0625,18.0938 960.1875,18.0938 C957.5625,18.0938 955.5625,20.1719 955.5625,22.8906 L955.5625,24.0156 C955.5625,26.5938 957.6719,28.4844 960.5625,28.4844 C961.7813,28.4844 962.9375,28.1875 963.6875,27.6406 C964.2656,27.2344 964.5938,26.7813 964.5938,26.3906 C964.5938,25.9375 964.2031,25.5469 963.7344,25.5469 C963.5156,25.5469 963.3125,25.625 963.125,25.8125 C962.6719,26.2969 962.6719,26.2969 962.4844,26.3906 C962.0625,26.6563 961.375,26.7813 960.6094,26.7813 C958.5625,26.7813 957.2656,25.6875 957.2656,23.9844 L957.2656,22.8906 C957.2656,21.1094 958.5156,19.7969 960.25,19.7969 C960.8281,19.7969 961.4375,19.9531 961.9063,20.2031 C962.3906,20.4844 962.5625,20.7031 962.6563,21.1094 C962.7188,21.5156 962.75,21.6406 962.8906,21.7656 C963.0313,21.9063 963.2656,22.0156 963.4844,22.0156 C963.75,22.0156 964.0156,21.875 964.1875,21.6563 C964.2969,21.5 964.3281,21.3125 964.3281,20.8906 L964.3281,19.4688 C964.3281,19.0313 964.3125,18.9063 964.2188,18.75 C964.0625,18.4844 963.7813,18.3438 963.4844,18.3438 C963.1875,18.3438 962.9844,18.4375 962.7656,18.75 L962.5938,18.6719 Z " fill="#000000"/><text fill="#000000" font-family="sans-serif" font-size="12" lengthAdjust="spacing" textLength="74" x="980.75" y="27.1543">ContainerDB</text><line style="stroke:#A80036;stroke-width:1.5;" x1="769" x2="1234" y1="39" y2="39"/><text fill="#000000" font-family="sans-serif" font-size="11" lengthAdjust="spacing" textLength="247" x="774" y="53.2104">-databaseConnection: DatabaseConnection</text><line style="stroke:#A80036;stroke-width:1.5;" x1="769" x2="1234" y1="59.8047" y2="59.8047"/><text fill="#000000" font-family="sans-serif" font-size="11" lengthAdjust="spacing" textLength="455" x="774" y="74.0151">+getContainerStatus(DatabaseConnection connection, String numberContainer)</text><text fill="#000000" font-family="sans-serif" font-size="11" lengthAdjust="spacing" textLength="17" x="774" y="86.8198">...()</text><!--MD5=[c51bc769145f25d59c587211eceb7951]
class ContainerController--><rect codeLine="12" fill="#FEFECE" filter="url(#f1pr3wwnc8pwr4)" height="86.4141" id="ContainerController" style="stroke:#A80036;stroke-width:1.5;" width="467" x="241" y="7"/><ellipse cx="412.25" cy="23" fill="#ADD1B2" rx="11" ry="11" style="stroke:#A80036;stroke-width:1.0;"/><path d="M414.5938,18.6719 C413.6563,18.2344 413.0625,18.0938 412.1875,18.0938 C409.5625,18.0938 407.5625,20.1719 407.5625,22.8906 L407.5625,24.0156 C407.5625,26.5938 409.6719,28.4844 412.5625,28.4844 C413.7813,28.4844 414.9375,28.1875 415.6875,27.6406 C416.2656,27.2344 416.5938,26.7813 416.5938,26.3906 C416.5938,25.9375 416.2031,25.5469 415.7344,25.5469 C415.5156,25.5469 415.3125,25.625 415.125,25.8125 C414.6719,26.2969 414.6719,26.2969 414.4844,26.3906 C414.0625,26.6563 413.375,26.7813 412.6094,26.7813 C410.5625,26.7813 409.2656,25.6875 409.2656,23.9844 L409.2656,22.8906 C409.2656,21.1094 410.5156,19.7969 412.25,19.7969 C412.8281,19.7969 413.4375,19.9531 413.9063,20.2031 C414.3906,20.4844 414.5625,20.7031 414.6563,21.1094 C414.7188,21.5156 414.75,21.6406 414.8906,21.7656 C415.0313,21.9063 415.2656,22.0156 415.4844,22.0156 C415.75,22.0156 416.0156,21.875 416.1875,21.6563 C416.2969,21.5 416.3281,21.3125 416.3281,20.8906 L416.3281,19.4688 C416.3281,19.0313 416.3125,18.9063 416.2188,18.75 C416.0625,18.4844 415.7813,18.3438 415.4844,18.3438 C415.1875,18.3438 414.9844,18.4375 414.7656,18.75 L414.5938,18.6719 Z " fill="#000000"/><text fill="#000000" font-family="sans-serif" font-size="12" lengthAdjust="spacing" textLength="116" x="432.75" y="27.1543">ContainerController</text><line style="stroke:#A80036;stroke-width:1.5;" x1="242" x2="707" y1="39" y2="39"/><text fill="#000000" font-family="sans-serif" font-size="11" lengthAdjust="spacing" textLength="102" x="247" y="53.2104">-cDB:ContainerDB</text><line style="stroke:#A80036;stroke-width:1.5;" x1="242" x2="707" y1="59.8047" y2="59.8047"/><text fill="#000000" font-family="sans-serif" font-size="11" lengthAdjust="spacing" textLength="455" x="247" y="74.0151">+getContainerStatus(DatabaseConnection connection, String numberContainer)</text><text fill="#000000" font-family="sans-serif" font-size="11" lengthAdjust="spacing" textLength="17" x="247" y="86.8198">...()</text><!--MD5=[a0e62a78d5ce3c004d99857cbc72871b]
class ContainerControllerTest--><rect codeLine="18" fill="#FEFECE" filter="url(#f1pr3wwnc8pwr4)" height="60.8047" id="ContainerControllerTest" style="stroke:#A80036;stroke-width:1.5;" width="174" x="7" y="19.5"/><ellipse cx="22" cy="35.5" fill="#ADD1B2" rx="11" ry="11" style="stroke:#A80036;stroke-width:1.0;"/><path d="M24.3438,31.1719 C23.4063,30.7344 22.8125,30.5938 21.9375,30.5938 C19.3125,30.5938 17.3125,32.6719 17.3125,35.3906 L17.3125,36.5156 C17.3125,39.0938 19.4219,40.9844 22.3125,40.9844 C23.5313,40.9844 24.6875,40.6875 25.4375,40.1406 C26.0156,39.7344 26.3438,39.2813 26.3438,38.8906 C26.3438,38.4375 25.9531,38.0469 25.4844,38.0469 C25.2656,38.0469 25.0625,38.125 24.875,38.3125 C24.4219,38.7969 24.4219,38.7969 24.2344,38.8906 C23.8125,39.1563 23.125,39.2813 22.3594,39.2813 C20.3125,39.2813 19.0156,38.1875 19.0156,36.4844 L19.0156,35.3906 C19.0156,33.6094 20.2656,32.2969 22,32.2969 C22.5781,32.2969 23.1875,32.4531 23.6563,32.7031 C24.1406,32.9844 24.3125,33.2031 24.4063,33.6094 C24.4688,34.0156 24.5,34.1406 24.6406,34.2656 C24.7813,34.4063 25.0156,34.5156 25.2344,34.5156 C25.5,34.5156 25.7656,34.375 25.9375,34.1563 C26.0469,34 26.0781,33.8125 26.0781,33.3906 L26.0781,31.9688 C26.0781,31.5313 26.0625,31.4063 25.9688,31.25 C25.8125,30.9844 25.5313,30.8438 25.2344,30.8438 C24.9375,30.8438 24.7344,30.9375 24.5156,31.25 L24.3438,31.1719 Z " fill="#000000"/><text fill="#000000" font-family="sans-serif" font-size="12" lengthAdjust="spacing" textLength="142" x="36" y="39.6543">ContainerControllerTest</text><line style="stroke:#A80036;stroke-width:1.5;" x1="8" x2="180" y1="51.5" y2="51.5"/><line style="stroke:#A80036;stroke-width:1.5;" x1="8" x2="180" y1="59.5" y2="59.5"/><text fill="#000000" font-family="sans-serif" font-size="11" lengthAdjust="spacing" textLength="127" x="13" y="73.7104">+getContainerStatus()</text><!--MD5=[ad10c2d2545d5af287a20b2d40549fe3]
link ContainerControllerTest to ContainerController--><path codeLine="22" d="M181.361,50 C198.114,50 216.411,50 235.415,50 " fill="none" id="ContainerControllerTest-to-ContainerController" style="stroke:#A80036;stroke-width:1.0;stroke-dasharray:7.0,7.0;"/><polygon fill="#A80036" points="240.792,50,231.792,46,235.792,50,231.792,54,240.792,50" style="stroke:#A80036;stroke-width:1.0;"/><!--MD5=[3d337865db9ae44dc4c7ce932b068f53]
link ContainerController to ContainerDB--><path codeLine="23" d="M708.065,50 C726.241,50 744.611,50 762.82,50 " fill="none" id="ContainerController-to-ContainerDB" style="stroke:#A80036;stroke-width:1.0;"/><polygon fill="#A80036" points="767.952,50,758.952,46,762.952,50,758.952,54,767.952,50" style="stroke:#A80036;stroke-width:1.0;"/><!--MD5=[583fe18023f90ca2b46f8d70ba29fd27]
@startuml
skinparam classAttributeIconSize 0
left to right direction



class ContainerDB{
-databaseConnection: DatabaseConnection
+getContainerStatus(DatabaseConnection connection, String numberContainer)
...()
}

class ContainerController{
-cDB:ContainerDB
+getContainerStatus(DatabaseConnection connection, String numberContainer)
...()
}

Class "ContainerControllerTest"{
+getContainerStatus()
}

ContainerControllerTest..>ContainerController
ContainerController- ->ContainerDB
@enduml

PlantUML version 1.2021.16beta1(Unknown compile time)
(GPL source distribution)
Java Runtime: Java(TM) SE Runtime Environment
JVM: Java HotSpot(TM) 64-Bit Server VM
Default Encoding: UTF-8
Language: en
Country: US
--></g></svg>