<?xml version="1.0" encoding="UTF-8" standalone="no"?><svg xmlns="http://www.w3.org/2000/svg" xmlns:xlink="http://www.w3.org/1999/xlink" contentScriptType="application/ecmascript" contentStyleType="text/css" height="360px" preserveAspectRatio="none" style="width:642px;height:360px;background:#FFFFFF;" version="1.1" viewBox="0 0 642 360" width="642px" zoomAndPan="magnify"><defs><filter height="300%" id="fzwd0syd5hcwn" width="300%" x="-1" y="-1"><feGaussianBlur result="blurOut" stdDeviation="2.0"/><feColorMatrix in="blurOut" result="blurOut2" type="matrix" values="0 0 0 0 0 0 0 0 0 0 0 0 0 0 0 0 0 0 .4 0"/><feOffset dx="4.0" dy="4.0" in="blurOut2" result="blurOut3"/><feBlend in="SourceGraphic" in2="blurOut3" mode="normal"/></filter></defs><g><!--MD5=[a0bfe97ac0a38e6e74cc1c7c7b744b71]
class Port--><rect codeLine="2" fill="#FEFECE" filter="url(#fzwd0syd5hcwn)" height="124.8281" id="Port" style="stroke:#A80036;stroke-width:1.5;" width="69" x="559.5" y="190"/><ellipse cx="580.8" cy="206" fill="#ADD1B2" rx="11" ry="11" style="stroke:#A80036;stroke-width:1.0;"/><path d="M583.1438,201.6719 C582.2063,201.2344 581.6125,201.0938 580.7375,201.0938 C578.1125,201.0938 576.1125,203.1719 576.1125,205.8906 L576.1125,207.0156 C576.1125,209.5938 578.2219,211.4844 581.1125,211.4844 C582.3313,211.4844 583.4875,211.1875 584.2375,210.6406 C584.8156,210.2344 585.1438,209.7813 585.1438,209.3906 C585.1438,208.9375 584.7531,208.5469 584.2844,208.5469 C584.0656,208.5469 583.8625,208.625 583.675,208.8125 C583.2219,209.2969 583.2219,209.2969 583.0344,209.3906 C582.6125,209.6563 581.925,209.7813 581.1594,209.7813 C579.1125,209.7813 577.8156,208.6875 577.8156,206.9844 L577.8156,205.8906 C577.8156,204.1094 579.0656,202.7969 580.8,202.7969 C581.3781,202.7969 581.9875,202.9531 582.4563,203.2031 C582.9406,203.4844 583.1125,203.7031 583.2063,204.1094 C583.2688,204.5156 583.3,204.6406 583.4406,204.7656 C583.5813,204.9063 583.8156,205.0156 584.0344,205.0156 C584.3,205.0156 584.5656,204.875 584.7375,204.6563 C584.8469,204.5 584.8781,204.3125 584.8781,203.8906 L584.8781,202.4688 C584.8781,202.0313 584.8625,201.9063 584.7688,201.75 C584.6125,201.4844 584.3313,201.3438 584.0344,201.3438 C583.7375,201.3438 583.5344,201.4375 583.3156,201.75 L583.1438,201.6719 Z " fill="#000000"/><text fill="#000000" font-family="sans-serif" font-size="12" lengthAdjust="spacing" textLength="23" x="596.2" y="210.1543">Port</text><line style="stroke:#A80036;stroke-width:1.5;" x1="560.5" x2="627.5" y1="222" y2="222"/><text fill="#000000" font-family="sans-serif" font-size="11" lengthAdjust="spacing" textLength="37" x="565.5" y="236.2104">-PortID</text><text fill="#000000" font-family="sans-serif" font-size="11" lengthAdjust="spacing" textLength="37" x="565.5" y="249.0151">-name</text><text fill="#000000" font-family="sans-serif" font-size="11" lengthAdjust="spacing" textLength="57" x="565.5" y="261.8198">-continent</text><text fill="#000000" font-family="sans-serif" font-size="11" lengthAdjust="spacing" textLength="46" x="565.5" y="274.6245">-country</text><text fill="#000000" font-family="sans-serif" font-size="11" lengthAdjust="spacing" textLength="47" x="565.5" y="287.4292">-latitude</text><text fill="#000000" font-family="sans-serif" font-size="11" lengthAdjust="spacing" textLength="57" x="565.5" y="300.2339">-longitude</text><line style="stroke:#A80036;stroke-width:1.5;" x1="560.5" x2="627.5" y1="306.8281" y2="306.8281"/><!--MD5=[0dc7f2ddb409b58bcf52b12238c25399]
class Ship--><rect codeLine="10" fill="#FEFECE" filter="url(#fzwd0syd5hcwn)" height="188.8516" id="Ship" style="stroke:#A80036;stroke-width:1.5;" width="177" x="211.5" y="158"/><ellipse cx="282.75" cy="174" fill="#ADD1B2" rx="11" ry="11" style="stroke:#A80036;stroke-width:1.0;"/><path d="M285.0938,169.6719 C284.1563,169.2344 283.5625,169.0938 282.6875,169.0938 C280.0625,169.0938 278.0625,171.1719 278.0625,173.8906 L278.0625,175.0156 C278.0625,177.5938 280.1719,179.4844 283.0625,179.4844 C284.2813,179.4844 285.4375,179.1875 286.1875,178.6406 C286.7656,178.2344 287.0938,177.7813 287.0938,177.3906 C287.0938,176.9375 286.7031,176.5469 286.2344,176.5469 C286.0156,176.5469 285.8125,176.625 285.625,176.8125 C285.1719,177.2969 285.1719,177.2969 284.9844,177.3906 C284.5625,177.6563 283.875,177.7813 283.1094,177.7813 C281.0625,177.7813 279.7656,176.6875 279.7656,174.9844 L279.7656,173.8906 C279.7656,172.1094 281.0156,170.7969 282.75,170.7969 C283.3281,170.7969 283.9375,170.9531 284.4063,171.2031 C284.8906,171.4844 285.0625,171.7031 285.1563,172.1094 C285.2188,172.5156 285.25,172.6406 285.3906,172.7656 C285.5313,172.9063 285.7656,173.0156 285.9844,173.0156 C286.25,173.0156 286.5156,172.875 286.6875,172.6563 C286.7969,172.5 286.8281,172.3125 286.8281,171.8906 L286.8281,170.4688 C286.8281,170.0313 286.8125,169.9063 286.7188,169.75 C286.5625,169.4844 286.2813,169.3438 285.9844,169.3438 C285.6875,169.3438 285.4844,169.4375 285.2656,169.75 L285.0938,169.6719 Z " fill="#000000"/><text fill="#000000" font-family="sans-serif" font-size="12" lengthAdjust="spacing" textLength="26" x="303.25" y="178.1543">Ship</text><line style="stroke:#A80036;stroke-width:1.5;" x1="212.5" x2="387.5" y1="190" y2="190"/><text fill="#000000" font-family="sans-serif" font-size="11" lengthAdjust="spacing" textLength="33" x="217.5" y="204.2104">-MMSI</text><text fill="#000000" font-family="sans-serif" font-size="11" lengthAdjust="spacing" textLength="37" x="217.5" y="217.0151">-name</text><text fill="#000000" font-family="sans-serif" font-size="11" lengthAdjust="spacing" textLength="81" x="217.5" y="229.8198">-IMOIDnumber</text><text fill="#000000" font-family="sans-serif" font-size="11" lengthAdjust="spacing" textLength="165" x="217.5" y="242.6245">-numberOfEnergyGenerators</text><text fill="#000000" font-family="sans-serif" font-size="11" lengthAdjust="spacing" textLength="132" x="217.5" y="255.4292">-generatorPowerOutput</text><text fill="#000000" font-family="sans-serif" font-size="11" lengthAdjust="spacing" textLength="48" x="217.5" y="268.2339">-callSign</text><text fill="#000000" font-family="sans-serif" font-size="11" lengthAdjust="spacing" textLength="101" x="217.5" y="281.0386">-vesselTypeCode</text><text fill="#000000" font-family="sans-serif" font-size="11" lengthAdjust="spacing" textLength="34" x="217.5" y="293.8433">-width</text><text fill="#000000" font-family="sans-serif" font-size="11" lengthAdjust="spacing" textLength="40" x="217.5" y="306.6479">-length</text><text fill="#000000" font-family="sans-serif" font-size="11" lengthAdjust="spacing" textLength="51" x="217.5" y="319.4526">-capacity</text><text fill="#000000" font-family="sans-serif" font-size="11" lengthAdjust="spacing" textLength="30" x="217.5" y="332.2573">-draft</text><line style="stroke:#A80036;stroke-width:1.5;" x1="212.5" x2="387.5" y1="338.8516" y2="338.8516"/><!--MD5=[e9a58730c562b34349daa605d1ed6662]
class Container--><rect codeLine="23" fill="#FEFECE" filter="url(#fzwd0syd5hcwn)" height="150.4375" id="Container" style="stroke:#A80036;stroke-width:1.5;" width="110" x="7" y="177.5"/><ellipse cx="31.45" cy="193.5" fill="#ADD1B2" rx="11" ry="11" style="stroke:#A80036;stroke-width:1.0;"/><path d="M33.7938,189.1719 C32.8563,188.7344 32.2625,188.5938 31.3875,188.5938 C28.7625,188.5938 26.7625,190.6719 26.7625,193.3906 L26.7625,194.5156 C26.7625,197.0938 28.8719,198.9844 31.7625,198.9844 C32.9813,198.9844 34.1375,198.6875 34.8875,198.1406 C35.4656,197.7344 35.7938,197.2813 35.7938,196.8906 C35.7938,196.4375 35.4031,196.0469 34.9344,196.0469 C34.7156,196.0469 34.5125,196.125 34.325,196.3125 C33.8719,196.7969 33.8719,196.7969 33.6844,196.8906 C33.2625,197.1563 32.575,197.2813 31.8094,197.2813 C29.7625,197.2813 28.4656,196.1875 28.4656,194.4844 L28.4656,193.3906 C28.4656,191.6094 29.7156,190.2969 31.45,190.2969 C32.0281,190.2969 32.6375,190.4531 33.1063,190.7031 C33.5906,190.9844 33.7625,191.2031 33.8563,191.6094 C33.9188,192.0156 33.95,192.1406 34.0906,192.2656 C34.2313,192.4063 34.4656,192.5156 34.6844,192.5156 C34.95,192.5156 35.2156,192.375 35.3875,192.1563 C35.4969,192 35.5281,191.8125 35.5281,191.3906 L35.5281,189.9688 C35.5281,189.5313 35.5125,189.4063 35.4188,189.25 C35.2625,188.9844 34.9813,188.8438 34.6844,188.8438 C34.3875,188.8438 34.1844,188.9375 33.9656,189.25 L33.7938,189.1719 Z " fill="#000000"/><text fill="#000000" font-family="sans-serif" font-size="12" lengthAdjust="spacing" textLength="57" x="47.55" y="197.6543">Container</text><line style="stroke:#A80036;stroke-width:1.5;" x1="8" x2="116" y1="209.5" y2="209.5"/><text fill="#000000" font-family="sans-serif" font-size="11" lengthAdjust="spacing" textLength="89" x="13" y="223.7104">-baseDateTime</text><text fill="#000000" font-family="sans-serif" font-size="11" lengthAdjust="spacing" textLength="47" x="13" y="236.5151">-latitude</text><text fill="#000000" font-family="sans-serif" font-size="11" lengthAdjust="spacing" textLength="57" x="13" y="249.3198">-longitude</text><text fill="#000000" font-family="sans-serif" font-size="11" lengthAdjust="spacing" textLength="30" x="13" y="262.1245">-SOG</text><text fill="#000000" font-family="sans-serif" font-size="11" lengthAdjust="spacing" textLength="30" x="13" y="274.9292">-COG</text><text fill="#000000" font-family="sans-serif" font-size="11" lengthAdjust="spacing" textLength="50" x="13" y="287.7339">-heading</text><text fill="#000000" font-family="sans-serif" font-size="11" lengthAdjust="spacing" textLength="48" x="13" y="300.5386">-position</text><text fill="#000000" font-family="sans-serif" font-size="11" lengthAdjust="spacing" textLength="98" x="13" y="313.3433">-transceiverClass</text><line style="stroke:#A80036;stroke-width:1.5;" x1="8" x2="116" y1="319.9375" y2="319.9375"/><!--MD5=[c5149b4909ffd2688ff51a939867f774]
class Warehouse--><rect codeLine="33" fill="#FEFECE" filter="url(#fzwd0syd5hcwn)" height="124.8281" id="Warehouse" style="stroke:#A80036;stroke-width:1.5;" width="101" x="423.5" y="190"/><ellipse cx="438.5" cy="206" fill="#ADD1B2" rx="11" ry="11" style="stroke:#A80036;stroke-width:1.0;"/><path d="M440.8438,201.6719 C439.9063,201.2344 439.3125,201.0938 438.4375,201.0938 C435.8125,201.0938 433.8125,203.1719 433.8125,205.8906 L433.8125,207.0156 C433.8125,209.5938 435.9219,211.4844 438.8125,211.4844 C440.0313,211.4844 441.1875,211.1875 441.9375,210.6406 C442.5156,210.2344 442.8438,209.7813 442.8438,209.3906 C442.8438,208.9375 442.4531,208.5469 441.9844,208.5469 C441.7656,208.5469 441.5625,208.625 441.375,208.8125 C440.9219,209.2969 440.9219,209.2969 440.7344,209.3906 C440.3125,209.6563 439.625,209.7813 438.8594,209.7813 C436.8125,209.7813 435.5156,208.6875 435.5156,206.9844 L435.5156,205.8906 C435.5156,204.1094 436.7656,202.7969 438.5,202.7969 C439.0781,202.7969 439.6875,202.9531 440.1563,203.2031 C440.6406,203.4844 440.8125,203.7031 440.9063,204.1094 C440.9688,204.5156 441,204.6406 441.1406,204.7656 C441.2813,204.9063 441.5156,205.0156 441.7344,205.0156 C442,205.0156 442.2656,204.875 442.4375,204.6563 C442.5469,204.5 442.5781,204.3125 442.5781,203.8906 L442.5781,202.4688 C442.5781,202.0313 442.5625,201.9063 442.4688,201.75 C442.3125,201.4844 442.0313,201.3438 441.7344,201.3438 C441.4375,201.3438 441.2344,201.4375 441.0156,201.75 L440.8438,201.6719 Z " fill="#000000"/><text fill="#000000" font-family="sans-serif" font-size="12" lengthAdjust="spacing" textLength="69" x="452.5" y="210.1543">Warehouse</text><line style="stroke:#A80036;stroke-width:1.5;" x1="424.5" x2="523.5" y1="222" y2="222"/><text fill="#000000" font-family="sans-serif" font-size="11" lengthAdjust="spacing" textLength="79" x="429.5" y="236.2104">-warehouseID</text><text fill="#000000" font-family="sans-serif" font-size="11" lengthAdjust="spacing" textLength="37" x="429.5" y="249.0151">-name</text><text fill="#000000" font-family="sans-serif" font-size="11" lengthAdjust="spacing" textLength="57" x="429.5" y="261.8198">-continent</text><text fill="#000000" font-family="sans-serif" font-size="11" lengthAdjust="spacing" textLength="46" x="429.5" y="274.6245">-country</text><text fill="#000000" font-family="sans-serif" font-size="11" lengthAdjust="spacing" textLength="47" x="429.5" y="287.4292">-latitude</text><text fill="#000000" font-family="sans-serif" font-size="11" lengthAdjust="spacing" textLength="57" x="429.5" y="300.2339">-longitude</text><line style="stroke:#A80036;stroke-width:1.5;" x1="424.5" x2="523.5" y1="306.8281" y2="306.8281"/><!--MD5=[ed6624c6556d5e7b1bd23032162d20b7]
class Client--><rect codeLine="41" fill="#FEFECE" filter="url(#fzwd0syd5hcwn)" height="73.6094" id="Client" style="stroke:#A80036;stroke-width:1.5;" width="65" x="29.5" y="7"/><ellipse cx="44.5" cy="23" fill="#ADD1B2" rx="11" ry="11" style="stroke:#A80036;stroke-width:1.0;"/><path d="M46.8438,18.6719 C45.9063,18.2344 45.3125,18.0938 44.4375,18.0938 C41.8125,18.0938 39.8125,20.1719 39.8125,22.8906 L39.8125,24.0156 C39.8125,26.5938 41.9219,28.4844 44.8125,28.4844 C46.0313,28.4844 47.1875,28.1875 47.9375,27.6406 C48.5156,27.2344 48.8438,26.7813 48.8438,26.3906 C48.8438,25.9375 48.4531,25.5469 47.9844,25.5469 C47.7656,25.5469 47.5625,25.625 47.375,25.8125 C46.9219,26.2969 46.9219,26.2969 46.7344,26.3906 C46.3125,26.6563 45.625,26.7813 44.8594,26.7813 C42.8125,26.7813 41.5156,25.6875 41.5156,23.9844 L41.5156,22.8906 C41.5156,21.1094 42.7656,19.7969 44.5,19.7969 C45.0781,19.7969 45.6875,19.9531 46.1563,20.2031 C46.6406,20.4844 46.8125,20.7031 46.9063,21.1094 C46.9688,21.5156 47,21.6406 47.1406,21.7656 C47.2813,21.9063 47.5156,22.0156 47.7344,22.0156 C48,22.0156 48.2656,21.875 48.4375,21.6563 C48.5469,21.5 48.5781,21.3125 48.5781,20.8906 L48.5781,19.4688 C48.5781,19.0313 48.5625,18.9063 48.4688,18.75 C48.3125,18.4844 48.0313,18.3438 47.7344,18.3438 C47.4375,18.3438 47.2344,18.4375 47.0156,18.75 L46.8438,18.6719 Z " fill="#000000"/><text fill="#000000" font-family="sans-serif" font-size="12" lengthAdjust="spacing" textLength="33" x="58.5" y="27.1543">Client</text><line style="stroke:#A80036;stroke-width:1.5;" x1="30.5" x2="93.5" y1="39" y2="39"/><text fill="#000000" font-family="sans-serif" font-size="11" lengthAdjust="spacing" textLength="47" x="35.5" y="53.2104">-clientID</text><text fill="#000000" font-family="sans-serif" font-size="11" lengthAdjust="spacing" textLength="37" x="35.5" y="66.0151">-name</text><line style="stroke:#A80036;stroke-width:1.5;" x1="30.5" x2="93.5" y1="72.6094" y2="72.6094"/><!--MD5=[f500e957add76349bf6e8f151138488d]
link Client to Container--><path codeLine="45" d="M62,81.443 C62,106.508 62,140.777 62,171.988 " fill="none" id="Client-to-Container" style="stroke:#A80036;stroke-width:1.0;"/><polygon fill="#A80036" points="62,177.371,66,168.371,62,172.371,58,168.371,62,177.371" style="stroke:#A80036;stroke-width:1.0;"/><text fill="#000000" font-family="sans-serif" font-size="13" lengthAdjust="spacing" textLength="34" x="63" y="124.0669">owns</text><text fill="#000000" font-family="sans-serif" font-size="13" lengthAdjust="spacing" textLength="8" x="53.3625" y="100.7144">1</text><text fill="#000000" font-family="sans-serif" font-size="13" lengthAdjust="spacing" textLength="27" x="33.7133" y="166.5478">1...*</text><!--MD5=[83f0003916db174b16d7a678871819d2]
link Container to Port--><path codeLine="46" d="M107.84,177.423 C122.72,159.563 140.921,142.846 162,133 C183.487,122.963 472.48,113.159 542,158 C552.697,164.9 561.38,174.798 568.364,185.617 " fill="none" id="Container-to-Port" style="stroke:#A80036;stroke-width:1.0;"/><polygon fill="#A80036" points="571.056,189.968,569.7244,180.2096,568.4262,185.7155,562.9203,184.4173,571.056,189.968" style="stroke:#A80036;stroke-width:1.0;"/><text fill="#000000" font-family="sans-serif" font-size="13" lengthAdjust="spacing" textLength="58" x="163" y="124.0669">can be in</text><text fill="#000000" font-family="sans-serif" font-size="13" lengthAdjust="spacing" textLength="8" x="103.9592" y="166.3462">1</text><text fill="#000000" font-family="sans-serif" font-size="13" lengthAdjust="spacing" textLength="8" x="559.9406" y="178.9551">1</text><!--MD5=[9e0bf8fa7e457021d4856bf1d9360d96]
link Container to Warehouse--><path codeLine="47" d="M117.271,204.968 C139.778,187.818 166.861,169.8 194,158 C245.558,135.583 262.058,138.583 318,133 C344.535,130.352 353.085,123.496 378,133 C403.408,142.692 423.828,163.688 439.194,185.418 " fill="none" id="Container-to-Warehouse" style="stroke:#A80036;stroke-width:1.0;"/><polygon fill="#A80036" points="442.2,189.771,440.3769,180.0923,439.3586,185.6568,433.7942,184.6385,442.2,189.771" style="stroke:#A80036;stroke-width:1.0;"/><text fill="#000000" font-family="sans-serif" font-size="13" lengthAdjust="spacing" textLength="58" x="319" y="124.0669">can be in</text><text fill="#000000" font-family="sans-serif" font-size="13" lengthAdjust="spacing" textLength="8" x="124.8651" y="194.9644">1</text><text fill="#000000" font-family="sans-serif" font-size="13" lengthAdjust="spacing" textLength="8" x="430.0606" y="178.7353">1</text><!--MD5=[6d5dd08da3e475f33945cfb0fe057df9]
link Container to Ship--><path codeLine="48" d="M117.2,252.5 C143.552,252.5 175.829,252.5 205.888,252.5 " fill="none" id="Container-to-Ship" style="stroke:#A80036;stroke-width:1.0;"/><polygon fill="#A80036" points="211.081,252.5,202.081,248.5,206.081,252.5,202.081,256.5,211.081,252.5" style="stroke:#A80036;stroke-width:1.0;"/><text fill="#000000" font-family="sans-serif" font-size="13" lengthAdjust="spacing" textLength="58" x="135.25" y="245.5669">can be in</text><text fill="#000000" font-family="sans-serif" font-size="13" lengthAdjust="spacing" textLength="8" x="125.155" y="248.5386">1</text><text fill="#000000" font-family="sans-serif" font-size="13" lengthAdjust="spacing" textLength="8" x="195.3861" y="248.9574">1</text><!--MD5=[f1f4ce1138aac69fff42eafcedecbf87]
@startuml
skinparam classAttributeIconSize 0
Class Port{
-PortID
-name
-continent
-country
-latitude
-longitude
}
class Ship {
-MMSI
-name
-IMOIDnumber
-numberOfEnergyGenerators
-generatorPowerOutput
-callSign
-vesselTypeCode
-width
-length
-capacity
-draft
}
class Container{
-baseDateTime
-latitude
-longitude
-SOG
-COG
-heading
-position
-transceiverClass
}
Class Warehouse{
-warehouseID
-name
-continent
-country
-latitude
-longitude
}
class Client {
-clientID
-name
}
Client "1" - -> "1...*" Container :owns
Container "1" -> "1" Port :can be in
Container "1" -> "1" Warehouse :can be in
Container "1" -> "1" Ship :can be in
@enduml

PlantUML version 1.2021.16beta1(Unknown compile time)
(GPL source distribution)
Java Runtime: Java(TM) SE Runtime Environment
JVM: Java HotSpot(TM) 64-Bit Server VM
Default Encoding: UTF-8
Language: en
Country: US
--></g></svg>