<?xml version="1.0" encoding="UTF-8" standalone="no"?><svg xmlns="http://www.w3.org/2000/svg" xmlns:xlink="http://www.w3.org/1999/xlink" contentScriptType="application/ecmascript" contentStyleType="text/css" height="368px" preserveAspectRatio="none" style="width:973px;height:368px;background:#FFFFFF;" version="1.1" viewBox="0 0 973 368" width="973px" zoomAndPan="magnify"><defs><filter height="300%" id="f1n0n4dewtz4oy" width="300%" x="-1" y="-1"><feGaussianBlur result="blurOut" stdDeviation="2.0"/><feColorMatrix in="blurOut" result="blurOut2" type="matrix" values="0 0 0 0 0 0 0 0 0 0 0 0 0 0 0 0 0 0 .4 0"/><feOffset dx="4.0" dy="4.0" in="blurOut2" result="blurOut3"/><feBlend in="SourceGraphic" in2="blurOut3" mode="normal"/></filter></defs><g><rect fill="#FFFFFF" filter="url(#f1n0n4dewtz4oy)" height="176.6641" style="stroke:#A80036;stroke-width:1.0;" width="10" x="47" y="98.2969"/><rect fill="#FFFFFF" filter="url(#f1n0n4dewtz4oy)" height="146.5313" style="stroke:#A80036;stroke-width:1.0;" width="10" x="328" y="119.4297"/><rect fill="#FFFFFF" filter="url(#f1n0n4dewtz4oy)" height="88.2656" style="stroke:#A80036;stroke-width:1.0;" width="10" x="559" y="148.5625"/><rect fill="#FFFFFF" filter="url(#f1n0n4dewtz4oy)" height="30" style="stroke:#A80036;stroke-width:1.0;" width="10" x="804" y="177.6953"/><line style="stroke:#A80036;stroke-width:1.0;stroke-dasharray:5.0,5.0;" x1="52" x2="52" y1="88.2969" y2="283.9609"/><line style="stroke:#A80036;stroke-width:1.0;stroke-dasharray:5.0,5.0;" x1="332.5" x2="332.5" y1="88.2969" y2="283.9609"/><line style="stroke:#A80036;stroke-width:1.0;stroke-dasharray:5.0,5.0;" x1="563.5" x2="563.5" y1="88.2969" y2="283.9609"/><line style="stroke:#A80036;stroke-width:1.0;stroke-dasharray:5.0,5.0;" x1="809" x2="809" y1="88.2969" y2="283.9609"/><line style="stroke:#A80036;stroke-width:1.0;stroke-dasharray:5.0,5.0;" x1="918" x2="918" y1="88.2969" y2="283.9609"/><text fill="#000000" font-family="sans-serif" font-size="14" lengthAdjust="spacing" textLength="88" x="5" y="84.9951">ShipCaptain</text><ellipse cx="52" cy="15" fill="#FEFECE" filter="url(#f1n0n4dewtz4oy)" rx="8" ry="8" style="stroke:#A80036;stroke-width:2.0;"/><path d="M52,23 L52,50 M39,31 L65,31 M52,50 L39,65 M52,50 L65,65 " fill="none" filter="url(#f1n0n4dewtz4oy)" style="stroke:#A80036;stroke-width:2.0;"/><text fill="#000000" font-family="sans-serif" font-size="14" lengthAdjust="spacing" textLength="88" x="5" y="295.9561">ShipCaptain</text><ellipse cx="52" cy="309.2578" fill="#FEFECE" filter="url(#f1n0n4dewtz4oy)" rx="8" ry="8" style="stroke:#A80036;stroke-width:2.0;"/><path d="M52,317.2578 L52,344.2578 M39,325.2578 L65,325.2578 M52,344.2578 L39,359.2578 M52,344.2578 L65,359.2578 " fill="none" filter="url(#f1n0n4dewtz4oy)" style="stroke:#A80036;stroke-width:2.0;"/><rect fill="#FEFECE" filter="url(#f1n0n4dewtz4oy)" height="30.2969" style="stroke:#A80036;stroke-width:1.5;" width="241" x="210.5" y="53"/><text fill="#000000" font-family="sans-serif" font-size="14" lengthAdjust="spacing" textLength="227" x="217.5" y="72.9951">:GetContainersToLoadNextPort</text><rect fill="#FEFECE" filter="url(#f1n0n4dewtz4oy)" height="30.2969" style="stroke:#A80036;stroke-width:1.5;" width="241" x="210.5" y="282.9609"/><text fill="#000000" font-family="sans-serif" font-size="14" lengthAdjust="spacing" textLength="227" x="217.5" y="302.9561">:GetContainersToLoadNextPort</text><rect fill="#FEFECE" filter="url(#f1n0n4dewtz4oy)" height="30.2969" style="stroke:#A80036;stroke-width:1.5;" width="163" x="480.5" y="53"/><text fill="#000000" font-family="sans-serif" font-size="14" lengthAdjust="spacing" textLength="149" x="487.5" y="72.9951">:ContainerController</text><rect fill="#FEFECE" filter="url(#f1n0n4dewtz4oy)" height="30.2969" style="stroke:#A80036;stroke-width:1.5;" width="163" x="480.5" y="282.9609"/><text fill="#000000" font-family="sans-serif" font-size="14" lengthAdjust="spacing" textLength="149" x="487.5" y="302.9561">:ContainerController</text><rect fill="#FEFECE" filter="url(#f1n0n4dewtz4oy)" height="46.5938" style="stroke:#A80036;stroke-width:1.5;" width="106" x="754" y="36.7031"/><text fill="#000000" font-family="sans-serif" font-size="14" lengthAdjust="spacing" textLength="34" x="790" y="56.6982">cDb:</text><text fill="#000000" font-family="sans-serif" font-size="14" lengthAdjust="spacing" textLength="92" x="761" y="72.9951">ContainerDB</text><rect fill="#FEFECE" filter="url(#f1n0n4dewtz4oy)" height="46.5938" style="stroke:#A80036;stroke-width:1.5;" width="106" x="754" y="282.9609"/><text fill="#000000" font-family="sans-serif" font-size="14" lengthAdjust="spacing" textLength="34" x="790" y="302.9561">cDb:</text><text fill="#000000" font-family="sans-serif" font-size="14" lengthAdjust="spacing" textLength="92" x="761" y="319.2529">ContainerDB</text><rect fill="#FEFECE" filter="url(#f1n0n4dewtz4oy)" height="46.5938" style="stroke:#A80036;stroke-width:1.5;" width="85" x="874" y="36.7031"/><text fill="#000000" font-family="sans-serif" font-size="14" lengthAdjust="spacing" textLength="13" x="910" y="56.6982">c:</text><text fill="#000000" font-family="sans-serif" font-size="14" lengthAdjust="spacing" textLength="71" x="881" y="72.9951">Container</text><rect fill="#FEFECE" filter="url(#f1n0n4dewtz4oy)" height="46.5938" style="stroke:#A80036;stroke-width:1.5;" width="85" x="874" y="282.9609"/><text fill="#000000" font-family="sans-serif" font-size="14" lengthAdjust="spacing" textLength="13" x="910" y="302.9561">c:</text><text fill="#000000" font-family="sans-serif" font-size="14" lengthAdjust="spacing" textLength="71" x="881" y="319.2529">Container</text><rect fill="#FFFFFF" filter="url(#f1n0n4dewtz4oy)" height="176.6641" style="stroke:#A80036;stroke-width:1.0;" width="10" x="47" y="98.2969"/><rect fill="#FFFFFF" filter="url(#f1n0n4dewtz4oy)" height="146.5313" style="stroke:#A80036;stroke-width:1.0;" width="10" x="328" y="119.4297"/><rect fill="#FFFFFF" filter="url(#f1n0n4dewtz4oy)" height="88.2656" style="stroke:#A80036;stroke-width:1.0;" width="10" x="559" y="148.5625"/><rect fill="#FFFFFF" filter="url(#f1n0n4dewtz4oy)" height="30" style="stroke:#A80036;stroke-width:1.0;" width="10" x="804" y="177.6953"/><polygon fill="#A80036" points="316,115.4297,326,119.4297,316,123.4297,320,119.4297" style="stroke:#A80036;stroke-width:1.0;"/><line style="stroke:#A80036;stroke-width:1.0;" x1="57" x2="322" y1="119.4297" y2="119.4297"/><text fill="#000000" font-family="sans-serif" font-size="13" lengthAdjust="spacing" textLength="252" x="64" y="114.3638">inserts his id, and the code of next Port</text><polygon fill="#A80036" points="547,144.5625,557,148.5625,547,152.5625,551,148.5625" style="stroke:#A80036;stroke-width:1.0;"/><line style="stroke:#A80036;stroke-width:1.0;" x1="338" x2="553" y1="148.5625" y2="148.5625"/><text fill="#000000" font-family="sans-serif" font-size="13" lengthAdjust="spacing" textLength="202" x="345" y="143.4966">getContainersToLoad(id, code);</text><polygon fill="#A80036" points="792,173.6953,802,177.6953,792,181.6953,796,177.6953" style="stroke:#A80036;stroke-width:1.0;"/><line style="stroke:#A80036;stroke-width:1.0;" x1="569" x2="798" y1="177.6953" y2="177.6953"/><text fill="#000000" font-family="sans-serif" font-size="13" lengthAdjust="spacing" textLength="216" x="576" y="172.6294">cc.getContainersToLoad(id,code);</text><polygon fill="#A80036" points="349,232.8281,339,236.8281,349,240.8281,345,236.8281" style="stroke:#A80036;stroke-width:1.0;"/><line style="stroke:#A80036;stroke-width:1.0;" x1="343" x2="563" y1="236.8281" y2="236.8281"/><text fill="#000000" font-family="sans-serif" font-size="13" lengthAdjust="spacing" textLength="163" x="355" y="231.7622">return list with containers</text><polygon fill="#A80036" points="68,261.9609,58,265.9609,68,269.9609,64,265.9609" style="stroke:#A80036;stroke-width:1.0;"/><line style="stroke:#A80036;stroke-width:1.0;stroke-dasharray:2.0,2.0;" x1="62" x2="332" y1="265.9609" y2="265.9609"/><text fill="#000000" font-family="sans-serif" font-size="13" lengthAdjust="spacing" textLength="112" x="74" y="260.895">shows containers</text><!--MD5=[2f608faeae37286c5c27112ab82c195d]
@startuml
actor "ShipCaptain" as TM
participant ":GetContainersToLoadNextPort" as POS
participant ":ContainerController" as CTRL
participant "cDb:\nContainerDB" as STORE
participant "c:\nContainer" as c


activate TM
TM-> POS : inserts his id, and the code of next Port
activate POS
POS -> CTRL  : getContainersToLoad(id, code);
activate CTRL
CTRL -> STORE : cc.getContainersToLoad(id,code);
activate STORE
deactivate STORE
CTRL-> POS : return list with containers
deactivate CTRL
POS - -> TM : shows containers
deactivate POS
@enduml

PlantUML version 1.2021.16beta1(Unknown compile time)
(GPL source distribution)
Java Runtime: Java(TM) SE Runtime Environment
JVM: Java HotSpot(TM) 64-Bit Server VM
Default Encoding: UTF-8
Language: en
Country: US
--></g></svg>