<?xml version="1.0" encoding="UTF-8" standalone="no"?><svg xmlns="http://www.w3.org/2000/svg" xmlns:xlink="http://www.w3.org/1999/xlink" contentScriptType="application/ecmascript" contentStyleType="text/css" height="667px" preserveAspectRatio="none" style="width:448px;height:667px;background:#FFFFFF;" version="1.1" viewBox="0 0 448 667" width="448px" zoomAndPan="magnify"><defs><filter height="300%" id="f1i8s8dz0uaq87" width="300%" x="-1" y="-1"><feGaussianBlur result="blurOut" stdDeviation="2.0"/><feColorMatrix in="blurOut" result="blurOut2" type="matrix" values="0 0 0 0 0 0 0 0 0 0 0 0 0 0 0 0 0 0 .4 0"/><feOffset dx="4.0" dy="4.0" in="blurOut2" result="blurOut3"/><feBlend in="SourceGraphic" in2="blurOut3" mode="normal"/></filter></defs><g><!--MD5=[a0dbc1838d0a32dd1af6e83adf294996]
class GetContainersToLoad--><rect codeLine="3" fill="#FEFECE" filter="url(#f1i8s8dz0uaq87)" height="60.8047" id="GetContainersToLoad" style="stroke:#A80036;stroke-width:1.5;" width="185" x="122" y="7"/><ellipse cx="147.8" cy="23" fill="#ADD1B2" rx="11" ry="11" style="stroke:#A80036;stroke-width:1.0;"/><path d="M150.1438,18.6719 C149.2063,18.2344 148.6125,18.0938 147.7375,18.0938 C145.1125,18.0938 143.1125,20.1719 143.1125,22.8906 L143.1125,24.0156 C143.1125,26.5938 145.2219,28.4844 148.1125,28.4844 C149.3313,28.4844 150.4875,28.1875 151.2375,27.6406 C151.8156,27.2344 152.1438,26.7813 152.1438,26.3906 C152.1438,25.9375 151.7531,25.5469 151.2844,25.5469 C151.0656,25.5469 150.8625,25.625 150.675,25.8125 C150.2219,26.2969 150.2219,26.2969 150.0344,26.3906 C149.6125,26.6563 148.925,26.7813 148.1594,26.7813 C146.1125,26.7813 144.8156,25.6875 144.8156,23.9844 L144.8156,22.8906 C144.8156,21.1094 146.0656,19.7969 147.8,19.7969 C148.3781,19.7969 148.9875,19.9531 149.4563,20.2031 C149.9406,20.4844 150.1125,20.7031 150.2063,21.1094 C150.2688,21.5156 150.3,21.6406 150.4406,21.7656 C150.5813,21.9063 150.8156,22.0156 151.0344,22.0156 C151.3,22.0156 151.5656,21.875 151.7375,21.6563 C151.8469,21.5 151.8781,21.3125 151.8781,20.8906 L151.8781,19.4688 C151.8781,19.0313 151.8625,18.9063 151.7688,18.75 C151.6125,18.4844 151.3313,18.3438 151.0344,18.3438 C150.7375,18.3438 150.5344,18.4375 150.3156,18.75 L150.1438,18.6719 Z " fill="#000000"/><text fill="#000000" font-family="sans-serif" font-size="12" lengthAdjust="spacing" textLength="129" x="164.2" y="27.1543">GetContainersToLoad</text><line style="stroke:#A80036;stroke-width:1.5;" x1="123" x2="306" y1="39" y2="39"/><line style="stroke:#A80036;stroke-width:1.5;" x1="123" x2="306" y1="47" y2="47"/><text fill="#000000" font-family="sans-serif" font-size="11" lengthAdjust="spacing" textLength="173" x="128" y="61.2104">+getContainerToLoad(id,code)</text><!--MD5=[c51bc769145f25d59c587211eceb7951]
class ContainerController--><rect codeLine="8" fill="#FEFECE" filter="url(#f1i8s8dz0uaq87)" height="60.8047" id="ContainerController" style="stroke:#A80036;stroke-width:1.5;" width="185" x="122" y="128"/><ellipse cx="153.65" cy="144" fill="#ADD1B2" rx="11" ry="11" style="stroke:#A80036;stroke-width:1.0;"/><path d="M155.9938,139.6719 C155.0563,139.2344 154.4625,139.0938 153.5875,139.0938 C150.9625,139.0938 148.9625,141.1719 148.9625,143.8906 L148.9625,145.0156 C148.9625,147.5938 151.0719,149.4844 153.9625,149.4844 C155.1813,149.4844 156.3375,149.1875 157.0875,148.6406 C157.6656,148.2344 157.9938,147.7813 157.9938,147.3906 C157.9938,146.9375 157.6031,146.5469 157.1344,146.5469 C156.9156,146.5469 156.7125,146.625 156.525,146.8125 C156.0719,147.2969 156.0719,147.2969 155.8844,147.3906 C155.4625,147.6563 154.775,147.7813 154.0094,147.7813 C151.9625,147.7813 150.6656,146.6875 150.6656,144.9844 L150.6656,143.8906 C150.6656,142.1094 151.9156,140.7969 153.65,140.7969 C154.2281,140.7969 154.8375,140.9531 155.3063,141.2031 C155.7906,141.4844 155.9625,141.7031 156.0563,142.1094 C156.1188,142.5156 156.15,142.6406 156.2906,142.7656 C156.4313,142.9063 156.6656,143.0156 156.8844,143.0156 C157.15,143.0156 157.4156,142.875 157.5875,142.6563 C157.6969,142.5 157.7281,142.3125 157.7281,141.8906 L157.7281,140.4688 C157.7281,140.0313 157.7125,139.9063 157.6188,139.75 C157.4625,139.4844 157.1813,139.3438 156.8844,139.3438 C156.5875,139.3438 156.3844,139.4375 156.1656,139.75 L155.9938,139.6719 Z " fill="#000000"/><text fill="#000000" font-family="sans-serif" font-size="12" lengthAdjust="spacing" textLength="116" x="171.35" y="148.1543">ContainerController</text><line style="stroke:#A80036;stroke-width:1.5;" x1="123" x2="306" y1="160" y2="160"/><line style="stroke:#A80036;stroke-width:1.5;" x1="123" x2="306" y1="168" y2="168"/><text fill="#000000" font-family="sans-serif" font-size="11" lengthAdjust="spacing" textLength="173" x="128" y="182.2104">+getContainerToLoad(id,code)</text><!--MD5=[747ab85aa750c194347df157b73d0de3]
class ContainerDB--><rect codeLine="12" fill="#FEFECE" filter="url(#f1i8s8dz0uaq87)" height="60.8047" id="ContainerDB" style="stroke:#A80036;stroke-width:1.5;" width="194" x="117.5" y="249"/><ellipse cx="173.25" cy="265" fill="#ADD1B2" rx="11" ry="11" style="stroke:#A80036;stroke-width:1.0;"/><path d="M175.5938,260.6719 C174.6563,260.2344 174.0625,260.0938 173.1875,260.0938 C170.5625,260.0938 168.5625,262.1719 168.5625,264.8906 L168.5625,266.0156 C168.5625,268.5938 170.6719,270.4844 173.5625,270.4844 C174.7813,270.4844 175.9375,270.1875 176.6875,269.6406 C177.2656,269.2344 177.5938,268.7813 177.5938,268.3906 C177.5938,267.9375 177.2031,267.5469 176.7344,267.5469 C176.5156,267.5469 176.3125,267.625 176.125,267.8125 C175.6719,268.2969 175.6719,268.2969 175.4844,268.3906 C175.0625,268.6563 174.375,268.7813 173.6094,268.7813 C171.5625,268.7813 170.2656,267.6875 170.2656,265.9844 L170.2656,264.8906 C170.2656,263.1094 171.5156,261.7969 173.25,261.7969 C173.8281,261.7969 174.4375,261.9531 174.9063,262.2031 C175.3906,262.4844 175.5625,262.7031 175.6563,263.1094 C175.7188,263.5156 175.75,263.6406 175.8906,263.7656 C176.0313,263.9063 176.2656,264.0156 176.4844,264.0156 C176.75,264.0156 177.0156,263.875 177.1875,263.6563 C177.2969,263.5 177.3281,263.3125 177.3281,262.8906 L177.3281,261.4688 C177.3281,261.0313 177.3125,260.9063 177.2188,260.75 C177.0625,260.4844 176.7813,260.3438 176.4844,260.3438 C176.1875,260.3438 175.9844,260.4375 175.7656,260.75 L175.5938,260.6719 Z " fill="#000000"/><text fill="#000000" font-family="sans-serif" font-size="12" lengthAdjust="spacing" textLength="74" x="193.75" y="269.1543">ContainerDB</text><line style="stroke:#A80036;stroke-width:1.5;" x1="118.5" x2="310.5" y1="281" y2="281"/><line style="stroke:#A80036;stroke-width:1.5;" x1="118.5" x2="310.5" y1="289" y2="289"/><text fill="#000000" font-family="sans-serif" font-size="11" lengthAdjust="spacing" textLength="182" x="123.5" y="303.2104">+getContainerToOLoad(id,code)</text><!--MD5=[e9a58730c562b34349daa605d1ed6662]
class Container--><rect codeLine="19" fill="#FEFECE" filter="url(#f1i8s8dz0uaq87)" height="150.4375" id="Container" style="stroke:#A80036;stroke-width:1.5;" width="152" x="138.5" y="370"/><ellipse cx="181.85" cy="386" fill="#ADD1B2" rx="11" ry="11" style="stroke:#A80036;stroke-width:1.0;"/><path d="M184.1938,381.6719 C183.2563,381.2344 182.6625,381.0938 181.7875,381.0938 C179.1625,381.0938 177.1625,383.1719 177.1625,385.8906 L177.1625,387.0156 C177.1625,389.5938 179.2719,391.4844 182.1625,391.4844 C183.3813,391.4844 184.5375,391.1875 185.2875,390.6406 C185.8656,390.2344 186.1938,389.7813 186.1938,389.3906 C186.1938,388.9375 185.8031,388.5469 185.3344,388.5469 C185.1156,388.5469 184.9125,388.625 184.725,388.8125 C184.2719,389.2969 184.2719,389.2969 184.0844,389.3906 C183.6625,389.6563 182.975,389.7813 182.2094,389.7813 C180.1625,389.7813 178.8656,388.6875 178.8656,386.9844 L178.8656,385.8906 C178.8656,384.1094 180.1156,382.7969 181.85,382.7969 C182.4281,382.7969 183.0375,382.9531 183.5063,383.2031 C183.9906,383.4844 184.1625,383.7031 184.2563,384.1094 C184.3188,384.5156 184.35,384.6406 184.4906,384.7656 C184.6313,384.9063 184.8656,385.0156 185.0844,385.0156 C185.35,385.0156 185.6156,384.875 185.7875,384.6563 C185.8969,384.5 185.9281,384.3125 185.9281,383.8906 L185.9281,382.4688 C185.9281,382.0313 185.9125,381.9063 185.8188,381.75 C185.6625,381.4844 185.3813,381.3438 185.0844,381.3438 C184.7875,381.3438 184.5844,381.4375 184.3656,381.75 L184.1938,381.6719 Z " fill="#000000"/><text fill="#000000" font-family="sans-serif" font-size="12" lengthAdjust="spacing" textLength="57" x="202.15" y="390.1543">Container</text><line style="stroke:#A80036;stroke-width:1.5;" x1="139.5" x2="289.5" y1="402" y2="402"/><text fill="#000000" font-family="sans-serif" font-size="11" lengthAdjust="spacing" textLength="140" x="144.5" y="416.2104">-String numberContainer</text><text fill="#000000" font-family="sans-serif" font-size="11" lengthAdjust="spacing" textLength="128" x="144.5" y="429.0151">-Dimension dimension</text><text fill="#000000" font-family="sans-serif" font-size="11" lengthAdjust="spacing" textLength="72" x="144.5" y="441.8198">-Client client</text><text fill="#000000" font-family="sans-serif" font-size="11" lengthAdjust="spacing" textLength="118" x="144.5" y="454.6245">-TypeContainer type</text><text fill="#000000" font-family="sans-serif" font-size="11" lengthAdjust="spacing" textLength="57" x="144.5" y="467.4292">-String iso</text><text fill="#000000" font-family="sans-serif" font-size="11" lengthAdjust="spacing" textLength="98" x="144.5" y="480.2339">-String certificate</text><text fill="#000000" font-family="sans-serif" font-size="11" lengthAdjust="spacing" textLength="65" x="144.5" y="493.0386">-String load</text><text fill="#000000" font-family="sans-serif" font-size="11" lengthAdjust="spacing" textLength="9" x="144.5" y="505.8433">...</text><line style="stroke:#A80036;stroke-width:1.5;" x1="139.5" x2="289.5" y1="512.4375" y2="512.4375"/><!--MD5=[34c8d65a1d46f4bd017b92a6033f978f]
class TypeContainer--><rect codeLine="30" fill="#FEFECE" filter="url(#f1i8s8dz0uaq87)" height="73.6094" id="TypeContainer" style="stroke:#A80036;stroke-width:1.5;" width="125" x="7" y="580"/><ellipse cx="24.7" cy="596" fill="#ADD1B2" rx="11" ry="11" style="stroke:#A80036;stroke-width:1.0;"/><path d="M27.0438,591.6719 C26.1063,591.2344 25.5125,591.0938 24.6375,591.0938 C22.0125,591.0938 20.0125,593.1719 20.0125,595.8906 L20.0125,597.0156 C20.0125,599.5938 22.1219,601.4844 25.0125,601.4844 C26.2313,601.4844 27.3875,601.1875 28.1375,600.6406 C28.7156,600.2344 29.0438,599.7813 29.0438,599.3906 C29.0438,598.9375 28.6531,598.5469 28.1844,598.5469 C27.9656,598.5469 27.7625,598.625 27.575,598.8125 C27.1219,599.2969 27.1219,599.2969 26.9344,599.3906 C26.5125,599.6563 25.825,599.7813 25.0594,599.7813 C23.0125,599.7813 21.7156,598.6875 21.7156,596.9844 L21.7156,595.8906 C21.7156,594.1094 22.9656,592.7969 24.7,592.7969 C25.2781,592.7969 25.8875,592.9531 26.3563,593.2031 C26.8406,593.4844 27.0125,593.7031 27.1063,594.1094 C27.1688,594.5156 27.2,594.6406 27.3406,594.7656 C27.4813,594.9063 27.7156,595.0156 27.9344,595.0156 C28.2,595.0156 28.4656,594.875 28.6375,594.6563 C28.7469,594.5 28.7781,594.3125 28.7781,593.8906 L28.7781,592.4688 C28.7781,592.0313 28.7625,591.9063 28.6688,591.75 C28.5125,591.4844 28.2313,591.3438 27.9344,591.3438 C27.6375,591.3438 27.4344,591.4375 27.2156,591.75 L27.0438,591.6719 Z " fill="#000000"/><text fill="#000000" font-family="sans-serif" font-size="12" lengthAdjust="spacing" textLength="87" x="39.3" y="600.1543">TypeContainer</text><line style="stroke:#A80036;stroke-width:1.5;" x1="8" x2="131" y1="612" y2="612"/><text fill="#000000" font-family="sans-serif" font-size="11" lengthAdjust="spacing" textLength="67" x="13" y="626.2104">-String type</text><text fill="#000000" font-family="sans-serif" font-size="11" lengthAdjust="spacing" textLength="113" x="13" y="639.0151">-String temperature</text><line style="stroke:#A80036;stroke-width:1.5;" x1="8" x2="131" y1="645.6094" y2="645.6094"/><!--MD5=[798b653493d2d1d93374769a27a9ba0c]
class Dimension--><rect codeLine="35" fill="#FEFECE" filter="url(#f1i8s8dz0uaq87)" height="73.6094" id="Dimension" style="stroke:#A80036;stroke-width:1.5;" width="95" x="167" y="580"/><ellipse cx="182" cy="596" fill="#ADD1B2" rx="11" ry="11" style="stroke:#A80036;stroke-width:1.0;"/><path d="M184.3438,591.6719 C183.4063,591.2344 182.8125,591.0938 181.9375,591.0938 C179.3125,591.0938 177.3125,593.1719 177.3125,595.8906 L177.3125,597.0156 C177.3125,599.5938 179.4219,601.4844 182.3125,601.4844 C183.5313,601.4844 184.6875,601.1875 185.4375,600.6406 C186.0156,600.2344 186.3438,599.7813 186.3438,599.3906 C186.3438,598.9375 185.9531,598.5469 185.4844,598.5469 C185.2656,598.5469 185.0625,598.625 184.875,598.8125 C184.4219,599.2969 184.4219,599.2969 184.2344,599.3906 C183.8125,599.6563 183.125,599.7813 182.3594,599.7813 C180.3125,599.7813 179.0156,598.6875 179.0156,596.9844 L179.0156,595.8906 C179.0156,594.1094 180.2656,592.7969 182,592.7969 C182.5781,592.7969 183.1875,592.9531 183.6563,593.2031 C184.1406,593.4844 184.3125,593.7031 184.4063,594.1094 C184.4688,594.5156 184.5,594.6406 184.6406,594.7656 C184.7813,594.9063 185.0156,595.0156 185.2344,595.0156 C185.5,595.0156 185.7656,594.875 185.9375,594.6563 C186.0469,594.5 186.0781,594.3125 186.0781,593.8906 L186.0781,592.4688 C186.0781,592.0313 186.0625,591.9063 185.9688,591.75 C185.8125,591.4844 185.5313,591.3438 185.2344,591.3438 C184.9375,591.3438 184.7344,591.4375 184.5156,591.75 L184.3438,591.6719 Z " fill="#000000"/><text fill="#000000" font-family="sans-serif" font-size="12" lengthAdjust="spacing" textLength="63" x="196" y="600.1543">Dimension</text><line style="stroke:#A80036;stroke-width:1.5;" x1="168" x2="261" y1="612" y2="612"/><text fill="#000000" font-family="sans-serif" font-size="11" lengthAdjust="spacing" textLength="58" x="173" y="626.2104">-int length</text><text fill="#000000" font-family="sans-serif" font-size="11" lengthAdjust="spacing" textLength="58" x="173" y="639.0151">-int height</text><line style="stroke:#A80036;stroke-width:1.5;" x1="168" x2="261" y1="645.6094" y2="645.6094"/><!--MD5=[ed6624c6556d5e7b1bd23032162d20b7]
class Client--><rect codeLine="40" fill="#FEFECE" filter="url(#f1i8s8dz0uaq87)" height="73.6094" id="Client" style="stroke:#A80036;stroke-width:1.5;" width="137" x="297" y="580"/><ellipse cx="344.75" cy="596" fill="#ADD1B2" rx="11" ry="11" style="stroke:#A80036;stroke-width:1.0;"/><path d="M347.0938,591.6719 C346.1563,591.2344 345.5625,591.0938 344.6875,591.0938 C342.0625,591.0938 340.0625,593.1719 340.0625,595.8906 L340.0625,597.0156 C340.0625,599.5938 342.1719,601.4844 345.0625,601.4844 C346.2813,601.4844 347.4375,601.1875 348.1875,600.6406 C348.7656,600.2344 349.0938,599.7813 349.0938,599.3906 C349.0938,598.9375 348.7031,598.5469 348.2344,598.5469 C348.0156,598.5469 347.8125,598.625 347.625,598.8125 C347.1719,599.2969 347.1719,599.2969 346.9844,599.3906 C346.5625,599.6563 345.875,599.7813 345.1094,599.7813 C343.0625,599.7813 341.7656,598.6875 341.7656,596.9844 L341.7656,595.8906 C341.7656,594.1094 343.0156,592.7969 344.75,592.7969 C345.3281,592.7969 345.9375,592.9531 346.4063,593.2031 C346.8906,593.4844 347.0625,593.7031 347.1563,594.1094 C347.2188,594.5156 347.25,594.6406 347.3906,594.7656 C347.5313,594.9063 347.7656,595.0156 347.9844,595.0156 C348.25,595.0156 348.5156,594.875 348.6875,594.6563 C348.7969,594.5 348.8281,594.3125 348.8281,593.8906 L348.8281,592.4688 C348.8281,592.0313 348.8125,591.9063 348.7188,591.75 C348.5625,591.4844 348.2813,591.3438 347.9844,591.3438 C347.6875,591.3438 347.4844,591.4375 347.2656,591.75 L347.0938,591.6719 Z " fill="#000000"/><text fill="#000000" font-family="sans-serif" font-size="12" lengthAdjust="spacing" textLength="33" x="365.25" y="600.1543">Client</text><line style="stroke:#A80036;stroke-width:1.5;" x1="298" x2="433" y1="612" y2="612"/><text fill="#000000" font-family="sans-serif" font-size="11" lengthAdjust="spacing" textLength="107" x="303" y="626.2104">-String nameClient</text><text fill="#000000" font-family="sans-serif" font-size="11" lengthAdjust="spacing" textLength="125" x="303" y="639.0151">-String nrIdentification</text><line style="stroke:#A80036;stroke-width:1.5;" x1="298" x2="433" y1="645.6094" y2="645.6094"/><!--MD5=[2b640cca930651dea64f2a331355e125]
link GetContainersToLoad to ContainerController--><path codeLine="45" d="M214.5,68.222 C214.5,84.692 214.5,105.264 214.5,122.508 " fill="none" id="GetContainersToLoad-to-ContainerController" style="stroke:#A80036;stroke-width:1.0;stroke-dasharray:7.0,7.0;"/><polygon fill="#A80036" points="214.5,127.745,218.5,118.745,214.5,122.745,210.5,118.745,214.5,127.745" style="stroke:#A80036;stroke-width:1.0;"/><!--MD5=[3d337865db9ae44dc4c7ce932b068f53]
link ContainerController to ContainerDB--><path codeLine="46" d="M214.5,189.222 C214.5,205.692 214.5,226.264 214.5,243.508 " fill="none" id="ContainerController-to-ContainerDB" style="stroke:#A80036;stroke-width:1.0;stroke-dasharray:7.0,7.0;"/><polygon fill="#A80036" points="214.5,248.745,218.5,239.745,214.5,243.745,210.5,239.745,214.5,248.745" style="stroke:#A80036;stroke-width:1.0;"/><!--MD5=[014e789558e3eaa459111793a98752a8]
link ContainerDB to Container--><path codeLine="47" d="M214.5,310.109 C214.5,325.418 214.5,344.914 214.5,364.259 " fill="none" id="ContainerDB-to-Container" style="stroke:#A80036;stroke-width:1.0;"/><polygon fill="#A80036" points="214.5,369.708,218.5,360.708,214.5,364.708,210.5,360.708,214.5,369.708" style="stroke:#A80036;stroke-width:1.0;"/><!--MD5=[8b95926aa8f68cb7f444084257cd34f6]
link Container to Client--><path codeLine="48" d="M280.292,520.07 C297.433,539.369 315.254,559.4318 330.14,576.1905 " fill="none" id="Container-to-Client" style="stroke:#A80036;stroke-width:1.0;"/><polygon fill="#A80036" points="333.465,579.9344,330.479,570.5491,330.1446,576.1961,324.4977,575.8617,333.465,579.9344" style="stroke:#A80036;stroke-width:1.0;"/><!--MD5=[d24d3e033f11ba5725e84506c679a29b]
link Container to Dimension--><path codeLine="49" d="M214.5,520.07 C214.5,538.882 214.5,558.4207 214.5,574.9168 " fill="none" id="Container-to-Dimension" style="stroke:#A80036;stroke-width:1.0;"/><polygon fill="#A80036" points="214.5,579.9344,218.5,570.9344,214.5,574.9344,210.5,570.9344,214.5,579.9344" style="stroke:#A80036;stroke-width:1.0;"/><!--MD5=[40acc18ce234b16e14a17b1ed3a0b47a]
link Container to TypeContainer--><path codeLine="50" d="M151.323,520.07 C135,539.207 118.037,559.0947 103.8161,575.7673 " fill="none" id="Container-to-TypeContainer" style="stroke:#A80036;stroke-width:1.0;"/><polygon fill="#A80036" points="100.2619,579.9344,109.1459,575.6829,103.5067,576.1303,103.0593,570.4912,100.2619,579.9344" style="stroke:#A80036;stroke-width:1.0;"/><!--MD5=[567cb83414cadfd766d784031024ead5]
@startuml
skinparam classAttributeIconSize 0

class GetContainersToLoad {
+getContainerToLoad(id,code)
}


class ContainerController {
+getContainerToLoad(id,code)
}

class ContainerDB {

+getContainerToOLoad(id,code)


}

class Container {
- String numberContainer
- Dimension dimension
- Client client
- TypeContainer type
- String iso
- String certificate
- String load
...
}

class TypeContainer {
- String type
- String temperature
}

class Dimension {
- int length
- int height
}

class Client {
- String nameClient
- String nrIdentification

}
GetContainersToLoad ..> ContainerController
ContainerController ..> ContainerDB
ContainerDB - -> Container
Container - -> Client
Container - -> Dimension
Container - -> TypeContainer
@enduml

PlantUML version 1.2021.16beta1(Unknown compile time)
(GPL source distribution)
Java Runtime: Java(TM) SE Runtime Environment
JVM: Java HotSpot(TM) 64-Bit Server VM
Default Encoding: UTF-8
Language: en
Country: US
--></g></svg>