<?xml version="1.0" encoding="UTF-8" standalone="no"?><svg xmlns="http://www.w3.org/2000/svg" xmlns:xlink="http://www.w3.org/1999/xlink" contentScriptType="application/ecmascript" contentStyleType="text/css" height="841px" preserveAspectRatio="none" style="width:507px;height:841px;background:#FFFFFF;" version="1.1" viewBox="0 0 507 841" width="507px" zoomAndPan="magnify"><defs><filter height="300%" id="f1jq7syedlr0ra" width="300%" x="-1" y="-1"><feGaussianBlur result="blurOut" stdDeviation="2.0"/><feColorMatrix in="blurOut" result="blurOut2" type="matrix" values="0 0 0 0 0 0 0 0 0 0 0 0 0 0 0 0 0 0 .4 0"/><feOffset dx="4.0" dy="4.0" in="blurOut2" result="blurOut3"/><feBlend in="SourceGraphic" in2="blurOut3" mode="normal"/></filter></defs><g><!--MD5=[0dc7f2ddb409b58bcf52b12238c25399]
class Ship--><rect codeLine="2" fill="#FEFECE" filter="url(#f1jq7syedlr0ra)" height="73.6094" id="Ship" style="stroke:#A80036;stroke-width:1.5;" width="175" x="245" y="183"/><ellipse cx="315.25" cy="199" fill="#ADD1B2" rx="11" ry="11" style="stroke:#A80036;stroke-width:1.0;"/><path d="M317.5938,194.6719 C316.6563,194.2344 316.0625,194.0938 315.1875,194.0938 C312.5625,194.0938 310.5625,196.1719 310.5625,198.8906 L310.5625,200.0156 C310.5625,202.5938 312.6719,204.4844 315.5625,204.4844 C316.7813,204.4844 317.9375,204.1875 318.6875,203.6406 C319.2656,203.2344 319.5938,202.7813 319.5938,202.3906 C319.5938,201.9375 319.2031,201.5469 318.7344,201.5469 C318.5156,201.5469 318.3125,201.625 318.125,201.8125 C317.6719,202.2969 317.6719,202.2969 317.4844,202.3906 C317.0625,202.6563 316.375,202.7813 315.6094,202.7813 C313.5625,202.7813 312.2656,201.6875 312.2656,199.9844 L312.2656,198.8906 C312.2656,197.1094 313.5156,195.7969 315.25,195.7969 C315.8281,195.7969 316.4375,195.9531 316.9063,196.2031 C317.3906,196.4844 317.5625,196.7031 317.6563,197.1094 C317.7188,197.5156 317.75,197.6406 317.8906,197.7656 C318.0313,197.9063 318.2656,198.0156 318.4844,198.0156 C318.75,198.0156 319.0156,197.875 319.1875,197.6563 C319.2969,197.5 319.3281,197.3125 319.3281,196.8906 L319.3281,195.4688 C319.3281,195.0313 319.3125,194.9063 319.2188,194.75 C319.0625,194.4844 318.7813,194.3438 318.4844,194.3438 C318.1875,194.3438 317.9844,194.4375 317.7656,194.75 L317.5938,194.6719 Z " fill="#000000"/><text fill="#000000" font-family="sans-serif" font-size="12" lengthAdjust="spacing" textLength="26" x="335.75" y="203.1543">Ship</text><line style="stroke:#A80036;stroke-width:1.5;" x1="246" x2="419" y1="215" y2="215"/><text fill="#000000" font-family="sans-serif" font-size="11" lengthAdjust="spacing" textLength="163" x="251" y="229.2104">-List&lt;TravelRoute&gt; listRoute</text><line style="stroke:#A80036;stroke-width:1.5;" x1="246" x2="419" y1="235.8047" y2="235.8047"/><text fill="#000000" font-family="sans-serif" font-size="11" lengthAdjust="spacing" textLength="92" x="251" y="250.0151">+getLastRoute()</text><!--MD5=[82dc263f563d227779ba81db65b2fd4d]
class Identification--><rect codeLine="6" fill="#FEFECE" filter="url(#f1jq7syedlr0ra)" height="73.6094" id="Identification" style="stroke:#A80036;stroke-width:1.5;" width="108" x="197.5" y="19.5"/><ellipse cx="212.5" cy="35.5" fill="#ADD1B2" rx="11" ry="11" style="stroke:#A80036;stroke-width:1.0;"/><path d="M214.8438,31.1719 C213.9063,30.7344 213.3125,30.5938 212.4375,30.5938 C209.8125,30.5938 207.8125,32.6719 207.8125,35.3906 L207.8125,36.5156 C207.8125,39.0938 209.9219,40.9844 212.8125,40.9844 C214.0313,40.9844 215.1875,40.6875 215.9375,40.1406 C216.5156,39.7344 216.8438,39.2813 216.8438,38.8906 C216.8438,38.4375 216.4531,38.0469 215.9844,38.0469 C215.7656,38.0469 215.5625,38.125 215.375,38.3125 C214.9219,38.7969 214.9219,38.7969 214.7344,38.8906 C214.3125,39.1563 213.625,39.2813 212.8594,39.2813 C210.8125,39.2813 209.5156,38.1875 209.5156,36.4844 L209.5156,35.3906 C209.5156,33.6094 210.7656,32.2969 212.5,32.2969 C213.0781,32.2969 213.6875,32.4531 214.1563,32.7031 C214.6406,32.9844 214.8125,33.2031 214.9063,33.6094 C214.9688,34.0156 215,34.1406 215.1406,34.2656 C215.2813,34.4063 215.5156,34.5156 215.7344,34.5156 C216,34.5156 216.2656,34.375 216.4375,34.1563 C216.5469,34 216.5781,33.8125 216.5781,33.3906 L216.5781,31.9688 C216.5781,31.5313 216.5625,31.4063 216.4688,31.25 C216.3125,30.9844 216.0313,30.8438 215.7344,30.8438 C215.4375,30.8438 215.2344,30.9375 215.0156,31.25 L214.8438,31.1719 Z " fill="#000000"/><text fill="#000000" font-family="sans-serif" font-size="12" lengthAdjust="spacing" textLength="76" x="226.5" y="39.6543">Identification</text><line style="stroke:#A80036;stroke-width:1.5;" x1="198.5" x2="304.5" y1="51.5" y2="51.5"/><text fill="#000000" font-family="sans-serif" font-size="11" lengthAdjust="spacing" textLength="70" x="203.5" y="65.7104">-String MMSI</text><line style="stroke:#A80036;stroke-width:1.5;" x1="198.5" x2="304.5" y1="72.3047" y2="72.3047"/><text fill="#000000" font-family="sans-serif" font-size="11" lengthAdjust="spacing" textLength="65" x="203.5" y="86.5151">+getMMSI()</text><!--MD5=[3ce36178935a61438ea769c26dd685ce]
class SummaryOfShipMovement--><rect codeLine="11" fill="#FEFECE" filter="url(#f1jq7syedlr0ra)" height="60.8047" id="SummaryOfShipMovement" style="stroke:#A80036;stroke-width:1.5;" width="191" x="7" y="423.5"/><ellipse cx="22" cy="439.5" fill="#ADD1B2" rx="11" ry="11" style="stroke:#A80036;stroke-width:1.0;"/><path d="M24.3438,435.1719 C23.4063,434.7344 22.8125,434.5938 21.9375,434.5938 C19.3125,434.5938 17.3125,436.6719 17.3125,439.3906 L17.3125,440.5156 C17.3125,443.0938 19.4219,444.9844 22.3125,444.9844 C23.5313,444.9844 24.6875,444.6875 25.4375,444.1406 C26.0156,443.7344 26.3438,443.2813 26.3438,442.8906 C26.3438,442.4375 25.9531,442.0469 25.4844,442.0469 C25.2656,442.0469 25.0625,442.125 24.875,442.3125 C24.4219,442.7969 24.4219,442.7969 24.2344,442.8906 C23.8125,443.1563 23.125,443.2813 22.3594,443.2813 C20.3125,443.2813 19.0156,442.1875 19.0156,440.4844 L19.0156,439.3906 C19.0156,437.6094 20.2656,436.2969 22,436.2969 C22.5781,436.2969 23.1875,436.4531 23.6563,436.7031 C24.1406,436.9844 24.3125,437.2031 24.4063,437.6094 C24.4688,438.0156 24.5,438.1406 24.6406,438.2656 C24.7813,438.4063 25.0156,438.5156 25.2344,438.5156 C25.5,438.5156 25.7656,438.375 25.9375,438.1563 C26.0469,438 26.0781,437.8125 26.0781,437.3906 L26.0781,435.9688 C26.0781,435.5313 26.0625,435.4063 25.9688,435.25 C25.8125,434.9844 25.5313,434.8438 25.2344,434.8438 C24.9375,434.8438 24.7344,434.9375 24.5156,435.25 L24.3438,435.1719 Z " fill="#000000"/><text fill="#000000" font-family="sans-serif" font-size="12" lengthAdjust="spacing" textLength="159" x="36" y="443.6543">SummaryOfShipMovement</text><line style="stroke:#A80036;stroke-width:1.5;" x1="8" x2="197" y1="455.5" y2="455.5"/><line style="stroke:#A80036;stroke-width:1.5;" x1="8" x2="197" y1="463.5" y2="463.5"/><text fill="#000000" font-family="sans-serif" font-size="11" lengthAdjust="spacing" textLength="106" x="13" y="477.7104">+create(Ship ship)</text><!--MD5=[19c2b9eb46691e25b02426140995a460]
class ShipDynamic--><rect codeLine="14" fill="#FEFECE" filter="url(#f1jq7syedlr0ra)" height="176.0469" id="ShipDynamic" style="stroke:#A80036;stroke-width:1.5;" width="134" x="356.5" y="651"/><ellipse cx="382.75" cy="667" fill="#ADD1B2" rx="11" ry="11" style="stroke:#A80036;stroke-width:1.0;"/><path d="M385.0938,662.6719 C384.1563,662.2344 383.5625,662.0938 382.6875,662.0938 C380.0625,662.0938 378.0625,664.1719 378.0625,666.8906 L378.0625,668.0156 C378.0625,670.5938 380.1719,672.4844 383.0625,672.4844 C384.2813,672.4844 385.4375,672.1875 386.1875,671.6406 C386.7656,671.2344 387.0938,670.7813 387.0938,670.3906 C387.0938,669.9375 386.7031,669.5469 386.2344,669.5469 C386.0156,669.5469 385.8125,669.625 385.625,669.8125 C385.1719,670.2969 385.1719,670.2969 384.9844,670.3906 C384.5625,670.6563 383.875,670.7813 383.1094,670.7813 C381.0625,670.7813 379.7656,669.6875 379.7656,667.9844 L379.7656,666.8906 C379.7656,665.1094 381.0156,663.7969 382.75,663.7969 C383.3281,663.7969 383.9375,663.9531 384.4063,664.2031 C384.8906,664.4844 385.0625,664.7031 385.1563,665.1094 C385.2188,665.5156 385.25,665.6406 385.3906,665.7656 C385.5313,665.9063 385.7656,666.0156 385.9844,666.0156 C386.25,666.0156 386.5156,665.875 386.6875,665.6563 C386.7969,665.5 386.8281,665.3125 386.8281,664.8906 L386.8281,663.4688 C386.8281,663.0313 386.8125,662.9063 386.7188,662.75 C386.5625,662.4844 386.2813,662.3438 385.9844,662.3438 C385.6875,662.3438 385.4844,662.4375 385.2656,662.75 L385.0938,662.6719 Z " fill="#000000"/><text fill="#000000" font-family="sans-serif" font-size="12" lengthAdjust="spacing" textLength="77" x="399.25" y="671.1543">ShipDynamic</text><line style="stroke:#A80036;stroke-width:1.5;" x1="357.5" x2="489.5" y1="683" y2="683"/><text fill="#000000" font-family="sans-serif" font-size="11" lengthAdjust="spacing" textLength="122" x="362.5" y="697.2104">-Time baseDateTime</text><text fill="#000000" font-family="sans-serif" font-size="11" lengthAdjust="spacing" textLength="73" x="362.5" y="710.0151">-double SOG</text><text fill="#000000" font-family="sans-serif" font-size="11" lengthAdjust="spacing" textLength="73" x="362.5" y="722.8198">-double COG</text><text fill="#000000" font-family="sans-serif" font-size="11" lengthAdjust="spacing" textLength="90" x="362.5" y="735.6245">-double latitude</text><text fill="#000000" font-family="sans-serif" font-size="11" lengthAdjust="spacing" textLength="100" x="362.5" y="748.4292">-double longitude</text><line style="stroke:#A80036;stroke-width:1.5;" x1="357.5" x2="489.5" y1="755.0234" y2="755.0234"/><text fill="#000000" font-family="sans-serif" font-size="11" lengthAdjust="spacing" textLength="122" x="362.5" y="769.2339">+getBaseDateTime()</text><text fill="#000000" font-family="sans-serif" font-size="11" lengthAdjust="spacing" textLength="62" x="362.5" y="782.0386">+getSOG()</text><text fill="#000000" font-family="sans-serif" font-size="11" lengthAdjust="spacing" textLength="62" x="362.5" y="794.8433">+getCOG()</text><text fill="#000000" font-family="sans-serif" font-size="11" lengthAdjust="spacing" textLength="82" x="362.5" y="807.6479">+getLatitude()</text><text fill="#000000" font-family="sans-serif" font-size="11" lengthAdjust="spacing" textLength="92" x="362.5" y="820.4526">+getLongitude()</text><!--MD5=[9a305ff8ded9dfea1b145311e23eef54]
class ShipCharacteristics--><rect codeLine="26" fill="#FEFECE" filter="url(#f1jq7syedlr0ra)" height="99.2188" id="ShipCharacteristics" style="stroke:#A80036;stroke-width:1.5;" width="147" x="341" y="7"/><ellipse cx="356" cy="23" fill="#ADD1B2" rx="11" ry="11" style="stroke:#A80036;stroke-width:1.0;"/><path d="M358.3438,18.6719 C357.4063,18.2344 356.8125,18.0938 355.9375,18.0938 C353.3125,18.0938 351.3125,20.1719 351.3125,22.8906 L351.3125,24.0156 C351.3125,26.5938 353.4219,28.4844 356.3125,28.4844 C357.5313,28.4844 358.6875,28.1875 359.4375,27.6406 C360.0156,27.2344 360.3438,26.7813 360.3438,26.3906 C360.3438,25.9375 359.9531,25.5469 359.4844,25.5469 C359.2656,25.5469 359.0625,25.625 358.875,25.8125 C358.4219,26.2969 358.4219,26.2969 358.2344,26.3906 C357.8125,26.6563 357.125,26.7813 356.3594,26.7813 C354.3125,26.7813 353.0156,25.6875 353.0156,23.9844 L353.0156,22.8906 C353.0156,21.1094 354.2656,19.7969 356,19.7969 C356.5781,19.7969 357.1875,19.9531 357.6563,20.2031 C358.1406,20.4844 358.3125,20.7031 358.4063,21.1094 C358.4688,21.5156 358.5,21.6406 358.6406,21.7656 C358.7813,21.9063 359.0156,22.0156 359.2344,22.0156 C359.5,22.0156 359.7656,21.875 359.9375,21.6563 C360.0469,21.5 360.0781,21.3125 360.0781,20.8906 L360.0781,19.4688 C360.0781,19.0313 360.0625,18.9063 359.9688,18.75 C359.8125,18.4844 359.5313,18.3438 359.2344,18.3438 C358.9375,18.3438 358.7344,18.4375 358.5156,18.75 L358.3438,18.6719 Z " fill="#000000"/><text fill="#000000" font-family="sans-serif" font-size="12" lengthAdjust="spacing" textLength="115" x="370" y="27.1543">ShipCharacteristics</text><line style="stroke:#A80036;stroke-width:1.5;" x1="342" x2="487" y1="39" y2="39"/><text fill="#000000" font-family="sans-serif" font-size="11" lengthAdjust="spacing" textLength="108" x="347" y="53.2104">-String vesselType</text><text fill="#000000" font-family="sans-serif" font-size="11" lengthAdjust="spacing" textLength="113" x="347" y="66.0151">-String vesselName</text><line style="stroke:#A80036;stroke-width:1.5;" x1="342" x2="487" y1="72.6094" y2="72.6094"/><text fill="#000000" font-family="sans-serif" font-size="11" lengthAdjust="spacing" textLength="104" x="347" y="86.8198">+getVesselType()</text><text fill="#000000" font-family="sans-serif" font-size="11" lengthAdjust="spacing" textLength="109" x="347" y="99.6245">+getVesselName()</text><!--MD5=[7ef77df97ff4d7d522fabd56ee10ec47]
class TravelRoute--><rect codeLine="32" fill="#FEFECE" filter="url(#f1jq7syedlr0ra)" height="240.0703" id="TravelRoute" style="stroke:#A80036;stroke-width:1.5;" width="198" x="233.5" y="334"/><ellipse cx="292.75" cy="350" fill="#ADD1B2" rx="11" ry="11" style="stroke:#A80036;stroke-width:1.0;"/><path d="M295.0938,345.6719 C294.1563,345.2344 293.5625,345.0938 292.6875,345.0938 C290.0625,345.0938 288.0625,347.1719 288.0625,349.8906 L288.0625,351.0156 C288.0625,353.5938 290.1719,355.4844 293.0625,355.4844 C294.2813,355.4844 295.4375,355.1875 296.1875,354.6406 C296.7656,354.2344 297.0938,353.7813 297.0938,353.3906 C297.0938,352.9375 296.7031,352.5469 296.2344,352.5469 C296.0156,352.5469 295.8125,352.625 295.625,352.8125 C295.1719,353.2969 295.1719,353.2969 294.9844,353.3906 C294.5625,353.6563 293.875,353.7813 293.1094,353.7813 C291.0625,353.7813 289.7656,352.6875 289.7656,350.9844 L289.7656,349.8906 C289.7656,348.1094 291.0156,346.7969 292.75,346.7969 C293.3281,346.7969 293.9375,346.9531 294.4063,347.2031 C294.8906,347.4844 295.0625,347.7031 295.1563,348.1094 C295.2188,348.5156 295.25,348.6406 295.3906,348.7656 C295.5313,348.9063 295.7656,349.0156 295.9844,349.0156 C296.25,349.0156 296.5156,348.875 296.6875,348.6563 C296.7969,348.5 296.8281,348.3125 296.8281,347.8906 L296.8281,346.4688 C296.8281,346.0313 296.8125,345.9063 296.7188,345.75 C296.5625,345.4844 296.2813,345.3438 295.9844,345.3438 C295.6875,345.3438 295.4844,345.4375 295.2656,345.75 L295.0938,345.6719 Z " fill="#000000"/><text fill="#000000" font-family="sans-serif" font-size="12" lengthAdjust="spacing" textLength="71" x="313.25" y="354.1543">TravelRoute</text><line style="stroke:#A80036;stroke-width:1.5;" x1="234.5" x2="430.5" y1="366" y2="366"/><text fill="#000000" font-family="sans-serif" font-size="11" lengthAdjust="spacing" textLength="85" x="239.5" y="380.2104">-Port arrivalPort</text><text fill="#000000" font-family="sans-serif" font-size="11" lengthAdjust="spacing" textLength="108" x="239.5" y="393.0151">-Port DeparturePort</text><text fill="#000000" font-family="sans-serif" font-size="11" lengthAdjust="spacing" textLength="186" x="239.5" y="405.8198">-List&lt;ShipDynamic&gt; listDynamic</text><line style="stroke:#A80036;stroke-width:1.5;" x1="234.5" x2="430.5" y1="412.4141" y2="412.4141"/><text fill="#000000" font-family="sans-serif" font-size="11" lengthAdjust="spacing" textLength="149" x="239.5" y="426.6245">+getStartBaseDateTime()</text><text fill="#000000" font-family="sans-serif" font-size="11" lengthAdjust="spacing" textLength="143" x="239.5" y="439.4292">+getEndBaseDateTime()</text><text fill="#000000" font-family="sans-serif" font-size="11" lengthAdjust="spacing" textLength="93" x="239.5" y="452.2339">+getMeanSOG()</text><text fill="#000000" font-family="sans-serif" font-size="11" lengthAdjust="spacing" textLength="85" x="239.5" y="465.0386">+getMaxSOG()</text><text fill="#000000" font-family="sans-serif" font-size="11" lengthAdjust="spacing" textLength="93" x="239.5" y="477.8433">+getMeanCOG()</text><text fill="#000000" font-family="sans-serif" font-size="11" lengthAdjust="spacing" textLength="85" x="239.5" y="490.6479">+getMaxCOG()</text><text fill="#000000" font-family="sans-serif" font-size="11" lengthAdjust="spacing" textLength="150" x="239.5" y="503.4526">+getDepartureLongitude()</text><text fill="#000000" font-family="sans-serif" font-size="11" lengthAdjust="spacing" textLength="140" x="239.5" y="516.2573">+getDepartureLatitude()</text><text fill="#000000" font-family="sans-serif" font-size="11" lengthAdjust="spacing" textLength="128" x="239.5" y="529.062">+getArrivalLongitude()</text><text fill="#000000" font-family="sans-serif" font-size="11" lengthAdjust="spacing" textLength="118" x="239.5" y="541.8667">+getArrivalLatitude()</text><text fill="#000000" font-family="sans-serif" font-size="11" lengthAdjust="spacing" textLength="140" x="239.5" y="554.6714">+getTravelledDistance()</text><text fill="#000000" font-family="sans-serif" font-size="11" lengthAdjust="spacing" textLength="117" x="239.5" y="567.4761">+getDeltaDistance()</text><!--MD5=[5628a0158f573ba8ed032f181d09a249]
link Ship to TravelRoute--><path codeLine="49" d="M332.5,257.25 C332.5,276.904 332.5,302.478 332.5,328.622 " fill="none" id="Ship-to-TravelRoute" style="stroke:#A80036;stroke-width:1.0;"/><polygon fill="#A80036" points="332.5,333.857,336.5,324.857,332.5,328.857,328.5,324.857,332.5,333.857" style="stroke:#A80036;stroke-width:1.0;"/><text fill="#000000" font-family="sans-serif" font-size="13" lengthAdjust="spacing" textLength="34" x="333.5" y="300.0669">owns</text><text fill="#000000" font-family="sans-serif" font-size="13" lengthAdjust="spacing" textLength="8" x="323.8375" y="276.772">1</text><text fill="#000000" font-family="sans-serif" font-size="13" lengthAdjust="spacing" textLength="23" x="308.7633" y="322.7488">1..*</text><!--MD5=[c6b57f6c5473ae80747685112aa606f1]
reverse link Identification to Ship--><path codeLine="50" d="M272.069,98.512 C285.116,124.524 301.838,157.865 314.383,182.877 " fill="none" id="Identification-backto-Ship" style="stroke:#A80036;stroke-width:1.0;"/><polygon fill="#A80036" points="269.678,93.744,270.1365,103.5822,271.9192,98.2136,277.2878,99.9962,269.678,93.744" style="stroke:#A80036;stroke-width:1.0;"/><text fill="#000000" font-family="sans-serif" font-size="13" lengthAdjust="spacing" textLength="23" x="300.5" y="149.0669">has</text><text fill="#000000" font-family="sans-serif" font-size="13" lengthAdjust="spacing" textLength="8" x="264.0262" y="113.265">1</text><text fill="#000000" font-family="sans-serif" font-size="13" lengthAdjust="spacing" textLength="8" x="302.4434" y="172.042">1</text><!--MD5=[0226f55439608f4074d0479680a3b4ff]
reverse link ShipDynamic to Ship--><path codeLine="51" d="M456.395,645.735 C458.455,637.449 460.214,629.123 461.5,621 C481.467,494.884 500.95,450.416 448.5,334 C434.757,303.496 408.725,276.935 384.799,257.241 " fill="none" id="ShipDynamic-backto-Ship" style="stroke:#A80036;stroke-width:1.0;stroke-dasharray:7.0,7.0;"/><polygon fill="#A80036" points="455.074,650.886,461.1835,643.1611,456.3156,646.0426,453.4341,641.1746,455.074,650.886" style="stroke:#A80036;stroke-width:1.0;"/><!--MD5=[b18020918cd8644ea662e6d63ac2171c]
link Ship to SummaryOfShipMovement--><path codeLine="52" d="M244.932,233.867 C209.971,243.196 172.038,259.28 146.5,287 C113.382,322.947 104.6364,380.929 102.6292,417.983 " fill="none" id="Ship-to-SummaryOfShipMovement" style="stroke:#A80036;stroke-width:1.0;"/><polygon fill="#A80036" points="102.3799,423.293,106.7997,414.4916,102.6156,418.2986,98.8086,414.1144,102.3799,423.293" style="stroke:#A80036;stroke-width:1.0;"/><text fill="#000000" font-family="sans-serif" font-size="13" lengthAdjust="spacing" textLength="176" x="147.5" y="300.0669">creates using the last route</text><text fill="#000000" font-family="sans-serif" font-size="13" lengthAdjust="spacing" textLength="8" x="229.0629" y="231.5036">1</text><text fill="#000000" font-family="sans-serif" font-size="13" lengthAdjust="spacing" textLength="8" x="93.5301" y="412.5135">1</text><!--MD5=[a01cb41aea4f4c927c771c9dbcf8c183]
reverse link ShipCharacteristics to Ship--><path codeLine="53" d="M387.306,111.059 C375.337,134.632 361.591,161.706 350.859,182.842 " fill="none" id="ShipCharacteristics-backto-Ship" style="stroke:#A80036;stroke-width:1.0;"/><polygon fill="#A80036" points="389.675,106.394,382.0341,112.6082,387.4115,110.8523,389.1674,116.2298,389.675,106.394" style="stroke:#A80036;stroke-width:1.0;"/><text fill="#000000" font-family="sans-serif" font-size="13" lengthAdjust="spacing" textLength="23" x="374.5" y="149.0669">has</text><text fill="#000000" font-family="sans-serif" font-size="13" lengthAdjust="spacing" textLength="8" x="377.8016" y="126.1674">1</text><text fill="#000000" font-family="sans-serif" font-size="13" lengthAdjust="spacing" textLength="8" x="345.4167" y="172.0008">1</text><!--MD5=[e2ed64465c9831239d403168c398b68f]
link TravelRoute to ShipDynamic--><path codeLine="54" d="M370.828,574.197 C378.538,598.172 386.529,623.023 393.886,645.903 " fill="none" id="TravelRoute-to-ShipDynamic" style="stroke:#A80036;stroke-width:1.0;"/><polygon fill="#A80036" points="395.446,650.754,396.5,640.9617,393.916,645.9939,388.8838,643.4098,395.446,650.754" style="stroke:#A80036;stroke-width:1.0;"/><text fill="#000000" font-family="sans-serif" font-size="13" lengthAdjust="spacing" textLength="68" x="384.5" y="617.0669">is made of</text><text fill="#000000" font-family="sans-serif" font-size="13" lengthAdjust="spacing" textLength="8" x="364.9199" y="594.0473">1</text><text fill="#000000" font-family="sans-serif" font-size="13" lengthAdjust="spacing" textLength="27" x="365.0048" y="639.8955">1...*</text><!--MD5=[1d1f9926c022c7cf2439593801fc0dd6]
@startuml
skinparam classAttributeIconSize 0
class Ship {
-List<TravelRoute> listRoute
+getLastRoute()
}
class Identification{
-String MMSI
+getMMSI()

}
class SummaryOfShipMovement{
+create(Ship ship)
}
class ShipDynamic{
-Time baseDateTime
-double SOG
-double COG
-double latitude
-double longitude
+getBaseDateTime()
+getSOG()
+getCOG()
+getLatitude()
+getLongitude()
}
class ShipCharacteristics{
-String vesselType
-String vesselName
+getVesselType()
+getVesselName()
}
class TravelRoute{
-Port arrivalPort
-Port DeparturePort
-List<ShipDynamic> listDynamic
+getStartBaseDateTime()
+getEndBaseDateTime()
+getMeanSOG()
+getMaxSOG()
+getMeanCOG()
+getMaxCOG()
+getDepartureLongitude()
+getDepartureLatitude()
+getArrivalLongitude()
+getArrivalLatitude()
+getTravelledDistance()
+getDeltaDistance()
}
Ship "1" - -> "1..*" TravelRoute : owns
Identification "1" <- - "1" Ship :has
ShipDynamic <.. Ship
Ship "1" - -> "1" SummaryOfShipMovement : creates using the last route
ShipCharacteristics "1" <- - "1" Ship :has
TravelRoute "1" - -> "1...*" ShipDynamic : is made of
@enduml

PlantUML version 1.2021.13beta8(Unknown compile time)
(GPL source distribution)
Java Runtime: Java(TM) SE Runtime Environment
JVM: Java HotSpot(TM) 64-Bit Server VM
Default Encoding: UTF-8
Language: en
Country: US
--></g></svg>