<?xml version="1.0" encoding="UTF-8" standalone="no"?><svg xmlns="http://www.w3.org/2000/svg" xmlns:xlink="http://www.w3.org/1999/xlink" contentScriptType="application/ecmascript" contentStyleType="text/css" height="309px" preserveAspectRatio="none" style="width:610px;height:309px;background:#FFFFFF;" version="1.1" viewBox="0 0 610 309" width="610px" zoomAndPan="magnify"><defs><filter height="300%" id="f3dgd6um16tr5" width="300%" x="-1" y="-1"><feGaussianBlur result="blurOut" stdDeviation="2.0"/><feColorMatrix in="blurOut" result="blurOut2" type="matrix" values="0 0 0 0 0 0 0 0 0 0 0 0 0 0 0 0 0 0 .4 0"/><feOffset dx="4.0" dy="4.0" in="blurOut2" result="blurOut3"/><feBlend in="SourceGraphic" in2="blurOut3" mode="normal"/></filter></defs><g><rect fill="#FFFFFF" filter="url(#f3dgd6um16tr5)" height="108.5313" style="stroke:#A80036;stroke-width:1.0;" width="10" x="59" y="98.2969"/><rect fill="#FFFFFF" filter="url(#f3dgd6um16tr5)" height="29.1328" style="stroke:#A80036;stroke-width:1.0;" width="10" x="557" y="119.4297"/><rect fill="#FFFFFF" filter="url(#f3dgd6um16tr5)" height="29.1328" style="stroke:#A80036;stroke-width:1.0;" width="10" x="557" y="177.6953"/><line style="stroke:#A80036;stroke-width:1.0;stroke-dasharray:5.0,5.0;" x1="64" x2="64" y1="88.2969" y2="224.8281"/><line style="stroke:#A80036;stroke-width:1.0;stroke-dasharray:5.0,5.0;" x1="561.5" x2="561.5" y1="88.2969" y2="224.8281"/><text fill="#000000" font-family="sans-serif" font-size="14" lengthAdjust="spacing" textLength="112" x="5" y="84.9951">Traffic Manager</text><ellipse cx="64" cy="15" fill="#FEFECE" filter="url(#f3dgd6um16tr5)" rx="8" ry="8" style="stroke:#A80036;stroke-width:2.0;"/><path d="M64,23 L64,50 M51,31 L77,31 M64,50 L51,65 M64,50 L77,65 " fill="none" filter="url(#f3dgd6um16tr5)" style="stroke:#A80036;stroke-width:2.0;"/><text fill="#000000" font-family="sans-serif" font-size="14" lengthAdjust="spacing" textLength="112" x="5" y="236.8232">Traffic Manager</text><ellipse cx="64" cy="250.125" fill="#FEFECE" filter="url(#f3dgd6um16tr5)" rx="8" ry="8" style="stroke:#A80036;stroke-width:2.0;"/><path d="M64,258.125 L64,285.125 M51,266.125 L77,266.125 M64,285.125 L51,300.125 M64,285.125 L77,300.125 " fill="none" filter="url(#f3dgd6um16tr5)" style="stroke:#A80036;stroke-width:2.0;"/><rect fill="#FEFECE" filter="url(#f3dgd6um16tr5)" height="30.2969" style="stroke:#A80036;stroke-width:1.5;" width="73" x="523.5" y="53"/><text fill="#000000" font-family="sans-serif" font-size="14" lengthAdjust="spacing" textLength="59" x="530.5" y="72.9951">:System</text><rect fill="#FEFECE" filter="url(#f3dgd6um16tr5)" height="30.2969" style="stroke:#A80036;stroke-width:1.5;" width="73" x="523.5" y="223.8281"/><text fill="#000000" font-family="sans-serif" font-size="14" lengthAdjust="spacing" textLength="59" x="530.5" y="243.8232">:System</text><rect fill="#FFFFFF" filter="url(#f3dgd6um16tr5)" height="108.5313" style="stroke:#A80036;stroke-width:1.0;" width="10" x="59" y="98.2969"/><rect fill="#FFFFFF" filter="url(#f3dgd6um16tr5)" height="29.1328" style="stroke:#A80036;stroke-width:1.0;" width="10" x="557" y="119.4297"/><rect fill="#FFFFFF" filter="url(#f3dgd6um16tr5)" height="29.1328" style="stroke:#A80036;stroke-width:1.0;" width="10" x="557" y="177.6953"/><polygon fill="#A80036" points="545,115.4297,555,119.4297,545,123.4297,549,119.4297" style="stroke:#A80036;stroke-width:1.0;"/><line style="stroke:#A80036;stroke-width:1.0;" x1="69" x2="551" y1="119.4297" y2="119.4297"/><text fill="#000000" font-family="sans-serif" font-size="13" font-weight="bold" lengthAdjust="spacing" textLength="9" x="76" y="114.3638">1</text><text fill="#000000" font-family="sans-serif" font-size="13" lengthAdjust="spacing" textLength="247" x="89" y="114.3638">chooses a ship to make a summary of</text><polygon fill="#A80036" points="80,144.5625,70,148.5625,80,152.5625,76,148.5625" style="stroke:#A80036;stroke-width:1.0;"/><line style="stroke:#A80036;stroke-width:1.0;stroke-dasharray:2.0,2.0;" x1="74" x2="561" y1="148.5625" y2="148.5625"/><text fill="#000000" font-family="sans-serif" font-size="13" font-weight="bold" lengthAdjust="spacing" textLength="9" x="86" y="143.4966">2</text><text fill="#000000" font-family="sans-serif" font-size="13" lengthAdjust="spacing" textLength="451" x="99" y="143.4966">shows the traffic manager the data necessary to create the summary</text><polygon fill="#A80036" points="545,173.6953,555,177.6953,545,181.6953,549,177.6953" style="stroke:#A80036;stroke-width:1.0;"/><line style="stroke:#A80036;stroke-width:1.0;" x1="69" x2="551" y1="177.6953" y2="177.6953"/><text fill="#000000" font-family="sans-serif" font-size="13" font-weight="bold" lengthAdjust="spacing" textLength="8" x="76" y="172.6294">3</text><text fill="#000000" font-family="sans-serif" font-size="13" lengthAdjust="spacing" textLength="114" x="88" y="172.6294">confirms the data</text><polygon fill="#A80036" points="75,202.8281,65,206.8281,75,210.8281,71,206.8281" style="stroke:#A80036;stroke-width:1.0;"/><line style="stroke:#A80036;stroke-width:1.0;stroke-dasharray:2.0,2.0;" x1="69" x2="561" y1="206.8281" y2="206.8281"/><text fill="#000000" font-family="sans-serif" font-size="13" font-weight="bold" lengthAdjust="spacing" textLength="9" x="81" y="201.7622">4</text><text fill="#000000" font-family="sans-serif" font-size="13" lengthAdjust="spacing" textLength="169" x="94" y="201.7622">informs operation success</text><!--MD5=[da707675c30a20c01386f4b1d958f79d]
@startuml
autonumber
actor "Traffic Manager" as TM

activate TM
TM-> ":System" : chooses a ship to make a summary of
activate ":System"
":System" - -> TM : shows the traffic manager the data necessary to create the summary
deactivate ":System"

TM -> ":System" : confirms the data
activate ":System"
":System" - -> TM : informs operation success
deactivate ":System"

deactivate TM
@enduml

PlantUML version 1.2021.14(Fri Nov 12 16:46:50 UTC 2021)
(GPL source distribution)
Java Runtime: Java(TM) SE Runtime Environment
JVM: Java HotSpot(TM) 64-Bit Server VM
Default Encoding: UTF-8
Language: en
Country: US
--></g></svg>