<?xml version="1.0" encoding="UTF-8" standalone="no"?><svg xmlns="http://www.w3.org/2000/svg" xmlns:xlink="http://www.w3.org/1999/xlink" contentScriptType="application/ecmascript" contentStyleType="text/css" height="367px" preserveAspectRatio="none" style="width:610px;height:367px;background:#FFFFFF;" version="1.1" viewBox="0 0 610 367" width="610px" zoomAndPan="magnify"><defs><filter height="300%" id="f1okzi7cttomiw" width="300%" x="-1" y="-1"><feGaussianBlur result="blurOut" stdDeviation="2.0"/><feColorMatrix in="blurOut" result="blurOut2" type="matrix" values="0 0 0 0 0 0 0 0 0 0 0 0 0 0 0 0 0 0 .4 0"/><feOffset dx="4.0" dy="4.0" in="blurOut2" result="blurOut3"/><feBlend in="SourceGraphic" in2="blurOut3" mode="normal"/></filter></defs><g><rect fill="#FFFFFF" filter="url(#f1okzi7cttomiw)" height="166.7969" style="stroke:#A80036;stroke-width:1.0;" width="10" x="59" y="98.2969"/><rect fill="#FFFFFF" filter="url(#f1okzi7cttomiw)" height="29.1328" style="stroke:#A80036;stroke-width:1.0;" width="10" x="557" y="119.4297"/><rect fill="#FFFFFF" filter="url(#f1okzi7cttomiw)" height="29.1328" style="stroke:#A80036;stroke-width:1.0;" width="10" x="557" y="177.6953"/><rect fill="#FFFFFF" filter="url(#f1okzi7cttomiw)" height="29.1328" style="stroke:#A80036;stroke-width:1.0;" width="10" x="557" y="235.9609"/><line style="stroke:#A80036;stroke-width:1.0;stroke-dasharray:5.0,5.0;" x1="64" x2="64" y1="88.2969" y2="283.0938"/><line style="stroke:#A80036;stroke-width:1.0;stroke-dasharray:5.0,5.0;" x1="561.5" x2="561.5" y1="88.2969" y2="283.0938"/><text fill="#000000" font-family="sans-serif" font-size="14" lengthAdjust="spacing" textLength="112" x="5" y="84.9951">Traffic Manager</text><ellipse cx="64" cy="15" fill="#FEFECE" filter="url(#f1okzi7cttomiw)" rx="8" ry="8" style="stroke:#A80036;stroke-width:2.0;"/><path d="M64,23 L64,50 M51,31 L77,31 M64,50 L51,65 M64,50 L77,65 " fill="none" filter="url(#f1okzi7cttomiw)" style="stroke:#A80036;stroke-width:2.0;"/><text fill="#000000" font-family="sans-serif" font-size="14" lengthAdjust="spacing" textLength="112" x="5" y="295.0889">Traffic Manager</text><ellipse cx="64" cy="308.3906" fill="#FEFECE" filter="url(#f1okzi7cttomiw)" rx="8" ry="8" style="stroke:#A80036;stroke-width:2.0;"/><path d="M64,316.3906 L64,343.3906 M51,324.3906 L77,324.3906 M64,343.3906 L51,358.3906 M64,343.3906 L77,358.3906 " fill="none" filter="url(#f1okzi7cttomiw)" style="stroke:#A80036;stroke-width:2.0;"/><rect fill="#FEFECE" filter="url(#f1okzi7cttomiw)" height="30.2969" style="stroke:#A80036;stroke-width:1.5;" width="73" x="523.5" y="53"/><text fill="#000000" font-family="sans-serif" font-size="14" lengthAdjust="spacing" textLength="59" x="530.5" y="72.9951">:System</text><rect fill="#FEFECE" filter="url(#f1okzi7cttomiw)" height="30.2969" style="stroke:#A80036;stroke-width:1.5;" width="73" x="523.5" y="282.0938"/><text fill="#000000" font-family="sans-serif" font-size="14" lengthAdjust="spacing" textLength="59" x="530.5" y="302.0889">:System</text><rect fill="#FFFFFF" filter="url(#f1okzi7cttomiw)" height="166.7969" style="stroke:#A80036;stroke-width:1.0;" width="10" x="59" y="98.2969"/><rect fill="#FFFFFF" filter="url(#f1okzi7cttomiw)" height="29.1328" style="stroke:#A80036;stroke-width:1.0;" width="10" x="557" y="119.4297"/><rect fill="#FFFFFF" filter="url(#f1okzi7cttomiw)" height="29.1328" style="stroke:#A80036;stroke-width:1.0;" width="10" x="557" y="177.6953"/><rect fill="#FFFFFF" filter="url(#f1okzi7cttomiw)" height="29.1328" style="stroke:#A80036;stroke-width:1.0;" width="10" x="557" y="235.9609"/><polygon fill="#A80036" points="545,115.4297,555,119.4297,545,123.4297,549,119.4297" style="stroke:#A80036;stroke-width:1.0;"/><line style="stroke:#A80036;stroke-width:1.0;" x1="69" x2="551" y1="119.4297" y2="119.4297"/><text fill="#000000" font-family="sans-serif" font-size="13" font-weight="bold" lengthAdjust="spacing" textLength="9" x="76" y="114.3638">1</text><text fill="#000000" font-family="sans-serif" font-size="13" lengthAdjust="spacing" textLength="247" x="89" y="114.3638">chooses a ship to make a summary of</text><polygon fill="#A80036" points="80,144.5625,70,148.5625,80,152.5625,76,148.5625" style="stroke:#A80036;stroke-width:1.0;"/><line style="stroke:#A80036;stroke-width:1.0;stroke-dasharray:2.0,2.0;" x1="74" x2="561" y1="148.5625" y2="148.5625"/><text fill="#000000" font-family="sans-serif" font-size="13" font-weight="bold" lengthAdjust="spacing" textLength="9" x="86" y="143.4966">2</text><text fill="#000000" font-family="sans-serif" font-size="13" lengthAdjust="spacing" textLength="451" x="99" y="143.4966">shows the traffic manager the data necessary to create the summary</text><polygon fill="#A80036" points="545,173.6953,555,177.6953,545,181.6953,549,177.6953" style="stroke:#A80036;stroke-width:1.0;"/><line style="stroke:#A80036;stroke-width:1.0;" x1="69" x2="551" y1="177.6953" y2="177.6953"/><text fill="#000000" font-family="sans-serif" font-size="13" font-weight="bold" lengthAdjust="spacing" textLength="8" x="76" y="172.6294">3</text><text fill="#000000" font-family="sans-serif" font-size="13" lengthAdjust="spacing" textLength="251" x="88" y="172.6294">types the summary of the movements</text><polygon fill="#A80036" points="80,202.8281,70,206.8281,80,210.8281,76,206.8281" style="stroke:#A80036;stroke-width:1.0;"/><line style="stroke:#A80036;stroke-width:1.0;stroke-dasharray:2.0,2.0;" x1="74" x2="561" y1="206.8281" y2="206.8281"/><text fill="#000000" font-family="sans-serif" font-size="13" font-weight="bold" lengthAdjust="spacing" textLength="9" x="86" y="201.7622">4</text><text fill="#000000" font-family="sans-serif" font-size="13" lengthAdjust="spacing" textLength="284" x="99" y="201.7622">shows the data and requests a confirmation</text><polygon fill="#A80036" points="545,231.9609,555,235.9609,545,239.9609,549,235.9609" style="stroke:#A80036;stroke-width:1.0;"/><line style="stroke:#A80036;stroke-width:1.0;" x1="69" x2="551" y1="235.9609" y2="235.9609"/><text fill="#000000" font-family="sans-serif" font-size="13" font-weight="bold" lengthAdjust="spacing" textLength="9" x="76" y="230.895">5</text><text fill="#000000" font-family="sans-serif" font-size="13" lengthAdjust="spacing" textLength="114" x="89" y="230.895">confirms the data</text><polygon fill="#A80036" points="75,261.0938,65,265.0938,75,269.0938,71,265.0938" style="stroke:#A80036;stroke-width:1.0;"/><line style="stroke:#A80036;stroke-width:1.0;stroke-dasharray:2.0,2.0;" x1="69" x2="561" y1="265.0938" y2="265.0938"/><text fill="#000000" font-family="sans-serif" font-size="13" font-weight="bold" lengthAdjust="spacing" textLength="9" x="81" y="260.0278">6</text><text fill="#000000" font-family="sans-serif" font-size="13" lengthAdjust="spacing" textLength="169" x="94" y="260.0278">informs operation success</text><!--MD5=[afb6bea966649e7f7fad06873de43226]
@startuml
autonumber
actor "Traffic Manager" as TM

activate TM
TM-> ":System" : chooses a ship to make a summary of
activate ":System"
":System" - -> TM : shows the traffic manager the data necessary to create the summary
deactivate ":System"

TM -> ":System" : types the summary of the movements
activate ":System"
":System" - -> TM : shows the data and requests a confirmation
deactivate ":System"

TM -> ":System" : confirms the data
activate ":System"
":System" - -> TM : informs operation success
deactivate ":System"

deactivate TM
@enduml

PlantUML version 1.2021.13beta7(Unknown compile time)
(GPL source distribution)
Java Runtime: Java(TM) SE Runtime Environment
JVM: Java HotSpot(TM) 64-Bit Server VM
Default Encoding: UTF-8
Language: en
Country: US
--></g></svg>