<?xml version="1.0" encoding="UTF-8" standalone="no"?><svg xmlns="http://www.w3.org/2000/svg" xmlns:xlink="http://www.w3.org/1999/xlink" contentScriptType="application/ecmascript" contentStyleType="text/css" height="1550px" preserveAspectRatio="none" style="width:1901px;height:1550px;background:#FFFFFF;" version="1.1" viewBox="0 0 1901 1550" width="1901px" zoomAndPan="magnify"><defs><filter height="300%" id="ftpb1zrjipva1" width="300%" x="-1" y="-1"><feGaussianBlur result="blurOut" stdDeviation="2.0"/><feColorMatrix in="blurOut" result="blurOut2" type="matrix" values="0 0 0 0 0 0 0 0 0 0 0 0 0 0 0 0 0 0 .4 0"/><feOffset dx="4.0" dy="4.0" in="blurOut2" result="blurOut3"/><feBlend in="SourceGraphic" in2="blurOut3" mode="normal"/></filter></defs><g><rect fill="#FFFFFF" filter="url(#ftpb1zrjipva1)" height="1358.6484" style="stroke:#A80036;stroke-width:1.0;" width="10" x="59" y="98.2969"/><rect fill="#FFFFFF" filter="url(#ftpb1zrjipva1)" height="29.1328" style="stroke:#A80036;stroke-width:1.0;" width="10" x="477" y="119.4297"/><rect fill="#FFFFFF" filter="url(#ftpb1zrjipva1)" height="29.1328" style="stroke:#A80036;stroke-width:1.0;" width="10" x="477" y="1418.8125"/><rect fill="#FFFFFF" filter="url(#ftpb1zrjipva1)" height="1270.25" style="stroke:#A80036;stroke-width:1.0;" width="10" x="719" y="148.5625"/><rect fill="#FFFFFF" filter="url(#ftpb1zrjipva1)" height="1211.9844" style="stroke:#A80036;stroke-width:1.0;" width="10" x="886" y="177.6953"/><rect fill="#FFFFFF" filter="url(#ftpb1zrjipva1)" height="30" style="stroke:#A80036;stroke-width:1.0;" width="10" x="1040" y="206.8281"/><rect fill="#FFFFFF" filter="url(#ftpb1zrjipva1)" height="29.1328" style="stroke:#A80036;stroke-width:1.0;" width="10" x="1191.5" y="265.9609"/><rect fill="#FFFFFF" filter="url(#ftpb1zrjipva1)" height="1065.4531" style="stroke:#A80036;stroke-width:1.0;" width="10" x="1338" y="324.2266"/><rect fill="#FFFFFF" filter="url(#ftpb1zrjipva1)" height="1036.3203" style="stroke:#A80036;stroke-width:1.0;" width="10" x="1603" y="353.3594"/><rect fill="#FFFFFF" filter="url(#ftpb1zrjipva1)" height="30" style="stroke:#A80036;stroke-width:1.0;" width="10" x="1814" y="382.4922"/><rect fill="#FFFFFF" filter="url(#ftpb1zrjipva1)" height="30" style="stroke:#A80036;stroke-width:1.0;" width="10" x="1814" y="470.7578"/><rect fill="#FFFFFF" filter="url(#ftpb1zrjipva1)" height="30" style="stroke:#A80036;stroke-width:1.0;" width="10" x="1814" y="583.1563"/><rect fill="#FFFFFF" filter="url(#ftpb1zrjipva1)" height="30" style="stroke:#A80036;stroke-width:1.0;" width="10" x="1814" y="702.5547"/><rect fill="#FFFFFF" filter="url(#ftpb1zrjipva1)" height="30" style="stroke:#A80036;stroke-width:1.0;" width="10" x="1814" y="821.9531"/><rect fill="#FFFFFF" filter="url(#ftpb1zrjipva1)" height="30" style="stroke:#A80036;stroke-width:1.0;" width="10" x="1814" y="941.3516"/><rect fill="#FFFFFF" filter="url(#ftpb1zrjipva1)" height="30" style="stroke:#A80036;stroke-width:1.0;" width="10" x="1814" y="1036.6172"/><rect fill="#FFFFFF" filter="url(#ftpb1zrjipva1)" height="30" style="stroke:#A80036;stroke-width:1.0;" width="10" x="1814" y="1124.8828"/><rect fill="#FFFFFF" filter="url(#ftpb1zrjipva1)" height="30" style="stroke:#A80036;stroke-width:1.0;" width="10" x="1814" y="1213.1484"/><rect fill="#FFFFFF" filter="url(#ftpb1zrjipva1)" height="30" style="stroke:#A80036;stroke-width:1.0;" width="10" x="1814" y="1301.4141"/><rect fill="#FFFFFF" filter="url(#ftpb1zrjipva1)" height="76.2656" style="stroke:#000000;stroke-width:2.0;" width="361" x="1526.5" y="544.8906"/><rect fill="#FFFFFF" filter="url(#ftpb1zrjipva1)" height="76.2656" style="stroke:#000000;stroke-width:2.0;" width="361" x="1526.5" y="664.2891"/><rect fill="#FFFFFF" filter="url(#ftpb1zrjipva1)" height="76.2656" style="stroke:#000000;stroke-width:2.0;" width="361" x="1526.5" y="783.6875"/><rect fill="#FFFFFF" filter="url(#ftpb1zrjipva1)" height="76.2656" style="stroke:#000000;stroke-width:2.0;" width="361" x="1526.5" y="903.0859"/><line style="stroke:#A80036;stroke-width:1.0;stroke-dasharray:5.0,5.0;" x1="64" x2="64" y1="88.2969" y2="1465.9453"/><line style="stroke:#A80036;stroke-width:1.0;stroke-dasharray:5.0,5.0;" x1="482" x2="482" y1="88.2969" y2="1465.9453"/><line style="stroke:#A80036;stroke-width:1.0;stroke-dasharray:5.0,5.0;" x1="724" x2="724" y1="88.2969" y2="1465.9453"/><line style="stroke:#A80036;stroke-width:1.0;stroke-dasharray:5.0,5.0;" x1="890.5" x2="890.5" y1="88.2969" y2="1465.9453"/><line style="stroke:#A80036;stroke-width:1.0;stroke-dasharray:5.0,5.0;" x1="1045" x2="1045" y1="88.2969" y2="1465.9453"/><line style="stroke:#A80036;stroke-width:1.0;stroke-dasharray:5.0,5.0;" x1="1196" x2="1196" y1="88.2969" y2="1465.9453"/><line style="stroke:#A80036;stroke-width:1.0;stroke-dasharray:5.0,5.0;" x1="1343" x2="1343" y1="88.2969" y2="1465.9453"/><line style="stroke:#A80036;stroke-width:1.0;stroke-dasharray:5.0,5.0;" x1="1607.5" x2="1607.5" y1="88.2969" y2="1465.9453"/><line style="stroke:#A80036;stroke-width:1.0;stroke-dasharray:5.0,5.0;" x1="1818.5" x2="1818.5" y1="88.2969" y2="1465.9453"/><text fill="#000000" font-family="sans-serif" font-size="14" lengthAdjust="spacing" textLength="112" x="5" y="84.9951">Traffic Manager</text><ellipse cx="64" cy="15" fill="#FEFECE" filter="url(#ftpb1zrjipva1)" rx="8" ry="8" style="stroke:#A80036;stroke-width:2.0;"/><path d="M64,23 L64,50 M51,31 L77,31 M64,50 L51,65 M64,50 L77,65 " fill="none" filter="url(#ftpb1zrjipva1)" style="stroke:#A80036;stroke-width:2.0;"/><text fill="#000000" font-family="sans-serif" font-size="14" lengthAdjust="spacing" textLength="112" x="5" y="1477.9404">Traffic Manager</text><ellipse cx="64" cy="1491.2422" fill="#FEFECE" filter="url(#ftpb1zrjipva1)" rx="8" ry="8" style="stroke:#A80036;stroke-width:2.0;"/><path d="M64,1499.2422 L64,1526.2422 M51,1507.2422 L77,1507.2422 M64,1526.2422 L51,1541.2422 M64,1526.2422 L77,1541.2422 " fill="none" filter="url(#ftpb1zrjipva1)" style="stroke:#A80036;stroke-width:2.0;"/><rect fill="#FEFECE" filter="url(#ftpb1zrjipva1)" height="30.2969" style="stroke:#A80036;stroke-width:1.5;" width="244" x="358" y="53"/><text fill="#000000" font-family="sans-serif" font-size="14" lengthAdjust="spacing" textLength="230" x="365" y="72.9951">:SummaryOfShipMovementTest</text><rect fill="#FEFECE" filter="url(#ftpb1zrjipva1)" height="30.2969" style="stroke:#A80036;stroke-width:1.5;" width="244" x="358" y="1464.9453"/><text fill="#000000" font-family="sans-serif" font-size="14" lengthAdjust="spacing" textLength="230" x="365" y="1484.9404">:SummaryOfShipMovementTest</text><rect fill="#FEFECE" filter="url(#ftpb1zrjipva1)" height="30.2969" style="stroke:#A80036;stroke-width:1.5;" width="212" x="616" y="53"/><text fill="#000000" font-family="sans-serif" font-size="14" lengthAdjust="spacing" textLength="198" x="623" y="72.9951">:SummaryOfShipMovement</text><rect fill="#FEFECE" filter="url(#ftpb1zrjipva1)" height="30.2969" style="stroke:#A80036;stroke-width:1.5;" width="212" x="616" y="1464.9453"/><text fill="#000000" font-family="sans-serif" font-size="14" lengthAdjust="spacing" textLength="198" x="623" y="1484.9404">:SummaryOfShipMovement</text><rect fill="#FEFECE" filter="url(#ftpb1zrjipva1)" height="30.2969" style="stroke:#A80036;stroke-width:1.5;" width="51" x="863.5" y="53"/><text fill="#000000" font-family="sans-serif" font-size="14" lengthAdjust="spacing" textLength="37" x="870.5" y="72.9951">:Ship</text><rect fill="#FEFECE" filter="url(#ftpb1zrjipva1)" height="30.2969" style="stroke:#A80036;stroke-width:1.5;" width="51" x="863.5" y="1464.9453"/><text fill="#000000" font-family="sans-serif" font-size="14" lengthAdjust="spacing" textLength="37" x="870.5" y="1484.9404">:Ship</text><rect fill="#FEFECE" filter="url(#ftpb1zrjipva1)" height="30.2969" style="stroke:#A80036;stroke-width:1.5;" width="116" x="985" y="53"/><text fill="#000000" font-family="sans-serif" font-size="14" lengthAdjust="spacing" textLength="102" x="992" y="72.9951">:Identification</text><rect fill="#FEFECE" filter="url(#ftpb1zrjipva1)" height="30.2969" style="stroke:#A80036;stroke-width:1.5;" width="116" x="985" y="1464.9453"/><text fill="#000000" font-family="sans-serif" font-size="14" lengthAdjust="spacing" textLength="102" x="992" y="1484.9404">:Identification</text><rect fill="#FEFECE" filter="url(#ftpb1zrjipva1)" height="30.2969" style="stroke:#A80036;stroke-width:1.5;" width="159" x="1115" y="53"/><text fill="#000000" font-family="sans-serif" font-size="14" lengthAdjust="spacing" textLength="145" x="1122" y="72.9951">:ShipCharacteristics</text><rect fill="#FEFECE" filter="url(#ftpb1zrjipva1)" height="30.2969" style="stroke:#A80036;stroke-width:1.5;" width="159" x="1115" y="1464.9453"/><text fill="#000000" font-family="sans-serif" font-size="14" lengthAdjust="spacing" textLength="145" x="1122" y="1484.9404">:ShipCharacteristics</text><rect fill="#FEFECE" filter="url(#ftpb1zrjipva1)" height="30.2969" style="stroke:#A80036;stroke-width:1.5;" width="106" x="1288" y="53"/><text fill="#000000" font-family="sans-serif" font-size="14" lengthAdjust="spacing" textLength="92" x="1295" y="72.9951">:TravelRoute</text><rect fill="#FEFECE" filter="url(#ftpb1zrjipva1)" height="30.2969" style="stroke:#A80036;stroke-width:1.5;" width="106" x="1288" y="1464.9453"/><text fill="#000000" font-family="sans-serif" font-size="14" lengthAdjust="spacing" textLength="92" x="1295" y="1484.9404">:TravelRoute</text><rect fill="#FEFECE" filter="url(#ftpb1zrjipva1)" height="30.2969" style="stroke:#A80036;stroke-width:1.5;" width="139" x="1536.5" y="53"/><text fill="#000000" font-family="sans-serif" font-size="14" lengthAdjust="spacing" textLength="125" x="1543.5" y="72.9951">:ShipDynamicList</text><rect fill="#FEFECE" filter="url(#ftpb1zrjipva1)" height="30.2969" style="stroke:#A80036;stroke-width:1.5;" width="139" x="1536.5" y="1464.9453"/><text fill="#000000" font-family="sans-serif" font-size="14" lengthAdjust="spacing" textLength="125" x="1543.5" y="1484.9404">:ShipDynamicList</text><rect fill="#FEFECE" filter="url(#ftpb1zrjipva1)" height="30.2969" style="stroke:#A80036;stroke-width:1.5;" width="113" x="1760.5" y="53"/><text fill="#000000" font-family="sans-serif" font-size="14" lengthAdjust="spacing" textLength="99" x="1767.5" y="72.9951">:ShipDynamic</text><rect fill="#FEFECE" filter="url(#ftpb1zrjipva1)" height="30.2969" style="stroke:#A80036;stroke-width:1.5;" width="113" x="1760.5" y="1464.9453"/><text fill="#000000" font-family="sans-serif" font-size="14" lengthAdjust="spacing" textLength="99" x="1767.5" y="1484.9404">:ShipDynamic</text><rect fill="#FFFFFF" filter="url(#ftpb1zrjipva1)" height="1358.6484" style="stroke:#A80036;stroke-width:1.0;" width="10" x="59" y="98.2969"/><rect fill="#FFFFFF" filter="url(#ftpb1zrjipva1)" height="29.1328" style="stroke:#A80036;stroke-width:1.0;" width="10" x="477" y="119.4297"/><rect fill="#FFFFFF" filter="url(#ftpb1zrjipva1)" height="29.1328" style="stroke:#A80036;stroke-width:1.0;" width="10" x="477" y="1418.8125"/><rect fill="#FFFFFF" filter="url(#ftpb1zrjipva1)" height="1270.25" style="stroke:#A80036;stroke-width:1.0;" width="10" x="719" y="148.5625"/><rect fill="#FFFFFF" filter="url(#ftpb1zrjipva1)" height="1211.9844" style="stroke:#A80036;stroke-width:1.0;" width="10" x="886" y="177.6953"/><rect fill="#FFFFFF" filter="url(#ftpb1zrjipva1)" height="30" style="stroke:#A80036;stroke-width:1.0;" width="10" x="1040" y="206.8281"/><rect fill="#FFFFFF" filter="url(#ftpb1zrjipva1)" height="29.1328" style="stroke:#A80036;stroke-width:1.0;" width="10" x="1191.5" y="265.9609"/><rect fill="#FFFFFF" filter="url(#ftpb1zrjipva1)" height="1065.4531" style="stroke:#A80036;stroke-width:1.0;" width="10" x="1338" y="324.2266"/><rect fill="#FFFFFF" filter="url(#ftpb1zrjipva1)" height="1036.3203" style="stroke:#A80036;stroke-width:1.0;" width="10" x="1603" y="353.3594"/><rect fill="#FFFFFF" filter="url(#ftpb1zrjipva1)" height="30" style="stroke:#A80036;stroke-width:1.0;" width="10" x="1814" y="382.4922"/><rect fill="#FFFFFF" filter="url(#ftpb1zrjipva1)" height="30" style="stroke:#A80036;stroke-width:1.0;" width="10" x="1814" y="470.7578"/><rect fill="#FFFFFF" filter="url(#ftpb1zrjipva1)" height="30" style="stroke:#A80036;stroke-width:1.0;" width="10" x="1814" y="583.1563"/><rect fill="#FFFFFF" filter="url(#ftpb1zrjipva1)" height="30" style="stroke:#A80036;stroke-width:1.0;" width="10" x="1814" y="702.5547"/><rect fill="#FFFFFF" filter="url(#ftpb1zrjipva1)" height="30" style="stroke:#A80036;stroke-width:1.0;" width="10" x="1814" y="821.9531"/><rect fill="#FFFFFF" filter="url(#ftpb1zrjipva1)" height="30" style="stroke:#A80036;stroke-width:1.0;" width="10" x="1814" y="941.3516"/><rect fill="#FFFFFF" filter="url(#ftpb1zrjipva1)" height="30" style="stroke:#A80036;stroke-width:1.0;" width="10" x="1814" y="1036.6172"/><rect fill="#FFFFFF" filter="url(#ftpb1zrjipva1)" height="30" style="stroke:#A80036;stroke-width:1.0;" width="10" x="1814" y="1124.8828"/><rect fill="#FFFFFF" filter="url(#ftpb1zrjipva1)" height="30" style="stroke:#A80036;stroke-width:1.0;" width="10" x="1814" y="1213.1484"/><rect fill="#FFFFFF" filter="url(#ftpb1zrjipva1)" height="30" style="stroke:#A80036;stroke-width:1.0;" width="10" x="1814" y="1301.4141"/><polygon fill="#A80036" points="465,115.4297,475,119.4297,465,123.4297,469,119.4297" style="stroke:#A80036;stroke-width:1.0;"/><line style="stroke:#A80036;stroke-width:1.0;" x1="69" x2="471" y1="119.4297" y2="119.4297"/><text fill="#000000" font-family="sans-serif" font-size="13" font-weight="bold" lengthAdjust="spacing" textLength="9" x="76" y="114.3638">1</text><text fill="#000000" font-family="sans-serif" font-size="13" lengthAdjust="spacing" textLength="376" x="89" y="114.3638">Chooses a ship to create summary of ship movements for</text><polygon fill="#A80036" points="707,144.5625,717,148.5625,707,152.5625,711,148.5625" style="stroke:#A80036;stroke-width:1.0;"/><line style="stroke:#A80036;stroke-width:1.0;" x1="482" x2="713" y1="148.5625" y2="148.5625"/><text fill="#000000" font-family="sans-serif" font-size="13" font-weight="bold" lengthAdjust="spacing" textLength="9" x="489" y="143.4966">2</text><text fill="#000000" font-family="sans-serif" font-size="13" lengthAdjust="spacing" textLength="78" x="502" y="143.4966">create(Ship)</text><polygon fill="#A80036" points="874,173.6953,884,177.6953,874,181.6953,878,177.6953" style="stroke:#A80036;stroke-width:1.0;"/><line style="stroke:#A80036;stroke-width:1.0;" x1="729" x2="880" y1="177.6953" y2="177.6953"/><text fill="#000000" font-family="sans-serif" font-size="13" font-weight="bold" lengthAdjust="spacing" textLength="8" x="736" y="172.6294">3</text><text fill="#000000" font-family="sans-serif" font-size="13" lengthAdjust="spacing" textLength="126" x="748" y="172.6294">sosm= create(ship)</text><polygon fill="#A80036" points="1028,202.8281,1038,206.8281,1028,210.8281,1032,206.8281" style="stroke:#A80036;stroke-width:1.0;"/><line style="stroke:#A80036;stroke-width:1.0;" x1="896" x2="1034" y1="206.8281" y2="206.8281"/><text fill="#000000" font-family="sans-serif" font-size="13" font-weight="bold" lengthAdjust="spacing" textLength="9" x="903" y="201.7622">4</text><text fill="#000000" font-family="sans-serif" font-size="13" lengthAdjust="spacing" textLength="112" x="916" y="201.7622">mmsi= getMMSI()</text><polygon fill="#A80036" points="1179.5,261.9609,1189.5,265.9609,1179.5,269.9609,1183.5,265.9609" style="stroke:#A80036;stroke-width:1.0;"/><line style="stroke:#A80036;stroke-width:1.0;" x1="896" x2="1185.5" y1="265.9609" y2="265.9609"/><text fill="#000000" font-family="sans-serif" font-size="13" font-weight="bold" lengthAdjust="spacing" textLength="9" x="903" y="260.895">5</text><text fill="#000000" font-family="sans-serif" font-size="13" lengthAdjust="spacing" textLength="132" x="916" y="260.895">vt= getVesselType()</text><polygon fill="#A80036" points="1184.5,291.0938,1194.5,295.0938,1184.5,299.0938,1188.5,295.0938" style="stroke:#A80036;stroke-width:1.0;"/><line style="stroke:#A80036;stroke-width:1.0;" x1="896" x2="1190.5" y1="295.0938" y2="295.0938"/><text fill="#000000" font-family="sans-serif" font-size="13" font-weight="bold" lengthAdjust="spacing" textLength="9" x="903" y="290.0278">6</text><text fill="#000000" font-family="sans-serif" font-size="13" lengthAdjust="spacing" textLength="141" x="916" y="290.0278">vn= getVesselName()</text><polygon fill="#A80036" points="1326,320.2266,1336,324.2266,1326,328.2266,1330,324.2266" style="stroke:#A80036;stroke-width:1.0;"/><line style="stroke:#A80036;stroke-width:1.0;" x1="896" x2="1332" y1="324.2266" y2="324.2266"/><text fill="#000000" font-family="sans-serif" font-size="13" font-weight="bold" lengthAdjust="spacing" textLength="9" x="903" y="319.1606">7</text><text fill="#000000" font-family="sans-serif" font-size="13" lengthAdjust="spacing" textLength="160" x="916" y="319.1606">tr= getLastTravelRoute()</text><polygon fill="#A80036" points="1591,349.3594,1601,353.3594,1591,357.3594,1595,353.3594" style="stroke:#A80036;stroke-width:1.0;"/><line style="stroke:#A80036;stroke-width:1.0;" x1="1348" x2="1597" y1="353.3594" y2="353.3594"/><text fill="#000000" font-family="sans-serif" font-size="13" font-weight="bold" lengthAdjust="spacing" textLength="9" x="1355" y="348.2935">8</text><text fill="#000000" font-family="sans-serif" font-size="13" lengthAdjust="spacing" textLength="198" x="1368" y="348.2935">sbdt =getStartBaseDateTime()</text><polygon fill="#A80036" points="1802,378.4922,1812,382.4922,1802,386.4922,1806,382.4922" style="stroke:#A80036;stroke-width:1.0;"/><line style="stroke:#A80036;stroke-width:1.0;" x1="1613" x2="1808" y1="382.4922" y2="382.4922"/><text fill="#000000" font-family="sans-serif" font-size="13" font-weight="bold" lengthAdjust="spacing" textLength="9" x="1620" y="377.4263">9</text><text fill="#000000" font-family="sans-serif" font-size="13" lengthAdjust="spacing" textLength="160" x="1633" y="377.4263">bdt= getBaseDateTime()</text><polygon fill="#A80036" points="1591,437.625,1601,441.625,1591,445.625,1595,441.625" style="stroke:#A80036;stroke-width:1.0;"/><line style="stroke:#A80036;stroke-width:1.0;" x1="1348" x2="1597" y1="441.625" y2="441.625"/><text fill="#000000" font-family="sans-serif" font-size="13" font-weight="bold" lengthAdjust="spacing" textLength="19" x="1355" y="436.5591">10</text><text fill="#000000" font-family="sans-serif" font-size="13" lengthAdjust="spacing" textLength="192" x="1378" y="436.5591">ebdt =getEndBaseDateTime()</text><polygon fill="#A80036" points="1802,466.7578,1812,470.7578,1802,474.7578,1806,470.7578" style="stroke:#A80036;stroke-width:1.0;"/><line style="stroke:#A80036;stroke-width:1.0;" x1="1613" x2="1808" y1="470.7578" y2="470.7578"/><text fill="#000000" font-family="sans-serif" font-size="13" font-weight="bold" lengthAdjust="spacing" textLength="18" x="1620" y="465.6919">11</text><text fill="#000000" font-family="sans-serif" font-size="13" lengthAdjust="spacing" textLength="160" x="1642" y="465.6919">bdt= getBaseDateTime()</text><polygon fill="#A80036" points="1591,525.8906,1601,529.8906,1591,533.8906,1595,529.8906" style="stroke:#A80036;stroke-width:1.0;"/><line style="stroke:#A80036;stroke-width:1.0;" x1="1348" x2="1597" y1="529.8906" y2="529.8906"/><text fill="#000000" font-family="sans-serif" font-size="13" font-weight="bold" lengthAdjust="spacing" textLength="18" x="1355" y="524.8247">12</text><text fill="#000000" font-family="sans-serif" font-size="13" lengthAdjust="spacing" textLength="167" x="1377" y="524.8247">meansog =getMeanSOG()</text><path d="M1526.5,544.8906 L1604.5,544.8906 L1604.5,551.8906 L1594.5,561.8906 L1526.5,561.8906 L1526.5,544.8906 " fill="#EEEEEE" style="stroke:#000000;stroke-width:1.0;"/><rect fill="none" height="76.2656" style="stroke:#000000;stroke-width:2.0;" width="361" x="1526.5" y="544.8906"/><text fill="#000000" font-family="sans-serif" font-size="13" font-weight="bold" lengthAdjust="spacing" textLength="33" x="1541.5" y="557.9575">loop</text><polygon fill="#A80036" points="1802,579.1563,1812,583.1563,1802,587.1563,1806,583.1563" style="stroke:#A80036;stroke-width:1.0;"/><line style="stroke:#A80036;stroke-width:1.0;" x1="1613" x2="1808" y1="583.1563" y2="583.1563"/><text fill="#000000" font-family="sans-serif" font-size="13" font-weight="bold" lengthAdjust="spacing" textLength="17" x="1620" y="578.0903">13</text><text fill="#000000" font-family="sans-serif" font-size="13" lengthAdjust="spacing" textLength="96" x="1641" y="578.0903">sog= getSOG()</text><polygon fill="#A80036" points="1591,645.2891,1601,649.2891,1591,653.2891,1595,649.2891" style="stroke:#A80036;stroke-width:1.0;"/><line style="stroke:#A80036;stroke-width:1.0;" x1="1348" x2="1597" y1="649.2891" y2="649.2891"/><text fill="#000000" font-family="sans-serif" font-size="13" font-weight="bold" lengthAdjust="spacing" textLength="18" x="1355" y="644.2231">14</text><text fill="#000000" font-family="sans-serif" font-size="13" lengthAdjust="spacing" textLength="151" x="1377" y="644.2231">maxsog =getMaxSOG()</text><path d="M1526.5,664.2891 L1604.5,664.2891 L1604.5,671.2891 L1594.5,681.2891 L1526.5,681.2891 L1526.5,664.2891 " fill="#EEEEEE" style="stroke:#000000;stroke-width:1.0;"/><rect fill="none" height="76.2656" style="stroke:#000000;stroke-width:2.0;" width="361" x="1526.5" y="664.2891"/><text fill="#000000" font-family="sans-serif" font-size="13" font-weight="bold" lengthAdjust="spacing" textLength="33" x="1541.5" y="677.356">loop</text><polygon fill="#A80036" points="1802,698.5547,1812,702.5547,1802,706.5547,1806,702.5547" style="stroke:#A80036;stroke-width:1.0;"/><line style="stroke:#A80036;stroke-width:1.0;" x1="1613" x2="1808" y1="702.5547" y2="702.5547"/><text fill="#000000" font-family="sans-serif" font-size="13" font-weight="bold" lengthAdjust="spacing" textLength="18" x="1620" y="697.4888">15</text><text fill="#000000" font-family="sans-serif" font-size="13" lengthAdjust="spacing" textLength="96" x="1642" y="697.4888">sog= getSOG()</text><polygon fill="#A80036" points="1591,764.6875,1601,768.6875,1591,772.6875,1595,768.6875" style="stroke:#A80036;stroke-width:1.0;"/><line style="stroke:#A80036;stroke-width:1.0;" x1="1348" x2="1597" y1="768.6875" y2="768.6875"/><text fill="#000000" font-family="sans-serif" font-size="13" font-weight="bold" lengthAdjust="spacing" textLength="18" x="1355" y="763.6216">16</text><text fill="#000000" font-family="sans-serif" font-size="13" lengthAdjust="spacing" textLength="168" x="1377" y="763.6216">meancog =getMeanCOG()</text><path d="M1526.5,783.6875 L1604.5,783.6875 L1604.5,790.6875 L1594.5,800.6875 L1526.5,800.6875 L1526.5,783.6875 " fill="#EEEEEE" style="stroke:#000000;stroke-width:1.0;"/><rect fill="none" height="76.2656" style="stroke:#000000;stroke-width:2.0;" width="361" x="1526.5" y="783.6875"/><text fill="#000000" font-family="sans-serif" font-size="13" font-weight="bold" lengthAdjust="spacing" textLength="33" x="1541.5" y="796.7544">loop</text><polygon fill="#A80036" points="1802,817.9531,1812,821.9531,1802,825.9531,1806,821.9531" style="stroke:#A80036;stroke-width:1.0;"/><line style="stroke:#A80036;stroke-width:1.0;" x1="1613" x2="1808" y1="821.9531" y2="821.9531"/><text fill="#000000" font-family="sans-serif" font-size="13" font-weight="bold" lengthAdjust="spacing" textLength="18" x="1620" y="816.8872">17</text><text fill="#000000" font-family="sans-serif" font-size="13" lengthAdjust="spacing" textLength="97" x="1642" y="816.8872">cog= getCOG()</text><polygon fill="#A80036" points="1591,884.0859,1601,888.0859,1591,892.0859,1595,888.0859" style="stroke:#A80036;stroke-width:1.0;"/><line style="stroke:#A80036;stroke-width:1.0;" x1="1348" x2="1597" y1="888.0859" y2="888.0859"/><text fill="#000000" font-family="sans-serif" font-size="13" font-weight="bold" lengthAdjust="spacing" textLength="18" x="1355" y="883.02">18</text><text fill="#000000" font-family="sans-serif" font-size="13" lengthAdjust="spacing" textLength="152" x="1377" y="883.02">maxcog =getMaxCOG()</text><path d="M1526.5,903.0859 L1604.5,903.0859 L1604.5,910.0859 L1594.5,920.0859 L1526.5,920.0859 L1526.5,903.0859 " fill="#EEEEEE" style="stroke:#000000;stroke-width:1.0;"/><rect fill="none" height="76.2656" style="stroke:#000000;stroke-width:2.0;" width="361" x="1526.5" y="903.0859"/><text fill="#000000" font-family="sans-serif" font-size="13" font-weight="bold" lengthAdjust="spacing" textLength="33" x="1541.5" y="916.1528">loop</text><polygon fill="#A80036" points="1802,937.3516,1812,941.3516,1802,945.3516,1806,941.3516" style="stroke:#A80036;stroke-width:1.0;"/><line style="stroke:#A80036;stroke-width:1.0;" x1="1613" x2="1808" y1="941.3516" y2="941.3516"/><text fill="#000000" font-family="sans-serif" font-size="13" font-weight="bold" lengthAdjust="spacing" textLength="18" x="1620" y="936.2856">19</text><text fill="#000000" font-family="sans-serif" font-size="13" lengthAdjust="spacing" textLength="97" x="1642" y="936.2856">cog= getCOG()</text><polygon fill="#A80036" points="1591,1003.4844,1601,1007.4844,1591,1011.4844,1595,1007.4844" style="stroke:#A80036;stroke-width:1.0;"/><line style="stroke:#A80036;stroke-width:1.0;" x1="1348" x2="1597" y1="1007.4844" y2="1007.4844"/><text fill="#000000" font-family="sans-serif" font-size="13" font-weight="bold" lengthAdjust="spacing" textLength="19" x="1355" y="1002.4185">20</text><text fill="#000000" font-family="sans-serif" font-size="13" lengthAdjust="spacing" textLength="208" x="1378" y="1002.4185">dlong =getDepartureLongitude()</text><polygon fill="#A80036" points="1802,1032.6172,1812,1036.6172,1802,1040.6172,1806,1036.6172" style="stroke:#A80036;stroke-width:1.0;"/><line style="stroke:#A80036;stroke-width:1.0;" x1="1613" x2="1808" y1="1036.6172" y2="1036.6172"/><text fill="#000000" font-family="sans-serif" font-size="13" font-weight="bold" lengthAdjust="spacing" textLength="18" x="1620" y="1031.5513">21</text><text fill="#000000" font-family="sans-serif" font-size="13" lengthAdjust="spacing" textLength="135" x="1642" y="1031.5513">long= getLongitude()</text><polygon fill="#A80036" points="1591,1091.75,1601,1095.75,1591,1099.75,1595,1095.75" style="stroke:#A80036;stroke-width:1.0;"/><line style="stroke:#A80036;stroke-width:1.0;" x1="1348" x2="1597" y1="1095.75" y2="1095.75"/><text fill="#000000" font-family="sans-serif" font-size="13" font-weight="bold" lengthAdjust="spacing" textLength="18" x="1355" y="1090.6841">22</text><text fill="#000000" font-family="sans-serif" font-size="13" lengthAdjust="spacing" textLength="181" x="1377" y="1090.6841">dla =getDepartureLatitude()</text><polygon fill="#A80036" points="1802,1120.8828,1812,1124.8828,1802,1128.8828,1806,1124.8828" style="stroke:#A80036;stroke-width:1.0;"/><line style="stroke:#A80036;stroke-width:1.0;" x1="1613" x2="1808" y1="1124.8828" y2="1124.8828"/><text fill="#000000" font-family="sans-serif" font-size="13" font-weight="bold" lengthAdjust="spacing" textLength="17" x="1620" y="1119.8169">23</text><text fill="#000000" font-family="sans-serif" font-size="13" lengthAdjust="spacing" textLength="108" x="1641" y="1119.8169">la= getLatitude()</text><polygon fill="#A80036" points="1591,1180.0156,1601,1184.0156,1591,1188.0156,1595,1184.0156" style="stroke:#A80036;stroke-width:1.0;"/><line style="stroke:#A80036;stroke-width:1.0;" x1="1348" x2="1597" y1="1184.0156" y2="1184.0156"/><text fill="#000000" font-family="sans-serif" font-size="13" font-weight="bold" lengthAdjust="spacing" textLength="18" x="1355" y="1178.9497">24</text><text fill="#000000" font-family="sans-serif" font-size="13" lengthAdjust="spacing" textLength="184" x="1377" y="1178.9497">along =getArrivalLongitude()</text><polygon fill="#A80036" points="1802,1209.1484,1812,1213.1484,1802,1217.1484,1806,1213.1484" style="stroke:#A80036;stroke-width:1.0;"/><line style="stroke:#A80036;stroke-width:1.0;" x1="1613" x2="1808" y1="1213.1484" y2="1213.1484"/><text fill="#000000" font-family="sans-serif" font-size="13" font-weight="bold" lengthAdjust="spacing" textLength="18" x="1620" y="1208.0825">25</text><text fill="#000000" font-family="sans-serif" font-size="13" lengthAdjust="spacing" textLength="135" x="1642" y="1208.0825">long= getLongitude()</text><polygon fill="#A80036" points="1591,1268.2813,1601,1272.2813,1591,1276.2813,1595,1272.2813" style="stroke:#A80036;stroke-width:1.0;"/><line style="stroke:#A80036;stroke-width:1.0;" x1="1348" x2="1597" y1="1272.2813" y2="1272.2813"/><text fill="#000000" font-family="sans-serif" font-size="13" font-weight="bold" lengthAdjust="spacing" textLength="18" x="1355" y="1267.2153">26</text><text fill="#000000" font-family="sans-serif" font-size="13" lengthAdjust="spacing" textLength="157" x="1377" y="1267.2153">ala =getArrivalLatitude()</text><polygon fill="#A80036" points="1802,1297.4141,1812,1301.4141,1802,1305.4141,1806,1301.4141" style="stroke:#A80036;stroke-width:1.0;"/><line style="stroke:#A80036;stroke-width:1.0;" x1="1613" x2="1808" y1="1301.4141" y2="1301.4141"/><text fill="#000000" font-family="sans-serif" font-size="13" font-weight="bold" lengthAdjust="spacing" textLength="18" x="1620" y="1296.3481">27</text><text fill="#000000" font-family="sans-serif" font-size="13" lengthAdjust="spacing" textLength="108" x="1642" y="1296.3481">la= getLatitude()</text><polygon fill="#A80036" points="1591,1356.5469,1601,1360.5469,1591,1364.5469,1595,1360.5469" style="stroke:#A80036;stroke-width:1.0;"/><line style="stroke:#A80036;stroke-width:1.0;" x1="1348" x2="1597" y1="1360.5469" y2="1360.5469"/><text fill="#000000" font-family="sans-serif" font-size="13" font-weight="bold" lengthAdjust="spacing" textLength="18" x="1355" y="1355.481">28</text><text fill="#000000" font-family="sans-serif" font-size="13" lengthAdjust="spacing" textLength="173" x="1377" y="1355.481">td =getTravelledDistance()</text><polygon fill="#A80036" points="1596,1385.6797,1606,1389.6797,1596,1393.6797,1600,1389.6797" style="stroke:#A80036;stroke-width:1.0;"/><line style="stroke:#A80036;stroke-width:1.0;" x1="1343" x2="1602" y1="1389.6797" y2="1389.6797"/><text fill="#000000" font-family="sans-serif" font-size="13" font-weight="bold" lengthAdjust="spacing" textLength="18" x="1350" y="1384.6138">29</text><text fill="#000000" font-family="sans-serif" font-size="13" lengthAdjust="spacing" textLength="151" x="1372" y="1384.6138">dd =getDeltaDistance()</text><polygon fill="#A80036" points="498,1414.8125,488,1418.8125,498,1422.8125,494,1418.8125" style="stroke:#A80036;stroke-width:1.0;"/><line style="stroke:#A80036;stroke-width:1.0;" x1="492" x2="723" y1="1418.8125" y2="1418.8125"/><text fill="#000000" font-family="sans-serif" font-size="13" font-weight="bold" lengthAdjust="spacing" textLength="18" x="504" y="1413.7466">30</text><text fill="#000000" font-family="sans-serif" font-size="13" lengthAdjust="spacing" textLength="65" x="526" y="1413.7466">PrintMap()</text><polygon fill="#A80036" points="80,1443.9453,70,1447.9453,80,1451.9453,76,1447.9453" style="stroke:#A80036;stroke-width:1.0;"/><line style="stroke:#A80036;stroke-width:1.0;" x1="74" x2="481" y1="1447.9453" y2="1447.9453"/><text fill="#000000" font-family="sans-serif" font-size="13" font-weight="bold" lengthAdjust="spacing" textLength="17" x="86" y="1442.8794">31</text><text fill="#000000" font-family="sans-serif" font-size="13" lengthAdjust="spacing" textLength="363" x="107" y="1442.8794">the traffic manager can now see all the data for the ship</text><!--MD5=[f527f84597ef915d053600fb63ecb763]
@startuml
autonumber
actor "Traffic Manager" as TM
participant ":SummaryOfShipMovementTest" as SOSMT
participant ":SummaryOfShipMovement" as SOSM
participant ":Ship" as S
participant ":Identification" as ID
participant ":ShipCharacteristics" as SC
participant ":TravelRoute" as TR
participant ":ShipDynamicList" as SDL
participant ":ShipDynamic" as SD
activate TM
TM -> SOSMT: Chooses a ship to create summary of ship movements for
activate SOSMT
SOSMT -> SOSM :create(Ship)
deactivate SOSMT
activate SOSM
SOSM -> S : sosm= create(ship)
activate S
S -> ID : mmsi= getMMSI()
activate ID
deactivate ID
S -> SC : vt= getVesselType()
activate SC
S -> SC : vn= getVesselName()
deactivate SC
S -> TR : tr= getLastTravelRoute()
activate TR
TR -> SDL :sbdt =getStartBaseDateTime()
activate SDL
SDL -> SD : bdt= getBaseDateTime()
activate SD
deactivate SD
TR -> SDL :ebdt =getEndBaseDateTime()
SDL -> SD : bdt= getBaseDateTime()
activate SD
deactivate SD
TR -> SDL :meansog =getMeanSOG()
loop
SDL -> SD : sog= getSOG()
activate SD
deactivate SD
end
TR -> SDL :maxsog =getMaxSOG()
loop
SDL -> SD : sog= getSOG()
activate SD
deactivate SD
end
TR -> SDL :meancog =getMeanCOG()
loop
SDL -> SD : cog= getCOG()
activate SD
deactivate SD
end
TR -> SDL :maxcog =getMaxCOG()
loop
SDL -> SD : cog= getCOG()
activate SD
deactivate SD
end
TR -> SDL :dlong =getDepartureLongitude()
SDL -> SD : long= getLongitude()
activate SD
deactivate SD
TR -> SDL :dla =getDepartureLatitude()
SDL -> SD : la= getLatitude()
activate SD
deactivate SD
TR -> SDL :along =getArrivalLongitude()
SDL -> SD : long= getLongitude()
activate SD
deactivate SD
TR -> SDL :ala =getArrivalLatitude()
SDL -> SD : la= getLatitude()
activate SD
deactivate SD
TR -> SDL :td =getTravelledDistance()
TR -> SDL :dd =getDeltaDistance()
deactivate SDL
deactivate TR
deactivate S
SOSM -> SOSMT :PrintMap()
deactivate SOSM
activate SOSMT 
SOSMT -> TM : the traffic manager can now see all the data for the ship
deactivate SOSMT
@enduml

PlantUML version 1.2021.14(Fri Nov 12 16:46:50 UTC 2021)
(GPL source distribution)
Java Runtime: Java(TM) SE Runtime Environment
JVM: Java HotSpot(TM) 64-Bit Server VM
Default Encoding: UTF-8
Language: en
Country: US
--></g></svg>