<?xml version="1.0" encoding="UTF-8" standalone="no"?><svg xmlns="http://www.w3.org/2000/svg" xmlns:xlink="http://www.w3.org/1999/xlink" contentScriptType="application/ecmascript" contentStyleType="text/css" height="917px" preserveAspectRatio="none" style="width:230px;height:917px;background:#FFFFFF;" version="1.1" viewBox="0 0 230 917" width="230px" zoomAndPan="magnify"><defs><filter height="300%" id="f1g6o4potcqbea" width="300%" x="-1" y="-1"><feGaussianBlur result="blurOut" stdDeviation="2.0"/><feColorMatrix in="blurOut" result="blurOut2" type="matrix" values="0 0 0 0 0 0 0 0 0 0 0 0 0 0 0 0 0 0 .4 0"/><feOffset dx="4.0" dy="4.0" in="blurOut2" result="blurOut3"/><feBlend in="SourceGraphic" in2="blurOut3" mode="normal"/></filter></defs><g><!--MD5=[0dc7f2ddb409b58bcf52b12238c25399]
class Ship--><rect codeLine="2" fill="#FEFECE" filter="url(#f1g6o4potcqbea)" height="188.8516" id="Ship" style="stroke:#A80036;stroke-width:1.5;" width="177" x="14" y="234"/><ellipse cx="85.25" cy="250" fill="#ADD1B2" rx="11" ry="11" style="stroke:#A80036;stroke-width:1.0;"/><path d="M87.5938,245.6719 C86.6563,245.2344 86.0625,245.0938 85.1875,245.0938 C82.5625,245.0938 80.5625,247.1719 80.5625,249.8906 L80.5625,251.0156 C80.5625,253.5938 82.6719,255.4844 85.5625,255.4844 C86.7813,255.4844 87.9375,255.1875 88.6875,254.6406 C89.2656,254.2344 89.5938,253.7813 89.5938,253.3906 C89.5938,252.9375 89.2031,252.5469 88.7344,252.5469 C88.5156,252.5469 88.3125,252.625 88.125,252.8125 C87.6719,253.2969 87.6719,253.2969 87.4844,253.3906 C87.0625,253.6563 86.375,253.7813 85.6094,253.7813 C83.5625,253.7813 82.2656,252.6875 82.2656,250.9844 L82.2656,249.8906 C82.2656,248.1094 83.5156,246.7969 85.25,246.7969 C85.8281,246.7969 86.4375,246.9531 86.9063,247.2031 C87.3906,247.4844 87.5625,247.7031 87.6563,248.1094 C87.7188,248.5156 87.75,248.6406 87.8906,248.7656 C88.0313,248.9063 88.2656,249.0156 88.4844,249.0156 C88.75,249.0156 89.0156,248.875 89.1875,248.6563 C89.2969,248.5 89.3281,248.3125 89.3281,247.8906 L89.3281,246.4688 C89.3281,246.0313 89.3125,245.9063 89.2188,245.75 C89.0625,245.4844 88.7813,245.3438 88.4844,245.3438 C88.1875,245.3438 87.9844,245.4375 87.7656,245.75 L87.5938,245.6719 Z " fill="#000000"/><text fill="#000000" font-family="sans-serif" font-size="12" lengthAdjust="spacing" textLength="26" x="105.75" y="254.1543">Ship</text><line style="stroke:#A80036;stroke-width:1.5;" x1="15" x2="190" y1="266" y2="266"/><text fill="#000000" font-family="sans-serif" font-size="11" lengthAdjust="spacing" textLength="33" x="20" y="280.2104">-MMSI</text><text fill="#000000" font-family="sans-serif" font-size="11" lengthAdjust="spacing" textLength="37" x="20" y="293.0151">-name</text><text fill="#000000" font-family="sans-serif" font-size="11" lengthAdjust="spacing" textLength="81" x="20" y="305.8198">-IMOIDnumber</text><text fill="#000000" font-family="sans-serif" font-size="11" lengthAdjust="spacing" textLength="165" x="20" y="318.6245">-numberOfEnergyGenerators</text><text fill="#000000" font-family="sans-serif" font-size="11" lengthAdjust="spacing" textLength="132" x="20" y="331.4292">-generatorPowerOutput</text><text fill="#000000" font-family="sans-serif" font-size="11" lengthAdjust="spacing" textLength="48" x="20" y="344.2339">-callSign</text><text fill="#000000" font-family="sans-serif" font-size="11" lengthAdjust="spacing" textLength="101" x="20" y="357.0386">-vesselTypeCode</text><text fill="#000000" font-family="sans-serif" font-size="11" lengthAdjust="spacing" textLength="34" x="20" y="369.8433">-width</text><text fill="#000000" font-family="sans-serif" font-size="11" lengthAdjust="spacing" textLength="40" x="20" y="382.6479">-length</text><text fill="#000000" font-family="sans-serif" font-size="11" lengthAdjust="spacing" textLength="51" x="20" y="395.4526">-capacity</text><text fill="#000000" font-family="sans-serif" font-size="11" lengthAdjust="spacing" textLength="30" x="20" y="408.2573">-draft</text><line style="stroke:#A80036;stroke-width:1.5;" x1="15" x2="190" y1="414.8516" y2="414.8516"/><!--MD5=[ddaf6f62b0bc30921877ec9fb9463c9f]
class TrafficManager--><rect codeLine="16" fill="#FEFECE" filter="url(#f1g6o4potcqbea)" height="73.6094" id="TrafficManager" style="stroke:#A80036;stroke-width:1.5;" width="121" x="42" y="830"/><ellipse cx="57" cy="846" fill="#ADD1B2" rx="11" ry="11" style="stroke:#A80036;stroke-width:1.0;"/><path d="M59.3438,841.6719 C58.4063,841.2344 57.8125,841.0938 56.9375,841.0938 C54.3125,841.0938 52.3125,843.1719 52.3125,845.8906 L52.3125,847.0156 C52.3125,849.5938 54.4219,851.4844 57.3125,851.4844 C58.5313,851.4844 59.6875,851.1875 60.4375,850.6406 C61.0156,850.2344 61.3438,849.7813 61.3438,849.3906 C61.3438,848.9375 60.9531,848.5469 60.4844,848.5469 C60.2656,848.5469 60.0625,848.625 59.875,848.8125 C59.4219,849.2969 59.4219,849.2969 59.2344,849.3906 C58.8125,849.6563 58.125,849.7813 57.3594,849.7813 C55.3125,849.7813 54.0156,848.6875 54.0156,846.9844 L54.0156,845.8906 C54.0156,844.1094 55.2656,842.7969 57,842.7969 C57.5781,842.7969 58.1875,842.9531 58.6563,843.2031 C59.1406,843.4844 59.3125,843.7031 59.4063,844.1094 C59.4688,844.5156 59.5,844.6406 59.6406,844.7656 C59.7813,844.9063 60.0156,845.0156 60.2344,845.0156 C60.5,845.0156 60.7656,844.875 60.9375,844.6563 C61.0469,844.5 61.0781,844.3125 61.0781,843.8906 L61.0781,842.4688 C61.0781,842.0313 61.0625,841.9063 60.9688,841.75 C60.8125,841.4844 60.5313,841.3438 60.2344,841.3438 C59.9375,841.3438 59.7344,841.4375 59.5156,841.75 L59.3438,841.6719 Z " fill="#000000"/><text fill="#000000" font-family="sans-serif" font-size="12" lengthAdjust="spacing" textLength="89" x="71" y="850.1543">TrafficManager</text><line style="stroke:#A80036;stroke-width:1.5;" x1="43" x2="162" y1="862" y2="862"/><text fill="#000000" font-family="sans-serif" font-size="11" lengthAdjust="spacing" textLength="41" x="48" y="876.2104">-userID</text><text fill="#000000" font-family="sans-serif" font-size="11" lengthAdjust="spacing" textLength="37" x="48" y="889.0151">-name</text><line style="stroke:#A80036;stroke-width:1.5;" x1="43" x2="162" y1="895.6094" y2="895.6094"/><!--MD5=[3ce36178935a61438ea769c26dd685ce]
class SummaryOfShipMovement--><rect codeLine="20" fill="#FEFECE" filter="url(#f1g6o4potcqbea)" height="252.875" id="SummaryOfShipMovement" style="stroke:#A80036;stroke-width:1.5;" width="191" x="7" y="500"/><ellipse cx="22" cy="516" fill="#ADD1B2" rx="11" ry="11" style="stroke:#A80036;stroke-width:1.0;"/><path d="M24.3438,511.6719 C23.4063,511.2344 22.8125,511.0938 21.9375,511.0938 C19.3125,511.0938 17.3125,513.1719 17.3125,515.8906 L17.3125,517.0156 C17.3125,519.5938 19.4219,521.4844 22.3125,521.4844 C23.5313,521.4844 24.6875,521.1875 25.4375,520.6406 C26.0156,520.2344 26.3438,519.7813 26.3438,519.3906 C26.3438,518.9375 25.9531,518.5469 25.4844,518.5469 C25.2656,518.5469 25.0625,518.625 24.875,518.8125 C24.4219,519.2969 24.4219,519.2969 24.2344,519.3906 C23.8125,519.6563 23.125,519.7813 22.3594,519.7813 C20.3125,519.7813 19.0156,518.6875 19.0156,516.9844 L19.0156,515.8906 C19.0156,514.1094 20.2656,512.7969 22,512.7969 C22.5781,512.7969 23.1875,512.9531 23.6563,513.2031 C24.1406,513.4844 24.3125,513.7031 24.4063,514.1094 C24.4688,514.5156 24.5,514.6406 24.6406,514.7656 C24.7813,514.9063 25.0156,515.0156 25.2344,515.0156 C25.5,515.0156 25.7656,514.875 25.9375,514.6563 C26.0469,514.5 26.0781,514.3125 26.0781,513.8906 L26.0781,512.4688 C26.0781,512.0313 26.0625,511.9063 25.9688,511.75 C25.8125,511.4844 25.5313,511.3438 25.2344,511.3438 C24.9375,511.3438 24.7344,511.4375 24.5156,511.75 L24.3438,511.6719 Z " fill="#000000"/><text fill="#000000" font-family="sans-serif" font-size="12" lengthAdjust="spacing" textLength="159" x="36" y="520.1543">SummaryOfShipMovement</text><line style="stroke:#A80036;stroke-width:1.5;" x1="8" x2="197" y1="532" y2="532"/><text fill="#000000" font-family="sans-serif" font-size="11" lengthAdjust="spacing" textLength="57" x="13" y="546.2104">-shipCode</text><text fill="#000000" font-family="sans-serif" font-size="11" lengthAdjust="spacing" textLength="76" x="13" y="559.0151">-vesselName</text><text fill="#000000" font-family="sans-serif" font-size="11" lengthAdjust="spacing" textLength="115" x="13" y="571.8198">-startBaseDateTime</text><text fill="#000000" font-family="sans-serif" font-size="11" lengthAdjust="spacing" textLength="112" x="13" y="584.6245">-endBaseDateTime</text><text fill="#000000" font-family="sans-serif" font-size="11" lengthAdjust="spacing" textLength="119" x="13" y="597.4292">-totalMovementTime</text><text fill="#000000" font-family="sans-serif" font-size="11" lengthAdjust="spacing" textLength="154" x="13" y="610.2339">-totalNumberOfMovements</text><text fill="#000000" font-family="sans-serif" font-size="11" lengthAdjust="spacing" textLength="55" x="13" y="623.0386">-maxSOG</text><text fill="#000000" font-family="sans-serif" font-size="11" lengthAdjust="spacing" textLength="63" x="13" y="635.8433">-meanSOG</text><text fill="#000000" font-family="sans-serif" font-size="11" lengthAdjust="spacing" textLength="55" x="13" y="648.6479">-maxCOG</text><text fill="#000000" font-family="sans-serif" font-size="11" lengthAdjust="spacing" textLength="63" x="13" y="661.4526">-meanCOG</text><text fill="#000000" font-family="sans-serif" font-size="11" lengthAdjust="spacing" textLength="106" x="13" y="674.2573">-departureLatitude</text><text fill="#000000" font-family="sans-serif" font-size="11" lengthAdjust="spacing" textLength="116" x="13" y="687.062">-departureLongitude</text><text fill="#000000" font-family="sans-serif" font-size="11" lengthAdjust="spacing" textLength="85" x="13" y="699.8667">-arrivalLatitude</text><text fill="#000000" font-family="sans-serif" font-size="11" lengthAdjust="spacing" textLength="95" x="13" y="712.6714">-arrivalLongitude</text><text fill="#000000" font-family="sans-serif" font-size="11" lengthAdjust="spacing" textLength="105" x="13" y="725.4761">-travelledDistance</text><text fill="#000000" font-family="sans-serif" font-size="11" lengthAdjust="spacing" textLength="83" x="13" y="738.2808">-deltaDistance</text><line style="stroke:#A80036;stroke-width:1.5;" x1="8" x2="197" y1="744.875" y2="744.875"/><!--MD5=[19c2b9eb46691e25b02426140995a460]
class ShipDynamic--><rect codeLine="38" fill="#FEFECE" filter="url(#f1g6o4potcqbea)" height="150.4375" id="ShipDynamic" style="stroke:#A80036;stroke-width:1.5;" width="110" x="47.5" y="7"/><ellipse cx="62.95" cy="23" fill="#ADD1B2" rx="11" ry="11" style="stroke:#A80036;stroke-width:1.0;"/><path d="M65.2938,18.6719 C64.3563,18.2344 63.7625,18.0938 62.8875,18.0938 C60.2625,18.0938 58.2625,20.1719 58.2625,22.8906 L58.2625,24.0156 C58.2625,26.5938 60.3719,28.4844 63.2625,28.4844 C64.4813,28.4844 65.6375,28.1875 66.3875,27.6406 C66.9656,27.2344 67.2938,26.7813 67.2938,26.3906 C67.2938,25.9375 66.9031,25.5469 66.4344,25.5469 C66.2156,25.5469 66.0125,25.625 65.825,25.8125 C65.3719,26.2969 65.3719,26.2969 65.1844,26.3906 C64.7625,26.6563 64.075,26.7813 63.3094,26.7813 C61.2625,26.7813 59.9656,25.6875 59.9656,23.9844 L59.9656,22.8906 C59.9656,21.1094 61.2156,19.7969 62.95,19.7969 C63.5281,19.7969 64.1375,19.9531 64.6063,20.2031 C65.0906,20.4844 65.2625,20.7031 65.3563,21.1094 C65.4188,21.5156 65.45,21.6406 65.5906,21.7656 C65.7313,21.9063 65.9656,22.0156 66.1844,22.0156 C66.45,22.0156 66.7156,21.875 66.8875,21.6563 C66.9969,21.5 67.0281,21.3125 67.0281,20.8906 L67.0281,19.4688 C67.0281,19.0313 67.0125,18.9063 66.9188,18.75 C66.7625,18.4844 66.4813,18.3438 66.1844,18.3438 C65.8875,18.3438 65.6844,18.4375 65.4656,18.75 L65.2938,18.6719 Z " fill="#000000"/><text fill="#000000" font-family="sans-serif" font-size="12" lengthAdjust="spacing" textLength="77" x="77.05" y="27.1543">ShipDynamic</text><line style="stroke:#A80036;stroke-width:1.5;" x1="48.5" x2="156.5" y1="39" y2="39"/><text fill="#000000" font-family="sans-serif" font-size="11" lengthAdjust="spacing" textLength="89" x="53.5" y="53.2104">-baseDateTime</text><text fill="#000000" font-family="sans-serif" font-size="11" lengthAdjust="spacing" textLength="47" x="53.5" y="66.0151">-latitude</text><text fill="#000000" font-family="sans-serif" font-size="11" lengthAdjust="spacing" textLength="57" x="53.5" y="78.8198">-longitude</text><text fill="#000000" font-family="sans-serif" font-size="11" lengthAdjust="spacing" textLength="30" x="53.5" y="91.6245">-SOG</text><text fill="#000000" font-family="sans-serif" font-size="11" lengthAdjust="spacing" textLength="30" x="53.5" y="104.4292">-COG</text><text fill="#000000" font-family="sans-serif" font-size="11" lengthAdjust="spacing" textLength="50" x="53.5" y="117.2339">-heading</text><text fill="#000000" font-family="sans-serif" font-size="11" lengthAdjust="spacing" textLength="48" x="53.5" y="130.0386">-position</text><text fill="#000000" font-family="sans-serif" font-size="11" lengthAdjust="spacing" textLength="98" x="53.5" y="142.8433">-transceiverClass</text><line style="stroke:#A80036;stroke-width:1.5;" x1="48.5" x2="156.5" y1="149.4375" y2="149.4375"/><!--MD5=[110c0ef78a7e23ae06cff5466c4c5a18]
reverse link Ship to SummaryOfShipMovement--><path codeLine="48" d="M102.5,428.334 C102.5,451.293 102.5,476.032 102.5,499.969 " fill="none" id="Ship-backto-SummaryOfShipMovement" style="stroke:#A80036;stroke-width:1.0;"/><polygon fill="#A80036" points="102.5,423.156,98.5,432.156,102.5,428.156,106.5,432.156,102.5,423.156" style="stroke:#A80036;stroke-width:1.0;"/><text fill="#000000" font-family="sans-serif" font-size="13" lengthAdjust="spacing" textLength="119" x="103.5" y="466.0669">is used to create a</text><text fill="#000000" font-family="sans-serif" font-size="13" lengthAdjust="spacing" textLength="8" x="94.1938" y="443.055">1</text><text fill="#000000" font-family="sans-serif" font-size="13" lengthAdjust="spacing" textLength="8" x="94.2563" y="488.8762">1</text><!--MD5=[0226f55439608f4074d0479680a3b4ff]
reverse link ShipDynamic to Ship--><path codeLine="49" d="M102.5,162.164 C102.5,185.009 102.5,210.156 102.5,233.795 " fill="none" id="ShipDynamic-backto-Ship" style="stroke:#A80036;stroke-width:1.0;"/><polygon fill="#A80036" points="102.5,157.022,98.5,166.022,102.5,162.022,106.5,166.022,102.5,157.022" style="stroke:#A80036;stroke-width:1.0;"/><text fill="#000000" font-family="sans-serif" font-size="13" lengthAdjust="spacing" textLength="23" x="103.5" y="200.0669">has</text><text fill="#000000" font-family="sans-serif" font-size="13" lengthAdjust="spacing" textLength="8" x="94.0875" y="177.5833">1</text><text fill="#000000" font-family="sans-serif" font-size="13" lengthAdjust="spacing" textLength="8" x="94.1938" y="223.0476">1</text><!--MD5=[268cc771b50591fc627416139d43ca15]
reverse link SummaryOfShipMovement to TrafficManager--><path codeLine="50" d="M102.5,758.31 C102.5,784.64 102.5,810.21 102.5,829.8225 " fill="none" id="SummaryOfShipMovement-backto-TrafficManager" style="stroke:#A80036;stroke-width:1.0;"/><polygon fill="#A80036" points="102.5,753.036,98.5,762.036,102.5,758.036,106.5,762.036,102.5,753.036" style="stroke:#A80036;stroke-width:1.0;"/><text fill="#000000" font-family="sans-serif" font-size="13" lengthAdjust="spacing" textLength="43" x="103.5" y="796.0669">makes</text><text fill="#000000" font-family="sans-serif" font-size="13" lengthAdjust="spacing" textLength="27" x="74.7195" y="772.8593">1...*</text><text fill="#000000" font-family="sans-serif" font-size="13" lengthAdjust="spacing" textLength="8" x="93.7875" y="818.9778">1</text><!--MD5=[e252e163f627b3031b252c7d8f962dc3]
@startuml
skinparam classAttributeIconSize 0
class Ship {
-MMSI
-name
-IMOIDnumber
-numberOfEnergyGenerators
-generatorPowerOutput
-callSign
-vesselTypeCode
-width
-length
-capacity
-draft
}

class TrafficManager{
-userID
-name
}
class SummaryOfShipMovement{
-shipCode
-vesselName
-startBaseDateTime
-endBaseDateTime
-totalMovementTime
-totalNumberOfMovements
-maxSOG
-meanSOG
-maxCOG
-meanCOG
-departureLatitude
-departureLongitude
-arrivalLatitude
-arrivalLongitude
-travelledDistance
-deltaDistance
}
class ShipDynamic{
-baseDateTime
-latitude
-longitude
-SOG
-COG
-heading
-position
-transceiverClass
}
Ship "1" <- - "1" SummaryOfShipMovement : is used to create a
ShipDynamic "1" <- - "1" Ship : has
SummaryOfShipMovement "1...*" <- - "1" TrafficManager : makes
@enduml

PlantUML version 1.2021.13beta8(Unknown compile time)
(GPL source distribution)
Java Runtime: Java(TM) SE Runtime Environment
JVM: Java HotSpot(TM) 64-Bit Server VM
Default Encoding: UTF-8
Language: en
Country: US
--></g></svg>