<?xml version="1.0" encoding="UTF-8" standalone="no"?><svg xmlns="http://www.w3.org/2000/svg" xmlns:xlink="http://www.w3.org/1999/xlink" contentScriptType="application/ecmascript" contentStyleType="text/css" height="1344px" preserveAspectRatio="none" style="width:1281px;height:1344px;background:#FFFFFF;" version="1.1" viewBox="0 0 1281 1344" width="1281px" zoomAndPan="magnify"><defs><filter height="300%" id="f1r1h3s5tytckm" width="300%" x="-1" y="-1"><feGaussianBlur result="blurOut" stdDeviation="2.0"/><feColorMatrix in="blurOut" result="blurOut2" type="matrix" values="0 0 0 0 0 0 0 0 0 0 0 0 0 0 0 0 0 0 .4 0"/><feOffset dx="4.0" dy="4.0" in="blurOut2" result="blurOut3"/><feBlend in="SourceGraphic" in2="blurOut3" mode="normal"/></filter></defs><g><rect fill="#FFFFFF" filter="url(#f1r1h3s5tytckm)" height="1233.1172" style="stroke:#A80036;stroke-width:1.0;" width="10" x="108" y="50.2969"/><rect fill="#FFFFFF" filter="url(#f1r1h3s5tytckm)" height="1211.9844" style="stroke:#A80036;stroke-width:1.0;" width="10" x="276" y="71.4297"/><rect fill="#FFFFFF" filter="url(#f1r1h3s5tytckm)" height="30" style="stroke:#A80036;stroke-width:1.0;" width="10" x="430" y="100.5625"/><rect fill="#FFFFFF" filter="url(#f1r1h3s5tytckm)" height="29.1328" style="stroke:#A80036;stroke-width:1.0;" width="10" x="581.5" y="159.6953"/><rect fill="#FFFFFF" filter="url(#f1r1h3s5tytckm)" height="1065.4531" style="stroke:#A80036;stroke-width:1.0;" width="10" x="728" y="217.9609"/><rect fill="#FFFFFF" filter="url(#f1r1h3s5tytckm)" height="1036.3203" style="stroke:#A80036;stroke-width:1.0;" width="10" x="992" y="247.0938"/><rect fill="#FFFFFF" filter="url(#f1r1h3s5tytckm)" height="30" style="stroke:#A80036;stroke-width:1.0;" width="10" x="1194" y="276.2266"/><rect fill="#FFFFFF" filter="url(#f1r1h3s5tytckm)" height="30" style="stroke:#A80036;stroke-width:1.0;" width="10" x="1194" y="364.4922"/><rect fill="#FFFFFF" filter="url(#f1r1h3s5tytckm)" height="30" style="stroke:#A80036;stroke-width:1.0;" width="10" x="1194" y="476.8906"/><rect fill="#FFFFFF" filter="url(#f1r1h3s5tytckm)" height="30" style="stroke:#A80036;stroke-width:1.0;" width="10" x="1194" y="596.2891"/><rect fill="#FFFFFF" filter="url(#f1r1h3s5tytckm)" height="30" style="stroke:#A80036;stroke-width:1.0;" width="10" x="1194" y="715.6875"/><rect fill="#FFFFFF" filter="url(#f1r1h3s5tytckm)" height="30" style="stroke:#A80036;stroke-width:1.0;" width="10" x="1194" y="835.0859"/><rect fill="#FFFFFF" filter="url(#f1r1h3s5tytckm)" height="30" style="stroke:#A80036;stroke-width:1.0;" width="10" x="1194" y="930.3516"/><rect fill="#FFFFFF" filter="url(#f1r1h3s5tytckm)" height="30" style="stroke:#A80036;stroke-width:1.0;" width="10" x="1194" y="1018.6172"/><rect fill="#FFFFFF" filter="url(#f1r1h3s5tytckm)" height="30" style="stroke:#A80036;stroke-width:1.0;" width="10" x="1194" y="1106.8828"/><rect fill="#FFFFFF" filter="url(#f1r1h3s5tytckm)" height="30" style="stroke:#A80036;stroke-width:1.0;" width="10" x="1194" y="1195.1484"/><rect fill="#FFFFFF" filter="url(#f1r1h3s5tytckm)" height="76.2656" style="stroke:#000000;stroke-width:2.0;" width="352" x="915.5" y="438.625"/><rect fill="#FFFFFF" filter="url(#f1r1h3s5tytckm)" height="76.2656" style="stroke:#000000;stroke-width:2.0;" width="352" x="915.5" y="558.0234"/><rect fill="#FFFFFF" filter="url(#f1r1h3s5tytckm)" height="76.2656" style="stroke:#000000;stroke-width:2.0;" width="352" x="915.5" y="677.4219"/><rect fill="#FFFFFF" filter="url(#f1r1h3s5tytckm)" height="76.2656" style="stroke:#000000;stroke-width:2.0;" width="352" x="915.5" y="796.8203"/><line style="stroke:#A80036;stroke-width:1.0;stroke-dasharray:5.0,5.0;" x1="113" x2="113" y1="40.2969" y2="1301.4141"/><line style="stroke:#A80036;stroke-width:1.0;stroke-dasharray:5.0,5.0;" x1="280.5" x2="280.5" y1="40.2969" y2="1301.4141"/><line style="stroke:#A80036;stroke-width:1.0;stroke-dasharray:5.0,5.0;" x1="435" x2="435" y1="40.2969" y2="1301.4141"/><line style="stroke:#A80036;stroke-width:1.0;stroke-dasharray:5.0,5.0;" x1="586" x2="586" y1="40.2969" y2="1301.4141"/><line style="stroke:#A80036;stroke-width:1.0;stroke-dasharray:5.0,5.0;" x1="733" x2="733" y1="40.2969" y2="1301.4141"/><line style="stroke:#A80036;stroke-width:1.0;stroke-dasharray:5.0,5.0;" x1="996.5" x2="996.5" y1="40.2969" y2="1301.4141"/><line style="stroke:#A80036;stroke-width:1.0;stroke-dasharray:5.0,5.0;" x1="1198.5" x2="1198.5" y1="40.2969" y2="1301.4141"/><rect fill="#FEFECE" filter="url(#f1r1h3s5tytckm)" height="30.2969" style="stroke:#A80036;stroke-width:1.5;" width="212" x="5" y="5"/><text fill="#000000" font-family="sans-serif" font-size="14" lengthAdjust="spacing" textLength="198" x="12" y="24.9951">:SummaryOfShipMovement</text><rect fill="#FEFECE" filter="url(#f1r1h3s5tytckm)" height="30.2969" style="stroke:#A80036;stroke-width:1.5;" width="212" x="5" y="1300.4141"/><text fill="#000000" font-family="sans-serif" font-size="14" lengthAdjust="spacing" textLength="198" x="12" y="1320.4092">:SummaryOfShipMovement</text><rect fill="#FEFECE" filter="url(#f1r1h3s5tytckm)" height="30.2969" style="stroke:#A80036;stroke-width:1.5;" width="51" x="253.5" y="5"/><text fill="#000000" font-family="sans-serif" font-size="14" lengthAdjust="spacing" textLength="37" x="260.5" y="24.9951">:Ship</text><rect fill="#FEFECE" filter="url(#f1r1h3s5tytckm)" height="30.2969" style="stroke:#A80036;stroke-width:1.5;" width="51" x="253.5" y="1300.4141"/><text fill="#000000" font-family="sans-serif" font-size="14" lengthAdjust="spacing" textLength="37" x="260.5" y="1320.4092">:Ship</text><rect fill="#FEFECE" filter="url(#f1r1h3s5tytckm)" height="30.2969" style="stroke:#A80036;stroke-width:1.5;" width="116" x="375" y="5"/><text fill="#000000" font-family="sans-serif" font-size="14" lengthAdjust="spacing" textLength="102" x="382" y="24.9951">:Identification</text><rect fill="#FEFECE" filter="url(#f1r1h3s5tytckm)" height="30.2969" style="stroke:#A80036;stroke-width:1.5;" width="116" x="375" y="1300.4141"/><text fill="#000000" font-family="sans-serif" font-size="14" lengthAdjust="spacing" textLength="102" x="382" y="1320.4092">:Identification</text><rect fill="#FEFECE" filter="url(#f1r1h3s5tytckm)" height="30.2969" style="stroke:#A80036;stroke-width:1.5;" width="159" x="505" y="5"/><text fill="#000000" font-family="sans-serif" font-size="14" lengthAdjust="spacing" textLength="145" x="512" y="24.9951">:ShipCharacteristics</text><rect fill="#FEFECE" filter="url(#f1r1h3s5tytckm)" height="30.2969" style="stroke:#A80036;stroke-width:1.5;" width="159" x="505" y="1300.4141"/><text fill="#000000" font-family="sans-serif" font-size="14" lengthAdjust="spacing" textLength="145" x="512" y="1320.4092">:ShipCharacteristics</text><rect fill="#FEFECE" filter="url(#f1r1h3s5tytckm)" height="30.2969" style="stroke:#A80036;stroke-width:1.5;" width="106" x="678" y="5"/><text fill="#000000" font-family="sans-serif" font-size="14" lengthAdjust="spacing" textLength="92" x="685" y="24.9951">:TravelRoute</text><rect fill="#FEFECE" filter="url(#f1r1h3s5tytckm)" height="30.2969" style="stroke:#A80036;stroke-width:1.5;" width="106" x="678" y="1300.4141"/><text fill="#000000" font-family="sans-serif" font-size="14" lengthAdjust="spacing" textLength="92" x="685" y="1320.4092">:TravelRoute</text><rect fill="#FEFECE" filter="url(#f1r1h3s5tytckm)" height="30.2969" style="stroke:#A80036;stroke-width:1.5;" width="139" x="925.5" y="5"/><text fill="#000000" font-family="sans-serif" font-size="14" lengthAdjust="spacing" textLength="125" x="932.5" y="24.9951">:ShipDynamicList</text><rect fill="#FEFECE" filter="url(#f1r1h3s5tytckm)" height="30.2969" style="stroke:#A80036;stroke-width:1.5;" width="139" x="925.5" y="1300.4141"/><text fill="#000000" font-family="sans-serif" font-size="14" lengthAdjust="spacing" textLength="125" x="932.5" y="1320.4092">:ShipDynamicList</text><rect fill="#FEFECE" filter="url(#f1r1h3s5tytckm)" height="30.2969" style="stroke:#A80036;stroke-width:1.5;" width="113" x="1140.5" y="5"/><text fill="#000000" font-family="sans-serif" font-size="14" lengthAdjust="spacing" textLength="99" x="1147.5" y="24.9951">:ShipDynamic</text><rect fill="#FEFECE" filter="url(#f1r1h3s5tytckm)" height="30.2969" style="stroke:#A80036;stroke-width:1.5;" width="113" x="1140.5" y="1300.4141"/><text fill="#000000" font-family="sans-serif" font-size="14" lengthAdjust="spacing" textLength="99" x="1147.5" y="1320.4092">:ShipDynamic</text><rect fill="#FFFFFF" filter="url(#f1r1h3s5tytckm)" height="1233.1172" style="stroke:#A80036;stroke-width:1.0;" width="10" x="108" y="50.2969"/><rect fill="#FFFFFF" filter="url(#f1r1h3s5tytckm)" height="1211.9844" style="stroke:#A80036;stroke-width:1.0;" width="10" x="276" y="71.4297"/><rect fill="#FFFFFF" filter="url(#f1r1h3s5tytckm)" height="30" style="stroke:#A80036;stroke-width:1.0;" width="10" x="430" y="100.5625"/><rect fill="#FFFFFF" filter="url(#f1r1h3s5tytckm)" height="29.1328" style="stroke:#A80036;stroke-width:1.0;" width="10" x="581.5" y="159.6953"/><rect fill="#FFFFFF" filter="url(#f1r1h3s5tytckm)" height="1065.4531" style="stroke:#A80036;stroke-width:1.0;" width="10" x="728" y="217.9609"/><rect fill="#FFFFFF" filter="url(#f1r1h3s5tytckm)" height="1036.3203" style="stroke:#A80036;stroke-width:1.0;" width="10" x="992" y="247.0938"/><rect fill="#FFFFFF" filter="url(#f1r1h3s5tytckm)" height="30" style="stroke:#A80036;stroke-width:1.0;" width="10" x="1194" y="276.2266"/><rect fill="#FFFFFF" filter="url(#f1r1h3s5tytckm)" height="30" style="stroke:#A80036;stroke-width:1.0;" width="10" x="1194" y="364.4922"/><rect fill="#FFFFFF" filter="url(#f1r1h3s5tytckm)" height="30" style="stroke:#A80036;stroke-width:1.0;" width="10" x="1194" y="476.8906"/><rect fill="#FFFFFF" filter="url(#f1r1h3s5tytckm)" height="30" style="stroke:#A80036;stroke-width:1.0;" width="10" x="1194" y="596.2891"/><rect fill="#FFFFFF" filter="url(#f1r1h3s5tytckm)" height="30" style="stroke:#A80036;stroke-width:1.0;" width="10" x="1194" y="715.6875"/><rect fill="#FFFFFF" filter="url(#f1r1h3s5tytckm)" height="30" style="stroke:#A80036;stroke-width:1.0;" width="10" x="1194" y="835.0859"/><rect fill="#FFFFFF" filter="url(#f1r1h3s5tytckm)" height="30" style="stroke:#A80036;stroke-width:1.0;" width="10" x="1194" y="930.3516"/><rect fill="#FFFFFF" filter="url(#f1r1h3s5tytckm)" height="30" style="stroke:#A80036;stroke-width:1.0;" width="10" x="1194" y="1018.6172"/><rect fill="#FFFFFF" filter="url(#f1r1h3s5tytckm)" height="30" style="stroke:#A80036;stroke-width:1.0;" width="10" x="1194" y="1106.8828"/><rect fill="#FFFFFF" filter="url(#f1r1h3s5tytckm)" height="30" style="stroke:#A80036;stroke-width:1.0;" width="10" x="1194" y="1195.1484"/><polygon fill="#A80036" points="264,67.4297,274,71.4297,264,75.4297,268,71.4297" style="stroke:#A80036;stroke-width:1.0;"/><line style="stroke:#A80036;stroke-width:1.0;" x1="118" x2="270" y1="71.4297" y2="71.4297"/><text fill="#000000" font-family="sans-serif" font-size="13" font-weight="bold" lengthAdjust="spacing" textLength="9" x="125" y="66.3638">1</text><text fill="#000000" font-family="sans-serif" font-size="13" lengthAdjust="spacing" textLength="126" x="138" y="66.3638">sosm= create(ship)</text><polygon fill="#A80036" points="418,96.5625,428,100.5625,418,104.5625,422,100.5625" style="stroke:#A80036;stroke-width:1.0;"/><line style="stroke:#A80036;stroke-width:1.0;" x1="286" x2="424" y1="100.5625" y2="100.5625"/><text fill="#000000" font-family="sans-serif" font-size="13" font-weight="bold" lengthAdjust="spacing" textLength="9" x="293" y="95.4966">2</text><text fill="#000000" font-family="sans-serif" font-size="13" lengthAdjust="spacing" textLength="112" x="306" y="95.4966">mmsi= getMMSI()</text><polygon fill="#A80036" points="569.5,155.6953,579.5,159.6953,569.5,163.6953,573.5,159.6953" style="stroke:#A80036;stroke-width:1.0;"/><line style="stroke:#A80036;stroke-width:1.0;" x1="286" x2="575.5" y1="159.6953" y2="159.6953"/><text fill="#000000" font-family="sans-serif" font-size="13" font-weight="bold" lengthAdjust="spacing" textLength="8" x="293" y="154.6294">3</text><text fill="#000000" font-family="sans-serif" font-size="13" lengthAdjust="spacing" textLength="132" x="305" y="154.6294">vt= getVesselType()</text><polygon fill="#A80036" points="574.5,184.8281,584.5,188.8281,574.5,192.8281,578.5,188.8281" style="stroke:#A80036;stroke-width:1.0;"/><line style="stroke:#A80036;stroke-width:1.0;" x1="286" x2="580.5" y1="188.8281" y2="188.8281"/><text fill="#000000" font-family="sans-serif" font-size="13" font-weight="bold" lengthAdjust="spacing" textLength="9" x="293" y="183.7622">4</text><text fill="#000000" font-family="sans-serif" font-size="13" lengthAdjust="spacing" textLength="141" x="306" y="183.7622">vn= getVesselName()</text><polygon fill="#A80036" points="716,213.9609,726,217.9609,716,221.9609,720,217.9609" style="stroke:#A80036;stroke-width:1.0;"/><line style="stroke:#A80036;stroke-width:1.0;" x1="286" x2="722" y1="217.9609" y2="217.9609"/><text fill="#000000" font-family="sans-serif" font-size="13" font-weight="bold" lengthAdjust="spacing" textLength="9" x="293" y="212.895">5</text><text fill="#000000" font-family="sans-serif" font-size="13" lengthAdjust="spacing" textLength="160" x="306" y="212.895">tr= getLastTravelRoute()</text><polygon fill="#A80036" points="980,243.0938,990,247.0938,980,251.0938,984,247.0938" style="stroke:#A80036;stroke-width:1.0;"/><line style="stroke:#A80036;stroke-width:1.0;" x1="738" x2="986" y1="247.0938" y2="247.0938"/><text fill="#000000" font-family="sans-serif" font-size="13" font-weight="bold" lengthAdjust="spacing" textLength="9" x="745" y="242.0278">6</text><text fill="#000000" font-family="sans-serif" font-size="13" lengthAdjust="spacing" textLength="198" x="758" y="242.0278">sbdt =getStartBaseDateTime()</text><polygon fill="#A80036" points="1182,272.2266,1192,276.2266,1182,280.2266,1186,276.2266" style="stroke:#A80036;stroke-width:1.0;"/><line style="stroke:#A80036;stroke-width:1.0;" x1="1002" x2="1188" y1="276.2266" y2="276.2266"/><text fill="#000000" font-family="sans-serif" font-size="13" font-weight="bold" lengthAdjust="spacing" textLength="9" x="1009" y="271.1606">7</text><text fill="#000000" font-family="sans-serif" font-size="13" lengthAdjust="spacing" textLength="160" x="1022" y="271.1606">bdt= getBaseDateTime()</text><polygon fill="#A80036" points="980,331.3594,990,335.3594,980,339.3594,984,335.3594" style="stroke:#A80036;stroke-width:1.0;"/><line style="stroke:#A80036;stroke-width:1.0;" x1="738" x2="986" y1="335.3594" y2="335.3594"/><text fill="#000000" font-family="sans-serif" font-size="13" font-weight="bold" lengthAdjust="spacing" textLength="9" x="745" y="330.2935">8</text><text fill="#000000" font-family="sans-serif" font-size="13" lengthAdjust="spacing" textLength="192" x="758" y="330.2935">ebdt =getEndBaseDateTime()</text><polygon fill="#A80036" points="1182,360.4922,1192,364.4922,1182,368.4922,1186,364.4922" style="stroke:#A80036;stroke-width:1.0;"/><line style="stroke:#A80036;stroke-width:1.0;" x1="1002" x2="1188" y1="364.4922" y2="364.4922"/><text fill="#000000" font-family="sans-serif" font-size="13" font-weight="bold" lengthAdjust="spacing" textLength="9" x="1009" y="359.4263">9</text><text fill="#000000" font-family="sans-serif" font-size="13" lengthAdjust="spacing" textLength="160" x="1022" y="359.4263">bdt= getBaseDateTime()</text><polygon fill="#A80036" points="980,419.625,990,423.625,980,427.625,984,423.625" style="stroke:#A80036;stroke-width:1.0;"/><line style="stroke:#A80036;stroke-width:1.0;" x1="738" x2="986" y1="423.625" y2="423.625"/><text fill="#000000" font-family="sans-serif" font-size="13" font-weight="bold" lengthAdjust="spacing" textLength="19" x="745" y="418.5591">10</text><text fill="#000000" font-family="sans-serif" font-size="13" lengthAdjust="spacing" textLength="167" x="768" y="418.5591">meansog =getMeanSOG()</text><path d="M915.5,438.625 L993.5,438.625 L993.5,445.625 L983.5,455.625 L915.5,455.625 L915.5,438.625 " fill="#EEEEEE" style="stroke:#000000;stroke-width:1.0;"/><rect fill="none" height="76.2656" style="stroke:#000000;stroke-width:2.0;" width="352" x="915.5" y="438.625"/><text fill="#000000" font-family="sans-serif" font-size="13" font-weight="bold" lengthAdjust="spacing" textLength="33" x="930.5" y="451.6919">loop</text><polygon fill="#A80036" points="1182,472.8906,1192,476.8906,1182,480.8906,1186,476.8906" style="stroke:#A80036;stroke-width:1.0;"/><line style="stroke:#A80036;stroke-width:1.0;" x1="1002" x2="1188" y1="476.8906" y2="476.8906"/><text fill="#000000" font-family="sans-serif" font-size="13" font-weight="bold" lengthAdjust="spacing" textLength="18" x="1009" y="471.8247">11</text><text fill="#000000" font-family="sans-serif" font-size="13" lengthAdjust="spacing" textLength="96" x="1031" y="471.8247">sog= getSOG()</text><polygon fill="#A80036" points="980,539.0234,990,543.0234,980,547.0234,984,543.0234" style="stroke:#A80036;stroke-width:1.0;"/><line style="stroke:#A80036;stroke-width:1.0;" x1="738" x2="986" y1="543.0234" y2="543.0234"/><text fill="#000000" font-family="sans-serif" font-size="13" font-weight="bold" lengthAdjust="spacing" textLength="18" x="745" y="537.9575">12</text><text fill="#000000" font-family="sans-serif" font-size="13" lengthAdjust="spacing" textLength="151" x="767" y="537.9575">maxsog =getMaxSOG()</text><path d="M915.5,558.0234 L993.5,558.0234 L993.5,565.0234 L983.5,575.0234 L915.5,575.0234 L915.5,558.0234 " fill="#EEEEEE" style="stroke:#000000;stroke-width:1.0;"/><rect fill="none" height="76.2656" style="stroke:#000000;stroke-width:2.0;" width="352" x="915.5" y="558.0234"/><text fill="#000000" font-family="sans-serif" font-size="13" font-weight="bold" lengthAdjust="spacing" textLength="33" x="930.5" y="571.0903">loop</text><polygon fill="#A80036" points="1182,592.2891,1192,596.2891,1182,600.2891,1186,596.2891" style="stroke:#A80036;stroke-width:1.0;"/><line style="stroke:#A80036;stroke-width:1.0;" x1="1002" x2="1188" y1="596.2891" y2="596.2891"/><text fill="#000000" font-family="sans-serif" font-size="13" font-weight="bold" lengthAdjust="spacing" textLength="17" x="1009" y="591.2231">13</text><text fill="#000000" font-family="sans-serif" font-size="13" lengthAdjust="spacing" textLength="96" x="1030" y="591.2231">sog= getSOG()</text><polygon fill="#A80036" points="980,658.4219,990,662.4219,980,666.4219,984,662.4219" style="stroke:#A80036;stroke-width:1.0;"/><line style="stroke:#A80036;stroke-width:1.0;" x1="738" x2="986" y1="662.4219" y2="662.4219"/><text fill="#000000" font-family="sans-serif" font-size="13" font-weight="bold" lengthAdjust="spacing" textLength="18" x="745" y="657.356">14</text><text fill="#000000" font-family="sans-serif" font-size="13" lengthAdjust="spacing" textLength="168" x="767" y="657.356">meancog =getMeanCOG()</text><path d="M915.5,677.4219 L993.5,677.4219 L993.5,684.4219 L983.5,694.4219 L915.5,694.4219 L915.5,677.4219 " fill="#EEEEEE" style="stroke:#000000;stroke-width:1.0;"/><rect fill="none" height="76.2656" style="stroke:#000000;stroke-width:2.0;" width="352" x="915.5" y="677.4219"/><text fill="#000000" font-family="sans-serif" font-size="13" font-weight="bold" lengthAdjust="spacing" textLength="33" x="930.5" y="690.4888">loop</text><polygon fill="#A80036" points="1182,711.6875,1192,715.6875,1182,719.6875,1186,715.6875" style="stroke:#A80036;stroke-width:1.0;"/><line style="stroke:#A80036;stroke-width:1.0;" x1="1002" x2="1188" y1="715.6875" y2="715.6875"/><text fill="#000000" font-family="sans-serif" font-size="13" font-weight="bold" lengthAdjust="spacing" textLength="18" x="1009" y="710.6216">15</text><text fill="#000000" font-family="sans-serif" font-size="13" lengthAdjust="spacing" textLength="97" x="1031" y="710.6216">cog= getCOG()</text><polygon fill="#A80036" points="980,777.8203,990,781.8203,980,785.8203,984,781.8203" style="stroke:#A80036;stroke-width:1.0;"/><line style="stroke:#A80036;stroke-width:1.0;" x1="738" x2="986" y1="781.8203" y2="781.8203"/><text fill="#000000" font-family="sans-serif" font-size="13" font-weight="bold" lengthAdjust="spacing" textLength="18" x="745" y="776.7544">16</text><text fill="#000000" font-family="sans-serif" font-size="13" lengthAdjust="spacing" textLength="152" x="767" y="776.7544">maxcog =getMaxCOG()</text><path d="M915.5,796.8203 L993.5,796.8203 L993.5,803.8203 L983.5,813.8203 L915.5,813.8203 L915.5,796.8203 " fill="#EEEEEE" style="stroke:#000000;stroke-width:1.0;"/><rect fill="none" height="76.2656" style="stroke:#000000;stroke-width:2.0;" width="352" x="915.5" y="796.8203"/><text fill="#000000" font-family="sans-serif" font-size="13" font-weight="bold" lengthAdjust="spacing" textLength="33" x="930.5" y="809.8872">loop</text><polygon fill="#A80036" points="1182,831.0859,1192,835.0859,1182,839.0859,1186,835.0859" style="stroke:#A80036;stroke-width:1.0;"/><line style="stroke:#A80036;stroke-width:1.0;" x1="1002" x2="1188" y1="835.0859" y2="835.0859"/><text fill="#000000" font-family="sans-serif" font-size="13" font-weight="bold" lengthAdjust="spacing" textLength="18" x="1009" y="830.02">17</text><text fill="#000000" font-family="sans-serif" font-size="13" lengthAdjust="spacing" textLength="97" x="1031" y="830.02">cog= getCOG()</text><polygon fill="#A80036" points="980,897.2188,990,901.2188,980,905.2188,984,901.2188" style="stroke:#A80036;stroke-width:1.0;"/><line style="stroke:#A80036;stroke-width:1.0;" x1="738" x2="986" y1="901.2188" y2="901.2188"/><text fill="#000000" font-family="sans-serif" font-size="13" font-weight="bold" lengthAdjust="spacing" textLength="18" x="745" y="896.1528">18</text><text fill="#000000" font-family="sans-serif" font-size="13" lengthAdjust="spacing" textLength="208" x="767" y="896.1528">dlong =getDepartureLongitude()</text><polygon fill="#A80036" points="1182,926.3516,1192,930.3516,1182,934.3516,1186,930.3516" style="stroke:#A80036;stroke-width:1.0;"/><line style="stroke:#A80036;stroke-width:1.0;" x1="1002" x2="1188" y1="930.3516" y2="930.3516"/><text fill="#000000" font-family="sans-serif" font-size="13" font-weight="bold" lengthAdjust="spacing" textLength="18" x="1009" y="925.2856">19</text><text fill="#000000" font-family="sans-serif" font-size="13" lengthAdjust="spacing" textLength="135" x="1031" y="925.2856">long= getLongitude()</text><polygon fill="#A80036" points="980,985.4844,990,989.4844,980,993.4844,984,989.4844" style="stroke:#A80036;stroke-width:1.0;"/><line style="stroke:#A80036;stroke-width:1.0;" x1="738" x2="986" y1="989.4844" y2="989.4844"/><text fill="#000000" font-family="sans-serif" font-size="13" font-weight="bold" lengthAdjust="spacing" textLength="19" x="745" y="984.4185">20</text><text fill="#000000" font-family="sans-serif" font-size="13" lengthAdjust="spacing" textLength="181" x="768" y="984.4185">dla =getDepartureLatitude()</text><polygon fill="#A80036" points="1182,1014.6172,1192,1018.6172,1182,1022.6172,1186,1018.6172" style="stroke:#A80036;stroke-width:1.0;"/><line style="stroke:#A80036;stroke-width:1.0;" x1="1002" x2="1188" y1="1018.6172" y2="1018.6172"/><text fill="#000000" font-family="sans-serif" font-size="13" font-weight="bold" lengthAdjust="spacing" textLength="18" x="1009" y="1013.5513">21</text><text fill="#000000" font-family="sans-serif" font-size="13" lengthAdjust="spacing" textLength="108" x="1031" y="1013.5513">la= getLatitude()</text><polygon fill="#A80036" points="980,1073.75,990,1077.75,980,1081.75,984,1077.75" style="stroke:#A80036;stroke-width:1.0;"/><line style="stroke:#A80036;stroke-width:1.0;" x1="738" x2="986" y1="1077.75" y2="1077.75"/><text fill="#000000" font-family="sans-serif" font-size="13" font-weight="bold" lengthAdjust="spacing" textLength="18" x="745" y="1072.6841">22</text><text fill="#000000" font-family="sans-serif" font-size="13" lengthAdjust="spacing" textLength="184" x="767" y="1072.6841">along =getArrivalLongitude()</text><polygon fill="#A80036" points="1182,1102.8828,1192,1106.8828,1182,1110.8828,1186,1106.8828" style="stroke:#A80036;stroke-width:1.0;"/><line style="stroke:#A80036;stroke-width:1.0;" x1="1002" x2="1188" y1="1106.8828" y2="1106.8828"/><text fill="#000000" font-family="sans-serif" font-size="13" font-weight="bold" lengthAdjust="spacing" textLength="17" x="1009" y="1101.8169">23</text><text fill="#000000" font-family="sans-serif" font-size="13" lengthAdjust="spacing" textLength="135" x="1030" y="1101.8169">long= getLongitude()</text><polygon fill="#A80036" points="980,1162.0156,990,1166.0156,980,1170.0156,984,1166.0156" style="stroke:#A80036;stroke-width:1.0;"/><line style="stroke:#A80036;stroke-width:1.0;" x1="738" x2="986" y1="1166.0156" y2="1166.0156"/><text fill="#000000" font-family="sans-serif" font-size="13" font-weight="bold" lengthAdjust="spacing" textLength="18" x="745" y="1160.9497">24</text><text fill="#000000" font-family="sans-serif" font-size="13" lengthAdjust="spacing" textLength="157" x="767" y="1160.9497">ala =getArrivalLatitude()</text><polygon fill="#A80036" points="1182,1191.1484,1192,1195.1484,1182,1199.1484,1186,1195.1484" style="stroke:#A80036;stroke-width:1.0;"/><line style="stroke:#A80036;stroke-width:1.0;" x1="1002" x2="1188" y1="1195.1484" y2="1195.1484"/><text fill="#000000" font-family="sans-serif" font-size="13" font-weight="bold" lengthAdjust="spacing" textLength="18" x="1009" y="1190.0825">25</text><text fill="#000000" font-family="sans-serif" font-size="13" lengthAdjust="spacing" textLength="108" x="1031" y="1190.0825">la= getLatitude()</text><polygon fill="#A80036" points="980,1250.2813,990,1254.2813,980,1258.2813,984,1254.2813" style="stroke:#A80036;stroke-width:1.0;"/><line style="stroke:#A80036;stroke-width:1.0;" x1="738" x2="986" y1="1254.2813" y2="1254.2813"/><text fill="#000000" font-family="sans-serif" font-size="13" font-weight="bold" lengthAdjust="spacing" textLength="18" x="745" y="1249.2153">26</text><text fill="#000000" font-family="sans-serif" font-size="13" lengthAdjust="spacing" textLength="173" x="767" y="1249.2153">td =getTravelledDistance()</text><polygon fill="#A80036" points="985,1279.4141,995,1283.4141,985,1287.4141,989,1283.4141" style="stroke:#A80036;stroke-width:1.0;"/><line style="stroke:#A80036;stroke-width:1.0;" x1="733" x2="991" y1="1283.4141" y2="1283.4141"/><text fill="#000000" font-family="sans-serif" font-size="13" font-weight="bold" lengthAdjust="spacing" textLength="18" x="740" y="1278.3481">27</text><text fill="#000000" font-family="sans-serif" font-size="13" lengthAdjust="spacing" textLength="151" x="762" y="1278.3481">dd =getDeltaDistance()</text><!--MD5=[17fa2de3a0fba35aeedce3b95d812695]
@startuml
autonumber
participant ":SummaryOfShipMovement" as SOSM
participant ":Ship" as S
participant ":Identification" as ID
participant ":ShipCharacteristics" as SC
participant ":TravelRoute" as TR
participant ":ShipDynamicList" as SDL
participant ":ShipDynamic" as SD
activate SOSM
SOSM -> S : sosm= create(ship)
activate S
S -> ID : mmsi= getMMSI()
activate ID
deactivate ID
S -> SC : vt= getVesselType()
activate SC
S -> SC : vn= getVesselName()
deactivate SC
S -> TR : tr= getLastTravelRoute()
activate TR
TR -> SDL :sbdt =getStartBaseDateTime()
activate SDL
SDL -> SD : bdt= getBaseDateTime()
activate SD
deactivate SD
TR -> SDL :ebdt =getEndBaseDateTime()
SDL -> SD : bdt= getBaseDateTime()
activate SD
deactivate SD
TR -> SDL :meansog =getMeanSOG()
loop
SDL -> SD : sog= getSOG()
activate SD
deactivate SD
end
TR -> SDL :maxsog =getMaxSOG()
loop
SDL -> SD : sog= getSOG()
activate SD
deactivate SD
end
TR -> SDL :meancog =getMeanCOG()
loop
SDL -> SD : cog= getCOG()
activate SD
deactivate SD
end
TR -> SDL :maxcog =getMaxCOG()
loop
SDL -> SD : cog= getCOG()
activate SD
deactivate SD
end
TR -> SDL :dlong =getDepartureLongitude()
SDL -> SD : long= getLongitude()
activate SD
deactivate SD
TR -> SDL :dla =getDepartureLatitude()
SDL -> SD : la= getLatitude()
activate SD
deactivate SD
TR -> SDL :along =getArrivalLongitude()
SDL -> SD : long= getLongitude()
activate SD
deactivate SD
TR -> SDL :ala =getArrivalLatitude()
SDL -> SD : la= getLatitude()
activate SD
deactivate SD
TR -> SDL :td =getTravelledDistance()
TR -> SDL :dd =getDeltaDistance()
deactivate SDL
deactivate TR
deactivate S
deactivate SOSM
@enduml

PlantUML version 1.2021.13beta8(Unknown compile time)
(GPL source distribution)
Java Runtime: Java(TM) SE Runtime Environment
JVM: Java HotSpot(TM) 64-Bit Server VM
Default Encoding: UTF-8
Language: en
Country: US
--></g></svg>