<?xml version="1.0" encoding="UTF-8" standalone="no"?><svg xmlns="http://www.w3.org/2000/svg" xmlns:xlink="http://www.w3.org/1999/xlink" contentScriptType="application/ecmascript" contentStyleType="text/css" height="764px" preserveAspectRatio="none" style="width:898px;height:764px;background:#FFFFFF;" version="1.1" viewBox="0 0 898 764" width="898px" zoomAndPan="magnify"><defs><filter height="300%" id="f4ch7c5t8cf8l" width="300%" x="-1" y="-1"><feGaussianBlur result="blurOut" stdDeviation="2.0"/><feColorMatrix in="blurOut" result="blurOut2" type="matrix" values="0 0 0 0 0 0 0 0 0 0 0 0 0 0 0 0 0 0 .4 0"/><feOffset dx="4.0" dy="4.0" in="blurOut2" result="blurOut3"/><feBlend in="SourceGraphic" in2="blurOut3" mode="normal"/></filter></defs><g><!--MD5=[0dc7f2ddb409b58bcf52b12238c25399]
class Ship--><rect codeLine="2" fill="#FEFECE" filter="url(#f4ch7c5t8cf8l)" height="73.6094" id="Ship" style="stroke:#A80036;stroke-width:1.5;" width="175" x="621.5" y="183"/><ellipse cx="691.75" cy="199" fill="#ADD1B2" rx="11" ry="11" style="stroke:#A80036;stroke-width:1.0;"/><path d="M694.0938,194.6719 C693.1563,194.2344 692.5625,194.0938 691.6875,194.0938 C689.0625,194.0938 687.0625,196.1719 687.0625,198.8906 L687.0625,200.0156 C687.0625,202.5938 689.1719,204.4844 692.0625,204.4844 C693.2813,204.4844 694.4375,204.1875 695.1875,203.6406 C695.7656,203.2344 696.0938,202.7813 696.0938,202.3906 C696.0938,201.9375 695.7031,201.5469 695.2344,201.5469 C695.0156,201.5469 694.8125,201.625 694.625,201.8125 C694.1719,202.2969 694.1719,202.2969 693.9844,202.3906 C693.5625,202.6563 692.875,202.7813 692.1094,202.7813 C690.0625,202.7813 688.7656,201.6875 688.7656,199.9844 L688.7656,198.8906 C688.7656,197.1094 690.0156,195.7969 691.75,195.7969 C692.3281,195.7969 692.9375,195.9531 693.4063,196.2031 C693.8906,196.4844 694.0625,196.7031 694.1563,197.1094 C694.2188,197.5156 694.25,197.6406 694.3906,197.7656 C694.5313,197.9063 694.7656,198.0156 694.9844,198.0156 C695.25,198.0156 695.5156,197.875 695.6875,197.6563 C695.7969,197.5 695.8281,197.3125 695.8281,196.8906 L695.8281,195.4688 C695.8281,195.0313 695.8125,194.9063 695.7188,194.75 C695.5625,194.4844 695.2813,194.3438 694.9844,194.3438 C694.6875,194.3438 694.4844,194.4375 694.2656,194.75 L694.0938,194.6719 Z " fill="#000000"/><text fill="#000000" font-family="sans-serif" font-size="12" lengthAdjust="spacing" textLength="26" x="712.25" y="203.1543">Ship</text><line style="stroke:#A80036;stroke-width:1.5;" x1="622.5" x2="795.5" y1="215" y2="215"/><text fill="#000000" font-family="sans-serif" font-size="11" lengthAdjust="spacing" textLength="163" x="627.5" y="229.2104">-List&lt;TravelRoute&gt; listRoute</text><line style="stroke:#A80036;stroke-width:1.5;" x1="622.5" x2="795.5" y1="235.8047" y2="235.8047"/><text fill="#000000" font-family="sans-serif" font-size="11" lengthAdjust="spacing" textLength="92" x="627.5" y="250.0151">+getLastRoute()</text><!--MD5=[82dc263f563d227779ba81db65b2fd4d]
class Identification--><rect codeLine="6" fill="#FEFECE" filter="url(#f4ch7c5t8cf8l)" height="73.6094" id="Identification" style="stroke:#A80036;stroke-width:1.5;" width="108" x="574" y="19.5"/><ellipse cx="589" cy="35.5" fill="#ADD1B2" rx="11" ry="11" style="stroke:#A80036;stroke-width:1.0;"/><path d="M591.3438,31.1719 C590.4063,30.7344 589.8125,30.5938 588.9375,30.5938 C586.3125,30.5938 584.3125,32.6719 584.3125,35.3906 L584.3125,36.5156 C584.3125,39.0938 586.4219,40.9844 589.3125,40.9844 C590.5313,40.9844 591.6875,40.6875 592.4375,40.1406 C593.0156,39.7344 593.3438,39.2813 593.3438,38.8906 C593.3438,38.4375 592.9531,38.0469 592.4844,38.0469 C592.2656,38.0469 592.0625,38.125 591.875,38.3125 C591.4219,38.7969 591.4219,38.7969 591.2344,38.8906 C590.8125,39.1563 590.125,39.2813 589.3594,39.2813 C587.3125,39.2813 586.0156,38.1875 586.0156,36.4844 L586.0156,35.3906 C586.0156,33.6094 587.2656,32.2969 589,32.2969 C589.5781,32.2969 590.1875,32.4531 590.6563,32.7031 C591.1406,32.9844 591.3125,33.2031 591.4063,33.6094 C591.4688,34.0156 591.5,34.1406 591.6406,34.2656 C591.7813,34.4063 592.0156,34.5156 592.2344,34.5156 C592.5,34.5156 592.7656,34.375 592.9375,34.1563 C593.0469,34 593.0781,33.8125 593.0781,33.3906 L593.0781,31.9688 C593.0781,31.5313 593.0625,31.4063 592.9688,31.25 C592.8125,30.9844 592.5313,30.8438 592.2344,30.8438 C591.9375,30.8438 591.7344,30.9375 591.5156,31.25 L591.3438,31.1719 Z " fill="#000000"/><text fill="#000000" font-family="sans-serif" font-size="12" lengthAdjust="spacing" textLength="76" x="603" y="39.6543">Identification</text><line style="stroke:#A80036;stroke-width:1.5;" x1="575" x2="681" y1="51.5" y2="51.5"/><text fill="#000000" font-family="sans-serif" font-size="11" lengthAdjust="spacing" textLength="70" x="580" y="65.7104">-String MMSI</text><line style="stroke:#A80036;stroke-width:1.5;" x1="575" x2="681" y1="72.3047" y2="72.3047"/><text fill="#000000" font-family="sans-serif" font-size="11" lengthAdjust="spacing" textLength="65" x="580" y="86.5151">+getMMSI()</text><!--MD5=[3ce36178935a61438ea769c26dd685ce]
class SummaryOfShipMovement--><rect codeLine="11" fill="#FEFECE" filter="url(#f4ch7c5t8cf8l)" height="99.2188" id="SummaryOfShipMovement" style="stroke:#A80036;stroke-width:1.5;" width="290" x="285" y="404.5"/><ellipse cx="346.25" cy="420.5" fill="#ADD1B2" rx="11" ry="11" style="stroke:#A80036;stroke-width:1.0;"/><path d="M348.5938,416.1719 C347.6563,415.7344 347.0625,415.5938 346.1875,415.5938 C343.5625,415.5938 341.5625,417.6719 341.5625,420.3906 L341.5625,421.5156 C341.5625,424.0938 343.6719,425.9844 346.5625,425.9844 C347.7813,425.9844 348.9375,425.6875 349.6875,425.1406 C350.2656,424.7344 350.5938,424.2813 350.5938,423.8906 C350.5938,423.4375 350.2031,423.0469 349.7344,423.0469 C349.5156,423.0469 349.3125,423.125 349.125,423.3125 C348.6719,423.7969 348.6719,423.7969 348.4844,423.8906 C348.0625,424.1563 347.375,424.2813 346.6094,424.2813 C344.5625,424.2813 343.2656,423.1875 343.2656,421.4844 L343.2656,420.3906 C343.2656,418.6094 344.5156,417.2969 346.25,417.2969 C346.8281,417.2969 347.4375,417.4531 347.9063,417.7031 C348.3906,417.9844 348.5625,418.2031 348.6563,418.6094 C348.7188,419.0156 348.75,419.1406 348.8906,419.2656 C349.0313,419.4063 349.2656,419.5156 349.4844,419.5156 C349.75,419.5156 350.0156,419.375 350.1875,419.1563 C350.2969,419 350.3281,418.8125 350.3281,418.3906 L350.3281,416.9688 C350.3281,416.5313 350.3125,416.4063 350.2188,416.25 C350.0625,415.9844 349.7813,415.8438 349.4844,415.8438 C349.1875,415.8438 348.9844,415.9375 348.7656,416.25 L348.5938,416.1719 Z " fill="#000000"/><text fill="#000000" font-family="sans-serif" font-size="12" lengthAdjust="spacing" textLength="159" x="366.75" y="424.6543">SummaryOfShipMovement</text><line style="stroke:#A80036;stroke-width:1.5;" x1="286" x2="574" y1="436.5" y2="436.5"/><text fill="#000000" font-family="sans-serif" font-size="11" lengthAdjust="spacing" textLength="278" x="291" y="450.7104">-Map&lt;String,String&gt; SummaryOfShipMovements</text><line style="stroke:#A80036;stroke-width:1.5;" x1="286" x2="574" y1="457.3047" y2="457.3047"/><text fill="#000000" font-family="sans-serif" font-size="11" lengthAdjust="spacing" textLength="106" x="291" y="471.5151">+create(Ship ship)</text><text fill="#000000" font-family="sans-serif" font-size="11" lengthAdjust="spacing" textLength="61" x="291" y="484.3198">+toString()</text><text fill="#000000" font-family="sans-serif" font-size="11" lengthAdjust="spacing" textLength="59" x="291" y="497.1245">+getMap()</text><!--MD5=[19c2b9eb46691e25b02426140995a460]
class ShipDynamic--><rect codeLine="17" fill="#FEFECE" filter="url(#f4ch7c5t8cf8l)" height="99.2188" id="ShipDynamic" style="stroke:#A80036;stroke-width:1.5;" width="134" x="278" y="651"/><ellipse cx="304.25" cy="667" fill="#ADD1B2" rx="11" ry="11" style="stroke:#A80036;stroke-width:1.0;"/><path d="M306.5938,662.6719 C305.6563,662.2344 305.0625,662.0938 304.1875,662.0938 C301.5625,662.0938 299.5625,664.1719 299.5625,666.8906 L299.5625,668.0156 C299.5625,670.5938 301.6719,672.4844 304.5625,672.4844 C305.7813,672.4844 306.9375,672.1875 307.6875,671.6406 C308.2656,671.2344 308.5938,670.7813 308.5938,670.3906 C308.5938,669.9375 308.2031,669.5469 307.7344,669.5469 C307.5156,669.5469 307.3125,669.625 307.125,669.8125 C306.6719,670.2969 306.6719,670.2969 306.4844,670.3906 C306.0625,670.6563 305.375,670.7813 304.6094,670.7813 C302.5625,670.7813 301.2656,669.6875 301.2656,667.9844 L301.2656,666.8906 C301.2656,665.1094 302.5156,663.7969 304.25,663.7969 C304.8281,663.7969 305.4375,663.9531 305.9063,664.2031 C306.3906,664.4844 306.5625,664.7031 306.6563,665.1094 C306.7188,665.5156 306.75,665.6406 306.8906,665.7656 C307.0313,665.9063 307.2656,666.0156 307.4844,666.0156 C307.75,666.0156 308.0156,665.875 308.1875,665.6563 C308.2969,665.5 308.3281,665.3125 308.3281,664.8906 L308.3281,663.4688 C308.3281,663.0313 308.3125,662.9063 308.2188,662.75 C308.0625,662.4844 307.7813,662.3438 307.4844,662.3438 C307.1875,662.3438 306.9844,662.4375 306.7656,662.75 L306.5938,662.6719 Z " fill="#000000"/><text fill="#000000" font-family="sans-serif" font-size="12" lengthAdjust="spacing" textLength="77" x="320.75" y="671.1543">ShipDynamic</text><line style="stroke:#A80036;stroke-width:1.5;" x1="279" x2="411" y1="683" y2="683"/><text fill="#000000" font-family="sans-serif" font-size="11" lengthAdjust="spacing" textLength="122" x="284" y="697.2104">-Time baseDateTime</text><line style="stroke:#A80036;stroke-width:1.5;" x1="279" x2="411" y1="703.8047" y2="703.8047"/><text fill="#000000" font-family="sans-serif" font-size="11" lengthAdjust="spacing" textLength="122" x="284" y="718.0151">+getBaseDateTime()</text><text fill="#000000" font-family="sans-serif" font-size="11" lengthAdjust="spacing" textLength="97" x="284" y="730.8198">+getMovement()</text><text fill="#000000" font-family="sans-serif" font-size="11" lengthAdjust="spacing" textLength="83" x="284" y="743.6245">+getLocation()</text><!--MD5=[4f1f3706c1a355a8488e154afcaed5df]
class Location--><rect codeLine="23" fill="#FEFECE" filter="url(#f4ch7c5t8cf8l)" height="99.2188" id="Location" style="stroke:#A80036;stroke-width:1.5;" width="112" x="7" y="404.5"/><ellipse cx="35.5" cy="420.5" fill="#ADD1B2" rx="11" ry="11" style="stroke:#A80036;stroke-width:1.0;"/><path d="M37.8438,416.1719 C36.9063,415.7344 36.3125,415.5938 35.4375,415.5938 C32.8125,415.5938 30.8125,417.6719 30.8125,420.3906 L30.8125,421.5156 C30.8125,424.0938 32.9219,425.9844 35.8125,425.9844 C37.0313,425.9844 38.1875,425.6875 38.9375,425.1406 C39.5156,424.7344 39.8438,424.2813 39.8438,423.8906 C39.8438,423.4375 39.4531,423.0469 38.9844,423.0469 C38.7656,423.0469 38.5625,423.125 38.375,423.3125 C37.9219,423.7969 37.9219,423.7969 37.7344,423.8906 C37.3125,424.1563 36.625,424.2813 35.8594,424.2813 C33.8125,424.2813 32.5156,423.1875 32.5156,421.4844 L32.5156,420.3906 C32.5156,418.6094 33.7656,417.2969 35.5,417.2969 C36.0781,417.2969 36.6875,417.4531 37.1563,417.7031 C37.6406,417.9844 37.8125,418.2031 37.9063,418.6094 C37.9688,419.0156 38,419.1406 38.1406,419.2656 C38.2813,419.4063 38.5156,419.5156 38.7344,419.5156 C39,419.5156 39.2656,419.375 39.4375,419.1563 C39.5469,419 39.5781,418.8125 39.5781,418.3906 L39.5781,416.9688 C39.5781,416.5313 39.5625,416.4063 39.4688,416.25 C39.3125,415.9844 39.0313,415.8438 38.7344,415.8438 C38.4375,415.8438 38.2344,415.9375 38.0156,416.25 L37.8438,416.1719 Z " fill="#000000"/><text fill="#000000" font-family="sans-serif" font-size="12" lengthAdjust="spacing" textLength="50" x="52.5" y="424.6543">Location</text><line style="stroke:#A80036;stroke-width:1.5;" x1="8" x2="118" y1="436.5" y2="436.5"/><text fill="#000000" font-family="sans-serif" font-size="11" lengthAdjust="spacing" textLength="90" x="13" y="450.7104">-double latitude</text><text fill="#000000" font-family="sans-serif" font-size="11" lengthAdjust="spacing" textLength="100" x="13" y="463.5151">-double longitude</text><line style="stroke:#A80036;stroke-width:1.5;" x1="8" x2="118" y1="470.1094" y2="470.1094"/><text fill="#000000" font-family="sans-serif" font-size="11" lengthAdjust="spacing" textLength="82" x="13" y="484.3198">+getLatitude()</text><text fill="#000000" font-family="sans-serif" font-size="11" lengthAdjust="spacing" textLength="92" x="13" y="497.1245">+getLongitude()</text><!--MD5=[bc87bf052131b9ca3b54b8ba84b5b110]
class Movement--><rect codeLine="29" fill="#FEFECE" filter="url(#f4ch7c5t8cf8l)" height="99.2188" id="Movement" style="stroke:#A80036;stroke-width:1.5;" width="95" x="154.5" y="404.5"/><ellipse cx="169.5" cy="420.5" fill="#ADD1B2" rx="11" ry="11" style="stroke:#A80036;stroke-width:1.0;"/><path d="M171.8438,416.1719 C170.9063,415.7344 170.3125,415.5938 169.4375,415.5938 C166.8125,415.5938 164.8125,417.6719 164.8125,420.3906 L164.8125,421.5156 C164.8125,424.0938 166.9219,425.9844 169.8125,425.9844 C171.0313,425.9844 172.1875,425.6875 172.9375,425.1406 C173.5156,424.7344 173.8438,424.2813 173.8438,423.8906 C173.8438,423.4375 173.4531,423.0469 172.9844,423.0469 C172.7656,423.0469 172.5625,423.125 172.375,423.3125 C171.9219,423.7969 171.9219,423.7969 171.7344,423.8906 C171.3125,424.1563 170.625,424.2813 169.8594,424.2813 C167.8125,424.2813 166.5156,423.1875 166.5156,421.4844 L166.5156,420.3906 C166.5156,418.6094 167.7656,417.2969 169.5,417.2969 C170.0781,417.2969 170.6875,417.4531 171.1563,417.7031 C171.6406,417.9844 171.8125,418.2031 171.9063,418.6094 C171.9688,419.0156 172,419.1406 172.1406,419.2656 C172.2813,419.4063 172.5156,419.5156 172.7344,419.5156 C173,419.5156 173.2656,419.375 173.4375,419.1563 C173.5469,419 173.5781,418.8125 173.5781,418.3906 L173.5781,416.9688 C173.5781,416.5313 173.5625,416.4063 173.4688,416.25 C173.3125,415.9844 173.0313,415.8438 172.7344,415.8438 C172.4375,415.8438 172.2344,415.9375 172.0156,416.25 L171.8438,416.1719 Z " fill="#000000"/><text fill="#000000" font-family="sans-serif" font-size="12" lengthAdjust="spacing" textLength="63" x="183.5" y="424.6543">Movement</text><line style="stroke:#A80036;stroke-width:1.5;" x1="155.5" x2="248.5" y1="436.5" y2="436.5"/><text fill="#000000" font-family="sans-serif" font-size="11" lengthAdjust="spacing" textLength="67" x="160.5" y="450.7104">-double sog</text><text fill="#000000" font-family="sans-serif" font-size="11" lengthAdjust="spacing" textLength="67" x="160.5" y="463.5151">-double cog</text><line style="stroke:#A80036;stroke-width:1.5;" x1="155.5" x2="248.5" y1="470.1094" y2="470.1094"/><text fill="#000000" font-family="sans-serif" font-size="11" lengthAdjust="spacing" textLength="58" x="160.5" y="484.3198">+getCog()</text><text fill="#000000" font-family="sans-serif" font-size="11" lengthAdjust="spacing" textLength="58" x="160.5" y="497.1245">+getSog()</text><!--MD5=[9a305ff8ded9dfea1b145311e23eef54]
class ShipCharacteristics--><rect codeLine="35" fill="#FEFECE" filter="url(#f4ch7c5t8cf8l)" height="99.2188" id="ShipCharacteristics" style="stroke:#A80036;stroke-width:1.5;" width="147" x="717.5" y="7"/><ellipse cx="732.5" cy="23" fill="#ADD1B2" rx="11" ry="11" style="stroke:#A80036;stroke-width:1.0;"/><path d="M734.8438,18.6719 C733.9063,18.2344 733.3125,18.0938 732.4375,18.0938 C729.8125,18.0938 727.8125,20.1719 727.8125,22.8906 L727.8125,24.0156 C727.8125,26.5938 729.9219,28.4844 732.8125,28.4844 C734.0313,28.4844 735.1875,28.1875 735.9375,27.6406 C736.5156,27.2344 736.8438,26.7813 736.8438,26.3906 C736.8438,25.9375 736.4531,25.5469 735.9844,25.5469 C735.7656,25.5469 735.5625,25.625 735.375,25.8125 C734.9219,26.2969 734.9219,26.2969 734.7344,26.3906 C734.3125,26.6563 733.625,26.7813 732.8594,26.7813 C730.8125,26.7813 729.5156,25.6875 729.5156,23.9844 L729.5156,22.8906 C729.5156,21.1094 730.7656,19.7969 732.5,19.7969 C733.0781,19.7969 733.6875,19.9531 734.1563,20.2031 C734.6406,20.4844 734.8125,20.7031 734.9063,21.1094 C734.9688,21.5156 735,21.6406 735.1406,21.7656 C735.2813,21.9063 735.5156,22.0156 735.7344,22.0156 C736,22.0156 736.2656,21.875 736.4375,21.6563 C736.5469,21.5 736.5781,21.3125 736.5781,20.8906 L736.5781,19.4688 C736.5781,19.0313 736.5625,18.9063 736.4688,18.75 C736.3125,18.4844 736.0313,18.3438 735.7344,18.3438 C735.4375,18.3438 735.2344,18.4375 735.0156,18.75 L734.8438,18.6719 Z " fill="#000000"/><text fill="#000000" font-family="sans-serif" font-size="12" lengthAdjust="spacing" textLength="115" x="746.5" y="27.1543">ShipCharacteristics</text><line style="stroke:#A80036;stroke-width:1.5;" x1="718.5" x2="863.5" y1="39" y2="39"/><text fill="#000000" font-family="sans-serif" font-size="11" lengthAdjust="spacing" textLength="108" x="723.5" y="53.2104">-String vesselType</text><text fill="#000000" font-family="sans-serif" font-size="11" lengthAdjust="spacing" textLength="113" x="723.5" y="66.0151">-String vesselName</text><line style="stroke:#A80036;stroke-width:1.5;" x1="718.5" x2="863.5" y1="72.6094" y2="72.6094"/><text fill="#000000" font-family="sans-serif" font-size="11" lengthAdjust="spacing" textLength="104" x="723.5" y="86.8198">+getVesselType()</text><text fill="#000000" font-family="sans-serif" font-size="11" lengthAdjust="spacing" textLength="109" x="723.5" y="99.6245">+getVesselName()</text><!--MD5=[7ef77df97ff4d7d522fabd56ee10ec47]
class TravelRoute--><rect codeLine="41" fill="#FEFECE" filter="url(#f4ch7c5t8cf8l)" height="240.0703" id="TravelRoute" style="stroke:#A80036;stroke-width:1.5;" width="198" x="610" y="334"/><ellipse cx="669.25" cy="350" fill="#ADD1B2" rx="11" ry="11" style="stroke:#A80036;stroke-width:1.0;"/><path d="M671.5938,345.6719 C670.6563,345.2344 670.0625,345.0938 669.1875,345.0938 C666.5625,345.0938 664.5625,347.1719 664.5625,349.8906 L664.5625,351.0156 C664.5625,353.5938 666.6719,355.4844 669.5625,355.4844 C670.7813,355.4844 671.9375,355.1875 672.6875,354.6406 C673.2656,354.2344 673.5938,353.7813 673.5938,353.3906 C673.5938,352.9375 673.2031,352.5469 672.7344,352.5469 C672.5156,352.5469 672.3125,352.625 672.125,352.8125 C671.6719,353.2969 671.6719,353.2969 671.4844,353.3906 C671.0625,353.6563 670.375,353.7813 669.6094,353.7813 C667.5625,353.7813 666.2656,352.6875 666.2656,350.9844 L666.2656,349.8906 C666.2656,348.1094 667.5156,346.7969 669.25,346.7969 C669.8281,346.7969 670.4375,346.9531 670.9063,347.2031 C671.3906,347.4844 671.5625,347.7031 671.6563,348.1094 C671.7188,348.5156 671.75,348.6406 671.8906,348.7656 C672.0313,348.9063 672.2656,349.0156 672.4844,349.0156 C672.75,349.0156 673.0156,348.875 673.1875,348.6563 C673.2969,348.5 673.3281,348.3125 673.3281,347.8906 L673.3281,346.4688 C673.3281,346.0313 673.3125,345.9063 673.2188,345.75 C673.0625,345.4844 672.7813,345.3438 672.4844,345.3438 C672.1875,345.3438 671.9844,345.4375 671.7656,345.75 L671.5938,345.6719 Z " fill="#000000"/><text fill="#000000" font-family="sans-serif" font-size="12" lengthAdjust="spacing" textLength="71" x="689.75" y="354.1543">TravelRoute</text><line style="stroke:#A80036;stroke-width:1.5;" x1="611" x2="807" y1="366" y2="366"/><text fill="#000000" font-family="sans-serif" font-size="11" lengthAdjust="spacing" textLength="85" x="616" y="380.2104">-Port arrivalPort</text><text fill="#000000" font-family="sans-serif" font-size="11" lengthAdjust="spacing" textLength="108" x="616" y="393.0151">-Port DeparturePort</text><text fill="#000000" font-family="sans-serif" font-size="11" lengthAdjust="spacing" textLength="186" x="616" y="405.8198">-List&lt;ShipDynamic&gt; listDynamic</text><line style="stroke:#A80036;stroke-width:1.5;" x1="611" x2="807" y1="412.4141" y2="412.4141"/><text fill="#000000" font-family="sans-serif" font-size="11" lengthAdjust="spacing" textLength="149" x="616" y="426.6245">+getStartBaseDateTime()</text><text fill="#000000" font-family="sans-serif" font-size="11" lengthAdjust="spacing" textLength="143" x="616" y="439.4292">+getEndBaseDateTime()</text><text fill="#000000" font-family="sans-serif" font-size="11" lengthAdjust="spacing" textLength="93" x="616" y="452.2339">+getMeanSOG()</text><text fill="#000000" font-family="sans-serif" font-size="11" lengthAdjust="spacing" textLength="85" x="616" y="465.0386">+getMaxSOG()</text><text fill="#000000" font-family="sans-serif" font-size="11" lengthAdjust="spacing" textLength="93" x="616" y="477.8433">+getMeanCOG()</text><text fill="#000000" font-family="sans-serif" font-size="11" lengthAdjust="spacing" textLength="85" x="616" y="490.6479">+getMaxCOG()</text><text fill="#000000" font-family="sans-serif" font-size="11" lengthAdjust="spacing" textLength="150" x="616" y="503.4526">+getDepartureLongitude()</text><text fill="#000000" font-family="sans-serif" font-size="11" lengthAdjust="spacing" textLength="140" x="616" y="516.2573">+getDepartureLatitude()</text><text fill="#000000" font-family="sans-serif" font-size="11" lengthAdjust="spacing" textLength="128" x="616" y="529.062">+getArrivalLongitude()</text><text fill="#000000" font-family="sans-serif" font-size="11" lengthAdjust="spacing" textLength="118" x="616" y="541.8667">+getArrivalLatitude()</text><text fill="#000000" font-family="sans-serif" font-size="11" lengthAdjust="spacing" textLength="140" x="616" y="554.6714">+getTravelledDistance()</text><text fill="#000000" font-family="sans-serif" font-size="11" lengthAdjust="spacing" textLength="117" x="616" y="567.4761">+getDeltaDistance()</text><!--MD5=[5628a0158f573ba8ed032f181d09a249]
link Ship to TravelRoute--><path codeLine="58" d="M709,257.25 C709,276.904 709,302.478 709,328.622 " fill="none" id="Ship-to-TravelRoute" style="stroke:#A80036;stroke-width:1.0;"/><polygon fill="#A80036" points="709,333.857,713,324.857,709,328.857,705,324.857,709,333.857" style="stroke:#A80036;stroke-width:1.0;"/><text fill="#000000" font-family="sans-serif" font-size="13" lengthAdjust="spacing" textLength="34" x="710" y="300.0669">owns</text><text fill="#000000" font-family="sans-serif" font-size="13" lengthAdjust="spacing" textLength="8" x="700.3375" y="276.772">1</text><text fill="#000000" font-family="sans-serif" font-size="13" lengthAdjust="spacing" textLength="23" x="685.2633" y="322.7488">1..*</text><!--MD5=[c6b57f6c5473ae80747685112aa606f1]
reverse link Identification to Ship--><path codeLine="59" d="M648.569,98.512 C661.616,124.524 678.338,157.865 690.883,182.877 " fill="none" id="Identification-backto-Ship" style="stroke:#A80036;stroke-width:1.0;"/><polygon fill="#A80036" points="646.178,93.744,646.6365,103.5822,648.4192,98.2136,653.7878,99.9962,646.178,93.744" style="stroke:#A80036;stroke-width:1.0;"/><text fill="#000000" font-family="sans-serif" font-size="13" lengthAdjust="spacing" textLength="23" x="676" y="149.0669">has</text><text fill="#000000" font-family="sans-serif" font-size="13" lengthAdjust="spacing" textLength="8" x="640.5262" y="113.265">1</text><text fill="#000000" font-family="sans-serif" font-size="13" lengthAdjust="spacing" textLength="8" x="678.9434" y="172.042">1</text><!--MD5=[0226f55439608f4074d0479680a3b4ff]
reverse link ShipDynamic to Ship--><path codeLine="60" d="M417.053,691.384 C538.647,676.0417 776.236,638.415 826,574 C891.212,489.59 867.675,432.189 826,334 C812.926,303.196 786.886,276.698 762.685,257.119 " fill="none" id="ShipDynamic-backto-Ship" style="stroke:#A80036;stroke-width:1.0;stroke-dasharray:7.0,7.0;"/><polygon fill="#A80036" points="412.065,692.0092,421.4924,694.8596,417.0262,691.3878,420.4981,686.9216,412.065,692.0092" style="stroke:#A80036;stroke-width:1.0;"/><!--MD5=[b18020918cd8644ea662e6d63ac2171c]
link Ship to SummaryOfShipMovement--><path codeLine="61" d="M621.331,238.169 C587.774,248.102 550.897,263.476 523,287 C487.834,316.653 463.409,363.161 448.444,399.415 " fill="none" id="Ship-to-SummaryOfShipMovement" style="stroke:#A80036;stroke-width:1.0;"/><polygon fill="#A80036" points="446.485,404.234,453.58,397.4031,448.368,399.6021,446.169,394.3902,446.485,404.234" style="stroke:#A80036;stroke-width:1.0;"/><text fill="#000000" font-family="sans-serif" font-size="13" lengthAdjust="spacing" textLength="176" x="524" y="300.0669">creates using the last route</text><text fill="#000000" font-family="sans-serif" font-size="13" lengthAdjust="spacing" textLength="8" x="605.4532" y="236.1753">1</text><text fill="#000000" font-family="sans-serif" font-size="13" lengthAdjust="spacing" textLength="8" x="440.1627" y="393.6">1</text><!--MD5=[a01cb41aea4f4c927c771c9dbcf8c183]
reverse link ShipCharacteristics to Ship--><path codeLine="62" d="M763.806,111.059 C751.837,134.632 738.091,161.706 727.359,182.842 " fill="none" id="ShipCharacteristics-backto-Ship" style="stroke:#A80036;stroke-width:1.0;"/><polygon fill="#A80036" points="766.175,106.394,758.5341,112.6082,763.9115,110.8523,765.6674,116.2298,766.175,106.394" style="stroke:#A80036;stroke-width:1.0;"/><text fill="#000000" font-family="sans-serif" font-size="13" lengthAdjust="spacing" textLength="23" x="751" y="149.0669">has</text><text fill="#000000" font-family="sans-serif" font-size="13" lengthAdjust="spacing" textLength="8" x="754.3016" y="126.1674">1</text><text fill="#000000" font-family="sans-serif" font-size="13" lengthAdjust="spacing" textLength="8" x="721.9167" y="172.0008">1</text><!--MD5=[e2ed64465c9831239d403168c398b68f]
link TravelRoute to ShipDynamic--><path codeLine="63" d="M609.962,560.676 C604.367,565.344 598.698,569.817 593,574 C538.064,614.335 468.258,648.363 416.712,670.7671 " fill="none" id="TravelRoute-to-ShipDynamic" style="stroke:#A80036;stroke-width:1.0;"/><polygon fill="#A80036" points="412.096,672.7637,421.9444,672.8607,416.6848,670.7781,418.7674,665.5186,412.096,672.7637" style="stroke:#A80036;stroke-width:1.0;"/><text fill="#000000" font-family="sans-serif" font-size="13" lengthAdjust="spacing" textLength="68" x="544" y="617.0669">is made of</text><text fill="#000000" font-family="sans-serif" font-size="13" lengthAdjust="spacing" textLength="8" x="594.0732" y="565.3384">1</text><text fill="#000000" font-family="sans-serif" font-size="13" lengthAdjust="spacing" textLength="27" x="420.0297" y="666.3578">1...*</text><!--MD5=[7e679fefda626554512f27693c41bc95]
link Location to ShipDynamic--><path codeLine="64" d="M86.3507,503.588 C99.0992,526.751 116.478,553.752 137,574 C176.395,612.869 230.052,644.864 273.001,666.8202 " fill="none" id="Location-to-ShipDynamic" style="stroke:#A80036;stroke-width:1.0;"/><polygon fill="#A80036" points="277.652,669.1801,271.4366,661.5402,273.1933,666.9173,267.8162,668.6741,277.652,669.1801" style="stroke:#A80036;stroke-width:1.0;"/><text fill="#000000" font-family="sans-serif" font-size="13" lengthAdjust="spacing" textLength="23" x="195" y="617.0669">has</text><text fill="#000000" font-family="sans-serif" font-size="13" lengthAdjust="spacing" textLength="8" x="81.0719" y="523.6769">1</text><text fill="#000000" font-family="sans-serif" font-size="13" lengthAdjust="spacing" textLength="8" x="261.8483" y="661.9964">1</text><!--MD5=[6b6f95c8f746e5dc4fe2c77c1eb958e8]
link Movement to ShipDynamic--><path codeLine="65" d="M227.797,503.69 C239.489,525.372 253.657,551.123 267,574 C280.995,597.995 297.106,624.144 311.039,646.332 " fill="none" id="Movement-to-ShipDynamic" style="stroke:#A80036;stroke-width:1.0;"/><polygon fill="#A80036" points="313.795,650.7155,312.3892,640.9675,311.1329,646.4831,305.6174,645.2268,313.795,650.7155" style="stroke:#A80036;stroke-width:1.0;"/><text fill="#000000" font-family="sans-serif" font-size="13" lengthAdjust="spacing" textLength="23" x="296" y="617.0669">has</text><text fill="#000000" font-family="sans-serif" font-size="13" lengthAdjust="spacing" textLength="8" x="222.8622" y="523.7932">1</text><text fill="#000000" font-family="sans-serif" font-size="13" lengthAdjust="spacing" textLength="8" x="301.0643" y="640.0784">1</text><!--MD5=[e5df25197b3658e0ed170d439bddec5f]
@startuml
skinparam classAttributeIconSize 0
class Ship {
-Route Route
+getRoute()
}
class Identification{
-String MMSI
+getMMSI()

}
class SummaryOfShipMovement{
-Map<String,String> SummaryOfShipMovements
+create(Ship ship)
+toString()
+getMap()
}
class ShipDynamic{
-Time baseDateTime
+getBaseDateTime()
+getMovement()
+getLocation()
}
class Location{
-double latitude
-double longitude
+getLatitude()
+getLongitude()
}
class Movement{
-double sog
-double cog
+getCog()
+getSog()
}
class ShipCharacteristics{
-String vesselType
-String vesselName
+getVesselType()
+getVesselName()
}
class Route{
-List<ShipDynamic> listDynamic
+getStartBaseDateTime()
+getEndBaseDateTime()
+getMeanSOG()
+getMaxSOG()
+getMeanCOG()
+getMaxCOG()
+getDepartureLongitude()
+getDepartureLatitude()
+getArrivalLongitude()
+getArrivalLatitude()
+getTravelledDistance()
+getDeltaDistance()
}
Ship "1" - -> "1..*" TravelRoute : owns
Identification "1" <- - "1" Ship :has
ShipDynamic <.. Ship
Ship "1" - -> "1" SummaryOfShipMovement : creates using the last route
ShipCharacteristics "1" <- - "1" Ship :has
TravelRoute "1" - -> "1...*" ShipDynamic : is made of
Location "1" - -> "1" ShipDynamic : has
Movement "1" - -> "1" ShipDynamic : has
@enduml

PlantUML version 1.2021.14beta6(Unknown compile time)
(GPL source distribution)
Java Runtime: Java(TM) SE Runtime Environment
JVM: Java HotSpot(TM) 64-Bit Server VM
Default Encoding: UTF-8
Language: en
Country: US
--></g></svg>