<?xml version="1.0" encoding="UTF-8" standalone="no"?><svg xmlns="http://www.w3.org/2000/svg" xmlns:xlink="http://www.w3.org/1999/xlink" contentScriptType="application/ecmascript" contentStyleType="text/css" height="1247px" preserveAspectRatio="none" style="width:579px;height:1247px;background:#FFFFFF;" version="1.1" viewBox="0 0 579 1247" width="579px" zoomAndPan="magnify"><defs><filter height="300%" id="f1r3ih8blnwn3x" width="300%" x="-1" y="-1"><feGaussianBlur result="blurOut" stdDeviation="2.0"/><feColorMatrix in="blurOut" result="blurOut2" type="matrix" values="0 0 0 0 0 0 0 0 0 0 0 0 0 0 0 0 0 0 .4 0"/><feOffset dx="4.0" dy="4.0" in="blurOut2" result="blurOut3"/><feBlend in="SourceGraphic" in2="blurOut3" mode="normal"/></filter></defs><g><!--MD5=[02e4b9b7573f1156f41e60aa5b4e25a4]
class Company--><rect codeLine="3" fill="#FEFECE" filter="url(#f1r3ih8blnwn3x)" height="60.8047" id="Company" style="stroke:#A80036;stroke-width:1.5;" width="104" x="197.5" y="129"/><ellipse cx="219.7" cy="145" fill="#ADD1B2" rx="11" ry="11" style="stroke:#A80036;stroke-width:1.0;"/><path d="M222.0438,140.6719 C221.1063,140.2344 220.5125,140.0938 219.6375,140.0938 C217.0125,140.0938 215.0125,142.1719 215.0125,144.8906 L215.0125,146.0156 C215.0125,148.5938 217.1219,150.4844 220.0125,150.4844 C221.2313,150.4844 222.3875,150.1875 223.1375,149.6406 C223.7156,149.2344 224.0438,148.7813 224.0438,148.3906 C224.0438,147.9375 223.6531,147.5469 223.1844,147.5469 C222.9656,147.5469 222.7625,147.625 222.575,147.8125 C222.1219,148.2969 222.1219,148.2969 221.9344,148.3906 C221.5125,148.6563 220.825,148.7813 220.0594,148.7813 C218.0125,148.7813 216.7156,147.6875 216.7156,145.9844 L216.7156,144.8906 C216.7156,143.1094 217.9656,141.7969 219.7,141.7969 C220.2781,141.7969 220.8875,141.9531 221.3563,142.2031 C221.8406,142.4844 222.0125,142.7031 222.1063,143.1094 C222.1688,143.5156 222.2,143.6406 222.3406,143.7656 C222.4813,143.9063 222.7156,144.0156 222.9344,144.0156 C223.2,144.0156 223.4656,143.875 223.6375,143.6563 C223.7469,143.5 223.7781,143.3125 223.7781,142.8906 L223.7781,141.4688 C223.7781,141.0313 223.7625,140.9063 223.6688,140.75 C223.5125,140.4844 223.2313,140.3438 222.9344,140.3438 C222.6375,140.3438 222.4344,140.4375 222.2156,140.75 L222.0438,140.6719 Z " fill="#000000"/><text fill="#000000" font-family="sans-serif" font-size="12" lengthAdjust="spacing" textLength="56" x="235.3" y="149.1543">Company</text><line style="stroke:#A80036;stroke-width:1.5;" x1="198.5" x2="300.5" y1="161" y2="161"/><line style="stroke:#A80036;stroke-width:1.5;" x1="198.5" x2="300.5" y1="169" y2="169"/><text fill="#000000" font-family="sans-serif" font-size="11" lengthAdjust="spacing" textLength="92" x="203.5" y="183.2104">+getShipStore()</text><!--MD5=[0dc7f2ddb409b58bcf52b12238c25399]
class Ship--><rect codeLine="8" fill="#FEFECE" filter="url(#f1r3ih8blnwn3x)" height="227.2656" id="Ship" style="stroke:#A80036;stroke-width:1.5;" width="225" x="137" y="427"/><ellipse cx="232.25" cy="443" fill="#ADD1B2" rx="11" ry="11" style="stroke:#A80036;stroke-width:1.0;"/><path d="M234.5938,438.6719 C233.6563,438.2344 233.0625,438.0938 232.1875,438.0938 C229.5625,438.0938 227.5625,440.1719 227.5625,442.8906 L227.5625,444.0156 C227.5625,446.5938 229.6719,448.4844 232.5625,448.4844 C233.7813,448.4844 234.9375,448.1875 235.6875,447.6406 C236.2656,447.2344 236.5938,446.7813 236.5938,446.3906 C236.5938,445.9375 236.2031,445.5469 235.7344,445.5469 C235.5156,445.5469 235.3125,445.625 235.125,445.8125 C234.6719,446.2969 234.6719,446.2969 234.4844,446.3906 C234.0625,446.6563 233.375,446.7813 232.6094,446.7813 C230.5625,446.7813 229.2656,445.6875 229.2656,443.9844 L229.2656,442.8906 C229.2656,441.1094 230.5156,439.7969 232.25,439.7969 C232.8281,439.7969 233.4375,439.9531 233.9063,440.2031 C234.3906,440.4844 234.5625,440.7031 234.6563,441.1094 C234.7188,441.5156 234.75,441.6406 234.8906,441.7656 C235.0313,441.9063 235.2656,442.0156 235.4844,442.0156 C235.75,442.0156 236.0156,441.875 236.1875,441.6563 C236.2969,441.5 236.3281,441.3125 236.3281,440.8906 L236.3281,439.4688 C236.3281,439.0313 236.3125,438.9063 236.2188,438.75 C236.0625,438.4844 235.7813,438.3438 235.4844,438.3438 C235.1875,438.3438 234.9844,438.4375 234.7656,438.75 L234.5938,438.6719 Z " fill="#000000"/><text fill="#000000" font-family="sans-serif" font-size="12" lengthAdjust="spacing" textLength="26" x="252.75" y="447.1543">Ship</text><line style="stroke:#A80036;stroke-width:1.5;" x1="138" x2="361" y1="459" y2="459"/><text fill="#000000" font-family="sans-serif" font-size="11" lengthAdjust="spacing" textLength="119" x="143" y="473.2104">-idShip: Identification</text><text fill="#000000" font-family="sans-serif" font-size="11" lengthAdjust="spacing" textLength="117" x="143" y="486.0151">-energy: ShipEnergy</text><text fill="#000000" font-family="sans-serif" font-size="11" lengthAdjust="spacing" textLength="200" x="143" y="498.8198">-characteristics: ShipCharacteristics</text><text fill="#000000" font-family="sans-serif" font-size="11" lengthAdjust="spacing" textLength="70" x="143" y="511.6245">-route:Route</text><line style="stroke:#A80036;stroke-width:1.5;" x1="138" x2="361" y1="518.2188" y2="518.2188"/><text fill="#000000" font-family="sans-serif" font-size="11" lengthAdjust="spacing" textLength="61" x="143" y="532.4292">+toString()</text><text fill="#000000" font-family="sans-serif" font-size="11" lengthAdjust="spacing" textLength="78" x="143" y="545.2339">+equals(ship)</text><text fill="#000000" font-family="sans-serif" font-size="11" lengthAdjust="spacing" textLength="136" x="143" y="558.0386">+validateIdentification()</text><text fill="#000000" font-family="sans-serif" font-size="11" lengthAdjust="spacing" textLength="103" x="143" y="570.8433">+validateEnergy()</text><text fill="#000000" font-family="sans-serif" font-size="11" lengthAdjust="spacing" textLength="146" x="143" y="583.6479">+validateCharacteristics()</text><text fill="#000000" font-family="sans-serif" font-size="11" lengthAdjust="spacing" textLength="96" x="143" y="596.4526">+validateRoute()</text><text fill="#000000" font-family="sans-serif" font-size="11" lengthAdjust="spacing" textLength="109" x="143" y="609.2573">+acessorMethods()</text><text fill="#000000" font-family="sans-serif" font-size="11" lengthAdjust="spacing" textLength="0" x="147" y="622.062"/><text fill="#000000" font-family="sans-serif" font-size="11" lengthAdjust="spacing" textLength="213" x="143" y="634.8667">+Ship(idShip, energy, characteristics)</text><text fill="#000000" font-family="sans-serif" font-size="11" lengthAdjust="spacing" textLength="26" x="143" y="647.6714">+...()</text><!--MD5=[ea2206eefe09474e90beb17e18e6b3d8]
class ShipStore--><rect codeLine="25" fill="#FEFECE" filter="url(#f1r3ih8blnwn3x)" height="99.2188" id="ShipStore" style="stroke:#A80036;stroke-width:1.5;" width="262" x="118.5" y="251"/><ellipse cx="215.75" cy="267" fill="#ADD1B2" rx="11" ry="11" style="stroke:#A80036;stroke-width:1.0;"/><path d="M218.0938,262.6719 C217.1563,262.2344 216.5625,262.0938 215.6875,262.0938 C213.0625,262.0938 211.0625,264.1719 211.0625,266.8906 L211.0625,268.0156 C211.0625,270.5938 213.1719,272.4844 216.0625,272.4844 C217.2813,272.4844 218.4375,272.1875 219.1875,271.6406 C219.7656,271.2344 220.0938,270.7813 220.0938,270.3906 C220.0938,269.9375 219.7031,269.5469 219.2344,269.5469 C219.0156,269.5469 218.8125,269.625 218.625,269.8125 C218.1719,270.2969 218.1719,270.2969 217.9844,270.3906 C217.5625,270.6563 216.875,270.7813 216.1094,270.7813 C214.0625,270.7813 212.7656,269.6875 212.7656,267.9844 L212.7656,266.8906 C212.7656,265.1094 214.0156,263.7969 215.75,263.7969 C216.3281,263.7969 216.9375,263.9531 217.4063,264.2031 C217.8906,264.4844 218.0625,264.7031 218.1563,265.1094 C218.2188,265.5156 218.25,265.6406 218.3906,265.7656 C218.5313,265.9063 218.7656,266.0156 218.9844,266.0156 C219.25,266.0156 219.5156,265.875 219.6875,265.6563 C219.7969,265.5 219.8281,265.3125 219.8281,264.8906 L219.8281,263.4688 C219.8281,263.0313 219.8125,262.9063 219.7188,262.75 C219.5625,262.4844 219.2813,262.3438 218.9844,262.3438 C218.6875,262.3438 218.4844,262.4375 218.2656,262.75 L218.0938,262.6719 Z " fill="#000000"/><text fill="#000000" font-family="sans-serif" font-size="12" lengthAdjust="spacing" textLength="59" x="236.25" y="271.1543">ShipStore</text><line style="stroke:#A80036;stroke-width:1.5;" x1="119.5" x2="379.5" y1="283" y2="283"/><text fill="#000000" font-family="sans-serif" font-size="11" lengthAdjust="spacing" textLength="132" x="124.5" y="297.2104">-BST &lt;Ship&gt; shipStore</text><line style="stroke:#A80036;stroke-width:1.5;" x1="119.5" x2="379.5" y1="303.8047" y2="303.8047"/><text fill="#000000" font-family="sans-serif" font-size="11" lengthAdjust="spacing" textLength="250" x="124.5" y="318.0151">+createShip(idShip, energy, characteristics)</text><text fill="#000000" font-family="sans-serif" font-size="11" lengthAdjust="spacing" textLength="93" x="124.5" y="330.8198">+saveShip(ship)</text><text fill="#000000" font-family="sans-serif" font-size="11" lengthAdjust="spacing" textLength="134" x="124.5" y="343.6245">+getShipByCode(code)</text><!--MD5=[9a305ff8ded9dfea1b145311e23eef54]
class ShipCharacteristics--><rect codeLine="32" fill="#FEFECE" filter="url(#f1r3ih8blnwn3x)" height="150.4375" id="ShipCharacteristics" style="stroke:#A80036;stroke-width:1.5;" width="147" x="7" y="731"/><ellipse cx="22" cy="747" fill="#ADD1B2" rx="11" ry="11" style="stroke:#A80036;stroke-width:1.0;"/><path d="M24.3438,742.6719 C23.4063,742.2344 22.8125,742.0938 21.9375,742.0938 C19.3125,742.0938 17.3125,744.1719 17.3125,746.8906 L17.3125,748.0156 C17.3125,750.5938 19.4219,752.4844 22.3125,752.4844 C23.5313,752.4844 24.6875,752.1875 25.4375,751.6406 C26.0156,751.2344 26.3438,750.7813 26.3438,750.3906 C26.3438,749.9375 25.9531,749.5469 25.4844,749.5469 C25.2656,749.5469 25.0625,749.625 24.875,749.8125 C24.4219,750.2969 24.4219,750.2969 24.2344,750.3906 C23.8125,750.6563 23.125,750.7813 22.3594,750.7813 C20.3125,750.7813 19.0156,749.6875 19.0156,747.9844 L19.0156,746.8906 C19.0156,745.1094 20.2656,743.7969 22,743.7969 C22.5781,743.7969 23.1875,743.9531 23.6563,744.2031 C24.1406,744.4844 24.3125,744.7031 24.4063,745.1094 C24.4688,745.5156 24.5,745.6406 24.6406,745.7656 C24.7813,745.9063 25.0156,746.0156 25.2344,746.0156 C25.5,746.0156 25.7656,745.875 25.9375,745.6563 C26.0469,745.5 26.0781,745.3125 26.0781,744.8906 L26.0781,743.4688 C26.0781,743.0313 26.0625,742.9063 25.9688,742.75 C25.8125,742.4844 25.5313,742.3438 25.2344,742.3438 C24.9375,742.3438 24.7344,742.4375 24.5156,742.75 L24.3438,742.6719 Z " fill="#000000"/><text fill="#000000" font-family="sans-serif" font-size="12" lengthAdjust="spacing" textLength="115" x="36" y="751.1543">ShipCharacteristics</text><line style="stroke:#A80036;stroke-width:1.5;" x1="8" x2="153" y1="763" y2="763"/><text fill="#000000" font-family="sans-serif" font-size="11" lengthAdjust="spacing" textLength="92" x="13" y="777.2104">-vesselType: int</text><text fill="#000000" font-family="sans-serif" font-size="11" lengthAdjust="spacing" textLength="61" x="13" y="790.0151">-length: int</text><text fill="#000000" font-family="sans-serif" font-size="11" lengthAdjust="spacing" textLength="55" x="13" y="802.8198">-width: int</text><text fill="#000000" font-family="sans-serif" font-size="11" lengthAdjust="spacing" textLength="72" x="13" y="815.6245">-capacity: int</text><text fill="#000000" font-family="sans-serif" font-size="11" lengthAdjust="spacing" textLength="51" x="13" y="828.4292">-draft: int</text><line style="stroke:#A80036;stroke-width:1.5;" x1="8" x2="153" y1="835.0234" y2="835.0234"/><text fill="#000000" font-family="sans-serif" font-size="11" lengthAdjust="spacing" textLength="61" x="13" y="849.2339">+toString()</text><text fill="#000000" font-family="sans-serif" font-size="11" lengthAdjust="spacing" textLength="78" x="13" y="862.0386">+equals(ship)</text><text fill="#000000" font-family="sans-serif" font-size="11" lengthAdjust="spacing" textLength="109" x="13" y="874.8433">+acessorMethods()</text><!--MD5=[9405696ed3e86fd0be987c002d055c8c]
class SeeShipDetailsTest--><rect codeLine="43" fill="#FEFECE" filter="url(#f1r3ih8blnwn3x)" height="60.8047" id="SeeShipDetailsTest" style="stroke:#A80036;stroke-width:1.5;" width="149" x="175" y="7"/><ellipse cx="190" cy="23" fill="#ADD1B2" rx="11" ry="11" style="stroke:#A80036;stroke-width:1.0;"/><path d="M192.3438,18.6719 C191.4063,18.2344 190.8125,18.0938 189.9375,18.0938 C187.3125,18.0938 185.3125,20.1719 185.3125,22.8906 L185.3125,24.0156 C185.3125,26.5938 187.4219,28.4844 190.3125,28.4844 C191.5313,28.4844 192.6875,28.1875 193.4375,27.6406 C194.0156,27.2344 194.3438,26.7813 194.3438,26.3906 C194.3438,25.9375 193.9531,25.5469 193.4844,25.5469 C193.2656,25.5469 193.0625,25.625 192.875,25.8125 C192.4219,26.2969 192.4219,26.2969 192.2344,26.3906 C191.8125,26.6563 191.125,26.7813 190.3594,26.7813 C188.3125,26.7813 187.0156,25.6875 187.0156,23.9844 L187.0156,22.8906 C187.0156,21.1094 188.2656,19.7969 190,19.7969 C190.5781,19.7969 191.1875,19.9531 191.6563,20.2031 C192.1406,20.4844 192.3125,20.7031 192.4063,21.1094 C192.4688,21.5156 192.5,21.6406 192.6406,21.7656 C192.7813,21.9063 193.0156,22.0156 193.2344,22.0156 C193.5,22.0156 193.7656,21.875 193.9375,21.6563 C194.0469,21.5 194.0781,21.3125 194.0781,20.8906 L194.0781,19.4688 C194.0781,19.0313 194.0625,18.9063 193.9688,18.75 C193.8125,18.4844 193.5313,18.3438 193.2344,18.3438 C192.9375,18.3438 192.7344,18.4375 192.5156,18.75 L192.3438,18.6719 Z " fill="#000000"/><text fill="#000000" font-family="sans-serif" font-size="12" lengthAdjust="spacing" textLength="117" x="204" y="27.1543">SeeShipDetailsTest</text><line style="stroke:#A80036;stroke-width:1.5;" x1="176" x2="323" y1="39" y2="39"/><line style="stroke:#A80036;stroke-width:1.5;" x1="176" x2="323" y1="47" y2="47"/><text fill="#000000" font-family="sans-serif" font-size="11" lengthAdjust="spacing" textLength="134" x="181" y="61.2104">+getShipByCode(code)</text><!--MD5=[82dc263f563d227779ba81db65b2fd4d]
class Identification--><rect codeLine="47" fill="#FEFECE" filter="url(#f1r3ih8blnwn3x)" height="124.8281" id="Identification" style="stroke:#A80036;stroke-width:1.5;" width="121" x="189" y="743.5"/><ellipse cx="209.85" cy="759.5" fill="#ADD1B2" rx="11" ry="11" style="stroke:#A80036;stroke-width:1.0;"/><path d="M212.1938,755.1719 C211.2563,754.7344 210.6625,754.5938 209.7875,754.5938 C207.1625,754.5938 205.1625,756.6719 205.1625,759.3906 L205.1625,760.5156 C205.1625,763.0938 207.2719,764.9844 210.1625,764.9844 C211.3813,764.9844 212.5375,764.6875 213.2875,764.1406 C213.8656,763.7344 214.1938,763.2813 214.1938,762.8906 C214.1938,762.4375 213.8031,762.0469 213.3344,762.0469 C213.1156,762.0469 212.9125,762.125 212.725,762.3125 C212.2719,762.7969 212.2719,762.7969 212.0844,762.8906 C211.6625,763.1563 210.975,763.2813 210.2094,763.2813 C208.1625,763.2813 206.8656,762.1875 206.8656,760.4844 L206.8656,759.3906 C206.8656,757.6094 208.1156,756.2969 209.85,756.2969 C210.4281,756.2969 211.0375,756.4531 211.5063,756.7031 C211.9906,756.9844 212.1625,757.2031 212.2563,757.6094 C212.3188,758.0156 212.35,758.1406 212.4906,758.2656 C212.6313,758.4063 212.8656,758.5156 213.0844,758.5156 C213.35,758.5156 213.6156,758.375 213.7875,758.1563 C213.8969,758 213.9281,757.8125 213.9281,757.3906 L213.9281,755.9688 C213.9281,755.5313 213.9125,755.4063 213.8188,755.25 C213.6625,754.9844 213.3813,754.8438 213.0844,754.8438 C212.7875,754.8438 212.5844,754.9375 212.3656,755.25 L212.1938,755.1719 Z " fill="#000000"/><text fill="#000000" font-family="sans-serif" font-size="12" lengthAdjust="spacing" textLength="76" x="225.15" y="763.6543">Identification</text><line style="stroke:#A80036;stroke-width:1.5;" x1="190" x2="309" y1="775.5" y2="775.5"/><text fill="#000000" font-family="sans-serif" font-size="11" lengthAdjust="spacing" textLength="75" x="195" y="789.7104">-mmsi: String</text><text fill="#000000" font-family="sans-serif" font-size="11" lengthAdjust="spacing" textLength="101" x="195" y="802.5151">-shipName: String</text><text fill="#000000" font-family="sans-serif" font-size="11" lengthAdjust="spacing" textLength="77" x="195" y="815.3198">-imoID: String</text><line style="stroke:#A80036;stroke-width:1.5;" x1="190" x2="309" y1="821.9141" y2="821.9141"/><text fill="#000000" font-family="sans-serif" font-size="11" lengthAdjust="spacing" textLength="61" x="195" y="836.1245">+toString()</text><text fill="#000000" font-family="sans-serif" font-size="11" lengthAdjust="spacing" textLength="78" x="195" y="848.9292">+equals(ship)</text><text fill="#000000" font-family="sans-serif" font-size="11" lengthAdjust="spacing" textLength="109" x="195" y="861.7339">+acessorMethods()</text><!--MD5=[fc92a9f5bb5fae84dd7fa4034e6b4444]
class Route--><rect codeLine="56" fill="#FEFECE" filter="url(#f1r3ih8blnwn3x)" height="86.4141" id="Route" style="stroke:#A80036;stroke-width:1.5;" width="161" x="345" y="763"/><ellipse cx="404.25" cy="779" fill="#ADD1B2" rx="11" ry="11" style="stroke:#A80036;stroke-width:1.0;"/><path d="M406.5938,774.6719 C405.6563,774.2344 405.0625,774.0938 404.1875,774.0938 C401.5625,774.0938 399.5625,776.1719 399.5625,778.8906 L399.5625,780.0156 C399.5625,782.5938 401.6719,784.4844 404.5625,784.4844 C405.7813,784.4844 406.9375,784.1875 407.6875,783.6406 C408.2656,783.2344 408.5938,782.7813 408.5938,782.3906 C408.5938,781.9375 408.2031,781.5469 407.7344,781.5469 C407.5156,781.5469 407.3125,781.625 407.125,781.8125 C406.6719,782.2969 406.6719,782.2969 406.4844,782.3906 C406.0625,782.6563 405.375,782.7813 404.6094,782.7813 C402.5625,782.7813 401.2656,781.6875 401.2656,779.9844 L401.2656,778.8906 C401.2656,777.1094 402.5156,775.7969 404.25,775.7969 C404.8281,775.7969 405.4375,775.9531 405.9063,776.2031 C406.3906,776.4844 406.5625,776.7031 406.6563,777.1094 C406.7188,777.5156 406.75,777.6406 406.8906,777.7656 C407.0313,777.9063 407.2656,778.0156 407.4844,778.0156 C407.75,778.0156 408.0156,777.875 408.1875,777.6563 C408.2969,777.5 408.3281,777.3125 408.3281,776.8906 L408.3281,775.4688 C408.3281,775.0313 408.3125,774.9063 408.2188,774.75 C408.0625,774.4844 407.7813,774.3438 407.4844,774.3438 C407.1875,774.3438 406.9844,774.4375 406.7656,774.75 L406.5938,774.6719 Z " fill="#000000"/><text fill="#000000" font-family="sans-serif" font-size="12" lengthAdjust="spacing" textLength="34" x="424.75" y="783.1543">Route</text><line style="stroke:#A80036;stroke-width:1.5;" x1="346" x2="505" y1="795" y2="795"/><text fill="#000000" font-family="sans-serif" font-size="11" lengthAdjust="spacing" textLength="149" x="351" y="809.2104">-route:List&lt;ShipDynamic&gt;</text><line style="stroke:#A80036;stroke-width:1.5;" x1="346" x2="505" y1="815.8047" y2="815.8047"/><text fill="#000000" font-family="sans-serif" font-size="11" lengthAdjust="spacing" textLength="111" x="351" y="830.0151">+getShipDynamic()</text><text fill="#000000" font-family="sans-serif" font-size="11" lengthAdjust="spacing" textLength="109" x="351" y="842.8198">+acessorMethods()</text><!--MD5=[19c2b9eb46691e25b02426140995a460]
class ShipDynamic--><rect codeLine="62" fill="#FEFECE" filter="url(#f1r3ih8blnwn3x)" height="99.2188" id="ShipDynamic" style="stroke:#A80036;stroke-width:1.5;" width="190" x="330.5" y="958"/><ellipse cx="382.75" cy="974" fill="#ADD1B2" rx="11" ry="11" style="stroke:#A80036;stroke-width:1.0;"/><path d="M385.0938,969.6719 C384.1563,969.2344 383.5625,969.0938 382.6875,969.0938 C380.0625,969.0938 378.0625,971.1719 378.0625,973.8906 L378.0625,975.0156 C378.0625,977.5938 380.1719,979.4844 383.0625,979.4844 C384.2813,979.4844 385.4375,979.1875 386.1875,978.6406 C386.7656,978.2344 387.0938,977.7813 387.0938,977.3906 C387.0938,976.9375 386.7031,976.5469 386.2344,976.5469 C386.0156,976.5469 385.8125,976.625 385.625,976.8125 C385.1719,977.2969 385.1719,977.2969 384.9844,977.3906 C384.5625,977.6563 383.875,977.7813 383.1094,977.7813 C381.0625,977.7813 379.7656,976.6875 379.7656,974.9844 L379.7656,973.8906 C379.7656,972.1094 381.0156,970.7969 382.75,970.7969 C383.3281,970.7969 383.9375,970.9531 384.4063,971.2031 C384.8906,971.4844 385.0625,971.7031 385.1563,972.1094 C385.2188,972.5156 385.25,972.6406 385.3906,972.7656 C385.5313,972.9063 385.7656,973.0156 385.9844,973.0156 C386.25,973.0156 386.5156,972.875 386.6875,972.6563 C386.7969,972.5 386.8281,972.3125 386.8281,971.8906 L386.8281,970.4688 C386.8281,970.0313 386.8125,969.9063 386.7188,969.75 C386.5625,969.4844 386.2813,969.3438 385.9844,969.3438 C385.6875,969.3438 385.4844,969.4375 385.2656,969.75 L385.0938,969.6719 Z " fill="#000000"/><text fill="#000000" font-family="sans-serif" font-size="12" lengthAdjust="spacing" textLength="77" x="403.25" y="978.1543">ShipDynamic</text><line style="stroke:#A80036;stroke-width:1.5;" x1="331.5" x2="519.5" y1="990" y2="990"/><text fill="#000000" font-family="sans-serif" font-size="11" lengthAdjust="spacing" textLength="178" x="336.5" y="1004.2104">-baseDateTime:LocalDateTime</text><text fill="#000000" font-family="sans-serif" font-size="11" lengthAdjust="spacing" textLength="98" x="336.5" y="1017.0151">-location:Location</text><text fill="#000000" font-family="sans-serif" font-size="11" lengthAdjust="spacing" textLength="158" x="336.5" y="1029.8198">-movement:MovementData</text><text fill="#000000" font-family="sans-serif" font-size="11" lengthAdjust="spacing" textLength="134" x="336.5" y="1042.6245">-transceiverClass:String</text><line style="stroke:#A80036;stroke-width:1.5;" x1="331.5" x2="519.5" y1="1049.2188" y2="1049.2188"/><!--MD5=[4f1f3706c1a355a8488e154afcaed5df]
class Location--><rect codeLine="70" fill="#FEFECE" filter="url(#f1r3ih8blnwn3x)" height="86.4141" id="Location" style="stroke:#A80036;stroke-width:1.5;" width="121" x="287" y="1140.5"/><ellipse cx="319.55" cy="1156.5" fill="#ADD1B2" rx="11" ry="11" style="stroke:#A80036;stroke-width:1.0;"/><path d="M321.8938,1152.1719 C320.9563,1151.7344 320.3625,1151.5938 319.4875,1151.5938 C316.8625,1151.5938 314.8625,1153.6719 314.8625,1156.3906 L314.8625,1157.5156 C314.8625,1160.0938 316.9719,1161.9844 319.8625,1161.9844 C321.0813,1161.9844 322.2375,1161.6875 322.9875,1161.1406 C323.5656,1160.7344 323.8938,1160.2813 323.8938,1159.8906 C323.8938,1159.4375 323.5031,1159.0469 323.0344,1159.0469 C322.8156,1159.0469 322.6125,1159.125 322.425,1159.3125 C321.9719,1159.7969 321.9719,1159.7969 321.7844,1159.8906 C321.3625,1160.1563 320.675,1160.2813 319.9094,1160.2813 C317.8625,1160.2813 316.5656,1159.1875 316.5656,1157.4844 L316.5656,1156.3906 C316.5656,1154.6094 317.8156,1153.2969 319.55,1153.2969 C320.1281,1153.2969 320.7375,1153.4531 321.2063,1153.7031 C321.6906,1153.9844 321.8625,1154.2031 321.9563,1154.6094 C322.0188,1155.0156 322.05,1155.1406 322.1906,1155.2656 C322.3313,1155.4063 322.5656,1155.5156 322.7844,1155.5156 C323.05,1155.5156 323.3156,1155.375 323.4875,1155.1563 C323.5969,1155 323.6281,1154.8125 323.6281,1154.3906 L323.6281,1152.9688 C323.6281,1152.5313 323.6125,1152.4063 323.5188,1152.25 C323.3625,1151.9844 323.0813,1151.8438 322.7844,1151.8438 C322.4875,1151.8438 322.2844,1151.9375 322.0656,1152.25 L321.8938,1152.1719 Z " fill="#000000"/><text fill="#000000" font-family="sans-serif" font-size="12" lengthAdjust="spacing" textLength="50" x="337.45" y="1160.6543">Location</text><line style="stroke:#A80036;stroke-width:1.5;" x1="288" x2="407" y1="1172.5" y2="1172.5"/><text fill="#000000" font-family="sans-serif" font-size="11" lengthAdjust="spacing" textLength="99" x="293" y="1186.7104">-longitude:double</text><text fill="#000000" font-family="sans-serif" font-size="11" lengthAdjust="spacing" textLength="89" x="293" y="1199.5151">-latitude:double</text><line style="stroke:#A80036;stroke-width:1.5;" x1="288" x2="407" y1="1206.1094" y2="1206.1094"/><text fill="#000000" font-family="sans-serif" font-size="11" lengthAdjust="spacing" textLength="109" x="293" y="1220.3198">+acessorMethods()</text><!--MD5=[f53982ce0c18a7437701df19018392ec]
class MovementData--><rect codeLine="76" fill="#FEFECE" filter="url(#f1r3ih8blnwn3x)" height="99.2188" id="MovementData" style="stroke:#A80036;stroke-width:1.5;" width="122" x="443.5" y="1134"/><ellipse cx="458.5" cy="1150" fill="#ADD1B2" rx="11" ry="11" style="stroke:#A80036;stroke-width:1.0;"/><path d="M460.8438,1145.6719 C459.9063,1145.2344 459.3125,1145.0938 458.4375,1145.0938 C455.8125,1145.0938 453.8125,1147.1719 453.8125,1149.8906 L453.8125,1151.0156 C453.8125,1153.5938 455.9219,1155.4844 458.8125,1155.4844 C460.0313,1155.4844 461.1875,1155.1875 461.9375,1154.6406 C462.5156,1154.2344 462.8438,1153.7813 462.8438,1153.3906 C462.8438,1152.9375 462.4531,1152.5469 461.9844,1152.5469 C461.7656,1152.5469 461.5625,1152.625 461.375,1152.8125 C460.9219,1153.2969 460.9219,1153.2969 460.7344,1153.3906 C460.3125,1153.6563 459.625,1153.7813 458.8594,1153.7813 C456.8125,1153.7813 455.5156,1152.6875 455.5156,1150.9844 L455.5156,1149.8906 C455.5156,1148.1094 456.7656,1146.7969 458.5,1146.7969 C459.0781,1146.7969 459.6875,1146.9531 460.1563,1147.2031 C460.6406,1147.4844 460.8125,1147.7031 460.9063,1148.1094 C460.9688,1148.5156 461,1148.6406 461.1406,1148.7656 C461.2813,1148.9063 461.5156,1149.0156 461.7344,1149.0156 C462,1149.0156 462.2656,1148.875 462.4375,1148.6563 C462.5469,1148.5 462.5781,1148.3125 462.5781,1147.8906 L462.5781,1146.4688 C462.5781,1146.0313 462.5625,1145.9063 462.4688,1145.75 C462.3125,1145.4844 462.0313,1145.3438 461.7344,1145.3438 C461.4375,1145.3438 461.2344,1145.4375 461.0156,1145.75 L460.8438,1145.6719 Z " fill="#000000"/><text fill="#000000" font-family="sans-serif" font-size="12" lengthAdjust="spacing" textLength="90" x="472.5" y="1154.1543">MovementData</text><line style="stroke:#A80036;stroke-width:1.5;" x1="444.5" x2="564.5" y1="1166" y2="1166"/><text fill="#000000" font-family="sans-serif" font-size="11" lengthAdjust="spacing" textLength="41" x="449.5" y="1180.2104">-sog:int</text><text fill="#000000" font-family="sans-serif" font-size="11" lengthAdjust="spacing" textLength="41" x="449.5" y="1193.0151">-cog:int</text><text fill="#000000" font-family="sans-serif" font-size="11" lengthAdjust="spacing" textLength="67" x="449.5" y="1205.8198">-heading:int</text><line style="stroke:#A80036;stroke-width:1.5;" x1="444.5" x2="564.5" y1="1212.4141" y2="1212.4141"/><text fill="#000000" font-family="sans-serif" font-size="11" lengthAdjust="spacing" textLength="109" x="449.5" y="1226.6245">+acessorMethods()</text><!--MD5=[3fab4dc70411c03b435107cc6d893fd7]
link SeeShipDetailsTest to Company--><path codeLine="83" d="M249.5,68.16 C249.5,84.89 249.5,105.9 249.5,123.44 " fill="none" id="SeeShipDetailsTest-to-Company" style="stroke:#A80036;stroke-width:1.0;stroke-dasharray:7.0,7.0;"/><polygon fill="#A80036" points="249.5,128.76,253.5,119.76,249.5,123.76,245.5,119.76,249.5,128.76" style="stroke:#A80036;stroke-width:1.0;"/><!--MD5=[6b4a94d80660e97c6833bde801bd4c89]
link Company to ShipStore--><path codeLine="84" d="M249.5,190.32 C249.5,206.43 249.5,226.83 249.5,245.617 " fill="none" id="Company-to-ShipStore" style="stroke:#A80036;stroke-width:1.0;"/><polygon fill="#A80036" points="249.5,250.869,253.5,241.869,249.5,245.869,245.5,241.869,249.5,250.869" style="stroke:#A80036;stroke-width:1.0;"/><text fill="#000000" font-family="sans-serif" font-size="13" lengthAdjust="spacing" textLength="8" x="240.7125" y="209.9634">1</text><text fill="#000000" font-family="sans-serif" font-size="13" lengthAdjust="spacing" textLength="8" x="240.9375" y="239.8958">1</text><!--MD5=[f04e04ecc6998d67821b33eb17256457]
link ShipStore to Ship--><path codeLine="85" d="M249.5,350.237 C249.5,371.147 249.5,396.565 249.5,421.899 " fill="none" id="ShipStore-to-Ship" style="stroke:#A80036;stroke-width:1.0;"/><polygon fill="#A80036" points="249.5,426.963,253.5,417.963,249.5,421.963,245.5,417.963,249.5,426.963" style="stroke:#A80036;stroke-width:1.0;"/><text fill="#000000" font-family="sans-serif" font-size="13" lengthAdjust="spacing" textLength="54" x="250.5" y="393.0669">contains</text><text fill="#000000" font-family="sans-serif" font-size="13" lengthAdjust="spacing" textLength="8" x="240.9375" y="370.3468">1</text><text fill="#000000" font-family="sans-serif" font-size="13" lengthAdjust="spacing" textLength="23" x="225.7273" y="415.8933">0..*</text><!--MD5=[b548f9cab810c886ef8d517236ce8553]
link Ship to Identification--><path codeLine="86" d="M249.5,654.012 C249.5,682.731 249.5,712.697 249.5,738.291 " fill="none" id="Ship-to-Identification" style="stroke:#A80036;stroke-width:1.0;"/><polygon fill="#A80036" points="249.5,743.35,253.5,734.35,249.5,738.35,245.5,734.35,249.5,743.35" style="stroke:#A80036;stroke-width:1.0;"/><text fill="#000000" font-family="sans-serif" font-size="13" lengthAdjust="spacing" textLength="54" x="250.5" y="697.0669">contains</text><text fill="#000000" font-family="sans-serif" font-size="13" lengthAdjust="spacing" textLength="8" x="241.2313" y="674.2049">1</text><text fill="#000000" font-family="sans-serif" font-size="13" lengthAdjust="spacing" textLength="24" x="224.1125" y="732.3234">0..1</text><!--MD5=[cea53bfc3a0979f95c62d6169ab9fc2e]
link Ship to ShipCharacteristics--><path codeLine="87" d="M177.339,654.012 C161.629,678.505 145.339,703.905 130.702,726.726 " fill="none" id="Ship-to-ShipCharacteristics" style="stroke:#A80036;stroke-width:1.0;"/><polygon fill="#A80036" points="127.989,730.957,136.2155,725.5418,130.6889,726.7486,129.4821,721.222,127.989,730.957" style="stroke:#A80036;stroke-width:1.0;"/><text fill="#000000" font-family="sans-serif" font-size="13" lengthAdjust="spacing" textLength="23" x="156.5" y="697.0669">has</text><text fill="#000000" font-family="sans-serif" font-size="13" lengthAdjust="spacing" textLength="8" x="164.2219" y="674.2049">1</text><text fill="#000000" font-family="sans-serif" font-size="13" lengthAdjust="spacing" textLength="24" x="107.4821" y="719.8836">0..1</text><!--MD5=[bd668f20969913e971975f69d50ab766]
link Ship to Route--><path codeLine="88" d="M324.65,654.012 C349.228,690.809 375.173,729.652 394.592,758.725 " fill="none" id="Ship-to-Route" style="stroke:#A80036;stroke-width:1.0;"/><polygon fill="#A80036" points="397.409,762.943,395.7372,753.2371,394.6322,758.7849,389.0843,757.6799,397.409,762.943" style="stroke:#A80036;stroke-width:1.0;"/><text fill="#000000" font-family="sans-serif" font-size="13" lengthAdjust="spacing" textLength="23" x="354.5" y="697.0669">has</text><text fill="#000000" font-family="sans-serif" font-size="13" lengthAdjust="spacing" textLength="8" x="321.4304" y="674.2049">1</text><text fill="#000000" font-family="sans-serif" font-size="13" lengthAdjust="spacing" textLength="24" x="367.0195" y="751.93">0..1</text><!--MD5=[6e2bf1b581922c3b45ac635d439704bd]
link Route to ShipDynamic--><path codeLine="89" d="M425.5,849.309 C425.5,879.491 425.5,920.317 425.5,952.798 " fill="none" id="Route-to-ShipDynamic" style="stroke:#A80036;stroke-width:1.0;"/><polygon fill="#A80036" points="425.5,957.936,429.5,948.936,425.5,952.936,421.5,948.936,425.5,957.936" style="stroke:#A80036;stroke-width:1.0;"/><text fill="#000000" font-family="sans-serif" font-size="13" lengthAdjust="spacing" textLength="23" x="426.5" y="924.0669">has</text><text fill="#000000" font-family="sans-serif" font-size="13" lengthAdjust="spacing" textLength="8" x="416.8625" y="869.4512">1</text><text fill="#000000" font-family="sans-serif" font-size="13" lengthAdjust="spacing" textLength="23" x="400.8828" y="946.9722">1..*</text><!--MD5=[58bf5a84367b2a558be92af5806d8972]
link ShipDynamic to MovementData--><path codeLine="90" d="M447.716,1057.432 C457.857,1079.766 469.89,1106.27 480.263,1129.118 " fill="none" id="ShipDynamic-to-MovementData" style="stroke:#A80036;stroke-width:1.0;"/><polygon fill="#A80036" points="482.451,1133.9355,482.3724,1124.087,480.3839,1129.3828,475.0881,1127.3943,482.451,1133.9355" style="stroke:#A80036;stroke-width:1.0;"/><text fill="#000000" font-family="sans-serif" font-size="13" lengthAdjust="spacing" textLength="54" x="468.5" y="1100.0669">contains</text><text fill="#000000" font-family="sans-serif" font-size="13" lengthAdjust="spacing" textLength="8" x="442.1638" y="1077.2105">1</text><text fill="#000000" font-family="sans-serif" font-size="13" lengthAdjust="spacing" textLength="24" x="453.6629" y="1122.9722">0..1</text><!--MD5=[4d937afab56fe47d5138ea5de0414cd5]
link ShipDynamic to Location--><path codeLine="91" d="M403.565,1057.432 C392.582,1081.933 379.349,1111.452 368.498,1135.6573 " fill="none" id="ShipDynamic-to-Location" style="stroke:#A80036;stroke-width:1.0;"/><polygon fill="#A80036" points="366.361,1140.4245,373.6924,1133.848,368.4062,1135.8619,366.3922,1130.5757,366.361,1140.4245" style="stroke:#A80036;stroke-width:1.0;"/><text fill="#000000" font-family="sans-serif" font-size="13" lengthAdjust="spacing" textLength="54" x="390.5" y="1100.0669">contains</text><text fill="#000000" font-family="sans-serif" font-size="13" lengthAdjust="spacing" textLength="8" x="392.08" y="1077.2105">1</text><text fill="#000000" font-family="sans-serif" font-size="13" lengthAdjust="spacing" textLength="24" x="343.4545" y="1129.4091">0..1</text><!--MD5=[39500734cf33cda5f84a529e1e150d48]
@startuml
skinparam classAttributeIconSize 0

Class "Company"{
+getShipStore()
}


Class "Ship"{
-idShip: Identification
-energy: ShipEnergy
-characteristics: ShipCharacteristics
-route:Route
+toString()
+equals(ship)
+validateIdentification()
+validateEnergy()
+validateCharacteristics()
+validateRoute()
+acessorMethods()

+Ship(idShip, energy, characteristics)
+...() 
}

Class "ShipStore"{
  -BST <Ship> shipStore
  +createShip(idShip, energy, characteristics)
  +saveShip(ship)
  +getShipByCode(code)
}

class "ShipCharacteristics" {
- vesselType: int
- length: int
- width: int
- capacity: int
- draft: int
+toString()
+equals(ship)
+acessorMethods()
}

Class "SeeShipDetailsTest"{
+getShipByCode(code)
}

Class "Identification"{
-mmsi: String
-shipName: String
-imoID: String
+toString()
+equals(ship)
+acessorMethods()
}

Class "Route" {
-route:List<ShipDynamic>
+getShipDynamic()
+acessorMethods()
}

Class "ShipDynamic" {
-baseDateTime:LocalDateTime
-location:Location
-movement:MovementData
-transceiverClass:String

}

Class "Location" {
-longitude:double
-latitude:double
+acessorMethods()
}

Class "MovementData" {
-sog:int
-cog:int
-heading:int
+acessorMethods()
}

SeeShipDetailsTest..>Company
Company"1"- ->"1"ShipStore 
ShipStore "1"  - -> "0..*" Ship: contains
Ship"1"  - -> "0..1" Identification: contains
Ship"1"  - -> "0..1" ShipCharacteristics : has
Ship"1"  - -> "0..1" Route: has
Route"1"  - -> "1..*" ShipDynamic: has
ShipDynamic"1"  - -> "0..1" MovementData: contains
ShipDynamic"1"  - -> "0..1" Location: contains
@enduml

PlantUML version 1.2021.13beta8(Unknown compile time)
(GPL source distribution)
Java Runtime: Java(TM) SE Runtime Environment
JVM: Java HotSpot(TM) 64-Bit Server VM
Default Encoding: UTF-8
Language: en
Country: US
--></g></svg>