<?xml version="1.0" encoding="UTF-8" standalone="no"?><svg xmlns="http://www.w3.org/2000/svg" xmlns:xlink="http://www.w3.org/1999/xlink" contentScriptType="application/ecmascript" contentStyleType="text/css" height="379px" preserveAspectRatio="none" style="width:1145px;height:379px;background:#FFFFFF;" version="1.1" viewBox="0 0 1145 379" width="1145px" zoomAndPan="magnify"><defs><filter height="300%" id="fjfhbt1il1e18" width="300%" x="-1" y="-1"><feGaussianBlur result="blurOut" stdDeviation="2.0"/><feColorMatrix in="blurOut" result="blurOut2" type="matrix" values="0 0 0 0 0 0 0 0 0 0 0 0 0 0 0 0 0 0 .4 0"/><feOffset dx="4.0" dy="4.0" in="blurOut2" result="blurOut3"/><feBlend in="SourceGraphic" in2="blurOut3" mode="normal"/></filter></defs><g><!--MD5=[0dc7f2ddb409b58bcf52b12238c25399]
class Ship--><rect codeLine="3" fill="#FEFECE" filter="url(#fjfhbt1il1e18)" height="188.8516" id="Ship" style="stroke:#A80036;stroke-width:1.5;" width="177" x="478" y="12.5"/><ellipse cx="549.25" cy="28.5" fill="#ADD1B2" rx="11" ry="11" style="stroke:#A80036;stroke-width:1.0;"/><path d="M551.5938,24.1719 C550.6563,23.7344 550.0625,23.5938 549.1875,23.5938 C546.5625,23.5938 544.5625,25.6719 544.5625,28.3906 L544.5625,29.5156 C544.5625,32.0938 546.6719,33.9844 549.5625,33.9844 C550.7813,33.9844 551.9375,33.6875 552.6875,33.1406 C553.2656,32.7344 553.5938,32.2813 553.5938,31.8906 C553.5938,31.4375 553.2031,31.0469 552.7344,31.0469 C552.5156,31.0469 552.3125,31.125 552.125,31.3125 C551.6719,31.7969 551.6719,31.7969 551.4844,31.8906 C551.0625,32.1563 550.375,32.2813 549.6094,32.2813 C547.5625,32.2813 546.2656,31.1875 546.2656,29.4844 L546.2656,28.3906 C546.2656,26.6094 547.5156,25.2969 549.25,25.2969 C549.8281,25.2969 550.4375,25.4531 550.9063,25.7031 C551.3906,25.9844 551.5625,26.2031 551.6563,26.6094 C551.7188,27.0156 551.75,27.1406 551.8906,27.2656 C552.0313,27.4063 552.2656,27.5156 552.4844,27.5156 C552.75,27.5156 553.0156,27.375 553.1875,27.1563 C553.2969,27 553.3281,26.8125 553.3281,26.3906 L553.3281,24.9688 C553.3281,24.5313 553.3125,24.4063 553.2188,24.25 C553.0625,23.9844 552.7813,23.8438 552.4844,23.8438 C552.1875,23.8438 551.9844,23.9375 551.7656,24.25 L551.5938,24.1719 Z " fill="#000000"/><text fill="#000000" font-family="sans-serif" font-size="12" lengthAdjust="spacing" textLength="26" x="569.75" y="32.6543">Ship</text><line style="stroke:#A80036;stroke-width:1.5;" x1="479" x2="654" y1="44.5" y2="44.5"/><text fill="#000000" font-family="sans-serif" font-size="11" lengthAdjust="spacing" textLength="33" x="484" y="58.7104">-MMSI</text><text fill="#000000" font-family="sans-serif" font-size="11" lengthAdjust="spacing" textLength="37" x="484" y="71.5151">-name</text><text fill="#000000" font-family="sans-serif" font-size="11" lengthAdjust="spacing" textLength="81" x="484" y="84.3198">-IMOIDnumber</text><text fill="#000000" font-family="sans-serif" font-size="11" lengthAdjust="spacing" textLength="165" x="484" y="97.1245">-numberOfEnergyGenerators</text><text fill="#000000" font-family="sans-serif" font-size="11" lengthAdjust="spacing" textLength="132" x="484" y="109.9292">-generatorPowerOutput</text><text fill="#000000" font-family="sans-serif" font-size="11" lengthAdjust="spacing" textLength="48" x="484" y="122.7339">-callSign</text><text fill="#000000" font-family="sans-serif" font-size="11" lengthAdjust="spacing" textLength="101" x="484" y="135.5386">-vesselTypeCode</text><text fill="#000000" font-family="sans-serif" font-size="11" lengthAdjust="spacing" textLength="34" x="484" y="148.3433">-width</text><text fill="#000000" font-family="sans-serif" font-size="11" lengthAdjust="spacing" textLength="40" x="484" y="161.1479">-length</text><text fill="#000000" font-family="sans-serif" font-size="11" lengthAdjust="spacing" textLength="51" x="484" y="173.9526">-capacity</text><text fill="#000000" font-family="sans-serif" font-size="11" lengthAdjust="spacing" textLength="30" x="484" y="186.7573">-draft</text><line style="stroke:#A80036;stroke-width:1.5;" x1="479" x2="654" y1="193.3516" y2="193.3516"/><!--MD5=[ddaf6f62b0bc30921877ec9fb9463c9f]
class TrafficManager--><rect codeLine="17" fill="#FEFECE" filter="url(#fjfhbt1il1e18)" height="73.6094" id="TrafficManager" style="stroke:#A80036;stroke-width:1.5;" width="121" x="237" y="7"/><ellipse cx="252" cy="23" fill="#ADD1B2" rx="11" ry="11" style="stroke:#A80036;stroke-width:1.0;"/><path d="M254.3438,18.6719 C253.4063,18.2344 252.8125,18.0938 251.9375,18.0938 C249.3125,18.0938 247.3125,20.1719 247.3125,22.8906 L247.3125,24.0156 C247.3125,26.5938 249.4219,28.4844 252.3125,28.4844 C253.5313,28.4844 254.6875,28.1875 255.4375,27.6406 C256.0156,27.2344 256.3438,26.7813 256.3438,26.3906 C256.3438,25.9375 255.9531,25.5469 255.4844,25.5469 C255.2656,25.5469 255.0625,25.625 254.875,25.8125 C254.4219,26.2969 254.4219,26.2969 254.2344,26.3906 C253.8125,26.6563 253.125,26.7813 252.3594,26.7813 C250.3125,26.7813 249.0156,25.6875 249.0156,23.9844 L249.0156,22.8906 C249.0156,21.1094 250.2656,19.7969 252,19.7969 C252.5781,19.7969 253.1875,19.9531 253.6563,20.2031 C254.1406,20.4844 254.3125,20.7031 254.4063,21.1094 C254.4688,21.5156 254.5,21.6406 254.6406,21.7656 C254.7813,21.9063 255.0156,22.0156 255.2344,22.0156 C255.5,22.0156 255.7656,21.875 255.9375,21.6563 C256.0469,21.5 256.0781,21.3125 256.0781,20.8906 L256.0781,19.4688 C256.0781,19.0313 256.0625,18.9063 255.9688,18.75 C255.8125,18.4844 255.5313,18.3438 255.2344,18.3438 C254.9375,18.3438 254.7344,18.4375 254.5156,18.75 L254.3438,18.6719 Z " fill="#000000"/><text fill="#000000" font-family="sans-serif" font-size="12" lengthAdjust="spacing" textLength="89" x="266" y="27.1543">TrafficManager</text><line style="stroke:#A80036;stroke-width:1.5;" x1="238" x2="357" y1="39" y2="39"/><text fill="#000000" font-family="sans-serif" font-size="11" lengthAdjust="spacing" textLength="41" x="243" y="53.2104">-userID</text><text fill="#000000" font-family="sans-serif" font-size="11" lengthAdjust="spacing" textLength="37" x="243" y="66.0151">-name</text><line style="stroke:#A80036;stroke-width:1.5;" x1="238" x2="357" y1="72.6094" y2="72.6094"/><!--MD5=[19c2b9eb46691e25b02426140995a460]
class ShipDynamic--><rect codeLine="21" fill="#FEFECE" filter="url(#fjfhbt1il1e18)" height="150.4375" id="ShipDynamic" style="stroke:#A80036;stroke-width:1.5;" width="110" x="1021" y="112"/><ellipse cx="1036.45" cy="128" fill="#ADD1B2" rx="11" ry="11" style="stroke:#A80036;stroke-width:1.0;"/><path d="M1038.7938,123.6719 C1037.8563,123.2344 1037.2625,123.0938 1036.3875,123.0938 C1033.7625,123.0938 1031.7625,125.1719 1031.7625,127.8906 L1031.7625,129.0156 C1031.7625,131.5938 1033.8719,133.4844 1036.7625,133.4844 C1037.9813,133.4844 1039.1375,133.1875 1039.8875,132.6406 C1040.4656,132.2344 1040.7938,131.7813 1040.7938,131.3906 C1040.7938,130.9375 1040.4031,130.5469 1039.9344,130.5469 C1039.7156,130.5469 1039.5125,130.625 1039.325,130.8125 C1038.8719,131.2969 1038.8719,131.2969 1038.6844,131.3906 C1038.2625,131.6563 1037.575,131.7813 1036.8094,131.7813 C1034.7625,131.7813 1033.4656,130.6875 1033.4656,128.9844 L1033.4656,127.8906 C1033.4656,126.1094 1034.7156,124.7969 1036.45,124.7969 C1037.0281,124.7969 1037.6375,124.9531 1038.1063,125.2031 C1038.5906,125.4844 1038.7625,125.7031 1038.8563,126.1094 C1038.9188,126.5156 1038.95,126.6406 1039.0906,126.7656 C1039.2313,126.9063 1039.4656,127.0156 1039.6844,127.0156 C1039.95,127.0156 1040.2156,126.875 1040.3875,126.6563 C1040.4969,126.5 1040.5281,126.3125 1040.5281,125.8906 L1040.5281,124.4688 C1040.5281,124.0313 1040.5125,123.9063 1040.4188,123.75 C1040.2625,123.4844 1039.9813,123.3438 1039.6844,123.3438 C1039.3875,123.3438 1039.1844,123.4375 1038.9656,123.75 L1038.7938,123.6719 Z " fill="#000000"/><text fill="#000000" font-family="sans-serif" font-size="12" lengthAdjust="spacing" textLength="77" x="1050.55" y="132.1543">ShipDynamic</text><line style="stroke:#A80036;stroke-width:1.5;" x1="1022" x2="1130" y1="144" y2="144"/><text fill="#000000" font-family="sans-serif" font-size="11" lengthAdjust="spacing" textLength="89" x="1027" y="158.2104">-baseDateTime</text><text fill="#000000" font-family="sans-serif" font-size="11" lengthAdjust="spacing" textLength="47" x="1027" y="171.0151">-latitude</text><text fill="#000000" font-family="sans-serif" font-size="11" lengthAdjust="spacing" textLength="57" x="1027" y="183.8198">-longitude</text><text fill="#000000" font-family="sans-serif" font-size="11" lengthAdjust="spacing" textLength="30" x="1027" y="196.6245">-SOG</text><text fill="#000000" font-family="sans-serif" font-size="11" lengthAdjust="spacing" textLength="30" x="1027" y="209.4292">-COG</text><text fill="#000000" font-family="sans-serif" font-size="11" lengthAdjust="spacing" textLength="50" x="1027" y="222.2339">-heading</text><text fill="#000000" font-family="sans-serif" font-size="11" lengthAdjust="spacing" textLength="48" x="1027" y="235.0386">-position</text><text fill="#000000" font-family="sans-serif" font-size="11" lengthAdjust="spacing" textLength="98" x="1027" y="247.8433">-transceiverClass</text><line style="stroke:#A80036;stroke-width:1.5;" x1="1022" x2="1130" y1="254.4375" y2="254.4375"/><!--MD5=[02e4b9b7573f1156f41e60aa5b4e25a4]
class Company--><rect codeLine="32" fill="#FEFECE" filter="url(#fjfhbt1il1e18)" height="60.8047" id="Company" style="stroke:#A80036;stroke-width:1.5;" width="88" x="253.5" y="116.5"/><ellipse cx="268.5" cy="132.5" fill="#ADD1B2" rx="11" ry="11" style="stroke:#A80036;stroke-width:1.0;"/><path d="M270.8438,128.1719 C269.9063,127.7344 269.3125,127.5938 268.4375,127.5938 C265.8125,127.5938 263.8125,129.6719 263.8125,132.3906 L263.8125,133.5156 C263.8125,136.0938 265.9219,137.9844 268.8125,137.9844 C270.0313,137.9844 271.1875,137.6875 271.9375,137.1406 C272.5156,136.7344 272.8438,136.2813 272.8438,135.8906 C272.8438,135.4375 272.4531,135.0469 271.9844,135.0469 C271.7656,135.0469 271.5625,135.125 271.375,135.3125 C270.9219,135.7969 270.9219,135.7969 270.7344,135.8906 C270.3125,136.1563 269.625,136.2813 268.8594,136.2813 C266.8125,136.2813 265.5156,135.1875 265.5156,133.4844 L265.5156,132.3906 C265.5156,130.6094 266.7656,129.2969 268.5,129.2969 C269.0781,129.2969 269.6875,129.4531 270.1563,129.7031 C270.6406,129.9844 270.8125,130.2031 270.9063,130.6094 C270.9688,131.0156 271,131.1406 271.1406,131.2656 C271.2813,131.4063 271.5156,131.5156 271.7344,131.5156 C272,131.5156 272.2656,131.375 272.4375,131.1563 C272.5469,131 272.5781,130.8125 272.5781,130.3906 L272.5781,128.9688 C272.5781,128.5313 272.5625,128.4063 272.4688,128.25 C272.3125,127.9844 272.0313,127.8438 271.7344,127.8438 C271.4375,127.8438 271.2344,127.9375 271.0156,128.25 L270.8438,128.1719 Z " fill="#000000"/><text fill="#000000" font-family="sans-serif" font-size="12" lengthAdjust="spacing" textLength="56" x="282.5" y="136.6543">Company</text><line style="stroke:#A80036;stroke-width:1.5;" x1="254.5" x2="340.5" y1="148.5" y2="148.5"/><text fill="#000000" font-family="sans-serif" font-size="11" lengthAdjust="spacing" textLength="66" x="259.5" y="162.7104">-description</text><line style="stroke:#A80036;stroke-width:1.5;" x1="254.5" x2="340.5" y1="169.3047" y2="169.3047"/><!--MD5=[82dc263f563d227779ba81db65b2fd4d]
class Identification--><rect codeLine="35" fill="#FEFECE" filter="url(#fjfhbt1il1e18)" height="86.4141" id="Identification" style="stroke:#A80036;stroke-width:1.5;" width="108" x="784" y="35"/><ellipse cx="799" cy="51" fill="#ADD1B2" rx="11" ry="11" style="stroke:#A80036;stroke-width:1.0;"/><path d="M801.3438,46.6719 C800.4063,46.2344 799.8125,46.0938 798.9375,46.0938 C796.3125,46.0938 794.3125,48.1719 794.3125,50.8906 L794.3125,52.0156 C794.3125,54.5938 796.4219,56.4844 799.3125,56.4844 C800.5313,56.4844 801.6875,56.1875 802.4375,55.6406 C803.0156,55.2344 803.3438,54.7813 803.3438,54.3906 C803.3438,53.9375 802.9531,53.5469 802.4844,53.5469 C802.2656,53.5469 802.0625,53.625 801.875,53.8125 C801.4219,54.2969 801.4219,54.2969 801.2344,54.3906 C800.8125,54.6563 800.125,54.7813 799.3594,54.7813 C797.3125,54.7813 796.0156,53.6875 796.0156,51.9844 L796.0156,50.8906 C796.0156,49.1094 797.2656,47.7969 799,47.7969 C799.5781,47.7969 800.1875,47.9531 800.6563,48.2031 C801.1406,48.4844 801.3125,48.7031 801.4063,49.1094 C801.4688,49.5156 801.5,49.6406 801.6406,49.7656 C801.7813,49.9063 802.0156,50.0156 802.2344,50.0156 C802.5,50.0156 802.7656,49.875 802.9375,49.6563 C803.0469,49.5 803.0781,49.3125 803.0781,48.8906 L803.0781,47.4688 C803.0781,47.0313 803.0625,46.9063 802.9688,46.75 C802.8125,46.4844 802.5313,46.3438 802.2344,46.3438 C801.9375,46.3438 801.7344,46.4375 801.5156,46.75 L801.3438,46.6719 Z " fill="#000000"/><text fill="#000000" font-family="sans-serif" font-size="12" lengthAdjust="spacing" textLength="76" x="813" y="55.1543">Identification</text><line style="stroke:#A80036;stroke-width:1.5;" x1="785" x2="891" y1="67" y2="67"/><text fill="#000000" font-family="sans-serif" font-size="11" lengthAdjust="spacing" textLength="35" x="790" y="81.2104">-mmsi</text><text fill="#000000" font-family="sans-serif" font-size="11" lengthAdjust="spacing" textLength="91" x="790" y="94.0151">-shipDescription</text><text fill="#000000" font-family="sans-serif" font-size="11" lengthAdjust="spacing" textLength="37" x="790" y="106.8198">-imoID</text><line style="stroke:#A80036;stroke-width:1.5;" x1="785" x2="891" y1="113.4141" y2="113.4141"/><!--MD5=[2523412913e10183997a259215d888d9]
class Characteristics--><rect codeLine="41" fill="#FEFECE" filter="url(#fjfhbt1il1e18)" height="112.0234" id="Characteristics" style="stroke:#A80036;stroke-width:1.5;" width="121" x="506" y="253"/><ellipse cx="521" cy="269" fill="#ADD1B2" rx="11" ry="11" style="stroke:#A80036;stroke-width:1.0;"/><path d="M523.3438,264.6719 C522.4063,264.2344 521.8125,264.0938 520.9375,264.0938 C518.3125,264.0938 516.3125,266.1719 516.3125,268.8906 L516.3125,270.0156 C516.3125,272.5938 518.4219,274.4844 521.3125,274.4844 C522.5313,274.4844 523.6875,274.1875 524.4375,273.6406 C525.0156,273.2344 525.3438,272.7813 525.3438,272.3906 C525.3438,271.9375 524.9531,271.5469 524.4844,271.5469 C524.2656,271.5469 524.0625,271.625 523.875,271.8125 C523.4219,272.2969 523.4219,272.2969 523.2344,272.3906 C522.8125,272.6563 522.125,272.7813 521.3594,272.7813 C519.3125,272.7813 518.0156,271.6875 518.0156,269.9844 L518.0156,268.8906 C518.0156,267.1094 519.2656,265.7969 521,265.7969 C521.5781,265.7969 522.1875,265.9531 522.6563,266.2031 C523.1406,266.4844 523.3125,266.7031 523.4063,267.1094 C523.4688,267.5156 523.5,267.6406 523.6406,267.7656 C523.7813,267.9063 524.0156,268.0156 524.2344,268.0156 C524.5,268.0156 524.7656,267.875 524.9375,267.6563 C525.0469,267.5 525.0781,267.3125 525.0781,266.8906 L525.0781,265.4688 C525.0781,265.0313 525.0625,264.9063 524.9688,264.75 C524.8125,264.4844 524.5313,264.3438 524.2344,264.3438 C523.9375,264.3438 523.7344,264.4375 523.5156,264.75 L523.3438,264.6719 Z " fill="#000000"/><text fill="#000000" font-family="sans-serif" font-size="12" lengthAdjust="spacing" textLength="89" x="535" y="273.1543">Characteristics</text><line style="stroke:#A80036;stroke-width:1.5;" x1="507" x2="626" y1="285" y2="285"/><text fill="#000000" font-family="sans-serif" font-size="11" lengthAdjust="spacing" textLength="71" x="512" y="299.2104">-vesselType</text><text fill="#000000" font-family="sans-serif" font-size="11" lengthAdjust="spacing" textLength="40" x="512" y="312.0151">-lenght</text><text fill="#000000" font-family="sans-serif" font-size="11" lengthAdjust="spacing" textLength="34" x="512" y="324.8198">-width</text><text fill="#000000" font-family="sans-serif" font-size="11" lengthAdjust="spacing" textLength="51" x="512" y="337.6245">-capacity</text><text fill="#000000" font-family="sans-serif" font-size="11" lengthAdjust="spacing" textLength="30" x="512" y="350.4292">-draft</text><line style="stroke:#A80036;stroke-width:1.5;" x1="507" x2="626" y1="357.0234" y2="357.0234"/><!--MD5=[fc92a9f5bb5fae84dd7fa4034e6b4444]
class Route--><rect codeLine="48" fill="#FEFECE" filter="url(#fjfhbt1il1e18)" height="60.8047" id="Route" style="stroke:#A80036;stroke-width:1.5;" width="66" x="805" y="156.5"/><ellipse cx="820" cy="172.5" fill="#ADD1B2" rx="11" ry="11" style="stroke:#A80036;stroke-width:1.0;"/><path d="M822.3438,168.1719 C821.4063,167.7344 820.8125,167.5938 819.9375,167.5938 C817.3125,167.5938 815.3125,169.6719 815.3125,172.3906 L815.3125,173.5156 C815.3125,176.0938 817.4219,177.9844 820.3125,177.9844 C821.5313,177.9844 822.6875,177.6875 823.4375,177.1406 C824.0156,176.7344 824.3438,176.2813 824.3438,175.8906 C824.3438,175.4375 823.9531,175.0469 823.4844,175.0469 C823.2656,175.0469 823.0625,175.125 822.875,175.3125 C822.4219,175.7969 822.4219,175.7969 822.2344,175.8906 C821.8125,176.1563 821.125,176.2813 820.3594,176.2813 C818.3125,176.2813 817.0156,175.1875 817.0156,173.4844 L817.0156,172.3906 C817.0156,170.6094 818.2656,169.2969 820,169.2969 C820.5781,169.2969 821.1875,169.4531 821.6563,169.7031 C822.1406,169.9844 822.3125,170.2031 822.4063,170.6094 C822.4688,171.0156 822.5,171.1406 822.6406,171.2656 C822.7813,171.4063 823.0156,171.5156 823.2344,171.5156 C823.5,171.5156 823.7656,171.375 823.9375,171.1563 C824.0469,171 824.0781,170.8125 824.0781,170.3906 L824.0781,168.9688 C824.0781,168.5313 824.0625,168.4063 823.9688,168.25 C823.8125,167.9844 823.5313,167.8438 823.2344,167.8438 C822.9375,167.8438 822.7344,167.9375 822.5156,168.25 L822.3438,168.1719 Z " fill="#000000"/><text fill="#000000" font-family="sans-serif" font-size="12" lengthAdjust="spacing" textLength="34" x="834" y="176.6543">Route</text><line style="stroke:#A80036;stroke-width:1.5;" x1="806" x2="870" y1="188.5" y2="188.5"/><text fill="#000000" font-family="sans-serif" font-size="11" lengthAdjust="spacing" textLength="46" x="811" y="202.7104">-routeID</text><line style="stroke:#A80036;stroke-width:1.5;" x1="806" x2="870" y1="209.3047" y2="209.3047"/><!--MD5=[d21c0d3d7e322b0367e05f4b0c5de876]
class CompanyRoles--><rect codeLine="53" fill="#FEFECE" filter="url(#fjfhbt1il1e18)" height="73.6094" id="CompanyRoles" style="stroke:#A80036;stroke-width:1.5;" width="121" x="7" y="7"/><ellipse cx="22" cy="23" fill="#ADD1B2" rx="11" ry="11" style="stroke:#A80036;stroke-width:1.0;"/><path d="M24.3438,18.6719 C23.4063,18.2344 22.8125,18.0938 21.9375,18.0938 C19.3125,18.0938 17.3125,20.1719 17.3125,22.8906 L17.3125,24.0156 C17.3125,26.5938 19.4219,28.4844 22.3125,28.4844 C23.5313,28.4844 24.6875,28.1875 25.4375,27.6406 C26.0156,27.2344 26.3438,26.7813 26.3438,26.3906 C26.3438,25.9375 25.9531,25.5469 25.4844,25.5469 C25.2656,25.5469 25.0625,25.625 24.875,25.8125 C24.4219,26.2969 24.4219,26.2969 24.2344,26.3906 C23.8125,26.6563 23.125,26.7813 22.3594,26.7813 C20.3125,26.7813 19.0156,25.6875 19.0156,23.9844 L19.0156,22.8906 C19.0156,21.1094 20.2656,19.7969 22,19.7969 C22.5781,19.7969 23.1875,19.9531 23.6563,20.2031 C24.1406,20.4844 24.3125,20.7031 24.4063,21.1094 C24.4688,21.5156 24.5,21.6406 24.6406,21.7656 C24.7813,21.9063 25.0156,22.0156 25.2344,22.0156 C25.5,22.0156 25.7656,21.875 25.9375,21.6563 C26.0469,21.5 26.0781,21.3125 26.0781,20.8906 L26.0781,19.4688 C26.0781,19.0313 26.0625,18.9063 25.9688,18.75 C25.8125,18.4844 25.5313,18.3438 25.2344,18.3438 C24.9375,18.3438 24.7344,18.4375 24.5156,18.75 L24.3438,18.6719 Z " fill="#000000"/><text fill="#000000" font-family="sans-serif" font-size="12" lengthAdjust="spacing" textLength="89" x="36" y="27.1543">CompanyRoles</text><line style="stroke:#A80036;stroke-width:1.5;" x1="8" x2="127" y1="39" y2="39"/><text fill="#000000" font-family="sans-serif" font-size="11" lengthAdjust="spacing" textLength="38" x="13" y="53.2104">-roleID</text><text fill="#000000" font-family="sans-serif" font-size="11" lengthAdjust="spacing" textLength="90" x="13" y="66.0151">-roleDescription</text><line style="stroke:#A80036;stroke-width:1.5;" x1="8" x2="127" y1="72.6094" y2="72.6094"/><!--MD5=[40e2b5717560220ad35e84810a8f1b44]
link TrafficManager to Ship--><path codeLine="57" d="M358.088,58.06 C391.845,66.025 434.809,76.163 472.868,85.143 " fill="none" id="TrafficManager-to-Ship" style="stroke:#A80036;stroke-width:1.0;"/><polygon fill="#A80036" points="477.963,86.345,470.1227,80.3843,473.0967,85.1963,468.2848,88.1703,477.963,86.345" style="stroke:#A80036;stroke-width:1.0;"/><polygon fill="#000000" points="397.8664,58.7147,389.7379,53.7771,388.3881,59.4978,397.8664,58.7147" style="stroke:#000000;stroke-width:1.0;"/><text fill="#000000" font-family="sans-serif" font-size="13" lengthAdjust="spacing" textLength="45" x="402" y="62.0669">selects</text><text fill="#000000" font-family="sans-serif" font-size="13" lengthAdjust="spacing" textLength="8" x="365.9597" y="72.7864">1</text><text fill="#000000" font-family="sans-serif" font-size="13" lengthAdjust="spacing" textLength="23" x="446.9913" y="97.3748">1..*</text><!--MD5=[bc89a5f386bacea718ec506a33afbb24]
reverse link CompanyRoles to TrafficManager--><path codeLine="58" d="M133.273,44 C165.834,44 205.027,44 236.846,44 " fill="none" id="CompanyRoles-backto-TrafficManager" style="stroke:#A80036;stroke-width:1.0;"/><polygon fill="#A80036" points="128.107,44,137.107,48,133.107,44,137.107,40,128.107,44" style="stroke:#A80036;stroke-width:1.0;"/><polygon fill="#000000" points="168,35.5664,158.9549,32.6275,158.9549,38.5053,168,35.5664" style="stroke:#000000;stroke-width:1.0;"/><text fill="#000000" font-family="sans-serif" font-size="13" lengthAdjust="spacing" textLength="34" x="172" y="40.0669">plays</text><text fill="#000000" font-family="sans-serif" font-size="13" lengthAdjust="spacing" textLength="8" x="135.981" y="57.0129">1</text><text fill="#000000" font-family="sans-serif" font-size="13" lengthAdjust="spacing" textLength="23" x="205.9542" y="56.9158">1..*</text><!--MD5=[bd668f20969913e971975f69d50ab766]
link Ship to Route--><path codeLine="59" d="M655.371,133.084 C704.324,147.616 762.706,164.946 799.812,175.961 " fill="none" id="Ship-to-Route" style="stroke:#A80036;stroke-width:1.0;"/><polygon fill="#A80036" points="804.679,177.406,797.1895,171.0101,799.8858,175.983,794.9128,178.6792,804.679,177.406" style="stroke:#A80036;stroke-width:1.0;"/><polygon fill="#000000" points="710.2933,134.9893,702.4585,129.5979,700.7858,135.2327,710.2933,134.9893" style="stroke:#000000;stroke-width:1.0;"/><text fill="#000000" font-family="sans-serif" font-size="13" lengthAdjust="spacing" textLength="23" x="714.5" y="138.0669">has</text><text fill="#000000" font-family="sans-serif" font-size="13" lengthAdjust="spacing" textLength="8" x="663.0619" y="147.9437">1</text><text fill="#000000" font-family="sans-serif" font-size="13" lengthAdjust="spacing" textLength="23" x="773.9754" y="189.1412">1..*</text><!--MD5=[777bd18e7fd60fc9f8777acca57a952c]
link Ship to Characteristics--><path codeLine="60" d="M566.5,201.877 C566.5,217.462 566.5,233.242 566.5,247.725 " fill="none" id="Ship-to-Characteristics" style="stroke:#A80036;stroke-width:1.0;"/><polygon fill="#A80036" points="566.5,253,570.5,244,566.5,248,562.5,244,566.5,253" style="stroke:#A80036;stroke-width:1.0;"/><polygon fill="#000000" points="525.5,232.3164,528.4389,223.2713,522.5611,223.2713,525.5,232.3164" style="stroke:#000000;stroke-width:1.0;"/><text fill="#000000" font-family="sans-serif" font-size="13" lengthAdjust="spacing" textLength="54" x="534.5" y="231.8169">contains</text><text fill="#000000" font-family="sans-serif" font-size="13" lengthAdjust="spacing" textLength="8" x="558.2063" y="221.4725">1</text><text fill="#000000" font-family="sans-serif" font-size="13" lengthAdjust="spacing" textLength="8" x="557.9875" y="241.938">1</text><!--MD5=[b548f9cab810c886ef8d517236ce8553]
link Ship to Identification--><path codeLine="61" d="M655.371,97.544 C695.779,93.196 742.611,88.157 778.599,84.284 " fill="none" id="Ship-to-Identification" style="stroke:#A80036;stroke-width:1.0;"/><polygon fill="#A80036" points="783.828,83.722,774.4521,80.7066,778.8566,84.2563,775.307,88.6608,783.828,83.722" style="stroke:#A80036;stroke-width:1.0;"/><polygon fill="#000000" points="694.9713,78.0315,685.6637,76.0771,686.2926,81.9212,694.9713,78.0315" style="stroke:#000000;stroke-width:1.0;"/><text fill="#000000" font-family="sans-serif" font-size="13" lengthAdjust="spacing" textLength="54" x="699" y="83.0669">contains</text><text fill="#000000" font-family="sans-serif" font-size="13" lengthAdjust="spacing" textLength="8" x="663.0619" y="109.4606">1</text><text fill="#000000" font-family="sans-serif" font-size="13" lengthAdjust="spacing" textLength="8" x="768.0111" y="97.5467">1</text><!--MD5=[6e2bf1b581922c3b45ac635d439704bd]
link Route to ShipDynamic--><path codeLine="62" d="M871.32,187 C908.394,187 969.95,187 1015.71,187 " fill="none" id="Route-to-ShipDynamic" style="stroke:#A80036;stroke-width:1.0;"/><polygon fill="#A80036" points="1020.92,187,1011.92,183,1015.92,187,1011.92,191,1020.92,187" style="stroke:#A80036;stroke-width:1.0;"/><polygon fill="#000000" points="932,178.5664,922.9549,175.6275,922.9549,181.5053,932,178.5664" style="stroke:#000000;stroke-width:1.0;"/><text fill="#000000" font-family="sans-serif" font-size="13" lengthAdjust="spacing" textLength="54" x="936" y="183.0669">contains</text><text fill="#000000" font-family="sans-serif" font-size="13" lengthAdjust="spacing" textLength="8" x="879.0173" y="200.6476">1</text><text fill="#000000" font-family="sans-serif" font-size="13" lengthAdjust="spacing" textLength="23" x="989.8089" y="199.9624">1..*</text><!--MD5=[37a14a5de6d6fd738aee271300f4b5c8]
link Company to Ship--><path codeLine="63" d="M341.736,141.63 C371.621,137.816 412.273,132.429 448,127 C456.047,125.777 464.396,124.458 472.763,123.101 " fill="none" id="Company-to-Ship" style="stroke:#A80036;stroke-width:1.0;"/><polygon fill="#A80036" points="477.972,122.252,468.4457,119.752,473.0371,123.0564,469.7327,127.6478,477.972,122.252" style="stroke:#A80036;stroke-width:1.0;"/><polygon fill="#000000" points="403.4507,117.8663,394.0833,116.2228,394.9063,122.0428,403.4507,117.8663" style="stroke:#000000;stroke-width:1.0;"/><text fill="#000000" font-family="sans-serif" font-size="13" lengthAdjust="spacing" textLength="34" x="407.5" y="123.0669">owns</text><text fill="#000000" font-family="sans-serif" font-size="13" lengthAdjust="spacing" textLength="8" x="349.4236" y="154.0625">1</text><text fill="#000000" font-family="sans-serif" font-size="13" lengthAdjust="spacing" textLength="23" x="447.001" y="136.1432">1..*</text><!--MD5=[d1b803c093d96ed92a0100ebce4d0a6f]
@startuml
skinparam classAttributeIconSize 0
left to right direction
class Ship {
-MMSI
-name
-IMOIDnumber
-numberOfEnergyGenerators
-generatorPowerOutput
-callSign
-vesselTypeCode
-width
-length
-capacity
-draft
}

class TrafficManager{
-userID
-name
}
class ShipDynamic{
-baseDateTime
-latitude
-longitude
-SOG
-COG
-heading
-position
-transceiverClass
}

class Company {
-description
}
class Identification{
-mmsi
-shipDescription
-imoID
}

class Characteristics{
-vesselType
-lenght
-width
-capacity
-draft
}
class Route{
-routeID
}


class CompanyRoles {
-roleID
-roleDescription
}
TrafficManager "1" - -> "1..*" Ship : selects >
TrafficManager "1..*" -u-> "1" CompanyRoles : plays < 
Ship "1" - -> "1..*" Route : has >
Ship "1" -r-> "1" Characteristics: contains >
Ship "1" - -> "1" Identification: contains >
Route "1" - -> "1..*" ShipDynamic : contains >
Company"1" - -> "1..*" Ship : owns >
@enduml

PlantUML version 1.2021.13beta8(Unknown compile time)
(GPL source distribution)
Java Runtime: Java(TM) SE Runtime Environment
JVM: Java HotSpot(TM) 64-Bit Server VM
Default Encoding: UTF-8
Language: en
Country: US
--></g></svg>