<?xml version="1.0" encoding="UTF-8" standalone="no"?><svg xmlns="http://www.w3.org/2000/svg" xmlns:xlink="http://www.w3.org/1999/xlink" contentScriptType="application/ecmascript" contentStyleType="text/css" height="1235px" preserveAspectRatio="none" style="width:708px;height:1235px;background:#FFFFFF;" version="1.1" viewBox="0 0 708 1235" width="708px" zoomAndPan="magnify"><defs><filter height="300%" id="f1ipg6pbrk351a" width="300%" x="-1" y="-1"><feGaussianBlur result="blurOut" stdDeviation="2.0"/><feColorMatrix in="blurOut" result="blurOut2" type="matrix" values="0 0 0 0 0 0 0 0 0 0 0 0 0 0 0 0 0 0 .4 0"/><feOffset dx="4.0" dy="4.0" in="blurOut2" result="blurOut3"/><feBlend in="SourceGraphic" in2="blurOut3" mode="normal"/></filter></defs><g><!--MD5=[02e4b9b7573f1156f41e60aa5b4e25a4]
class Company--><rect codeLine="3" fill="#FEFECE" filter="url(#f1ipg6pbrk351a)" height="60.8047" id="Company" style="stroke:#A80036;stroke-width:1.5;" width="104" x="262.5" y="129"/><ellipse cx="284.7" cy="145" fill="#ADD1B2" rx="11" ry="11" style="stroke:#A80036;stroke-width:1.0;"/><path d="M287.0438,140.6719 C286.1063,140.2344 285.5125,140.0938 284.6375,140.0938 C282.0125,140.0938 280.0125,142.1719 280.0125,144.8906 L280.0125,146.0156 C280.0125,148.5938 282.1219,150.4844 285.0125,150.4844 C286.2313,150.4844 287.3875,150.1875 288.1375,149.6406 C288.7156,149.2344 289.0438,148.7813 289.0438,148.3906 C289.0438,147.9375 288.6531,147.5469 288.1844,147.5469 C287.9656,147.5469 287.7625,147.625 287.575,147.8125 C287.1219,148.2969 287.1219,148.2969 286.9344,148.3906 C286.5125,148.6563 285.825,148.7813 285.0594,148.7813 C283.0125,148.7813 281.7156,147.6875 281.7156,145.9844 L281.7156,144.8906 C281.7156,143.1094 282.9656,141.7969 284.7,141.7969 C285.2781,141.7969 285.8875,141.9531 286.3563,142.2031 C286.8406,142.4844 287.0125,142.7031 287.1063,143.1094 C287.1688,143.5156 287.2,143.6406 287.3406,143.7656 C287.4813,143.9063 287.7156,144.0156 287.9344,144.0156 C288.2,144.0156 288.4656,143.875 288.6375,143.6563 C288.7469,143.5 288.7781,143.3125 288.7781,142.8906 L288.7781,141.4688 C288.7781,141.0313 288.7625,140.9063 288.6688,140.75 C288.5125,140.4844 288.2313,140.3438 287.9344,140.3438 C287.6375,140.3438 287.4344,140.4375 287.2156,140.75 L287.0438,140.6719 Z " fill="#000000"/><text fill="#000000" font-family="sans-serif" font-size="12" lengthAdjust="spacing" textLength="56" x="300.3" y="149.1543">Company</text><line style="stroke:#A80036;stroke-width:1.5;" x1="263.5" x2="365.5" y1="161" y2="161"/><line style="stroke:#A80036;stroke-width:1.5;" x1="263.5" x2="365.5" y1="169" y2="169"/><text fill="#000000" font-family="sans-serif" font-size="11" lengthAdjust="spacing" textLength="92" x="268.5" y="183.2104">+getShipStore()</text><!--MD5=[0dc7f2ddb409b58bcf52b12238c25399]
class Ship--><rect codeLine="8" fill="#FEFECE" filter="url(#f1ipg6pbrk351a)" height="188.8516" id="Ship" style="stroke:#A80036;stroke-width:1.5;" width="214" x="207.5" y="427"/><ellipse cx="297.25" cy="443" fill="#ADD1B2" rx="11" ry="11" style="stroke:#A80036;stroke-width:1.0;"/><path d="M299.5938,438.6719 C298.6563,438.2344 298.0625,438.0938 297.1875,438.0938 C294.5625,438.0938 292.5625,440.1719 292.5625,442.8906 L292.5625,444.0156 C292.5625,446.5938 294.6719,448.4844 297.5625,448.4844 C298.7813,448.4844 299.9375,448.1875 300.6875,447.6406 C301.2656,447.2344 301.5938,446.7813 301.5938,446.3906 C301.5938,445.9375 301.2031,445.5469 300.7344,445.5469 C300.5156,445.5469 300.3125,445.625 300.125,445.8125 C299.6719,446.2969 299.6719,446.2969 299.4844,446.3906 C299.0625,446.6563 298.375,446.7813 297.6094,446.7813 C295.5625,446.7813 294.2656,445.6875 294.2656,443.9844 L294.2656,442.8906 C294.2656,441.1094 295.5156,439.7969 297.25,439.7969 C297.8281,439.7969 298.4375,439.9531 298.9063,440.2031 C299.3906,440.4844 299.5625,440.7031 299.6563,441.1094 C299.7188,441.5156 299.75,441.6406 299.8906,441.7656 C300.0313,441.9063 300.2656,442.0156 300.4844,442.0156 C300.75,442.0156 301.0156,441.875 301.1875,441.6563 C301.2969,441.5 301.3281,441.3125 301.3281,440.8906 L301.3281,439.4688 C301.3281,439.0313 301.3125,438.9063 301.2188,438.75 C301.0625,438.4844 300.7813,438.3438 300.4844,438.3438 C300.1875,438.3438 299.9844,438.4375 299.7656,438.75 L299.5938,438.6719 Z " fill="#000000"/><text fill="#000000" font-family="sans-serif" font-size="12" lengthAdjust="spacing" textLength="26" x="317.75" y="447.1543">Ship</text><line style="stroke:#A80036;stroke-width:1.5;" x1="208.5" x2="420.5" y1="459" y2="459"/><text fill="#000000" font-family="sans-serif" font-size="11" lengthAdjust="spacing" textLength="119" x="213.5" y="473.2104">-idShip: Identification</text><text fill="#000000" font-family="sans-serif" font-size="11" lengthAdjust="spacing" textLength="117" x="213.5" y="486.0151">-energy: ShipEnergy</text><text fill="#000000" font-family="sans-serif" font-size="11" lengthAdjust="spacing" textLength="200" x="213.5" y="498.8198">-characteristics: ShipCharacteristics</text><text fill="#000000" font-family="sans-serif" font-size="11" lengthAdjust="spacing" textLength="70" x="213.5" y="511.6245">-route:Route</text><line style="stroke:#A80036;stroke-width:1.5;" x1="208.5" x2="420.5" y1="518.2188" y2="518.2188"/><text fill="#000000" font-family="sans-serif" font-size="11" lengthAdjust="spacing" textLength="61" x="213.5" y="532.4292">+toString()</text><text fill="#000000" font-family="sans-serif" font-size="11" lengthAdjust="spacing" textLength="78" x="213.5" y="545.2339">+equals(ship)</text><text fill="#000000" font-family="sans-serif" font-size="11" lengthAdjust="spacing" textLength="104" x="213.5" y="558.0386">+compareTo(ship)</text><text fill="#000000" font-family="sans-serif" font-size="11" lengthAdjust="spacing" textLength="109" x="213.5" y="570.8433">+acessorMethods()</text><text fill="#000000" font-family="sans-serif" font-size="11" lengthAdjust="spacing" textLength="0" x="217.5" y="583.6479"/><text fill="#000000" font-family="sans-serif" font-size="11" lengthAdjust="spacing" textLength="202" x="213.5" y="596.4526">+Ship(idShip, characteristics, route)</text><text fill="#000000" font-family="sans-serif" font-size="11" lengthAdjust="spacing" textLength="26" x="213.5" y="609.2573">+...()</text><!--MD5=[ea2206eefe09474e90beb17e18e6b3d8]
class ShipStore--><rect codeLine="22" fill="#FEFECE" filter="url(#f1ipg6pbrk351a)" height="99.2188" id="ShipStore" style="stroke:#A80036;stroke-width:1.5;" width="282" x="173.5" y="251"/><ellipse cx="280.75" cy="267" fill="#ADD1B2" rx="11" ry="11" style="stroke:#A80036;stroke-width:1.0;"/><path d="M283.0938,262.6719 C282.1563,262.2344 281.5625,262.0938 280.6875,262.0938 C278.0625,262.0938 276.0625,264.1719 276.0625,266.8906 L276.0625,268.0156 C276.0625,270.5938 278.1719,272.4844 281.0625,272.4844 C282.2813,272.4844 283.4375,272.1875 284.1875,271.6406 C284.7656,271.2344 285.0938,270.7813 285.0938,270.3906 C285.0938,269.9375 284.7031,269.5469 284.2344,269.5469 C284.0156,269.5469 283.8125,269.625 283.625,269.8125 C283.1719,270.2969 283.1719,270.2969 282.9844,270.3906 C282.5625,270.6563 281.875,270.7813 281.1094,270.7813 C279.0625,270.7813 277.7656,269.6875 277.7656,267.9844 L277.7656,266.8906 C277.7656,265.1094 279.0156,263.7969 280.75,263.7969 C281.3281,263.7969 281.9375,263.9531 282.4063,264.2031 C282.8906,264.4844 283.0625,264.7031 283.1563,265.1094 C283.2188,265.5156 283.25,265.6406 283.3906,265.7656 C283.5313,265.9063 283.7656,266.0156 283.9844,266.0156 C284.25,266.0156 284.5156,265.875 284.6875,265.6563 C284.7969,265.5 284.8281,265.3125 284.8281,264.8906 L284.8281,263.4688 C284.8281,263.0313 284.8125,262.9063 284.7188,262.75 C284.5625,262.4844 284.2813,262.3438 283.9844,262.3438 C283.6875,262.3438 283.4844,262.4375 283.2656,262.75 L283.0938,262.6719 Z " fill="#000000"/><text fill="#000000" font-family="sans-serif" font-size="12" lengthAdjust="spacing" textLength="59" x="301.25" y="271.1543">ShipStore</text><line style="stroke:#A80036;stroke-width:1.5;" x1="174.5" x2="454.5" y1="283" y2="283"/><text fill="#000000" font-family="sans-serif" font-size="11" lengthAdjust="spacing" textLength="131" x="179.5" y="297.2104">-AVL &lt;Ship&gt; shipStore</text><line style="stroke:#A80036;stroke-width:1.5;" x1="174.5" x2="454.5" y1="303.8047" y2="303.8047"/><text fill="#000000" font-family="sans-serif" font-size="11" lengthAdjust="spacing" textLength="122" x="179.5" y="318.0151">+addShipToAVL(ship)</text><text fill="#000000" font-family="sans-serif" font-size="11" lengthAdjust="spacing" textLength="270" x="179.5" y="330.8198">+reorganizeShipAVLAccordingToTheCode(ship)</text><text fill="#000000" font-family="sans-serif" font-size="11" lengthAdjust="spacing" textLength="131" x="179.5" y="343.6245">+findShipDetails(code)</text><!--MD5=[9a305ff8ded9dfea1b145311e23eef54]
class ShipCharacteristics--><rect codeLine="29" fill="#FEFECE" filter="url(#f1ipg6pbrk351a)" height="150.4375" id="ShipCharacteristics" style="stroke:#A80036;stroke-width:1.5;" width="147" x="7" y="693"/><ellipse cx="22" cy="709" fill="#ADD1B2" rx="11" ry="11" style="stroke:#A80036;stroke-width:1.0;"/><path d="M24.3438,704.6719 C23.4063,704.2344 22.8125,704.0938 21.9375,704.0938 C19.3125,704.0938 17.3125,706.1719 17.3125,708.8906 L17.3125,710.0156 C17.3125,712.5938 19.4219,714.4844 22.3125,714.4844 C23.5313,714.4844 24.6875,714.1875 25.4375,713.6406 C26.0156,713.2344 26.3438,712.7813 26.3438,712.3906 C26.3438,711.9375 25.9531,711.5469 25.4844,711.5469 C25.2656,711.5469 25.0625,711.625 24.875,711.8125 C24.4219,712.2969 24.4219,712.2969 24.2344,712.3906 C23.8125,712.6563 23.125,712.7813 22.3594,712.7813 C20.3125,712.7813 19.0156,711.6875 19.0156,709.9844 L19.0156,708.8906 C19.0156,707.1094 20.2656,705.7969 22,705.7969 C22.5781,705.7969 23.1875,705.9531 23.6563,706.2031 C24.1406,706.4844 24.3125,706.7031 24.4063,707.1094 C24.4688,707.5156 24.5,707.6406 24.6406,707.7656 C24.7813,707.9063 25.0156,708.0156 25.2344,708.0156 C25.5,708.0156 25.7656,707.875 25.9375,707.6563 C26.0469,707.5 26.0781,707.3125 26.0781,706.8906 L26.0781,705.4688 C26.0781,705.0313 26.0625,704.9063 25.9688,704.75 C25.8125,704.4844 25.5313,704.3438 25.2344,704.3438 C24.9375,704.3438 24.7344,704.4375 24.5156,704.75 L24.3438,704.6719 Z " fill="#000000"/><text fill="#000000" font-family="sans-serif" font-size="12" lengthAdjust="spacing" textLength="115" x="36" y="713.1543">ShipCharacteristics</text><line style="stroke:#A80036;stroke-width:1.5;" x1="8" x2="153" y1="725" y2="725"/><text fill="#000000" font-family="sans-serif" font-size="11" lengthAdjust="spacing" textLength="92" x="13" y="739.2104">-vesselType: int</text><text fill="#000000" font-family="sans-serif" font-size="11" lengthAdjust="spacing" textLength="88" x="13" y="752.0151">-length: Double</text><text fill="#000000" font-family="sans-serif" font-size="11" lengthAdjust="spacing" textLength="82" x="13" y="764.8198">-width: Double</text><text fill="#000000" font-family="sans-serif" font-size="11" lengthAdjust="spacing" textLength="78" x="13" y="777.6245">-draft: Double</text><line style="stroke:#A80036;stroke-width:1.5;" x1="8" x2="153" y1="784.2188" y2="784.2188"/><text fill="#000000" font-family="sans-serif" font-size="11" lengthAdjust="spacing" textLength="61" x="13" y="798.4292">+toString()</text><text fill="#000000" font-family="sans-serif" font-size="11" lengthAdjust="spacing" textLength="78" x="13" y="811.2339">+equals(ship)</text><text fill="#000000" font-family="sans-serif" font-size="11" lengthAdjust="spacing" textLength="74" x="13" y="824.0386">+hashCode()</text><text fill="#000000" font-family="sans-serif" font-size="11" lengthAdjust="spacing" textLength="109" x="13" y="836.8433">+acessorMethods()</text><!--MD5=[9405696ed3e86fd0be987c002d055c8c]
class SeeShipDetailsTest--><rect codeLine="40" fill="#FEFECE" filter="url(#f1ipg6pbrk351a)" height="60.8047" id="SeeShipDetailsTest" style="stroke:#A80036;stroke-width:1.5;" width="149" x="240" y="7"/><ellipse cx="255" cy="23" fill="#ADD1B2" rx="11" ry="11" style="stroke:#A80036;stroke-width:1.0;"/><path d="M257.3438,18.6719 C256.4063,18.2344 255.8125,18.0938 254.9375,18.0938 C252.3125,18.0938 250.3125,20.1719 250.3125,22.8906 L250.3125,24.0156 C250.3125,26.5938 252.4219,28.4844 255.3125,28.4844 C256.5313,28.4844 257.6875,28.1875 258.4375,27.6406 C259.0156,27.2344 259.3438,26.7813 259.3438,26.3906 C259.3438,25.9375 258.9531,25.5469 258.4844,25.5469 C258.2656,25.5469 258.0625,25.625 257.875,25.8125 C257.4219,26.2969 257.4219,26.2969 257.2344,26.3906 C256.8125,26.6563 256.125,26.7813 255.3594,26.7813 C253.3125,26.7813 252.0156,25.6875 252.0156,23.9844 L252.0156,22.8906 C252.0156,21.1094 253.2656,19.7969 255,19.7969 C255.5781,19.7969 256.1875,19.9531 256.6563,20.2031 C257.1406,20.4844 257.3125,20.7031 257.4063,21.1094 C257.4688,21.5156 257.5,21.6406 257.6406,21.7656 C257.7813,21.9063 258.0156,22.0156 258.2344,22.0156 C258.5,22.0156 258.7656,21.875 258.9375,21.6563 C259.0469,21.5 259.0781,21.3125 259.0781,20.8906 L259.0781,19.4688 C259.0781,19.0313 259.0625,18.9063 258.9688,18.75 C258.8125,18.4844 258.5313,18.3438 258.2344,18.3438 C257.9375,18.3438 257.7344,18.4375 257.5156,18.75 L257.3438,18.6719 Z " fill="#000000"/><text fill="#000000" font-family="sans-serif" font-size="12" lengthAdjust="spacing" textLength="117" x="269" y="27.1543">SeeShipDetailsTest</text><line style="stroke:#A80036;stroke-width:1.5;" x1="241" x2="388" y1="39" y2="39"/><line style="stroke:#A80036;stroke-width:1.5;" x1="241" x2="388" y1="47" y2="47"/><text fill="#000000" font-family="sans-serif" font-size="11" lengthAdjust="spacing" textLength="134" x="246" y="61.2104">+getShipByCode(code)</text><!--MD5=[82dc263f563d227779ba81db65b2fd4d]
class Identification--><rect codeLine="44" fill="#FEFECE" filter="url(#f1ipg6pbrk351a)" height="137.6328" id="Identification" style="stroke:#A80036;stroke-width:1.5;" width="251" x="189" y="699"/><ellipse cx="272.25" cy="715" fill="#ADD1B2" rx="11" ry="11" style="stroke:#A80036;stroke-width:1.0;"/><path d="M274.5938,710.6719 C273.6563,710.2344 273.0625,710.0938 272.1875,710.0938 C269.5625,710.0938 267.5625,712.1719 267.5625,714.8906 L267.5625,716.0156 C267.5625,718.5938 269.6719,720.4844 272.5625,720.4844 C273.7813,720.4844 274.9375,720.1875 275.6875,719.6406 C276.2656,719.2344 276.5938,718.7813 276.5938,718.3906 C276.5938,717.9375 276.2031,717.5469 275.7344,717.5469 C275.5156,717.5469 275.3125,717.625 275.125,717.8125 C274.6719,718.2969 274.6719,718.2969 274.4844,718.3906 C274.0625,718.6563 273.375,718.7813 272.6094,718.7813 C270.5625,718.7813 269.2656,717.6875 269.2656,715.9844 L269.2656,714.8906 C269.2656,713.1094 270.5156,711.7969 272.25,711.7969 C272.8281,711.7969 273.4375,711.9531 273.9063,712.2031 C274.3906,712.4844 274.5625,712.7031 274.6563,713.1094 C274.7188,713.5156 274.75,713.6406 274.8906,713.7656 C275.0313,713.9063 275.2656,714.0156 275.4844,714.0156 C275.75,714.0156 276.0156,713.875 276.1875,713.6563 C276.2969,713.5 276.3281,713.3125 276.3281,712.8906 L276.3281,711.4688 C276.3281,711.0313 276.3125,710.9063 276.2188,710.75 C276.0625,710.4844 275.7813,710.3438 275.4844,710.3438 C275.1875,710.3438 274.9844,710.4375 274.7656,710.75 L274.5938,710.6719 Z " fill="#000000"/><text fill="#000000" font-family="sans-serif" font-size="12" lengthAdjust="spacing" textLength="76" x="292.75" y="719.1543">Identification</text><line style="stroke:#A80036;stroke-width:1.5;" x1="190" x2="439" y1="731" y2="731"/><text fill="#000000" font-family="sans-serif" font-size="11" lengthAdjust="spacing" textLength="75" x="195" y="745.2104">-mmsi: String</text><text fill="#000000" font-family="sans-serif" font-size="11" lengthAdjust="spacing" textLength="101" x="195" y="758.0151">-shipName: String</text><text fill="#000000" font-family="sans-serif" font-size="11" lengthAdjust="spacing" textLength="77" x="195" y="770.8198">-imoID: String</text><line style="stroke:#A80036;stroke-width:1.5;" x1="190" x2="439" y1="777.4141" y2="777.4141"/><text fill="#000000" font-family="sans-serif" font-size="11" lengthAdjust="spacing" textLength="61" x="195" y="791.6245">+toString()</text><text fill="#000000" font-family="sans-serif" font-size="11" lengthAdjust="spacing" textLength="78" x="195" y="804.4292">+equals(ship)</text><text fill="#000000" font-family="sans-serif" font-size="11" lengthAdjust="spacing" textLength="239" x="195" y="817.2339">+returnCodeAccordingToTheFormat(code)</text><text fill="#000000" font-family="sans-serif" font-size="11" lengthAdjust="spacing" textLength="109" x="195" y="830.0386">+acessorMethods()</text><!--MD5=[fc92a9f5bb5fae84dd7fa4034e6b4444]
class Route--><rect codeLine="54" fill="#FEFECE" filter="url(#f1ipg6pbrk351a)" height="86.4141" id="Route" style="stroke:#A80036;stroke-width:1.5;" width="161" x="475" y="725"/><ellipse cx="534.25" cy="741" fill="#ADD1B2" rx="11" ry="11" style="stroke:#A80036;stroke-width:1.0;"/><path d="M536.5938,736.6719 C535.6563,736.2344 535.0625,736.0938 534.1875,736.0938 C531.5625,736.0938 529.5625,738.1719 529.5625,740.8906 L529.5625,742.0156 C529.5625,744.5938 531.6719,746.4844 534.5625,746.4844 C535.7813,746.4844 536.9375,746.1875 537.6875,745.6406 C538.2656,745.2344 538.5938,744.7813 538.5938,744.3906 C538.5938,743.9375 538.2031,743.5469 537.7344,743.5469 C537.5156,743.5469 537.3125,743.625 537.125,743.8125 C536.6719,744.2969 536.6719,744.2969 536.4844,744.3906 C536.0625,744.6563 535.375,744.7813 534.6094,744.7813 C532.5625,744.7813 531.2656,743.6875 531.2656,741.9844 L531.2656,740.8906 C531.2656,739.1094 532.5156,737.7969 534.25,737.7969 C534.8281,737.7969 535.4375,737.9531 535.9063,738.2031 C536.3906,738.4844 536.5625,738.7031 536.6563,739.1094 C536.7188,739.5156 536.75,739.6406 536.8906,739.7656 C537.0313,739.9063 537.2656,740.0156 537.4844,740.0156 C537.75,740.0156 538.0156,739.875 538.1875,739.6563 C538.2969,739.5 538.3281,739.3125 538.3281,738.8906 L538.3281,737.4688 C538.3281,737.0313 538.3125,736.9063 538.2188,736.75 C538.0625,736.4844 537.7813,736.3438 537.4844,736.3438 C537.1875,736.3438 536.9844,736.4375 536.7656,736.75 L536.5938,736.6719 Z " fill="#000000"/><text fill="#000000" font-family="sans-serif" font-size="12" lengthAdjust="spacing" textLength="34" x="554.75" y="745.1543">Route</text><line style="stroke:#A80036;stroke-width:1.5;" x1="476" x2="635" y1="757" y2="757"/><text fill="#000000" font-family="sans-serif" font-size="11" lengthAdjust="spacing" textLength="149" x="481" y="771.2104">-route:List&lt;ShipDynamic&gt;</text><line style="stroke:#A80036;stroke-width:1.5;" x1="476" x2="635" y1="777.8047" y2="777.8047"/><text fill="#000000" font-family="sans-serif" font-size="11" lengthAdjust="spacing" textLength="111" x="481" y="792.0151">+getShipDynamic()</text><text fill="#000000" font-family="sans-serif" font-size="11" lengthAdjust="spacing" textLength="109" x="481" y="804.8198">+acessorMethods()</text><!--MD5=[19c2b9eb46691e25b02426140995a460]
class ShipDynamic--><rect codeLine="60" fill="#FEFECE" filter="url(#f1ipg6pbrk351a)" height="112.0234" id="ShipDynamic" style="stroke:#A80036;stroke-width:1.5;" width="146" x="482.5" y="920"/><ellipse cx="514.15" cy="936" fill="#ADD1B2" rx="11" ry="11" style="stroke:#A80036;stroke-width:1.0;"/><path d="M516.4938,931.6719 C515.5563,931.2344 514.9625,931.0938 514.0875,931.0938 C511.4625,931.0938 509.4625,933.1719 509.4625,935.8906 L509.4625,937.0156 C509.4625,939.5938 511.5719,941.4844 514.4625,941.4844 C515.6813,941.4844 516.8375,941.1875 517.5875,940.6406 C518.1656,940.2344 518.4938,939.7813 518.4938,939.3906 C518.4938,938.9375 518.1031,938.5469 517.6344,938.5469 C517.4156,938.5469 517.2125,938.625 517.025,938.8125 C516.5719,939.2969 516.5719,939.2969 516.3844,939.3906 C515.9625,939.6563 515.275,939.7813 514.5094,939.7813 C512.4625,939.7813 511.1656,938.6875 511.1656,936.9844 L511.1656,935.8906 C511.1656,934.1094 512.4156,932.7969 514.15,932.7969 C514.7281,932.7969 515.3375,932.9531 515.8063,933.2031 C516.2906,933.4844 516.4625,933.7031 516.5563,934.1094 C516.6188,934.5156 516.65,934.6406 516.7906,934.7656 C516.9313,934.9063 517.1656,935.0156 517.3844,935.0156 C517.65,935.0156 517.9156,934.875 518.0875,934.6563 C518.1969,934.5 518.2281,934.3125 518.2281,933.8906 L518.2281,932.4688 C518.2281,932.0313 518.2125,931.9063 518.1188,931.75 C517.9625,931.4844 517.6813,931.3438 517.3844,931.3438 C517.0875,931.3438 516.8844,931.4375 516.6656,931.75 L516.4938,931.6719 Z " fill="#000000"/><text fill="#000000" font-family="sans-serif" font-size="12" lengthAdjust="spacing" textLength="77" x="531.85" y="940.1543">ShipDynamic</text><line style="stroke:#A80036;stroke-width:1.5;" x1="483.5" x2="627.5" y1="952" y2="952"/><text fill="#000000" font-family="sans-serif" font-size="11" lengthAdjust="spacing" textLength="125" x="488.5" y="966.2104">-baseDateTime:String</text><text fill="#000000" font-family="sans-serif" font-size="11" lengthAdjust="spacing" textLength="98" x="488.5" y="979.0151">-location:Location</text><text fill="#000000" font-family="sans-serif" font-size="11" lengthAdjust="spacing" textLength="131" x="488.5" y="991.8198">-movement:Movement</text><text fill="#000000" font-family="sans-serif" font-size="11" lengthAdjust="spacing" textLength="71" x="488.5" y="1004.6245">-cargo:String</text><text fill="#000000" font-family="sans-serif" font-size="11" lengthAdjust="spacing" textLength="134" x="488.5" y="1017.4292">-transceiverClass:String</text><line style="stroke:#A80036;stroke-width:1.5;" x1="483.5" x2="627.5" y1="1024.0234" y2="1024.0234"/><!--MD5=[4f1f3706c1a355a8488e154afcaed5df]
class Location--><rect codeLine="69" fill="#FEFECE" filter="url(#f1ipg6pbrk351a)" height="86.4141" id="Location" style="stroke:#A80036;stroke-width:1.5;" width="121" x="417" y="1122"/><ellipse cx="449.55" cy="1138" fill="#ADD1B2" rx="11" ry="11" style="stroke:#A80036;stroke-width:1.0;"/><path d="M451.8938,1133.6719 C450.9563,1133.2344 450.3625,1133.0938 449.4875,1133.0938 C446.8625,1133.0938 444.8625,1135.1719 444.8625,1137.8906 L444.8625,1139.0156 C444.8625,1141.5938 446.9719,1143.4844 449.8625,1143.4844 C451.0813,1143.4844 452.2375,1143.1875 452.9875,1142.6406 C453.5656,1142.2344 453.8938,1141.7813 453.8938,1141.3906 C453.8938,1140.9375 453.5031,1140.5469 453.0344,1140.5469 C452.8156,1140.5469 452.6125,1140.625 452.425,1140.8125 C451.9719,1141.2969 451.9719,1141.2969 451.7844,1141.3906 C451.3625,1141.6563 450.675,1141.7813 449.9094,1141.7813 C447.8625,1141.7813 446.5656,1140.6875 446.5656,1138.9844 L446.5656,1137.8906 C446.5656,1136.1094 447.8156,1134.7969 449.55,1134.7969 C450.1281,1134.7969 450.7375,1134.9531 451.2063,1135.2031 C451.6906,1135.4844 451.8625,1135.7031 451.9563,1136.1094 C452.0188,1136.5156 452.05,1136.6406 452.1906,1136.7656 C452.3313,1136.9063 452.5656,1137.0156 452.7844,1137.0156 C453.05,1137.0156 453.3156,1136.875 453.4875,1136.6563 C453.5969,1136.5 453.6281,1136.3125 453.6281,1135.8906 L453.6281,1134.4688 C453.6281,1134.0313 453.6125,1133.9063 453.5188,1133.75 C453.3625,1133.4844 453.0813,1133.3438 452.7844,1133.3438 C452.4875,1133.3438 452.2844,1133.4375 452.0656,1133.75 L451.8938,1133.6719 Z " fill="#000000"/><text fill="#000000" font-family="sans-serif" font-size="12" lengthAdjust="spacing" textLength="50" x="467.45" y="1142.1543">Location</text><line style="stroke:#A80036;stroke-width:1.5;" x1="418" x2="537" y1="1154" y2="1154"/><text fill="#000000" font-family="sans-serif" font-size="11" lengthAdjust="spacing" textLength="101" x="423" y="1168.2104">-longitude:Double</text><text fill="#000000" font-family="sans-serif" font-size="11" lengthAdjust="spacing" textLength="91" x="423" y="1181.0151">-latitude:Double</text><line style="stroke:#A80036;stroke-width:1.5;" x1="418" x2="537" y1="1187.6094" y2="1187.6094"/><text fill="#000000" font-family="sans-serif" font-size="11" lengthAdjust="spacing" textLength="109" x="423" y="1201.8198">+acessorMethods()</text><!--MD5=[bc87bf052131b9ca3b54b8ba84b5b110]
class Movement--><rect codeLine="75" fill="#FEFECE" filter="url(#f1ipg6pbrk351a)" height="112.0234" id="Movement" style="stroke:#A80036;stroke-width:1.5;" width="121" x="573" y="1109"/><ellipse cx="599.7" cy="1125" fill="#ADD1B2" rx="11" ry="11" style="stroke:#A80036;stroke-width:1.0;"/><path d="M602.0438,1120.6719 C601.1063,1120.2344 600.5125,1120.0938 599.6375,1120.0938 C597.0125,1120.0938 595.0125,1122.1719 595.0125,1124.8906 L595.0125,1126.0156 C595.0125,1128.5938 597.1219,1130.4844 600.0125,1130.4844 C601.2313,1130.4844 602.3875,1130.1875 603.1375,1129.6406 C603.7156,1129.2344 604.0438,1128.7813 604.0438,1128.3906 C604.0438,1127.9375 603.6531,1127.5469 603.1844,1127.5469 C602.9656,1127.5469 602.7625,1127.625 602.575,1127.8125 C602.1219,1128.2969 602.1219,1128.2969 601.9344,1128.3906 C601.5125,1128.6563 600.825,1128.7813 600.0594,1128.7813 C598.0125,1128.7813 596.7156,1127.6875 596.7156,1125.9844 L596.7156,1124.8906 C596.7156,1123.1094 597.9656,1121.7969 599.7,1121.7969 C600.2781,1121.7969 600.8875,1121.9531 601.3563,1122.2031 C601.8406,1122.4844 602.0125,1122.7031 602.1063,1123.1094 C602.1688,1123.5156 602.2,1123.6406 602.3406,1123.7656 C602.4813,1123.9063 602.7156,1124.0156 602.9344,1124.0156 C603.2,1124.0156 603.4656,1123.875 603.6375,1123.6563 C603.7469,1123.5 603.7781,1123.3125 603.7781,1122.8906 L603.7781,1121.4688 C603.7781,1121.0313 603.7625,1120.9063 603.6688,1120.75 C603.5125,1120.4844 603.2313,1120.3438 602.9344,1120.3438 C602.6375,1120.3438 602.4344,1120.4375 602.2156,1120.75 L602.0438,1120.6719 Z " fill="#000000"/><text fill="#000000" font-family="sans-serif" font-size="12" lengthAdjust="spacing" textLength="63" x="616.3" y="1129.1543">Movement</text><line style="stroke:#A80036;stroke-width:1.5;" x1="574" x2="693" y1="1141" y2="1141"/><text fill="#000000" font-family="sans-serif" font-size="11" lengthAdjust="spacing" textLength="66" x="579" y="1155.2104">-sog:double</text><text fill="#000000" font-family="sans-serif" font-size="11" lengthAdjust="spacing" textLength="66" x="579" y="1168.0151">-cog:double</text><text fill="#000000" font-family="sans-serif" font-size="11" lengthAdjust="spacing" textLength="92" x="579" y="1180.8198">-heading:double</text><line style="stroke:#A80036;stroke-width:1.5;" x1="574" x2="693" y1="1187.4141" y2="1187.4141"/><text fill="#000000" font-family="sans-serif" font-size="11" lengthAdjust="spacing" textLength="109" x="579" y="1201.6245">+acessorMethods()</text><text fill="#000000" font-family="sans-serif" font-size="11" lengthAdjust="spacing" textLength="61" x="579" y="1214.4292">+toString()</text><!--MD5=[3fab4dc70411c03b435107cc6d893fd7]
link SeeShipDetailsTest to Company--><path codeLine="83" d="M314.5,68.16 C314.5,84.89 314.5,105.9 314.5,123.44 " fill="none" id="SeeShipDetailsTest-to-Company" style="stroke:#A80036;stroke-width:1.0;stroke-dasharray:7.0,7.0;"/><polygon fill="#A80036" points="314.5,128.76,318.5,119.76,314.5,123.76,310.5,119.76,314.5,128.76" style="stroke:#A80036;stroke-width:1.0;"/><!--MD5=[6b4a94d80660e97c6833bde801bd4c89]
link Company to ShipStore--><path codeLine="84" d="M314.5,190.32 C314.5,206.43 314.5,226.828 314.5,245.617 " fill="none" id="Company-to-ShipStore" style="stroke:#A80036;stroke-width:1.0;"/><polygon fill="#A80036" points="314.5,250.869,318.5,241.869,314.5,245.869,310.5,241.869,314.5,250.869" style="stroke:#A80036;stroke-width:1.0;"/><text fill="#000000" font-family="sans-serif" font-size="13" lengthAdjust="spacing" textLength="8" x="305.7125" y="209.9634">1</text><text fill="#000000" font-family="sans-serif" font-size="13" lengthAdjust="spacing" textLength="8" x="305.9375" y="239.8958">1</text><!--MD5=[f04e04ecc6998d67821b33eb17256457]
link ShipStore to Ship--><path codeLine="85" d="M314.5,350.103 C314.5,371.162 314.5,396.626 314.5,421.377 " fill="none" id="ShipStore-to-Ship" style="stroke:#A80036;stroke-width:1.0;"/><polygon fill="#A80036" points="314.5,426.646,318.5,417.646,314.5,421.646,310.5,417.646,314.5,426.646" style="stroke:#A80036;stroke-width:1.0;"/><text fill="#000000" font-family="sans-serif" font-size="13" lengthAdjust="spacing" textLength="54" x="315.5" y="393.0669">contains</text><text fill="#000000" font-family="sans-serif" font-size="13" lengthAdjust="spacing" textLength="8" x="305.9375" y="370.194">1</text><text fill="#000000" font-family="sans-serif" font-size="13" lengthAdjust="spacing" textLength="23" x="290.6195" y="415.8872">0..*</text><!--MD5=[b548f9cab810c886ef8d517236ce8553]
link Ship to Identification--><path codeLine="86" d="M314.5,616.331 C314.5,641.979 314.5,669.394 314.5,693.712 " fill="none" id="Ship-to-Identification" style="stroke:#A80036;stroke-width:1.0;"/><polygon fill="#A80036" points="314.5,698.853,318.5,689.853,314.5,693.853,310.5,689.853,314.5,698.853" style="stroke:#A80036;stroke-width:1.0;"/><text fill="#000000" font-family="sans-serif" font-size="13" lengthAdjust="spacing" textLength="54" x="315.5" y="659.0669">contains</text><text fill="#000000" font-family="sans-serif" font-size="13" lengthAdjust="spacing" textLength="8" x="306.2063" y="635.9232">1</text><text fill="#000000" font-family="sans-serif" font-size="13" lengthAdjust="spacing" textLength="24" x="289.2625" y="688.0415">0..1</text><!--MD5=[cea53bfc3a0979f95c62d6169ab9fc2e]
link Ship to ShipCharacteristics--><path codeLine="87" d="M224.699,616.331 C201.699,640.363 177.214,665.946 155.074,689.08 " fill="none" id="Ship-to-ShipCharacteristics" style="stroke:#A80036;stroke-width:1.0;"/><polygon fill="#A80036" points="151.541,692.771,160.6533,689.0339,154.9978,689.1585,154.8733,683.503,151.541,692.771" style="stroke:#A80036;stroke-width:1.0;"/><text fill="#000000" font-family="sans-serif" font-size="13" lengthAdjust="spacing" textLength="23" x="191.5" y="659.0669">has</text><text fill="#000000" font-family="sans-serif" font-size="13" lengthAdjust="spacing" textLength="8" x="209.8105" y="635.9232">1</text><text fill="#000000" font-family="sans-serif" font-size="13" lengthAdjust="spacing" textLength="24" x="133.1683" y="681.9383">0..1</text><!--MD5=[bd668f20969913e971975f69d50ab766]
link Ship to Route--><path codeLine="88" d="M406.988,616.331 C442.304,652.16 481.019,691.437 510.064,720.904 " fill="none" id="Ship-to-Route" style="stroke:#A80036;stroke-width:1.0;"/><polygon fill="#A80036" points="513.916,724.812,510.4474,715.5941,510.4063,721.2508,504.7496,721.2097,513.916,724.812" style="stroke:#A80036;stroke-width:1.0;"/><text fill="#000000" font-family="sans-serif" font-size="13" lengthAdjust="spacing" textLength="23" x="450.5" y="659.0669">has</text><text fill="#000000" font-family="sans-serif" font-size="13" lengthAdjust="spacing" textLength="8" x="405.4863" y="635.9232">1</text><text fill="#000000" font-family="sans-serif" font-size="13" lengthAdjust="spacing" textLength="24" x="481.3761" y="713.7781">0..1</text><!--MD5=[6e2bf1b581922c3b45ac635d439704bd]
link Route to ShipDynamic--><path codeLine="89" d="M555.5,811.184 C555.5,841.017 555.5,881.455 555.5,914.688 " fill="none" id="Route-to-ShipDynamic" style="stroke:#A80036;stroke-width:1.0;"/><polygon fill="#A80036" points="555.5,919.958,559.5,910.958,555.5,914.958,551.5,910.958,555.5,919.958" style="stroke:#A80036;stroke-width:1.0;"/><text fill="#000000" font-family="sans-serif" font-size="13" lengthAdjust="spacing" textLength="23" x="556.5" y="886.0669">has</text><text fill="#000000" font-family="sans-serif" font-size="13" lengthAdjust="spacing" textLength="8" x="546.8375" y="831.6221">1</text><text fill="#000000" font-family="sans-serif" font-size="13" lengthAdjust="spacing" textLength="23" x="531.0266" y="908.8906">1..*</text><!--MD5=[102e3fac0a0a520441e1279ebffdb2d7]
link ShipDynamic to Movement--><path codeLine="90" d="M578.481,1032.095 C587.92,1054.725 598.875,1080.989 608.513,1104.096 " fill="none" id="ShipDynamic-to-Movement" style="stroke:#A80036;stroke-width:1.0;"/><polygon fill="#A80036" points="610.549,1108.976,610.7767,1099.1298,608.6245,1104.3612,603.3931,1102.209,610.549,1108.976" style="stroke:#A80036;stroke-width:1.0;"/><text fill="#000000" font-family="sans-serif" font-size="13" lengthAdjust="spacing" textLength="54" x="598.5" y="1075.0669">contains</text><text fill="#000000" font-family="sans-serif" font-size="13" lengthAdjust="spacing" textLength="8" x="572.7943" y="1051.9192">1</text><text fill="#000000" font-family="sans-serif" font-size="13" lengthAdjust="spacing" textLength="24" x="582.0709" y="1097.9109">0..1</text><!--MD5=[4d937afab56fe47d5138ea5de0414cd5]
link ShipDynamic to Location--><path codeLine="91" d="M532.519,1032.095 C521.266,1059.073 507.86,1091.215 497.098,1117.016 " fill="none" id="ShipDynamic-to-Location" style="stroke:#A80036;stroke-width:1.0;"/><polygon fill="#A80036" points="495.12,1121.7566,502.2777,1114.9915,497.0457,1117.1423,494.8949,1111.9103,495.12,1121.7566" style="stroke:#A80036;stroke-width:1.0;"/><text fill="#000000" font-family="sans-serif" font-size="13" lengthAdjust="spacing" textLength="54" x="520.5" y="1075.0669">contains</text><text fill="#000000" font-family="sans-serif" font-size="13" lengthAdjust="spacing" textLength="8" x="521.2307" y="1051.9192">1</text><text fill="#000000" font-family="sans-serif" font-size="13" lengthAdjust="spacing" textLength="24" x="471.9806" y="1111.0323">0..1</text><!--MD5=[a92cc7eb76b9a3f87e61f3e7c8c6d9b1]
@startuml
skinparam classAttributeIconSize 0

class "Company"{
+getShipStore()
}


class "Ship"{
-idShip: Identification
-energy: ShipEnergy
-characteristics: ShipCharacteristics
-route:Route
+toString()
+equals(ship)
+compareTo(ship)
+acessorMethods()

+Ship(idShip, characteristics, route)
+...()
}

class "ShipStore"{
   -AVL <Ship> shipStore
   +addShipToAVL(ship)
   +reorganizeShipAVLAccordingToTheCode(ship)
   +findShipDetails(code)
}

class "ShipCharacteristics" {
- vesselType: int
- length: Double
- width: Double
- draft: Double
+toString()
+equals(ship)
+hashCode()
+acessorMethods()
}

class "SeeShipDetailsTest"{
+getShipByCode(code)
}

class "Identification"{
-mmsi: String
-shipName: String
-imoID: String
+toString()
+equals(ship)
+returnCodeAccordingToTheFormat(code)
+acessorMethods()
}

class "Route" {
-route:List<ShipDynamic>
+getShipDynamic()
+acessorMethods()
}

class "ShipDynamic" {
-baseDateTime:String
-location:Location
-movement:Movement
-cargo:String
-transceiverClass:String

}

class "Location" {
-longitude:Double
-latitude:Double
+acessorMethods()
}

class "Movement" {
-sog:double
-cog:double
-heading:double
+acessorMethods()
+toString()
}

SeeShipDetailsTest..>Company
Company"1"- ->"1"ShipStore
ShipStore "1"  - -> "0..*" Ship: contains
Ship"1"  - -> "0..1" Identification: contains
Ship"1"  - -> "0..1" ShipCharacteristics : has
Ship"1"  - -> "0..1" Route: has
Route"1"  - -> "1..*" ShipDynamic: has
ShipDynamic"1"  - -> "0..1" Movement: contains
ShipDynamic"1"  - -> "0..1" Location: contains
@enduml

PlantUML version 1.2021.14(Fri Nov 12 16:46:50 UTC 2021)
(GPL source distribution)
Java Runtime: Java(TM) SE Runtime Environment
JVM: Java HotSpot(TM) 64-Bit Server VM
Default Encoding: UTF-8
Language: en
Country: US
--></g></svg>