<?xml version="1.0" encoding="UTF-8" standalone="no"?><svg xmlns="http://www.w3.org/2000/svg" xmlns:xlink="http://www.w3.org/1999/xlink" contentScriptType="application/ecmascript" contentStyleType="text/css" height="328px" preserveAspectRatio="none" style="width:1089px;height:328px;background:#FFFFFF;" version="1.1" viewBox="0 0 1089 328" width="1089px" zoomAndPan="magnify"><defs><filter height="300%" id="f1b86unfqhby28" width="300%" x="-1" y="-1"><feGaussianBlur result="blurOut" stdDeviation="2.0"/><feColorMatrix in="blurOut" result="blurOut2" type="matrix" values="0 0 0 0 0 0 0 0 0 0 0 0 0 0 0 0 0 0 .4 0"/><feOffset dx="4.0" dy="4.0" in="blurOut2" result="blurOut3"/><feBlend in="SourceGraphic" in2="blurOut3" mode="normal"/></filter></defs><g><!--MD5=[0dc7f2ddb409b58bcf52b12238c25399]
class Ship--><rect codeLine="3" fill="#FEFECE" filter="url(#f1b86unfqhby28)" height="86.4141" id="Ship" style="stroke:#A80036;stroke-width:1.5;" width="99" x="489" y="64"/><ellipse cx="522.45" cy="80" fill="#ADD1B2" rx="11" ry="11" style="stroke:#A80036;stroke-width:1.0;"/><path d="M524.7938,75.6719 C523.8563,75.2344 523.2625,75.0938 522.3875,75.0938 C519.7625,75.0938 517.7625,77.1719 517.7625,79.8906 L517.7625,81.0156 C517.7625,83.5938 519.8719,85.4844 522.7625,85.4844 C523.9813,85.4844 525.1375,85.1875 525.8875,84.6406 C526.4656,84.2344 526.7938,83.7813 526.7938,83.3906 C526.7938,82.9375 526.4031,82.5469 525.9344,82.5469 C525.7156,82.5469 525.5125,82.625 525.325,82.8125 C524.8719,83.2969 524.8719,83.2969 524.6844,83.3906 C524.2625,83.6563 523.575,83.7813 522.8094,83.7813 C520.7625,83.7813 519.4656,82.6875 519.4656,80.9844 L519.4656,79.8906 C519.4656,78.1094 520.7156,76.7969 522.45,76.7969 C523.0281,76.7969 523.6375,76.9531 524.1063,77.2031 C524.5906,77.4844 524.7625,77.7031 524.8563,78.1094 C524.9188,78.5156 524.95,78.6406 525.0906,78.7656 C525.2313,78.9063 525.4656,79.0156 525.6844,79.0156 C525.95,79.0156 526.2156,78.875 526.3875,78.6563 C526.4969,78.5 526.5281,78.3125 526.5281,77.8906 L526.5281,76.4688 C526.5281,76.0313 526.5125,75.9063 526.4188,75.75 C526.2625,75.4844 525.9813,75.3438 525.6844,75.3438 C525.3875,75.3438 525.1844,75.4375 524.9656,75.75 L524.7938,75.6719 Z " fill="#000000"/><text fill="#000000" font-family="sans-serif" font-size="12" lengthAdjust="spacing" textLength="26" x="540.55" y="84.1543">Ship</text><line style="stroke:#A80036;stroke-width:1.5;" x1="490" x2="587" y1="96" y2="96"/><text fill="#000000" font-family="sans-serif" font-size="11" lengthAdjust="spacing" textLength="77" x="495" y="110.2104">-Identification</text><text fill="#000000" font-family="sans-serif" font-size="11" lengthAdjust="spacing" textLength="87" x="495" y="123.0151">-Characteristics</text><text fill="#000000" font-family="sans-serif" font-size="11" lengthAdjust="spacing" textLength="37" x="495" y="135.8198">-Route</text><line style="stroke:#A80036;stroke-width:1.5;" x1="490" x2="587" y1="142.4141" y2="142.4141"/><!--MD5=[ddaf6f62b0bc30921877ec9fb9463c9f]
class TrafficManager--><rect codeLine="9" fill="#FEFECE" filter="url(#f1b86unfqhby28)" height="73.6094" id="TrafficManager" style="stroke:#A80036;stroke-width:1.5;" width="121" x="237" y="7"/><ellipse cx="252" cy="23" fill="#ADD1B2" rx="11" ry="11" style="stroke:#A80036;stroke-width:1.0;"/><path d="M254.3438,18.6719 C253.4063,18.2344 252.8125,18.0938 251.9375,18.0938 C249.3125,18.0938 247.3125,20.1719 247.3125,22.8906 L247.3125,24.0156 C247.3125,26.5938 249.4219,28.4844 252.3125,28.4844 C253.5313,28.4844 254.6875,28.1875 255.4375,27.6406 C256.0156,27.2344 256.3438,26.7813 256.3438,26.3906 C256.3438,25.9375 255.9531,25.5469 255.4844,25.5469 C255.2656,25.5469 255.0625,25.625 254.875,25.8125 C254.4219,26.2969 254.4219,26.2969 254.2344,26.3906 C253.8125,26.6563 253.125,26.7813 252.3594,26.7813 C250.3125,26.7813 249.0156,25.6875 249.0156,23.9844 L249.0156,22.8906 C249.0156,21.1094 250.2656,19.7969 252,19.7969 C252.5781,19.7969 253.1875,19.9531 253.6563,20.2031 C254.1406,20.4844 254.3125,20.7031 254.4063,21.1094 C254.4688,21.5156 254.5,21.6406 254.6406,21.7656 C254.7813,21.9063 255.0156,22.0156 255.2344,22.0156 C255.5,22.0156 255.7656,21.875 255.9375,21.6563 C256.0469,21.5 256.0781,21.3125 256.0781,20.8906 L256.0781,19.4688 C256.0781,19.0313 256.0625,18.9063 255.9688,18.75 C255.8125,18.4844 255.5313,18.3438 255.2344,18.3438 C254.9375,18.3438 254.7344,18.4375 254.5156,18.75 L254.3438,18.6719 Z " fill="#000000"/><text fill="#000000" font-family="sans-serif" font-size="12" lengthAdjust="spacing" textLength="89" x="266" y="27.1543">TrafficManager</text><line style="stroke:#A80036;stroke-width:1.5;" x1="238" x2="357" y1="39" y2="39"/><text fill="#000000" font-family="sans-serif" font-size="11" lengthAdjust="spacing" textLength="41" x="243" y="53.2104">-userID</text><text fill="#000000" font-family="sans-serif" font-size="11" lengthAdjust="spacing" textLength="37" x="243" y="66.0151">-name</text><line style="stroke:#A80036;stroke-width:1.5;" x1="238" x2="357" y1="72.6094" y2="72.6094"/><!--MD5=[19c2b9eb46691e25b02426140995a460]
class ShipDynamic--><rect codeLine="16" fill="#FEFECE" filter="url(#f1b86unfqhby28)" height="150.4375" id="ShipDynamic" style="stroke:#A80036;stroke-width:1.5;" width="110" x="965" y="118"/><ellipse cx="980.45" cy="134" fill="#ADD1B2" rx="11" ry="11" style="stroke:#A80036;stroke-width:1.0;"/><path d="M982.7938,129.6719 C981.8563,129.2344 981.2625,129.0938 980.3875,129.0938 C977.7625,129.0938 975.7625,131.1719 975.7625,133.8906 L975.7625,135.0156 C975.7625,137.5938 977.8719,139.4844 980.7625,139.4844 C981.9813,139.4844 983.1375,139.1875 983.8875,138.6406 C984.4656,138.2344 984.7938,137.7813 984.7938,137.3906 C984.7938,136.9375 984.4031,136.5469 983.9344,136.5469 C983.7156,136.5469 983.5125,136.625 983.325,136.8125 C982.8719,137.2969 982.8719,137.2969 982.6844,137.3906 C982.2625,137.6563 981.575,137.7813 980.8094,137.7813 C978.7625,137.7813 977.4656,136.6875 977.4656,134.9844 L977.4656,133.8906 C977.4656,132.1094 978.7156,130.7969 980.45,130.7969 C981.0281,130.7969 981.6375,130.9531 982.1063,131.2031 C982.5906,131.4844 982.7625,131.7031 982.8563,132.1094 C982.9188,132.5156 982.95,132.6406 983.0906,132.7656 C983.2313,132.9063 983.4656,133.0156 983.6844,133.0156 C983.95,133.0156 984.2156,132.875 984.3875,132.6563 C984.4969,132.5 984.5281,132.3125 984.5281,131.8906 L984.5281,130.4688 C984.5281,130.0313 984.5125,129.9063 984.4188,129.75 C984.2625,129.4844 983.9813,129.3438 983.6844,129.3438 C983.3875,129.3438 983.1844,129.4375 982.9656,129.75 L982.7938,129.6719 Z " fill="#000000"/><text fill="#000000" font-family="sans-serif" font-size="12" lengthAdjust="spacing" textLength="77" x="994.55" y="138.1543">ShipDynamic</text><line style="stroke:#A80036;stroke-width:1.5;" x1="966" x2="1074" y1="150" y2="150"/><text fill="#000000" font-family="sans-serif" font-size="11" lengthAdjust="spacing" textLength="89" x="971" y="164.2104">-baseDateTime</text><text fill="#000000" font-family="sans-serif" font-size="11" lengthAdjust="spacing" textLength="47" x="971" y="177.0151">-latitude</text><text fill="#000000" font-family="sans-serif" font-size="11" lengthAdjust="spacing" textLength="57" x="971" y="189.8198">-longitude</text><text fill="#000000" font-family="sans-serif" font-size="11" lengthAdjust="spacing" textLength="30" x="971" y="202.6245">-SOG</text><text fill="#000000" font-family="sans-serif" font-size="11" lengthAdjust="spacing" textLength="30" x="971" y="215.4292">-COG</text><text fill="#000000" font-family="sans-serif" font-size="11" lengthAdjust="spacing" textLength="50" x="971" y="228.2339">-heading</text><text fill="#000000" font-family="sans-serif" font-size="11" lengthAdjust="spacing" textLength="48" x="971" y="241.0386">-position</text><text fill="#000000" font-family="sans-serif" font-size="11" lengthAdjust="spacing" textLength="98" x="971" y="253.8433">-transceiverClass</text><line style="stroke:#A80036;stroke-width:1.5;" x1="966" x2="1074" y1="260.4375" y2="260.4375"/><!--MD5=[02e4b9b7573f1156f41e60aa5b4e25a4]
class Company--><rect codeLine="27" fill="#FEFECE" filter="url(#f1b86unfqhby28)" height="60.8047" id="Company" style="stroke:#A80036;stroke-width:1.5;" width="88" x="253.5" y="116.5"/><ellipse cx="268.5" cy="132.5" fill="#ADD1B2" rx="11" ry="11" style="stroke:#A80036;stroke-width:1.0;"/><path d="M270.8438,128.1719 C269.9063,127.7344 269.3125,127.5938 268.4375,127.5938 C265.8125,127.5938 263.8125,129.6719 263.8125,132.3906 L263.8125,133.5156 C263.8125,136.0938 265.9219,137.9844 268.8125,137.9844 C270.0313,137.9844 271.1875,137.6875 271.9375,137.1406 C272.5156,136.7344 272.8438,136.2813 272.8438,135.8906 C272.8438,135.4375 272.4531,135.0469 271.9844,135.0469 C271.7656,135.0469 271.5625,135.125 271.375,135.3125 C270.9219,135.7969 270.9219,135.7969 270.7344,135.8906 C270.3125,136.1563 269.625,136.2813 268.8594,136.2813 C266.8125,136.2813 265.5156,135.1875 265.5156,133.4844 L265.5156,132.3906 C265.5156,130.6094 266.7656,129.2969 268.5,129.2969 C269.0781,129.2969 269.6875,129.4531 270.1563,129.7031 C270.6406,129.9844 270.8125,130.2031 270.9063,130.6094 C270.9688,131.0156 271,131.1406 271.1406,131.2656 C271.2813,131.4063 271.5156,131.5156 271.7344,131.5156 C272,131.5156 272.2656,131.375 272.4375,131.1563 C272.5469,131 272.5781,130.8125 272.5781,130.3906 L272.5781,128.9688 C272.5781,128.5313 272.5625,128.4063 272.4688,128.25 C272.3125,127.9844 272.0313,127.8438 271.7344,127.8438 C271.4375,127.8438 271.2344,127.9375 271.0156,128.25 L270.8438,128.1719 Z " fill="#000000"/><text fill="#000000" font-family="sans-serif" font-size="12" lengthAdjust="spacing" textLength="56" x="282.5" y="136.6543">Company</text><line style="stroke:#A80036;stroke-width:1.5;" x1="254.5" x2="340.5" y1="148.5" y2="148.5"/><text fill="#000000" font-family="sans-serif" font-size="11" lengthAdjust="spacing" textLength="66" x="259.5" y="162.7104">-description</text><line style="stroke:#A80036;stroke-width:1.5;" x1="254.5" x2="340.5" y1="169.3047" y2="169.3047"/><!--MD5=[82dc263f563d227779ba81db65b2fd4d]
class Identification--><rect codeLine="30" fill="#FEFECE" filter="url(#f1b86unfqhby28)" height="99.2188" id="Identification" style="stroke:#A80036;stroke-width:1.5;" width="108" x="728" y="28.5"/><ellipse cx="743" cy="44.5" fill="#ADD1B2" rx="11" ry="11" style="stroke:#A80036;stroke-width:1.0;"/><path d="M745.3438,40.1719 C744.4063,39.7344 743.8125,39.5938 742.9375,39.5938 C740.3125,39.5938 738.3125,41.6719 738.3125,44.3906 L738.3125,45.5156 C738.3125,48.0938 740.4219,49.9844 743.3125,49.9844 C744.5313,49.9844 745.6875,49.6875 746.4375,49.1406 C747.0156,48.7344 747.3438,48.2813 747.3438,47.8906 C747.3438,47.4375 746.9531,47.0469 746.4844,47.0469 C746.2656,47.0469 746.0625,47.125 745.875,47.3125 C745.4219,47.7969 745.4219,47.7969 745.2344,47.8906 C744.8125,48.1563 744.125,48.2813 743.3594,48.2813 C741.3125,48.2813 740.0156,47.1875 740.0156,45.4844 L740.0156,44.3906 C740.0156,42.6094 741.2656,41.2969 743,41.2969 C743.5781,41.2969 744.1875,41.4531 744.6563,41.7031 C745.1406,41.9844 745.3125,42.2031 745.4063,42.6094 C745.4688,43.0156 745.5,43.1406 745.6406,43.2656 C745.7813,43.4063 746.0156,43.5156 746.2344,43.5156 C746.5,43.5156 746.7656,43.375 746.9375,43.1563 C747.0469,43 747.0781,42.8125 747.0781,42.3906 L747.0781,40.9688 C747.0781,40.5313 747.0625,40.4063 746.9688,40.25 C746.8125,39.9844 746.5313,39.8438 746.2344,39.8438 C745.9375,39.8438 745.7344,39.9375 745.5156,40.25 L745.3438,40.1719 Z " fill="#000000"/><text fill="#000000" font-family="sans-serif" font-size="12" lengthAdjust="spacing" textLength="76" x="757" y="48.6543">Identification</text><line style="stroke:#A80036;stroke-width:1.5;" x1="729" x2="835" y1="60.5" y2="60.5"/><text fill="#000000" font-family="sans-serif" font-size="11" lengthAdjust="spacing" textLength="35" x="734" y="74.7104">-mmsi</text><text fill="#000000" font-family="sans-serif" font-size="11" lengthAdjust="spacing" textLength="61" x="734" y="87.5151">-shipName</text><text fill="#000000" font-family="sans-serif" font-size="11" lengthAdjust="spacing" textLength="48" x="734" y="100.3198">-callSign</text><text fill="#000000" font-family="sans-serif" font-size="11" lengthAdjust="spacing" textLength="37" x="734" y="113.1245">-imoID</text><line style="stroke:#A80036;stroke-width:1.5;" x1="729" x2="835" y1="119.7188" y2="119.7188"/><!--MD5=[2523412913e10183997a259215d888d9]
class Characteristics--><rect codeLine="37" fill="#FEFECE" filter="url(#f1b86unfqhby28)" height="112.0234" id="Characteristics" style="stroke:#A80036;stroke-width:1.5;" width="121" x="478" y="202"/><ellipse cx="493" cy="218" fill="#ADD1B2" rx="11" ry="11" style="stroke:#A80036;stroke-width:1.0;"/><path d="M495.3438,213.6719 C494.4063,213.2344 493.8125,213.0938 492.9375,213.0938 C490.3125,213.0938 488.3125,215.1719 488.3125,217.8906 L488.3125,219.0156 C488.3125,221.5938 490.4219,223.4844 493.3125,223.4844 C494.5313,223.4844 495.6875,223.1875 496.4375,222.6406 C497.0156,222.2344 497.3438,221.7813 497.3438,221.3906 C497.3438,220.9375 496.9531,220.5469 496.4844,220.5469 C496.2656,220.5469 496.0625,220.625 495.875,220.8125 C495.4219,221.2969 495.4219,221.2969 495.2344,221.3906 C494.8125,221.6563 494.125,221.7813 493.3594,221.7813 C491.3125,221.7813 490.0156,220.6875 490.0156,218.9844 L490.0156,217.8906 C490.0156,216.1094 491.2656,214.7969 493,214.7969 C493.5781,214.7969 494.1875,214.9531 494.6563,215.2031 C495.1406,215.4844 495.3125,215.7031 495.4063,216.1094 C495.4688,216.5156 495.5,216.6406 495.6406,216.7656 C495.7813,216.9063 496.0156,217.0156 496.2344,217.0156 C496.5,217.0156 496.7656,216.875 496.9375,216.6563 C497.0469,216.5 497.0781,216.3125 497.0781,215.8906 L497.0781,214.4688 C497.0781,214.0313 497.0625,213.9063 496.9688,213.75 C496.8125,213.4844 496.5313,213.3438 496.2344,213.3438 C495.9375,213.3438 495.7344,213.4375 495.5156,213.75 L495.3438,213.6719 Z " fill="#000000"/><text fill="#000000" font-family="sans-serif" font-size="12" lengthAdjust="spacing" textLength="89" x="507" y="222.1543">Characteristics</text><line style="stroke:#A80036;stroke-width:1.5;" x1="479" x2="598" y1="234" y2="234"/><text fill="#000000" font-family="sans-serif" font-size="11" lengthAdjust="spacing" textLength="71" x="484" y="248.2104">-vesselType</text><text fill="#000000" font-family="sans-serif" font-size="11" lengthAdjust="spacing" textLength="40" x="484" y="261.0151">-lenght</text><text fill="#000000" font-family="sans-serif" font-size="11" lengthAdjust="spacing" textLength="34" x="484" y="273.8198">-width</text><text fill="#000000" font-family="sans-serif" font-size="11" lengthAdjust="spacing" textLength="51" x="484" y="286.6245">-capacity</text><text fill="#000000" font-family="sans-serif" font-size="11" lengthAdjust="spacing" textLength="30" x="484" y="299.4292">-draft</text><line style="stroke:#A80036;stroke-width:1.5;" x1="479" x2="598" y1="306.0234" y2="306.0234"/><!--MD5=[fc92a9f5bb5fae84dd7fa4034e6b4444]
class Route--><rect codeLine="44" fill="#FEFECE" filter="url(#f1b86unfqhby28)" height="60.8047" id="Route" style="stroke:#A80036;stroke-width:1.5;" width="66" x="749" y="162.5"/><ellipse cx="764" cy="178.5" fill="#ADD1B2" rx="11" ry="11" style="stroke:#A80036;stroke-width:1.0;"/><path d="M766.3438,174.1719 C765.4063,173.7344 764.8125,173.5938 763.9375,173.5938 C761.3125,173.5938 759.3125,175.6719 759.3125,178.3906 L759.3125,179.5156 C759.3125,182.0938 761.4219,183.9844 764.3125,183.9844 C765.5313,183.9844 766.6875,183.6875 767.4375,183.1406 C768.0156,182.7344 768.3438,182.2813 768.3438,181.8906 C768.3438,181.4375 767.9531,181.0469 767.4844,181.0469 C767.2656,181.0469 767.0625,181.125 766.875,181.3125 C766.4219,181.7969 766.4219,181.7969 766.2344,181.8906 C765.8125,182.1563 765.125,182.2813 764.3594,182.2813 C762.3125,182.2813 761.0156,181.1875 761.0156,179.4844 L761.0156,178.3906 C761.0156,176.6094 762.2656,175.2969 764,175.2969 C764.5781,175.2969 765.1875,175.4531 765.6563,175.7031 C766.1406,175.9844 766.3125,176.2031 766.4063,176.6094 C766.4688,177.0156 766.5,177.1406 766.6406,177.2656 C766.7813,177.4063 767.0156,177.5156 767.2344,177.5156 C767.5,177.5156 767.7656,177.375 767.9375,177.1563 C768.0469,177 768.0781,176.8125 768.0781,176.3906 L768.0781,174.9688 C768.0781,174.5313 768.0625,174.4063 767.9688,174.25 C767.8125,173.9844 767.5313,173.8438 767.2344,173.8438 C766.9375,173.8438 766.7344,173.9375 766.5156,174.25 L766.3438,174.1719 Z " fill="#000000"/><text fill="#000000" font-family="sans-serif" font-size="12" lengthAdjust="spacing" textLength="34" x="778" y="182.6543">Route</text><line style="stroke:#A80036;stroke-width:1.5;" x1="750" x2="814" y1="194.5" y2="194.5"/><text fill="#000000" font-family="sans-serif" font-size="11" lengthAdjust="spacing" textLength="46" x="755" y="208.7104">-routeID</text><line style="stroke:#A80036;stroke-width:1.5;" x1="750" x2="814" y1="215.3047" y2="215.3047"/><!--MD5=[d21c0d3d7e322b0367e05f4b0c5de876]
class CompanyRoles--><rect codeLine="49" fill="#FEFECE" filter="url(#f1b86unfqhby28)" height="73.6094" id="CompanyRoles" style="stroke:#A80036;stroke-width:1.5;" width="121" x="7" y="7"/><ellipse cx="22" cy="23" fill="#ADD1B2" rx="11" ry="11" style="stroke:#A80036;stroke-width:1.0;"/><path d="M24.3438,18.6719 C23.4063,18.2344 22.8125,18.0938 21.9375,18.0938 C19.3125,18.0938 17.3125,20.1719 17.3125,22.8906 L17.3125,24.0156 C17.3125,26.5938 19.4219,28.4844 22.3125,28.4844 C23.5313,28.4844 24.6875,28.1875 25.4375,27.6406 C26.0156,27.2344 26.3438,26.7813 26.3438,26.3906 C26.3438,25.9375 25.9531,25.5469 25.4844,25.5469 C25.2656,25.5469 25.0625,25.625 24.875,25.8125 C24.4219,26.2969 24.4219,26.2969 24.2344,26.3906 C23.8125,26.6563 23.125,26.7813 22.3594,26.7813 C20.3125,26.7813 19.0156,25.6875 19.0156,23.9844 L19.0156,22.8906 C19.0156,21.1094 20.2656,19.7969 22,19.7969 C22.5781,19.7969 23.1875,19.9531 23.6563,20.2031 C24.1406,20.4844 24.3125,20.7031 24.4063,21.1094 C24.4688,21.5156 24.5,21.6406 24.6406,21.7656 C24.7813,21.9063 25.0156,22.0156 25.2344,22.0156 C25.5,22.0156 25.7656,21.875 25.9375,21.6563 C26.0469,21.5 26.0781,21.3125 26.0781,20.8906 L26.0781,19.4688 C26.0781,19.0313 26.0625,18.9063 25.9688,18.75 C25.8125,18.4844 25.5313,18.3438 25.2344,18.3438 C24.9375,18.3438 24.7344,18.4375 24.5156,18.75 L24.3438,18.6719 Z " fill="#000000"/><text fill="#000000" font-family="sans-serif" font-size="12" lengthAdjust="spacing" textLength="89" x="36" y="27.1543">CompanyRoles</text><line style="stroke:#A80036;stroke-width:1.5;" x1="8" x2="127" y1="39" y2="39"/><text fill="#000000" font-family="sans-serif" font-size="11" lengthAdjust="spacing" textLength="38" x="13" y="53.2104">-roleID</text><text fill="#000000" font-family="sans-serif" font-size="11" lengthAdjust="spacing" textLength="90" x="13" y="66.0151">-roleDescription</text><line style="stroke:#A80036;stroke-width:1.5;" x1="8" x2="127" y1="72.6094" y2="72.6094"/><!--MD5=[40e2b5717560220ad35e84810a8f1b44]
link TrafficManager to Ship--><path codeLine="53" d="M358.193,59.735 C396.831,69.92 446.708,83.067 484.044,92.909 " fill="none" id="TrafficManager-to-Ship" style="stroke:#A80036;stroke-width:1.0;"/><polygon fill="#A80036" points="488.995,94.214,481.3135,88.05,484.1605,92.9382,479.2723,95.7852,488.995,94.214" style="stroke:#A80036;stroke-width:1.0;"/><polygon fill="#000000" points="397.8348,60.8409,389.8376,55.6935,388.3394,61.3772,397.8348,60.8409" style="stroke:#000000;stroke-width:1.0;"/><text fill="#000000" font-family="sans-serif" font-size="13" lengthAdjust="spacing" textLength="45" x="402" y="64.0669">selects</text><text fill="#000000" font-family="sans-serif" font-size="13" lengthAdjust="spacing" textLength="8" x="366.0775" y="74.6656">1</text><text fill="#000000" font-family="sans-serif" font-size="13" lengthAdjust="spacing" textLength="23" x="458.1787" y="105.5856">1..*</text><!--MD5=[bc89a5f386bacea718ec506a33afbb24]
reverse link CompanyRoles to TrafficManager--><path codeLine="54" d="M133.273,44 C165.834,44 205.027,44 236.846,44 " fill="none" id="CompanyRoles-backto-TrafficManager" style="stroke:#A80036;stroke-width:1.0;"/><polygon fill="#A80036" points="128.107,44,137.107,48,133.107,44,137.107,40,128.107,44" style="stroke:#A80036;stroke-width:1.0;"/><polygon fill="#000000" points="168,35.5664,158.9549,32.6275,158.9549,38.5053,168,35.5664" style="stroke:#000000;stroke-width:1.0;"/><text fill="#000000" font-family="sans-serif" font-size="13" lengthAdjust="spacing" textLength="34" x="172" y="40.0669">plays</text><text fill="#000000" font-family="sans-serif" font-size="13" lengthAdjust="spacing" textLength="8" x="135.981" y="57.0129">1</text><text fill="#000000" font-family="sans-serif" font-size="13" lengthAdjust="spacing" textLength="23" x="205.9542" y="56.9158">1..*</text><!--MD5=[bd668f20969913e971975f69d50ab766]
link Ship to Route--><path codeLine="55" d="M588.081,124.3 C634.009,140.655 701.939,164.846 743.734,179.729 " fill="none" id="Ship-to-Route" style="stroke:#A80036;stroke-width:1.0;"/><polygon fill="#A80036" points="748.698,181.497,741.5613,174.7097,743.9877,179.8198,738.8777,182.2462,748.698,181.497" style="stroke:#A80036;stroke-width:1.0;"/><polygon fill="#000000" points="654.2103,132.2438,646.6752,126.4408,644.7034,131.978,654.2103,132.2438" style="stroke:#000000;stroke-width:1.0;"/><text fill="#000000" font-family="sans-serif" font-size="13" lengthAdjust="spacing" textLength="23" x="658.5" y="135.0669">has</text><text fill="#000000" font-family="sans-serif" font-size="13" lengthAdjust="spacing" textLength="8" x="595.9507" y="139.9887">1</text><text fill="#000000" font-family="sans-serif" font-size="13" lengthAdjust="spacing" textLength="23" x="717.9977" y="192.9041">1..*</text><!--MD5=[777bd18e7fd60fc9f8777acca57a952c]
link Ship to Characteristics--><path codeLine="56" d="M538.5,150.056 C538.5,164.513 538.5,180.931 538.5,196.522 " fill="none" id="Ship-to-Characteristics" style="stroke:#A80036;stroke-width:1.0;"/><polygon fill="#A80036" points="538.5,201.773,542.5,192.773,538.5,196.773,534.5,192.773,538.5,201.773" style="stroke:#A80036;stroke-width:1.0;"/><polygon fill="#000000" points="497.5,181.0664,500.4389,172.0213,494.5611,172.0213,497.5,181.0664" style="stroke:#000000;stroke-width:1.0;"/><text fill="#000000" font-family="sans-serif" font-size="13" lengthAdjust="spacing" textLength="54" x="506.5" y="180.5669">contains</text><text fill="#000000" font-family="sans-serif" font-size="13" lengthAdjust="spacing" textLength="8" x="529.8375" y="170.4729">1</text><text fill="#000000" font-family="sans-serif" font-size="13" lengthAdjust="spacing" textLength="8" x="530.0125" y="191.0798">1</text><!--MD5=[b548f9cab810c886ef8d517236ce8553]
link Ship to Identification--><path codeLine="57" d="M588.081,101.166 C626.915,96.503 681.479,89.951 722.674,85.004 " fill="none" id="Ship-to-Identification" style="stroke:#A80036;stroke-width:1.0;"/><polygon fill="#A80036" points="727.884,84.378,718.4715,81.4788,722.9196,84.9737,719.4247,89.4218,727.884,84.378" style="stroke:#A80036;stroke-width:1.0;"/><polygon fill="#000000" points="638.9643,78.9703,629.6334,77.1307,630.3342,82.9666,638.9643,78.9703" style="stroke:#000000;stroke-width:1.0;"/><text fill="#000000" font-family="sans-serif" font-size="13" lengthAdjust="spacing" textLength="54" x="643" y="84.0669">contains</text><text fill="#000000" font-family="sans-serif" font-size="13" lengthAdjust="spacing" textLength="8" x="595.9507" y="113.4569">1</text><text fill="#000000" font-family="sans-serif" font-size="13" lengthAdjust="spacing" textLength="8" x="712.0747" y="98.304">1</text><!--MD5=[6e2bf1b581922c3b45ac635d439704bd]
link Route to ShipDynamic--><path codeLine="58" d="M815.32,193 C852.394,193 913.95,193 959.705,193 " fill="none" id="Route-to-ShipDynamic" style="stroke:#A80036;stroke-width:1.0;"/><polygon fill="#A80036" points="964.923,193,955.923,189,959.923,193,955.923,197,964.923,193" style="stroke:#A80036;stroke-width:1.0;"/><polygon fill="#000000" points="876,184.5664,866.9549,181.6275,866.9549,187.5053,876,184.5664" style="stroke:#000000;stroke-width:1.0;"/><text fill="#000000" font-family="sans-serif" font-size="13" lengthAdjust="spacing" textLength="54" x="880" y="189.0669">contains</text><text fill="#000000" font-family="sans-serif" font-size="13" lengthAdjust="spacing" textLength="8" x="823.0173" y="206.6476">1</text><text fill="#000000" font-family="sans-serif" font-size="13" lengthAdjust="spacing" textLength="23" x="933.8089" y="205.9624">1..*</text><!--MD5=[37a14a5de6d6fd738aee271300f4b5c8]
link Company to Ship--><path codeLine="59" d="M341.507,142.251 C371.466,138.697 412.295,133.365 448,127 C459.658,124.922 472.096,122.363 483.877,119.778 " fill="none" id="Company-to-Ship" style="stroke:#A80036;stroke-width:1.0;"/><polygon fill="#A80036" points="488.882,118.67,479.23,116.7107,484.0003,119.7512,480.9599,124.5215,488.882,118.67" style="stroke:#A80036;stroke-width:1.0;"/><polygon fill="#000000" points="403.4388,117.7868,394.0462,116.2941,394.9626,122.1001,403.4388,117.7868" style="stroke:#000000;stroke-width:1.0;"/><text fill="#000000" font-family="sans-serif" font-size="13" lengthAdjust="spacing" textLength="34" x="407.5" y="123.0669">owns</text><text fill="#000000" font-family="sans-serif" font-size="13" lengthAdjust="spacing" textLength="8" x="349.4582" y="154.8007">1</text><text fill="#000000" font-family="sans-serif" font-size="13" lengthAdjust="spacing" textLength="23" x="458.0513" y="133.175">1..*</text><!--MD5=[6617bcc2cbd4613ddf08b39fc4a85387]
@startuml
skinparam classAttributeIconSize 0
left to right direction
class Ship {
-Identification
-Characteristics
-Route
}

class TrafficManager{
-userID
-name
}



class ShipDynamic{
-baseDateTime
-latitude
-longitude
-SOG
-COG
-heading
-position
-transceiverClass
}

class Company {
-description
}
class Identification{
-mmsi
-shipName
-callSign
-imoID
}

class Characteristics{
-vesselType
-lenght
-width
-capacity
-draft
}
class Route{
-routeID
}


class CompanyRoles {
-roleID
-roleDescription
}
TrafficManager "1" - -> "1..*" Ship : selects >
TrafficManager "1..*" -u-> "1" CompanyRoles : plays <
Ship "1" - -> "1..*" Route : has >
Ship "1" -r-> "1" Characteristics: contains >
Ship "1" - -> "1" Identification: contains >
Route "1" - -> "1..*" ShipDynamic : contains >
Company"1" - -> "1..*" Ship : owns >
@enduml

PlantUML version 1.2021.14beta6(Unknown compile time)
(GPL source distribution)
Java Runtime: Java(TM) SE Runtime Environment
JVM: Java HotSpot(TM) 64-Bit Server VM
Default Encoding: UTF-8
Language: en
Country: US
--></g></svg>