<?xml version="1.0" encoding="UTF-8" standalone="no"?><svg xmlns="http://www.w3.org/2000/svg" xmlns:xlink="http://www.w3.org/1999/xlink" contentScriptType="application/ecmascript" contentStyleType="text/css" height="845px" preserveAspectRatio="none" style="width:1768px;height:845px;background:#FFFFFF;" version="1.1" viewBox="0 0 1768 845" width="1768px" zoomAndPan="magnify"><defs><filter height="300%" id="f19crxgkw8xgfz" width="300%" x="-1" y="-1"><feGaussianBlur result="blurOut" stdDeviation="2.0"/><feColorMatrix in="blurOut" result="blurOut2" type="matrix" values="0 0 0 0 0 0 0 0 0 0 0 0 0 0 0 0 0 0 .4 0"/><feOffset dx="4.0" dy="4.0" in="blurOut2" result="blurOut3"/><feBlend in="SourceGraphic" in2="blurOut3" mode="normal"/></filter></defs><g><rect fill="#FFFFFF" filter="url(#f19crxgkw8xgfz)" height="653.8594" style="stroke:#A80036;stroke-width:1.0;" width="10" x="47" y="98.2969"/><rect fill="#FFFFFF" filter="url(#f19crxgkw8xgfz)" height="29.1328" style="stroke:#A80036;stroke-width:1.0;" width="10" x="565" y="119.4297"/><rect fill="#FFFFFF" filter="url(#f19crxgkw8xgfz)" height="29.1328" style="stroke:#A80036;stroke-width:1.0;" width="10" x="565" y="177.6953"/><rect fill="#FFFFFF" filter="url(#f19crxgkw8xgfz)" height="29.1328" style="stroke:#A80036;stroke-width:1.0;" width="10" x="565" y="235.9609"/><rect fill="#FFFFFF" filter="url(#f19crxgkw8xgfz)" height="29.1328" style="stroke:#A80036;stroke-width:1.0;" width="10" x="565" y="714.0234"/><rect fill="#FFFFFF" filter="url(#f19crxgkw8xgfz)" height="448.9297" style="stroke:#A80036;stroke-width:1.0;" width="10" x="964" y="265.0938"/><rect fill="#FFFFFF" filter="url(#f19crxgkw8xgfz)" height="28" style="stroke:#A80036;stroke-width:1.0;" width="10" x="969" y="361.3594"/><rect fill="#FFFFFF" filter="url(#f19crxgkw8xgfz)" height="28" style="stroke:#A80036;stroke-width:1.0;" width="10" x="969" y="433.4922"/><rect fill="#FFFFFF" filter="url(#f19crxgkw8xgfz)" height="28" style="stroke:#A80036;stroke-width:1.0;" width="10" x="969" y="505.625"/><rect fill="#FFFFFF" filter="url(#f19crxgkw8xgfz)" height="28" style="stroke:#A80036;stroke-width:1.0;" width="10" x="969" y="577.7578"/><rect fill="#FFFFFF" filter="url(#f19crxgkw8xgfz)" height="28" style="stroke:#A80036;stroke-width:1.0;" width="10" x="969" y="649.8906"/><rect fill="#FFFFFF" filter="url(#f19crxgkw8xgfz)" height="30" style="stroke:#A80036;stroke-width:1.0;" width="10" x="1666" y="294.2266"/><line style="stroke:#A80036;stroke-width:1.0;stroke-dasharray:5.0,5.0;" x1="52" x2="52" y1="88.2969" y2="761.1563"/><line style="stroke:#A80036;stroke-width:1.0;stroke-dasharray:5.0,5.0;" x1="569.5" x2="569.5" y1="88.2969" y2="761.1563"/><line style="stroke:#A80036;stroke-width:1.0;stroke-dasharray:5.0,5.0;" x1="968.5" x2="968.5" y1="88.2969" y2="761.1563"/><line style="stroke:#A80036;stroke-width:1.0;stroke-dasharray:5.0,5.0;" x1="1366.5" x2="1366.5" y1="88.2969" y2="761.1563"/><line style="stroke:#A80036;stroke-width:1.0;stroke-dasharray:5.0,5.0;" x1="1449.5" x2="1449.5" y1="88.2969" y2="761.1563"/><line style="stroke:#A80036;stroke-width:1.0;stroke-dasharray:5.0,5.0;" x1="1671" x2="1671" y1="88.2969" y2="761.1563"/><text fill="#000000" font-family="sans-serif" font-size="14" lengthAdjust="spacing" textLength="88" x="5" y="84.9951">ShipCaptain</text><ellipse cx="52" cy="15" fill="#FEFECE" filter="url(#f19crxgkw8xgfz)" rx="8" ry="8" style="stroke:#A80036;stroke-width:2.0;"/><path d="M52,23 L52,50 M39,31 L65,31 M52,50 L39,65 M52,50 L65,65 " fill="none" filter="url(#f19crxgkw8xgfz)" style="stroke:#A80036;stroke-width:2.0;"/><text fill="#000000" font-family="sans-serif" font-size="14" lengthAdjust="spacing" textLength="88" x="5" y="773.1514">ShipCaptain</text><ellipse cx="52" cy="786.4531" fill="#FEFECE" filter="url(#f19crxgkw8xgfz)" rx="8" ry="8" style="stroke:#A80036;stroke-width:2.0;"/><path d="M52,794.4531 L52,821.4531 M39,802.4531 L65,802.4531 M52,821.4531 L39,836.4531 M52,821.4531 L65,836.4531 " fill="none" filter="url(#f19crxgkw8xgfz)" style="stroke:#A80036;stroke-width:2.0;"/><rect fill="#FEFECE" filter="url(#f19crxgkw8xgfz)" height="30.2969" style="stroke:#A80036;stroke-width:1.5;" width="195" x="470.5" y="53"/><text fill="#000000" font-family="sans-serif" font-size="14" lengthAdjust="spacing" textLength="181" x="477.5" y="72.9951">:ContainerControllerTest</text><rect fill="#FEFECE" filter="url(#f19crxgkw8xgfz)" height="30.2969" style="stroke:#A80036;stroke-width:1.5;" width="195" x="470.5" y="760.1563"/><text fill="#000000" font-family="sans-serif" font-size="14" lengthAdjust="spacing" textLength="181" x="477.5" y="780.1514">:ContainerControllerTest</text><rect fill="#FEFECE" filter="url(#f19crxgkw8xgfz)" height="30.2969" style="stroke:#A80036;stroke-width:1.5;" width="163" x="885.5" y="53"/><text fill="#000000" font-family="sans-serif" font-size="14" lengthAdjust="spacing" textLength="149" x="892.5" y="72.9951">:ContainerController</text><rect fill="#FEFECE" filter="url(#f19crxgkw8xgfz)" height="30.2969" style="stroke:#A80036;stroke-width:1.5;" width="163" x="885.5" y="760.1563"/><text fill="#000000" font-family="sans-serif" font-size="14" lengthAdjust="spacing" textLength="149" x="892.5" y="780.1514">:ContainerController</text><rect fill="#FEFECE" filter="url(#f19crxgkw8xgfz)" height="30.2969" style="stroke:#A80036;stroke-width:1.5;" width="87" x="1321.5" y="53"/><text fill="#000000" font-family="sans-serif" font-size="14" lengthAdjust="spacing" textLength="73" x="1328.5" y="72.9951">:Company</text><rect fill="#FEFECE" filter="url(#f19crxgkw8xgfz)" height="30.2969" style="stroke:#A80036;stroke-width:1.5;" width="87" x="1321.5" y="760.1563"/><text fill="#000000" font-family="sans-serif" font-size="14" lengthAdjust="spacing" textLength="73" x="1328.5" y="780.1514">:Company</text><rect fill="#FEFECE" filter="url(#f19crxgkw8xgfz)" height="30.2969" style="stroke:#A80036;stroke-width:1.5;" width="51" x="1422.5" y="53"/><text fill="#000000" font-family="sans-serif" font-size="14" lengthAdjust="spacing" textLength="37" x="1429.5" y="72.9951">:Ship</text><rect fill="#FEFECE" filter="url(#f19crxgkw8xgfz)" height="30.2969" style="stroke:#A80036;stroke-width:1.5;" width="51" x="1422.5" y="760.1563"/><text fill="#000000" font-family="sans-serif" font-size="14" lengthAdjust="spacing" textLength="37" x="1429.5" y="780.1514">:Ship</text><rect fill="#FEFECE" filter="url(#f19crxgkw8xgfz)" height="30.2969" style="stroke:#A80036;stroke-width:1.5;" width="170" x="1584" y="53"/><text fill="#000000" font-family="sans-serif" font-size="14" lengthAdjust="spacing" textLength="156" x="1591" y="72.9951">:DatabaseConnection</text><rect fill="#FEFECE" filter="url(#f19crxgkw8xgfz)" height="30.2969" style="stroke:#A80036;stroke-width:1.5;" width="170" x="1584" y="760.1563"/><text fill="#000000" font-family="sans-serif" font-size="14" lengthAdjust="spacing" textLength="156" x="1591" y="780.1514">:DatabaseConnection</text><rect fill="#FFFFFF" filter="url(#f19crxgkw8xgfz)" height="653.8594" style="stroke:#A80036;stroke-width:1.0;" width="10" x="47" y="98.2969"/><rect fill="#FFFFFF" filter="url(#f19crxgkw8xgfz)" height="29.1328" style="stroke:#A80036;stroke-width:1.0;" width="10" x="565" y="119.4297"/><rect fill="#FFFFFF" filter="url(#f19crxgkw8xgfz)" height="29.1328" style="stroke:#A80036;stroke-width:1.0;" width="10" x="565" y="177.6953"/><rect fill="#FFFFFF" filter="url(#f19crxgkw8xgfz)" height="29.1328" style="stroke:#A80036;stroke-width:1.0;" width="10" x="565" y="235.9609"/><rect fill="#FFFFFF" filter="url(#f19crxgkw8xgfz)" height="29.1328" style="stroke:#A80036;stroke-width:1.0;" width="10" x="565" y="714.0234"/><rect fill="#FFFFFF" filter="url(#f19crxgkw8xgfz)" height="448.9297" style="stroke:#A80036;stroke-width:1.0;" width="10" x="964" y="265.0938"/><rect fill="#FFFFFF" filter="url(#f19crxgkw8xgfz)" height="28" style="stroke:#A80036;stroke-width:1.0;" width="10" x="969" y="361.3594"/><rect fill="#FFFFFF" filter="url(#f19crxgkw8xgfz)" height="28" style="stroke:#A80036;stroke-width:1.0;" width="10" x="969" y="433.4922"/><rect fill="#FFFFFF" filter="url(#f19crxgkw8xgfz)" height="28" style="stroke:#A80036;stroke-width:1.0;" width="10" x="969" y="505.625"/><rect fill="#FFFFFF" filter="url(#f19crxgkw8xgfz)" height="28" style="stroke:#A80036;stroke-width:1.0;" width="10" x="969" y="577.7578"/><rect fill="#FFFFFF" filter="url(#f19crxgkw8xgfz)" height="28" style="stroke:#A80036;stroke-width:1.0;" width="10" x="969" y="649.8906"/><rect fill="#FFFFFF" filter="url(#f19crxgkw8xgfz)" height="30" style="stroke:#A80036;stroke-width:1.0;" width="10" x="1666" y="294.2266"/><polygon fill="#A80036" points="553,115.4297,563,119.4297,553,123.4297,557,119.4297" style="stroke:#A80036;stroke-width:1.0;"/><line style="stroke:#A80036;stroke-width:1.0;" x1="57" x2="559" y1="119.4297" y2="119.4297"/><text fill="#000000" font-family="sans-serif" font-size="13" font-weight="bold" lengthAdjust="spacing" textLength="9" x="64" y="114.3638">1</text><text fill="#000000" font-family="sans-serif" font-size="13" lengthAdjust="spacing" textLength="284" x="77" y="114.3638">chooses to see the occupancy rate of a ship</text><polygon fill="#A80036" points="68,144.5625,58,148.5625,68,152.5625,64,148.5625" style="stroke:#A80036;stroke-width:1.0;"/><line style="stroke:#A80036;stroke-width:1.0;stroke-dasharray:2.0,2.0;" x1="62" x2="569" y1="148.5625" y2="148.5625"/><text fill="#000000" font-family="sans-serif" font-size="13" font-weight="bold" lengthAdjust="spacing" textLength="9" x="74" y="143.4966">2</text><text fill="#000000" font-family="sans-serif" font-size="13" lengthAdjust="spacing" textLength="471" x="87" y="143.4966">asks the identifying code of the ship whose occupancy rate will be shown</text><polygon fill="#A80036" points="553,173.6953,563,177.6953,553,181.6953,557,177.6953" style="stroke:#A80036;stroke-width:1.0;"/><line style="stroke:#A80036;stroke-width:1.0;" x1="57" x2="559" y1="177.6953" y2="177.6953"/><text fill="#000000" font-family="sans-serif" font-size="13" font-weight="bold" lengthAdjust="spacing" textLength="8" x="64" y="172.6294">3</text><text fill="#000000" font-family="sans-serif" font-size="13" lengthAdjust="spacing" textLength="242" x="76" y="172.6294">writes the identifying code of the ship</text><polygon fill="#A80036" points="68,202.8281,58,206.8281,68,210.8281,64,206.8281" style="stroke:#A80036;stroke-width:1.0;"/><line style="stroke:#A80036;stroke-width:1.0;stroke-dasharray:2.0,2.0;" x1="62" x2="569" y1="206.8281" y2="206.8281"/><text fill="#000000" font-family="sans-serif" font-size="13" font-weight="bold" lengthAdjust="spacing" textLength="9" x="74" y="201.7622">4</text><text fill="#000000" font-family="sans-serif" font-size="13" lengthAdjust="spacing" textLength="390" x="87" y="201.7622">asks to introduce the given date to show the occupancy rate</text><polygon fill="#A80036" points="553,231.9609,563,235.9609,553,239.9609,557,235.9609" style="stroke:#A80036;stroke-width:1.0;"/><line style="stroke:#A80036;stroke-width:1.0;" x1="57" x2="559" y1="235.9609" y2="235.9609"/><text fill="#000000" font-family="sans-serif" font-size="13" font-weight="bold" lengthAdjust="spacing" textLength="9" x="64" y="230.895">5</text><text fill="#000000" font-family="sans-serif" font-size="13" lengthAdjust="spacing" textLength="133" x="77" y="230.895">insert the given date</text><polygon fill="#A80036" points="952,261.0938,962,265.0938,952,269.0938,956,265.0938" style="stroke:#A80036;stroke-width:1.0;"/><line style="stroke:#A80036;stroke-width:1.0;" x1="570" x2="958" y1="265.0938" y2="265.0938"/><text fill="#000000" font-family="sans-serif" font-size="13" font-weight="bold" lengthAdjust="spacing" textLength="9" x="577" y="260.0278">6</text><text fill="#000000" font-family="sans-serif" font-size="13" lengthAdjust="spacing" textLength="269" x="590" y="260.0278">getOccupancyRateFromDate(mmsi, date)</text><polygon fill="#A80036" points="1654,290.2266,1664,294.2266,1654,298.2266,1658,294.2266" style="stroke:#A80036;stroke-width:1.0;"/><line style="stroke:#A80036;stroke-width:1.0;" x1="974" x2="1660" y1="294.2266" y2="294.2266"/><text fill="#000000" font-family="sans-serif" font-size="13" font-weight="bold" lengthAdjust="spacing" textLength="9" x="981" y="289.1606">7</text><text fill="#000000" font-family="sans-serif" font-size="13" lengthAdjust="spacing" textLength="660" x="994" y="289.1606">callStmt = connection.getConnection().prepareCall("{ ? = call func_getContainersFromCertainDate(?,?)</text><line style="stroke:#A80036;stroke-width:1.0;" x1="979" x2="1021" y1="353.3594" y2="353.3594"/><line style="stroke:#A80036;stroke-width:1.0;" x1="1021" x2="1021" y1="353.3594" y2="366.3594"/><line style="stroke:#A80036;stroke-width:1.0;" x1="980" x2="1021" y1="366.3594" y2="366.3594"/><polygon fill="#A80036" points="990,362.3594,980,366.3594,990,370.3594,986,366.3594" style="stroke:#A80036;stroke-width:1.0;"/><text fill="#000000" font-family="sans-serif" font-size="13" font-weight="bold" lengthAdjust="spacing" textLength="9" x="986" y="348.2935">8</text><text fill="#000000" font-family="sans-serif" font-size="13" lengthAdjust="spacing" textLength="361" x="999" y="348.2935">callStmt.registerOutParameter(1, OracleTypes.INTEGER)</text><line style="stroke:#A80036;stroke-width:1.0;" x1="979" x2="1021" y1="425.4922" y2="425.4922"/><line style="stroke:#A80036;stroke-width:1.0;" x1="1021" x2="1021" y1="425.4922" y2="438.4922"/><line style="stroke:#A80036;stroke-width:1.0;" x1="980" x2="1021" y1="438.4922" y2="438.4922"/><polygon fill="#A80036" points="990,434.4922,980,438.4922,990,442.4922,986,438.4922" style="stroke:#A80036;stroke-width:1.0;"/><text fill="#000000" font-family="sans-serif" font-size="13" font-weight="bold" lengthAdjust="spacing" textLength="9" x="986" y="420.4263">9</text><text fill="#000000" font-family="sans-serif" font-size="13" lengthAdjust="spacing" textLength="265" x="999" y="420.4263">callStmt.setInt(2, Integer.parseInt(mmsi))</text><line style="stroke:#A80036;stroke-width:1.0;" x1="979" x2="1021" y1="497.625" y2="497.625"/><line style="stroke:#A80036;stroke-width:1.0;" x1="1021" x2="1021" y1="497.625" y2="510.625"/><line style="stroke:#A80036;stroke-width:1.0;" x1="980" x2="1021" y1="510.625" y2="510.625"/><polygon fill="#A80036" points="990,506.625,980,510.625,990,514.625,986,510.625" style="stroke:#A80036;stroke-width:1.0;"/><text fill="#000000" font-family="sans-serif" font-size="13" font-weight="bold" lengthAdjust="spacing" textLength="19" x="986" y="492.5591">10</text><text fill="#000000" font-family="sans-serif" font-size="13" lengthAdjust="spacing" textLength="162" x="1009" y="492.5591">callStmt.setDate(3, date)</text><line style="stroke:#A80036;stroke-width:1.0;" x1="979" x2="1021" y1="569.7578" y2="569.7578"/><line style="stroke:#A80036;stroke-width:1.0;" x1="1021" x2="1021" y1="569.7578" y2="582.7578"/><line style="stroke:#A80036;stroke-width:1.0;" x1="980" x2="1021" y1="582.7578" y2="582.7578"/><polygon fill="#A80036" points="990,578.7578,980,582.7578,990,586.7578,986,582.7578" style="stroke:#A80036;stroke-width:1.0;"/><text fill="#000000" font-family="sans-serif" font-size="13" font-weight="bold" lengthAdjust="spacing" textLength="18" x="986" y="564.6919">11</text><text fill="#000000" font-family="sans-serif" font-size="13" lengthAdjust="spacing" textLength="118" x="1008" y="564.6919">callStmt.execute()</text><line style="stroke:#A80036;stroke-width:1.0;" x1="979" x2="1021" y1="641.8906" y2="641.8906"/><line style="stroke:#A80036;stroke-width:1.0;" x1="1021" x2="1021" y1="641.8906" y2="654.8906"/><line style="stroke:#A80036;stroke-width:1.0;" x1="980" x2="1021" y1="654.8906" y2="654.8906"/><polygon fill="#A80036" points="990,650.8906,980,654.8906,990,658.8906,986,654.8906" style="stroke:#A80036;stroke-width:1.0;"/><text fill="#000000" font-family="sans-serif" font-size="13" font-weight="bold" lengthAdjust="spacing" textLength="18" x="986" y="636.8247">12</text><text fill="#000000" font-family="sans-serif" font-size="13" lengthAdjust="spacing" textLength="237" x="1008" y="636.8247">res  = (Integer) callStmt.getObject(1)</text><polygon fill="#A80036" points="586,710.0234,576,714.0234,586,718.0234,582,714.0234" style="stroke:#A80036;stroke-width:1.0;"/><line style="stroke:#A80036;stroke-width:1.0;stroke-dasharray:2.0,2.0;" x1="580" x2="968" y1="714.0234" y2="714.0234"/><text fill="#000000" font-family="sans-serif" font-size="13" font-weight="bold" lengthAdjust="spacing" textLength="17" x="592" y="708.9575">13</text><text fill="#000000" font-family="sans-serif" font-size="13" lengthAdjust="spacing" textLength="349" x="613" y="708.9575">presents the user with the occupancy rate of that ship</text><polygon fill="#A80036" points="68,739.1563,58,743.1563,68,747.1563,64,743.1563" style="stroke:#A80036;stroke-width:1.0;"/><line style="stroke:#A80036;stroke-width:1.0;" x1="62" x2="569" y1="743.1563" y2="743.1563"/><text fill="#000000" font-family="sans-serif" font-size="13" font-weight="bold" lengthAdjust="spacing" textLength="18" x="74" y="738.0903">14</text><text fill="#000000" font-family="sans-serif" font-size="13" lengthAdjust="spacing" textLength="349" x="96" y="738.0903">presents the user with the occupancy rate of that ship</text><!--MD5=[ec86bcb8c051600bfa3ba120d5885c2d]
@startuml
autonumber
actor "ShipCaptain" as REC

participant  ":ContainerControllerTest" as TEST
participant ":ContainerController" as UI
participant ":Company" as CMP
participant ":Ship" as PORT
participant ":DatabaseConnection" as DBCON






activate REC
REC -> TEST: chooses to see the occupancy rate of a ship
activate TEST
TEST - -> REC : asks the identifying code of the ship whose occupancy rate will be shown
deactivate TEST
REC -> TEST: writes the identifying code of the ship
activate TEST


TEST- -> REC : asks to introduce the given date to show the occupancy rate
deactivate TEST



REC -> TEST: insert the given date
activate TEST

TEST-> UI : getOccupancyRateFromDate(mmsi, date)
deactivate TEST
activate UI



UI -> DBCON: callStmt = connection.getConnection().prepareCall("{ ? = call func_getContainersFromCertainDate(?,?)
activate DBCON
deactivate DBCON

UI -> UI : callStmt.registerOutParameter(1, OracleTypes.INTEGER)
activate UI
deactivate UI

UI -> UI : callStmt.setInt(2, Integer.parseInt(mmsi))
activate UI
deactivate UI
UI -> UI : callStmt.setDate(3, date)
activate UI
deactivate UI

UI -> UI : callStmt.execute()
activate UI
deactivate UI

UI -> UI : res  = (Integer) callStmt.getObject(1)
activate UI
deactivate UI

deactivate TEST

UI - -> TEST: presents the user with the occupancy rate of that ship
deactivate UI

activate TEST
TEST-> REC : presents the user with the occupancy rate of that ship
deactivate TEST
@enduml

PlantUML version 1.2021.16beta1(Unknown compile time)
(GPL source distribution)
Java Runtime: Java(TM) SE Runtime Environment
JVM: Java HotSpot(TM) 64-Bit Server VM
Default Encoding: UTF-8
Language: en
Country: US
--></g></svg>