<?xml version="1.0" encoding="UTF-8" standalone="no"?><svg xmlns="http://www.w3.org/2000/svg" xmlns:xlink="http://www.w3.org/1999/xlink" contentScriptType="application/ecmascript" contentStyleType="text/css" height="250px" preserveAspectRatio="none" style="width:431px;height:250px;background:#FFFFFF;" version="1.1" viewBox="0 0 431 250" width="431px" zoomAndPan="magnify"><defs><filter height="300%" id="f5zamyxm3dgdm" width="300%" x="-1" y="-1"><feGaussianBlur result="blurOut" stdDeviation="2.0"/><feColorMatrix in="blurOut" result="blurOut2" type="matrix" values="0 0 0 0 0 0 0 0 0 0 0 0 0 0 0 0 0 0 .4 0"/><feOffset dx="4.0" dy="4.0" in="blurOut2" result="blurOut3"/><feBlend in="SourceGraphic" in2="blurOut3" mode="normal"/></filter></defs><g><rect fill="#FFFFFF" filter="url(#f5zamyxm3dgdm)" height="50.2656" style="stroke:#A80036;stroke-width:1.0;" width="10" x="24.5" y="98.2969"/><rect fill="#FFFFFF" filter="url(#f5zamyxm3dgdm)" height="29.1328" style="stroke:#A80036;stroke-width:1.0;" width="10" x="377.5" y="119.4297"/><line style="stroke:#A80036;stroke-width:1.0;stroke-dasharray:5.0,5.0;" x1="29" x2="29" y1="88.2969" y2="166.5625"/><line style="stroke:#A80036;stroke-width:1.0;stroke-dasharray:5.0,5.0;" x1="382" x2="382" y1="88.2969" y2="166.5625"/><text fill="#000000" font-family="sans-serif" font-size="14" lengthAdjust="spacing" textLength="43" x="5" y="84.9951">Client</text><ellipse cx="29.5" cy="15" fill="#FEFECE" filter="url(#f5zamyxm3dgdm)" rx="8" ry="8" style="stroke:#A80036;stroke-width:2.0;"/><path d="M29.5,23 L29.5,50 M16.5,31 L42.5,31 M29.5,50 L16.5,65 M29.5,50 L42.5,65 " fill="none" filter="url(#f5zamyxm3dgdm)" style="stroke:#A80036;stroke-width:2.0;"/><text fill="#000000" font-family="sans-serif" font-size="14" lengthAdjust="spacing" textLength="43" x="5" y="178.5576">Client</text><ellipse cx="29.5" cy="191.8594" fill="#FEFECE" filter="url(#f5zamyxm3dgdm)" rx="8" ry="8" style="stroke:#A80036;stroke-width:2.0;"/><path d="M29.5,199.8594 L29.5,226.8594 M16.5,207.8594 L42.5,207.8594 M29.5,226.8594 L16.5,241.8594 M29.5,226.8594 L42.5,241.8594 " fill="none" filter="url(#f5zamyxm3dgdm)" style="stroke:#A80036;stroke-width:2.0;"/><rect fill="#FEFECE" filter="url(#f5zamyxm3dgdm)" height="30.2969" style="stroke:#A80036;stroke-width:1.5;" width="73" x="344" y="53"/><text fill="#000000" font-family="sans-serif" font-size="14" lengthAdjust="spacing" textLength="59" x="351" y="72.9951">:System</text><rect fill="#FEFECE" filter="url(#f5zamyxm3dgdm)" height="30.2969" style="stroke:#A80036;stroke-width:1.5;" width="73" x="344" y="165.5625"/><text fill="#000000" font-family="sans-serif" font-size="14" lengthAdjust="spacing" textLength="59" x="351" y="185.5576">:System</text><rect fill="#FFFFFF" filter="url(#f5zamyxm3dgdm)" height="50.2656" style="stroke:#A80036;stroke-width:1.0;" width="10" x="24.5" y="98.2969"/><rect fill="#FFFFFF" filter="url(#f5zamyxm3dgdm)" height="29.1328" style="stroke:#A80036;stroke-width:1.0;" width="10" x="377.5" y="119.4297"/><polygon fill="#A80036" points="365.5,115.4297,375.5,119.4297,365.5,123.4297,369.5,119.4297" style="stroke:#A80036;stroke-width:1.0;"/><line style="stroke:#A80036;stroke-width:1.0;" x1="34.5" x2="371.5" y1="119.4297" y2="119.4297"/><text fill="#000000" font-family="sans-serif" font-size="13" font-weight="bold" lengthAdjust="spacing" textLength="9" x="41.5" y="114.3638">1</text><text fill="#000000" font-family="sans-serif" font-size="13" lengthAdjust="spacing" textLength="311" x="54.5" y="114.3638">chooses a number container to get the status of</text><polygon fill="#A80036" points="40.5,144.5625,30.5,148.5625,40.5,152.5625,36.5,148.5625" style="stroke:#A80036;stroke-width:1.0;"/><line style="stroke:#A80036;stroke-width:1.0;stroke-dasharray:2.0,2.0;" x1="34.5" x2="381.5" y1="148.5625" y2="148.5625"/><text fill="#000000" font-family="sans-serif" font-size="13" font-weight="bold" lengthAdjust="spacing" textLength="9" x="46.5" y="143.4966">2</text><text fill="#000000" font-family="sans-serif" font-size="13" lengthAdjust="spacing" textLength="216" x="59.5" y="143.4966">shows the status of the container</text><!--MD5=[e3730908855485bd32dbc6880e92a952]
@startuml
autonumber
actor "Client" as TM

activate TM
TM-> ":System" : chooses a number container to get the status of
activate ":System"
":System" - -> TM : shows the status of the container
deactivate ":System"

deactivate TM
@enduml

PlantUML version 1.2021.16beta1(Unknown compile time)
(GPL source distribution)
Java Runtime: Java(TM) SE Runtime Environment
JVM: Java HotSpot(TM) 64-Bit Server VM
Default Encoding: UTF-8
Language: en
Country: US
--></g></svg>