<?xml version="1.0" encoding="UTF-8" standalone="no"?><svg xmlns="http://www.w3.org/2000/svg" xmlns:xlink="http://www.w3.org/1999/xlink" contentScriptType="application/ecmascript" contentStyleType="text/css" height="971px" preserveAspectRatio="none" style="width:2358px;height:971px;background:#FFFFFF;" version="1.1" viewBox="0 0 2358 971" width="2358px" zoomAndPan="magnify"><defs><filter height="300%" id="fzwm0xcao0563" width="300%" x="-1" y="-1"><feGaussianBlur result="blurOut" stdDeviation="2.0"/><feColorMatrix in="blurOut" result="blurOut2" type="matrix" values="0 0 0 0 0 0 0 0 0 0 0 0 0 0 0 0 0 0 .4 0"/><feOffset dx="4.0" dy="4.0" in="blurOut2" result="blurOut3"/><feBlend in="SourceGraphic" in2="blurOut3" mode="normal"/></filter></defs><g><rect fill="#FFFFFF" filter="url(#fzwm0xcao0563)" height="771.0547" style="stroke:#A80036;stroke-width:1.0;" width="10" x="59" y="98.2969"/><rect fill="#FFFFFF" filter="url(#fzwm0xcao0563)" height="29.1328" style="stroke:#A80036;stroke-width:1.0;" width="10" x="492" y="119.4297"/><rect fill="#FFFFFF" filter="url(#fzwm0xcao0563)" height="691.6563" style="stroke:#A80036;stroke-width:1.0;" width="10" x="492" y="177.6953"/><rect fill="#FFFFFF" filter="url(#fzwm0xcao0563)" height="545.9922" style="stroke:#A80036;stroke-width:1.0;" width="10" x="686.5" y="206.8281"/><rect fill="#FFFFFF" filter="url(#fzwm0xcao0563)" height="30" style="stroke:#A80036;stroke-width:1.0;" width="10" x="852.5" y="235.9609"/><rect fill="#FFFFFF" filter="url(#fzwm0xcao0563)" height="320.0625" style="stroke:#A80036;stroke-width:1.0;" width="10" x="955.5" y="295.0938"/><rect fill="#FFFFFF" filter="url(#fzwm0xcao0563)" height="30" style="stroke:#A80036;stroke-width:1.0;" width="10" x="1438.5" y="348.3594"/><rect fill="#FFFFFF" filter="url(#fzwm0xcao0563)" height="30" style="stroke:#A80036;stroke-width:1.0;" width="10" x="1438.5" y="407.4922"/><rect fill="#FFFFFF" filter="url(#fzwm0xcao0563)" height="29.1328" style="stroke:#A80036;stroke-width:1.0;" width="10" x="1438.5" y="636.2891"/><rect fill="#FFFFFF" filter="url(#fzwm0xcao0563)" height="29.1328" style="stroke:#A80036;stroke-width:1.0;" width="10" x="1438.5" y="694.5547"/><rect fill="#FFFFFF" filter="url(#fzwm0xcao0563)" height="29.1328" style="stroke:#A80036;stroke-width:1.0;" width="10" x="1438.5" y="752.8203"/><rect fill="#FFFFFF" filter="url(#fzwm0xcao0563)" height="29.1328" style="stroke:#A80036;stroke-width:1.0;" width="10" x="1850.5" y="665.4219"/><rect fill="#FFFFFF" filter="url(#fzwm0xcao0563)" height="29.1328" style="stroke:#A80036;stroke-width:1.0;" width="10" x="2018" y="723.6875"/><rect fill="#FFFFFF" filter="url(#fzwm0xcao0563)" height="29.1328" style="stroke:#A80036;stroke-width:1.0;" width="10" x="2137" y="781.9531"/><rect fill="#FFFFFF" filter="url(#fzwm0xcao0563)" height="58.2656" style="stroke:#A80036;stroke-width:1.0;" width="10" x="2287" y="811.0859"/><rect fill="#FFFFFF" filter="url(#fzwm0xcao0563)" height="135.3984" style="stroke:#000000;stroke-width:2.0;" width="578" x="903" y="310.0938"/><rect fill="#FFFFFF" filter="url(#fzwm0xcao0563)" height="106.5313" style="stroke:#000000;stroke-width:2.0;" width="847" x="569" y="501.625"/><rect fill="#FFFFFF" filter="url(#fzwm0xcao0563)" height="46.2656" style="stroke:#000000;stroke-width:2.0;" width="439" x="579" y="554.8906"/><line style="stroke:#A80036;stroke-width:1.0;stroke-dasharray:5.0,5.0;" x1="64" x2="64" y1="88.2969" y2="887.3516"/><line style="stroke:#A80036;stroke-width:1.0;stroke-dasharray:5.0,5.0;" x1="497" x2="497" y1="88.2969" y2="887.3516"/><line style="stroke:#A80036;stroke-width:1.0;stroke-dasharray:5.0,5.0;" x1="691" x2="691" y1="88.2969" y2="887.3516"/><line style="stroke:#A80036;stroke-width:1.0;stroke-dasharray:5.0,5.0;" x1="857" x2="857" y1="88.2969" y2="887.3516"/><line style="stroke:#A80036;stroke-width:1.0;stroke-dasharray:5.0,5.0;" x1="960" x2="960" y1="88.2969" y2="887.3516"/><line style="stroke:#A80036;stroke-width:1.0;stroke-dasharray:5.0,5.0;" x1="1380" x2="1380" y1="88.2969" y2="887.3516"/><line style="stroke:#A80036;stroke-width:1.0;stroke-dasharray:5.0,5.0;" x1="1443" x2="1443" y1="88.2969" y2="887.3516"/><line style="stroke:#A80036;stroke-width:1.0;stroke-dasharray:5.0,5.0;" x1="1855" x2="1855" y1="88.2969" y2="887.3516"/><line style="stroke:#A80036;stroke-width:1.0;stroke-dasharray:5.0,5.0;" x1="2023" x2="2023" y1="88.2969" y2="887.3516"/><line style="stroke:#A80036;stroke-width:1.0;stroke-dasharray:5.0,5.0;" x1="2142" x2="2142" y1="88.2969" y2="887.3516"/><line style="stroke:#A80036;stroke-width:1.0;stroke-dasharray:5.0,5.0;" x1="2292" x2="2292" y1="88.2969" y2="887.3516"/><text fill="#000000" font-family="sans-serif" font-size="14" lengthAdjust="spacing" textLength="112" x="5" y="84.9951">Traffic Manager</text><ellipse cx="64" cy="15" fill="#FEFECE" filter="url(#fzwm0xcao0563)" rx="8" ry="8" style="stroke:#A80036;stroke-width:2.0;"/><path d="M64,23 L64,50 M51,31 L77,31 M64,50 L51,65 M64,50 L77,65 " fill="none" filter="url(#fzwm0xcao0563)" style="stroke:#A80036;stroke-width:2.0;"/><text fill="#000000" font-family="sans-serif" font-size="14" lengthAdjust="spacing" textLength="112" x="5" y="899.3467">Traffic Manager</text><ellipse cx="64" cy="912.6484" fill="#FEFECE" filter="url(#fzwm0xcao0563)" rx="8" ry="8" style="stroke:#A80036;stroke-width:2.0;"/><path d="M64,920.6484 L64,947.6484 M51,928.6484 L77,928.6484 M64,947.6484 L51,962.6484 M64,947.6484 L77,962.6484 " fill="none" filter="url(#fzwm0xcao0563)" style="stroke:#A80036;stroke-width:2.0;"/><rect fill="#FEFECE" filter="url(#fzwm0xcao0563)" height="30.2969" style="stroke:#A80036;stroke-width:1.5;" width="160" x="415" y="53"/><text fill="#000000" font-family="sans-serif" font-size="14" lengthAdjust="spacing" textLength="146" x="422" y="72.9951">:SeeShipDetailsTest</text><rect fill="#FEFECE" filter="url(#fzwm0xcao0563)" height="30.2969" style="stroke:#A80036;stroke-width:1.5;" width="160" x="415" y="886.3516"/><text fill="#000000" font-family="sans-serif" font-size="14" lengthAdjust="spacing" textLength="146" x="422" y="906.3467">:SeeShipDetailsTest</text><rect fill="#FEFECE" filter="url(#fzwm0xcao0563)" height="30.2969" style="stroke:#A80036;stroke-width:1.5;" width="201" x="589" y="53"/><text fill="#000000" font-family="sans-serif" font-size="14" lengthAdjust="spacing" textLength="187" x="596" y="72.9951">:SeeShipDetailsController</text><rect fill="#FEFECE" filter="url(#fzwm0xcao0563)" height="30.2969" style="stroke:#A80036;stroke-width:1.5;" width="201" x="589" y="886.3516"/><text fill="#000000" font-family="sans-serif" font-size="14" lengthAdjust="spacing" textLength="187" x="596" y="906.3467">:SeeShipDetailsController</text><rect fill="#FEFECE" filter="url(#fzwm0xcao0563)" height="30.2969" style="stroke:#A80036;stroke-width:1.5;" width="87" x="812" y="53"/><text fill="#000000" font-family="sans-serif" font-size="14" lengthAdjust="spacing" textLength="73" x="819" y="72.9951">:Company</text><rect fill="#FEFECE" filter="url(#fzwm0xcao0563)" height="30.2969" style="stroke:#A80036;stroke-width:1.5;" width="87" x="812" y="886.3516"/><text fill="#000000" font-family="sans-serif" font-size="14" lengthAdjust="spacing" textLength="73" x="819" y="906.3467">:Company</text><rect fill="#FEFECE" filter="url(#fzwm0xcao0563)" height="30.2969" style="stroke:#A80036;stroke-width:1.5;" width="91" x="913" y="53"/><text fill="#000000" font-family="sans-serif" font-size="14" lengthAdjust="spacing" textLength="77" x="920" y="72.9951">:ShipStore</text><rect fill="#FEFECE" filter="url(#fzwm0xcao0563)" height="30.2969" style="stroke:#A80036;stroke-width:1.5;" width="91" x="913" y="886.3516"/><text fill="#000000" font-family="sans-serif" font-size="14" lengthAdjust="spacing" textLength="77" x="920" y="906.3467">:ShipStore</text><rect fill="#FEFECE" filter="url(#fzwm0xcao0563)" height="30.2969" style="stroke:#A80036;stroke-width:1.5;" width="47" x="1355" y="53"/><text fill="#000000" font-family="sans-serif" font-size="14" lengthAdjust="spacing" textLength="33" x="1362" y="72.9951">:AVL</text><rect fill="#FEFECE" filter="url(#fzwm0xcao0563)" height="30.2969" style="stroke:#A80036;stroke-width:1.5;" width="47" x="1355" y="886.3516"/><text fill="#000000" font-family="sans-serif" font-size="14" lengthAdjust="spacing" textLength="33" x="1362" y="906.3467">:AVL</text><rect fill="#FEFECE" filter="url(#fzwm0xcao0563)" height="30.2969" style="stroke:#A80036;stroke-width:1.5;" width="51" x="1416" y="53"/><text fill="#000000" font-family="sans-serif" font-size="14" lengthAdjust="spacing" textLength="37" x="1423" y="72.9951">:Ship</text><rect fill="#FEFECE" filter="url(#fzwm0xcao0563)" height="30.2969" style="stroke:#A80036;stroke-width:1.5;" width="51" x="1416" y="886.3516"/><text fill="#000000" font-family="sans-serif" font-size="14" lengthAdjust="spacing" textLength="37" x="1423" y="906.3467">:Ship</text><rect fill="#FEFECE" filter="url(#fzwm0xcao0563)" height="30.2969" style="stroke:#A80036;stroke-width:1.5;" width="159" x="1774" y="53"/><text fill="#000000" font-family="sans-serif" font-size="14" lengthAdjust="spacing" textLength="145" x="1781" y="72.9951">:ShipCharacteristics</text><rect fill="#FEFECE" filter="url(#fzwm0xcao0563)" height="30.2969" style="stroke:#A80036;stroke-width:1.5;" width="159" x="1774" y="886.3516"/><text fill="#000000" font-family="sans-serif" font-size="14" lengthAdjust="spacing" textLength="145" x="1781" y="906.3467">:ShipCharacteristics</text><rect fill="#FEFECE" filter="url(#fzwm0xcao0563)" height="30.2969" style="stroke:#A80036;stroke-width:1.5;" width="148" x="1947" y="53"/><text fill="#000000" font-family="sans-serif" font-size="14" lengthAdjust="spacing" textLength="134" x="1954" y="72.9951">:ShipIdentification</text><rect fill="#FEFECE" filter="url(#fzwm0xcao0563)" height="30.2969" style="stroke:#A80036;stroke-width:1.5;" width="148" x="1947" y="886.3516"/><text fill="#000000" font-family="sans-serif" font-size="14" lengthAdjust="spacing" textLength="134" x="1954" y="906.3467">:ShipIdentification</text><rect fill="#FEFECE" filter="url(#fzwm0xcao0563)" height="30.2969" style="stroke:#A80036;stroke-width:1.5;" width="62" x="2109" y="53"/><text fill="#000000" font-family="sans-serif" font-size="14" lengthAdjust="spacing" textLength="48" x="2116" y="72.9951">:Route</text><rect fill="#FEFECE" filter="url(#fzwm0xcao0563)" height="30.2969" style="stroke:#A80036;stroke-width:1.5;" width="62" x="2109" y="886.3516"/><text fill="#000000" font-family="sans-serif" font-size="14" lengthAdjust="spacing" textLength="48" x="2116" y="906.3467">:Route</text><rect fill="#FEFECE" filter="url(#fzwm0xcao0563)" height="30.2969" style="stroke:#A80036;stroke-width:1.5;" width="108" x="2236" y="53"/><text fill="#000000" font-family="sans-serif" font-size="14" lengthAdjust="spacing" textLength="94" x="2243" y="72.9951">ShipDynamic</text><rect fill="#FEFECE" filter="url(#fzwm0xcao0563)" height="30.2969" style="stroke:#A80036;stroke-width:1.5;" width="108" x="2236" y="886.3516"/><text fill="#000000" font-family="sans-serif" font-size="14" lengthAdjust="spacing" textLength="94" x="2243" y="906.3467">ShipDynamic</text><rect fill="#FFFFFF" filter="url(#fzwm0xcao0563)" height="771.0547" style="stroke:#A80036;stroke-width:1.0;" width="10" x="59" y="98.2969"/><rect fill="#FFFFFF" filter="url(#fzwm0xcao0563)" height="29.1328" style="stroke:#A80036;stroke-width:1.0;" width="10" x="492" y="119.4297"/><rect fill="#FFFFFF" filter="url(#fzwm0xcao0563)" height="691.6563" style="stroke:#A80036;stroke-width:1.0;" width="10" x="492" y="177.6953"/><rect fill="#FFFFFF" filter="url(#fzwm0xcao0563)" height="545.9922" style="stroke:#A80036;stroke-width:1.0;" width="10" x="686.5" y="206.8281"/><rect fill="#FFFFFF" filter="url(#fzwm0xcao0563)" height="30" style="stroke:#A80036;stroke-width:1.0;" width="10" x="852.5" y="235.9609"/><rect fill="#FFFFFF" filter="url(#fzwm0xcao0563)" height="320.0625" style="stroke:#A80036;stroke-width:1.0;" width="10" x="955.5" y="295.0938"/><rect fill="#FFFFFF" filter="url(#fzwm0xcao0563)" height="30" style="stroke:#A80036;stroke-width:1.0;" width="10" x="1438.5" y="348.3594"/><rect fill="#FFFFFF" filter="url(#fzwm0xcao0563)" height="30" style="stroke:#A80036;stroke-width:1.0;" width="10" x="1438.5" y="407.4922"/><rect fill="#FFFFFF" filter="url(#fzwm0xcao0563)" height="29.1328" style="stroke:#A80036;stroke-width:1.0;" width="10" x="1438.5" y="636.2891"/><rect fill="#FFFFFF" filter="url(#fzwm0xcao0563)" height="29.1328" style="stroke:#A80036;stroke-width:1.0;" width="10" x="1438.5" y="694.5547"/><rect fill="#FFFFFF" filter="url(#fzwm0xcao0563)" height="29.1328" style="stroke:#A80036;stroke-width:1.0;" width="10" x="1438.5" y="752.8203"/><rect fill="#FFFFFF" filter="url(#fzwm0xcao0563)" height="29.1328" style="stroke:#A80036;stroke-width:1.0;" width="10" x="1850.5" y="665.4219"/><rect fill="#FFFFFF" filter="url(#fzwm0xcao0563)" height="29.1328" style="stroke:#A80036;stroke-width:1.0;" width="10" x="2018" y="723.6875"/><rect fill="#FFFFFF" filter="url(#fzwm0xcao0563)" height="29.1328" style="stroke:#A80036;stroke-width:1.0;" width="10" x="2137" y="781.9531"/><rect fill="#FFFFFF" filter="url(#fzwm0xcao0563)" height="58.2656" style="stroke:#A80036;stroke-width:1.0;" width="10" x="2287" y="811.0859"/><polygon fill="#A80036" points="480,115.4297,490,119.4297,480,123.4297,484,119.4297" style="stroke:#A80036;stroke-width:1.0;"/><line style="stroke:#A80036;stroke-width:1.0;" x1="69" x2="486" y1="119.4297" y2="119.4297"/><text fill="#000000" font-family="sans-serif" font-size="13" font-weight="bold" lengthAdjust="spacing" textLength="9" x="76" y="114.3638">1</text><text fill="#000000" font-family="sans-serif" font-size="13" lengthAdjust="spacing" textLength="391" x="89" y="114.3638">chooses to search the details of a ship using any of its codes</text><polygon fill="#A80036" points="80,144.5625,70,148.5625,80,152.5625,76,148.5625" style="stroke:#A80036;stroke-width:1.0;"/><line style="stroke:#A80036;stroke-width:1.0;stroke-dasharray:2.0,2.0;" x1="74" x2="496" y1="148.5625" y2="148.5625"/><text fill="#000000" font-family="sans-serif" font-size="13" font-weight="bold" lengthAdjust="spacing" textLength="9" x="86" y="143.4966">2</text><text fill="#000000" font-family="sans-serif" font-size="13" lengthAdjust="spacing" textLength="324" x="99" y="143.4966">asks for input of the code for it to show the details</text><polygon fill="#A80036" points="480,173.6953,490,177.6953,480,181.6953,484,177.6953" style="stroke:#A80036;stroke-width:1.0;"/><line style="stroke:#A80036;stroke-width:1.0;" x1="69" x2="486" y1="177.6953" y2="177.6953"/><text fill="#000000" font-family="sans-serif" font-size="13" font-weight="bold" lengthAdjust="spacing" textLength="8" x="76" y="172.6294">3</text><text fill="#000000" font-family="sans-serif" font-size="13" lengthAdjust="spacing" textLength="171" x="88" y="172.6294">writes the code of the ship</text><polygon fill="#A80036" points="674.5,202.8281,684.5,206.8281,674.5,210.8281,678.5,206.8281" style="stroke:#A80036;stroke-width:1.0;"/><line style="stroke:#A80036;stroke-width:1.0;" x1="502" x2="680.5" y1="206.8281" y2="206.8281"/><text fill="#000000" font-family="sans-serif" font-size="13" font-weight="bold" lengthAdjust="spacing" textLength="9" x="509" y="201.7622">4</text><text fill="#000000" font-family="sans-serif" font-size="13" lengthAdjust="spacing" textLength="89" x="522" y="201.7622">getShip(code)</text><polygon fill="#A80036" points="840.5,231.9609,850.5,235.9609,840.5,239.9609,844.5,235.9609" style="stroke:#A80036;stroke-width:1.0;"/><line style="stroke:#A80036;stroke-width:1.0;" x1="696.5" x2="846.5" y1="235.9609" y2="235.9609"/><text fill="#000000" font-family="sans-serif" font-size="13" font-weight="bold" lengthAdjust="spacing" textLength="9" x="703.5" y="230.895">5</text><text fill="#000000" font-family="sans-serif" font-size="13" lengthAdjust="spacing" textLength="124" x="716.5" y="230.895">ss = getShipStore()</text><polygon fill="#A80036" points="943.5,291.0938,953.5,295.0938,943.5,299.0938,947.5,295.0938" style="stroke:#A80036;stroke-width:1.0;"/><line style="stroke:#A80036;stroke-width:1.0;" x1="696.5" x2="949.5" y1="295.0938" y2="295.0938"/><text fill="#000000" font-family="sans-serif" font-size="13" font-weight="bold" lengthAdjust="spacing" textLength="9" x="703.5" y="290.0278">6</text><text fill="#000000" font-family="sans-serif" font-size="13" lengthAdjust="spacing" textLength="198" x="716.5" y="290.0278">ship = ss.findShipDetails(code)</text><path d="M903,310.0938 L981,310.0938 L981,317.0938 L971,327.0938 L903,327.0938 L903,310.0938 " fill="#EEEEEE" style="stroke:#000000;stroke-width:1.0;"/><rect fill="none" height="135.3984" style="stroke:#000000;stroke-width:2.0;" width="578" x="903" y="310.0938"/><text fill="#000000" font-family="sans-serif" font-size="13" font-weight="bold" lengthAdjust="spacing" textLength="33" x="918" y="323.1606">loop</text><text fill="#000000" font-family="sans-serif" font-size="11" font-weight="bold" lengthAdjust="spacing" textLength="77" x="996" y="322.3042">[every ship]</text><polygon fill="#A80036" points="1426.5,344.3594,1436.5,348.3594,1426.5,352.3594,1430.5,348.3594" style="stroke:#A80036;stroke-width:1.0;"/><line style="stroke:#A80036;stroke-width:1.0;" x1="965.5" x2="1432.5" y1="348.3594" y2="348.3594"/><text fill="#000000" font-family="sans-serif" font-size="13" font-weight="bold" lengthAdjust="spacing" textLength="9" x="972.5" y="343.2935">7</text><text fill="#000000" font-family="sans-serif" font-size="13" lengthAdjust="spacing" textLength="168" x="985.5" y="343.2935">ship.setSearchCode(code)</text><polygon fill="#A80036" points="1426.5,403.4922,1436.5,407.4922,1426.5,411.4922,1430.5,407.4922" style="stroke:#A80036;stroke-width:1.0;"/><line style="stroke:#A80036;stroke-width:1.0;" x1="965.5" x2="1432.5" y1="407.4922" y2="407.4922"/><text fill="#000000" font-family="sans-serif" font-size="13" font-weight="bold" lengthAdjust="spacing" textLength="9" x="972.5" y="402.4263">8</text><text fill="#000000" font-family="sans-serif" font-size="13" lengthAdjust="spacing" textLength="112" x="985.5" y="402.4263">shipList.add(ship)</text><line style="stroke:#A80036;stroke-width:1.0;" x1="965.5" x2="1007.5" y1="473.625" y2="473.625"/><line style="stroke:#A80036;stroke-width:1.0;" x1="1007.5" x2="1007.5" y1="473.625" y2="486.625"/><line style="stroke:#A80036;stroke-width:1.0;" x1="966.5" x2="1007.5" y1="486.625" y2="486.625"/><polygon fill="#A80036" points="976.5,482.625,966.5,486.625,976.5,490.625,972.5,486.625" style="stroke:#A80036;stroke-width:1.0;"/><text fill="#000000" font-family="sans-serif" font-size="13" font-weight="bold" lengthAdjust="spacing" textLength="9" x="972.5" y="468.5591">9</text><text fill="#000000" font-family="sans-serif" font-size="13" lengthAdjust="spacing" textLength="383" x="985.5" y="468.5591">shipAVL = reorganizeShipAVLAccordingToTheCode(shipList)</text><path d="M569,501.625 L647,501.625 L647,508.625 L637,518.625 L569,518.625 L569,501.625 " fill="#EEEEEE" style="stroke:#000000;stroke-width:1.0;"/><rect fill="none" height="106.5313" style="stroke:#000000;stroke-width:2.0;" width="847" x="569" y="501.625"/><text fill="#000000" font-family="sans-serif" font-size="13" font-weight="bold" lengthAdjust="spacing" textLength="33" x="584" y="514.6919">loop</text><text fill="#000000" font-family="sans-serif" font-size="11" font-weight="bold" lengthAdjust="spacing" textLength="77" x="662" y="513.8354">[every ship]</text><polygon fill="#A80036" points="1368.5,535.8906,1378.5,539.8906,1368.5,543.8906,1372.5,539.8906" style="stroke:#A80036;stroke-width:1.0;"/><line style="stroke:#A80036;stroke-width:1.0;" x1="965.5" x2="1374.5" y1="539.8906" y2="539.8906"/><text fill="#000000" font-family="sans-serif" font-size="13" font-weight="bold" lengthAdjust="spacing" textLength="19" x="972.5" y="534.8247">10</text><text fill="#000000" font-family="sans-serif" font-size="13" lengthAdjust="spacing" textLength="116" x="995.5" y="534.8247">shipAVL.find(Ship)</text><path d="M579,554.8906 L645,554.8906 L645,561.8906 L635,571.8906 L579,571.8906 L579,554.8906 " fill="#EEEEEE" style="stroke:#000000;stroke-width:1.0;"/><rect fill="none" height="46.2656" style="stroke:#000000;stroke-width:2.0;" width="439" x="579" y="554.8906"/><text fill="#000000" font-family="sans-serif" font-size="13" font-weight="bold" lengthAdjust="spacing" textLength="21" x="594" y="567.9575">alt</text><text fill="#000000" font-family="sans-serif" font-size="11" font-weight="bold" lengthAdjust="spacing" textLength="102" x="660" y="567.1011">[if(ship found)]</text><polygon fill="#A80036" points="707.5,589.1563,697.5,593.1563,707.5,597.1563,703.5,593.1563" style="stroke:#A80036;stroke-width:1.0;"/><line style="stroke:#A80036;stroke-width:1.0;" x1="701.5" x2="954.5" y1="593.1563" y2="593.1563"/><text fill="#000000" font-family="sans-serif" font-size="13" font-weight="bold" lengthAdjust="spacing" textLength="18" x="713.5" y="588.0903">11</text><text fill="#000000" font-family="sans-serif" font-size="13" lengthAdjust="spacing" textLength="26" x="735.5" y="588.0903">ship</text><polygon fill="#A80036" points="1426.5,632.2891,1436.5,636.2891,1426.5,640.2891,1430.5,636.2891" style="stroke:#A80036;stroke-width:1.0;"/><line style="stroke:#A80036;stroke-width:1.0;" x1="696.5" x2="1432.5" y1="636.2891" y2="636.2891"/><text fill="#000000" font-family="sans-serif" font-size="13" font-weight="bold" lengthAdjust="spacing" textLength="18" x="703.5" y="631.2231">12</text><text fill="#000000" font-family="sans-serif" font-size="13" lengthAdjust="spacing" textLength="294" x="725.5" y="631.2231">characteristics = ship.getShipCharacteristics()</text><polygon fill="#A80036" points="1838.5,661.4219,1848.5,665.4219,1838.5,669.4219,1842.5,665.4219" style="stroke:#A80036;stroke-width:1.0;"/><line style="stroke:#A80036;stroke-width:1.0;" x1="1443.5" x2="1844.5" y1="665.4219" y2="665.4219"/><text fill="#000000" font-family="sans-serif" font-size="13" font-weight="bold" lengthAdjust="spacing" textLength="17" x="1450.5" y="660.356">13</text><text fill="#000000" font-family="sans-serif" font-size="13" lengthAdjust="spacing" textLength="362" x="1471.5" y="660.356">shipCharacteristics = characteristics.getCharacteristics()</text><polygon fill="#A80036" points="1426.5,690.5547,1436.5,694.5547,1426.5,698.5547,1430.5,694.5547" style="stroke:#A80036;stroke-width:1.0;"/><line style="stroke:#A80036;stroke-width:1.0;" x1="696.5" x2="1432.5" y1="694.5547" y2="694.5547"/><text fill="#000000" font-family="sans-serif" font-size="13" font-weight="bold" lengthAdjust="spacing" textLength="18" x="703.5" y="689.4888">14</text><text fill="#000000" font-family="sans-serif" font-size="13" lengthAdjust="spacing" textLength="143" x="725.5" y="689.4888">ship.getIdentification()</text><polygon fill="#A80036" points="2006,719.6875,2016,723.6875,2006,727.6875,2010,723.6875" style="stroke:#A80036;stroke-width:1.0;"/><line style="stroke:#A80036;stroke-width:1.0;" x1="1443.5" x2="2012" y1="723.6875" y2="723.6875"/><text fill="#000000" font-family="sans-serif" font-size="13" font-weight="bold" lengthAdjust="spacing" textLength="18" x="1450.5" y="718.6216">15</text><text fill="#000000" font-family="sans-serif" font-size="13" lengthAdjust="spacing" textLength="239" x="1472.5" y="718.6216">id = characteristics.getIdentification()</text><polygon fill="#A80036" points="1426.5,748.8203,1436.5,752.8203,1426.5,756.8203,1430.5,752.8203" style="stroke:#A80036;stroke-width:1.0;"/><line style="stroke:#A80036;stroke-width:1.0;" x1="691.5" x2="1432.5" y1="752.8203" y2="752.8203"/><text fill="#000000" font-family="sans-serif" font-size="13" font-weight="bold" lengthAdjust="spacing" textLength="18" x="698.5" y="747.7544">16</text><text fill="#000000" font-family="sans-serif" font-size="13" lengthAdjust="spacing" textLength="99" x="720.5" y="747.7544">ship.getRoute()</text><polygon fill="#A80036" points="2125,777.9531,2135,781.9531,2125,785.9531,2129,781.9531" style="stroke:#A80036;stroke-width:1.0;"/><line style="stroke:#A80036;stroke-width:1.0;" x1="1443.5" x2="2131" y1="781.9531" y2="781.9531"/><text fill="#000000" font-family="sans-serif" font-size="13" font-weight="bold" lengthAdjust="spacing" textLength="18" x="1450.5" y="776.8872">17</text><text fill="#000000" font-family="sans-serif" font-size="13" lengthAdjust="spacing" textLength="99" x="1472.5" y="776.8872">ship.getRoute()</text><polygon fill="#A80036" points="2275,807.0859,2285,811.0859,2275,815.0859,2279,811.0859" style="stroke:#A80036;stroke-width:1.0;"/><line style="stroke:#A80036;stroke-width:1.0;" x1="2142" x2="2281" y1="811.0859" y2="811.0859"/><text fill="#000000" font-family="sans-serif" font-size="13" font-weight="bold" lengthAdjust="spacing" textLength="18" x="2149" y="806.02">18</text><text fill="#000000" font-family="sans-serif" font-size="13" lengthAdjust="spacing" textLength="99" x="2171" y="806.02">ship.getRoute()</text><polygon fill="#A80036" points="513,836.2188,503,840.2188,513,844.2188,509,840.2188" style="stroke:#A80036;stroke-width:1.0;"/><line style="stroke:#A80036;stroke-width:1.0;stroke-dasharray:2.0,2.0;" x1="507" x2="690.5" y1="840.2188" y2="840.2188"/><text fill="#000000" font-family="sans-serif" font-size="13" font-weight="bold" lengthAdjust="spacing" textLength="18" x="519" y="835.1528">19</text><text fill="#000000" font-family="sans-serif" font-size="13" lengthAdjust="spacing" textLength="0" x="545" y="835.1528"/><polygon fill="#A80036" points="75,865.3516,65,869.3516,75,873.3516,71,869.3516" style="stroke:#A80036;stroke-width:1.0;"/><line style="stroke:#A80036;stroke-width:1.0;stroke-dasharray:2.0,2.0;" x1="69" x2="496" y1="869.3516" y2="869.3516"/><text fill="#000000" font-family="sans-serif" font-size="13" font-weight="bold" lengthAdjust="spacing" textLength="19" x="81" y="864.2856">20</text><text fill="#000000" font-family="sans-serif" font-size="13" lengthAdjust="spacing" textLength="279" x="104" y="864.2856">shows the information for the ship selected</text><!--MD5=[1a3af594a4447918f2274cb4b438a84c]
@startuml
autonumber
actor "Traffic Manager" as TECH

participant ":SeeShipDetailsTest" as UI
participant ":SeeShipDetailsController" as CTRL
participant ":Company" as CMP
participant ":ShipStore" as CLTLIST
participant ":AVL" as AVL
participant ":Ship" as SHIP
participant ":ShipCharacteristics" as ShipCharacteristics
participant ":ShipIdentification" as ShipIdentification
participant ":Route" as Route




activate TECH
TECH-> UI : chooses to search the details of a ship using any of its codes
activate UI

UI - -> TECH: asks for input of the code for it to show the details
deactivate CTRL
deactivate UI

TECH-> UI : writes the code of the ship
activate UI
UI -> CTRL : getShip(code)
activate CTRL

CTRL -> CMP: ss = getShipStore()
activate CMP
deactivate CMP

CTRL -> CLTLIST: ship = ss.findShipDetails(code)
activate CLTLIST

loop every ship
CLTLIST -> SHIP: ship.setSearchCode(code)
activate SHIP
deactivate SHIP

CLTLIST -> SHIP: shipList.add(ship)
activate SHIP
deactivate SHIP


end for

CLTLIST -> CLTLIST : shipAVL = reorganizeShipAVLAccordingToTheCode(shipList)

loop every ship
CLTLIST -> AVL: shipAVL.find(Ship)
alt if(ship found)
CLTLIST -> CTRL: ship
end
end for
deactivate SHIP
deactivate CLTLIST

CTRL -> SHIP: characteristics = ship.getShipCharacteristics()

activate SHIP


SHIP-> ShipCharacteristics: shipCharacteristics = characteristics.getCharacteristics()
deactivate SHIP
activate ShipCharacteristics


CTRL -> SHIP: ship.getIdentification()
deactivate ShipCharacteristics
activate SHIP
SHIP-> ShipIdentification: id = characteristics.getIdentification()
deactivate SHIP
activate ShipIdentification


CTRL -> SHIP: ship.getRoute()
deactivate ShipIdentification
deactivate CTRL
activate SHIP


SHIP -> Route: ship.getRoute()
deactivate SHIP
activate Route
deactivate CTRL


Route -> ShipDynamic: ship.getRoute()
deactivate Route
deactivate SHIP
activate ShipDynamic


CTRL - -> UI
deactivate CTRL

UI - -> TECH : shows the information for the ship selected
deactivate CTRL
deactivate ShipDynamic
deactivate SHIP









deactivate CLTLIST

deactivate UI
deactivate TECH
@enduml

PlantUML version 1.2021.14(Fri Nov 12 16:46:50 UTC 2021)
(GPL source distribution)
Java Runtime: Java(TM) SE Runtime Environment
JVM: Java HotSpot(TM) 64-Bit Server VM
Default Encoding: UTF-8
Language: en
Country: US
--></g></svg>