<?xml version="1.0" encoding="UTF-8" standalone="no"?><svg xmlns="http://www.w3.org/2000/svg" xmlns:xlink="http://www.w3.org/1999/xlink" contentScriptType="application/ecmascript" contentStyleType="text/css" height="94px" preserveAspectRatio="none" style="width:575px;height:94px;background:#FFFFFF;" version="1.1" viewBox="0 0 575 94" width="575px" zoomAndPan="magnify"><defs><filter height="300%" id="ff80z9do2ffw" width="300%" x="-1" y="-1"><feGaussianBlur result="blurOut" stdDeviation="2.0"/><feColorMatrix in="blurOut" result="blurOut2" type="matrix" values="0 0 0 0 0 0 0 0 0 0 0 0 0 0 0 0 0 0 .4 0"/><feOffset dx="4.0" dy="4.0" in="blurOut2" result="blurOut3"/><feBlend in="SourceGraphic" in2="blurOut3" mode="normal"/></filter></defs><g><!--MD5=[34c64e9203415ce197d7264914d12b34]
class ShipDB--><rect codeLine="4" fill="#FEFECE" filter="url(#ff80z9do2ffw)" height="60.8047" id="ShipDB" style="stroke:#A80036;stroke-width:1.5;" width="162" x="229" y="13.5"/><ellipse cx="284.25" cy="29.5" fill="#ADD1B2" rx="11" ry="11" style="stroke:#A80036;stroke-width:1.0;"/><path d="M286.5938,25.1719 C285.6563,24.7344 285.0625,24.5938 284.1875,24.5938 C281.5625,24.5938 279.5625,26.6719 279.5625,29.3906 L279.5625,30.5156 C279.5625,33.0938 281.6719,34.9844 284.5625,34.9844 C285.7813,34.9844 286.9375,34.6875 287.6875,34.1406 C288.2656,33.7344 288.5938,33.2813 288.5938,32.8906 C288.5938,32.4375 288.2031,32.0469 287.7344,32.0469 C287.5156,32.0469 287.3125,32.125 287.125,32.3125 C286.6719,32.7969 286.6719,32.7969 286.4844,32.8906 C286.0625,33.1563 285.375,33.2813 284.6094,33.2813 C282.5625,33.2813 281.2656,32.1875 281.2656,30.4844 L281.2656,29.3906 C281.2656,27.6094 282.5156,26.2969 284.25,26.2969 C284.8281,26.2969 285.4375,26.4531 285.9063,26.7031 C286.3906,26.9844 286.5625,27.2031 286.6563,27.6094 C286.7188,28.0156 286.75,28.1406 286.8906,28.2656 C287.0313,28.4063 287.2656,28.5156 287.4844,28.5156 C287.75,28.5156 288.0156,28.375 288.1875,28.1563 C288.2969,28 288.3281,27.8125 288.3281,27.3906 L288.3281,25.9688 C288.3281,25.5313 288.3125,25.4063 288.2188,25.25 C288.0625,24.9844 287.7813,24.8438 287.4844,24.8438 C287.1875,24.8438 286.9844,24.9375 286.7656,25.25 L286.5938,25.1719 Z " fill="#000000"/><text fill="#000000" font-family="sans-serif" font-size="12" lengthAdjust="spacing" textLength="43" x="304.75" y="33.6543">ShipDB</text><line style="stroke:#A80036;stroke-width:1.5;" x1="230" x2="390" y1="45.5" y2="45.5"/><line style="stroke:#A80036;stroke-width:1.5;" x1="230" x2="390" y1="53.5" y2="53.5"/><text fill="#000000" font-family="sans-serif" font-size="11" lengthAdjust="spacing" textLength="150" x="235" y="67.7104">+getShipIdleDays(idFleet)</text><!--MD5=[7add27b2f9020d8c12774194dab4eefd]
class ShipIdleDays--><rect codeLine="8" fill="#FEFECE" filter="url(#ff80z9do2ffw)" height="73.6094" id="ShipIdleDays" style="stroke:#A80036;stroke-width:1.5;" width="110" x="451" y="7"/><ellipse cx="466" cy="23" fill="#ADD1B2" rx="11" ry="11" style="stroke:#A80036;stroke-width:1.0;"/><path d="M468.3438,18.6719 C467.4063,18.2344 466.8125,18.0938 465.9375,18.0938 C463.3125,18.0938 461.3125,20.1719 461.3125,22.8906 L461.3125,24.0156 C461.3125,26.5938 463.4219,28.4844 466.3125,28.4844 C467.5313,28.4844 468.6875,28.1875 469.4375,27.6406 C470.0156,27.2344 470.3438,26.7813 470.3438,26.3906 C470.3438,25.9375 469.9531,25.5469 469.4844,25.5469 C469.2656,25.5469 469.0625,25.625 468.875,25.8125 C468.4219,26.2969 468.4219,26.2969 468.2344,26.3906 C467.8125,26.6563 467.125,26.7813 466.3594,26.7813 C464.3125,26.7813 463.0156,25.6875 463.0156,23.9844 L463.0156,22.8906 C463.0156,21.1094 464.2656,19.7969 466,19.7969 C466.5781,19.7969 467.1875,19.9531 467.6563,20.2031 C468.1406,20.4844 468.3125,20.7031 468.4063,21.1094 C468.4688,21.5156 468.5,21.6406 468.6406,21.7656 C468.7813,21.9063 469.0156,22.0156 469.2344,22.0156 C469.5,22.0156 469.7656,21.875 469.9375,21.6563 C470.0469,21.5 470.0781,21.3125 470.0781,20.8906 L470.0781,19.4688 C470.0781,19.0313 470.0625,18.9063 469.9688,18.75 C469.8125,18.4844 469.5313,18.3438 469.2344,18.3438 C468.9375,18.3438 468.7344,18.4375 468.5156,18.75 L468.3438,18.6719 Z " fill="#000000"/><text fill="#000000" font-family="sans-serif" font-size="12" lengthAdjust="spacing" textLength="78" x="480" y="27.1543">ShipIdleDays</text><line style="stroke:#A80036;stroke-width:1.5;" x1="452" x2="560" y1="39" y2="39"/><text fill="#000000" font-family="sans-serif" font-size="11" lengthAdjust="spacing" textLength="35" x="457" y="53.2104">-mmsi</text><text fill="#000000" font-family="sans-serif" font-size="11" lengthAdjust="spacing" textLength="54" x="457" y="66.0151">-idleTime</text><line style="stroke:#A80036;stroke-width:1.5;" x1="452" x2="560" y1="72.6094" y2="72.6094"/><!--MD5=[fd44e20312019457c0c6dfca70838504]
class ShipIdleController--><rect codeLine="14" fill="#FEFECE" filter="url(#ff80z9do2ffw)" height="60.8047" id="ShipIdleController" style="stroke:#A80036;stroke-width:1.5;" width="162" x="7" y="13.5"/><ellipse cx="32.35" cy="29.5" fill="#ADD1B2" rx="11" ry="11" style="stroke:#A80036;stroke-width:1.0;"/><path d="M34.6938,25.1719 C33.7563,24.7344 33.1625,24.5938 32.2875,24.5938 C29.6625,24.5938 27.6625,26.6719 27.6625,29.3906 L27.6625,30.5156 C27.6625,33.0938 29.7719,34.9844 32.6625,34.9844 C33.8813,34.9844 35.0375,34.6875 35.7875,34.1406 C36.3656,33.7344 36.6938,33.2813 36.6938,32.8906 C36.6938,32.4375 36.3031,32.0469 35.8344,32.0469 C35.6156,32.0469 35.4125,32.125 35.225,32.3125 C34.7719,32.7969 34.7719,32.7969 34.5844,32.8906 C34.1625,33.1563 33.475,33.2813 32.7094,33.2813 C30.6625,33.2813 29.3656,32.1875 29.3656,30.4844 L29.3656,29.3906 C29.3656,27.6094 30.6156,26.2969 32.35,26.2969 C32.9281,26.2969 33.5375,26.4531 34.0063,26.7031 C34.4906,26.9844 34.6625,27.2031 34.7563,27.6094 C34.8188,28.0156 34.85,28.1406 34.9906,28.2656 C35.1313,28.4063 35.3656,28.5156 35.5844,28.5156 C35.85,28.5156 36.1156,28.375 36.2875,28.1563 C36.3969,28 36.4281,27.8125 36.4281,27.3906 L36.4281,25.9688 C36.4281,25.5313 36.4125,25.4063 36.3188,25.25 C36.1625,24.9844 35.8813,24.8438 35.5844,24.8438 C35.2875,24.8438 35.0844,24.9375 34.8656,25.25 L34.6938,25.1719 Z " fill="#000000"/><text fill="#000000" font-family="sans-serif" font-size="12" lengthAdjust="spacing" textLength="107" x="48.65" y="33.6543">ShipIdleController</text><line style="stroke:#A80036;stroke-width:1.5;" x1="8" x2="168" y1="45.5" y2="45.5"/><line style="stroke:#A80036;stroke-width:1.5;" x1="8" x2="168" y1="53.5" y2="53.5"/><text fill="#000000" font-family="sans-serif" font-size="11" lengthAdjust="spacing" textLength="150" x="13" y="67.7104">+getShipIdleDays(idFleet)</text><!--MD5=[fd1be2ff9740159f5d774fe6e88609f8]
link ShipIdleController to ShipDB--><path codeLine="19" d="M169.047,44 C186.791,44 205.66,44 223.607,44 " fill="none" id="ShipIdleController-to-ShipDB" style="stroke:#A80036;stroke-width:1.0;"/><polygon fill="#A80036" points="228.644,44,219.644,40,223.644,44,219.644,48,228.644,44" style="stroke:#A80036;stroke-width:1.0;"/><!--MD5=[ac1bcc0274f312969eade5a04b1a7cb7]
link ShipDB to ShipIdleDays--><path codeLine="20" d="M391.027,44 C409.283,44 428.366,44 445.582,44 " fill="none" id="ShipDB-to-ShipIdleDays" style="stroke:#A80036;stroke-width:1.0;"/><polygon fill="#A80036" points="450.861,44,441.861,40,445.861,44,441.861,48,450.861,44" style="stroke:#A80036;stroke-width:1.0;"/><!--MD5=[2b1404076bd3c0c1a668c73144e31fa7]
@startuml
skinparam classAttributeIconSize 0
left to right direction

class ShipDB {
 +getShipIdleDays(idFleet)
}

class ShipIdleDays {
 -mmsi
 -idleTime
}


class ShipIdleController {
  +getShipIdleDays(idFleet)
}


ShipIdleController - ->  ShipDB
ShipDB - -> ShipIdleDays
@enduml

PlantUML version 1.2022.1beta4(Unknown compile time)
(GPL source distribution)
Java Runtime: Java(TM) SE Runtime Environment
JVM: Java HotSpot(TM) 64-Bit Server VM
Default Encoding: UTF-8
Language: en
Country: US
--></g></svg>