<?xml version="1.0" encoding="UTF-8" standalone="no"?><svg xmlns="http://www.w3.org/2000/svg" xmlns:xlink="http://www.w3.org/1999/xlink" contentScriptType="application/ecmascript" contentStyleType="text/css" height="258px" preserveAspectRatio="none" style="width:424px;height:258px;background:#FFFFFF;" version="1.1" viewBox="0 0 424 258" width="424px" zoomAndPan="magnify"><defs><filter height="300%" id="fayw30ywm8xid" width="300%" x="-1" y="-1"><feGaussianBlur result="blurOut" stdDeviation="2.0"/><feColorMatrix in="blurOut" result="blurOut2" type="matrix" values="0 0 0 0 0 0 0 0 0 0 0 0 0 0 0 0 0 0 .4 0"/><feOffset dx="4.0" dy="4.0" in="blurOut2" result="blurOut3"/><feBlend in="SourceGraphic" in2="blurOut3" mode="normal"/></filter></defs><g><!--MD5=[0dc7f2ddb409b58bcf52b12238c25399]
class Ship--><rect codeLine="4" fill="#FEFECE" filter="url(#fayw30ywm8xid)" height="86.4141" id="Ship" style="stroke:#A80036;stroke-width:1.5;" width="58" x="352.5" y="158"/><ellipse cx="367.5" cy="174" fill="#ADD1B2" rx="11" ry="11" style="stroke:#A80036;stroke-width:1.0;"/><path d="M369.8438,169.6719 C368.9063,169.2344 368.3125,169.0938 367.4375,169.0938 C364.8125,169.0938 362.8125,171.1719 362.8125,173.8906 L362.8125,175.0156 C362.8125,177.5938 364.9219,179.4844 367.8125,179.4844 C369.0313,179.4844 370.1875,179.1875 370.9375,178.6406 C371.5156,178.2344 371.8438,177.7813 371.8438,177.3906 C371.8438,176.9375 371.4531,176.5469 370.9844,176.5469 C370.7656,176.5469 370.5625,176.625 370.375,176.8125 C369.9219,177.2969 369.9219,177.2969 369.7344,177.3906 C369.3125,177.6563 368.625,177.7813 367.8594,177.7813 C365.8125,177.7813 364.5156,176.6875 364.5156,174.9844 L364.5156,173.8906 C364.5156,172.1094 365.7656,170.7969 367.5,170.7969 C368.0781,170.7969 368.6875,170.9531 369.1563,171.2031 C369.6406,171.4844 369.8125,171.7031 369.9063,172.1094 C369.9688,172.5156 370,172.6406 370.1406,172.7656 C370.2813,172.9063 370.5156,173.0156 370.7344,173.0156 C371,173.0156 371.2656,172.875 371.4375,172.6563 C371.5469,172.5 371.5781,172.3125 371.5781,171.8906 L371.5781,170.4688 C371.5781,170.0313 371.5625,169.9063 371.4688,169.75 C371.3125,169.4844 371.0313,169.3438 370.7344,169.3438 C370.4375,169.3438 370.2344,169.4375 370.0156,169.75 L369.8438,169.6719 Z " fill="#000000"/><text fill="#000000" font-family="sans-serif" font-size="12" lengthAdjust="spacing" textLength="26" x="381.5" y="178.1543">Ship</text><line style="stroke:#A80036;stroke-width:1.5;" x1="353.5" x2="409.5" y1="190" y2="190"/><text fill="#000000" font-family="sans-serif" font-size="11" lengthAdjust="spacing" textLength="35" x="358.5" y="204.2104">-mmsi</text><text fill="#000000" font-family="sans-serif" font-size="11" lengthAdjust="spacing" textLength="25" x="358.5" y="217.0151">-imo</text><text fill="#000000" font-family="sans-serif" font-size="11" lengthAdjust="spacing" textLength="9" x="358.5" y="229.8198">...</text><line style="stroke:#A80036;stroke-width:1.5;" x1="353.5" x2="409.5" y1="236.4141" y2="236.4141"/><!--MD5=[7add27b2f9020d8c12774194dab4eefd]
class ShipIdleDays--><rect codeLine="10" fill="#FEFECE" filter="url(#fayw30ywm8xid)" height="60.8047" id="ShipIdleDays" style="stroke:#A80036;stroke-width:1.5;" width="157" x="7" y="170.5"/><ellipse cx="43.15" cy="186.5" fill="#ADD1B2" rx="11" ry="11" style="stroke:#A80036;stroke-width:1.0;"/><path d="M45.4938,182.1719 C44.5563,181.7344 43.9625,181.5938 43.0875,181.5938 C40.4625,181.5938 38.4625,183.6719 38.4625,186.3906 L38.4625,187.5156 C38.4625,190.0938 40.5719,191.9844 43.4625,191.9844 C44.6813,191.9844 45.8375,191.6875 46.5875,191.1406 C47.1656,190.7344 47.4938,190.2813 47.4938,189.8906 C47.4938,189.4375 47.1031,189.0469 46.6344,189.0469 C46.4156,189.0469 46.2125,189.125 46.025,189.3125 C45.5719,189.7969 45.5719,189.7969 45.3844,189.8906 C44.9625,190.1563 44.275,190.2813 43.5094,190.2813 C41.4625,190.2813 40.1656,189.1875 40.1656,187.4844 L40.1656,186.3906 C40.1656,184.6094 41.4156,183.2969 43.15,183.2969 C43.7281,183.2969 44.3375,183.4531 44.8063,183.7031 C45.2906,183.9844 45.4625,184.2031 45.5563,184.6094 C45.6188,185.0156 45.65,185.1406 45.7906,185.2656 C45.9313,185.4063 46.1656,185.5156 46.3844,185.5156 C46.65,185.5156 46.9156,185.375 47.0875,185.1563 C47.1969,185 47.2281,184.8125 47.2281,184.3906 L47.2281,182.9688 C47.2281,182.5313 47.2125,182.4063 47.1188,182.25 C46.9625,181.9844 46.6813,181.8438 46.3844,181.8438 C46.0875,181.8438 45.8844,181.9375 45.6656,182.25 L45.4938,182.1719 Z " fill="#000000"/><text fill="#000000" font-family="sans-serif" font-size="12" lengthAdjust="spacing" textLength="78" x="61.85" y="190.6543">ShipIdleDays</text><line style="stroke:#A80036;stroke-width:1.5;" x1="8" x2="163" y1="202.5" y2="202.5"/><line style="stroke:#A80036;stroke-width:1.5;" x1="8" x2="163" y1="210.5" y2="210.5"/><text fill="#000000" font-family="sans-serif" font-size="11" lengthAdjust="spacing" textLength="145" x="13" y="224.7104">-getShipIdleDays(idFleet)</text><!--MD5=[019a73386217e12d5bb8e34bf0b46b9e]
class FleetManager--><rect codeLine="14" fill="#FEFECE" filter="url(#fayw30ywm8xid)" height="73.6094" id="FleetManager" style="stroke:#A80036;stroke-width:1.5;" width="114" x="28.5" y="7"/><ellipse cx="43.5" cy="23" fill="#ADD1B2" rx="11" ry="11" style="stroke:#A80036;stroke-width:1.0;"/><path d="M45.8438,18.6719 C44.9063,18.2344 44.3125,18.0938 43.4375,18.0938 C40.8125,18.0938 38.8125,20.1719 38.8125,22.8906 L38.8125,24.0156 C38.8125,26.5938 40.9219,28.4844 43.8125,28.4844 C45.0313,28.4844 46.1875,28.1875 46.9375,27.6406 C47.5156,27.2344 47.8438,26.7813 47.8438,26.3906 C47.8438,25.9375 47.4531,25.5469 46.9844,25.5469 C46.7656,25.5469 46.5625,25.625 46.375,25.8125 C45.9219,26.2969 45.9219,26.2969 45.7344,26.3906 C45.3125,26.6563 44.625,26.7813 43.8594,26.7813 C41.8125,26.7813 40.5156,25.6875 40.5156,23.9844 L40.5156,22.8906 C40.5156,21.1094 41.7656,19.7969 43.5,19.7969 C44.0781,19.7969 44.6875,19.9531 45.1563,20.2031 C45.6406,20.4844 45.8125,20.7031 45.9063,21.1094 C45.9688,21.5156 46,21.6406 46.1406,21.7656 C46.2813,21.9063 46.5156,22.0156 46.7344,22.0156 C47,22.0156 47.2656,21.875 47.4375,21.6563 C47.5469,21.5 47.5781,21.3125 47.5781,20.8906 L47.5781,19.4688 C47.5781,19.0313 47.5625,18.9063 47.4688,18.75 C47.3125,18.4844 47.0313,18.3438 46.7344,18.3438 C46.4375,18.3438 46.2344,18.4375 46.0156,18.75 L45.8438,18.6719 Z " fill="#000000"/><text fill="#000000" font-family="sans-serif" font-size="12" lengthAdjust="spacing" textLength="82" x="57.5" y="27.1543">FleetManager</text><line style="stroke:#A80036;stroke-width:1.5;" x1="29.5" x2="141.5" y1="39" y2="39"/><text fill="#000000" font-family="sans-serif" font-size="11" lengthAdjust="spacing" textLength="39" x="34.5" y="53.2104">-userId</text><text fill="#000000" font-family="sans-serif" font-size="11" lengthAdjust="spacing" textLength="37" x="34.5" y="66.0151">-name</text><line style="stroke:#A80036;stroke-width:1.5;" x1="29.5" x2="141.5" y1="72.6094" y2="72.6094"/><!--MD5=[8cb51f87f88a35e78dc50f31cd8e8212]
link FleetManager to ShipIdleDays--><path codeLine="19" d="M85.5,81.341 C85.5,106.652 85.5,140.216 85.5,165.1867 " fill="none" id="FleetManager-to-ShipIdleDays" style="stroke:#A80036;stroke-width:1.0;"/><polygon fill="#A80036" points="85.5,170.3787,89.5,161.3787,85.5,165.3787,81.5,161.3787,85.5,170.3787" style="stroke:#A80036;stroke-width:1.0;"/><text fill="#000000" font-family="sans-serif" font-size="13" lengthAdjust="spacing" textLength="94" x="86.5" y="124.0669">in current year</text><text fill="#000000" font-family="sans-serif" font-size="13" lengthAdjust="spacing" textLength="8" x="76.8625" y="100.5961">1</text><text fill="#000000" font-family="sans-serif" font-size="13" lengthAdjust="spacing" textLength="19" x="64.5406" y="159.6169">1 *</text><!--MD5=[d2b6d236c68163df8982aaca184689b9]
link ShipIdleDays to Ship--><path codeLine="20" d="M164.045,201 C223.624,201 302.623,201 347.152,201 " fill="none" id="ShipIdleDays-to-Ship" style="stroke:#A80036;stroke-width:1.0;"/><polygon fill="#A80036" points="352.408,201,343.408,197,347.408,201,343.408,205,352.408,201" style="stroke:#A80036;stroke-width:1.0;"/><text fill="#000000" font-family="sans-serif" font-size="13" lengthAdjust="spacing" textLength="152" x="182.25" y="194.0669">gets ships and idle time</text><text fill="#000000" font-family="sans-serif" font-size="13" lengthAdjust="spacing" textLength="8" x="171.9126" y="197.3677">1</text><text fill="#000000" font-family="sans-serif" font-size="13" lengthAdjust="spacing" textLength="19" x="325.4484" y="214.5848">1 *</text><!--MD5=[0cc05c0d5ee76256bd6dcafea245c5eb]
@startuml
skinparam classAttributeIconSize 0


class Ship {
  -mmsi
  -imo
...
}

class ShipIdleDays {
-getShipIdleDays(idFleet)
}

class FleetManager {
-userId
-name
}

FleetManager "1" - -> "1 *" ShipIdleDays : in current year
ShipIdleDays "1" -> "1 *" Ship : gets ships and idle time
@enduml

PlantUML version 1.2022.1beta4(Unknown compile time)
(GPL source distribution)
Java Runtime: Java(TM) SE Runtime Environment
JVM: Java HotSpot(TM) 64-Bit Server VM
Default Encoding: UTF-8
Language: en
Country: US
--></g></svg>