<?xml version="1.0" encoding="UTF-8" standalone="no"?><svg xmlns="http://www.w3.org/2000/svg" xmlns:xlink="http://www.w3.org/1999/xlink" contentScriptType="application/ecmascript" contentStyleType="text/css" height="368px" preserveAspectRatio="none" style="width:750px;height:368px;background:#FFFFFF;" version="1.1" viewBox="0 0 750 368" width="750px" zoomAndPan="magnify"><defs><filter height="300%" id="f1s8kx66thpzuk" width="300%" x="-1" y="-1"><feGaussianBlur result="blurOut" stdDeviation="2.0"/><feColorMatrix in="blurOut" result="blurOut2" type="matrix" values="0 0 0 0 0 0 0 0 0 0 0 0 0 0 0 0 0 0 .4 0"/><feOffset dx="4.0" dy="4.0" in="blurOut2" result="blurOut3"/><feBlend in="SourceGraphic" in2="blurOut3" mode="normal"/></filter></defs><g><rect fill="#FFFFFF" filter="url(#f1s8kx66thpzuk)" height="167.6641" style="stroke:#A80036;stroke-width:1.0;" width="10" x="52" y="98.2969"/><rect fill="#FFFFFF" filter="url(#f1s8kx66thpzuk)" height="146.5313" style="stroke:#A80036;stroke-width:1.0;" width="10" x="187" y="119.4297"/><rect fill="#FFFFFF" filter="url(#f1s8kx66thpzuk)" height="88.2656" style="stroke:#A80036;stroke-width:1.0;" width="10" x="384" y="148.5625"/><rect fill="#FFFFFF" filter="url(#f1s8kx66thpzuk)" height="30" style="stroke:#A80036;stroke-width:1.0;" width="10" x="580" y="177.6953"/><line style="stroke:#A80036;stroke-width:1.0;stroke-dasharray:5.0,5.0;" x1="57" x2="57" y1="88.2969" y2="283.9609"/><line style="stroke:#A80036;stroke-width:1.0;stroke-dasharray:5.0,5.0;" x1="191.5" x2="191.5" y1="88.2969" y2="283.9609"/><line style="stroke:#A80036;stroke-width:1.0;stroke-dasharray:5.0,5.0;" x1="389" x2="389" y1="88.2969" y2="283.9609"/><line style="stroke:#A80036;stroke-width:1.0;stroke-dasharray:5.0,5.0;" x1="584.5" x2="584.5" y1="88.2969" y2="283.9609"/><line style="stroke:#A80036;stroke-width:1.0;stroke-dasharray:5.0,5.0;" x1="685.5" x2="685.5" y1="88.2969" y2="283.9609"/><text fill="#000000" font-family="sans-serif" font-size="14" lengthAdjust="spacing" textLength="98" x="5" y="84.9951">FleetManager</text><ellipse cx="57" cy="15" fill="#FEFECE" filter="url(#f1s8kx66thpzuk)" rx="8" ry="8" style="stroke:#A80036;stroke-width:2.0;"/><path d="M57,23 L57,50 M44,31 L70,31 M57,50 L44,65 M57,50 L70,65 " fill="none" filter="url(#f1s8kx66thpzuk)" style="stroke:#A80036;stroke-width:2.0;"/><text fill="#000000" font-family="sans-serif" font-size="14" lengthAdjust="spacing" textLength="98" x="5" y="295.9561">FleetManager</text><ellipse cx="57" cy="309.2578" fill="#FEFECE" filter="url(#f1s8kx66thpzuk)" rx="8" ry="8" style="stroke:#A80036;stroke-width:2.0;"/><path d="M57,317.2578 L57,344.2578 M44,325.2578 L70,325.2578 M57,344.2578 L44,359.2578 M57,344.2578 L70,359.2578 " fill="none" filter="url(#f1s8kx66thpzuk)" style="stroke:#A80036;stroke-width:2.0;"/><rect fill="#FEFECE" filter="url(#f1s8kx66thpzuk)" height="30.2969" style="stroke:#A80036;stroke-width:1.5;" width="45" x="167.5" y="53"/><text fill="#000000" font-family="sans-serif" font-size="14" lengthAdjust="spacing" textLength="31" x="174.5" y="72.9951">:Idle</text><rect fill="#FEFECE" filter="url(#f1s8kx66thpzuk)" height="30.2969" style="stroke:#A80036;stroke-width:1.5;" width="45" x="167.5" y="282.9609"/><text fill="#000000" font-family="sans-serif" font-size="14" lengthAdjust="spacing" textLength="31" x="174.5" y="302.9561">:Idle</text><rect fill="#FEFECE" filter="url(#f1s8kx66thpzuk)" height="30.2969" style="stroke:#A80036;stroke-width:1.5;" width="184" x="295" y="53"/><text fill="#000000" font-family="sans-serif" font-size="14" lengthAdjust="spacing" textLength="170" x="302" y="72.9951">:ShipIdleDaysController</text><rect fill="#FEFECE" filter="url(#f1s8kx66thpzuk)" height="30.2969" style="stroke:#A80036;stroke-width:1.5;" width="184" x="295" y="282.9609"/><text fill="#000000" font-family="sans-serif" font-size="14" lengthAdjust="spacing" textLength="170" x="302" y="302.9561">:ShipIdleDaysController</text><rect fill="#FEFECE" filter="url(#f1s8kx66thpzuk)" height="30.2969" style="stroke:#A80036;stroke-width:1.5;" width="67" x="549.5" y="53"/><text fill="#000000" font-family="sans-serif" font-size="14" lengthAdjust="spacing" textLength="53" x="556.5" y="72.9951">ShipDB</text><rect fill="#FEFECE" filter="url(#f1s8kx66thpzuk)" height="30.2969" style="stroke:#A80036;stroke-width:1.5;" width="67" x="549.5" y="282.9609"/><text fill="#000000" font-family="sans-serif" font-size="14" lengthAdjust="spacing" textLength="53" x="556.5" y="302.9561">ShipDB</text><rect fill="#FEFECE" filter="url(#f1s8kx66thpzuk)" height="30.2969" style="stroke:#A80036;stroke-width:1.5;" width="106" x="630.5" y="53"/><text fill="#000000" font-family="sans-serif" font-size="14" lengthAdjust="spacing" textLength="92" x="637.5" y="72.9951">ShipIdleDays</text><rect fill="#FEFECE" filter="url(#f1s8kx66thpzuk)" height="30.2969" style="stroke:#A80036;stroke-width:1.5;" width="106" x="630.5" y="282.9609"/><text fill="#000000" font-family="sans-serif" font-size="14" lengthAdjust="spacing" textLength="92" x="637.5" y="302.9561">ShipIdleDays</text><rect fill="#FFFFFF" filter="url(#f1s8kx66thpzuk)" height="167.6641" style="stroke:#A80036;stroke-width:1.0;" width="10" x="52" y="98.2969"/><rect fill="#FFFFFF" filter="url(#f1s8kx66thpzuk)" height="146.5313" style="stroke:#A80036;stroke-width:1.0;" width="10" x="187" y="119.4297"/><rect fill="#FFFFFF" filter="url(#f1s8kx66thpzuk)" height="88.2656" style="stroke:#A80036;stroke-width:1.0;" width="10" x="384" y="148.5625"/><rect fill="#FFFFFF" filter="url(#f1s8kx66thpzuk)" height="30" style="stroke:#A80036;stroke-width:1.0;" width="10" x="580" y="177.6953"/><polygon fill="#A80036" points="175,115.4297,185,119.4297,175,123.4297,179,119.4297" style="stroke:#A80036;stroke-width:1.0;"/><line style="stroke:#A80036;stroke-width:1.0;" x1="62" x2="181" y1="119.4297" y2="119.4297"/><text fill="#000000" font-family="sans-serif" font-size="13" font-weight="bold" lengthAdjust="spacing" textLength="9" x="69" y="114.3638">1</text><text fill="#000000" font-family="sans-serif" font-size="13" lengthAdjust="spacing" textLength="93" x="82" y="114.3638">specifies his id</text><polygon fill="#A80036" points="372,144.5625,382,148.5625,372,152.5625,376,148.5625" style="stroke:#A80036;stroke-width:1.0;"/><line style="stroke:#A80036;stroke-width:1.0;" x1="197" x2="378" y1="148.5625" y2="148.5625"/><text fill="#000000" font-family="sans-serif" font-size="13" font-weight="bold" lengthAdjust="spacing" textLength="9" x="204" y="143.4966">2</text><text fill="#000000" font-family="sans-serif" font-size="13" lengthAdjust="spacing" textLength="155" x="217" y="143.4966">getShipIdleDays(idFleet)</text><polygon fill="#A80036" points="568,173.6953,578,177.6953,568,181.6953,572,177.6953" style="stroke:#A80036;stroke-width:1.0;"/><line style="stroke:#A80036;stroke-width:1.0;" x1="394" x2="574" y1="177.6953" y2="177.6953"/><text fill="#000000" font-family="sans-serif" font-size="13" font-weight="bold" lengthAdjust="spacing" textLength="8" x="401" y="172.6294">3</text><text fill="#000000" font-family="sans-serif" font-size="13" lengthAdjust="spacing" textLength="155" x="413" y="172.6294">getShipIdleDays(idFleet)</text><polygon fill="#A80036" points="208,232.8281,198,236.8281,208,240.8281,204,236.8281" style="stroke:#A80036;stroke-width:1.0;"/><line style="stroke:#A80036;stroke-width:1.0;stroke-dasharray:2.0,2.0;" x1="202" x2="388" y1="236.8281" y2="236.8281"/><text fill="#000000" font-family="sans-serif" font-size="13" font-weight="bold" lengthAdjust="spacing" textLength="9" x="214" y="231.7622">4</text><text fill="#000000" font-family="sans-serif" font-size="13" lengthAdjust="spacing" textLength="36" x="227" y="231.7622">result</text><polygon fill="#A80036" points="68,261.9609,58,265.9609,68,269.9609,64,265.9609" style="stroke:#A80036;stroke-width:1.0;"/><line style="stroke:#A80036;stroke-width:1.0;stroke-dasharray:2.0,2.0;" x1="62" x2="191" y1="265.9609" y2="265.9609"/><text fill="#000000" font-family="sans-serif" font-size="13" font-weight="bold" lengthAdjust="spacing" textLength="9" x="74" y="260.895">5</text><text fill="#000000" font-family="sans-serif" font-size="13" lengthAdjust="spacing" textLength="36" x="87" y="260.895">result</text><!--MD5=[8ec971ce9bc6d4df5902341296ae502c]
@startuml
autonumber
actor "FleetManager" as ADMIN

participant ":Idle" as UI
participant ":ShipIdleDaysController" as CTRL
participant "ShipDB" as pcStore
participant "ShipIdleDays" as Port


activate ADMIN
ADMIN -> UI : specifies his id
activate UI
UI -> CTRL : getShipIdleDays(idFleet)
activate CTRL
CTRL -> pcStore : getShipIdleDays(idFleet)
activate pcStore
deactivate pcStore



CTRL - ->  UI : result
deactivate CTRL
UI - -> ADMIN : result
deactivate UI


deactivate ADMIN
@enduml

PlantUML version 1.2022.1beta4(Unknown compile time)
(GPL source distribution)
Java Runtime: Java(TM) SE Runtime Environment
JVM: Java HotSpot(TM) 64-Bit Server VM
Default Encoding: UTF-8
Language: en
Country: US
--></g></svg>