<?xml version="1.0" encoding="UTF-8" standalone="no"?><svg xmlns="http://www.w3.org/2000/svg" xmlns:xlink="http://www.w3.org/1999/xlink" contentScriptType="application/ecmascript" contentStyleType="text/css" height="1049px" preserveAspectRatio="none" style="width:2149px;height:1049px;background:#FFFFFF;" version="1.1" viewBox="0 0 2149 1049" width="2149px" zoomAndPan="magnify"><defs><filter height="300%" id="fm01zyconadk5" width="300%" x="-1" y="-1"><feGaussianBlur result="blurOut" stdDeviation="2.0"/><feColorMatrix in="blurOut" result="blurOut2" type="matrix" values="0 0 0 0 0 0 0 0 0 0 0 0 0 0 0 0 0 0 .4 0"/><feOffset dx="4.0" dy="4.0" in="blurOut2" result="blurOut3"/><feBlend in="SourceGraphic" in2="blurOut3" mode="normal"/></filter></defs><g><rect fill="#FFFFFF" filter="url(#fm01zyconadk5)" height="857.7109" style="stroke:#A80036;stroke-width:1.0;" width="10" x="57" y="98.2969"/><rect fill="#FFFFFF" filter="url(#fm01zyconadk5)" height="176.5313" style="stroke:#A80036;stroke-width:1.0;" width="10" x="543" y="119.4297"/><rect fill="#FFFFFF" filter="url(#fm01zyconadk5)" height="296.3906" style="stroke:#A80036;stroke-width:1.0;" width="10" x="543" y="325.0938"/><rect fill="#FFFFFF" filter="url(#fm01zyconadk5)" height="296.3906" style="stroke:#A80036;stroke-width:1.0;" width="10" x="543" y="650.6172"/><rect fill="#FFFFFF" filter="url(#fm01zyconadk5)" height="118.2656" style="stroke:#A80036;stroke-width:1.0;" width="10" x="991" y="148.5625"/><rect fill="#FFFFFF" filter="url(#fm01zyconadk5)" height="238.125" style="stroke:#A80036;stroke-width:1.0;" width="10" x="991" y="354.2266"/><rect fill="#FFFFFF" filter="url(#fm01zyconadk5)" height="238.125" style="stroke:#A80036;stroke-width:1.0;" width="10" x="991" y="679.75"/><rect fill="#FFFFFF" filter="url(#fm01zyconadk5)" height="30" style="stroke:#A80036;stroke-width:1.0;" width="10" x="1150" y="177.6953"/><rect fill="#FFFFFF" filter="url(#fm01zyconadk5)" height="30" style="stroke:#A80036;stroke-width:1.0;" width="10" x="1150" y="383.3594"/><rect fill="#FFFFFF" filter="url(#fm01zyconadk5)" height="30" style="stroke:#A80036;stroke-width:1.0;" width="10" x="1150" y="708.8828"/><rect fill="#FFFFFF" filter="url(#fm01zyconadk5)" height="30" style="stroke:#A80036;stroke-width:1.0;" width="10" x="1500" y="236.8281"/><rect fill="#FFFFFF" filter="url(#fm01zyconadk5)" height="120.7266" style="stroke:#A80036;stroke-width:1.0;" width="10" x="1500" y="442.4922"/><rect fill="#FFFFFF" filter="url(#fm01zyconadk5)" height="120.7266" style="stroke:#A80036;stroke-width:1.0;" width="10" x="1500" y="768.0156"/><line style="stroke:#A80036;stroke-width:1.0;stroke-dasharray:5.0,5.0;" x1="62" x2="62" y1="88.2969" y2="965.0078"/><line style="stroke:#A80036;stroke-width:1.0;stroke-dasharray:5.0,5.0;" x1="548" x2="548" y1="88.2969" y2="965.0078"/><line style="stroke:#A80036;stroke-width:1.0;stroke-dasharray:5.0,5.0;" x1="996" x2="996" y1="88.2969" y2="965.0078"/><line style="stroke:#A80036;stroke-width:1.0;stroke-dasharray:5.0,5.0;" x1="1154.5" x2="1154.5" y1="88.2969" y2="965.0078"/><line style="stroke:#A80036;stroke-width:1.0;stroke-dasharray:5.0,5.0;" x1="1505" x2="1505" y1="88.2969" y2="965.0078"/><line style="stroke:#A80036;stroke-width:1.0;stroke-dasharray:5.0,5.0;" x1="1875" x2="1875" y1="521.2891" y2="965.0078"/><line style="stroke:#A80036;stroke-width:1.0;stroke-dasharray:5.0,5.0;" x1="2006" x2="2006" y1="846.8125" y2="965.0078"/><line style="stroke:#A80036;stroke-width:1.0;stroke-dasharray:5.0,5.0;" x1="2111" x2="2111" y1="88.2969" y2="965.0078"/><text fill="#000000" font-family="sans-serif" font-size="14" lengthAdjust="spacing" textLength="108" x="5" y="84.9951">TrafficManager</text><ellipse cx="62" cy="15" fill="#FEFECE" filter="url(#fm01zyconadk5)" rx="8" ry="8" style="stroke:#A80036;stroke-width:2.0;"/><path d="M62,23 L62,50 M49,31 L75,31 M62,50 L49,65 M62,50 L75,65 " fill="none" filter="url(#fm01zyconadk5)" style="stroke:#A80036;stroke-width:2.0;"/><text fill="#000000" font-family="sans-serif" font-size="14" lengthAdjust="spacing" textLength="108" x="5" y="977.0029">TrafficManager</text><ellipse cx="62" cy="990.3047" fill="#FEFECE" filter="url(#fm01zyconadk5)" rx="8" ry="8" style="stroke:#A80036;stroke-width:2.0;"/><path d="M62,998.3047 L62,1025.3047 M49,1006.3047 L75,1006.3047 M62,1025.3047 L49,1040.3047 M62,1025.3047 L75,1040.3047 " fill="none" filter="url(#fm01zyconadk5)" style="stroke:#A80036;stroke-width:2.0;"/><rect fill="#FEFECE" filter="url(#fm01zyconadk5)" height="30.2969" style="stroke:#A80036;stroke-width:1.5;" width="126" x="483" y="53"/><text fill="#000000" font-family="sans-serif" font-size="14" lengthAdjust="spacing" textLength="112" x="490" y="72.9951">:PositionOfShip</text><rect fill="#FEFECE" filter="url(#fm01zyconadk5)" height="30.2969" style="stroke:#A80036;stroke-width:1.5;" width="126" x="483" y="964.0078"/><text fill="#000000" font-family="sans-serif" font-size="14" lengthAdjust="spacing" textLength="112" x="490" y="984.0029">:PositionOfShip</text><rect fill="#FEFECE" filter="url(#fm01zyconadk5)" height="30.2969" style="stroke:#A80036;stroke-width:1.5;" width="124" x="932" y="53"/><text fill="#000000" font-family="sans-serif" font-size="14" lengthAdjust="spacing" textLength="110" x="939" y="72.9951">:ShipController</text><rect fill="#FEFECE" filter="url(#fm01zyconadk5)" height="30.2969" style="stroke:#A80036;stroke-width:1.5;" width="124" x="932" y="964.0078"/><text fill="#000000" font-family="sans-serif" font-size="14" lengthAdjust="spacing" textLength="110" x="939" y="984.0029">:ShipController</text><rect fill="#FEFECE" filter="url(#fm01zyconadk5)" height="30.2969" style="stroke:#A80036;stroke-width:1.5;" width="87" x="1109.5" y="53"/><text fill="#000000" font-family="sans-serif" font-size="14" lengthAdjust="spacing" textLength="73" x="1116.5" y="72.9951">:Company</text><rect fill="#FEFECE" filter="url(#fm01zyconadk5)" height="30.2969" style="stroke:#A80036;stroke-width:1.5;" width="87" x="1109.5" y="964.0078"/><text fill="#000000" font-family="sans-serif" font-size="14" lengthAdjust="spacing" textLength="73" x="1116.5" y="984.0029">:Company</text><rect fill="#FEFECE" filter="url(#fm01zyconadk5)" height="46.5938" style="stroke:#A80036;stroke-width:1.5;" width="86" x="1460" y="36.7031"/><text fill="#000000" font-family="sans-serif" font-size="14" lengthAdjust="spacing" textLength="22" x="1492" y="56.6982">sp:</text><text fill="#000000" font-family="sans-serif" font-size="14" lengthAdjust="spacing" textLength="72" x="1467" y="72.9951">ShipStore</text><rect fill="#FEFECE" filter="url(#fm01zyconadk5)" height="46.5938" style="stroke:#A80036;stroke-width:1.5;" width="86" x="1460" y="964.0078"/><text fill="#000000" font-family="sans-serif" font-size="14" lengthAdjust="spacing" textLength="22" x="1492" y="984.0029">sp:</text><text fill="#000000" font-family="sans-serif" font-size="14" lengthAdjust="spacing" textLength="72" x="1467" y="1000.2998">ShipStore</text><rect fill="#FEFECE" filter="url(#fm01zyconadk5)" height="46.5938" style="stroke:#A80036;stroke-width:1.5;" width="102" x="1822" y="964.0078"/><text fill="#000000" font-family="sans-serif" font-size="14" lengthAdjust="spacing" textLength="31" x="1857.5" y="984.0029">pos:</text><text fill="#000000" font-family="sans-serif" font-size="14" lengthAdjust="spacing" textLength="84" x="1833" y="1000.2998">&lt;Location&gt;</text><rect fill="#FEFECE" filter="url(#fm01zyconadk5)" height="46.5938" style="stroke:#A80036;stroke-width:1.5;" width="132" x="1938" y="964.0078"/><text fill="#000000" font-family="sans-serif" font-size="14" lengthAdjust="spacing" textLength="57" x="1975.5" y="984.0029">posList:</text><text fill="#000000" font-family="sans-serif" font-size="14" lengthAdjust="spacing" textLength="114" x="1949" y="1000.2998">List &lt;Location&gt;</text><rect fill="#FEFECE" filter="url(#fm01zyconadk5)" height="30.2969" style="stroke:#A80036;stroke-width:1.5;" width="51" x="2084" y="53"/><text fill="#000000" font-family="sans-serif" font-size="14" lengthAdjust="spacing" textLength="37" x="2091" y="72.9951">:Ship</text><rect fill="#FEFECE" filter="url(#fm01zyconadk5)" height="30.2969" style="stroke:#A80036;stroke-width:1.5;" width="51" x="2084" y="964.0078"/><text fill="#000000" font-family="sans-serif" font-size="14" lengthAdjust="spacing" textLength="37" x="2091" y="984.0029">:Ship</text><rect fill="#FFFFFF" filter="url(#fm01zyconadk5)" height="857.7109" style="stroke:#A80036;stroke-width:1.0;" width="10" x="57" y="98.2969"/><rect fill="#FFFFFF" filter="url(#fm01zyconadk5)" height="176.5313" style="stroke:#A80036;stroke-width:1.0;" width="10" x="543" y="119.4297"/><rect fill="#FFFFFF" filter="url(#fm01zyconadk5)" height="296.3906" style="stroke:#A80036;stroke-width:1.0;" width="10" x="543" y="325.0938"/><rect fill="#FFFFFF" filter="url(#fm01zyconadk5)" height="296.3906" style="stroke:#A80036;stroke-width:1.0;" width="10" x="543" y="650.6172"/><rect fill="#FFFFFF" filter="url(#fm01zyconadk5)" height="118.2656" style="stroke:#A80036;stroke-width:1.0;" width="10" x="991" y="148.5625"/><rect fill="#FFFFFF" filter="url(#fm01zyconadk5)" height="238.125" style="stroke:#A80036;stroke-width:1.0;" width="10" x="991" y="354.2266"/><rect fill="#FFFFFF" filter="url(#fm01zyconadk5)" height="238.125" style="stroke:#A80036;stroke-width:1.0;" width="10" x="991" y="679.75"/><rect fill="#FFFFFF" filter="url(#fm01zyconadk5)" height="30" style="stroke:#A80036;stroke-width:1.0;" width="10" x="1150" y="177.6953"/><rect fill="#FFFFFF" filter="url(#fm01zyconadk5)" height="30" style="stroke:#A80036;stroke-width:1.0;" width="10" x="1150" y="383.3594"/><rect fill="#FFFFFF" filter="url(#fm01zyconadk5)" height="30" style="stroke:#A80036;stroke-width:1.0;" width="10" x="1150" y="708.8828"/><rect fill="#FFFFFF" filter="url(#fm01zyconadk5)" height="30" style="stroke:#A80036;stroke-width:1.0;" width="10" x="1500" y="236.8281"/><rect fill="#FFFFFF" filter="url(#fm01zyconadk5)" height="120.7266" style="stroke:#A80036;stroke-width:1.0;" width="10" x="1500" y="442.4922"/><rect fill="#FFFFFF" filter="url(#fm01zyconadk5)" height="120.7266" style="stroke:#A80036;stroke-width:1.0;" width="10" x="1500" y="768.0156"/><polygon fill="#A80036" points="531,115.4297,541,119.4297,531,123.4297,535,119.4297" style="stroke:#A80036;stroke-width:1.0;"/><line style="stroke:#A80036;stroke-width:1.0;" x1="67" x2="537" y1="119.4297" y2="119.4297"/><text fill="#000000" font-family="sans-serif" font-size="13" lengthAdjust="spacing" textLength="37" x="74" y="114.3638">starts</text><polygon fill="#A80036" points="979,144.5625,989,148.5625,979,152.5625,983,148.5625" style="stroke:#A80036;stroke-width:1.0;"/><line style="stroke:#A80036;stroke-width:1.0;" x1="553" x2="985" y1="148.5625" y2="148.5625"/><text fill="#000000" font-family="sans-serif" font-size="13" lengthAdjust="spacing" textLength="221" x="560" y="143.4966">organizeShipPositionalMessages();</text><polygon fill="#A80036" points="1138,173.6953,1148,177.6953,1138,181.6953,1142,177.6953" style="stroke:#A80036;stroke-width:1.0;"/><line style="stroke:#A80036;stroke-width:1.0;" x1="1001" x2="1144" y1="177.6953" y2="177.6953"/><text fill="#000000" font-family="sans-serif" font-size="13" lengthAdjust="spacing" textLength="130" x="1008" y="172.6294">sp = getShipStore();</text><polygon fill="#A80036" points="1488,232.8281,1498,236.8281,1488,240.8281,1492,236.8281" style="stroke:#A80036;stroke-width:1.0;"/><line style="stroke:#A80036;stroke-width:1.0;" x1="1001" x2="1494" y1="236.8281" y2="236.8281"/><text fill="#000000" font-family="sans-serif" font-size="13" lengthAdjust="spacing" textLength="273" x="1008" y="231.7622">sp.organizeShipPositionalMessages(ships);</text><polygon fill="#A80036" points="78,291.9609,68,295.9609,78,299.9609,74,295.9609" style="stroke:#A80036;stroke-width:1.0;"/><line style="stroke:#A80036;stroke-width:1.0;stroke-dasharray:2.0,2.0;" x1="72" x2="547" y1="295.9609" y2="295.9609"/><text fill="#000000" font-family="sans-serif" font-size="13" lengthAdjust="spacing" textLength="15" x="84" y="290.895">ok</text><polygon fill="#A80036" points="531,321.0938,541,325.0938,531,329.0938,535,325.0938" style="stroke:#A80036;stroke-width:1.0;"/><line style="stroke:#A80036;stroke-width:1.0;stroke-dasharray:2.0,2.0;" x1="67" x2="537" y1="325.0938" y2="325.0938"/><text fill="#000000" font-family="sans-serif" font-size="13" lengthAdjust="spacing" textLength="328" x="74" y="320.0278">check ship position in a data (code, baseDateTime)</text><polygon fill="#A80036" points="979,350.2266,989,354.2266,979,358.2266,983,354.2266" style="stroke:#A80036;stroke-width:1.0;"/><line style="stroke:#A80036;stroke-width:1.0;" x1="553" x2="985" y1="354.2266" y2="354.2266"/><text fill="#000000" font-family="sans-serif" font-size="13" lengthAdjust="spacing" textLength="292" x="560" y="349.1606">getPositionOfShipData(code, baseDateTime);</text><polygon fill="#A80036" points="1138,379.3594,1148,383.3594,1138,387.3594,1142,383.3594" style="stroke:#A80036;stroke-width:1.0;"/><line style="stroke:#A80036;stroke-width:1.0;" x1="1001" x2="1144" y1="383.3594" y2="383.3594"/><text fill="#000000" font-family="sans-serif" font-size="13" lengthAdjust="spacing" textLength="130" x="1008" y="378.2935">sp = getShipStore();</text><polygon fill="#A80036" points="1488,438.4922,1498,442.4922,1488,446.4922,1492,442.4922" style="stroke:#A80036;stroke-width:1.0;"/><line style="stroke:#A80036;stroke-width:1.0;" x1="1001" x2="1494" y1="442.4922" y2="442.4922"/><text fill="#000000" font-family="sans-serif" font-size="13" lengthAdjust="spacing" textLength="389" x="1008" y="437.4263">pos = sp.getPositionOfShipData(code,baseDateTime, ships);</text><polygon fill="#A80036" points="1810,497.625,1820,501.625,1810,505.625,1814,501.625" style="stroke:#A80036;stroke-width:1.0;"/><line style="stroke:#A80036;stroke-width:1.0;stroke-dasharray:2.0,2.0;" x1="1510" x2="1816" y1="501.625" y2="501.625"/><text fill="#000000" font-family="sans-serif" font-size="13" lengthAdjust="spacing" textLength="288" x="1517" y="496.5591">getPositionOfShipData(code,baseDateTime);</text><rect fill="#FEFECE" filter="url(#fm01zyconadk5)" height="46.5938" style="stroke:#A80036;stroke-width:1.5;" width="102" x="1822" y="480.4922"/><text fill="#000000" font-family="sans-serif" font-size="14" lengthAdjust="spacing" textLength="31" x="1857.5" y="500.4873">pos:</text><text fill="#000000" font-family="sans-serif" font-size="14" lengthAdjust="spacing" textLength="84" x="1833" y="516.7842">&lt;Location&gt;</text><polygon fill="#A80036" points="1012,559.2188,1002,563.2188,1012,567.2188,1008,563.2188" style="stroke:#A80036;stroke-width:1.0;"/><line style="stroke:#A80036;stroke-width:1.0;" x1="1006" x2="1504" y1="563.2188" y2="563.2188"/><text fill="#000000" font-family="sans-serif" font-size="13" lengthAdjust="spacing" textLength="23" x="1018" y="558.1528">pos</text><polygon fill="#A80036" points="564,588.3516,554,592.3516,564,596.3516,560,592.3516" style="stroke:#A80036;stroke-width:1.0;"/><line style="stroke:#A80036;stroke-width:1.0;" x1="558" x2="995" y1="592.3516" y2="592.3516"/><text fill="#000000" font-family="sans-serif" font-size="13" lengthAdjust="spacing" textLength="23" x="570" y="587.2856">pos</text><polygon fill="#A80036" points="78,617.4844,68,621.4844,78,625.4844,74,621.4844" style="stroke:#A80036;stroke-width:1.0;"/><line style="stroke:#A80036;stroke-width:1.0;" x1="72" x2="547" y1="621.4844" y2="621.4844"/><text fill="#000000" font-family="sans-serif" font-size="13" lengthAdjust="spacing" textLength="68" x="84" y="616.4185">shows pos</text><polygon fill="#A80036" points="531,646.6172,541,650.6172,531,654.6172,535,650.6172" style="stroke:#A80036;stroke-width:1.0;"/><line style="stroke:#A80036;stroke-width:1.0;stroke-dasharray:2.0,2.0;" x1="67" x2="537" y1="650.6172" y2="650.6172"/><text fill="#000000" font-family="sans-serif" font-size="13" lengthAdjust="spacing" textLength="457" x="74" y="645.5513">check ship position in a period (code, baseDateTime1, baseDateTime2)</text><polygon fill="#A80036" points="979,675.75,989,679.75,979,683.75,983,679.75" style="stroke:#A80036;stroke-width:1.0;"/><line style="stroke:#A80036;stroke-width:1.0;" x1="553" x2="985" y1="679.75" y2="679.75"/><text fill="#000000" font-family="sans-serif" font-size="13" lengthAdjust="spacing" textLength="419" x="560" y="674.6841">getPositionOfShipPeriod(code, baseDateTime1, baseDateTime2);</text><polygon fill="#A80036" points="1138,704.8828,1148,708.8828,1138,712.8828,1142,708.8828" style="stroke:#A80036;stroke-width:1.0;"/><line style="stroke:#A80036;stroke-width:1.0;" x1="1001" x2="1144" y1="708.8828" y2="708.8828"/><text fill="#000000" font-family="sans-serif" font-size="13" lengthAdjust="spacing" textLength="130" x="1008" y="703.8169">sp = getShipStore();</text><polygon fill="#A80036" points="1488,764.0156,1498,768.0156,1488,772.0156,1492,768.0156" style="stroke:#A80036;stroke-width:1.0;"/><line style="stroke:#A80036;stroke-width:1.0;" x1="1001" x2="1494" y1="768.0156" y2="768.0156"/><text fill="#000000" font-family="sans-serif" font-size="13" lengthAdjust="spacing" textLength="480" x="1008" y="762.9497">posList = sp.PositionOfShipPeriod(code, baseDateTime1, baseDateTime2);</text><polygon fill="#A80036" points="1926,823.1484,1936,827.1484,1926,831.1484,1930,827.1484" style="stroke:#A80036;stroke-width:1.0;"/><line style="stroke:#A80036;stroke-width:1.0;stroke-dasharray:2.0,2.0;" x1="1510" x2="1932" y1="827.1484" y2="827.1484"/><text fill="#000000" font-family="sans-serif" font-size="13" lengthAdjust="spacing" textLength="398" x="1517" y="822.0825">PositionOfShipPeriod(code, baseDateTime1, baseDateTime2);</text><rect fill="#FEFECE" filter="url(#fm01zyconadk5)" height="46.5938" style="stroke:#A80036;stroke-width:1.5;" width="132" x="1938" y="806.0156"/><text fill="#000000" font-family="sans-serif" font-size="14" lengthAdjust="spacing" textLength="57" x="1975.5" y="826.0107">posList:</text><text fill="#000000" font-family="sans-serif" font-size="14" lengthAdjust="spacing" textLength="114" x="1949" y="842.3076">List &lt;Location&gt;</text><polygon fill="#A80036" points="1012,884.7422,1002,888.7422,1012,892.7422,1008,888.7422" style="stroke:#A80036;stroke-width:1.0;"/><line style="stroke:#A80036;stroke-width:1.0;" x1="1006" x2="1504" y1="888.7422" y2="888.7422"/><text fill="#000000" font-family="sans-serif" font-size="13" lengthAdjust="spacing" textLength="45" x="1018" y="883.6763">posList</text><polygon fill="#A80036" points="564,913.875,554,917.875,564,921.875,560,917.875" style="stroke:#A80036;stroke-width:1.0;"/><line style="stroke:#A80036;stroke-width:1.0;" x1="558" x2="995" y1="917.875" y2="917.875"/><text fill="#000000" font-family="sans-serif" font-size="13" lengthAdjust="spacing" textLength="45" x="570" y="912.8091">posList</text><polygon fill="#A80036" points="78,943.0078,68,947.0078,78,951.0078,74,947.0078" style="stroke:#A80036;stroke-width:1.0;"/><line style="stroke:#A80036;stroke-width:1.0;" x1="72" x2="547" y1="947.0078" y2="947.0078"/><text fill="#000000" font-family="sans-serif" font-size="13" lengthAdjust="spacing" textLength="90" x="84" y="941.9419">shows posList</text><!--MD5=[4a4899805e2de43202d004c4433ee3c9]
@startuml
actor "TrafficManager" as TM
participant ":PositionOfShip" as POS
participant ":ShipController" as CTRL
participant ":Company" as CMP
participant "sp:\nShipStore" as STORE
participant "pos:\n <Location>" as pos
participant "posList:\n List <Location>" as posList
participant ":Ship" as SHIP

activate TM
TM-> POS : starts 
activate POS
POS -> CTRL  : organizeShipPositionalMessages();
activate CTRL
CTRL -> CMP : sp = getShipStore();
activate CMP
deactivate CMP
CTRL -> STORE : sp.organizeShipPositionalMessages(ships);
activate STORE
deactivate STORE

deactivate CTRL
POS - -> TM : ok
deactivate POS
TM - -> POS : check ship position in a data (code, baseDateTime)
activate POS
POS -> CTRL : getPositionOfShipData(code, baseDateTime);
activate CTRL
CTRL -> CMP : sp = getShipStore();
activate CMP
deactivate CMP
CTRL -> STORE : pos = sp.getPositionOfShipData(code,baseDateTime, ships);
activate STORE
deactivate CMP
STORE - -> pos** : getPositionOfShipData(code,baseDateTime);

STORE -> CTRL : pos
deactivate STORE
CTRL -> POS :pos
deactivate CTRL
POS -> TM : shows pos
deactivate POS
TM - -> POS : check ship position in a period (code, baseDateTime1, baseDateTime2)
activate POS
POS -> CTRL : getPositionOfShipPeriod(code, baseDateTime1, baseDateTime2);
activate CTRL
CTRL -> CMP : sp = getShipStore();
activate CMP
deactivate CMP
CTRL -> STORE : posList = sp.PositionOfShipPeriod(code, baseDateTime1, baseDateTime2);
activate STORE
deactivate CMP
STORE - -> posList** : PositionOfShipPeriod(code, baseDateTime1, baseDateTime2);

STORE -> CTRL : posList
deactivate STORE
CTRL -> POS :posList
deactivate CTRL
POS -> TM : shows posList
deactivate POS
@enduml

PlantUML version 1.2021.13beta8(Unknown compile time)
(GPL source distribution)
Java Runtime: Java(TM) SE Runtime Environment
JVM: Java HotSpot(TM) 64-Bit Server VM
Default Encoding: UTF-8
Language: en
Country: US
--></g></svg>