<?xml version="1.0" encoding="UTF-8" standalone="no"?><svg xmlns="http://www.w3.org/2000/svg" xmlns:xlink="http://www.w3.org/1999/xlink" contentScriptType="application/ecmascript" contentStyleType="text/css" height="508px" preserveAspectRatio="none" style="width:223px;height:508px;background:#FFFFFF;" version="1.1" viewBox="0 0 223 508" width="223px" zoomAndPan="magnify"><defs><filter height="300%" id="fhwygrgkril90" width="300%" x="-1" y="-1"><feGaussianBlur result="blurOut" stdDeviation="2.0"/><feColorMatrix in="blurOut" result="blurOut2" type="matrix" values="0 0 0 0 0 0 0 0 0 0 0 0 0 0 0 0 0 0 .4 0"/><feOffset dx="4.0" dy="4.0" in="blurOut2" result="blurOut3"/><feBlend in="SourceGraphic" in2="blurOut3" mode="normal"/></filter></defs><g><!--MD5=[f09905fc32078a6fe8a07188ed33b541]
class Audit--><rect codeLine="3" fill="#FEFECE" filter="url(#fhwygrgkril90)" height="60.8047" id="Audit" style="stroke:#A80036;stroke-width:1.5;" width="202" x="7" y="7"/><ellipse cx="88.75" cy="23" fill="#ADD1B2" rx="11" ry="11" style="stroke:#A80036;stroke-width:1.0;"/><path d="M91.0938,18.6719 C90.1563,18.2344 89.5625,18.0938 88.6875,18.0938 C86.0625,18.0938 84.0625,20.1719 84.0625,22.8906 L84.0625,24.0156 C84.0625,26.5938 86.1719,28.4844 89.0625,28.4844 C90.2813,28.4844 91.4375,28.1875 92.1875,27.6406 C92.7656,27.2344 93.0938,26.7813 93.0938,26.3906 C93.0938,25.9375 92.7031,25.5469 92.2344,25.5469 C92.0156,25.5469 91.8125,25.625 91.625,25.8125 C91.1719,26.2969 91.1719,26.2969 90.9844,26.3906 C90.5625,26.6563 89.875,26.7813 89.1094,26.7813 C87.0625,26.7813 85.7656,25.6875 85.7656,23.9844 L85.7656,22.8906 C85.7656,21.1094 87.0156,19.7969 88.75,19.7969 C89.3281,19.7969 89.9375,19.9531 90.4063,20.2031 C90.8906,20.4844 91.0625,20.7031 91.1563,21.1094 C91.2188,21.5156 91.25,21.6406 91.3906,21.7656 C91.5313,21.9063 91.7656,22.0156 91.9844,22.0156 C92.25,22.0156 92.5156,21.875 92.6875,21.6563 C92.7969,21.5 92.8281,21.3125 92.8281,20.8906 L92.8281,19.4688 C92.8281,19.0313 92.8125,18.9063 92.7188,18.75 C92.5625,18.4844 92.2813,18.3438 91.9844,18.3438 C91.6875,18.3438 91.4844,18.4375 91.2656,18.75 L91.0938,18.6719 Z " fill="#000000"/><text fill="#000000" font-family="sans-serif" font-size="12" lengthAdjust="spacing" textLength="30" x="109.25" y="27.1543">Audit</text><line style="stroke:#A80036;stroke-width:1.5;" x1="8" x2="208" y1="39" y2="39"/><line style="stroke:#A80036;stroke-width:1.5;" x1="8" x2="208" y1="47" y2="47"/><text fill="#000000" font-family="sans-serif" font-size="11" lengthAdjust="spacing" textLength="190" x="13" y="61.2104">+getAuditTrail(nrcontainer,cargo);</text><!--MD5=[75fdf49b3ed0d4da4dd840dad3e7b891]
class AuditController--><rect codeLine="7" fill="#FEFECE" filter="url(#fhwygrgkril90)" height="60.8047" id="AuditController" style="stroke:#A80036;stroke-width:1.5;" width="202" x="7" y="128"/><ellipse cx="59.25" cy="144" fill="#ADD1B2" rx="11" ry="11" style="stroke:#A80036;stroke-width:1.0;"/><path d="M61.5938,139.6719 C60.6563,139.2344 60.0625,139.0938 59.1875,139.0938 C56.5625,139.0938 54.5625,141.1719 54.5625,143.8906 L54.5625,145.0156 C54.5625,147.5938 56.6719,149.4844 59.5625,149.4844 C60.7813,149.4844 61.9375,149.1875 62.6875,148.6406 C63.2656,148.2344 63.5938,147.7813 63.5938,147.3906 C63.5938,146.9375 63.2031,146.5469 62.7344,146.5469 C62.5156,146.5469 62.3125,146.625 62.125,146.8125 C61.6719,147.2969 61.6719,147.2969 61.4844,147.3906 C61.0625,147.6563 60.375,147.7813 59.6094,147.7813 C57.5625,147.7813 56.2656,146.6875 56.2656,144.9844 L56.2656,143.8906 C56.2656,142.1094 57.5156,140.7969 59.25,140.7969 C59.8281,140.7969 60.4375,140.9531 60.9063,141.2031 C61.3906,141.4844 61.5625,141.7031 61.6563,142.1094 C61.7188,142.5156 61.75,142.6406 61.8906,142.7656 C62.0313,142.9063 62.2656,143.0156 62.4844,143.0156 C62.75,143.0156 63.0156,142.875 63.1875,142.6563 C63.2969,142.5 63.3281,142.3125 63.3281,141.8906 L63.3281,140.4688 C63.3281,140.0313 63.3125,139.9063 63.2188,139.75 C63.0625,139.4844 62.7813,139.3438 62.4844,139.3438 C62.1875,139.3438 61.9844,139.4375 61.7656,139.75 L61.5938,139.6719 Z " fill="#000000"/><text fill="#000000" font-family="sans-serif" font-size="12" lengthAdjust="spacing" textLength="89" x="79.75" y="148.1543">AuditController</text><line style="stroke:#A80036;stroke-width:1.5;" x1="8" x2="208" y1="160" y2="160"/><line style="stroke:#A80036;stroke-width:1.5;" x1="8" x2="208" y1="168" y2="168"/><text fill="#000000" font-family="sans-serif" font-size="11" lengthAdjust="spacing" textLength="190" x="13" y="182.2104">+getAuditTrail(nrcontainer,cargo);</text><!--MD5=[b277e1d7bea6eaeb368a7d4210d51582]
class AuditTrailDB--><rect codeLine="11" fill="#FEFECE" filter="url(#fhwygrgkril90)" height="60.8047" id="AuditTrailDB" style="stroke:#A80036;stroke-width:1.5;" width="202" x="7" y="249"/><ellipse cx="67.75" cy="265" fill="#ADD1B2" rx="11" ry="11" style="stroke:#A80036;stroke-width:1.0;"/><path d="M70.0938,260.6719 C69.1563,260.2344 68.5625,260.0938 67.6875,260.0938 C65.0625,260.0938 63.0625,262.1719 63.0625,264.8906 L63.0625,266.0156 C63.0625,268.5938 65.1719,270.4844 68.0625,270.4844 C69.2813,270.4844 70.4375,270.1875 71.1875,269.6406 C71.7656,269.2344 72.0938,268.7813 72.0938,268.3906 C72.0938,267.9375 71.7031,267.5469 71.2344,267.5469 C71.0156,267.5469 70.8125,267.625 70.625,267.8125 C70.1719,268.2969 70.1719,268.2969 69.9844,268.3906 C69.5625,268.6563 68.875,268.7813 68.1094,268.7813 C66.0625,268.7813 64.7656,267.6875 64.7656,265.9844 L64.7656,264.8906 C64.7656,263.1094 66.0156,261.7969 67.75,261.7969 C68.3281,261.7969 68.9375,261.9531 69.4063,262.2031 C69.8906,262.4844 70.0625,262.7031 70.1563,263.1094 C70.2188,263.5156 70.25,263.6406 70.3906,263.7656 C70.5313,263.9063 70.7656,264.0156 70.9844,264.0156 C71.25,264.0156 71.5156,263.875 71.6875,263.6563 C71.7969,263.5 71.8281,263.3125 71.8281,262.8906 L71.8281,261.4688 C71.8281,261.0313 71.8125,260.9063 71.7188,260.75 C71.5625,260.4844 71.2813,260.3438 70.9844,260.3438 C70.6875,260.3438 70.4844,260.4375 70.2656,260.75 L70.0938,260.6719 Z " fill="#000000"/><text fill="#000000" font-family="sans-serif" font-size="12" lengthAdjust="spacing" textLength="72" x="88.25" y="269.1543">AuditTrailDB</text><line style="stroke:#A80036;stroke-width:1.5;" x1="8" x2="208" y1="281" y2="281"/><line style="stroke:#A80036;stroke-width:1.5;" x1="8" x2="208" y1="289" y2="289"/><text fill="#000000" font-family="sans-serif" font-size="11" lengthAdjust="spacing" textLength="190" x="13" y="303.2104">+getAuditTrail(nrcontainer,cargo);</text><!--MD5=[6cd388b5e3b7f2c93ced7931054d802c]
class AuditTrail--><rect codeLine="16" fill="#FEFECE" filter="url(#fhwygrgkril90)" height="124.8281" id="AuditTrail" style="stroke:#A80036;stroke-width:1.5;" width="127" x="44.5" y="370"/><ellipse cx="77.5" cy="386" fill="#ADD1B2" rx="11" ry="11" style="stroke:#A80036;stroke-width:1.0;"/><path d="M79.8438,381.6719 C78.9063,381.2344 78.3125,381.0938 77.4375,381.0938 C74.8125,381.0938 72.8125,383.1719 72.8125,385.8906 L72.8125,387.0156 C72.8125,389.5938 74.9219,391.4844 77.8125,391.4844 C79.0313,391.4844 80.1875,391.1875 80.9375,390.6406 C81.5156,390.2344 81.8438,389.7813 81.8438,389.3906 C81.8438,388.9375 81.4531,388.5469 80.9844,388.5469 C80.7656,388.5469 80.5625,388.625 80.375,388.8125 C79.9219,389.2969 79.9219,389.2969 79.7344,389.3906 C79.3125,389.6563 78.625,389.7813 77.8594,389.7813 C75.8125,389.7813 74.5156,388.6875 74.5156,386.9844 L74.5156,385.8906 C74.5156,384.1094 75.7656,382.7969 77.5,382.7969 C78.0781,382.7969 78.6875,382.9531 79.1563,383.2031 C79.6406,383.4844 79.8125,383.7031 79.9063,384.1094 C79.9688,384.5156 80,384.6406 80.1406,384.7656 C80.2813,384.9063 80.5156,385.0156 80.7344,385.0156 C81,385.0156 81.2656,384.875 81.4375,384.6563 C81.5469,384.5 81.5781,384.3125 81.5781,383.8906 L81.5781,382.4688 C81.5781,382.0313 81.5625,381.9063 81.4688,381.75 C81.3125,381.4844 81.0313,381.3438 80.7344,381.3438 C80.4375,381.3438 80.2344,381.4375 80.0156,381.75 L79.8438,381.6719 Z " fill="#000000"/><text fill="#000000" font-family="sans-serif" font-size="12" lengthAdjust="spacing" textLength="55" x="95.5" y="390.1543">AuditTrail</text><line style="stroke:#A80036;stroke-width:1.5;" x1="45.5" x2="170.5" y1="402" y2="402"/><text fill="#000000" font-family="sans-serif" font-size="11" lengthAdjust="spacing" textLength="85" x="50.5" y="416.2104">+String author;</text><text fill="#000000" font-family="sans-serif" font-size="11" lengthAdjust="spacing" textLength="75" x="50.5" y="429.0151">+String date;</text><text fill="#000000" font-family="sans-serif" font-size="11" lengthAdjust="spacing" textLength="115" x="50.5" y="441.8198">+String nrContainer;</text><text fill="#000000" font-family="sans-serif" font-size="11" lengthAdjust="spacing" textLength="83" x="50.5" y="454.6245">+String action;</text><text fill="#000000" font-family="sans-serif" font-size="11" lengthAdjust="spacing" textLength="92" x="50.5" y="467.4292">+String idCargo;</text><text fill="#000000" font-family="sans-serif" font-size="11" lengthAdjust="spacing" textLength="107" x="50.5" y="480.2339">+String idManifest;</text><line style="stroke:#A80036;stroke-width:1.5;" x1="45.5" x2="170.5" y1="486.8281" y2="486.8281"/><!--MD5=[75dc81ea6a6bafbccf4798cb25872dad]
link Audit to AuditController--><path codeLine="26" d="M108,68.222 C108,84.692 108,105.264 108,122.508 " fill="none" id="Audit-to-AuditController" style="stroke:#A80036;stroke-width:1.0;stroke-dasharray:7.0,7.0;"/><polygon fill="#A80036" points="108,127.745,112,118.745,108,122.745,104,118.745,108,127.745" style="stroke:#A80036;stroke-width:1.0;"/><!--MD5=[d0d43db11083797a9120750a93948e03]
link AuditController to AuditTrailDB--><path codeLine="27" d="M108,189.222 C108,205.692 108,226.264 108,243.508 " fill="none" id="AuditController-to-AuditTrailDB" style="stroke:#A80036;stroke-width:1.0;stroke-dasharray:7.0,7.0;"/><polygon fill="#A80036" points="108,248.745,112,239.745,108,243.745,104,239.745,108,248.745" style="stroke:#A80036;stroke-width:1.0;"/><!--MD5=[bf0fb53a0de452a64a3af702bacedc26]
link AuditTrailDB to AuditTrail--><path codeLine="28" d="M108,310.333 C108,325.888 108,345.586 108,364.555 " fill="none" id="AuditTrailDB-to-AuditTrail" style="stroke:#A80036;stroke-width:1.0;"/><polygon fill="#A80036" points="108,369.882,112,360.882,108,364.882,104,360.882,108,369.882" style="stroke:#A80036;stroke-width:1.0;"/><!--MD5=[9c8097b0e2b264f79453b799a95a8c92]
@startuml
skinparam classAttributeIconSize 0

class Audit {
+getAuditTrail(nrcontainer,cargo);
}

class AuditController {
+getAuditTrail(nrcontainer,cargo);
}

class AuditTrailDB {
+getAuditTrail(nrcontainer,cargo);

}

class AuditTrail {
+String author;
+String date;
+String nrContainer;
+String action;
+String idCargo;
+String idManifest;
}


Audit ..> AuditController
AuditController ..> AuditTrailDB
AuditTrailDB - -> AuditTrail
@enduml

PlantUML version 1.2021.17beta4(Unknown compile time)
(GPL source distribution)
Java Runtime: Java(TM) SE Runtime Environment
JVM: Java HotSpot(TM) 64-Bit Server VM
Default Encoding: UTF-8
Language: en
Country: US
--></g></svg>