<?xml version="1.0" encoding="UTF-8" standalone="no"?><svg xmlns="http://www.w3.org/2000/svg" xmlns:xlink="http://www.w3.org/1999/xlink" contentScriptType="application/ecmascript" contentStyleType="text/css" height="368px" preserveAspectRatio="none" style="width:998px;height:368px;background:#FFFFFF;" version="1.1" viewBox="0 0 998 368" width="998px" zoomAndPan="magnify"><defs><filter height="300%" id="f1543wmydm6kcm" width="300%" x="-1" y="-1"><feGaussianBlur result="blurOut" stdDeviation="2.0"/><feColorMatrix in="blurOut" result="blurOut2" type="matrix" values="0 0 0 0 0 0 0 0 0 0 0 0 0 0 0 0 0 0 .4 0"/><feOffset dx="4.0" dy="4.0" in="blurOut2" result="blurOut3"/><feBlend in="SourceGraphic" in2="blurOut3" mode="normal"/></filter></defs><g><rect fill="#FFFFFF" filter="url(#f1543wmydm6kcm)" height="176.6641" style="stroke:#A80036;stroke-width:1.0;" width="10" x="47" y="98.2969"/><rect fill="#FFFFFF" filter="url(#f1543wmydm6kcm)" height="146.5313" style="stroke:#A80036;stroke-width:1.0;" width="10" x="283" y="119.4297"/><rect fill="#FFFFFF" filter="url(#f1543wmydm6kcm)" height="88.2656" style="stroke:#A80036;stroke-width:1.0;" width="10" x="555" y="148.5625"/><rect fill="#FFFFFF" filter="url(#f1543wmydm6kcm)" height="30" style="stroke:#A80036;stroke-width:1.0;" width="10" x="832" y="177.6953"/><line style="stroke:#A80036;stroke-width:1.0;stroke-dasharray:5.0,5.0;" x1="52" x2="52" y1="88.2969" y2="283.9609"/><line style="stroke:#A80036;stroke-width:1.0;stroke-dasharray:5.0,5.0;" x1="287.5" x2="287.5" y1="88.2969" y2="283.9609"/><line style="stroke:#A80036;stroke-width:1.0;stroke-dasharray:5.0,5.0;" x1="560" x2="560" y1="88.2969" y2="283.9609"/><line style="stroke:#A80036;stroke-width:1.0;stroke-dasharray:5.0,5.0;" x1="837" x2="837" y1="88.2969" y2="283.9609"/><line style="stroke:#A80036;stroke-width:1.0;stroke-dasharray:5.0,5.0;" x1="944" x2="944" y1="88.2969" y2="283.9609"/><text fill="#000000" font-family="sans-serif" font-size="14" lengthAdjust="spacing" textLength="88" x="5" y="84.9951">ShipCaptain</text><ellipse cx="52" cy="15" fill="#FEFECE" filter="url(#f1543wmydm6kcm)" rx="8" ry="8" style="stroke:#A80036;stroke-width:2.0;"/><path d="M52,23 L52,50 M39,31 L65,31 M52,50 L39,65 M52,50 L65,65 " fill="none" filter="url(#f1543wmydm6kcm)" style="stroke:#A80036;stroke-width:2.0;"/><text fill="#000000" font-family="sans-serif" font-size="14" lengthAdjust="spacing" textLength="88" x="5" y="295.9561">ShipCaptain</text><ellipse cx="52" cy="309.2578" fill="#FEFECE" filter="url(#f1543wmydm6kcm)" rx="8" ry="8" style="stroke:#A80036;stroke-width:2.0;"/><path d="M52,317.2578 L52,344.2578 M39,325.2578 L65,325.2578 M52,344.2578 L39,359.2578 M52,344.2578 L65,359.2578 " fill="none" filter="url(#f1543wmydm6kcm)" style="stroke:#A80036;stroke-width:2.0;"/><rect fill="#FEFECE" filter="url(#f1543wmydm6kcm)" height="30.2969" style="stroke:#A80036;stroke-width:1.5;" width="57" x="257.5" y="53"/><text fill="#000000" font-family="sans-serif" font-size="14" lengthAdjust="spacing" textLength="43" x="264.5" y="72.9951">:Audit</text><rect fill="#FEFECE" filter="url(#f1543wmydm6kcm)" height="30.2969" style="stroke:#A80036;stroke-width:1.5;" width="57" x="257.5" y="282.9609"/><text fill="#000000" font-family="sans-serif" font-size="14" lengthAdjust="spacing" textLength="43" x="264.5" y="302.9561">:Audit</text><rect fill="#FEFECE" filter="url(#f1543wmydm6kcm)" height="30.2969" style="stroke:#A80036;stroke-width:1.5;" width="130" x="493" y="53"/><text fill="#000000" font-family="sans-serif" font-size="14" lengthAdjust="spacing" textLength="116" x="500" y="72.9951">:AuditController</text><rect fill="#FEFECE" filter="url(#f1543wmydm6kcm)" height="30.2969" style="stroke:#A80036;stroke-width:1.5;" width="130" x="493" y="282.9609"/><text fill="#000000" font-family="sans-serif" font-size="14" lengthAdjust="spacing" textLength="116" x="500" y="302.9561">:AuditController</text><rect fill="#FEFECE" filter="url(#f1543wmydm6kcm)" height="46.5938" style="stroke:#A80036;stroke-width:1.5;" width="104" x="783" y="36.7031"/><text fill="#000000" font-family="sans-serif" font-size="14" lengthAdjust="spacing" textLength="41" x="814.5" y="56.6982">atDb:</text><text fill="#000000" font-family="sans-serif" font-size="14" lengthAdjust="spacing" textLength="90" x="790" y="72.9951">AuditTrailDB</text><rect fill="#FEFECE" filter="url(#f1543wmydm6kcm)" height="46.5938" style="stroke:#A80036;stroke-width:1.5;" width="104" x="783" y="282.9609"/><text fill="#000000" font-family="sans-serif" font-size="14" lengthAdjust="spacing" textLength="41" x="814.5" y="302.9561">atDb:</text><text fill="#000000" font-family="sans-serif" font-size="14" lengthAdjust="spacing" textLength="90" x="790" y="319.2529">AuditTrailDB</text><rect fill="#FEFECE" filter="url(#f1543wmydm6kcm)" height="46.5938" style="stroke:#A80036;stroke-width:1.5;" width="83" x="901" y="36.7031"/><text fill="#000000" font-family="sans-serif" font-size="14" lengthAdjust="spacing" textLength="20" x="932.5" y="56.6982">at:</text><text fill="#000000" font-family="sans-serif" font-size="14" lengthAdjust="spacing" textLength="69" x="908" y="72.9951">AuditTrail</text><rect fill="#FEFECE" filter="url(#f1543wmydm6kcm)" height="46.5938" style="stroke:#A80036;stroke-width:1.5;" width="83" x="901" y="282.9609"/><text fill="#000000" font-family="sans-serif" font-size="14" lengthAdjust="spacing" textLength="20" x="932.5" y="302.9561">at:</text><text fill="#000000" font-family="sans-serif" font-size="14" lengthAdjust="spacing" textLength="69" x="908" y="319.2529">AuditTrail</text><rect fill="#FFFFFF" filter="url(#f1543wmydm6kcm)" height="176.6641" style="stroke:#A80036;stroke-width:1.0;" width="10" x="47" y="98.2969"/><rect fill="#FFFFFF" filter="url(#f1543wmydm6kcm)" height="146.5313" style="stroke:#A80036;stroke-width:1.0;" width="10" x="283" y="119.4297"/><rect fill="#FFFFFF" filter="url(#f1543wmydm6kcm)" height="88.2656" style="stroke:#A80036;stroke-width:1.0;" width="10" x="555" y="148.5625"/><rect fill="#FFFFFF" filter="url(#f1543wmydm6kcm)" height="30" style="stroke:#A80036;stroke-width:1.0;" width="10" x="832" y="177.6953"/><polygon fill="#A80036" points="271,115.4297,281,119.4297,271,123.4297,275,119.4297" style="stroke:#A80036;stroke-width:1.0;"/><line style="stroke:#A80036;stroke-width:1.0;" x1="57" x2="277" y1="119.4297" y2="119.4297"/><text fill="#000000" font-family="sans-serif" font-size="13" lengthAdjust="spacing" textLength="207" x="64" y="114.3638">inserts nr container and cargo id</text><polygon fill="#A80036" points="543,144.5625,553,148.5625,543,152.5625,547,148.5625" style="stroke:#A80036;stroke-width:1.0;"/><line style="stroke:#A80036;stroke-width:1.0;" x1="293" x2="549" y1="148.5625" y2="148.5625"/><text fill="#000000" font-family="sans-serif" font-size="13" lengthAdjust="spacing" textLength="213" x="300" y="143.4966">getAuditTrail(nrcontainer, cargo);</text><polygon fill="#A80036" points="820,173.6953,830,177.6953,820,181.6953,824,177.6953" style="stroke:#A80036;stroke-width:1.0;"/><line style="stroke:#A80036;stroke-width:1.0;" x1="565" x2="826" y1="177.6953" y2="177.6953"/><text fill="#000000" font-family="sans-serif" font-size="13" lengthAdjust="spacing" textLength="248" x="572" y="172.6294">atDB.getAuditTrail(nrcontainer, cargo);</text><polygon fill="#A80036" points="304,232.8281,294,236.8281,304,240.8281,300,236.8281" style="stroke:#A80036;stroke-width:1.0;"/><line style="stroke:#A80036;stroke-width:1.0;" x1="298" x2="559" y1="236.8281" y2="236.8281"/><text fill="#000000" font-family="sans-serif" font-size="13" lengthAdjust="spacing" textLength="238" x="310" y="231.7622">return list with Audit Trail information</text><polygon fill="#A80036" points="68,261.9609,58,265.9609,68,269.9609,64,265.9609" style="stroke:#A80036;stroke-width:1.0;"/><line style="stroke:#A80036;stroke-width:1.0;stroke-dasharray:2.0,2.0;" x1="62" x2="287" y1="265.9609" y2="265.9609"/><text fill="#000000" font-family="sans-serif" font-size="13" lengthAdjust="spacing" textLength="63" x="74" y="260.895">shows list</text><!--MD5=[d7317448ad25f03265f6abe6f2997245]
@startuml
actor "ShipCaptain" as TM
participant ":Audit" as POS
participant ":AuditController" as CTRL
participant "atDb:\nAuditTrailDB" as STORE
participant "at:\nAuditTrail" as c


activate TM
TM-> POS : inserts nr container and cargo id
activate POS
POS -> CTRL  : getAuditTrail(nrcontainer, cargo);
activate CTRL
CTRL -> STORE : atDB.getAuditTrail(nrcontainer, cargo);
activate STORE
deactivate STORE
CTRL-> POS : return list with Audit Trail information
deactivate CTRL
POS - -> TM : shows list
deactivate POS
@enduml

PlantUML version 1.2021.17beta4(Unknown compile time)
(GPL source distribution)
Java Runtime: Java(TM) SE Runtime Environment
JVM: Java HotSpot(TM) 64-Bit Server VM
Default Encoding: UTF-8
Language: en
Country: US
--></g></svg>