<?xml version="1.0" encoding="UTF-8" standalone="no"?><svg xmlns="http://www.w3.org/2000/svg" xmlns:xlink="http://www.w3.org/1999/xlink" contentScriptType="application/ecmascript" contentStyleType="text/css" height="296px" preserveAspectRatio="none" style="width:123px;height:296px;background:#FFFFFF;" version="1.1" viewBox="0 0 123 296" width="123px" zoomAndPan="magnify"><defs><filter height="300%" id="f1vcwnlusqcj2v" width="300%" x="-1" y="-1"><feGaussianBlur result="blurOut" stdDeviation="2.0"/><feColorMatrix in="blurOut" result="blurOut2" type="matrix" values="0 0 0 0 0 0 0 0 0 0 0 0 0 0 0 0 0 0 .4 0"/><feOffset dx="4.0" dy="4.0" in="blurOut2" result="blurOut3"/><feBlend in="SourceGraphic" in2="blurOut3" mode="normal"/></filter></defs><g><!--MD5=[6cd388b5e3b7f2c93ced7931054d802c]
class AuditTrail--><rect codeLine="2" fill="#FEFECE" filter="url(#f1vcwnlusqcj2v)" height="124.8281" id="AuditTrail" style="stroke:#A80036;stroke-width:1.5;" width="87" x="14.5" y="7"/><ellipse cx="29.5" cy="23" fill="#ADD1B2" rx="11" ry="11" style="stroke:#A80036;stroke-width:1.0;"/><path d="M31.8438,18.6719 C30.9063,18.2344 30.3125,18.0938 29.4375,18.0938 C26.8125,18.0938 24.8125,20.1719 24.8125,22.8906 L24.8125,24.0156 C24.8125,26.5938 26.9219,28.4844 29.8125,28.4844 C31.0313,28.4844 32.1875,28.1875 32.9375,27.6406 C33.5156,27.2344 33.8438,26.7813 33.8438,26.3906 C33.8438,25.9375 33.4531,25.5469 32.9844,25.5469 C32.7656,25.5469 32.5625,25.625 32.375,25.8125 C31.9219,26.2969 31.9219,26.2969 31.7344,26.3906 C31.3125,26.6563 30.625,26.7813 29.8594,26.7813 C27.8125,26.7813 26.5156,25.6875 26.5156,23.9844 L26.5156,22.8906 C26.5156,21.1094 27.7656,19.7969 29.5,19.7969 C30.0781,19.7969 30.6875,19.9531 31.1563,20.2031 C31.6406,20.4844 31.8125,20.7031 31.9063,21.1094 C31.9688,21.5156 32,21.6406 32.1406,21.7656 C32.2813,21.9063 32.5156,22.0156 32.7344,22.0156 C33,22.0156 33.2656,21.875 33.4375,21.6563 C33.5469,21.5 33.5781,21.3125 33.5781,20.8906 L33.5781,19.4688 C33.5781,19.0313 33.5625,18.9063 33.4688,18.75 C33.3125,18.4844 33.0313,18.3438 32.7344,18.3438 C32.4375,18.3438 32.2344,18.4375 32.0156,18.75 L31.8438,18.6719 Z " fill="#000000"/><text fill="#000000" font-family="sans-serif" font-size="12" lengthAdjust="spacing" textLength="55" x="43.5" y="27.1543">AuditTrail</text><line style="stroke:#A80036;stroke-width:1.5;" x1="15.5" x2="100.5" y1="39" y2="39"/><text fill="#000000" font-family="sans-serif" font-size="11" lengthAdjust="spacing" textLength="43" x="20.5" y="53.2104">-author;</text><text fill="#000000" font-family="sans-serif" font-size="11" lengthAdjust="spacing" textLength="33" x="20.5" y="66.0151">-date;</text><text fill="#000000" font-family="sans-serif" font-size="11" lengthAdjust="spacing" textLength="73" x="20.5" y="78.8198">-nrContainer;</text><text fill="#000000" font-family="sans-serif" font-size="11" lengthAdjust="spacing" textLength="41" x="20.5" y="91.6245">-action;</text><text fill="#000000" font-family="sans-serif" font-size="11" lengthAdjust="spacing" textLength="50" x="20.5" y="104.4292">-idCargo;</text><text fill="#000000" font-family="sans-serif" font-size="11" lengthAdjust="spacing" textLength="65" x="20.5" y="117.2339">-idManifest;</text><line style="stroke:#A80036;stroke-width:1.5;" x1="15.5" x2="100.5" y1="123.8281" y2="123.8281"/><!--MD5=[e6b394b930674b2255938b8afe6bb7b4]
class ShipCaptain--><rect codeLine="11" fill="#FEFECE" filter="url(#f1vcwnlusqcj2v)" height="73.6094" id="ShipCaptain" style="stroke:#A80036;stroke-width:1.5;" width="102" x="7" y="209"/><ellipse cx="22" cy="225" fill="#ADD1B2" rx="11" ry="11" style="stroke:#A80036;stroke-width:1.0;"/><path d="M24.3438,220.6719 C23.4063,220.2344 22.8125,220.0938 21.9375,220.0938 C19.3125,220.0938 17.3125,222.1719 17.3125,224.8906 L17.3125,226.0156 C17.3125,228.5938 19.4219,230.4844 22.3125,230.4844 C23.5313,230.4844 24.6875,230.1875 25.4375,229.6406 C26.0156,229.2344 26.3438,228.7813 26.3438,228.3906 C26.3438,227.9375 25.9531,227.5469 25.4844,227.5469 C25.2656,227.5469 25.0625,227.625 24.875,227.8125 C24.4219,228.2969 24.4219,228.2969 24.2344,228.3906 C23.8125,228.6563 23.125,228.7813 22.3594,228.7813 C20.3125,228.7813 19.0156,227.6875 19.0156,225.9844 L19.0156,224.8906 C19.0156,223.1094 20.2656,221.7969 22,221.7969 C22.5781,221.7969 23.1875,221.9531 23.6563,222.2031 C24.1406,222.4844 24.3125,222.7031 24.4063,223.1094 C24.4688,223.5156 24.5,223.6406 24.6406,223.7656 C24.7813,223.9063 25.0156,224.0156 25.2344,224.0156 C25.5,224.0156 25.7656,223.875 25.9375,223.6563 C26.0469,223.5 26.0781,223.3125 26.0781,222.8906 L26.0781,221.4688 C26.0781,221.0313 26.0625,220.9063 25.9688,220.75 C25.8125,220.4844 25.5313,220.3438 25.2344,220.3438 C24.9375,220.3438 24.7344,220.4375 24.5156,220.75 L24.3438,220.6719 Z " fill="#000000"/><text fill="#000000" font-family="sans-serif" font-size="12" lengthAdjust="spacing" textLength="70" x="36" y="229.1543">ShipCaptain</text><line style="stroke:#A80036;stroke-width:1.5;" x1="8" x2="108" y1="241" y2="241"/><text fill="#000000" font-family="sans-serif" font-size="11" lengthAdjust="spacing" textLength="41" x="13" y="255.2104">-userID</text><text fill="#000000" font-family="sans-serif" font-size="11" lengthAdjust="spacing" textLength="37" x="13" y="268.0151">-name</text><line style="stroke:#A80036;stroke-width:1.5;" x1="8" x2="108" y1="274.6094" y2="274.6094"/><!--MD5=[3b3644936a8675ca1153a9f8bbc3c309]
reverse link AuditTrail to ShipCaptain--><path codeLine="16" d="M58,137.184 C58,161.55 58,188.1845 58,208.8848 " fill="none" id="AuditTrail-backto-ShipCaptain" style="stroke:#A80036;stroke-width:1.0;"/><polygon fill="#A80036" points="58,132.022,54,141.022,58,137.022,62,141.022,58,132.022" style="stroke:#A80036;stroke-width:1.0;"/><text fill="#000000" font-family="sans-serif" font-size="13" lengthAdjust="spacing" textLength="44" x="59" y="175.0669">checks</text><text fill="#000000" font-family="sans-serif" font-size="13" lengthAdjust="spacing" textLength="27" x="29.5234" y="151.7642">1...*</text><text fill="#000000" font-family="sans-serif" font-size="13" lengthAdjust="spacing" textLength="8" x="49.2875" y="198.0512">1</text><!--MD5=[dfb3593e1c6bf35e08eac162512c7a31]
@startuml
skinparam classAttributeIconSize 0
Class AuditTrail{
-author;
-date;
-nrContainer;
-action;
-idCargo;
-idManifest;
}

class ShipCaptain{
-userID
-name
}

AuditTrail "1...*" <- - "1" ShipCaptain : checks
@enduml

PlantUML version 1.2021.17beta4(Unknown compile time)
(GPL source distribution)
Java Runtime: Java(TM) SE Runtime Environment
JVM: Java HotSpot(TM) 64-Bit Server VM
Default Encoding: UTF-8
Language: en
Country: US
--></g></svg>