<?xml version="1.0" encoding="UTF-8" standalone="no"?><svg xmlns="http://www.w3.org/2000/svg" xmlns:xlink="http://www.w3.org/1999/xlink" contentScriptType="application/ecmascript" contentStyleType="text/css" height="250px" preserveAspectRatio="none" style="width:416px;height:250px;background:#FFFFFF;" version="1.1" viewBox="0 0 416 250" width="416px" zoomAndPan="magnify"><defs><filter height="300%" id="f10tm801e8eqe6" width="300%" x="-1" y="-1"><feGaussianBlur result="blurOut" stdDeviation="2.0"/><feColorMatrix in="blurOut" result="blurOut2" type="matrix" values="0 0 0 0 0 0 0 0 0 0 0 0 0 0 0 0 0 0 .4 0"/><feOffset dx="4.0" dy="4.0" in="blurOut2" result="blurOut3"/><feBlend in="SourceGraphic" in2="blurOut3" mode="normal"/></filter></defs><g><rect fill="#FFFFFF" filter="url(#f10tm801e8eqe6)" height="50.2656" style="stroke:#A80036;stroke-width:1.0;" width="10" x="51" y="98.2969"/><rect fill="#FFFFFF" filter="url(#f10tm801e8eqe6)" height="29.1328" style="stroke:#A80036;stroke-width:1.0;" width="10" x="363" y="119.4297"/><line style="stroke:#A80036;stroke-width:1.0;stroke-dasharray:5.0,5.0;" x1="56" x2="56" y1="88.2969" y2="166.5625"/><line style="stroke:#A80036;stroke-width:1.0;stroke-dasharray:5.0,5.0;" x1="367.5" x2="367.5" y1="88.2969" y2="166.5625"/><text fill="#000000" font-family="sans-serif" font-size="14" lengthAdjust="spacing" textLength="96" x="5" y="84.9951">Port Manager</text><ellipse cx="56" cy="15" fill="#FEFECE" filter="url(#f10tm801e8eqe6)" rx="8" ry="8" style="stroke:#A80036;stroke-width:2.0;"/><path d="M56,23 L56,50 M43,31 L69,31 M56,50 L43,65 M56,50 L69,65 " fill="none" filter="url(#f10tm801e8eqe6)" style="stroke:#A80036;stroke-width:2.0;"/><text fill="#000000" font-family="sans-serif" font-size="14" lengthAdjust="spacing" textLength="96" x="5" y="178.5576">Port Manager</text><ellipse cx="56" cy="191.8594" fill="#FEFECE" filter="url(#f10tm801e8eqe6)" rx="8" ry="8" style="stroke:#A80036;stroke-width:2.0;"/><path d="M56,199.8594 L56,226.8594 M43,207.8594 L69,207.8594 M56,226.8594 L43,241.8594 M56,226.8594 L69,241.8594 " fill="none" filter="url(#f10tm801e8eqe6)" style="stroke:#A80036;stroke-width:2.0;"/><rect fill="#FEFECE" filter="url(#f10tm801e8eqe6)" height="30.2969" style="stroke:#A80036;stroke-width:1.5;" width="73" x="329.5" y="53"/><text fill="#000000" font-family="sans-serif" font-size="14" lengthAdjust="spacing" textLength="59" x="336.5" y="72.9951">:System</text><rect fill="#FEFECE" filter="url(#f10tm801e8eqe6)" height="30.2969" style="stroke:#A80036;stroke-width:1.5;" width="73" x="329.5" y="165.5625"/><text fill="#000000" font-family="sans-serif" font-size="14" lengthAdjust="spacing" textLength="59" x="336.5" y="185.5576">:System</text><rect fill="#FFFFFF" filter="url(#f10tm801e8eqe6)" height="50.2656" style="stroke:#A80036;stroke-width:1.0;" width="10" x="51" y="98.2969"/><rect fill="#FFFFFF" filter="url(#f10tm801e8eqe6)" height="29.1328" style="stroke:#A80036;stroke-width:1.0;" width="10" x="363" y="119.4297"/><polygon fill="#A80036" points="351,115.4297,361,119.4297,351,123.4297,355,119.4297" style="stroke:#A80036;stroke-width:1.0;"/><line style="stroke:#A80036;stroke-width:1.0;" x1="61" x2="357" y1="119.4297" y2="119.4297"/><text fill="#000000" font-family="sans-serif" font-size="13" font-weight="bold" lengthAdjust="spacing" textLength="9" x="68" y="114.3638">1</text><text fill="#000000" font-family="sans-serif" font-size="13" lengthAdjust="spacing" textLength="259" x="81" y="114.3638">chooses the month to get the map from</text><polygon fill="#A80036" points="67,144.5625,57,148.5625,67,152.5625,63,148.5625" style="stroke:#A80036;stroke-width:1.0;"/><line style="stroke:#A80036;stroke-width:1.0;stroke-dasharray:2.0,2.0;" x1="61" x2="367" y1="148.5625" y2="148.5625"/><text fill="#000000" font-family="sans-serif" font-size="13" font-weight="bold" lengthAdjust="spacing" textLength="9" x="73" y="143.4966">2</text><text fill="#000000" font-family="sans-serif" font-size="13" lengthAdjust="spacing" textLength="265" x="86" y="143.4966">creates the map and shows it to the user</text><!--MD5=[8afc4112d2a01a494c3859fe7d8f6f23]
@startuml
autonumber
actor "Port Manager" as Rec

activate Rec
Rec-> ":System" : chooses the month to get the map from
activate ":System"
":System" - -> Rec : creates the map and shows it to the user

deactivate ":System"
deactivate Rec
@enduml

PlantUML version 1.2021.17beta4(Unknown compile time)
(GPL source distribution)
Java Runtime: Java(TM) SE Runtime Environment
JVM: Java HotSpot(TM) 64-Bit Server VM
Default Encoding: UTF-8
Language: en
Country: US
--></g></svg>