<?xml version="1.0" encoding="UTF-8" standalone="no"?><svg xmlns="http://www.w3.org/2000/svg" xmlns:xlink="http://www.w3.org/1999/xlink" contentScriptType="application/ecmascript" contentStyleType="text/css" height="271px" preserveAspectRatio="none" style="width:454px;height:271px;background:#FFFFFF;" version="1.1" viewBox="0 0 454 271" width="454px" zoomAndPan="magnify"><defs><filter height="300%" id="f1ee3gsglbsach" width="300%" x="-1" y="-1"><feGaussianBlur result="blurOut" stdDeviation="2.0"/><feColorMatrix in="blurOut" result="blurOut2" type="matrix" values="0 0 0 0 0 0 0 0 0 0 0 0 0 0 0 0 0 0 .4 0"/><feOffset dx="4.0" dy="4.0" in="blurOut2" result="blurOut3"/><feBlend in="SourceGraphic" in2="blurOut3" mode="normal"/></filter></defs><g><!--MD5=[0dc7f2ddb409b58bcf52b12238c25399]
class Ship--><rect codeLine="2" fill="#FEFECE" filter="url(#f1ee3gsglbsach)" height="73.6094" id="Ship" style="stroke:#A80036;stroke-width:1.5;" width="58" x="7" y="7"/><ellipse cx="22" cy="23" fill="#ADD1B2" rx="11" ry="11" style="stroke:#A80036;stroke-width:1.0;"/><path d="M24.3438,18.6719 C23.4063,18.2344 22.8125,18.0938 21.9375,18.0938 C19.3125,18.0938 17.3125,20.1719 17.3125,22.8906 L17.3125,24.0156 C17.3125,26.5938 19.4219,28.4844 22.3125,28.4844 C23.5313,28.4844 24.6875,28.1875 25.4375,27.6406 C26.0156,27.2344 26.3438,26.7813 26.3438,26.3906 C26.3438,25.9375 25.9531,25.5469 25.4844,25.5469 C25.2656,25.5469 25.0625,25.625 24.875,25.8125 C24.4219,26.2969 24.4219,26.2969 24.2344,26.3906 C23.8125,26.6563 23.125,26.7813 22.3594,26.7813 C20.3125,26.7813 19.0156,25.6875 19.0156,23.9844 L19.0156,22.8906 C19.0156,21.1094 20.2656,19.7969 22,19.7969 C22.5781,19.7969 23.1875,19.9531 23.6563,20.2031 C24.1406,20.4844 24.3125,20.7031 24.4063,21.1094 C24.4688,21.5156 24.5,21.6406 24.6406,21.7656 C24.7813,21.9063 25.0156,22.0156 25.2344,22.0156 C25.5,22.0156 25.7656,21.875 25.9375,21.6563 C26.0469,21.5 26.0781,21.3125 26.0781,20.8906 L26.0781,19.4688 C26.0781,19.0313 26.0625,18.9063 25.9688,18.75 C25.8125,18.4844 25.5313,18.3438 25.2344,18.3438 C24.9375,18.3438 24.7344,18.4375 24.5156,18.75 L24.3438,18.6719 Z " fill="#000000"/><text fill="#000000" font-family="sans-serif" font-size="12" lengthAdjust="spacing" textLength="26" x="36" y="27.1543">Ship</text><line style="stroke:#A80036;stroke-width:1.5;" x1="8" x2="64" y1="39" y2="39"/><text fill="#000000" font-family="sans-serif" font-size="11" lengthAdjust="spacing" textLength="35" x="13" y="53.2104">-mmsi</text><text fill="#000000" font-family="sans-serif" font-size="11" lengthAdjust="spacing" textLength="9" x="13" y="66.0151">...</text><line style="stroke:#A80036;stroke-width:1.5;" x1="8" x2="64" y1="72.6094" y2="72.6094"/><!--MD5=[a0bfe97ac0a38e6e74cc1c7c7b744b71]
class Port--><rect codeLine="6" fill="#FEFECE" filter="url(#f1ee3gsglbsach)" height="99.2188" id="Port" style="stroke:#A80036;stroke-width:1.5;" width="118" x="119" y="158"/><ellipse cx="162.35" cy="174" fill="#ADD1B2" rx="11" ry="11" style="stroke:#A80036;stroke-width:1.0;"/><path d="M164.6938,169.6719 C163.7563,169.2344 163.1625,169.0938 162.2875,169.0938 C159.6625,169.0938 157.6625,171.1719 157.6625,173.8906 L157.6625,175.0156 C157.6625,177.5938 159.7719,179.4844 162.6625,179.4844 C163.8813,179.4844 165.0375,179.1875 165.7875,178.6406 C166.3656,178.2344 166.6938,177.7813 166.6938,177.3906 C166.6938,176.9375 166.3031,176.5469 165.8344,176.5469 C165.6156,176.5469 165.4125,176.625 165.225,176.8125 C164.7719,177.2969 164.7719,177.2969 164.5844,177.3906 C164.1625,177.6563 163.475,177.7813 162.7094,177.7813 C160.6625,177.7813 159.3656,176.6875 159.3656,174.9844 L159.3656,173.8906 C159.3656,172.1094 160.6156,170.7969 162.35,170.7969 C162.9281,170.7969 163.5375,170.9531 164.0063,171.2031 C164.4906,171.4844 164.6625,171.7031 164.7563,172.1094 C164.8188,172.5156 164.85,172.6406 164.9906,172.7656 C165.1313,172.9063 165.3656,173.0156 165.5844,173.0156 C165.85,173.0156 166.1156,172.875 166.2875,172.6563 C166.3969,172.5 166.4281,172.3125 166.4281,171.8906 L166.4281,170.4688 C166.4281,170.0313 166.4125,169.9063 166.3188,169.75 C166.1625,169.4844 165.8813,169.3438 165.5844,169.3438 C165.2875,169.3438 165.0844,169.4375 164.8656,169.75 L164.6938,169.6719 Z " fill="#000000"/><text fill="#000000" font-family="sans-serif" font-size="12" lengthAdjust="spacing" textLength="23" x="182.65" y="178.1543">Port</text><line style="stroke:#A80036;stroke-width:1.5;" x1="120" x2="236" y1="190" y2="190"/><text fill="#000000" font-family="sans-serif" font-size="11" lengthAdjust="spacing" textLength="32" x="125" y="204.2104">-code</text><text fill="#000000" font-family="sans-serif" font-size="11" lengthAdjust="spacing" textLength="75" x="125" y="217.0151">-dockingSlots</text><text fill="#000000" font-family="sans-serif" font-size="11" lengthAdjust="spacing" textLength="106" x="125" y="229.8198">-containerCapacity</text><text fill="#000000" font-family="sans-serif" font-size="11" lengthAdjust="spacing" textLength="9" x="125" y="242.6245">...</text><line style="stroke:#A80036;stroke-width:1.5;" x1="120" x2="236" y1="249.2188" y2="249.2188"/><!--MD5=[e9a58730c562b34349daa605d1ed6662]
class Container--><rect codeLine="12" fill="#FEFECE" filter="url(#f1ee3gsglbsach)" height="73.6094" id="Container" style="stroke:#A80036;stroke-width:1.5;" width="115" x="120.5" y="7"/><ellipse cx="147.2" cy="23" fill="#ADD1B2" rx="11" ry="11" style="stroke:#A80036;stroke-width:1.0;"/><path d="M149.5438,18.6719 C148.6063,18.2344 148.0125,18.0938 147.1375,18.0938 C144.5125,18.0938 142.5125,20.1719 142.5125,22.8906 L142.5125,24.0156 C142.5125,26.5938 144.6219,28.4844 147.5125,28.4844 C148.7313,28.4844 149.8875,28.1875 150.6375,27.6406 C151.2156,27.2344 151.5438,26.7813 151.5438,26.3906 C151.5438,25.9375 151.1531,25.5469 150.6844,25.5469 C150.4656,25.5469 150.2625,25.625 150.075,25.8125 C149.6219,26.2969 149.6219,26.2969 149.4344,26.3906 C149.0125,26.6563 148.325,26.7813 147.5594,26.7813 C145.5125,26.7813 144.2156,25.6875 144.2156,23.9844 L144.2156,22.8906 C144.2156,21.1094 145.4656,19.7969 147.2,19.7969 C147.7781,19.7969 148.3875,19.9531 148.8563,20.2031 C149.3406,20.4844 149.5125,20.7031 149.6063,21.1094 C149.6688,21.5156 149.7,21.6406 149.8406,21.7656 C149.9813,21.9063 150.2156,22.0156 150.4344,22.0156 C150.7,22.0156 150.9656,21.875 151.1375,21.6563 C151.2469,21.5 151.2781,21.3125 151.2781,20.8906 L151.2781,19.4688 C151.2781,19.0313 151.2625,18.9063 151.1688,18.75 C151.0125,18.4844 150.7313,18.3438 150.4344,18.3438 C150.1375,18.3438 149.9344,18.4375 149.7156,18.75 L149.5438,18.6719 Z " fill="#000000"/><text fill="#000000" font-family="sans-serif" font-size="12" lengthAdjust="spacing" textLength="57" x="163.8" y="27.1543">Container</text><line style="stroke:#A80036;stroke-width:1.5;" x1="121.5" x2="234.5" y1="39" y2="39"/><text fill="#000000" font-family="sans-serif" font-size="11" lengthAdjust="spacing" textLength="103" x="126.5" y="53.2104">-numberContainer</text><text fill="#000000" font-family="sans-serif" font-size="11" lengthAdjust="spacing" textLength="9" x="126.5" y="66.0151">...</text><line style="stroke:#A80036;stroke-width:1.5;" x1="121.5" x2="234.5" y1="72.6094" y2="72.6094"/><!--MD5=[99d8f1361a72f685c413d1fd21efef1c]
class PortManager--><rect codeLine="17" fill="#FEFECE" filter="url(#f1ee3gsglbsach)" height="73.6094" id="PortManager" style="stroke:#A80036;stroke-width:1.5;" width="107" x="270.5" y="7"/><ellipse cx="285.5" cy="23" fill="#ADD1B2" rx="11" ry="11" style="stroke:#A80036;stroke-width:1.0;"/><path d="M287.8438,18.6719 C286.9063,18.2344 286.3125,18.0938 285.4375,18.0938 C282.8125,18.0938 280.8125,20.1719 280.8125,22.8906 L280.8125,24.0156 C280.8125,26.5938 282.9219,28.4844 285.8125,28.4844 C287.0313,28.4844 288.1875,28.1875 288.9375,27.6406 C289.5156,27.2344 289.8438,26.7813 289.8438,26.3906 C289.8438,25.9375 289.4531,25.5469 288.9844,25.5469 C288.7656,25.5469 288.5625,25.625 288.375,25.8125 C287.9219,26.2969 287.9219,26.2969 287.7344,26.3906 C287.3125,26.6563 286.625,26.7813 285.8594,26.7813 C283.8125,26.7813 282.5156,25.6875 282.5156,23.9844 L282.5156,22.8906 C282.5156,21.1094 283.7656,19.7969 285.5,19.7969 C286.0781,19.7969 286.6875,19.9531 287.1563,20.2031 C287.6406,20.4844 287.8125,20.7031 287.9063,21.1094 C287.9688,21.5156 288,21.6406 288.1406,21.7656 C288.2813,21.9063 288.5156,22.0156 288.7344,22.0156 C289,22.0156 289.2656,21.875 289.4375,21.6563 C289.5469,21.5 289.5781,21.3125 289.5781,20.8906 L289.5781,19.4688 C289.5781,19.0313 289.5625,18.9063 289.4688,18.75 C289.3125,18.4844 289.0313,18.3438 288.7344,18.3438 C288.4375,18.3438 288.2344,18.4375 288.0156,18.75 L287.8438,18.6719 Z " fill="#000000"/><text fill="#000000" font-family="sans-serif" font-size="12" lengthAdjust="spacing" textLength="75" x="299.5" y="27.1543">PortManager</text><line style="stroke:#A80036;stroke-width:1.5;" x1="271.5" x2="376.5" y1="39" y2="39"/><text fill="#000000" font-family="sans-serif" font-size="11" lengthAdjust="spacing" textLength="41" x="276.5" y="53.2104">-userID</text><text fill="#000000" font-family="sans-serif" font-size="11" lengthAdjust="spacing" textLength="37" x="276.5" y="66.0151">-name</text><line style="stroke:#A80036;stroke-width:1.5;" x1="271.5" x2="376.5" y1="72.6094" y2="72.6094"/><!--MD5=[9eb8cece74e91f217f5849e8308bf70d]
link PortManager to Port--><path codeLine="22" d="M303.001,81.273 C293.49,96.4 281.568,113.731 269,128 C260.478,137.676 250.767,147.254 240.939,156.219 " fill="none" id="PortManager-to-Port" style="stroke:#A80036;stroke-width:1.0;"/><polygon fill="#A80036" points="237.021,159.7551,246.382,156.6939,240.7326,156.4048,241.0216,150.7554,237.021,159.7551" style="stroke:#A80036;stroke-width:1.0;"/><text fill="#000000" font-family="sans-serif" font-size="13" lengthAdjust="spacing" textLength="162" x="284" y="124.0669">oversees the activities of</text><text fill="#000000" font-family="sans-serif" font-size="13" lengthAdjust="spacing" textLength="8" x="290.8605" y="100.7988">1</text><text fill="#000000" font-family="sans-serif" font-size="13" lengthAdjust="spacing" textLength="27" x="244.953" y="150.7748">1...*</text><!--MD5=[e286db40d4dc071fc67b9ff133e9b52b]
link Ship to Port--><path codeLine="23" d="M44.9247,81.265 C49.9524,96.735 57.4022,114.33 68,128 C80.7218,144.41 97.7939,158.855 114.688,170.7333 " fill="none" id="Ship-to-Port" style="stroke:#A80036;stroke-width:1.0;"/><polygon fill="#A80036" points="118.977,173.6975,113.8476,165.2898,114.8638,170.8546,109.299,171.8709,118.977,173.6975" style="stroke:#A80036;stroke-width:1.0;"/><text fill="#000000" font-family="sans-serif" font-size="13" lengthAdjust="spacing" textLength="100" x="69" y="124.0669">are stationed in</text><text fill="#000000" font-family="sans-serif" font-size="13" lengthAdjust="spacing" textLength="27" x="17.1669" y="100.7894">1...*</text><text fill="#000000" font-family="sans-serif" font-size="13" lengthAdjust="spacing" textLength="8" x="102.9022" y="165.467">1</text><!--MD5=[83f0003916db174b16d7a678871819d2]
link Container to Port--><path codeLine="24" d="M178,81.244 C178,102.254 178,129.109 178,152.561 " fill="none" id="Container-to-Port" style="stroke:#A80036;stroke-width:1.0;"/><polygon fill="#A80036" points="178,157.8197,182,148.8197,178,152.8197,174,148.8197,178,157.8197" style="stroke:#A80036;stroke-width:1.0;"/><text fill="#000000" font-family="sans-serif" font-size="13" lengthAdjust="spacing" textLength="81" x="179" y="124.0669">are stored in</text><text fill="#000000" font-family="sans-serif" font-size="13" lengthAdjust="spacing" textLength="27" x="148.7641" y="100.765">1...*</text><text fill="#000000" font-family="sans-serif" font-size="13" lengthAdjust="spacing" textLength="8" x="169.4375" y="146.8399">1</text><!--MD5=[b669a3661e234f05389c7159e040faeb]
@startuml
skinparam classAttributeIconSize 0
Class Ship{
-mmsi
...
}
Class Port{
-code
-dockingSlots
-containerCapacity
...
}
class Container {
-numberContainer
...
}

class PortManager{
-userID
-name
}

PortManager "1" - -> "1...*" Port :oversees the activities of
Ship "1...*" - -> "1" Port : are stationed in
Container "1...*" - -> "1" Port : are stored in
@enduml

PlantUML version 1.2021.17beta4(Unknown compile time)
(GPL source distribution)
Java Runtime: Java(TM) SE Runtime Environment
JVM: Java HotSpot(TM) 64-Bit Server VM
Default Encoding: UTF-8
Language: en
Country: US
--></g></svg>