<?xml version="1.0" encoding="UTF-8" standalone="no"?><svg xmlns="http://www.w3.org/2000/svg" xmlns:xlink="http://www.w3.org/1999/xlink" contentScriptType="application/ecmascript" contentStyleType="text/css" height="107px" preserveAspectRatio="none" style="width:1403px;height:107px;background:#FFFFFF;" version="1.1" viewBox="0 0 1403 107" width="1403px" zoomAndPan="magnify"><defs><filter height="300%" id="fzsnc6mz2joor" width="300%" x="-1" y="-1"><feGaussianBlur result="blurOut" stdDeviation="2.0"/><feColorMatrix in="blurOut" result="blurOut2" type="matrix" values="0 0 0 0 0 0 0 0 0 0 0 0 0 0 0 0 0 0 .4 0"/><feOffset dx="4.0" dy="4.0" in="blurOut2" result="blurOut3"/><feBlend in="SourceGraphic" in2="blurOut3" mode="normal"/></filter></defs><g><!--MD5=[b12eaf53f7c088eaf5ecec7f1a73d412]
class PortDB--><rect codeLine="6" fill="#FEFECE" filter="url(#fzsnc6mz2joor)" height="86.4141" id="PortDB" style="stroke:#A80036;stroke-width:1.5;" width="561" x="828" y="7"/><ellipse cx="1084.25" cy="23" fill="#ADD1B2" rx="11" ry="11" style="stroke:#A80036;stroke-width:1.0;"/><path d="M1086.5938,18.6719 C1085.6563,18.2344 1085.0625,18.0938 1084.1875,18.0938 C1081.5625,18.0938 1079.5625,20.1719 1079.5625,22.8906 L1079.5625,24.0156 C1079.5625,26.5938 1081.6719,28.4844 1084.5625,28.4844 C1085.7813,28.4844 1086.9375,28.1875 1087.6875,27.6406 C1088.2656,27.2344 1088.5938,26.7813 1088.5938,26.3906 C1088.5938,25.9375 1088.2031,25.5469 1087.7344,25.5469 C1087.5156,25.5469 1087.3125,25.625 1087.125,25.8125 C1086.6719,26.2969 1086.6719,26.2969 1086.4844,26.3906 C1086.0625,26.6563 1085.375,26.7813 1084.6094,26.7813 C1082.5625,26.7813 1081.2656,25.6875 1081.2656,23.9844 L1081.2656,22.8906 C1081.2656,21.1094 1082.5156,19.7969 1084.25,19.7969 C1084.8281,19.7969 1085.4375,19.9531 1085.9063,20.2031 C1086.3906,20.4844 1086.5625,20.7031 1086.6563,21.1094 C1086.7188,21.5156 1086.75,21.6406 1086.8906,21.7656 C1087.0313,21.9063 1087.2656,22.0156 1087.4844,22.0156 C1087.75,22.0156 1088.0156,21.875 1088.1875,21.6563 C1088.2969,21.5 1088.3281,21.3125 1088.3281,20.8906 L1088.3281,19.4688 C1088.3281,19.0313 1088.3125,18.9063 1088.2188,18.75 C1088.0625,18.4844 1087.7813,18.3438 1087.4844,18.3438 C1087.1875,18.3438 1086.9844,18.4375 1086.7656,18.75 L1086.5938,18.6719 Z " fill="#000000"/><text fill="#000000" font-family="sans-serif" font-size="12" lengthAdjust="spacing" textLength="40" x="1104.75" y="27.1543">PortDB</text><line style="stroke:#A80036;stroke-width:1.5;" x1="829" x2="1388" y1="39" y2="39"/><text fill="#000000" font-family="sans-serif" font-size="11" lengthAdjust="spacing" textLength="247" x="834" y="53.2104">-databaseConnection: DatabaseConnection</text><line style="stroke:#A80036;stroke-width:1.5;" x1="829" x2="1388" y1="59.8047" y2="59.8047"/><text fill="#000000" font-family="sans-serif" font-size="11" lengthAdjust="spacing" textLength="519" x="834" y="74.0151">+occupancyRateShips(DatabaseConnection connection, int facilityCode, int year,int month)</text><text fill="#000000" font-family="sans-serif" font-size="11" lengthAdjust="spacing" textLength="549" x="834" y="86.8198">+occupancyRateContainers(DatabaseConnection connection, int facilityCode, int year,int month)</text><!--MD5=[9873d8a2c6cd70d1cc3a8ef9c0b4542c]
class PortController--><rect codeLine="12" fill="#FEFECE" filter="url(#fzsnc6mz2joor)" height="86.4141" id="PortController" style="stroke:#A80036;stroke-width:1.5;" width="561" x="207" y="7"/><ellipse cx="442.25" cy="23" fill="#ADD1B2" rx="11" ry="11" style="stroke:#A80036;stroke-width:1.0;"/><path d="M444.5938,18.6719 C443.6563,18.2344 443.0625,18.0938 442.1875,18.0938 C439.5625,18.0938 437.5625,20.1719 437.5625,22.8906 L437.5625,24.0156 C437.5625,26.5938 439.6719,28.4844 442.5625,28.4844 C443.7813,28.4844 444.9375,28.1875 445.6875,27.6406 C446.2656,27.2344 446.5938,26.7813 446.5938,26.3906 C446.5938,25.9375 446.2031,25.5469 445.7344,25.5469 C445.5156,25.5469 445.3125,25.625 445.125,25.8125 C444.6719,26.2969 444.6719,26.2969 444.4844,26.3906 C444.0625,26.6563 443.375,26.7813 442.6094,26.7813 C440.5625,26.7813 439.2656,25.6875 439.2656,23.9844 L439.2656,22.8906 C439.2656,21.1094 440.5156,19.7969 442.25,19.7969 C442.8281,19.7969 443.4375,19.9531 443.9063,20.2031 C444.3906,20.4844 444.5625,20.7031 444.6563,21.1094 C444.7188,21.5156 444.75,21.6406 444.8906,21.7656 C445.0313,21.9063 445.2656,22.0156 445.4844,22.0156 C445.75,22.0156 446.0156,21.875 446.1875,21.6563 C446.2969,21.5 446.3281,21.3125 446.3281,20.8906 L446.3281,19.4688 C446.3281,19.0313 446.3125,18.9063 446.2188,18.75 C446.0625,18.4844 445.7813,18.3438 445.4844,18.3438 C445.1875,18.3438 444.9844,18.4375 444.7656,18.75 L444.5938,18.6719 Z " fill="#000000"/><text fill="#000000" font-family="sans-serif" font-size="12" lengthAdjust="spacing" textLength="82" x="462.75" y="27.1543">PortController</text><line style="stroke:#A80036;stroke-width:1.5;" x1="208" x2="767" y1="39" y2="39"/><text fill="#000000" font-family="sans-serif" font-size="11" lengthAdjust="spacing" textLength="62" x="213" y="53.2104">-DB:PortDB</text><line style="stroke:#A80036;stroke-width:1.5;" x1="208" x2="767" y1="59.8047" y2="59.8047"/><text fill="#000000" font-family="sans-serif" font-size="11" lengthAdjust="spacing" textLength="519" x="213" y="74.0151">+occupancyRateShips(DatabaseConnection connection, int facilityCode, int year,int month)</text><text fill="#000000" font-family="sans-serif" font-size="11" lengthAdjust="spacing" textLength="549" x="213" y="86.8198">+occupancyRateContainers(DatabaseConnection connection, int facilityCode, int year,int month)</text><!--MD5=[690c684da4c82806aedfc6f0bee589c7]
class PortControllerTest--><rect codeLine="18" fill="#FEFECE" filter="url(#fzsnc6mz2joor)" height="60.8047" id="PortControllerTest" style="stroke:#A80036;stroke-width:1.5;" width="140" x="7" y="19.5"/><ellipse cx="22" cy="35.5" fill="#ADD1B2" rx="11" ry="11" style="stroke:#A80036;stroke-width:1.0;"/><path d="M24.3438,31.1719 C23.4063,30.7344 22.8125,30.5938 21.9375,30.5938 C19.3125,30.5938 17.3125,32.6719 17.3125,35.3906 L17.3125,36.5156 C17.3125,39.0938 19.4219,40.9844 22.3125,40.9844 C23.5313,40.9844 24.6875,40.6875 25.4375,40.1406 C26.0156,39.7344 26.3438,39.2813 26.3438,38.8906 C26.3438,38.4375 25.9531,38.0469 25.4844,38.0469 C25.2656,38.0469 25.0625,38.125 24.875,38.3125 C24.4219,38.7969 24.4219,38.7969 24.2344,38.8906 C23.8125,39.1563 23.125,39.2813 22.3594,39.2813 C20.3125,39.2813 19.0156,38.1875 19.0156,36.4844 L19.0156,35.3906 C19.0156,33.6094 20.2656,32.2969 22,32.2969 C22.5781,32.2969 23.1875,32.4531 23.6563,32.7031 C24.1406,32.9844 24.3125,33.2031 24.4063,33.6094 C24.4688,34.0156 24.5,34.1406 24.6406,34.2656 C24.7813,34.4063 25.0156,34.5156 25.2344,34.5156 C25.5,34.5156 25.7656,34.375 25.9375,34.1563 C26.0469,34 26.0781,33.8125 26.0781,33.3906 L26.0781,31.9688 C26.0781,31.5313 26.0625,31.4063 25.9688,31.25 C25.8125,30.9844 25.5313,30.8438 25.2344,30.8438 C24.9375,30.8438 24.7344,30.9375 24.5156,31.25 L24.3438,31.1719 Z " fill="#000000"/><text fill="#000000" font-family="sans-serif" font-size="12" lengthAdjust="spacing" textLength="108" x="36" y="39.6543">PortControllerTest</text><line style="stroke:#A80036;stroke-width:1.5;" x1="8" x2="146" y1="51.5" y2="51.5"/><line style="stroke:#A80036;stroke-width:1.5;" x1="8" x2="146" y1="59.5" y2="59.5"/><text fill="#000000" font-family="sans-serif" font-size="11" lengthAdjust="spacing" textLength="103" x="13" y="73.7104">+occupancyRate()</text><!--MD5=[b1a9af6cd3c83df508be3f87042698c2]
link PortControllerTest to PortController--><path codeLine="22" d="M147.296,50 C163.665,50 182.125,50 201.769,50 " fill="none" id="PortControllerTest-to-PortController" style="stroke:#A80036;stroke-width:1.0;stroke-dasharray:7.0,7.0;"/><polygon fill="#A80036" points="206.788,50,197.788,46,201.788,50,197.788,54,206.788,50" style="stroke:#A80036;stroke-width:1.0;"/><!--MD5=[7f61e282f015c18f431415c9cd69108a]
link PortController to PortDB--><path codeLine="23" d="M768.119,50 C786.276,50 804.572,50 822.753,50 " fill="none" id="PortController-to-PortDB" style="stroke:#A80036;stroke-width:1.0;"/><polygon fill="#A80036" points="827.877,50,818.877,46,822.877,50,818.877,54,827.877,50" style="stroke:#A80036;stroke-width:1.0;"/><!--MD5=[f937e359e4e10c9f74caebbf7200918a]
@startuml
skinparam classAttributeIconSize 0
left to right direction



class PortDB{
-databaseConnection: DatabaseConnection
+occupancyRateShips(DatabaseConnection connection, int facilityCode, int year,int month)
+occupancyRateContainers(DatabaseConnection connection, int facilityCode, int year,int month)
}

class PortController{
-DB:PortDB
+occupancyRateShips(DatabaseConnection connection, int facilityCode, int year,int month)
+occupancyRateContainers(DatabaseConnection connection, int facilityCode, int year,int month)
}

Class "PortControllerTest"{
+occupancyRate()
}

PortControllerTest..>PortController
PortController- ->PortDB
@enduml

PlantUML version 1.2021.17beta4(Unknown compile time)
(GPL source distribution)
Java Runtime: Java(TM) SE Runtime Environment
JVM: Java HotSpot(TM) 64-Bit Server VM
Default Encoding: UTF-8
Language: en
Country: US
--></g></svg>