<?xml version="1.0" encoding="UTF-8" standalone="no"?><svg xmlns="http://www.w3.org/2000/svg" xmlns:xlink="http://www.w3.org/1999/xlink" contentScriptType="application/ecmascript" contentStyleType="text/css" height="1516px" preserveAspectRatio="none" style="width:1012px;height:1516px;background:#FFFFFF;" version="1.1" viewBox="0 0 1012 1516" width="1012px" zoomAndPan="magnify"><defs><filter height="300%" id="fn1hht3805nwo" width="300%" x="-1" y="-1"><feGaussianBlur result="blurOut" stdDeviation="2.0"/><feColorMatrix in="blurOut" result="blurOut2" type="matrix" values="0 0 0 0 0 0 0 0 0 0 0 0 0 0 0 0 0 0 .4 0"/><feOffset dx="4.0" dy="4.0" in="blurOut2" result="blurOut3"/><feBlend in="SourceGraphic" in2="blurOut3" mode="normal"/></filter></defs><g><!--MD5=[d8a5c6f12add15b22e781f1f574c705d]
class ShipController--><rect codeLine="2" fill="#FEFECE" filter="url(#fn1hht3805nwo)" height="99.2188" id="ShipController" style="stroke:#A80036;stroke-width:1.5;" width="240" x="27.5" y="7"/><ellipse cx="100.75" cy="23" fill="#ADD1B2" rx="11" ry="11" style="stroke:#A80036;stroke-width:1.0;"/><path d="M103.0938,18.6719 C102.1563,18.2344 101.5625,18.0938 100.6875,18.0938 C98.0625,18.0938 96.0625,20.1719 96.0625,22.8906 L96.0625,24.0156 C96.0625,26.5938 98.1719,28.4844 101.0625,28.4844 C102.2813,28.4844 103.4375,28.1875 104.1875,27.6406 C104.7656,27.2344 105.0938,26.7813 105.0938,26.3906 C105.0938,25.9375 104.7031,25.5469 104.2344,25.5469 C104.0156,25.5469 103.8125,25.625 103.625,25.8125 C103.1719,26.2969 103.1719,26.2969 102.9844,26.3906 C102.5625,26.6563 101.875,26.7813 101.1094,26.7813 C99.0625,26.7813 97.7656,25.6875 97.7656,23.9844 L97.7656,22.8906 C97.7656,21.1094 99.0156,19.7969 100.75,19.7969 C101.3281,19.7969 101.9375,19.9531 102.4063,20.2031 C102.8906,20.4844 103.0625,20.7031 103.1563,21.1094 C103.2188,21.5156 103.25,21.6406 103.3906,21.7656 C103.5313,21.9063 103.7656,22.0156 103.9844,22.0156 C104.25,22.0156 104.5156,21.875 104.6875,21.6563 C104.7969,21.5 104.8281,21.3125 104.8281,20.8906 L104.8281,19.4688 C104.8281,19.0313 104.8125,18.9063 104.7188,18.75 C104.5625,18.4844 104.2813,18.3438 103.9844,18.3438 C103.6875,18.3438 103.4844,18.4375 103.2656,18.75 L103.0938,18.6719 Z " fill="#000000"/><text fill="#000000" font-family="sans-serif" font-size="12" lengthAdjust="spacing" textLength="85" x="121.25" y="27.1543">ShipController</text><line style="stroke:#A80036;stroke-width:1.5;" x1="28.5" x2="266.5" y1="39" y2="39"/><line style="stroke:#A80036;stroke-width:1.5;" x1="28.5" x2="266.5" y1="47" y2="47"/><text fill="#000000" font-family="sans-serif" font-size="11" lengthAdjust="spacing" textLength="149" x="33.5" y="61.2104">+organizeShipMessages()</text><text fill="#000000" font-family="sans-serif" font-size="11" lengthAdjust="spacing" textLength="177" x="33.5" y="74.0151">+checkPositionData(code,date)</text><text fill="#000000" font-family="sans-serif" font-size="11" lengthAdjust="spacing" textLength="228" x="33.5" y="86.8198">+checkPositionPeriod(code,date1,date2)</text><text fill="#000000" font-family="sans-serif" font-size="11" lengthAdjust="spacing" textLength="175" x="33.5" y="99.6245">+getTopNShips(n,date1,date2)</text><!--MD5=[02e4b9b7573f1156f41e60aa5b4e25a4]
class Company--><rect codeLine="9" fill="#FEFECE" filter="url(#fn1hht3805nwo)" height="60.8047" id="Company" style="stroke:#A80036;stroke-width:1.5;" width="104" x="210.5" y="199"/><ellipse cx="232.7" cy="215" fill="#ADD1B2" rx="11" ry="11" style="stroke:#A80036;stroke-width:1.0;"/><path d="M235.0438,210.6719 C234.1063,210.2344 233.5125,210.0938 232.6375,210.0938 C230.0125,210.0938 228.0125,212.1719 228.0125,214.8906 L228.0125,216.0156 C228.0125,218.5938 230.1219,220.4844 233.0125,220.4844 C234.2313,220.4844 235.3875,220.1875 236.1375,219.6406 C236.7156,219.2344 237.0438,218.7813 237.0438,218.3906 C237.0438,217.9375 236.6531,217.5469 236.1844,217.5469 C235.9656,217.5469 235.7625,217.625 235.575,217.8125 C235.1219,218.2969 235.1219,218.2969 234.9344,218.3906 C234.5125,218.6563 233.825,218.7813 233.0594,218.7813 C231.0125,218.7813 229.7156,217.6875 229.7156,215.9844 L229.7156,214.8906 C229.7156,213.1094 230.9656,211.7969 232.7,211.7969 C233.2781,211.7969 233.8875,211.9531 234.3563,212.2031 C234.8406,212.4844 235.0125,212.7031 235.1063,213.1094 C235.1688,213.5156 235.2,213.6406 235.3406,213.7656 C235.4813,213.9063 235.7156,214.0156 235.9344,214.0156 C236.2,214.0156 236.4656,213.875 236.6375,213.6563 C236.7469,213.5 236.7781,213.3125 236.7781,212.8906 L236.7781,211.4688 C236.7781,211.0313 236.7625,210.9063 236.6688,210.75 C236.5125,210.4844 236.2313,210.3438 235.9344,210.3438 C235.6375,210.3438 235.4344,210.4375 235.2156,210.75 L235.0438,210.6719 Z " fill="#000000"/><text fill="#000000" font-family="sans-serif" font-size="12" lengthAdjust="spacing" textLength="56" x="248.3" y="219.1543">Company</text><line style="stroke:#A80036;stroke-width:1.5;" x1="211.5" x2="313.5" y1="231" y2="231"/><line style="stroke:#A80036;stroke-width:1.5;" x1="211.5" x2="313.5" y1="239" y2="239"/><text fill="#000000" font-family="sans-serif" font-size="11" lengthAdjust="spacing" textLength="92" x="216.5" y="253.2104">+getShipStore()</text><!--MD5=[447cff7a409c74219461559500508d7e]
class ShipPairList--><rect codeLine="13" fill="#FEFECE" filter="url(#fn1hht3805nwo)" height="124.8281" id="ShipPairList" style="stroke:#A80036;stroke-width:1.5;" width="229" x="350" y="167"/><ellipse cx="426.75" cy="183" fill="#ADD1B2" rx="11" ry="11" style="stroke:#A80036;stroke-width:1.0;"/><path d="M429.0938,178.6719 C428.1563,178.2344 427.5625,178.0938 426.6875,178.0938 C424.0625,178.0938 422.0625,180.1719 422.0625,182.8906 L422.0625,184.0156 C422.0625,186.5938 424.1719,188.4844 427.0625,188.4844 C428.2813,188.4844 429.4375,188.1875 430.1875,187.6406 C430.7656,187.2344 431.0938,186.7813 431.0938,186.3906 C431.0938,185.9375 430.7031,185.5469 430.2344,185.5469 C430.0156,185.5469 429.8125,185.625 429.625,185.8125 C429.1719,186.2969 429.1719,186.2969 428.9844,186.3906 C428.5625,186.6563 427.875,186.7813 427.1094,186.7813 C425.0625,186.7813 423.7656,185.6875 423.7656,183.9844 L423.7656,182.8906 C423.7656,181.1094 425.0156,179.7969 426.75,179.7969 C427.3281,179.7969 427.9375,179.9531 428.4063,180.2031 C428.8906,180.4844 429.0625,180.7031 429.1563,181.1094 C429.2188,181.5156 429.25,181.6406 429.3906,181.7656 C429.5313,181.9063 429.7656,182.0156 429.9844,182.0156 C430.25,182.0156 430.5156,181.875 430.6875,181.6563 C430.7969,181.5 430.8281,181.3125 430.8281,180.8906 L430.8281,179.4688 C430.8281,179.0313 430.8125,178.9063 430.7188,178.75 C430.5625,178.4844 430.2813,178.3438 429.9844,178.3438 C429.6875,178.3438 429.4844,178.4375 429.2656,178.75 L429.0938,178.6719 Z " fill="#000000"/><text fill="#000000" font-family="sans-serif" font-size="12" lengthAdjust="spacing" textLength="67" x="447.25" y="187.1543">ShipPairList</text><line style="stroke:#A80036;stroke-width:1.5;" x1="351" x2="578" y1="199" y2="199"/><text fill="#000000" font-family="sans-serif" font-size="11" lengthAdjust="spacing" textLength="198" x="356" y="213.2104">-List&lt;Pair&lt;Ship,Ship&gt;&gt; shipPairList</text><text fill="#000000" font-family="sans-serif" font-size="11" lengthAdjust="spacing" textLength="217" x="356" y="226.0151">-List&lt;Double&gt; travelledDifferenceList</text><line style="stroke:#A80036;stroke-width:1.5;" x1="351" x2="578" y1="232.6094" y2="232.6094"/><text fill="#000000" font-family="sans-serif" font-size="11" lengthAdjust="spacing" textLength="185" x="356" y="246.8198">+ShipPairList(List &lt;Ship&gt; lShips)</text><text fill="#000000" font-family="sans-serif" font-size="11" lengthAdjust="spacing" textLength="100" x="356" y="259.6245">+getShipPairList()</text><text fill="#000000" font-family="sans-serif" font-size="11" lengthAdjust="spacing" textLength="170" x="356" y="272.4292">+getTravelledDifferenceList()</text><text fill="#000000" font-family="sans-serif" font-size="11" lengthAdjust="spacing" textLength="145" x="356" y="285.2339">+privateSortingMethods()</text><!--MD5=[0dc7f2ddb409b58bcf52b12238c25399]
class Ship--><rect codeLine="22" fill="#FEFECE" filter="url(#fn1hht3805nwo)" height="252.875" id="Ship" style="stroke:#A80036;stroke-width:1.5;" width="261" x="273" y="593"/><ellipse cx="386.25" cy="609" fill="#ADD1B2" rx="11" ry="11" style="stroke:#A80036;stroke-width:1.0;"/><path d="M388.5938,604.6719 C387.6563,604.2344 387.0625,604.0938 386.1875,604.0938 C383.5625,604.0938 381.5625,606.1719 381.5625,608.8906 L381.5625,610.0156 C381.5625,612.5938 383.6719,614.4844 386.5625,614.4844 C387.7813,614.4844 388.9375,614.1875 389.6875,613.6406 C390.2656,613.2344 390.5938,612.7813 390.5938,612.3906 C390.5938,611.9375 390.2031,611.5469 389.7344,611.5469 C389.5156,611.5469 389.3125,611.625 389.125,611.8125 C388.6719,612.2969 388.6719,612.2969 388.4844,612.3906 C388.0625,612.6563 387.375,612.7813 386.6094,612.7813 C384.5625,612.7813 383.2656,611.6875 383.2656,609.9844 L383.2656,608.8906 C383.2656,607.1094 384.5156,605.7969 386.25,605.7969 C386.8281,605.7969 387.4375,605.9531 387.9063,606.2031 C388.3906,606.4844 388.5625,606.7031 388.6563,607.1094 C388.7188,607.5156 388.75,607.6406 388.8906,607.7656 C389.0313,607.9063 389.2656,608.0156 389.4844,608.0156 C389.75,608.0156 390.0156,607.875 390.1875,607.6563 C390.2969,607.5 390.3281,607.3125 390.3281,606.8906 L390.3281,605.4688 C390.3281,605.0313 390.3125,604.9063 390.2188,604.75 C390.0625,604.4844 389.7813,604.3438 389.4844,604.3438 C389.1875,604.3438 388.9844,604.4375 388.7656,604.75 L388.5938,604.6719 Z " fill="#000000"/><text fill="#000000" font-family="sans-serif" font-size="12" lengthAdjust="spacing" textLength="26" x="406.75" y="613.1543">Ship</text><line style="stroke:#A80036;stroke-width:1.5;" x1="274" x2="533" y1="625" y2="625"/><text fill="#000000" font-family="sans-serif" font-size="11" lengthAdjust="spacing" textLength="119" x="279" y="639.2104">-idShip: Identification</text><text fill="#000000" font-family="sans-serif" font-size="11" lengthAdjust="spacing" textLength="117" x="279" y="652.0151">-energy: ShipEnergy</text><text fill="#000000" font-family="sans-serif" font-size="11" lengthAdjust="spacing" textLength="200" x="279" y="664.8198">-characteristics: ShipCharacteristics</text><text fill="#000000" font-family="sans-serif" font-size="11" lengthAdjust="spacing" textLength="70" x="279" y="677.6245">-route:Route</text><text fill="#000000" font-family="sans-serif" font-size="11" lengthAdjust="spacing" textLength="163" x="279" y="690.4292">-List&lt;TravelRoute&gt; listRoute</text><line style="stroke:#A80036;stroke-width:1.5;" x1="274" x2="533" y1="697.0234" y2="697.0234"/><text fill="#000000" font-family="sans-serif" font-size="11" lengthAdjust="spacing" textLength="92" x="279" y="711.2339">+getLastRoute()</text><text fill="#000000" font-family="sans-serif" font-size="11" lengthAdjust="spacing" textLength="124" x="279" y="724.0386">+isCloseTo(Ship ship)</text><text fill="#000000" font-family="sans-serif" font-size="11" lengthAdjust="spacing" textLength="140" x="279" y="736.8433">+getTravelledDistance()</text><text fill="#000000" font-family="sans-serif" font-size="11" lengthAdjust="spacing" textLength="249" x="279" y="749.6479">+getTravelledDistanceDiference(Ship ship)</text><text fill="#000000" font-family="sans-serif" font-size="11" lengthAdjust="spacing" textLength="61" x="279" y="762.4526">+toString()</text><text fill="#000000" font-family="sans-serif" font-size="11" lengthAdjust="spacing" textLength="78" x="279" y="775.2573">+equals(ship)</text><text fill="#000000" font-family="sans-serif" font-size="11" lengthAdjust="spacing" textLength="104" x="279" y="788.062">+compareTo(ship)</text><text fill="#000000" font-family="sans-serif" font-size="11" lengthAdjust="spacing" textLength="109" x="279" y="800.8667">+acessorMethods()</text><text fill="#000000" font-family="sans-serif" font-size="11" lengthAdjust="spacing" textLength="0" x="283" y="813.6714"/><text fill="#000000" font-family="sans-serif" font-size="11" lengthAdjust="spacing" textLength="202" x="279" y="826.4761">+Ship(idShip, characteristics, route)</text><text fill="#000000" font-family="sans-serif" font-size="11" lengthAdjust="spacing" textLength="26" x="279" y="839.2808">+...()</text><!--MD5=[ea2206eefe09474e90beb17e18e6b3d8]
class ShipStore--><rect codeLine="41" fill="#FEFECE" filter="url(#fn1hht3805nwo)" height="163.2422" id="ShipStore" style="stroke:#A80036;stroke-width:1.5;" width="282" x="262.5" y="353"/><ellipse cx="369.75" cy="369" fill="#ADD1B2" rx="11" ry="11" style="stroke:#A80036;stroke-width:1.0;"/><path d="M372.0938,364.6719 C371.1563,364.2344 370.5625,364.0938 369.6875,364.0938 C367.0625,364.0938 365.0625,366.1719 365.0625,368.8906 L365.0625,370.0156 C365.0625,372.5938 367.1719,374.4844 370.0625,374.4844 C371.2813,374.4844 372.4375,374.1875 373.1875,373.6406 C373.7656,373.2344 374.0938,372.7813 374.0938,372.3906 C374.0938,371.9375 373.7031,371.5469 373.2344,371.5469 C373.0156,371.5469 372.8125,371.625 372.625,371.8125 C372.1719,372.2969 372.1719,372.2969 371.9844,372.3906 C371.5625,372.6563 370.875,372.7813 370.1094,372.7813 C368.0625,372.7813 366.7656,371.6875 366.7656,369.9844 L366.7656,368.8906 C366.7656,367.1094 368.0156,365.7969 369.75,365.7969 C370.3281,365.7969 370.9375,365.9531 371.4063,366.2031 C371.8906,366.4844 372.0625,366.7031 372.1563,367.1094 C372.2188,367.5156 372.25,367.6406 372.3906,367.7656 C372.5313,367.9063 372.7656,368.0156 372.9844,368.0156 C373.25,368.0156 373.5156,367.875 373.6875,367.6563 C373.7969,367.5 373.8281,367.3125 373.8281,366.8906 L373.8281,365.4688 C373.8281,365.0313 373.8125,364.9063 373.7188,364.75 C373.5625,364.4844 373.2813,364.3438 372.9844,364.3438 C372.6875,364.3438 372.4844,364.4375 372.2656,364.75 L372.0938,364.6719 Z " fill="#000000"/><text fill="#000000" font-family="sans-serif" font-size="12" lengthAdjust="spacing" textLength="59" x="390.25" y="373.1543">ShipStore</text><line style="stroke:#A80036;stroke-width:1.5;" x1="263.5" x2="543.5" y1="385" y2="385"/><text fill="#000000" font-family="sans-serif" font-size="11" lengthAdjust="spacing" textLength="131" x="268.5" y="399.2104">-AVL &lt;Ship&gt; shipStore</text><line style="stroke:#A80036;stroke-width:1.5;" x1="263.5" x2="543.5" y1="405.8047" y2="405.8047"/><text fill="#000000" font-family="sans-serif" font-size="11" lengthAdjust="spacing" textLength="122" x="268.5" y="420.0151">+addShipToAVL(ship)</text><text fill="#000000" font-family="sans-serif" font-size="11" lengthAdjust="spacing" textLength="270" x="268.5" y="432.8198">+reorganizeShipAVLAccordingToTheCode(ship)</text><text fill="#000000" font-family="sans-serif" font-size="11" lengthAdjust="spacing" textLength="131" x="268.5" y="445.6245">+findShipDetails(code)</text><text fill="#000000" font-family="sans-serif" font-size="11" lengthAdjust="spacing" textLength="119" x="268.5" y="458.4292">+getCloseShipPairs()</text><text fill="#000000" font-family="sans-serif" font-size="11" lengthAdjust="spacing" textLength="149" x="268.5" y="471.2339">+organizeShipMessages()</text><text fill="#000000" font-family="sans-serif" font-size="11" lengthAdjust="spacing" textLength="177" x="268.5" y="484.0386">+checkPositionData(code,date)</text><text fill="#000000" font-family="sans-serif" font-size="11" lengthAdjust="spacing" textLength="228" x="268.5" y="496.8433">+checkPositionPeriod(code,date1,date2)</text><text fill="#000000" font-family="sans-serif" font-size="11" lengthAdjust="spacing" textLength="175" x="268.5" y="509.6479">+getTopNShips(n,date1,date2)</text><!--MD5=[9a305ff8ded9dfea1b145311e23eef54]
class ShipCharacteristics--><rect codeLine="53" fill="#FEFECE" filter="url(#fn1hht3805nwo)" height="150.4375" id="ShipCharacteristics" style="stroke:#A80036;stroke-width:1.5;" width="147" x="7" y="923"/><ellipse cx="22" cy="939" fill="#ADD1B2" rx="11" ry="11" style="stroke:#A80036;stroke-width:1.0;"/><path d="M24.3438,934.6719 C23.4063,934.2344 22.8125,934.0938 21.9375,934.0938 C19.3125,934.0938 17.3125,936.1719 17.3125,938.8906 L17.3125,940.0156 C17.3125,942.5938 19.4219,944.4844 22.3125,944.4844 C23.5313,944.4844 24.6875,944.1875 25.4375,943.6406 C26.0156,943.2344 26.3438,942.7813 26.3438,942.3906 C26.3438,941.9375 25.9531,941.5469 25.4844,941.5469 C25.2656,941.5469 25.0625,941.625 24.875,941.8125 C24.4219,942.2969 24.4219,942.2969 24.2344,942.3906 C23.8125,942.6563 23.125,942.7813 22.3594,942.7813 C20.3125,942.7813 19.0156,941.6875 19.0156,939.9844 L19.0156,938.8906 C19.0156,937.1094 20.2656,935.7969 22,935.7969 C22.5781,935.7969 23.1875,935.9531 23.6563,936.2031 C24.1406,936.4844 24.3125,936.7031 24.4063,937.1094 C24.4688,937.5156 24.5,937.6406 24.6406,937.7656 C24.7813,937.9063 25.0156,938.0156 25.2344,938.0156 C25.5,938.0156 25.7656,937.875 25.9375,937.6563 C26.0469,937.5 26.0781,937.3125 26.0781,936.8906 L26.0781,935.4688 C26.0781,935.0313 26.0625,934.9063 25.9688,934.75 C25.8125,934.4844 25.5313,934.3438 25.2344,934.3438 C24.9375,934.3438 24.7344,934.4375 24.5156,934.75 L24.3438,934.6719 Z " fill="#000000"/><text fill="#000000" font-family="sans-serif" font-size="12" lengthAdjust="spacing" textLength="115" x="36" y="943.1543">ShipCharacteristics</text><line style="stroke:#A80036;stroke-width:1.5;" x1="8" x2="153" y1="955" y2="955"/><text fill="#000000" font-family="sans-serif" font-size="11" lengthAdjust="spacing" textLength="92" x="13" y="969.2104">-vesselType: int</text><text fill="#000000" font-family="sans-serif" font-size="11" lengthAdjust="spacing" textLength="88" x="13" y="982.0151">-length: Double</text><text fill="#000000" font-family="sans-serif" font-size="11" lengthAdjust="spacing" textLength="82" x="13" y="994.8198">-width: Double</text><text fill="#000000" font-family="sans-serif" font-size="11" lengthAdjust="spacing" textLength="78" x="13" y="1007.6245">-draft: Double</text><line style="stroke:#A80036;stroke-width:1.5;" x1="8" x2="153" y1="1014.2188" y2="1014.2188"/><text fill="#000000" font-family="sans-serif" font-size="11" lengthAdjust="spacing" textLength="61" x="13" y="1028.4292">+toString()</text><text fill="#000000" font-family="sans-serif" font-size="11" lengthAdjust="spacing" textLength="78" x="13" y="1041.2339">+equals(ship)</text><text fill="#000000" font-family="sans-serif" font-size="11" lengthAdjust="spacing" textLength="74" x="13" y="1054.0386">+hashCode()</text><text fill="#000000" font-family="sans-serif" font-size="11" lengthAdjust="spacing" textLength="109" x="13" y="1066.8433">+acessorMethods()</text><!--MD5=[9405696ed3e86fd0be987c002d055c8c]
class SeeShipDetailsTest--><rect codeLine="64" fill="#FEFECE" filter="url(#fn1hht3805nwo)" height="60.8047" id="SeeShipDetailsTest" style="stroke:#A80036;stroke-width:1.5;" width="149" x="303" y="26"/><ellipse cx="318" cy="42" fill="#ADD1B2" rx="11" ry="11" style="stroke:#A80036;stroke-width:1.0;"/><path d="M320.3438,37.6719 C319.4063,37.2344 318.8125,37.0938 317.9375,37.0938 C315.3125,37.0938 313.3125,39.1719 313.3125,41.8906 L313.3125,43.0156 C313.3125,45.5938 315.4219,47.4844 318.3125,47.4844 C319.5313,47.4844 320.6875,47.1875 321.4375,46.6406 C322.0156,46.2344 322.3438,45.7813 322.3438,45.3906 C322.3438,44.9375 321.9531,44.5469 321.4844,44.5469 C321.2656,44.5469 321.0625,44.625 320.875,44.8125 C320.4219,45.2969 320.4219,45.2969 320.2344,45.3906 C319.8125,45.6563 319.125,45.7813 318.3594,45.7813 C316.3125,45.7813 315.0156,44.6875 315.0156,42.9844 L315.0156,41.8906 C315.0156,40.1094 316.2656,38.7969 318,38.7969 C318.5781,38.7969 319.1875,38.9531 319.6563,39.2031 C320.1406,39.4844 320.3125,39.7031 320.4063,40.1094 C320.4688,40.5156 320.5,40.6406 320.6406,40.7656 C320.7813,40.9063 321.0156,41.0156 321.2344,41.0156 C321.5,41.0156 321.7656,40.875 321.9375,40.6563 C322.0469,40.5 322.0781,40.3125 322.0781,39.8906 L322.0781,38.4688 C322.0781,38.0313 322.0625,37.9063 321.9688,37.75 C321.8125,37.4844 321.5313,37.3438 321.2344,37.3438 C320.9375,37.3438 320.7344,37.4375 320.5156,37.75 L320.3438,37.6719 Z " fill="#000000"/><text fill="#000000" font-family="sans-serif" font-size="12" lengthAdjust="spacing" textLength="117" x="332" y="46.1543">SeeShipDetailsTest</text><line style="stroke:#A80036;stroke-width:1.5;" x1="304" x2="451" y1="58" y2="58"/><line style="stroke:#A80036;stroke-width:1.5;" x1="304" x2="451" y1="66" y2="66"/><text fill="#000000" font-family="sans-serif" font-size="11" lengthAdjust="spacing" textLength="134" x="309" y="80.2104">+getShipByCode(code)</text><!--MD5=[82dc263f563d227779ba81db65b2fd4d]
class Identification--><rect codeLine="68" fill="#FEFECE" filter="url(#fn1hht3805nwo)" height="137.6328" id="Identification" style="stroke:#A80036;stroke-width:1.5;" width="251" x="189" y="929"/><ellipse cx="272.25" cy="945" fill="#ADD1B2" rx="11" ry="11" style="stroke:#A80036;stroke-width:1.0;"/><path d="M274.5938,940.6719 C273.6563,940.2344 273.0625,940.0938 272.1875,940.0938 C269.5625,940.0938 267.5625,942.1719 267.5625,944.8906 L267.5625,946.0156 C267.5625,948.5938 269.6719,950.4844 272.5625,950.4844 C273.7813,950.4844 274.9375,950.1875 275.6875,949.6406 C276.2656,949.2344 276.5938,948.7813 276.5938,948.3906 C276.5938,947.9375 276.2031,947.5469 275.7344,947.5469 C275.5156,947.5469 275.3125,947.625 275.125,947.8125 C274.6719,948.2969 274.6719,948.2969 274.4844,948.3906 C274.0625,948.6563 273.375,948.7813 272.6094,948.7813 C270.5625,948.7813 269.2656,947.6875 269.2656,945.9844 L269.2656,944.8906 C269.2656,943.1094 270.5156,941.7969 272.25,941.7969 C272.8281,941.7969 273.4375,941.9531 273.9063,942.2031 C274.3906,942.4844 274.5625,942.7031 274.6563,943.1094 C274.7188,943.5156 274.75,943.6406 274.8906,943.7656 C275.0313,943.9063 275.2656,944.0156 275.4844,944.0156 C275.75,944.0156 276.0156,943.875 276.1875,943.6563 C276.2969,943.5 276.3281,943.3125 276.3281,942.8906 L276.3281,941.4688 C276.3281,941.0313 276.3125,940.9063 276.2188,940.75 C276.0625,940.4844 275.7813,940.3438 275.4844,940.3438 C275.1875,940.3438 274.9844,940.4375 274.7656,940.75 L274.5938,940.6719 Z " fill="#000000"/><text fill="#000000" font-family="sans-serif" font-size="12" lengthAdjust="spacing" textLength="76" x="292.75" y="949.1543">Identification</text><line style="stroke:#A80036;stroke-width:1.5;" x1="190" x2="439" y1="961" y2="961"/><text fill="#000000" font-family="sans-serif" font-size="11" lengthAdjust="spacing" textLength="75" x="195" y="975.2104">-mmsi: String</text><text fill="#000000" font-family="sans-serif" font-size="11" lengthAdjust="spacing" textLength="101" x="195" y="988.0151">-shipName: String</text><text fill="#000000" font-family="sans-serif" font-size="11" lengthAdjust="spacing" textLength="77" x="195" y="1000.8198">-imoID: String</text><line style="stroke:#A80036;stroke-width:1.5;" x1="190" x2="439" y1="1007.4141" y2="1007.4141"/><text fill="#000000" font-family="sans-serif" font-size="11" lengthAdjust="spacing" textLength="61" x="195" y="1021.6245">+toString()</text><text fill="#000000" font-family="sans-serif" font-size="11" lengthAdjust="spacing" textLength="78" x="195" y="1034.4292">+equals(ship)</text><text fill="#000000" font-family="sans-serif" font-size="11" lengthAdjust="spacing" textLength="239" x="195" y="1047.2339">+returnCodeAccordingToTheFormat(code)</text><text fill="#000000" font-family="sans-serif" font-size="11" lengthAdjust="spacing" textLength="109" x="195" y="1060.0386">+acessorMethods()</text><!--MD5=[fc92a9f5bb5fae84dd7fa4034e6b4444]
class Route--><rect codeLine="78" fill="#FEFECE" filter="url(#fn1hht3805nwo)" height="150.4375" id="Route" style="stroke:#A80036;stroke-width:1.5;" width="198" x="475.5" y="923"/><ellipse cx="553.25" cy="939" fill="#ADD1B2" rx="11" ry="11" style="stroke:#A80036;stroke-width:1.0;"/><path d="M555.5938,934.6719 C554.6563,934.2344 554.0625,934.0938 553.1875,934.0938 C550.5625,934.0938 548.5625,936.1719 548.5625,938.8906 L548.5625,940.0156 C548.5625,942.5938 550.6719,944.4844 553.5625,944.4844 C554.7813,944.4844 555.9375,944.1875 556.6875,943.6406 C557.2656,943.2344 557.5938,942.7813 557.5938,942.3906 C557.5938,941.9375 557.2031,941.5469 556.7344,941.5469 C556.5156,941.5469 556.3125,941.625 556.125,941.8125 C555.6719,942.2969 555.6719,942.2969 555.4844,942.3906 C555.0625,942.6563 554.375,942.7813 553.6094,942.7813 C551.5625,942.7813 550.2656,941.6875 550.2656,939.9844 L550.2656,938.8906 C550.2656,937.1094 551.5156,935.7969 553.25,935.7969 C553.8281,935.7969 554.4375,935.9531 554.9063,936.2031 C555.3906,936.4844 555.5625,936.7031 555.6563,937.1094 C555.7188,937.5156 555.75,937.6406 555.8906,937.7656 C556.0313,937.9063 556.2656,938.0156 556.4844,938.0156 C556.75,938.0156 557.0156,937.875 557.1875,937.6563 C557.2969,937.5 557.3281,937.3125 557.3281,936.8906 L557.3281,935.4688 C557.3281,935.0313 557.3125,934.9063 557.2188,934.75 C557.0625,934.4844 556.7813,934.3438 556.4844,934.3438 C556.1875,934.3438 555.9844,934.4375 555.7656,934.75 L555.5938,934.6719 Z " fill="#000000"/><text fill="#000000" font-family="sans-serif" font-size="12" lengthAdjust="spacing" textLength="34" x="573.75" y="943.1543">Route</text><line style="stroke:#A80036;stroke-width:1.5;" x1="476.5" x2="672.5" y1="955" y2="955"/><text fill="#000000" font-family="sans-serif" font-size="11" lengthAdjust="spacing" textLength="186" x="481.5" y="969.2104">-List&lt;ShipDynamic&gt; listDynamic</text><line style="stroke:#A80036;stroke-width:1.5;" x1="476.5" x2="672.5" y1="975.8047" y2="975.8047"/><text fill="#000000" font-family="sans-serif" font-size="11" lengthAdjust="spacing" textLength="150" x="481.5" y="990.0151">+getDepartureLongitude()</text><text fill="#000000" font-family="sans-serif" font-size="11" lengthAdjust="spacing" textLength="140" x="481.5" y="1002.8198">+getDepartureLatitude()</text><text fill="#000000" font-family="sans-serif" font-size="11" lengthAdjust="spacing" textLength="128" x="481.5" y="1015.6245">+getArrivalLongitude()</text><text fill="#000000" font-family="sans-serif" font-size="11" lengthAdjust="spacing" textLength="118" x="481.5" y="1028.4292">+getArrivalLatitude()</text><text fill="#000000" font-family="sans-serif" font-size="11" lengthAdjust="spacing" textLength="140" x="481.5" y="1041.2339">+getTravelledDistance()</text><text fill="#000000" font-family="sans-serif" font-size="11" lengthAdjust="spacing" textLength="111" x="481.5" y="1054.0386">+getShipDynamic()</text><text fill="#000000" font-family="sans-serif" font-size="11" lengthAdjust="spacing" textLength="109" x="481.5" y="1066.8433">+acessorMethods()</text><!--MD5=[19c2b9eb46691e25b02426140995a460]
class ShipDynamic--><rect codeLine="89" fill="#FEFECE" filter="url(#fn1hht3805nwo)" height="163.2422" id="ShipDynamic" style="stroke:#A80036;stroke-width:1.5;" width="146" x="501.5" y="1150"/><ellipse cx="533.15" cy="1166" fill="#ADD1B2" rx="11" ry="11" style="stroke:#A80036;stroke-width:1.0;"/><path d="M535.4938,1161.6719 C534.5563,1161.2344 533.9625,1161.0938 533.0875,1161.0938 C530.4625,1161.0938 528.4625,1163.1719 528.4625,1165.8906 L528.4625,1167.0156 C528.4625,1169.5938 530.5719,1171.4844 533.4625,1171.4844 C534.6813,1171.4844 535.8375,1171.1875 536.5875,1170.6406 C537.1656,1170.2344 537.4938,1169.7813 537.4938,1169.3906 C537.4938,1168.9375 537.1031,1168.5469 536.6344,1168.5469 C536.4156,1168.5469 536.2125,1168.625 536.025,1168.8125 C535.5719,1169.2969 535.5719,1169.2969 535.3844,1169.3906 C534.9625,1169.6563 534.275,1169.7813 533.5094,1169.7813 C531.4625,1169.7813 530.1656,1168.6875 530.1656,1166.9844 L530.1656,1165.8906 C530.1656,1164.1094 531.4156,1162.7969 533.15,1162.7969 C533.7281,1162.7969 534.3375,1162.9531 534.8063,1163.2031 C535.2906,1163.4844 535.4625,1163.7031 535.5563,1164.1094 C535.6188,1164.5156 535.65,1164.6406 535.7906,1164.7656 C535.9313,1164.9063 536.1656,1165.0156 536.3844,1165.0156 C536.65,1165.0156 536.9156,1164.875 537.0875,1164.6563 C537.1969,1164.5 537.2281,1164.3125 537.2281,1163.8906 L537.2281,1162.4688 C537.2281,1162.0313 537.2125,1161.9063 537.1188,1161.75 C536.9625,1161.4844 536.6813,1161.3438 536.3844,1161.3438 C536.0875,1161.3438 535.8844,1161.4375 535.6656,1161.75 L535.4938,1161.6719 Z " fill="#000000"/><text fill="#000000" font-family="sans-serif" font-size="12" lengthAdjust="spacing" textLength="77" x="550.85" y="1170.1543">ShipDynamic</text><line style="stroke:#A80036;stroke-width:1.5;" x1="502.5" x2="646.5" y1="1182" y2="1182"/><text fill="#000000" font-family="sans-serif" font-size="11" lengthAdjust="spacing" textLength="125" x="507.5" y="1196.2104">-baseDateTime:String</text><text fill="#000000" font-family="sans-serif" font-size="11" lengthAdjust="spacing" textLength="98" x="507.5" y="1209.0151">-location:Location</text><text fill="#000000" font-family="sans-serif" font-size="11" lengthAdjust="spacing" textLength="131" x="507.5" y="1221.8198">-movement:Movement</text><text fill="#000000" font-family="sans-serif" font-size="11" lengthAdjust="spacing" textLength="71" x="507.5" y="1234.6245">-cargo:String</text><text fill="#000000" font-family="sans-serif" font-size="11" lengthAdjust="spacing" textLength="134" x="507.5" y="1247.4292">-transceiverClass:String</text><line style="stroke:#A80036;stroke-width:1.5;" x1="502.5" x2="646.5" y1="1254.0234" y2="1254.0234"/><text fill="#000000" font-family="sans-serif" font-size="11" lengthAdjust="spacing" textLength="122" x="507.5" y="1268.2339">+getBaseDateTime()</text><text fill="#000000" font-family="sans-serif" font-size="11" lengthAdjust="spacing" textLength="97" x="507.5" y="1281.0386">+getMovement()</text><text fill="#000000" font-family="sans-serif" font-size="11" lengthAdjust="spacing" textLength="83" x="507.5" y="1293.8433">+getLocation()</text><text fill="#000000" font-family="sans-serif" font-size="11" lengthAdjust="spacing" textLength="109" x="507.5" y="1306.6479">+acessorMethods()</text><!--MD5=[3ce36178935a61438ea769c26dd685ce]
class SummaryOfShipMovement--><rect codeLine="102" fill="#FEFECE" filter="url(#fn1hht3805nwo)" height="99.2188" id="SummaryOfShipMovement" style="stroke:#A80036;stroke-width:1.5;" width="290" x="708.5" y="948.5"/><ellipse cx="769.75" cy="964.5" fill="#ADD1B2" rx="11" ry="11" style="stroke:#A80036;stroke-width:1.0;"/><path d="M772.0938,960.1719 C771.1563,959.7344 770.5625,959.5938 769.6875,959.5938 C767.0625,959.5938 765.0625,961.6719 765.0625,964.3906 L765.0625,965.5156 C765.0625,968.0938 767.1719,969.9844 770.0625,969.9844 C771.2813,969.9844 772.4375,969.6875 773.1875,969.1406 C773.7656,968.7344 774.0938,968.2813 774.0938,967.8906 C774.0938,967.4375 773.7031,967.0469 773.2344,967.0469 C773.0156,967.0469 772.8125,967.125 772.625,967.3125 C772.1719,967.7969 772.1719,967.7969 771.9844,967.8906 C771.5625,968.1563 770.875,968.2813 770.1094,968.2813 C768.0625,968.2813 766.7656,967.1875 766.7656,965.4844 L766.7656,964.3906 C766.7656,962.6094 768.0156,961.2969 769.75,961.2969 C770.3281,961.2969 770.9375,961.4531 771.4063,961.7031 C771.8906,961.9844 772.0625,962.2031 772.1563,962.6094 C772.2188,963.0156 772.25,963.1406 772.3906,963.2656 C772.5313,963.4063 772.7656,963.5156 772.9844,963.5156 C773.25,963.5156 773.5156,963.375 773.6875,963.1563 C773.7969,963 773.8281,962.8125 773.8281,962.3906 L773.8281,960.9688 C773.8281,960.5313 773.8125,960.4063 773.7188,960.25 C773.5625,959.9844 773.2813,959.8438 772.9844,959.8438 C772.6875,959.8438 772.4844,959.9375 772.2656,960.25 L772.0938,960.1719 Z " fill="#000000"/><text fill="#000000" font-family="sans-serif" font-size="12" lengthAdjust="spacing" textLength="159" x="790.25" y="968.6543">SummaryOfShipMovement</text><line style="stroke:#A80036;stroke-width:1.5;" x1="709.5" x2="997.5" y1="980.5" y2="980.5"/><text fill="#000000" font-family="sans-serif" font-size="11" lengthAdjust="spacing" textLength="278" x="714.5" y="994.7104">-Map&lt;String,String&gt; SummaryOfShipMovements</text><line style="stroke:#A80036;stroke-width:1.5;" x1="709.5" x2="997.5" y1="1001.3047" y2="1001.3047"/><text fill="#000000" font-family="sans-serif" font-size="11" lengthAdjust="spacing" textLength="106" x="714.5" y="1015.5151">+create(Ship ship)</text><text fill="#000000" font-family="sans-serif" font-size="11" lengthAdjust="spacing" textLength="61" x="714.5" y="1028.3198">+toString()</text><text fill="#000000" font-family="sans-serif" font-size="11" lengthAdjust="spacing" textLength="59" x="714.5" y="1041.1245">+getMap()</text><!--MD5=[4f1f3706c1a355a8488e154afcaed5df]
class Location--><rect codeLine="109" fill="#FEFECE" filter="url(#fn1hht3805nwo)" height="86.4141" id="Location" style="stroke:#A80036;stroke-width:1.5;" width="121" x="436" y="1403"/><ellipse cx="468.55" cy="1419" fill="#ADD1B2" rx="11" ry="11" style="stroke:#A80036;stroke-width:1.0;"/><path d="M470.8938,1414.6719 C469.9563,1414.2344 469.3625,1414.0938 468.4875,1414.0938 C465.8625,1414.0938 463.8625,1416.1719 463.8625,1418.8906 L463.8625,1420.0156 C463.8625,1422.5938 465.9719,1424.4844 468.8625,1424.4844 C470.0813,1424.4844 471.2375,1424.1875 471.9875,1423.6406 C472.5656,1423.2344 472.8938,1422.7813 472.8938,1422.3906 C472.8938,1421.9375 472.5031,1421.5469 472.0344,1421.5469 C471.8156,1421.5469 471.6125,1421.625 471.425,1421.8125 C470.9719,1422.2969 470.9719,1422.2969 470.7844,1422.3906 C470.3625,1422.6563 469.675,1422.7813 468.9094,1422.7813 C466.8625,1422.7813 465.5656,1421.6875 465.5656,1419.9844 L465.5656,1418.8906 C465.5656,1417.1094 466.8156,1415.7969 468.55,1415.7969 C469.1281,1415.7969 469.7375,1415.9531 470.2063,1416.2031 C470.6906,1416.4844 470.8625,1416.7031 470.9563,1417.1094 C471.0188,1417.5156 471.05,1417.6406 471.1906,1417.7656 C471.3313,1417.9063 471.5656,1418.0156 471.7844,1418.0156 C472.05,1418.0156 472.3156,1417.875 472.4875,1417.6563 C472.5969,1417.5 472.6281,1417.3125 472.6281,1416.8906 L472.6281,1415.4688 C472.6281,1415.0313 472.6125,1414.9063 472.5188,1414.75 C472.3625,1414.4844 472.0813,1414.3438 471.7844,1414.3438 C471.4875,1414.3438 471.2844,1414.4375 471.0656,1414.75 L470.8938,1414.6719 Z " fill="#000000"/><text fill="#000000" font-family="sans-serif" font-size="12" lengthAdjust="spacing" textLength="50" x="486.45" y="1423.1543">Location</text><line style="stroke:#A80036;stroke-width:1.5;" x1="437" x2="556" y1="1435" y2="1435"/><text fill="#000000" font-family="sans-serif" font-size="11" lengthAdjust="spacing" textLength="101" x="442" y="1449.2104">-longitude:Double</text><text fill="#000000" font-family="sans-serif" font-size="11" lengthAdjust="spacing" textLength="91" x="442" y="1462.0151">-latitude:Double</text><line style="stroke:#A80036;stroke-width:1.5;" x1="437" x2="556" y1="1468.6094" y2="1468.6094"/><text fill="#000000" font-family="sans-serif" font-size="11" lengthAdjust="spacing" textLength="109" x="442" y="1482.8198">+acessorMethods()</text><!--MD5=[bc87bf052131b9ca3b54b8ba84b5b110]
class Movement--><rect codeLine="115" fill="#FEFECE" filter="url(#fn1hht3805nwo)" height="112.0234" id="Movement" style="stroke:#A80036;stroke-width:1.5;" width="121" x="592" y="1390"/><ellipse cx="618.7" cy="1406" fill="#ADD1B2" rx="11" ry="11" style="stroke:#A80036;stroke-width:1.0;"/><path d="M621.0438,1401.6719 C620.1063,1401.2344 619.5125,1401.0938 618.6375,1401.0938 C616.0125,1401.0938 614.0125,1403.1719 614.0125,1405.8906 L614.0125,1407.0156 C614.0125,1409.5938 616.1219,1411.4844 619.0125,1411.4844 C620.2313,1411.4844 621.3875,1411.1875 622.1375,1410.6406 C622.7156,1410.2344 623.0438,1409.7813 623.0438,1409.3906 C623.0438,1408.9375 622.6531,1408.5469 622.1844,1408.5469 C621.9656,1408.5469 621.7625,1408.625 621.575,1408.8125 C621.1219,1409.2969 621.1219,1409.2969 620.9344,1409.3906 C620.5125,1409.6563 619.825,1409.7813 619.0594,1409.7813 C617.0125,1409.7813 615.7156,1408.6875 615.7156,1406.9844 L615.7156,1405.8906 C615.7156,1404.1094 616.9656,1402.7969 618.7,1402.7969 C619.2781,1402.7969 619.8875,1402.9531 620.3563,1403.2031 C620.8406,1403.4844 621.0125,1403.7031 621.1063,1404.1094 C621.1688,1404.5156 621.2,1404.6406 621.3406,1404.7656 C621.4813,1404.9063 621.7156,1405.0156 621.9344,1405.0156 C622.2,1405.0156 622.4656,1404.875 622.6375,1404.6563 C622.7469,1404.5 622.7781,1404.3125 622.7781,1403.8906 L622.7781,1402.4688 C622.7781,1402.0313 622.7625,1401.9063 622.6688,1401.75 C622.5125,1401.4844 622.2313,1401.3438 621.9344,1401.3438 C621.6375,1401.3438 621.4344,1401.4375 621.2156,1401.75 L621.0438,1401.6719 Z " fill="#000000"/><text fill="#000000" font-family="sans-serif" font-size="12" lengthAdjust="spacing" textLength="63" x="635.3" y="1410.1543">Movement</text><line style="stroke:#A80036;stroke-width:1.5;" x1="593" x2="712" y1="1422" y2="1422"/><text fill="#000000" font-family="sans-serif" font-size="11" lengthAdjust="spacing" textLength="66" x="598" y="1436.2104">-sog:double</text><text fill="#000000" font-family="sans-serif" font-size="11" lengthAdjust="spacing" textLength="66" x="598" y="1449.0151">-cog:double</text><text fill="#000000" font-family="sans-serif" font-size="11" lengthAdjust="spacing" textLength="92" x="598" y="1461.8198">-heading:double</text><line style="stroke:#A80036;stroke-width:1.5;" x1="593" x2="712" y1="1468.4141" y2="1468.4141"/><text fill="#000000" font-family="sans-serif" font-size="11" lengthAdjust="spacing" textLength="109" x="598" y="1482.6245">+acessorMethods()</text><text fill="#000000" font-family="sans-serif" font-size="11" lengthAdjust="spacing" textLength="61" x="598" y="1495.4292">+toString()</text><!--MD5=[3fab4dc70411c03b435107cc6d893fd7]
link SeeShipDetailsTest to Company--><path codeLine="123" d="M357.469,87.29 C337.412,117.11 306.582,162.95 285.528,194.26 " fill="none" id="SeeShipDetailsTest-to-Company" style="stroke:#A80036;stroke-width:1.0;stroke-dasharray:7.0,7.0;"/><polygon fill="#A80036" points="282.495,198.77,290.8454,193.5479,285.2922,194.6256,284.2144,189.0724,282.495,198.77" style="stroke:#A80036;stroke-width:1.0;"/><!--MD5=[6b4a94d80660e97c6833bde801bd4c89]
link Company to ShipStore--><path codeLine="124" d="M283.003,260.02 C299.157,283.28 322.527,316.92 344.395,348.41 " fill="none" id="Company-to-ShipStore" style="stroke:#A80036;stroke-width:1.0;"/><polygon fill="#A80036" points="347.331,352.63,345.4978,342.9533,344.4853,348.5188,338.9198,347.5063,347.331,352.63" style="stroke:#A80036;stroke-width:1.0;"/><text fill="#000000" font-family="sans-serif" font-size="13" lengthAdjust="spacing" textLength="8" x="278.4067" y="279.9624">1</text><text fill="#000000" font-family="sans-serif" font-size="13" lengthAdjust="spacing" textLength="8" x="334.1602" y="342.012">1</text><!--MD5=[bf74851aff38bc49bd5171b1d2f8ce12]
link ShipController to Company--><path codeLine="125" d="M180.147,106.04 C199.167,134.33 222.68,169.29 239.706,194.61 " fill="none" id="ShipController-to-Company" style="stroke:#A80036;stroke-width:1.0;stroke-dasharray:7.0,7.0;"/><polygon fill="#A80036" points="242.594,198.9,240.8761,189.2021,239.7975,194.7552,234.2444,193.6765,242.594,198.9" style="stroke:#A80036;stroke-width:1.0;"/><text fill="#000000" font-family="sans-serif" font-size="13" lengthAdjust="spacing" textLength="8" x="176.1755" y="126.1221">1</text><text fill="#000000" font-family="sans-serif" font-size="13" lengthAdjust="spacing" textLength="8" x="229.6634" y="188.1426">1</text><!--MD5=[f04e04ecc6998d67821b33eb17256457]
link ShipStore to Ship--><path codeLine="126" d="M403.5,516.218 C403.5,538.486 403.5,563.234 403.5,587.564 " fill="none" id="ShipStore-to-Ship" style="stroke:#A80036;stroke-width:1.0;"/><polygon fill="#A80036" points="403.5,592.748,407.5,583.748,403.5,587.748,399.5,583.748,403.5,592.748" style="stroke:#A80036;stroke-width:1.0;"/><text fill="#000000" font-family="sans-serif" font-size="13" lengthAdjust="spacing" textLength="54" x="404.5" y="559.0669">contains</text><text fill="#000000" font-family="sans-serif" font-size="13" lengthAdjust="spacing" textLength="8" x="395.1438" y="536.226">1</text><text fill="#000000" font-family="sans-serif" font-size="13" lengthAdjust="spacing" textLength="23" x="379.8352" y="582.0609">0..*</text><!--MD5=[b548f9cab810c886ef8d517236ce8553]
link Ship to Identification--><path codeLine="127" d="M363.037,846.209 C354.505,872.713 345.775,899.837 338.113,923.641 " fill="none" id="Ship-to-Identification" style="stroke:#A80036;stroke-width:1.0;"/><polygon fill="#A80036" points="336.494,928.669,343.0608,921.3289,338.0271,923.9098,335.4462,918.876,336.494,928.669" style="stroke:#A80036;stroke-width:1.0;"/><text fill="#000000" font-family="sans-serif" font-size="13" lengthAdjust="spacing" textLength="54" x="352.5" y="889.0669">contains</text><text fill="#000000" font-family="sans-serif" font-size="13" lengthAdjust="spacing" textLength="8" x="352.4665" y="866.0423">1</text><text fill="#000000" font-family="sans-serif" font-size="13" lengthAdjust="spacing" textLength="24" x="313.5246" y="917.8385">0..1</text><!--MD5=[cea53bfc3a0979f95c62d6169ab9fc2e]
link Ship to ShipCharacteristics--><path codeLine="128" d="M272.589,832.565 C233.772,865.794 192.507,901.118 158.213,930.475 " fill="none" id="Ship-to-ShipCharacteristics" style="stroke:#A80036;stroke-width:1.0;"/><polygon fill="#A80036" points="154.066,934.025,163.5044,931.2113,157.8645,930.7736,158.3022,925.1337,154.066,934.025" style="stroke:#A80036;stroke-width:1.0;"/><text fill="#000000" font-family="sans-serif" font-size="13" lengthAdjust="spacing" textLength="23" x="214.5" y="889.0669">has</text><text fill="#000000" font-family="sans-serif" font-size="13" lengthAdjust="spacing" textLength="8" x="256.7895" y="835.7423">1</text><text fill="#000000" font-family="sans-serif" font-size="13" lengthAdjust="spacing" textLength="24" x="156.9032" y="921.6918">0..1</text><!--MD5=[bd668f20969913e971975f69d50ab766]
link Ship to Route--><path codeLine="129" d="M481.244,846.209 C496.463,870.818 512.013,895.961 525.943,918.485 " fill="none" id="Ship-to-Route" style="stroke:#A80036;stroke-width:1.0;"/><polygon fill="#A80036" points="528.707,922.954,527.3754,913.1956,526.0772,918.7015,520.5713,917.4033,528.707,922.954" style="stroke:#A80036;stroke-width:1.0;"/><text fill="#000000" font-family="sans-serif" font-size="13" lengthAdjust="spacing" textLength="23" x="510.5" y="889.0669">has</text><text fill="#000000" font-family="sans-serif" font-size="13" lengthAdjust="spacing" textLength="8" x="477.5073" y="866.0423">1</text><text fill="#000000" font-family="sans-serif" font-size="13" lengthAdjust="spacing" textLength="24" x="499.018" y="911.8803">0..1</text><!--MD5=[6e2bf1b581922c3b45ac635d439704bd]
link Route to ShipDynamic--><path codeLine="130" d="M574.5,1073.203 C574.5,1095.95 574.5,1121.164 574.5,1144.621 " fill="none" id="Route-to-ShipDynamic" style="stroke:#A80036;stroke-width:1.0;"/><polygon fill="#A80036" points="574.5,1149.911,578.5,1140.911,574.5,1144.911,570.5,1140.911,574.5,1149.911" style="stroke:#A80036;stroke-width:1.0;"/><text fill="#000000" font-family="sans-serif" font-size="13" lengthAdjust="spacing" textLength="23" x="575.5" y="1116.0669">has</text><text fill="#000000" font-family="sans-serif" font-size="13" lengthAdjust="spacing" textLength="8" x="566.1063" y="1093.396">1</text><text fill="#000000" font-family="sans-serif" font-size="13" lengthAdjust="spacing" textLength="23" x="550.4758" y="1139.0385">1..*</text><!--MD5=[b18020918cd8644ea662e6d63ac2171c]
link Ship to SummaryOfShipMovement--><path codeLine="131" d="M534.263,800.847 C610.313,847.575 703.895,905.076 770.022,945.707 " fill="none" id="Ship-to-SummaryOfShipMovement" style="stroke:#A80036;stroke-width:1.0;"/><polygon fill="#A80036" points="774.338,948.359,768.7654,940.2383,770.0784,945.7407,764.576,947.0537,774.338,948.359" style="stroke:#A80036;stroke-width:1.0;"/><text fill="#000000" font-family="sans-serif" font-size="13" lengthAdjust="spacing" textLength="176" x="683.5" y="889.0669">creates using the last route</text><text fill="#000000" font-family="sans-serif" font-size="13" lengthAdjust="spacing" textLength="8" x="542.054" y="802.1906">1</text><text fill="#000000" font-family="sans-serif" font-size="13" lengthAdjust="spacing" textLength="8" x="754.6433" y="937.3844">1</text><!--MD5=[102e3fac0a0a520441e1279ebffdb2d7]
link ShipDynamic to Movement--><path codeLine="132" d="M604.1,1313.14 C612.871,1337.036 622.317,1362.77 630.515,1385.104 " fill="none" id="ShipDynamic-to-Movement" style="stroke:#A80036;stroke-width:1.0;"/><polygon fill="#A80036" points="632.245,1389.817,632.8983,1379.9898,630.5218,1385.1233,625.3884,1382.7469,632.245,1389.817" style="stroke:#A80036;stroke-width:1.0;"/><text fill="#000000" font-family="sans-serif" font-size="13" lengthAdjust="spacing" textLength="54" x="621.5" y="1356.0669">contains</text><text fill="#000000" font-family="sans-serif" font-size="13" lengthAdjust="spacing" textLength="8" x="598.46" y="1333.4194">1</text><text fill="#000000" font-family="sans-serif" font-size="13" lengthAdjust="spacing" textLength="24" x="604.3139" y="1379.1292">0..1</text><!--MD5=[4d937afab56fe47d5138ea5de0414cd5]
link ShipDynamic to Location--><path codeLine="133" d="M544.9,1313.14 C534.395,1341.759 522.923,1373.014 513.785,1397.909 " fill="none" id="ShipDynamic-to-Location" style="stroke:#A80036;stroke-width:1.0;"/><polygon fill="#A80036" points="511.99,1402.8005,518.8466,1395.7304,513.7132,1398.1068,511.3367,1392.9733,511.99,1402.8005" style="stroke:#A80036;stroke-width:1.0;"/><text fill="#000000" font-family="sans-serif" font-size="13" lengthAdjust="spacing" textLength="54" x="534.5" y="1356.0669">contains</text><text fill="#000000" font-family="sans-serif" font-size="13" lengthAdjust="spacing" textLength="8" x="533.8025" y="1333.4194">1</text><text fill="#000000" font-family="sans-serif" font-size="13" lengthAdjust="spacing" textLength="24" x="488.5244" y="1392.0831">0..1</text><!--MD5=[cb97917a050364a9e61bb1dafdda5721]
reverse link ShipPairList to ShipStore--><path codeLine="134" d="M444.453,297.21 C439.1,315.03 433.258,334.47 427.707,352.94 " fill="none" id="ShipPairList-backto-ShipStore" style="stroke:#A80036;stroke-width:1.0;stroke-dasharray:7.0,7.0;"/><polygon fill="#A80036" points="445.95,292.23,439.5236,299.6933,444.5075,297.0174,447.1834,302.0013,445.95,292.23" style="stroke:#A80036;stroke-width:1.0;"/><!--MD5=[d6a6154a0ce559e04f2a05c3ed2eebf7]
@startuml
skinparam classAttributeIconSize 0
class "ShipController" {
+organizeShipMessages()
+checkPositionData(code,date)
+checkPositionPeriod(code,date1,date2)
+getTopNShips(n,date1,date2) 
}

class "Company"{
+getShipStore()
}

class ShipPairList{
-List<Pair<Ship,Ship>> shipPairList
-List<Double> travelledDifferenceList
+ShipPairList(List <Ship> lShips)
+getShipPairList()
+getTravelledDifferenceList()
+privateSortingMethods()
}

class "Ship"{
-idShip: Identification
-energy: ShipEnergy
-characteristics: ShipCharacteristics
-route:Route
-List<TravelRoute> listRoute
+getLastRoute()
+isCloseTo(Ship ship)
+getTravelledDistance()
+getTravelledDistanceDiference(Ship ship)
+toString()
+equals(ship)
+compareTo(ship)
+acessorMethods()

+Ship(idShip, characteristics, route)
+...()
}

class "ShipStore"{
   -AVL <Ship> shipStore
   +addShipToAVL(ship)
   +reorganizeShipAVLAccordingToTheCode(ship)
   +findShipDetails(code)
   +getCloseShipPairs()
   +organizeShipMessages()
   +checkPositionData(code,date)
   +checkPositionPeriod(code,date1,date2)
   +getTopNShips(n,date1,date2) 
}

class "ShipCharacteristics" {
- vesselType: int
- length: Double
- width: Double
- draft: Double
+toString()
+equals(ship)
+hashCode()
+acessorMethods()
}

class "SeeShipDetailsTest"{
+getShipByCode(code)
}

class "Identification"{
-mmsi: String
-shipName: String
-imoID: String
+toString()
+equals(ship)
+returnCodeAccordingToTheFormat(code)
+acessorMethods()
}

class "Route" {
-List<ShipDynamic> listDynamic
+getDepartureLongitude()
+getDepartureLatitude()
+getArrivalLongitude()
+getArrivalLatitude()
+getTravelledDistance()
+getShipDynamic()
+acessorMethods()
}

class "ShipDynamic" {
-baseDateTime:String
-location:Location
-movement:Movement
-cargo:String
-transceiverClass:String
+getBaseDateTime()
+getMovement()
+getLocation()
+acessorMethods()

}

class SummaryOfShipMovement{
-Map<String,String> SummaryOfShipMovements
+create(Ship ship)
+toString()
+getMap()
}

class "Location" {
-longitude:Double
-latitude:Double
+acessorMethods()
}

class "Movement" {
-sog:double
-cog:double
-heading:double
+acessorMethods()
+toString()
}

SeeShipDetailsTest..>Company
Company"1"- ->"1"ShipStore
ShipController"1"..>"1"Company
ShipStore "1"  - -> "0..*" Ship: contains
Ship"1"  - -> "0..1" Identification: contains
Ship"1"  - -> "0..1" ShipCharacteristics : has
Ship"1"  - -> "0..1" Route: has
Route"1"  - -> "1..*" ShipDynamic: has
Ship "1" - -> "1" SummaryOfShipMovement : creates using the last route
ShipDynamic"1"  - -> "0..1" Movement: contains
ShipDynamic"1"  - -> "0..1" Location: contains
ShipPairList <.. ShipStore
@enduml

PlantUML version 1.2021.14(Fri Nov 12 16:46:50 UTC 2021)
(GPL source distribution)
Java Runtime: Java(TM) SE Runtime Environment
JVM: Java HotSpot(TM) 64-Bit Server VM
Default Encoding: UTF-8
Language: en
Country: US
--></g></svg>