<?xml version="1.0" encoding="UTF-8" standalone="no"?><svg xmlns="http://www.w3.org/2000/svg" xmlns:xlink="http://www.w3.org/1999/xlink" contentScriptType="application/ecmascript" contentStyleType="text/css" height="2162px" preserveAspectRatio="none" style="width:1541px;height:2162px;background:#FFFFFF;" version="1.1" viewBox="0 0 1541 2162" width="1541px" zoomAndPan="magnify"><defs><filter height="300%" id="f1xq7hguw3cv11" width="300%" x="-1" y="-1"><feGaussianBlur result="blurOut" stdDeviation="2.0"/><feColorMatrix in="blurOut" result="blurOut2" type="matrix" values="0 0 0 0 0 0 0 0 0 0 0 0 0 0 0 0 0 0 .4 0"/><feOffset dx="4.0" dy="4.0" in="blurOut2" result="blurOut3"/><feBlend in="SourceGraphic" in2="blurOut3" mode="normal"/></filter></defs><g><!--MD5=[02e4b9b7573f1156f41e60aa5b4e25a4]
class Company--><rect codeLine="1" fill="#FEFECE" filter="url(#f1xq7hguw3cv11)" height="60.8047" id="Company" style="stroke:#A80036;stroke-width:1.5;" width="88" x="827" y="2088"/><ellipse cx="842" cy="2104" fill="#ADD1B2" rx="11" ry="11" style="stroke:#A80036;stroke-width:1.0;"/><path d="M844.3438,2099.6719 C843.4063,2099.2344 842.8125,2099.0938 841.9375,2099.0938 C839.3125,2099.0938 837.3125,2101.1719 837.3125,2103.8906 L837.3125,2105.0156 C837.3125,2107.5938 839.4219,2109.4844 842.3125,2109.4844 C843.5313,2109.4844 844.6875,2109.1875 845.4375,2108.6406 C846.0156,2108.2344 846.3438,2107.7813 846.3438,2107.3906 C846.3438,2106.9375 845.9531,2106.5469 845.4844,2106.5469 C845.2656,2106.5469 845.0625,2106.625 844.875,2106.8125 C844.4219,2107.2969 844.4219,2107.2969 844.2344,2107.3906 C843.8125,2107.6563 843.125,2107.7813 842.3594,2107.7813 C840.3125,2107.7813 839.0156,2106.6875 839.0156,2104.9844 L839.0156,2103.8906 C839.0156,2102.1094 840.2656,2100.7969 842,2100.7969 C842.5781,2100.7969 843.1875,2100.9531 843.6563,2101.2031 C844.1406,2101.4844 844.3125,2101.7031 844.4063,2102.1094 C844.4688,2102.5156 844.5,2102.6406 844.6406,2102.7656 C844.7813,2102.9063 845.0156,2103.0156 845.2344,2103.0156 C845.5,2103.0156 845.7656,2102.875 845.9375,2102.6563 C846.0469,2102.5 846.0781,2102.3125 846.0781,2101.8906 L846.0781,2100.4688 C846.0781,2100.0313 846.0625,2099.9063 845.9688,2099.75 C845.8125,2099.4844 845.5313,2099.3438 845.2344,2099.3438 C844.9375,2099.3438 844.7344,2099.4375 844.5156,2099.75 L844.3438,2099.6719 Z " fill="#000000"/><text fill="#000000" font-family="sans-serif" font-size="12" lengthAdjust="spacing" textLength="56" x="856" y="2108.1543">Company</text><line style="stroke:#A80036;stroke-width:1.5;" x1="828" x2="914" y1="2120" y2="2120"/><text fill="#000000" font-family="sans-serif" font-size="11" lengthAdjust="spacing" textLength="70" x="833" y="2134.2104">-designation</text><line style="stroke:#A80036;stroke-width:1.5;" x1="828" x2="914" y1="2140.8047" y2="2140.8047"/><!--MD5=[c5149b4909ffd2688ff51a939867f774]
class Warehouse--><rect codeLine="4" fill="#FEFECE" filter="url(#f1xq7hguw3cv11)" height="124.8281" id="Warehouse" style="stroke:#A80036;stroke-width:1.5;" width="101" x="468.5" y="1364"/><ellipse cx="483.5" cy="1380" fill="#ADD1B2" rx="11" ry="11" style="stroke:#A80036;stroke-width:1.0;"/><path d="M485.8438,1375.6719 C484.9063,1375.2344 484.3125,1375.0938 483.4375,1375.0938 C480.8125,1375.0938 478.8125,1377.1719 478.8125,1379.8906 L478.8125,1381.0156 C478.8125,1383.5938 480.9219,1385.4844 483.8125,1385.4844 C485.0313,1385.4844 486.1875,1385.1875 486.9375,1384.6406 C487.5156,1384.2344 487.8438,1383.7813 487.8438,1383.3906 C487.8438,1382.9375 487.4531,1382.5469 486.9844,1382.5469 C486.7656,1382.5469 486.5625,1382.625 486.375,1382.8125 C485.9219,1383.2969 485.9219,1383.2969 485.7344,1383.3906 C485.3125,1383.6563 484.625,1383.7813 483.8594,1383.7813 C481.8125,1383.7813 480.5156,1382.6875 480.5156,1380.9844 L480.5156,1379.8906 C480.5156,1378.1094 481.7656,1376.7969 483.5,1376.7969 C484.0781,1376.7969 484.6875,1376.9531 485.1563,1377.2031 C485.6406,1377.4844 485.8125,1377.7031 485.9063,1378.1094 C485.9688,1378.5156 486,1378.6406 486.1406,1378.7656 C486.2813,1378.9063 486.5156,1379.0156 486.7344,1379.0156 C487,1379.0156 487.2656,1378.875 487.4375,1378.6563 C487.5469,1378.5 487.5781,1378.3125 487.5781,1377.8906 L487.5781,1376.4688 C487.5781,1376.0313 487.5625,1375.9063 487.4688,1375.75 C487.3125,1375.4844 487.0313,1375.3438 486.7344,1375.3438 C486.4375,1375.3438 486.2344,1375.4375 486.0156,1375.75 L485.8438,1375.6719 Z " fill="#000000"/><text fill="#000000" font-family="sans-serif" font-size="12" lengthAdjust="spacing" textLength="69" x="497.5" y="1384.1543">Warehouse</text><line style="stroke:#A80036;stroke-width:1.5;" x1="469.5" x2="568.5" y1="1396" y2="1396"/><text fill="#000000" font-family="sans-serif" font-size="11" lengthAdjust="spacing" textLength="79" x="474.5" y="1410.2104">-warehouseID</text><text fill="#000000" font-family="sans-serif" font-size="11" lengthAdjust="spacing" textLength="37" x="474.5" y="1423.0151">-name</text><text fill="#000000" font-family="sans-serif" font-size="11" lengthAdjust="spacing" textLength="57" x="474.5" y="1435.8198">-continent</text><text fill="#000000" font-family="sans-serif" font-size="11" lengthAdjust="spacing" textLength="46" x="474.5" y="1448.6245">-country</text><text fill="#000000" font-family="sans-serif" font-size="11" lengthAdjust="spacing" textLength="47" x="474.5" y="1461.4292">-latitude</text><text fill="#000000" font-family="sans-serif" font-size="11" lengthAdjust="spacing" textLength="57" x="474.5" y="1474.2339">-longitude</text><line style="stroke:#A80036;stroke-width:1.5;" x1="469.5" x2="568.5" y1="1480.8281" y2="1480.8281"/><!--MD5=[7ee1ff93b1c083cabbfd410ecf3505ae]
class ShipCrew--><rect codeLine="12" fill="#FEFECE" filter="url(#f1xq7hguw3cv11)" height="48" id="ShipCrew" style="stroke:#A80036;stroke-width:1.5;" width="89" x="563.5" y="728"/><ellipse cx="578.5" cy="744" fill="#ADD1B2" rx="11" ry="11" style="stroke:#A80036;stroke-width:1.0;"/><path d="M580.8438,739.6719 C579.9063,739.2344 579.3125,739.0938 578.4375,739.0938 C575.8125,739.0938 573.8125,741.1719 573.8125,743.8906 L573.8125,745.0156 C573.8125,747.5938 575.9219,749.4844 578.8125,749.4844 C580.0313,749.4844 581.1875,749.1875 581.9375,748.6406 C582.5156,748.2344 582.8438,747.7813 582.8438,747.3906 C582.8438,746.9375 582.4531,746.5469 581.9844,746.5469 C581.7656,746.5469 581.5625,746.625 581.375,746.8125 C580.9219,747.2969 580.9219,747.2969 580.7344,747.3906 C580.3125,747.6563 579.625,747.7813 578.8594,747.7813 C576.8125,747.7813 575.5156,746.6875 575.5156,744.9844 L575.5156,743.8906 C575.5156,742.1094 576.7656,740.7969 578.5,740.7969 C579.0781,740.7969 579.6875,740.9531 580.1563,741.2031 C580.6406,741.4844 580.8125,741.7031 580.9063,742.1094 C580.9688,742.5156 581,742.6406 581.1406,742.7656 C581.2813,742.9063 581.5156,743.0156 581.7344,743.0156 C582,743.0156 582.2656,742.875 582.4375,742.6563 C582.5469,742.5 582.5781,742.3125 582.5781,741.8906 L582.5781,740.4688 C582.5781,740.0313 582.5625,739.9063 582.4688,739.75 C582.3125,739.4844 582.0313,739.3438 581.7344,739.3438 C581.4375,739.3438 581.2344,739.4375 581.0156,739.75 L580.8438,739.6719 Z " fill="#000000"/><text fill="#000000" font-family="sans-serif" font-size="12" lengthAdjust="spacing" textLength="57" x="592.5" y="748.1543">ShipCrew</text><line style="stroke:#A80036;stroke-width:1.5;" x1="564.5" x2="651.5" y1="760" y2="760"/><line style="stroke:#A80036;stroke-width:1.5;" x1="564.5" x2="651.5" y1="768" y2="768"/><!--MD5=[088b2af50be949f3d3bdcd6dff40d1ce]
class OperationsTeam--><rect codeLine="14" fill="#FEFECE" filter="url(#f1xq7hguw3cv11)" height="48" id="OperationsTeam" style="stroke:#A80036;stroke-width:1.5;" width="132" x="113" y="1169"/><ellipse cx="128" cy="1185" fill="#ADD1B2" rx="11" ry="11" style="stroke:#A80036;stroke-width:1.0;"/><path d="M130.3438,1180.6719 C129.4063,1180.2344 128.8125,1180.0938 127.9375,1180.0938 C125.3125,1180.0938 123.3125,1182.1719 123.3125,1184.8906 L123.3125,1186.0156 C123.3125,1188.5938 125.4219,1190.4844 128.3125,1190.4844 C129.5313,1190.4844 130.6875,1190.1875 131.4375,1189.6406 C132.0156,1189.2344 132.3438,1188.7813 132.3438,1188.3906 C132.3438,1187.9375 131.9531,1187.5469 131.4844,1187.5469 C131.2656,1187.5469 131.0625,1187.625 130.875,1187.8125 C130.4219,1188.2969 130.4219,1188.2969 130.2344,1188.3906 C129.8125,1188.6563 129.125,1188.7813 128.3594,1188.7813 C126.3125,1188.7813 125.0156,1187.6875 125.0156,1185.9844 L125.0156,1184.8906 C125.0156,1183.1094 126.2656,1181.7969 128,1181.7969 C128.5781,1181.7969 129.1875,1181.9531 129.6563,1182.2031 C130.1406,1182.4844 130.3125,1182.7031 130.4063,1183.1094 C130.4688,1183.5156 130.5,1183.6406 130.6406,1183.7656 C130.7813,1183.9063 131.0156,1184.0156 131.2344,1184.0156 C131.5,1184.0156 131.7656,1183.875 131.9375,1183.6563 C132.0469,1183.5 132.0781,1183.3125 132.0781,1182.8906 L132.0781,1181.4688 C132.0781,1181.0313 132.0625,1180.9063 131.9688,1180.75 C131.8125,1180.4844 131.5313,1180.3438 131.2344,1180.3438 C130.9375,1180.3438 130.7344,1180.4375 130.5156,1180.75 L130.3438,1180.6719 Z " fill="#000000"/><text fill="#000000" font-family="sans-serif" font-size="12" lengthAdjust="spacing" textLength="100" x="142" y="1189.1543">OperationsTeam</text><line style="stroke:#A80036;stroke-width:1.5;" x1="114" x2="244" y1="1201" y2="1201"/><line style="stroke:#A80036;stroke-width:1.5;" x1="114" x2="244" y1="1209" y2="1209"/><!--MD5=[a0bfe97ac0a38e6e74cc1c7c7b744b71]
class Port--><rect codeLine="16" fill="#FEFECE" filter="url(#f1xq7hguw3cv11)" height="124.8281" id="Port" style="stroke:#A80036;stroke-width:1.5;" width="69" x="174.5" y="1364"/><ellipse cx="195.8" cy="1380" fill="#ADD1B2" rx="11" ry="11" style="stroke:#A80036;stroke-width:1.0;"/><path d="M198.1438,1375.6719 C197.2063,1375.2344 196.6125,1375.0938 195.7375,1375.0938 C193.1125,1375.0938 191.1125,1377.1719 191.1125,1379.8906 L191.1125,1381.0156 C191.1125,1383.5938 193.2219,1385.4844 196.1125,1385.4844 C197.3313,1385.4844 198.4875,1385.1875 199.2375,1384.6406 C199.8156,1384.2344 200.1438,1383.7813 200.1438,1383.3906 C200.1438,1382.9375 199.7531,1382.5469 199.2844,1382.5469 C199.0656,1382.5469 198.8625,1382.625 198.675,1382.8125 C198.2219,1383.2969 198.2219,1383.2969 198.0344,1383.3906 C197.6125,1383.6563 196.925,1383.7813 196.1594,1383.7813 C194.1125,1383.7813 192.8156,1382.6875 192.8156,1380.9844 L192.8156,1379.8906 C192.8156,1378.1094 194.0656,1376.7969 195.8,1376.7969 C196.3781,1376.7969 196.9875,1376.9531 197.4563,1377.2031 C197.9406,1377.4844 198.1125,1377.7031 198.2063,1378.1094 C198.2688,1378.5156 198.3,1378.6406 198.4406,1378.7656 C198.5813,1378.9063 198.8156,1379.0156 199.0344,1379.0156 C199.3,1379.0156 199.5656,1378.875 199.7375,1378.6563 C199.8469,1378.5 199.8781,1378.3125 199.8781,1377.8906 L199.8781,1376.4688 C199.8781,1376.0313 199.8625,1375.9063 199.7688,1375.75 C199.6125,1375.4844 199.3313,1375.3438 199.0344,1375.3438 C198.7375,1375.3438 198.5344,1375.4375 198.3156,1375.75 L198.1438,1375.6719 Z " fill="#000000"/><text fill="#000000" font-family="sans-serif" font-size="12" lengthAdjust="spacing" textLength="23" x="211.2" y="1384.1543">Port</text><line style="stroke:#A80036;stroke-width:1.5;" x1="175.5" x2="242.5" y1="1396" y2="1396"/><text fill="#000000" font-family="sans-serif" font-size="11" lengthAdjust="spacing" textLength="37" x="180.5" y="1410.2104">-PortID</text><text fill="#000000" font-family="sans-serif" font-size="11" lengthAdjust="spacing" textLength="37" x="180.5" y="1423.0151">-name</text><text fill="#000000" font-family="sans-serif" font-size="11" lengthAdjust="spacing" textLength="57" x="180.5" y="1435.8198">-continent</text><text fill="#000000" font-family="sans-serif" font-size="11" lengthAdjust="spacing" textLength="46" x="180.5" y="1448.6245">-country</text><text fill="#000000" font-family="sans-serif" font-size="11" lengthAdjust="spacing" textLength="47" x="180.5" y="1461.4292">-latitude</text><text fill="#000000" font-family="sans-serif" font-size="11" lengthAdjust="spacing" textLength="57" x="180.5" y="1474.2339">-longitude</text><line style="stroke:#A80036;stroke-width:1.5;" x1="175.5" x2="242.5" y1="1480.8281" y2="1480.8281"/><!--MD5=[fc92a9f5bb5fae84dd7fa4034e6b4444]
class Route--><rect codeLine="24" fill="#FEFECE" filter="url(#f1xq7hguw3cv11)" height="60.8047" id="Route" style="stroke:#A80036;stroke-width:1.5;" width="66" x="870" y="272.5"/><ellipse cx="885" cy="288.5" fill="#ADD1B2" rx="11" ry="11" style="stroke:#A80036;stroke-width:1.0;"/><path d="M887.3438,284.1719 C886.4063,283.7344 885.8125,283.5938 884.9375,283.5938 C882.3125,283.5938 880.3125,285.6719 880.3125,288.3906 L880.3125,289.5156 C880.3125,292.0938 882.4219,293.9844 885.3125,293.9844 C886.5313,293.9844 887.6875,293.6875 888.4375,293.1406 C889.0156,292.7344 889.3438,292.2813 889.3438,291.8906 C889.3438,291.4375 888.9531,291.0469 888.4844,291.0469 C888.2656,291.0469 888.0625,291.125 887.875,291.3125 C887.4219,291.7969 887.4219,291.7969 887.2344,291.8906 C886.8125,292.1563 886.125,292.2813 885.3594,292.2813 C883.3125,292.2813 882.0156,291.1875 882.0156,289.4844 L882.0156,288.3906 C882.0156,286.6094 883.2656,285.2969 885,285.2969 C885.5781,285.2969 886.1875,285.4531 886.6563,285.7031 C887.1406,285.9844 887.3125,286.2031 887.4063,286.6094 C887.4688,287.0156 887.5,287.1406 887.6406,287.2656 C887.7813,287.4063 888.0156,287.5156 888.2344,287.5156 C888.5,287.5156 888.7656,287.375 888.9375,287.1563 C889.0469,287 889.0781,286.8125 889.0781,286.3906 L889.0781,284.9688 C889.0781,284.5313 889.0625,284.4063 888.9688,284.25 C888.8125,283.9844 888.5313,283.8438 888.2344,283.8438 C887.9375,283.8438 887.7344,283.9375 887.5156,284.25 L887.3438,284.1719 Z " fill="#000000"/><text fill="#000000" font-family="sans-serif" font-size="12" lengthAdjust="spacing" textLength="34" x="899" y="292.6543">Route</text><line style="stroke:#A80036;stroke-width:1.5;" x1="871" x2="935" y1="304.5" y2="304.5"/><text fill="#000000" font-family="sans-serif" font-size="11" lengthAdjust="spacing" textLength="46" x="876" y="318.7104">-routeID</text><line style="stroke:#A80036;stroke-width:1.5;" x1="871" x2="935" y1="325.3047" y2="325.3047"/><!--MD5=[e9a58730c562b34349daa605d1ed6662]
class Container--><rect codeLine="27" fill="#FEFECE" filter="url(#f1xq7hguw3cv11)" height="137.6328" id="Container" style="stroke:#A80036;stroke-width:1.5;" width="161" x="156.5" y="234"/><ellipse cx="204.25" cy="250" fill="#ADD1B2" rx="11" ry="11" style="stroke:#A80036;stroke-width:1.0;"/><path d="M206.5938,245.6719 C205.6563,245.2344 205.0625,245.0938 204.1875,245.0938 C201.5625,245.0938 199.5625,247.1719 199.5625,249.8906 L199.5625,251.0156 C199.5625,253.5938 201.6719,255.4844 204.5625,255.4844 C205.7813,255.4844 206.9375,255.1875 207.6875,254.6406 C208.2656,254.2344 208.5938,253.7813 208.5938,253.3906 C208.5938,252.9375 208.2031,252.5469 207.7344,252.5469 C207.5156,252.5469 207.3125,252.625 207.125,252.8125 C206.6719,253.2969 206.6719,253.2969 206.4844,253.3906 C206.0625,253.6563 205.375,253.7813 204.6094,253.7813 C202.5625,253.7813 201.2656,252.6875 201.2656,250.9844 L201.2656,249.8906 C201.2656,248.1094 202.5156,246.7969 204.25,246.7969 C204.8281,246.7969 205.4375,246.9531 205.9063,247.2031 C206.3906,247.4844 206.5625,247.7031 206.6563,248.1094 C206.7188,248.5156 206.75,248.6406 206.8906,248.7656 C207.0313,248.9063 207.2656,249.0156 207.4844,249.0156 C207.75,249.0156 208.0156,248.875 208.1875,248.6563 C208.2969,248.5 208.3281,248.3125 208.3281,247.8906 L208.3281,246.4688 C208.3281,246.0313 208.3125,245.9063 208.2188,245.75 C208.0625,245.4844 207.7813,245.3438 207.4844,245.3438 C207.1875,245.3438 206.9844,245.4375 206.7656,245.75 L206.5938,245.6719 Z " fill="#000000"/><text fill="#000000" font-family="sans-serif" font-size="12" lengthAdjust="spacing" textLength="57" x="224.75" y="254.1543">Container</text><line style="stroke:#A80036;stroke-width:1.5;" x1="157.5" x2="316.5" y1="266" y2="266"/><text fill="#000000" font-family="sans-serif" font-size="11" lengthAdjust="spacing" textLength="69" x="162.5" y="280.2104">-containerID</text><text fill="#000000" font-family="sans-serif" font-size="11" lengthAdjust="spacing" textLength="49" x="162.5" y="293.0151">-payload</text><text fill="#000000" font-family="sans-serif" font-size="11" lengthAdjust="spacing" textLength="27" x="162.5" y="305.8198">-tare</text><text fill="#000000" font-family="sans-serif" font-size="11" lengthAdjust="spacing" textLength="34" x="162.5" y="318.6245">-gross</text><text fill="#000000" font-family="sans-serif" font-size="11" lengthAdjust="spacing" textLength="54" x="162.5" y="331.4292">-ISOCode</text><text fill="#000000" font-family="sans-serif" font-size="11" lengthAdjust="spacing" textLength="40" x="162.5" y="344.2339">-length</text><text fill="#000000" font-family="sans-serif" font-size="11" lengthAdjust="spacing" textLength="149" x="162.5" y="357.0386">-refrigerationTemperature</text><line style="stroke:#A80036;stroke-width:1.5;" x1="157.5" x2="316.5" y1="363.6328" y2="363.6328"/><!--MD5=[76562047389981627aea27c31a97aff5]
class CargoManifest--><rect codeLine="36" fill="#FEFECE" filter="url(#f1xq7hguw3cv11)" height="99.2188" id="CargoManifest" style="stroke:#A80036;stroke-width:1.5;" width="123" x="117.5" y="923"/><ellipse cx="134.75" cy="939" fill="#ADD1B2" rx="11" ry="11" style="stroke:#A80036;stroke-width:1.0;"/><path d="M137.0938,934.6719 C136.1563,934.2344 135.5625,934.0938 134.6875,934.0938 C132.0625,934.0938 130.0625,936.1719 130.0625,938.8906 L130.0625,940.0156 C130.0625,942.5938 132.1719,944.4844 135.0625,944.4844 C136.2813,944.4844 137.4375,944.1875 138.1875,943.6406 C138.7656,943.2344 139.0938,942.7813 139.0938,942.3906 C139.0938,941.9375 138.7031,941.5469 138.2344,941.5469 C138.0156,941.5469 137.8125,941.625 137.625,941.8125 C137.1719,942.2969 137.1719,942.2969 136.9844,942.3906 C136.5625,942.6563 135.875,942.7813 135.1094,942.7813 C133.0625,942.7813 131.7656,941.6875 131.7656,939.9844 L131.7656,938.8906 C131.7656,937.1094 133.0156,935.7969 134.75,935.7969 C135.3281,935.7969 135.9375,935.9531 136.4063,936.2031 C136.8906,936.4844 137.0625,936.7031 137.1563,937.1094 C137.2188,937.5156 137.25,937.6406 137.3906,937.7656 C137.5313,937.9063 137.7656,938.0156 137.9844,938.0156 C138.25,938.0156 138.5156,937.875 138.6875,937.6563 C138.7969,937.5 138.8281,937.3125 138.8281,936.8906 L138.8281,935.4688 C138.8281,935.0313 138.8125,934.9063 138.7188,934.75 C138.5625,934.4844 138.2813,934.3438 137.9844,934.3438 C137.6875,934.3438 137.4844,934.4375 137.2656,934.75 L137.0938,934.6719 Z " fill="#000000"/><text fill="#000000" font-family="sans-serif" font-size="12" lengthAdjust="spacing" textLength="86" x="149.25" y="943.1543">CargoManifest</text><line style="stroke:#A80036;stroke-width:1.5;" x1="118.5" x2="239.5" y1="955" y2="955"/><text fill="#000000" font-family="sans-serif" font-size="11" lengthAdjust="spacing" textLength="111" x="123.5" y="969.2104">-typeCargoManifest</text><text fill="#000000" font-family="sans-serif" font-size="11" lengthAdjust="spacing" textLength="69" x="123.5" y="982.0151">-containerID</text><text fill="#000000" font-family="sans-serif" font-size="11" lengthAdjust="spacing" textLength="76" x="123.5" y="994.8198">-containerPos</text><text fill="#000000" font-family="sans-serif" font-size="11" lengthAdjust="spacing" textLength="89" x="123.5" y="1007.6245">-containerGross</text><line style="stroke:#A80036;stroke-width:1.5;" x1="118.5" x2="239.5" y1="1014.2188" y2="1014.2188"/><!--MD5=[0dc7f2ddb409b58bcf52b12238c25399]
class Ship--><rect codeLine="42" fill="#FEFECE" filter="url(#f1xq7hguw3cv11)" height="188.8516" id="Ship" style="stroke:#A80036;stroke-width:1.5;" width="177" x="814.5" y="449"/><ellipse cx="885.75" cy="465" fill="#ADD1B2" rx="11" ry="11" style="stroke:#A80036;stroke-width:1.0;"/><path d="M888.0938,460.6719 C887.1563,460.2344 886.5625,460.0938 885.6875,460.0938 C883.0625,460.0938 881.0625,462.1719 881.0625,464.8906 L881.0625,466.0156 C881.0625,468.5938 883.1719,470.4844 886.0625,470.4844 C887.2813,470.4844 888.4375,470.1875 889.1875,469.6406 C889.7656,469.2344 890.0938,468.7813 890.0938,468.3906 C890.0938,467.9375 889.7031,467.5469 889.2344,467.5469 C889.0156,467.5469 888.8125,467.625 888.625,467.8125 C888.1719,468.2969 888.1719,468.2969 887.9844,468.3906 C887.5625,468.6563 886.875,468.7813 886.1094,468.7813 C884.0625,468.7813 882.7656,467.6875 882.7656,465.9844 L882.7656,464.8906 C882.7656,463.1094 884.0156,461.7969 885.75,461.7969 C886.3281,461.7969 886.9375,461.9531 887.4063,462.2031 C887.8906,462.4844 888.0625,462.7031 888.1563,463.1094 C888.2188,463.5156 888.25,463.6406 888.3906,463.7656 C888.5313,463.9063 888.7656,464.0156 888.9844,464.0156 C889.25,464.0156 889.5156,463.875 889.6875,463.6563 C889.7969,463.5 889.8281,463.3125 889.8281,462.8906 L889.8281,461.4688 C889.8281,461.0313 889.8125,460.9063 889.7188,460.75 C889.5625,460.4844 889.2813,460.3438 888.9844,460.3438 C888.6875,460.3438 888.4844,460.4375 888.2656,460.75 L888.0938,460.6719 Z " fill="#000000"/><text fill="#000000" font-family="sans-serif" font-size="12" lengthAdjust="spacing" textLength="26" x="906.25" y="469.1543">Ship</text><line style="stroke:#A80036;stroke-width:1.5;" x1="815.5" x2="990.5" y1="481" y2="481"/><text fill="#000000" font-family="sans-serif" font-size="11" lengthAdjust="spacing" textLength="33" x="820.5" y="495.2104">-MMSI</text><text fill="#000000" font-family="sans-serif" font-size="11" lengthAdjust="spacing" textLength="37" x="820.5" y="508.0151">-name</text><text fill="#000000" font-family="sans-serif" font-size="11" lengthAdjust="spacing" textLength="81" x="820.5" y="520.8198">-IMOIDnumber</text><text fill="#000000" font-family="sans-serif" font-size="11" lengthAdjust="spacing" textLength="165" x="820.5" y="533.6245">-numberOfEnergyGenerators</text><text fill="#000000" font-family="sans-serif" font-size="11" lengthAdjust="spacing" textLength="132" x="820.5" y="546.4292">-generatorPowerOutput</text><text fill="#000000" font-family="sans-serif" font-size="11" lengthAdjust="spacing" textLength="48" x="820.5" y="559.2339">-callSign</text><text fill="#000000" font-family="sans-serif" font-size="11" lengthAdjust="spacing" textLength="101" x="820.5" y="572.0386">-vesselTypeCode</text><text fill="#000000" font-family="sans-serif" font-size="11" lengthAdjust="spacing" textLength="34" x="820.5" y="584.8433">-width</text><text fill="#000000" font-family="sans-serif" font-size="11" lengthAdjust="spacing" textLength="40" x="820.5" y="597.6479">-length</text><text fill="#000000" font-family="sans-serif" font-size="11" lengthAdjust="spacing" textLength="51" x="820.5" y="610.4526">-capacity</text><text fill="#000000" font-family="sans-serif" font-size="11" lengthAdjust="spacing" textLength="30" x="820.5" y="623.2573">-draft</text><line style="stroke:#A80036;stroke-width:1.5;" x1="815.5" x2="990.5" y1="629.8516" y2="629.8516"/><!--MD5=[19c2b9eb46691e25b02426140995a460]
class ShipDynamic--><rect codeLine="55" fill="#FEFECE" filter="url(#f1xq7hguw3cv11)" height="150.4375" id="ShipDynamic" style="stroke:#A80036;stroke-width:1.5;" width="110" x="848" y="7"/><ellipse cx="863.45" cy="23" fill="#ADD1B2" rx="11" ry="11" style="stroke:#A80036;stroke-width:1.0;"/><path d="M865.7938,18.6719 C864.8563,18.2344 864.2625,18.0938 863.3875,18.0938 C860.7625,18.0938 858.7625,20.1719 858.7625,22.8906 L858.7625,24.0156 C858.7625,26.5938 860.8719,28.4844 863.7625,28.4844 C864.9813,28.4844 866.1375,28.1875 866.8875,27.6406 C867.4656,27.2344 867.7938,26.7813 867.7938,26.3906 C867.7938,25.9375 867.4031,25.5469 866.9344,25.5469 C866.7156,25.5469 866.5125,25.625 866.325,25.8125 C865.8719,26.2969 865.8719,26.2969 865.6844,26.3906 C865.2625,26.6563 864.575,26.7813 863.8094,26.7813 C861.7625,26.7813 860.4656,25.6875 860.4656,23.9844 L860.4656,22.8906 C860.4656,21.1094 861.7156,19.7969 863.45,19.7969 C864.0281,19.7969 864.6375,19.9531 865.1063,20.2031 C865.5906,20.4844 865.7625,20.7031 865.8563,21.1094 C865.9188,21.5156 865.95,21.6406 866.0906,21.7656 C866.2313,21.9063 866.4656,22.0156 866.6844,22.0156 C866.95,22.0156 867.2156,21.875 867.3875,21.6563 C867.4969,21.5 867.5281,21.3125 867.5281,20.8906 L867.5281,19.4688 C867.5281,19.0313 867.5125,18.9063 867.4188,18.75 C867.2625,18.4844 866.9813,18.3438 866.6844,18.3438 C866.3875,18.3438 866.1844,18.4375 865.9656,18.75 L865.7938,18.6719 Z " fill="#000000"/><text fill="#000000" font-family="sans-serif" font-size="12" lengthAdjust="spacing" textLength="77" x="877.55" y="27.1543">ShipDynamic</text><line style="stroke:#A80036;stroke-width:1.5;" x1="849" x2="957" y1="39" y2="39"/><text fill="#000000" font-family="sans-serif" font-size="11" lengthAdjust="spacing" textLength="89" x="854" y="53.2104">-baseDateTime</text><text fill="#000000" font-family="sans-serif" font-size="11" lengthAdjust="spacing" textLength="47" x="854" y="66.0151">-latitude</text><text fill="#000000" font-family="sans-serif" font-size="11" lengthAdjust="spacing" textLength="57" x="854" y="78.8198">-longitude</text><text fill="#000000" font-family="sans-serif" font-size="11" lengthAdjust="spacing" textLength="30" x="854" y="91.6245">-SOG</text><text fill="#000000" font-family="sans-serif" font-size="11" lengthAdjust="spacing" textLength="30" x="854" y="104.4292">-COG</text><text fill="#000000" font-family="sans-serif" font-size="11" lengthAdjust="spacing" textLength="50" x="854" y="117.2339">-heading</text><text fill="#000000" font-family="sans-serif" font-size="11" lengthAdjust="spacing" textLength="48" x="854" y="130.0386">-position</text><text fill="#000000" font-family="sans-serif" font-size="11" lengthAdjust="spacing" textLength="98" x="854" y="142.8433">-transceiverClass</text><line style="stroke:#A80036;stroke-width:1.5;" x1="849" x2="957" y1="149.4375" y2="149.4375"/><!--MD5=[e37a32210a1ed0ebd611762d99c128ee]
class CompanyPersonnel--><rect codeLine="65" fill="#FEFECE" filter="url(#f1xq7hguw3cv11)" height="86.4141" id="CompanyPersonnel" style="stroke:#A80036;stroke-width:1.5;" width="147" x="797.5" y="1925"/><ellipse cx="812.5" cy="1941" fill="#ADD1B2" rx="11" ry="11" style="stroke:#A80036;stroke-width:1.0;"/><path d="M814.8438,1936.6719 C813.9063,1936.2344 813.3125,1936.0938 812.4375,1936.0938 C809.8125,1936.0938 807.8125,1938.1719 807.8125,1940.8906 L807.8125,1942.0156 C807.8125,1944.5938 809.9219,1946.4844 812.8125,1946.4844 C814.0313,1946.4844 815.1875,1946.1875 815.9375,1945.6406 C816.5156,1945.2344 816.8438,1944.7813 816.8438,1944.3906 C816.8438,1943.9375 816.4531,1943.5469 815.9844,1943.5469 C815.7656,1943.5469 815.5625,1943.625 815.375,1943.8125 C814.9219,1944.2969 814.9219,1944.2969 814.7344,1944.3906 C814.3125,1944.6563 813.625,1944.7813 812.8594,1944.7813 C810.8125,1944.7813 809.5156,1943.6875 809.5156,1941.9844 L809.5156,1940.8906 C809.5156,1939.1094 810.7656,1937.7969 812.5,1937.7969 C813.0781,1937.7969 813.6875,1937.9531 814.1563,1938.2031 C814.6406,1938.4844 814.8125,1938.7031 814.9063,1939.1094 C814.9688,1939.5156 815,1939.6406 815.1406,1939.7656 C815.2813,1939.9063 815.5156,1940.0156 815.7344,1940.0156 C816,1940.0156 816.2656,1939.875 816.4375,1939.6563 C816.5469,1939.5 816.5781,1939.3125 816.5781,1938.8906 L816.5781,1937.4688 C816.5781,1937.0313 816.5625,1936.9063 816.4688,1936.75 C816.3125,1936.4844 816.0313,1936.3438 815.7344,1936.3438 C815.4375,1936.3438 815.2344,1936.4375 815.0156,1936.75 L814.8438,1936.6719 Z " fill="#000000"/><text fill="#000000" font-family="sans-serif" font-size="12" lengthAdjust="spacing" textLength="115" x="826.5" y="1945.1543">CompanyPersonnel</text><line style="stroke:#A80036;stroke-width:1.5;" x1="798.5" x2="943.5" y1="1957" y2="1957"/><text fill="#000000" font-family="sans-serif" font-size="11" lengthAdjust="spacing" textLength="37" x="803.5" y="1971.2104">-name</text><text fill="#000000" font-family="sans-serif" font-size="11" lengthAdjust="spacing" textLength="41" x="803.5" y="1984.0151">-userID</text><text fill="#000000" font-family="sans-serif" font-size="11" lengthAdjust="spacing" textLength="69" x="803.5" y="1996.8198">-dateOfBirth</text><line style="stroke:#A80036;stroke-width:1.5;" x1="798.5" x2="943.5" y1="2003.4141" y2="2003.4141"/><!--MD5=[d21c0d3d7e322b0367e05f4b0c5de876]
class CompanyRoles--><rect codeLine="70" fill="#FEFECE" filter="url(#f1xq7hguw3cv11)" height="73.6094" id="CompanyRoles" style="stroke:#A80036;stroke-width:1.5;" width="121" x="810.5" y="1774"/><ellipse cx="825.5" cy="1790" fill="#ADD1B2" rx="11" ry="11" style="stroke:#A80036;stroke-width:1.0;"/><path d="M827.8438,1785.6719 C826.9063,1785.2344 826.3125,1785.0938 825.4375,1785.0938 C822.8125,1785.0938 820.8125,1787.1719 820.8125,1789.8906 L820.8125,1791.0156 C820.8125,1793.5938 822.9219,1795.4844 825.8125,1795.4844 C827.0313,1795.4844 828.1875,1795.1875 828.9375,1794.6406 C829.5156,1794.2344 829.8438,1793.7813 829.8438,1793.3906 C829.8438,1792.9375 829.4531,1792.5469 828.9844,1792.5469 C828.7656,1792.5469 828.5625,1792.625 828.375,1792.8125 C827.9219,1793.2969 827.9219,1793.2969 827.7344,1793.3906 C827.3125,1793.6563 826.625,1793.7813 825.8594,1793.7813 C823.8125,1793.7813 822.5156,1792.6875 822.5156,1790.9844 L822.5156,1789.8906 C822.5156,1788.1094 823.7656,1786.7969 825.5,1786.7969 C826.0781,1786.7969 826.6875,1786.9531 827.1563,1787.2031 C827.6406,1787.4844 827.8125,1787.7031 827.9063,1788.1094 C827.9688,1788.5156 828,1788.6406 828.1406,1788.7656 C828.2813,1788.9063 828.5156,1789.0156 828.7344,1789.0156 C829,1789.0156 829.2656,1788.875 829.4375,1788.6563 C829.5469,1788.5 829.5781,1788.3125 829.5781,1787.8906 L829.5781,1786.4688 C829.5781,1786.0313 829.5625,1785.9063 829.4688,1785.75 C829.3125,1785.4844 829.0313,1785.3438 828.7344,1785.3438 C828.4375,1785.3438 828.2344,1785.4375 828.0156,1785.75 L827.8438,1785.6719 Z " fill="#000000"/><text fill="#000000" font-family="sans-serif" font-size="12" lengthAdjust="spacing" textLength="89" x="839.5" y="1794.1543">CompanyRoles</text><line style="stroke:#A80036;stroke-width:1.5;" x1="811.5" x2="930.5" y1="1806" y2="1806"/><text fill="#000000" font-family="sans-serif" font-size="11" lengthAdjust="spacing" textLength="38" x="816.5" y="1820.2104">-roleID</text><text fill="#000000" font-family="sans-serif" font-size="11" lengthAdjust="spacing" textLength="90" x="816.5" y="1833.0151">-roleDescription</text><line style="stroke:#A80036;stroke-width:1.5;" x1="811.5" x2="930.5" y1="1839.6094" y2="1839.6094"/><!--MD5=[f2ba7f6ab60af8dd0d3e354f91729b14]
class Truck--><rect codeLine="74" fill="#FEFECE" filter="url(#f1xq7hguw3cv11)" height="60.8047" id="Truck" style="stroke:#A80036;stroke-width:1.5;" width="130" x="1267" y="513"/><ellipse cx="1311.25" cy="529" fill="#ADD1B2" rx="11" ry="11" style="stroke:#A80036;stroke-width:1.0;"/><path d="M1313.5938,524.6719 C1312.6563,524.2344 1312.0625,524.0938 1311.1875,524.0938 C1308.5625,524.0938 1306.5625,526.1719 1306.5625,528.8906 L1306.5625,530.0156 C1306.5625,532.5938 1308.6719,534.4844 1311.5625,534.4844 C1312.7813,534.4844 1313.9375,534.1875 1314.6875,533.6406 C1315.2656,533.2344 1315.5938,532.7813 1315.5938,532.3906 C1315.5938,531.9375 1315.2031,531.5469 1314.7344,531.5469 C1314.5156,531.5469 1314.3125,531.625 1314.125,531.8125 C1313.6719,532.2969 1313.6719,532.2969 1313.4844,532.3906 C1313.0625,532.6563 1312.375,532.7813 1311.6094,532.7813 C1309.5625,532.7813 1308.2656,531.6875 1308.2656,529.9844 L1308.2656,528.8906 C1308.2656,527.1094 1309.5156,525.7969 1311.25,525.7969 C1311.8281,525.7969 1312.4375,525.9531 1312.9063,526.2031 C1313.3906,526.4844 1313.5625,526.7031 1313.6563,527.1094 C1313.7188,527.5156 1313.75,527.6406 1313.8906,527.7656 C1314.0313,527.9063 1314.2656,528.0156 1314.4844,528.0156 C1314.75,528.0156 1315.0156,527.875 1315.1875,527.6563 C1315.2969,527.5 1315.3281,527.3125 1315.3281,526.8906 L1315.3281,525.4688 C1315.3281,525.0313 1315.3125,524.9063 1315.2188,524.75 C1315.0625,524.4844 1314.7813,524.3438 1314.4844,524.3438 C1314.1875,524.3438 1313.9844,524.4375 1313.7656,524.75 L1313.5938,524.6719 Z " fill="#000000"/><text fill="#000000" font-family="sans-serif" font-size="12" lengthAdjust="spacing" textLength="33" x="1331.75" y="533.1543">Truck</text><line style="stroke:#A80036;stroke-width:1.5;" x1="1268" x2="1396" y1="545" y2="545"/><text fill="#000000" font-family="sans-serif" font-size="11" lengthAdjust="spacing" textLength="118" x="1273" y="559.2104">-licensePlateNumber</text><line style="stroke:#A80036;stroke-width:1.5;" x1="1268" x2="1396" y1="565.8047" y2="565.8047"/><!--MD5=[ed6624c6556d5e7b1bd23032162d20b7]
class Client--><rect codeLine="77" fill="#FEFECE" filter="url(#f1xq7hguw3cv11)" height="73.6094" id="Client" style="stroke:#A80036;stroke-width:1.5;" width="65" x="232.5" y="506.5"/><ellipse cx="247.5" cy="522.5" fill="#ADD1B2" rx="11" ry="11" style="stroke:#A80036;stroke-width:1.0;"/><path d="M249.8438,518.1719 C248.9063,517.7344 248.3125,517.5938 247.4375,517.5938 C244.8125,517.5938 242.8125,519.6719 242.8125,522.3906 L242.8125,523.5156 C242.8125,526.0938 244.9219,527.9844 247.8125,527.9844 C249.0313,527.9844 250.1875,527.6875 250.9375,527.1406 C251.5156,526.7344 251.8438,526.2813 251.8438,525.8906 C251.8438,525.4375 251.4531,525.0469 250.9844,525.0469 C250.7656,525.0469 250.5625,525.125 250.375,525.3125 C249.9219,525.7969 249.9219,525.7969 249.7344,525.8906 C249.3125,526.1563 248.625,526.2813 247.8594,526.2813 C245.8125,526.2813 244.5156,525.1875 244.5156,523.4844 L244.5156,522.3906 C244.5156,520.6094 245.7656,519.2969 247.5,519.2969 C248.0781,519.2969 248.6875,519.4531 249.1563,519.7031 C249.6406,519.9844 249.8125,520.2031 249.9063,520.6094 C249.9688,521.0156 250,521.1406 250.1406,521.2656 C250.2813,521.4063 250.5156,521.5156 250.7344,521.5156 C251,521.5156 251.2656,521.375 251.4375,521.1563 C251.5469,521 251.5781,520.8125 251.5781,520.3906 L251.5781,518.9688 C251.5781,518.5313 251.5625,518.4063 251.4688,518.25 C251.3125,517.9844 251.0313,517.8438 250.7344,517.8438 C250.4375,517.8438 250.2344,517.9375 250.0156,518.25 L249.8438,518.1719 Z " fill="#000000"/><text fill="#000000" font-family="sans-serif" font-size="12" lengthAdjust="spacing" textLength="33" x="261.5" y="526.6543">Client</text><line style="stroke:#A80036;stroke-width:1.5;" x1="233.5" x2="296.5" y1="538.5" y2="538.5"/><text fill="#000000" font-family="sans-serif" font-size="11" lengthAdjust="spacing" textLength="47" x="238.5" y="552.7104">-clientID</text><text fill="#000000" font-family="sans-serif" font-size="11" lengthAdjust="spacing" textLength="37" x="238.5" y="565.5151">-name</text><line style="stroke:#A80036;stroke-width:1.5;" x1="233.5" x2="296.5" y1="572.1094" y2="572.1094"/><!--MD5=[019a73386217e12d5bb8e34bf0b46b9e]
class FleetManager--><rect codeLine="81" fill="#FEFECE" filter="url(#f1xq7hguw3cv11)" height="73.6094" id="FleetManager" style="stroke:#A80036;stroke-width:1.5;" width="114" x="1194" y="819"/><ellipse cx="1209" cy="835" fill="#ADD1B2" rx="11" ry="11" style="stroke:#A80036;stroke-width:1.0;"/><path d="M1211.3438,830.6719 C1210.4063,830.2344 1209.8125,830.0938 1208.9375,830.0938 C1206.3125,830.0938 1204.3125,832.1719 1204.3125,834.8906 L1204.3125,836.0156 C1204.3125,838.5938 1206.4219,840.4844 1209.3125,840.4844 C1210.5313,840.4844 1211.6875,840.1875 1212.4375,839.6406 C1213.0156,839.2344 1213.3438,838.7813 1213.3438,838.3906 C1213.3438,837.9375 1212.9531,837.5469 1212.4844,837.5469 C1212.2656,837.5469 1212.0625,837.625 1211.875,837.8125 C1211.4219,838.2969 1211.4219,838.2969 1211.2344,838.3906 C1210.8125,838.6563 1210.125,838.7813 1209.3594,838.7813 C1207.3125,838.7813 1206.0156,837.6875 1206.0156,835.9844 L1206.0156,834.8906 C1206.0156,833.1094 1207.2656,831.7969 1209,831.7969 C1209.5781,831.7969 1210.1875,831.9531 1210.6563,832.2031 C1211.1406,832.4844 1211.3125,832.7031 1211.4063,833.1094 C1211.4688,833.5156 1211.5,833.6406 1211.6406,833.7656 C1211.7813,833.9063 1212.0156,834.0156 1212.2344,834.0156 C1212.5,834.0156 1212.7656,833.875 1212.9375,833.6563 C1213.0469,833.5 1213.0781,833.3125 1213.0781,832.8906 L1213.0781,831.4688 C1213.0781,831.0313 1213.0625,830.9063 1212.9688,830.75 C1212.8125,830.4844 1212.5313,830.3438 1212.2344,830.3438 C1211.9375,830.3438 1211.7344,830.4375 1211.5156,830.75 L1211.3438,830.6719 Z " fill="#000000"/><text fill="#000000" font-family="sans-serif" font-size="12" lengthAdjust="spacing" textLength="82" x="1223" y="839.1543">FleetManager</text><line style="stroke:#A80036;stroke-width:1.5;" x1="1195" x2="1307" y1="851" y2="851"/><text fill="#000000" font-family="sans-serif" font-size="11" lengthAdjust="spacing" textLength="41" x="1200" y="865.2104">-userID</text><text fill="#000000" font-family="sans-serif" font-size="11" lengthAdjust="spacing" textLength="37" x="1200" y="878.0151">-name</text><line style="stroke:#A80036;stroke-width:1.5;" x1="1195" x2="1307" y1="884.6094" y2="884.6094"/><!--MD5=[ddaf6f62b0bc30921877ec9fb9463c9f]
class TrafficManager--><rect codeLine="85" fill="#FEFECE" filter="url(#f1xq7hguw3cv11)" height="73.6094" id="TrafficManager" style="stroke:#A80036;stroke-width:1.5;" width="121" x="994.5" y="715"/><ellipse cx="1009.5" cy="731" fill="#ADD1B2" rx="11" ry="11" style="stroke:#A80036;stroke-width:1.0;"/><path d="M1011.8438,726.6719 C1010.9063,726.2344 1010.3125,726.0938 1009.4375,726.0938 C1006.8125,726.0938 1004.8125,728.1719 1004.8125,730.8906 L1004.8125,732.0156 C1004.8125,734.5938 1006.9219,736.4844 1009.8125,736.4844 C1011.0313,736.4844 1012.1875,736.1875 1012.9375,735.6406 C1013.5156,735.2344 1013.8438,734.7813 1013.8438,734.3906 C1013.8438,733.9375 1013.4531,733.5469 1012.9844,733.5469 C1012.7656,733.5469 1012.5625,733.625 1012.375,733.8125 C1011.9219,734.2969 1011.9219,734.2969 1011.7344,734.3906 C1011.3125,734.6563 1010.625,734.7813 1009.8594,734.7813 C1007.8125,734.7813 1006.5156,733.6875 1006.5156,731.9844 L1006.5156,730.8906 C1006.5156,729.1094 1007.7656,727.7969 1009.5,727.7969 C1010.0781,727.7969 1010.6875,727.9531 1011.1563,728.2031 C1011.6406,728.4844 1011.8125,728.7031 1011.9063,729.1094 C1011.9688,729.5156 1012,729.6406 1012.1406,729.7656 C1012.2813,729.9063 1012.5156,730.0156 1012.7344,730.0156 C1013,730.0156 1013.2656,729.875 1013.4375,729.6563 C1013.5469,729.5 1013.5781,729.3125 1013.5781,728.8906 L1013.5781,727.4688 C1013.5781,727.0313 1013.5625,726.9063 1013.4688,726.75 C1013.3125,726.4844 1013.0313,726.3438 1012.7344,726.3438 C1012.4375,726.3438 1012.2344,726.4375 1012.0156,726.75 L1011.8438,726.6719 Z " fill="#000000"/><text fill="#000000" font-family="sans-serif" font-size="12" lengthAdjust="spacing" textLength="89" x="1023.5" y="735.1543">TrafficManager</text><line style="stroke:#A80036;stroke-width:1.5;" x1="995.5" x2="1114.5" y1="747" y2="747"/><text fill="#000000" font-family="sans-serif" font-size="11" lengthAdjust="spacing" textLength="41" x="1000.5" y="761.2104">-userID</text><text fill="#000000" font-family="sans-serif" font-size="11" lengthAdjust="spacing" textLength="37" x="1000.5" y="774.0151">-name</text><line style="stroke:#A80036;stroke-width:1.5;" x1="995.5" x2="1114.5" y1="780.6094" y2="780.6094"/><!--MD5=[7fcbedb88579745280c367cebf31fce2]
class WarehouseStaff--><rect codeLine="89" fill="#FEFECE" filter="url(#f1xq7hguw3cv11)" height="73.6094" id="WarehouseStaff" style="stroke:#A80036;stroke-width:1.5;" width="128" x="543" y="1156"/><ellipse cx="558" cy="1172" fill="#ADD1B2" rx="11" ry="11" style="stroke:#A80036;stroke-width:1.0;"/><path d="M560.3438,1167.6719 C559.4063,1167.2344 558.8125,1167.0938 557.9375,1167.0938 C555.3125,1167.0938 553.3125,1169.1719 553.3125,1171.8906 L553.3125,1173.0156 C553.3125,1175.5938 555.4219,1177.4844 558.3125,1177.4844 C559.5313,1177.4844 560.6875,1177.1875 561.4375,1176.6406 C562.0156,1176.2344 562.3438,1175.7813 562.3438,1175.3906 C562.3438,1174.9375 561.9531,1174.5469 561.4844,1174.5469 C561.2656,1174.5469 561.0625,1174.625 560.875,1174.8125 C560.4219,1175.2969 560.4219,1175.2969 560.2344,1175.3906 C559.8125,1175.6563 559.125,1175.7813 558.3594,1175.7813 C556.3125,1175.7813 555.0156,1174.6875 555.0156,1172.9844 L555.0156,1171.8906 C555.0156,1170.1094 556.2656,1168.7969 558,1168.7969 C558.5781,1168.7969 559.1875,1168.9531 559.6563,1169.2031 C560.1406,1169.4844 560.3125,1169.7031 560.4063,1170.1094 C560.4688,1170.5156 560.5,1170.6406 560.6406,1170.7656 C560.7813,1170.9063 561.0156,1171.0156 561.2344,1171.0156 C561.5,1171.0156 561.7656,1170.875 561.9375,1170.6563 C562.0469,1170.5 562.0781,1170.3125 562.0781,1169.8906 L562.0781,1168.4688 C562.0781,1168.0313 562.0625,1167.9063 561.9688,1167.75 C561.8125,1167.4844 561.5313,1167.3438 561.2344,1167.3438 C560.9375,1167.3438 560.7344,1167.4375 560.5156,1167.75 L560.3438,1167.6719 Z " fill="#000000"/><text fill="#000000" font-family="sans-serif" font-size="12" lengthAdjust="spacing" textLength="96" x="572" y="1176.1543">WarehouseStaff</text><line style="stroke:#A80036;stroke-width:1.5;" x1="544" x2="670" y1="1188" y2="1188"/><text fill="#000000" font-family="sans-serif" font-size="11" lengthAdjust="spacing" textLength="41" x="549" y="1202.2104">-userID</text><text fill="#000000" font-family="sans-serif" font-size="11" lengthAdjust="spacing" textLength="37" x="549" y="1215.0151">-name</text><line style="stroke:#A80036;stroke-width:1.5;" x1="544" x2="670" y1="1221.6094" y2="1221.6094"/><!--MD5=[5e1deb958606d83ef5f4988eb2b8f966]
class WarehouseManager--><rect codeLine="93" fill="#FEFECE" filter="url(#f1xq7hguw3cv11)" height="73.6094" id="WarehouseManager" style="stroke:#A80036;stroke-width:1.5;" width="153" x="576.5" y="1623"/><ellipse cx="591.5" cy="1639" fill="#ADD1B2" rx="11" ry="11" style="stroke:#A80036;stroke-width:1.0;"/><path d="M593.8438,1634.6719 C592.9063,1634.2344 592.3125,1634.0938 591.4375,1634.0938 C588.8125,1634.0938 586.8125,1636.1719 586.8125,1638.8906 L586.8125,1640.0156 C586.8125,1642.5938 588.9219,1644.4844 591.8125,1644.4844 C593.0313,1644.4844 594.1875,1644.1875 594.9375,1643.6406 C595.5156,1643.2344 595.8438,1642.7813 595.8438,1642.3906 C595.8438,1641.9375 595.4531,1641.5469 594.9844,1641.5469 C594.7656,1641.5469 594.5625,1641.625 594.375,1641.8125 C593.9219,1642.2969 593.9219,1642.2969 593.7344,1642.3906 C593.3125,1642.6563 592.625,1642.7813 591.8594,1642.7813 C589.8125,1642.7813 588.5156,1641.6875 588.5156,1639.9844 L588.5156,1638.8906 C588.5156,1637.1094 589.7656,1635.7969 591.5,1635.7969 C592.0781,1635.7969 592.6875,1635.9531 593.1563,1636.2031 C593.6406,1636.4844 593.8125,1636.7031 593.9063,1637.1094 C593.9688,1637.5156 594,1637.6406 594.1406,1637.7656 C594.2813,1637.9063 594.5156,1638.0156 594.7344,1638.0156 C595,1638.0156 595.2656,1637.875 595.4375,1637.6563 C595.5469,1637.5 595.5781,1637.3125 595.5781,1636.8906 L595.5781,1635.4688 C595.5781,1635.0313 595.5625,1634.9063 595.4688,1634.75 C595.3125,1634.4844 595.0313,1634.3438 594.7344,1634.3438 C594.4375,1634.3438 594.2344,1634.4375 594.0156,1634.75 L593.8438,1634.6719 Z " fill="#000000"/><text fill="#000000" font-family="sans-serif" font-size="12" lengthAdjust="spacing" textLength="121" x="605.5" y="1643.1543">WarehouseManager</text><line style="stroke:#A80036;stroke-width:1.5;" x1="577.5" x2="728.5" y1="1655" y2="1655"/><text fill="#000000" font-family="sans-serif" font-size="11" lengthAdjust="spacing" textLength="41" x="582.5" y="1669.2104">-userID</text><text fill="#000000" font-family="sans-serif" font-size="11" lengthAdjust="spacing" textLength="37" x="582.5" y="1682.0151">-name</text><line style="stroke:#A80036;stroke-width:1.5;" x1="577.5" x2="728.5" y1="1688.6094" y2="1688.6094"/><!--MD5=[99d8f1361a72f685c413d1fd21efef1c]
class PortManager--><rect codeLine="97" fill="#FEFECE" filter="url(#f1xq7hguw3cv11)" height="73.6094" id="PortManager" style="stroke:#A80036;stroke-width:1.5;" width="107" x="429.5" y="1623"/><ellipse cx="444.5" cy="1639" fill="#ADD1B2" rx="11" ry="11" style="stroke:#A80036;stroke-width:1.0;"/><path d="M446.8438,1634.6719 C445.9063,1634.2344 445.3125,1634.0938 444.4375,1634.0938 C441.8125,1634.0938 439.8125,1636.1719 439.8125,1638.8906 L439.8125,1640.0156 C439.8125,1642.5938 441.9219,1644.4844 444.8125,1644.4844 C446.0313,1644.4844 447.1875,1644.1875 447.9375,1643.6406 C448.5156,1643.2344 448.8438,1642.7813 448.8438,1642.3906 C448.8438,1641.9375 448.4531,1641.5469 447.9844,1641.5469 C447.7656,1641.5469 447.5625,1641.625 447.375,1641.8125 C446.9219,1642.2969 446.9219,1642.2969 446.7344,1642.3906 C446.3125,1642.6563 445.625,1642.7813 444.8594,1642.7813 C442.8125,1642.7813 441.5156,1641.6875 441.5156,1639.9844 L441.5156,1638.8906 C441.5156,1637.1094 442.7656,1635.7969 444.5,1635.7969 C445.0781,1635.7969 445.6875,1635.9531 446.1563,1636.2031 C446.6406,1636.4844 446.8125,1636.7031 446.9063,1637.1094 C446.9688,1637.5156 447,1637.6406 447.1406,1637.7656 C447.2813,1637.9063 447.5156,1638.0156 447.7344,1638.0156 C448,1638.0156 448.2656,1637.875 448.4375,1637.6563 C448.5469,1637.5 448.5781,1637.3125 448.5781,1636.8906 L448.5781,1635.4688 C448.5781,1635.0313 448.5625,1634.9063 448.4688,1634.75 C448.3125,1634.4844 448.0313,1634.3438 447.7344,1634.3438 C447.4375,1634.3438 447.2344,1634.4375 447.0156,1634.75 L446.8438,1634.6719 Z " fill="#000000"/><text fill="#000000" font-family="sans-serif" font-size="12" lengthAdjust="spacing" textLength="75" x="458.5" y="1643.1543">PortManager</text><line style="stroke:#A80036;stroke-width:1.5;" x1="430.5" x2="535.5" y1="1655" y2="1655"/><text fill="#000000" font-family="sans-serif" font-size="11" lengthAdjust="spacing" textLength="41" x="435.5" y="1669.2104">-userID</text><text fill="#000000" font-family="sans-serif" font-size="11" lengthAdjust="spacing" textLength="37" x="435.5" y="1682.0151">-name</text><line style="stroke:#A80036;stroke-width:1.5;" x1="430.5" x2="535.5" y1="1688.6094" y2="1688.6094"/><!--MD5=[e6b394b930674b2255938b8afe6bb7b4]
class ShipCaptain--><rect codeLine="101" fill="#FEFECE" filter="url(#f1xq7hguw3cv11)" height="73.6094" id="ShipCaptain" style="stroke:#A80036;stroke-width:1.5;" width="102" x="817" y="1260"/><ellipse cx="832" cy="1276" fill="#ADD1B2" rx="11" ry="11" style="stroke:#A80036;stroke-width:1.0;"/><path d="M834.3438,1271.6719 C833.4063,1271.2344 832.8125,1271.0938 831.9375,1271.0938 C829.3125,1271.0938 827.3125,1273.1719 827.3125,1275.8906 L827.3125,1277.0156 C827.3125,1279.5938 829.4219,1281.4844 832.3125,1281.4844 C833.5313,1281.4844 834.6875,1281.1875 835.4375,1280.6406 C836.0156,1280.2344 836.3438,1279.7813 836.3438,1279.3906 C836.3438,1278.9375 835.9531,1278.5469 835.4844,1278.5469 C835.2656,1278.5469 835.0625,1278.625 834.875,1278.8125 C834.4219,1279.2969 834.4219,1279.2969 834.2344,1279.3906 C833.8125,1279.6563 833.125,1279.7813 832.3594,1279.7813 C830.3125,1279.7813 829.0156,1278.6875 829.0156,1276.9844 L829.0156,1275.8906 C829.0156,1274.1094 830.2656,1272.7969 832,1272.7969 C832.5781,1272.7969 833.1875,1272.9531 833.6563,1273.2031 C834.1406,1273.4844 834.3125,1273.7031 834.4063,1274.1094 C834.4688,1274.5156 834.5,1274.6406 834.6406,1274.7656 C834.7813,1274.9063 835.0156,1275.0156 835.2344,1275.0156 C835.5,1275.0156 835.7656,1274.875 835.9375,1274.6563 C836.0469,1274.5 836.0781,1274.3125 836.0781,1273.8906 L836.0781,1272.4688 C836.0781,1272.0313 836.0625,1271.9063 835.9688,1271.75 C835.8125,1271.4844 835.5313,1271.3438 835.2344,1271.3438 C834.9375,1271.3438 834.7344,1271.4375 834.5156,1271.75 L834.3438,1271.6719 Z " fill="#000000"/><text fill="#000000" font-family="sans-serif" font-size="12" lengthAdjust="spacing" textLength="70" x="846" y="1280.1543">ShipCaptain</text><line style="stroke:#A80036;stroke-width:1.5;" x1="818" x2="918" y1="1292" y2="1292"/><text fill="#000000" font-family="sans-serif" font-size="11" lengthAdjust="spacing" textLength="41" x="823" y="1306.2104">-userID</text><text fill="#000000" font-family="sans-serif" font-size="11" lengthAdjust="spacing" textLength="37" x="823" y="1319.0151">-name</text><line style="stroke:#A80036;stroke-width:1.5;" x1="818" x2="918" y1="1325.6094" y2="1325.6094"/><!--MD5=[d14076b1fa5ff6fc34e7abc31c5e1daa]
class ShipChiefElectricalEngineer--><rect codeLine="105" fill="#FEFECE" filter="url(#f1xq7hguw3cv11)" height="73.6094" id="ShipChiefElectricalEngineer" style="stroke:#A80036;stroke-width:1.5;" width="195" x="921.5" y="1519"/><ellipse cx="936.5" cy="1535" fill="#ADD1B2" rx="11" ry="11" style="stroke:#A80036;stroke-width:1.0;"/><path d="M938.8438,1530.6719 C937.9063,1530.2344 937.3125,1530.0938 936.4375,1530.0938 C933.8125,1530.0938 931.8125,1532.1719 931.8125,1534.8906 L931.8125,1536.0156 C931.8125,1538.5938 933.9219,1540.4844 936.8125,1540.4844 C938.0313,1540.4844 939.1875,1540.1875 939.9375,1539.6406 C940.5156,1539.2344 940.8438,1538.7813 940.8438,1538.3906 C940.8438,1537.9375 940.4531,1537.5469 939.9844,1537.5469 C939.7656,1537.5469 939.5625,1537.625 939.375,1537.8125 C938.9219,1538.2969 938.9219,1538.2969 938.7344,1538.3906 C938.3125,1538.6563 937.625,1538.7813 936.8594,1538.7813 C934.8125,1538.7813 933.5156,1537.6875 933.5156,1535.9844 L933.5156,1534.8906 C933.5156,1533.1094 934.7656,1531.7969 936.5,1531.7969 C937.0781,1531.7969 937.6875,1531.9531 938.1563,1532.2031 C938.6406,1532.4844 938.8125,1532.7031 938.9063,1533.1094 C938.9688,1533.5156 939,1533.6406 939.1406,1533.7656 C939.2813,1533.9063 939.5156,1534.0156 939.7344,1534.0156 C940,1534.0156 940.2656,1533.875 940.4375,1533.6563 C940.5469,1533.5 940.5781,1533.3125 940.5781,1532.8906 L940.5781,1531.4688 C940.5781,1531.0313 940.5625,1530.9063 940.4688,1530.75 C940.3125,1530.4844 940.0313,1530.3438 939.7344,1530.3438 C939.4375,1530.3438 939.2344,1530.4375 939.0156,1530.75 L938.8438,1530.6719 Z " fill="#000000"/><text fill="#000000" font-family="sans-serif" font-size="12" lengthAdjust="spacing" textLength="163" x="950.5" y="1539.1543">ShipChiefElectricalEngineer</text><line style="stroke:#A80036;stroke-width:1.5;" x1="922.5" x2="1115.5" y1="1551" y2="1551"/><text fill="#000000" font-family="sans-serif" font-size="11" lengthAdjust="spacing" textLength="41" x="927.5" y="1565.2104">-userID</text><text fill="#000000" font-family="sans-serif" font-size="11" lengthAdjust="spacing" textLength="37" x="927.5" y="1578.0151">-name</text><line style="stroke:#A80036;stroke-width:1.5;" x1="922.5" x2="1115.5" y1="1584.6094" y2="1584.6094"/><!--MD5=[a93a86a91abc8796b23cdcc7cc3b17ff]
class TruckDriver--><rect codeLine="109" fill="#FEFECE" filter="url(#f1xq7hguw3cv11)" height="73.6094" id="TruckDriver" style="stroke:#A80036;stroke-width:1.5;" width="102" x="1412" y="1052"/><ellipse cx="1427" cy="1068" fill="#ADD1B2" rx="11" ry="11" style="stroke:#A80036;stroke-width:1.0;"/><path d="M1429.3438,1063.6719 C1428.4063,1063.2344 1427.8125,1063.0938 1426.9375,1063.0938 C1424.3125,1063.0938 1422.3125,1065.1719 1422.3125,1067.8906 L1422.3125,1069.0156 C1422.3125,1071.5938 1424.4219,1073.4844 1427.3125,1073.4844 C1428.5313,1073.4844 1429.6875,1073.1875 1430.4375,1072.6406 C1431.0156,1072.2344 1431.3438,1071.7813 1431.3438,1071.3906 C1431.3438,1070.9375 1430.9531,1070.5469 1430.4844,1070.5469 C1430.2656,1070.5469 1430.0625,1070.625 1429.875,1070.8125 C1429.4219,1071.2969 1429.4219,1071.2969 1429.2344,1071.3906 C1428.8125,1071.6563 1428.125,1071.7813 1427.3594,1071.7813 C1425.3125,1071.7813 1424.0156,1070.6875 1424.0156,1068.9844 L1424.0156,1067.8906 C1424.0156,1066.1094 1425.2656,1064.7969 1427,1064.7969 C1427.5781,1064.7969 1428.1875,1064.9531 1428.6563,1065.2031 C1429.1406,1065.4844 1429.3125,1065.7031 1429.4063,1066.1094 C1429.4688,1066.5156 1429.5,1066.6406 1429.6406,1066.7656 C1429.7813,1066.9063 1430.0156,1067.0156 1430.2344,1067.0156 C1430.5,1067.0156 1430.7656,1066.875 1430.9375,1066.6563 C1431.0469,1066.5 1431.0781,1066.3125 1431.0781,1065.8906 L1431.0781,1064.4688 C1431.0781,1064.0313 1431.0625,1063.9063 1430.9688,1063.75 C1430.8125,1063.4844 1430.5313,1063.3438 1430.2344,1063.3438 C1429.9375,1063.3438 1429.7344,1063.4375 1429.5156,1063.75 L1429.3438,1063.6719 Z " fill="#000000"/><text fill="#000000" font-family="sans-serif" font-size="12" lengthAdjust="spacing" textLength="70" x="1441" y="1072.1543">TruckDriver</text><line style="stroke:#A80036;stroke-width:1.5;" x1="1413" x2="1513" y1="1084" y2="1084"/><text fill="#000000" font-family="sans-serif" font-size="11" lengthAdjust="spacing" textLength="41" x="1418" y="1098.2104">-userID</text><text fill="#000000" font-family="sans-serif" font-size="11" lengthAdjust="spacing" textLength="37" x="1418" y="1111.0151">-name</text><line style="stroke:#A80036;stroke-width:1.5;" x1="1413" x2="1513" y1="1117.6094" y2="1117.6094"/><!--MD5=[2a9d993c0bc5e4c805bc6535be046bd1]
reverse link Ship to FleetManager--><path codeLine="114" d="M996.516,582.38 C1040.37,603.23 1091.34,632.18 1130,668 C1177.37,711.89 1214.43,778.1 1234.47,818.83 " fill="none" id="Ship-backto-FleetManager" style="stroke:#A80036;stroke-width:1.0;"/><polygon fill="#A80036" points="991.752,580.14,998.1807,587.6013,996.2728,582.2759,1001.5982,580.368,991.752,580.14" style="stroke:#A80036;stroke-width:1.0;"/><text fill="#000000" font-family="sans-serif" font-size="13" lengthAdjust="spacing" textLength="121" x="1147" y="681.0669">controls a group of</text><text fill="#000000" font-family="sans-serif" font-size="13" lengthAdjust="spacing" textLength="23" x="999.4275" y="579.4487">1..*</text><text fill="#000000" font-family="sans-serif" font-size="13" lengthAdjust="spacing" textLength="8" x="1222.8131" y="807.9867">1</text><!--MD5=[b7afe7416943f1f467849a2c0eafaab5]
reverse link Ship to TrafficManager--><path codeLine="115" d="M948.576,642.92 C957.134,657.62 966.674,672.14 977,685 C985.553,695.65 996.018,705.86 1006.47,714.94 " fill="none" id="Ship-backto-TrafficManager" style="stroke:#A80036;stroke-width:1.0;"/><polygon fill="#A80036" points="945.952,638.36,946.9596,648.1572,948.4395,642.6973,953.8993,644.1772,945.952,638.36" style="stroke:#A80036;stroke-width:1.0;"/><text fill="#000000" font-family="sans-serif" font-size="13" lengthAdjust="spacing" textLength="147" x="978" y="681.0669">controls the position of</text><text fill="#000000" font-family="sans-serif" font-size="13" lengthAdjust="spacing" textLength="23" x="925.2618" y="657.9543">1..*</text><text fill="#000000" font-family="sans-serif" font-size="13" lengthAdjust="spacing" textLength="8" x="988.7848" y="703.8394">1</text><!--MD5=[979c2a7f3e6bbb1a61ffa8e857a73fd9]
reverse link Truck to TrafficManager--><path codeLine="116" d="M1331.56,579.59 C1329.25,611.31 1320.84,657.17 1293,685 C1246.23,731.76 1169.41,746.13 1115.74,750.17 " fill="none" id="Truck-backto-TrafficManager" style="stroke:#A80036;stroke-width:1.0;"/><polygon fill="#A80036" points="1331.9,574.23,1327.3417,582.9605,1331.5854,579.2201,1335.3259,583.4638,1331.9,574.23" style="stroke:#A80036;stroke-width:1.0;"/><text fill="#000000" font-family="sans-serif" font-size="13" lengthAdjust="spacing" textLength="147" x="1307" y="681.0669">controls the position of</text><text fill="#000000" font-family="sans-serif" font-size="13" lengthAdjust="spacing" textLength="23" x="1306.6163" y="593.8557">1..*</text><text fill="#000000" font-family="sans-serif" font-size="13" lengthAdjust="spacing" textLength="8" x="1123.6302" y="746.1317">1</text><!--MD5=[617732bd1d9fd151b07a59d7bb88c793]
reverse link WarehouseStaff to Warehouse--><path codeLine="117" d="M562.558,1233.952 C555.758,1241.964 549.512,1250.777 545,1260 C529.279,1292.135 522.662,1331.596 520.031,1363.925 " fill="none" id="WarehouseStaff-backto-Warehouse" style="stroke:#A80036;stroke-width:1.0;"/><polygon fill="#A80036" points="565.936,1230.085,557.0023,1234.2309,562.6463,1233.8504,563.0268,1239.4944,565.936,1230.085" style="stroke:#A80036;stroke-width:1.0;"/><text fill="#000000" font-family="sans-serif" font-size="13" lengthAdjust="spacing" textLength="221" x="546" y="1301.5669">has cargo unloaded and loaded by</text><text fill="#000000" font-family="sans-serif" font-size="13" lengthAdjust="spacing" textLength="23" x="534.2301" y="1249.5796">1..*</text><text fill="#000000" font-family="sans-serif" font-size="13" lengthAdjust="spacing" textLength="8" x="520.6127" y="1352.9071">1</text><!--MD5=[66df742bc11e9d71c0431c2db1794ac7]
reverse link Warehouse to WarehouseManager--><path codeLine="118" d="M557.36,1493.771 C581.62,1535.683 612.051,1588.255 631.986,1622.696 " fill="none" id="Warehouse-backto-WarehouseManager" style="stroke:#A80036;stroke-width:1.0;"/><polygon fill="#A80036" points="554.734,1489.234,555.7825,1499.0269,557.2396,1493.5609,562.7056,1495.018,554.734,1489.234" style="stroke:#A80036;stroke-width:1.0;"/><text fill="#000000" font-family="sans-serif" font-size="13" lengthAdjust="spacing" textLength="111" x="615" y="1560.5669">manages a list of</text><text fill="#000000" font-family="sans-serif" font-size="13" lengthAdjust="spacing" textLength="23" x="534.3846" y="1508.9994">1..*</text><text fill="#000000" font-family="sans-serif" font-size="13" lengthAdjust="spacing" textLength="8" x="619.5304" y="1611.8288">1</text><!--MD5=[7b8281b395fbda1c3c937348e0bf53f5]
reverse link OperationsTeam to Port--><path codeLine="119" d="M177.426,1222.406 C176.854,1234.052 176.28,1247.669 176,1260 C175.253,1292.88 170.336,1301.602 176,1334 C177.716,1343.814 180.393,1353.965 183.499,1363.776 " fill="none" id="OperationsTeam-backto-Port" style="stroke:#A80036;stroke-width:1.0;"/><polygon fill="#A80036" points="177.687,1217.205,173.2395,1225.9925,177.4356,1222.1987,181.2294,1226.3947,177.687,1217.205" style="stroke:#A80036;stroke-width:1.0;"/><text fill="#000000" font-family="sans-serif" font-size="13" lengthAdjust="spacing" textLength="221" x="177" y="1301.5669">has cargo unloaded and loaded by</text><text fill="#000000" font-family="sans-serif" font-size="13" lengthAdjust="spacing" textLength="23" x="151.5638" y="1237.0162">1..*</text><text fill="#000000" font-family="sans-serif" font-size="13" lengthAdjust="spacing" textLength="8" x="172.0879" y="1352.7409">1</text><!--MD5=[1adca4b633f412c0a1e78cb694806c2c]
reverse link Port to PortManager--><path codeLine="120" d="M247.589,1460.103 C298.327,1502.971 387.2,1578.06 440.03,1622.695 " fill="none" id="Port-backto-PortManager" style="stroke:#A80036;stroke-width:1.0;"/><polygon fill="#A80036" points="243.702,1456.82,247.9941,1465.6844,247.5209,1460.0474,253.1579,1459.5742,243.702,1456.82" style="stroke:#A80036;stroke-width:1.0;"/><text fill="#000000" font-family="sans-serif" font-size="13" lengthAdjust="spacing" textLength="111" x="404" y="1560.5669">manages a list of</text><text fill="#000000" font-family="sans-serif" font-size="13" lengthAdjust="spacing" textLength="27" x="251.3842" y="1457.5481">1...*</text><text fill="#000000" font-family="sans-serif" font-size="13" lengthAdjust="spacing" textLength="8" x="423.6635" y="1611.8276">1</text><!--MD5=[55bb66368514384aa008a09d2b6217be]
reverse link Ship to ShipCaptain--><path codeLine="121" d="M810.331,604.81 C766.662,641.09 724,691.7 724,751 C724,751 724,751 724,1090 C724,1159.599 779.899,1222.437 822.042,1259.922 " fill="none" id="Ship-backto-ShipCaptain" style="stroke:#A80036;stroke-width:1.0;"/><polygon fill="#A80036" points="814.287,601.56,804.79,604.169,810.4191,604.7285,809.8596,610.3576,814.287,601.56" style="stroke:#A80036;stroke-width:1.0;"/><text fill="#000000" font-family="sans-serif" font-size="13" lengthAdjust="spacing" textLength="173" x="725" y="860.5669">oversees the operations of</text><text fill="#000000" font-family="sans-serif" font-size="13" lengthAdjust="spacing" textLength="8" x="798.6092" y="602.8255">1</text><text fill="#000000" font-family="sans-serif" font-size="13" lengthAdjust="spacing" textLength="8" x="804.831" y="1248.8181">1</text><!--MD5=[e5e850955d00edb0a04c2d9e5b8b5d54]
reverse link Ship to ShipChiefElectricalEngineer--><path codeLine="122" d="M911.533,643.51 C920.1,740.15 934.129,891.32 949,1022 C970.316,1209.316 1001.576,1432.88 1013.82,1518.862 " fill="none" id="Ship-backto-ShipChiefElectricalEngineer" style="stroke:#A80036;stroke-width:1.0;"/><polygon fill="#A80036" points="911.079,638.38,907.8919,647.6989,911.5219,643.3603,915.8605,646.9903,911.079,638.38" style="stroke:#A80036;stroke-width:1.0;"/><text fill="#000000" font-family="sans-serif" font-size="13" lengthAdjust="spacing" textLength="192" x="950" y="977.0669">oversees the electrical part of</text><text fill="#000000" font-family="sans-serif" font-size="13" lengthAdjust="spacing" textLength="8" x="903.3786" y="657.9758">1</text><text fill="#000000" font-family="sans-serif" font-size="13" lengthAdjust="spacing" textLength="8" x="1004.1801" y="1508.0244">1</text><!--MD5=[c0580ee3c737d1989307f64b7b9d1295]
reverse link Truck to TruckDriver--><path codeLine="123" d="M1383.56,577.16 C1412.82,598.92 1446.77,630.39 1463,668 C1519.78,799.55 1489.39,976.61 1472.2,1051.8 " fill="none" id="Truck-backto-TruckDriver" style="stroke:#A80036;stroke-width:1.0;"/><polygon fill="#A80036" points="1379.27,574.02,1384.1582,582.5701,1383.3007,576.9787,1388.8921,576.1211,1379.27,574.02" style="stroke:#A80036;stroke-width:1.0;"/><text fill="#000000" font-family="sans-serif" font-size="13" lengthAdjust="spacing" textLength="39" x="1494" y="756.5669">drives</text><text fill="#000000" font-family="sans-serif" font-size="13" lengthAdjust="spacing" textLength="23" x="1363.6476" y="593.9624">1..*</text><text fill="#000000" font-family="sans-serif" font-size="13" lengthAdjust="spacing" textLength="8" x="1465.1263" y="1040.9513">1</text><!--MD5=[a3eba1ecc34950f036b9c8cfe948b3c2]
reverse link Container to Port--><path codeLine="124" d="M151.891,347.77 C86.0404,388.4 6,455.64 6,542.5 C6,542.5 6,542.5 6,1194 C6,1294.762 116.062,1372.651 174.103,1406.719 " fill="none" id="Container-backto-Port" style="stroke:#A80036;stroke-width:1.0;"/><polygon fill="#A80036" points="156.207,345.14,146.441,346.4146,151.9392,347.7449,150.6089,353.2431,156.207,345.14" style="stroke:#A80036;stroke-width:1.0;"/><text fill="#000000" font-family="sans-serif" font-size="13" lengthAdjust="spacing" textLength="40" x="7" y="860.5669">stores</text><text fill="#000000" font-family="sans-serif" font-size="13" lengthAdjust="spacing" textLength="23" x="125.564" y="345.0962">1..*</text><text fill="#000000" font-family="sans-serif" font-size="13" lengthAdjust="spacing" textLength="8" x="158.4452" y="1398.4449">1</text><!--MD5=[223d3f244a65e5d28aee5f244b5da07d]
reverse link Container to Warehouse--><path codeLine="125" d="M322.755,315.66 C375.95,327.75 440.523,352.29 475,402 C490.554,424.43 489.839,865.73 491,893 C498.256,1063.42 509.572,1264.365 515.344,1363.619 " fill="none" id="Container-backto-Warehouse" style="stroke:#A80036;stroke-width:1.0;"/><polygon fill="#A80036" points="317.644,314.53,325.5685,320.3783,322.5261,315.6092,327.2952,312.5669,317.644,314.53" style="stroke:#A80036;stroke-width:1.0;"/><text fill="#000000" font-family="sans-serif" font-size="13" lengthAdjust="spacing" textLength="40" x="492" y="860.5669">stores</text><text fill="#000000" font-family="sans-serif" font-size="13" lengthAdjust="spacing" textLength="23" x="325.5626" y="311.9647">1..*</text><text fill="#000000" font-family="sans-serif" font-size="13" lengthAdjust="spacing" textLength="8" x="506.5066" y="1353.0046">1</text><!--MD5=[16b878583ae99d1efc93749e3a15d9a8]
reverse link Container to Ship--><path codeLine="126" d="M322.374,332.66 C379.321,351.92 455.79,378.06 523,402 C623.053,437.63 737.283,480.11 814.155,508.96 " fill="none" id="Container-backto-Ship" style="stroke:#A80036;stroke-width:1.0;"/><polygon fill="#A80036" points="317.618,331.05,324.8654,337.719,322.3552,332.6495,327.4247,330.1394,317.618,331.05" style="stroke:#A80036;stroke-width:1.0;"/><text fill="#000000" font-family="sans-serif" font-size="13" lengthAdjust="spacing" textLength="66" x="566" y="415.0669">transports</text><text fill="#000000" font-family="sans-serif" font-size="13" lengthAdjust="spacing" textLength="23" x="325.5344" y="329.9044">1..*</text><text fill="#000000" font-family="sans-serif" font-size="13" lengthAdjust="spacing" textLength="8" x="798.4663" y="502.5571">1</text><!--MD5=[63e4261eef89cabef44e8e26106a8ffd]
link Ship to ShipCrew--><path codeLine="127" d="M814.416,581.45 C769.302,602.8 715.219,632.47 673,668 C654.152,683.86 637.156,705.99 625.274,723.41 " fill="none" id="Ship-to-ShipCrew" style="stroke:#A80036;stroke-width:1.0;"/><polygon fill="#A80036" points="622.365,727.73,630.7154,722.5079,625.1622,723.5856,624.0844,718.0324,622.365,727.73" style="stroke:#A80036;stroke-width:1.0;"/><text fill="#000000" font-family="sans-serif" font-size="13" lengthAdjust="spacing" textLength="23" x="674" y="681.0669">has</text><text fill="#000000" font-family="sans-serif" font-size="13" lengthAdjust="spacing" textLength="8" x="798.4596" y="581.1458">1</text><text fill="#000000" font-family="sans-serif" font-size="13" lengthAdjust="spacing" textLength="8" x="616.8915" y="717.0691">1</text><!--MD5=[21919a410a9a14757f3a9c96e1e8fb1f]
reverse link Container to Truck--><path codeLine="128" d="M322.55,321.49 C437.198,344.74 647.106,386.65 827,419 C907.686,433.51 929.042,430.9 1009,449 C1099.39,469.46 1201.88,500.5 1266.71,521.13 " fill="none" id="Container-backto-Truck" style="stroke:#A80036;stroke-width:1.0;"/><polygon fill="#A80036" points="317.501,320.46,325.5258,326.1699,322.4011,321.4543,327.1167,318.3297,317.501,320.46" style="stroke:#A80036;stroke-width:1.0;"/><text fill="#000000" font-family="sans-serif" font-size="13" lengthAdjust="spacing" textLength="66" x="828" y="415.0669">transports</text><text fill="#000000" font-family="sans-serif" font-size="13" lengthAdjust="spacing" textLength="20" x="325.5612" y="334.7722">1...</text><text fill="#000000" font-family="sans-serif" font-size="13" lengthAdjust="spacing" textLength="8" x="1251.1314" y="514.9478">1</text><!--MD5=[7d93acbb5fcece1762f5a269123d71d1]
reverse link Container to CargoManifest--><path codeLine="129" d="M169.574,376.11 C163.466,384.5 157.789,393.21 153,402 C94.0194,510.31 91.7401,545.96 74,668 C60.4057,761.52 110.844,864.25 146.481,923 " fill="none" id="Container-backto-CargoManifest" style="stroke:#A80036;stroke-width:1.0;"/><polygon fill="#A80036" points="172.606,372.02,164.0269,376.8573,169.6234,376.033,170.4477,381.6295,172.606,372.02" style="stroke:#A80036;stroke-width:1.0;"/><text fill="#000000" font-family="sans-serif" font-size="13" lengthAdjust="spacing" textLength="60" x="75" y="681.0669">to unload</text><text fill="#000000" font-family="sans-serif" font-size="13" lengthAdjust="spacing" textLength="23" x="142.1352" y="391.6439">0..*</text><text fill="#000000" font-family="sans-serif" font-size="13" lengthAdjust="spacing" textLength="8" x="133.3455" y="912.0452">1</text><!--MD5=[a93f71c337684849482b0ec5675aa7db]
link CargoManifest to Container--><path codeLine="142" d="M181.026,922.76 C185.167,830.21 195.865,622.76 215,449 C217.578,425.59 221.166,400.16 224.696,377.24 " fill="none" id="CargoManifest-to-Container" style="stroke:#A80036;stroke-width:1.0;"/><polygon fill="#A80036" points="225.496,372.08,220.1553,380.3551,224.7246,377.0201,228.0595,381.5894,225.496,372.08" style="stroke:#A80036;stroke-width:1.0;"/><text fill="#000000" font-family="sans-serif" font-size="13" lengthAdjust="spacing" textLength="44" x="197" y="681.0669">to load</text><text fill="#000000" font-family="sans-serif" font-size="13" lengthAdjust="spacing" textLength="8" x="172.7484" y="911.7715">1</text><text fill="#000000" font-family="sans-serif" font-size="13" lengthAdjust="spacing" textLength="8" x="215.9698" y="391.7098">1</text><!--MD5=[74246699266b811cd90ad4e630bec26c]
reverse link ShipDynamic to Route--><path codeLine="130" d="M903,162.27 C903,200.55 903,244.19 903,272.37 " fill="none" id="ShipDynamic-backto-Route" style="stroke:#A80036;stroke-width:1.0;"/><polygon fill="#A80036" points="903,157.14,899,166.14,903,162.14,907,166.14,903,157.14" style="stroke:#A80036;stroke-width:1.0;"/><text fill="#000000" font-family="sans-serif" font-size="13" lengthAdjust="spacing" textLength="54" x="904" y="200.0669">contains</text><text fill="#000000" font-family="sans-serif" font-size="13" lengthAdjust="spacing" textLength="23" x="878.8141" y="177.7134">1..*</text><text fill="#000000" font-family="sans-serif" font-size="13" lengthAdjust="spacing" textLength="8" x="894.175" y="261.6064">1</text><!--MD5=[f2abd9a938b72dbf3c52eff8480df845]
reverse link Route to Ship--><path codeLine="131" d="M903,338.96 C903,367.86 903,410.29 903,448.94 " fill="none" id="Route-backto-Ship" style="stroke:#A80036;stroke-width:1.0;"/><polygon fill="#A80036" points="903,333.72,899,342.72,903,338.72,907,342.72,903,333.72" style="stroke:#A80036;stroke-width:1.0;"/><text fill="#000000" font-family="sans-serif" font-size="13" lengthAdjust="spacing" textLength="23" x="904" y="415.0669">has</text><text fill="#000000" font-family="sans-serif" font-size="13" lengthAdjust="spacing" textLength="23" x="877.7359" y="353.3438">1..*</text><text fill="#000000" font-family="sans-serif" font-size="13" lengthAdjust="spacing" textLength="8" x="894.6813" y="437.8852">1</text><!--MD5=[15cd80b61c9b6638ebc51d3f2861195f]
reverse link CompanyRoles to CompanyPersonnel--><path codeLine="132" d="M871,1853.548 C871,1875.619 871,1902.689 871,1924.85 " fill="none" id="CompanyRoles-backto-CompanyPersonnel" style="stroke:#A80036;stroke-width:1.0;"/><polygon fill="#A80036" points="871,1848.341,867,1857.341,871,1853.341,875,1857.341,871,1848.341" style="stroke:#A80036;stroke-width:1.0;"/><text fill="#000000" font-family="sans-serif" font-size="13" lengthAdjust="spacing" textLength="23" x="872" y="1891.0669">has</text><text fill="#000000" font-family="sans-serif" font-size="13" lengthAdjust="spacing" textLength="8" x="862.3625" y="1867.5961">1</text><text fill="#000000" font-family="sans-serif" font-size="13" lengthAdjust="spacing" textLength="8" x="862.3625" y="1913.8221">1</text><!--MD5=[392f18b3638accf0606f308268da0218]
reverse link CompanyPersonnel to Company--><path codeLine="133" d="M871,2016.411 C871,2039.902 871,2067.5343 871,2087.967 " fill="none" id="CompanyPersonnel-backto-Company" style="stroke:#A80036;stroke-width:1.0;"/><polygon fill="#A80036" points="871,2011.157,867,2020.157,871,2016.157,875,2020.157,871,2011.157" style="stroke:#A80036;stroke-width:1.0;"/><text fill="#000000" font-family="sans-serif" font-size="13" lengthAdjust="spacing" textLength="55" x="872" y="2054.0669">employs</text><text fill="#000000" font-family="sans-serif" font-size="13" lengthAdjust="spacing" textLength="20" x="849.3438" y="2031.5907">1...</text><!--MD5=[6888a6765306ec37f3a6b0a143583885]
reverse link Container to Client--><path codeLine="134" d="M234.514,377.2 C234.303,385.56 234.123,393.97 234,402 C233.884,409.55 233.073,411.5 234,419 C237.701,448.95 246.269,482.07 253.461,506.47 " fill="none" id="Container-backto-Client" style="stroke:#A80036;stroke-width:1.0;"/><polygon fill="#A80036" points="234.649,372,230.3935,380.8821,234.5062,376.998,238.3903,381.1106,234.649,372" style="stroke:#A80036;stroke-width:1.0;"/><text fill="#000000" font-family="sans-serif" font-size="13" lengthAdjust="spacing" textLength="235" x="235" y="415.0669">wants to use to transport something</text><text fill="#000000" font-family="sans-serif" font-size="13" lengthAdjust="spacing" textLength="27" x="235.7465" y="391.622">1...*</text><!--MD5=[f279a11a3952d99299cda76e5d600249]
reverse link PortManager to CompanyRoles--><path codeLine="135" d="M540.991,1693.852 C571.59,1710.328 610.135,1729.752 646,1744 C700.289,1765.568 764.413,1783.694 810.288,1795.46 " fill="none" id="PortManager-backto-CompanyRoles" style="stroke:#A80036;stroke-width:1.0;"/><polygon fill="#A80036" points="536.535,1691.444,542.5509,1699.242,540.9337,1693.8212,546.3545,1692.204,536.535,1691.444" style="stroke:#A80036;stroke-width:1.0;"/><text fill="#000000" font-family="sans-serif" font-size="13" lengthAdjust="spacing" textLength="43" x="647" y="1740.0669">can be</text><text fill="#000000" font-family="sans-serif" font-size="13" lengthAdjust="spacing" textLength="8" x="544.6259" y="1691.9148">1</text><text fill="#000000" font-family="sans-serif" font-size="13" lengthAdjust="spacing" textLength="8" x="794.4012" y="1806.5789">1</text><!--MD5=[9c4302aea153db91556bdc2cf7037f02]
reverse link TrafficManager to CompanyRoles--><path codeLine="136" d="M1090.86,793 C1124.29,834.52 1169,902.9 1169,971.5 C1169,971.5 1169,971.5 1169,1661 C1169,1766.129 1018.79,1797.086 931.664,1806.199 " fill="none" id="TrafficManager-backto-CompanyRoles" style="stroke:#A80036;stroke-width:1.0;"/><polygon fill="#A80036" points="1087.67,789.06,1090.2409,798.5674,1090.823,792.9406,1096.4498,793.5227,1087.67,789.06" style="stroke:#A80036;stroke-width:1.0;"/><text fill="#000000" font-family="sans-serif" font-size="13" lengthAdjust="spacing" textLength="43" x="1170" y="1301.5669">can be</text><text fill="#000000" font-family="sans-serif" font-size="13" lengthAdjust="spacing" textLength="8" x="1084.4185" y="808.5505">1</text><text fill="#000000" font-family="sans-serif" font-size="13" lengthAdjust="spacing" textLength="8" x="939.5449" y="1818.6267">1</text><!--MD5=[91a2164afd94b3dcf3695449ddb88549]
reverse link OperationsTeam to CompanyRoles--><path codeLine="137" d="M168.536,1222.073 C150.094,1276.276 117.325,1398.018 157,1489 C184.152,1551.266 216.549,1549.835 269,1593 C329.68,1642.937 340.754,1663.837 412,1697 C490.865,1733.71 517.536,1723.191 602,1744 C673.553,1761.628 755.837,1781.802 810.363,1795.157 " fill="none" id="OperationsTeam-backto-CompanyRoles" style="stroke:#A80036;stroke-width:1.0;"/><polygon fill="#A80036" points="170.274,1217.041,163.5567,1224.2436,168.6428,1221.7674,171.119,1226.8535,170.274,1217.041" style="stroke:#A80036;stroke-width:1.0;"/><text fill="#000000" font-family="sans-serif" font-size="13" lengthAdjust="spacing" textLength="43" x="270" y="1560.5669">can be</text><text fill="#000000" font-family="sans-serif" font-size="13" lengthAdjust="spacing" textLength="8" x="169.063" y="1237.2073">1</text><text fill="#000000" font-family="sans-serif" font-size="13" lengthAdjust="spacing" textLength="8" x="794.4854" y="1789.4109">1</text><!--MD5=[d6ac0d034b2a858d1683b11ae4a7cd4e]
reverse link FleetManager to CompanyRoles--><path codeLine="138" d="M1251.86,898.21 C1252.74,944.41 1254,1021.58 1254,1088 C1254,1088 1254,1088 1254,1661 C1254,1706.259 1232.93,1719.315 1195,1744 C1114.53,1796.366 1000.912,1808.479 931.807,1810.584 " fill="none" id="FleetManager-backto-CompanyRoles" style="stroke:#A80036;stroke-width:1.0;"/><polygon fill="#A80036" points="1251.76,893.01,1247.9408,902.0882,1251.86,898.009,1255.9392,901.9282,1251.76,893.01" style="stroke:#A80036;stroke-width:1.0;"/><text fill="#000000" font-family="sans-serif" font-size="13" lengthAdjust="spacing" textLength="43" x="1255" y="1301.5669">can be</text><text fill="#000000" font-family="sans-serif" font-size="13" lengthAdjust="spacing" textLength="8" x="1243.2031" y="912.772">1</text><text fill="#000000" font-family="sans-serif" font-size="13" lengthAdjust="spacing" textLength="8" x="939.3003" y="1806.7659">1</text><!--MD5=[a03d39bb4a8b43bb7859f334857db563]
reverse link WarehouseManager to CompanyRoles--><path codeLine="139" d="M676.716,1701.356 C687.005,1716.258 700.119,1732.338 715,1744 C743.122,1766.04 779.69,1782.026 810.352,1792.74 " fill="none" id="WarehouseManager-backto-CompanyRoles" style="stroke:#A80036;stroke-width:1.0;"/><polygon fill="#A80036" points="673.89,1697.189,675.6294,1706.883,676.6957,1701.3276,682.2512,1702.3939,673.89,1697.189" style="stroke:#A80036;stroke-width:1.0;"/><text fill="#000000" font-family="sans-serif" font-size="13" lengthAdjust="spacing" textLength="43" x="716" y="1740.0669">can be</text><text fill="#000000" font-family="sans-serif" font-size="13" lengthAdjust="spacing" textLength="8" x="668.6874" y="1716.7009">1</text><text fill="#000000" font-family="sans-serif" font-size="13" lengthAdjust="spacing" textLength="8" x="794.473" y="1803.5274">1</text><!--MD5=[52fd510a94659586e89028a966c21948]
reverse link WarehouseStaff to CompanyRoles--><path codeLine="140" d="M675.934,1221.346 C720.986,1239.254 771.588,1259.454 772,1260 C861.561,1378.79 776.97,1447.09 806,1593 C818.892,1657.8 842.857,1731.004 857.809,1773.675 " fill="none" id="WarehouseStaff-backto-CompanyRoles" style="stroke:#A80036;stroke-width:1.0;"/><polygon fill="#A80036" points="671.034,1219.399,677.9201,1226.4405,675.6804,1221.2459,680.875,1219.0062,671.034,1219.399" style="stroke:#A80036;stroke-width:1.0;"/><text fill="#000000" font-family="sans-serif" font-size="13" lengthAdjust="spacing" textLength="43" x="807" y="1560.5669">can be</text><text fill="#000000" font-family="sans-serif" font-size="13" lengthAdjust="spacing" textLength="8" x="678.9004" y="1218.6814">1</text><text fill="#000000" font-family="sans-serif" font-size="13" lengthAdjust="spacing" textLength="8" x="846.7469" y="1762.8041">1</text><!--MD5=[6f6a4a852e9fd3e04fc947a118c1c5c9]
link ShipCrew to CargoManifest--><path codeLine="141" d="M603.547,776.05 C596.22,807.5 578.519,863.34 541,893 C495.946,928.62 337.525,952.75 245.874,964.08 " fill="none" id="ShipCrew-to-CargoManifest" style="stroke:#A80036;stroke-width:1.0;"/><polygon fill="#A80036" points="240.749,964.71,250.1702,967.5809,245.7116,964.0993,249.1931,959.6407,240.749,964.71" style="stroke:#A80036;stroke-width:1.0;"/><text fill="#000000" font-family="sans-serif" font-size="13" lengthAdjust="spacing" textLength="47" x="591" y="860.5669">receive</text><text fill="#000000" font-family="sans-serif" font-size="13" lengthAdjust="spacing" textLength="8" x="593.3809" y="796.2186">1</text><text fill="#000000" font-family="sans-serif" font-size="13" lengthAdjust="spacing" textLength="8" x="248.3512" y="960.004">1</text><!--MD5=[024248e0da6b60dce31bae0d2d0e7d5f]
reverse link OperationsTeam to Warehouse--><path codeLine="143" d="M250.206,1200.033 C298.128,1207.397 360.15,1223.741 403,1260 C430.92,1283.625 418.785,1303.52 439,1334 C447.63,1347.013 457.956,1360.148 468.275,1372.248 " fill="none" id="OperationsTeam-backto-Warehouse" style="stroke:#A80036;stroke-width:1.0;"/><polygon fill="#A80036" points="245.026,1199.263,253.3395,1204.5437,249.9716,1199.9987,254.5166,1196.6308,245.026,1199.263" style="stroke:#A80036;stroke-width:1.0;"/><text fill="#000000" font-family="sans-serif" font-size="13" lengthAdjust="spacing" textLength="23" x="440" y="1301.5669">has</text><text fill="#000000" font-family="sans-serif" font-size="13" lengthAdjust="spacing" textLength="23" x="253.0209" y="1196.2092">1..*</text><text fill="#000000" font-family="sans-serif" font-size="13" lengthAdjust="spacing" textLength="8" x="452.5793" y="1360.6524">1</text><!--MD5=[f8757abaa534e3c327af6a60fd686245]
reverse link CargoManifest to OperationsTeam--><path codeLine="144" d="M179,1027.43 C179,1072.79 179,1135.44 179,1168.842 " fill="none" id="CargoManifest-backto-OperationsTeam" style="stroke:#A80036;stroke-width:1.0;"/><polygon fill="#A80036" points="179,1022.26,175,1031.26,179,1027.26,183,1031.26,179,1022.26" style="stroke:#A80036;stroke-width:1.0;"/><text fill="#000000" font-family="sans-serif" font-size="13" lengthAdjust="spacing" textLength="212" x="180" y="1093.5669">receive cargo manifest to unload</text><text fill="#000000" font-family="sans-serif" font-size="13" lengthAdjust="spacing" textLength="23" x="154.3828" y="1042.373">1..*</text><text fill="#000000" font-family="sans-serif" font-size="13" lengthAdjust="spacing" textLength="8" x="169.975" y="1157.8135">1</text><!--MD5=[a095eaa0bb3c12677417a02018c1fb02]
reverse link ShipCaptain to CompanyRoles--><path codeLine="145" d="M865.223,1339.361 C861.737,1396.423 856.5,1502.511 859,1593 C860.761,1656.741 865.427,1730.894 868.394,1773.933 " fill="none" id="ShipCaptain-backto-CompanyRoles" style="stroke:#A80036;stroke-width:1.0;"/><polygon fill="#A80036" points="865.533,1334.33,860.9853,1343.066,865.2245,1339.3205,868.9701,1343.5597,865.533,1334.33" style="stroke:#A80036;stroke-width:1.0;"/><text fill="#000000" font-family="sans-serif" font-size="13" lengthAdjust="spacing" textLength="43" x="860" y="1560.5669">can be</text><text fill="#000000" font-family="sans-serif" font-size="13" lengthAdjust="spacing" textLength="8" x="856.5023" y="1353.5834">1</text><text fill="#000000" font-family="sans-serif" font-size="13" lengthAdjust="spacing" textLength="8" x="859.176" y="1762.8311">1</text><!--MD5=[b1a00038ed06da14cd6157e84c4475c2]
reverse link ShipChiefElectricalEngineer to CompanyRoles--><path codeLine="146" d="M995.269,1597.568 C966.785,1646.259 919.457,1727.165 892.165,1773.819 " fill="none" id="ShipChiefElectricalEngineer-backto-CompanyRoles" style="stroke:#A80036;stroke-width:1.0;"/><polygon fill="#A80036" points="997.795,1593.249,989.7983,1598.9982,995.2706,1597.5649,996.7038,1603.0372,997.795,1593.249" style="stroke:#A80036;stroke-width:1.0;"/><text fill="#000000" font-family="sans-serif" font-size="13" lengthAdjust="spacing" textLength="43" x="980" y="1664.5669">can be</text><text fill="#000000" font-family="sans-serif" font-size="13" lengthAdjust="spacing" textLength="8" x="985.6204" y="1612.7708">1</text><text fill="#000000" font-family="sans-serif" font-size="13" lengthAdjust="spacing" textLength="8" x="887.2225" y="1762.9737">1</text><!--MD5=[e3ac51b33fa6d214e3d06ed17e153f93]
reverse link TruckDriver to CompanyRoles--><path codeLine="147" d="M1450.24,1130.96 C1438.53,1172.212 1423,1237.885 1423,1296 C1423,1296 1423,1296 1423,1661 C1423,1761.876 1075.05,1796.494 931.653,1806.477 " fill="none" id="TruckDriver-backto-CompanyRoles" style="stroke:#A80036;stroke-width:1.0;"/><polygon fill="#A80036" points="1451.64,1126.06,1445.3273,1133.6198,1450.2702,1130.8687,1453.0213,1135.8115,1451.64,1126.06" style="stroke:#A80036;stroke-width:1.0;"/><text fill="#000000" font-family="sans-serif" font-size="13" lengthAdjust="spacing" textLength="43" x="1424" y="1431.0669">can be</text><text fill="#000000" font-family="sans-serif" font-size="13" lengthAdjust="spacing" textLength="8" x="1441.096" y="1145.5505">1</text><text fill="#000000" font-family="sans-serif" font-size="13" lengthAdjust="spacing" textLength="8" x="939.5326" y="1802.1105">1</text><!--MD5=[e1d18fed5261703845c4939b2ae2be93]
@startuml
class Company
skinparam classAttributeIconSize 0
Company : -designation
Class Warehouse{
-warehouseID
-name
-continent
-country
-latitude
-longitude
}
Class ShipCrew{
}
Class OperationsTeam{
}
Class Port{
-PortID
-name
-continent
-country
-latitude
-longitude
}
Class Route{
-routeID
}
Class Container{
-containerID
-payload
-tare
-gross
-ISOCode
-length
-refrigerationTemperature
}
class CargoManifest{
-typeCargoManifest
-containerID
-containerPos
-containerGross
}
class Ship {
-MMSI
-name
-IMOIDnumber
-numberOfEnergyGenerators
-generatorPowerOutput
-callSign
-vesselTypeCode
-width
-length
-capacity
-draft
}
class ShipDynamic{
-baseDateTime
-latitude
-longitude
-SOG
-COG
-heading
-position
-transceiverClass
}
class CompanyPersonnel{
-name
-userID
-dateOfBirth
}
class CompanyRoles{
-roleID
-roleDescription
}
class Truck{
-licensePlateNumber
}
class Client {
-clientID
-name
}
class FleetManager{
-userID
-name
}
class TrafficManager{
-userID
-name
}
class WarehouseStaff{
-userID
-name
}
class WarehouseManager{
-userID
-name
}
class PortManager{
-userID
-name
}
class ShipCaptain{
-userID
-name
}
class ShipChiefElectricalEngineer{
-userID
-name
}
class TruckDriver{
-userID
-name

}
Ship "1..*" <- - "1" FleetManager : controls a group of
Ship "1..*" <- - "1" TrafficManager : controls the position of
Truck "1..*" <- - "1" TrafficManager : controls the position of
WarehouseStaff "1..*" <- - "1" Warehouse : has cargo unloaded and loaded by
Warehouse "1..*" <- - "1" WarehouseManager : manages a list of 
OperationsTeam "1..*" <- - "1" Port : has cargo unloaded and loaded by
Port "1...*" <- - "1" PortManager : manages a list of 
Ship "1"<- - "1" ShipCaptain : oversees the operations of
Ship "1"<- - "1" ShipChiefElectricalEngineer : oversees the electrical part of
Truck "1..*" <- - "1" TruckDriver: drives
Container "1..*" <- - "1" Port : stores
Container "1..*" <- - "1" Warehouse : stores
Container "1..*" <- - "1" Ship : transports
Ship "1" - -> "1" ShipCrew : has
Container "1..." <- - "1" Truck : transports
Container "0..*" <- - "1" CargoManifest : to unload
ShipDynamic "1..*" <- - "1" Route: contains
Route "1..*" <- - "1" Ship : has
CompanyRoles "1" <- - "1" CompanyPersonnel : has
CompanyPersonnel "1..." <- - Company : employs
Container "1...*" <- - Client : wants to use to transport something
PortManager "1" <- - "1" CompanyRoles : can be 
TrafficManager "1" <- - "1" CompanyRoles : can be
OperationsTeam "1" <- - "1" CompanyRoles : can be
FleetManager "1" <- - "1" CompanyRoles : can be
WarehouseManager "1" <- - "1" CompanyRoles : can be
WarehouseStaff "1" <- - "1" CompanyRoles : can be
ShipCrew "1" - -> "1" CargoManifest : receive
CargoManifest "1" - -> "1" Container: to load
OperationsTeam "1..*" <- - "1" Warehouse : has
CargoManifest "1..*" <- - "1" OperationsTeam : receive cargo manifest to unload
ShipCaptain "1" <- - "1" CompanyRoles : can be
ShipChiefElectricalEngineer "1" <- - "1" CompanyRoles : can be
TruckDriver "1" <- - "1" CompanyRoles : can be
@enduml

PlantUML version 1.2021.13beta8(Unknown compile time)
(GPL source distribution)
Java Runtime: Java(TM) SE Runtime Environment
JVM: Java HotSpot(TM) 64-Bit Server VM
Default Encoding: UTF-8
Language: en
Country: US
--></g></svg>