<?xml version="1.0" encoding="UTF-8" standalone="no"?><svg xmlns="http://www.w3.org/2000/svg" xmlns:xlink="http://www.w3.org/1999/xlink" contentScriptType="application/ecmascript" contentStyleType="text/css" height="4478px" preserveAspectRatio="none" style="width:1690px;height:4478px;background:#FFFFFF;" version="1.1" viewBox="0 0 1690 4478" width="1690px" zoomAndPan="magnify"><defs><filter height="300%" id="fhne1tnvj2ee1" width="300%" x="-1" y="-1"><feGaussianBlur result="blurOut" stdDeviation="2.0"/><feColorMatrix in="blurOut" result="blurOut2" type="matrix" values="0 0 0 0 0 0 0 0 0 0 0 0 0 0 0 0 0 0 .4 0"/><feOffset dx="4.0" dy="4.0" in="blurOut2" result="blurOut3"/><feBlend in="SourceGraphic" in2="blurOut3" mode="normal"/></filter></defs><g><!--MD5=[566a1df68487c1fb1cc09ccf1a09a80e]
entity TrafficManager--><ellipse cx="62.5" cy="3391" fill="#FEFECE" filter="url(#fhne1tnvj2ee1)" rx="8" ry="8" style="stroke:#A80036;stroke-width:1.5;"/><path d="M62.5,3399 L62.5,3426 M49.5,3407 L75.5,3407 M62.5,3426 L49.5,3441 M62.5,3426 L75.5,3441 " fill="none" filter="url(#fhne1tnvj2ee1)" style="stroke:#A80036;stroke-width:1.5;"/><text fill="#000000" font-family="sans-serif" font-size="14" lengthAdjust="spacing" textLength="108" x="8.5" y="3459.4951">TrafficManager</text><ellipse cx="928.5118" cy="2893.9024" fill="#FEFECE" filter="url(#fhne1tnvj2ee1)" rx="95.0118" ry="21.4024" style="stroke:#A80036;stroke-width:1.5;"/><text fill="#000000" font-family="sans-serif" font-size="14" lengthAdjust="spacing" textLength="153" x="852.0118" y="2896.749">UC101 - Import Ships</text><ellipse cx="928.6004" cy="2981.8201" fill="#FEFECE" filter="url(#fhne1tnvj2ee1)" rx="142.1004" ry="30.8201" style="stroke:#A80036;stroke-width:1.5;"/><text fill="#000000" font-family="sans-serif" font-size="14" lengthAdjust="spacing" textLength="254" x="801.6004" y="2984.6668">UC102 - Search the details of a ship</text><ellipse cx="928.4395" cy="3119.7879" fill="#FEFECE" filter="url(#fhne1tnvj2ee1)" rx="344.4395" ry="71.2879" style="stroke:#A80036;stroke-width:1.5;"/><text fill="#000000" font-family="sans-serif" font-size="14" lengthAdjust="spacing" textLength="666" x="595.4395" y="3122.6346">UC103 - The positional messages temporally organized and associated with each of the ships</text><ellipse cx="928.5781" cy="3266.2156" fill="#FEFECE" filter="url(#fhne1tnvj2ee1)" rx="186.5781" ry="39.7156" style="stroke:#A80036;stroke-width:1.5;"/><text fill="#000000" font-family="sans-serif" font-size="14" lengthAdjust="spacing" textLength="346" x="755.5781" y="3269.0623">UC104 - Make a Summary of a ship's movements</text><ellipse cx="928.6332" cy="3422.0266" fill="#FEFECE" filter="url(#fhne1tnvj2ee1)" rx="393.1332" ry="81.0266" style="stroke:#A80036;stroke-width:1.5;"/><text fill="#000000" font-family="sans-serif" font-size="14" lengthAdjust="spacing" textLength="764" x="546.6332" y="3424.8733">UC105 - List for all ships the MMSI, the total number of movements, Travelled Distance and Delta Distance</text><ellipse cx="928.6125" cy="3690.8225" fill="#FEFECE" filter="url(#fhne1tnvj2ee1)" rx="749.6125" ry="152.3225" style="stroke:#A80036;stroke-width:1.5;"/><text fill="#000000" font-family="sans-serif" font-size="14" lengthAdjust="spacing" textLength="1479" x="189.1125" y="3693.6692">UC106 - Get the top-N ships with the most kilometres travelled and their average speed   Develop the data model required to support all the functionality and to fulfill the purpose of the system to develop</text><ellipse cx="928.4104" cy="3969.0821" fill="#FEFECE" filter="url(#fhne1tnvj2ee1)" rx="438.4104" ry="90.0821" style="stroke:#A80036;stroke-width:1.5;"/><text fill="#000000" font-family="sans-serif" font-size="14" lengthAdjust="spacing" textLength="855" x="500.9104" y="3971.9288">UC107 - return pairs of ships with routes with close departure/arrival coordinates and with different Travelled Distance.</text><!--MD5=[6b2f5237cae1b4e15095fa1a3575dda3]
entity ProjectManager--><ellipse cx="62.5" cy="2126" fill="#FEFECE" filter="url(#fhne1tnvj2ee1)" rx="8" ry="8" style="stroke:#A80036;stroke-width:1.5;"/><path d="M62.5,2134 L62.5,2161 M49.5,2142 L75.5,2142 M62.5,2161 L49.5,2176 M62.5,2161 L75.5,2176 " fill="none" filter="url(#fhne1tnvj2ee1)" style="stroke:#A80036;stroke-width:1.5;"/><text fill="#000000" font-family="sans-serif" font-size="14" lengthAdjust="spacing" textLength="113" x="6" y="2194.4951">ProjectManager</text><ellipse cx="928.3305" cy="1619.8661" fill="#FEFECE" filter="url(#fhne1tnvj2ee1)" rx="457.3305" ry="93.8661" style="stroke:#A80036;stroke-width:1.5;"/><text fill="#000000" font-family="sans-serif" font-size="14" lengthAdjust="spacing" textLength="893" x="481.8305" y="1622.7128">UC108 - develop the data model required to support all the functionality and to fulfill the purpose of the system to develop.</text><ellipse cx="928.6949" cy="1891.039" fill="#FEFECE" filter="url(#fhne1tnvj2ee1)" rx="698.1949" ry="142.039" style="stroke:#A80036;stroke-width:1.5;"/><text fill="#000000" font-family="sans-serif" font-size="14" lengthAdjust="spacing" textLength="1376" x="240.6949" y="1893.8857">UC109 - draft an SQL script to test whether the database verifies all the data integrity restrictions that are required to fulfil the purpose of the system and the business constraints of the UoD</text><ellipse cx="928.4461" cy="2156.9892" fill="#FEFECE" filter="url(#fhne1tnvj2ee1)" rx="430.4461" ry="88.4892" style="stroke:#A80036;stroke-width:1.5;"/><text fill="#000000" font-family="sans-serif" font-size="14" lengthAdjust="spacing" textLength="839" x="508.9461" y="2159.8359">UC110 - the team to define the naming conventions to apply when defining identifiers or writing SQL or PL/SQL code</text><ellipse cx="928.5505" cy="2391.2101" fill="#FEFECE" filter="url(#fhne1tnvj2ee1)" rx="539.0505" ry="110.2101" style="stroke:#A80036;stroke-width:1.5;"/><text fill="#000000" font-family="sans-serif" font-size="14" lengthAdjust="spacing" textLength="1057" x="400.0505" y="2394.0568">UC111 - create a SQL script to load the database with a minimum set of data sufficient to carry out data integrity verification and functionaltesting</text><!--MD5=[76e0c04a1766b72b0994a1178be1f4e5]
entity PortManager--><ellipse cx="62.5" cy="1378" fill="#FEFECE" filter="url(#fhne1tnvj2ee1)" rx="8" ry="8" style="stroke:#A80036;stroke-width:1.5;"/><path d="M62.5,1386 L62.5,1413 M49.5,1394 L75.5,1394 M62.5,1413 L49.5,1428 M62.5,1413 L75.5,1428 " fill="none" filter="url(#fhne1tnvj2ee1)" style="stroke:#A80036;stroke-width:1.5;"/><text fill="#000000" font-family="sans-serif" font-size="14" lengthAdjust="spacing" textLength="92" x="16.5" y="1446.4951">PortManager</text><ellipse cx="928.6169" cy="1409.1234" fill="#FEFECE" filter="url(#fhne1tnvj2ee1)" rx="396.1169" ry="81.6234" style="stroke:#A80036;stroke-width:1.5;"/><text fill="#000000" font-family="sans-serif" font-size="14" lengthAdjust="spacing" textLength="770" x="543.6169" y="1411.9701">UC201 - As a Port manager, I which to import ports from a text file and create a 2D-tree with port locations</text><ellipse cx="928.5568" cy="4177.9114" fill="#FEFECE" filter="url(#fhne1tnvj2ee1)" rx="407.5568" ry="83.9114" style="stroke:#A80036;stroke-width:1.5;"/><text fill="#000000" font-family="sans-serif" font-size="14" lengthAdjust="spacing" textLength="793" x="532.0568" y="4180.758">UC202 - As a Traffic manager, I which to find the closest port of a ship given its CallSign, on a certain DateTime</text><ellipse cx="928.626" cy="2687.0252" fill="#FEFECE" filter="url(#fhne1tnvj2ee1)" rx="740.626" ry="150.5252" style="stroke:#A80036;stroke-width:1.5;"/><text fill="#000000" font-family="sans-serif" font-size="14" lengthAdjust="spacing" textLength="1461" x="198.126" y="2689.8719">UC203 - As a Project Manager, I want the team to review the relational data model in view of the new user stories so it can support all the requirements to fulfil the purpose of the system being developed</text><!--MD5=[0ba5ee7700168656dc1b457c6fe9fdac]
entity Client--><ellipse cx="62.5" cy="1175" fill="#FEFECE" filter="url(#fhne1tnvj2ee1)" rx="8" ry="8" style="stroke:#A80036;stroke-width:1.5;"/><path d="M62.5,1183 L62.5,1210 M49.5,1191 L75.5,1191 M62.5,1210 L49.5,1225 M62.5,1210 L75.5,1225 " fill="none" filter="url(#fhne1tnvj2ee1)" style="stroke:#A80036;stroke-width:1.5;"/><text fill="#000000" font-family="sans-serif" font-size="14" lengthAdjust="spacing" textLength="43" x="41" y="1243.4951">Client</text><ellipse cx="928.5096" cy="1205.8019" fill="#FEFECE" filter="url(#fhne1tnvj2ee1)" rx="417.0096" ry="85.8019" style="stroke:#A80036;stroke-width:1.5;"/><text fill="#000000" font-family="sans-serif" font-size="14" lengthAdjust="spacing" textLength="812" x="522.5096" y="1208.6486">UC204 - As a Client, I want to know the current situation of a specific container being used to transport my goods</text><!--MD5=[0a52bc6ed51ceb008a86f41348bb2385]
entity ShipCaptain--><ellipse cx="62.5" cy="566" fill="#FEFECE" filter="url(#fhne1tnvj2ee1)" rx="8" ry="8" style="stroke:#A80036;stroke-width:1.5;"/><path d="M62.5,574 L62.5,601 M49.5,582 L75.5,582 M62.5,601 L49.5,616 M62.5,601 L75.5,616 " fill="none" filter="url(#fhne1tnvj2ee1)" style="stroke:#A80036;stroke-width:1.5;"/><text fill="#000000" font-family="sans-serif" font-size="14" lengthAdjust="spacing" textLength="88" x="18.5" y="634.4951">ShipCaptain</text><ellipse cx="928.6296" cy="111.0259" fill="#FEFECE" filter="url(#fhne1tnvj2ee1)" rx="513.1296" ry="105.0259" style="stroke:#A80036;stroke-width:1.5;"/><text fill="#000000" font-family="sans-serif" font-size="14" lengthAdjust="spacing" textLength="1005" x="426.1296" y="113.8726">UC205 - As Ship Captain, I want the list of containers to be offloaded in the next port, including container identifier, type, position, and load</text><ellipse cx="928.2834" cy="347.7567" fill="#FEFECE" filter="url(#fhne1tnvj2ee1)" rx="469.2834" ry="96.2567" style="stroke:#A80036;stroke-width:1.5;"/><text fill="#000000" font-family="sans-serif" font-size="14" lengthAdjust="spacing" textLength="917" x="469.7834" y="350.6034">UC206 - As Ship Captain, I want the list of containers to be loaded in the next port, including container identifier, type, and load</text><ellipse cx="928.4491" cy="597.1898" fill="#FEFECE" filter="url(#fhne1tnvj2ee1)" rx="576.4491" ry="117.6898" style="stroke:#A80036;stroke-width:1.5;"/><text fill="#000000" font-family="sans-serif" font-size="14" lengthAdjust="spacing" textLength="1132" x="362.4491" y="600.0365">UC207 - As Ship Captain, I want to know how many cargo manifests I have transported during a given year and the average number of containers per manifest</text><ellipse cx="928.7394" cy="826.8479" fill="#FEFECE" filter="url(#fhne1tnvj2ee1)" rx="374.7394" ry="77.3479" style="stroke:#A80036;stroke-width:1.5;"/><text fill="#000000" font-family="sans-serif" font-size="14" lengthAdjust="spacing" textLength="727" x="565.2394" y="829.6946">UC208 - As Ship Captain, I want to know the occupancy rate of a given ship for a given cargo manifest</text><ellipse cx="928.4043" cy="1011.7809" fill="#FEFECE" filter="url(#fhne1tnvj2ee1)" rx="349.4043" ry="72.2809" style="stroke:#A80036;stroke-width:1.5;"/><text fill="#000000" font-family="sans-serif" font-size="14" lengthAdjust="spacing" textLength="676" x="590.4043" y="1014.6275">UC209 - As Ship Captain, I want to know the occupancy rate of a given ship at a given moment</text><ellipse cx="928.5341" cy="4381.8068" fill="#FEFECE" filter="url(#fhne1tnvj2ee1)" rx="412.0341" ry="84.8068" style="stroke:#A80036;stroke-width:1.5;"/><text fill="#000000" font-family="sans-serif" font-size="14" lengthAdjust="spacing" textLength="802" x="527.5341" y="4384.6535">UC210 - As Traffic manager, I need to know which ships will be available on Monday next week and their location</text><!--MD5=[9b9d34dc385172debf9f34564d90e40c]
link TrafficManager to UC101 - Import Ships--><path d="M67.01,3381.17 C77.0882,3274.5 109.926,2991.7 179,2934 C275.984,2852.99 656.596,2871.87 834.681,2885.71 " fill="none" id="TrafficManager-to-UC101 - Import Ships" style="stroke:#A80036;stroke-width:1.0;"/><polygon fill="#A80036" points="839.89,2886.12,831.2294,2881.4303,834.9052,2885.7301,830.6055,2889.406,839.89,2886.12" style="stroke:#A80036;stroke-width:1.0;"/><!--MD5=[c237a174ad2f3553600a9584840d5d24]
link TrafficManager to UC102 - Search the details of a ship--><path d="M69.5633,3381.42 C84.0227,3290.59 123.509,3075.37 179,3031 C269.673,2958.5 597.112,2963.22 787.538,2972.76 " fill="none" id="TrafficManager-to-UC102 - Search the details of a ship" style="stroke:#A80036;stroke-width:1.0;"/><polygon fill="#A80036" points="792.571,2973.02,783.7852,2968.5693,787.5774,2972.7667,783.3799,2976.559,792.571,2973.02" style="stroke:#A80036;stroke-width:1.0;"/><!--MD5=[8b37bc28ecfe6fc7f5d2e78c7653652d]
link TrafficManager to UC103 - The positional messages temporally organized and associated with each of the ships--><path d="M73.3065,3381.37 C87.5696,3331.81 119.127,3249.62 179,3209 C301.018,3126.21 460.628,3099.06 601.101,3094.61 " fill="none" id="TrafficManager-to-UC103 - The positional messages temporally organized and associated with each of the ships" style="stroke:#A80036;stroke-width:1.0;"/><polygon fill="#A80036" points="606.511,3094.45,597.3958,3090.7199,601.5132,3094.5989,597.6341,3098.7163,606.511,3094.45" style="stroke:#A80036;stroke-width:1.0;"/><!--MD5=[1ffa3d306904e50806f40b03d3f3ccdc]
link TrafficManager to UC104 - Make a Summary of a ship's movements--><path d="M99.1495,3381.36 C120.127,3360.36 148.481,3336.56 179,3324 C363.959,3247.87 596.135,3242.17 752.458,3249.82 " fill="none" id="TrafficManager-to-UC104 - Make a Summary of a ship's movements" style="stroke:#A80036;stroke-width:1.0;"/><polygon fill="#A80036" points="757.524,3250.07,748.735,3245.6256,752.5302,3249.8203,748.3355,3253.6156,757.524,3250.07" style="stroke:#A80036;stroke-width:1.0;"/><!--MD5=[f93f087a2cea94ce7985836714018b06]
link TrafficManager to UC105 - List for all ships the MMSI, the total number of movements, Travelled Distance and Delta Distance--><path d="M116.57,3422 C199.79,3422 368.257,3422 530.183,3422 " fill="none" id="TrafficManager-to-UC105 - List for all ships the MMSI, the total number of movements, Travelled Distance and Delta Distance" style="stroke:#A80036;stroke-width:1.0;"/><polygon fill="#A80036" points="535.455,3422,526.455,3418,530.455,3422,526.455,3426,535.455,3422" style="stroke:#A80036;stroke-width:1.0;"/><!--MD5=[94e868e396c3768cb55eacd9ac62a980]
link TrafficManager to UC106 - Get the top-N ships with the most kilometres travelled and their average speed   Develop the data model required to support all the functionality and to fulfill the purpose of the system to develop--><path d="M101.1326,3462.58 C122.182,3482.98 149.979,3506.405 179,3521 C233.279,3548.298 291.965,3571.264 351.768,3590.577 " fill="none" id="TrafficManager-to-UC106 - Get the top-N ships with the most kilometres travelled and their average speed   Develop the data model required to support all the functionality and to fulfill the purpose of the system to develop" style="stroke:#A80036;stroke-width:1.0;"/><polygon fill="#A80036" points="356.814,3592.197,349.468,3585.6368,352.0534,3590.6682,347.022,3593.2537,356.814,3592.197" style="stroke:#A80036;stroke-width:1.0;"/><!--MD5=[b3bcdb1c929a087ea281158e43785317]
link TrafficManager to UC107 - return pairs of ships with routes with close departure/arrival coordinates and with different Travelled Distance.--><path d="M68.4829,3462.72 C81.3796,3561.097 119.088,3807.554 179,3861 C266.007,3938.616 382.72,3975.379 498.061,3990.293 " fill="none" id="TrafficManager-to-UC107 - return pairs of ships with routes with close departure/arrival coordinates and with different Travelled Distance." style="stroke:#A80036;stroke-width:1.0;"/><polygon fill="#A80036" points="503.204,3990.943,494.7781,3985.8435,498.2437,3990.3146,493.7726,3993.7801,503.204,3990.943" style="stroke:#A80036;stroke-width:1.0;"/><!--MD5=[030eace98535850cf8cb9f9ea96e5922]
link ProjectManager to UC108 - develop the data model required to support all the functionality and to fulfill the purpose of the system to develop.--><path d="M68.8956,2116.17 C82.4586,2020.01 121.084,1783.52 179,1732 C259.454,1660.44 365.1,1623.21 471.566,1605.68 " fill="none" id="ProjectManager-to-UC108 - develop the data model required to support all the functionality and to fulfill the purpose of the system to develop." style="stroke:#A80036;stroke-width:1.0;"/><polygon fill="#A80036" points="476.636,1604.86,467.1121,1602.351,471.7004,1605.6597,468.3916,1610.248,476.636,1604.86" style="stroke:#A80036;stroke-width:1.0;"/><!--MD5=[daf1edd25b717c21cd7de1304ab86b46]
link ProjectManager to UC109 - draft an SQL script to test whether the database verifies all the data integrity restrictions that are required to fulfil the purpose of the system and the business constraints of the UoD--><path d="M97.7859,2116.25 C118.944,2093.69 147.923,2067.04 179,2051 C236.54,2021.3 299.295,1997.1 363.196,1977.4 " fill="none" id="ProjectManager-to-UC109 - draft an SQL script to test whether the database verifies all the data integrity restrictions that are required to fulfil the purpose of the system and the business constraints of the UoD" style="stroke:#A80036;stroke-width:1.0;"/><polygon fill="#A80036" points="368.192,1975.87,358.4145,1974.6865,363.412,1977.3369,360.7616,1982.3344,368.192,1975.87" style="stroke:#A80036;stroke-width:1.0;"/><!--MD5=[bede94432e6b3ff3addcd7dcb5b9369c]
link ProjectManager to UC110 - the team to define the naming conventions to apply when defining identifiers or writing SQL or PL/SQL code--><path d="M119.192,2157 C196.737,2157 344.47,2157 492.65,2157 " fill="none" id="ProjectManager-to-UC110 - the team to define the naming conventions to apply when defining identifiers or writing SQL or PL/SQL code" style="stroke:#A80036;stroke-width:1.0;"/><polygon fill="#A80036" points="497.921,2157,488.921,2153,492.921,2157,488.921,2161,497.921,2157" style="stroke:#A80036;stroke-width:1.0;"/><!--MD5=[8f3bdcd9411f654f9cba2195aec0bd5d]
link ProjectManager to UC111 - create a SQL script to load the database with a minimum set of data sufficient to carry out data integrity verification and functionaltesting--><path d="M97.0542,2197.7 C118.17,2220.54 147.355,2247.48 179,2263 C255.886,2300.71 341.944,2327.52 427.57,2346.54 " fill="none" id="ProjectManager-to-UC111 - create a SQL script to load the database with a minimum set of data sufficient to carry out data integrity verification and functionaltesting" style="stroke:#A80036;stroke-width:1.0;"/><polygon fill="#A80036" points="432.686,2347.67,424.7566,2341.8283,427.803,2346.5949,423.0364,2349.6412,432.686,2347.67" style="stroke:#A80036;stroke-width:1.0;"/><!--MD5=[cadd32aef24782cee381cf261d16d239]
link PortManager to UC201 - As a Port manager, I which to import ports from a text file and create a 2D-tree with port locations--><path d="M108.736,1409 C188.339,1409 360.817,1409 527.036,1409 " fill="none" id="PortManager-to-UC201 - As a Port manager, I which to import ports from a text file and create a 2D-tree with port locations" style="stroke:#A80036;stroke-width:1.0;"/><polygon fill="#A80036" points="532.448,1409,523.448,1405,527.448,1409,523.448,1413,532.448,1409" style="stroke:#A80036;stroke-width:1.0;"/><!--MD5=[96391382b85621ecbf92e2b159121600]
link TrafficManager to UC202 - As a Traffic manager, I which to find the closest port of a ship given its CallSign, on a certain DateTime--><path d="M64.6263,3462.65 C69.0984,3592.145 89.9918,3991.518 179,4077 C277.626,4171.718 420.107,4206.028 554.347,4213.427 " fill="none" id="TrafficManager-to-UC202 - As a Traffic manager, I which to find the closest port of a ship given its CallSign, on a certain DateTime" style="stroke:#A80036;stroke-width:1.0;"/><polygon fill="#A80036" points="559.521,4213.7,550.7437,4209.2324,554.5279,4213.4371,550.3232,4217.2213,559.521,4213.7" style="stroke:#A80036;stroke-width:1.0;"/><!--MD5=[049c0eaeb79023192a39120756f78e33]
link ProjectManager to UC203 - As a Project Manager, I want the team to review the relational data model in view of the new user stories so it can support all the requirements to fulfil the purpose of the system being developed--><path d="M64.0311,2197.53 C67.3226,2272.61 85.5826,2433.47 179,2519 C215.799,2552.69 257.858,2580.12 302.848,2602.4 " fill="none" id="ProjectManager-to-UC203 - As a Project Manager, I want the team to review the relational data model in view of the new user stories so it can support all the requirements to fulfil the purpose of the system being developed" style="stroke:#A80036;stroke-width:1.0;"/><polygon fill="#A80036" points="307.493,2604.68,301.1739,2597.1256,303.0038,2602.4783,297.6512,2604.3083,307.493,2604.68" style="stroke:#A80036;stroke-width:1.0;"/><!--MD5=[0cefaadfcdc573090ec8736dc9181b29]
link Client to UC204 - As a Client, I want to know the current situation of a specific container being used to transport my goods--><path d="M84.0052,1206 C144.008,1206 326.372,1206 506.25,1206 " fill="none" id="Client-to-UC204 - As a Client, I want to know the current situation of a specific container being used to transport my goods" style="stroke:#A80036;stroke-width:1.0;"/><polygon fill="#A80036" points="511.302,1206,502.302,1202,506.302,1206,502.302,1210,511.302,1206" style="stroke:#A80036;stroke-width:1.0;"/><!--MD5=[ad3de70d59da80d76da46cf0186e21aa]
link ShipCaptain to UC205 - As Ship Captain, I want the list of containers to be offloaded in the next port, including container identifier, type, position, and load--><path d="M63.5163,556.44 C65.9126,480.55 82.6879,317.25 179,234 C244.813,177.11 326.501,141.39 411.488,119.7 " fill="none" id="ShipCaptain-to-UC205 - As Ship Captain, I want the list of containers to be offloaded in the next port, including container identifier, type, position, and load" style="stroke:#A80036;stroke-width:1.0;"/><polygon fill="#A80036" points="416.571,118.42,406.8661,116.7424,411.7228,119.6428,408.8225,124.4995,416.571,118.42" style="stroke:#A80036;stroke-width:1.0;"/><!--MD5=[459a9e5f23dfa11797eabd1208d021b0]
link ShipCaptain to UC206 - As Ship Captain, I want the list of containers to be loaded in the next port, including container identifier, type, and load--><path d="M86.9295,556.4 C107.164,525.27 139.364,484.02 179,462 C264.736,414.37 364.081,384.82 461.818,366.85 " fill="none" id="ShipCaptain-to-UC206 - As Ship Captain, I want the list of containers to be loaded in the next port, including container identifier, type, and load" style="stroke:#A80036;stroke-width:1.0;"/><polygon fill="#A80036" points="466.766,365.95,457.1953,363.626,461.8468,366.8452,458.6276,371.4967,466.766,365.95" style="stroke:#A80036;stroke-width:1.0;"/><!--MD5=[c784cfc6df309ae9edc510963ebce4d8]
link ShipCaptain to UC207 - As Ship Captain, I want to know how many cargo manifests I have transported during a given year and the average number of containers per manifest--><path d="M106.641,597 C156.742,597 245.574,597 346.814,597 " fill="none" id="ShipCaptain-to-UC207 - As Ship Captain, I want to know how many cargo manifests I have transported during a given year and the average number of containers per manifest" style="stroke:#A80036;stroke-width:1.0;"/><polygon fill="#A80036" points="351.952,597,342.952,593,346.952,597,342.952,601,351.952,597" style="stroke:#A80036;stroke-width:1.0;"/><!--MD5=[a883024bfed262e00ba87f9c3e20d9db]
link ShipCaptain to UC208 - As Ship Captain, I want to know the occupancy rate of a given ship for a given cargo manifest--><path d="M86.5769,637.56 C106.715,668.88 138.958,710.4 179,732 C290.864,792.34 425.459,820.59 549.483,832.4 " fill="none" id="ShipCaptain-to-UC208 - As Ship Captain, I want to know the occupancy rate of a given ship for a given cargo manifest" style="stroke:#A80036;stroke-width:1.0;"/><polygon fill="#A80036" points="554.634,832.88,546.045,828.0603,549.6557,832.415,545.301,836.0256,554.634,832.88" style="stroke:#A80036;stroke-width:1.0;"/><!--MD5=[c47249af390ffb82061402e20c12f978]
link ShipCaptain to UC209 - As Ship Captain, I want to know the occupancy rate of a given ship at a given moment--><path d="M64.9294,637.61 C69.7781,707.86 90.6083,851.32 179,922 C299.472,1018.33 467.655,1045.04 614.087,1045.82 " fill="none" id="ShipCaptain-to-UC209 - As Ship Captain, I want to know the occupancy rate of a given ship at a given moment" style="stroke:#A80036;stroke-width:1.0;"/><polygon fill="#A80036" points="619.287,1045.83,610.3008,1041.7992,614.287,1045.8129,610.2733,1049.7991,619.287,1045.83" style="stroke:#A80036;stroke-width:1.0;"/><!--MD5=[f20dc9c462567a8cd61b6654ccbb999b]
link TrafficManager to UC210 - As Traffic manager, I need to know which ships will be available on Monday next week and their location--><path d="M66.1147,3462.71 C76.9292,3625.177 120.362,4221.266 179,4280 C275.745,4376.9024 418.078,4411.7293 552.722,4418.9963 " fill="none" id="TrafficManager-to-UC210 - As Traffic manager, I need to know which ships will be available on Monday next week and their location" style="stroke:#A80036;stroke-width:1.0;"/><polygon fill="#A80036" points="557.912,4419.2631,549.1296,4414.8055,552.9186,4419.006,548.7182,4422.795,557.912,4419.2631" style="stroke:#A80036;stroke-width:1.0;"/><!--MD5=[ad9389d7705ebd6f82188edecdf62c4f]
@startuml
left to right direction

TrafficManager - -> (UC101 - Import Ships)
TrafficManager - -> (UC102 - Search the details of a ship)
TrafficManager - -> (UC103 - The positional messages temporally organized and associated with each of the ships)
TrafficManager - -> (UC104 - Make a Summary of a ship's movements)
TrafficManager - -> (UC105 - List for all ships the MMSI, the total number of movements, Travelled Distance and Delta Distance)
TrafficManager - -> (UC106 - Get the top-N ships with the most kilometres travelled and their average speed   Develop the data model required to support all the functionality and to fulfill the purpose of the system to develop)
TrafficManager - -> (UC107 - return pairs of ships with routes with close departure/arrival coordinates and with different Travelled Distance.)
ProjectManager - -> (UC108 - develop the data model required to support all the functionality and to fulfill the purpose of the system to develop.)
ProjectManager - -> (UC109 - draft an SQL script to test whether the database verifies all the data integrity restrictions that are required to fulfil the purpose of the system and the business constraints of the UoD)
ProjectManager - -> (UC110 - the team to define the naming conventions to apply when defining identifiers or writing SQL or PL/SQL code)
ProjectManager - -> (UC111 - create a SQL script to load the database with a minimum set of data sufficient to carry out data integrity verification and functionaltesting)

PortManager - -> (UC201 - As a Port manager, I which to import ports from a text file and create a 2D-tree with port locations)
TrafficManager - -> (UC202 - As a Traffic manager, I which to find the closest port of a ship given its CallSign, on a certain DateTime)
ProjectManager - -> (UC203 - As a Project Manager, I want the team to review the relational data model in view of the new user stories so it can support all the requirements to fulfil the purpose of the system being developed)
Client - -> (UC204 - As a Client, I want to know the current situation of a specific container being used to transport my goods)
ShipCaptain - -> (UC205 - As Ship Captain, I want the list of containers to be offloaded in the next port, including container identifier, type, position, and load)
ShipCaptain - -> (UC206 - As Ship Captain, I want the list of containers to be loaded in the next port, including container identifier, type, and load)
ShipCaptain - -> (UC207 - As Ship Captain, I want to know how many cargo manifests I have transported during a given year and the average number of containers per manifest)
ShipCaptain - -> (UC208 - As Ship Captain, I want to know the occupancy rate of a given ship for a given cargo manifest)
ShipCaptain - -> (UC209 - As Ship Captain, I want to know the occupancy rate of a given ship at a given moment)
TrafficManager - -> (UC210 - As Traffic manager, I need to know which ships will be available on Monday next week and their location)
@enduml

PlantUML version 1.2021.15beta2(Unknown compile time)
(GPL source distribution)
Java Runtime: Java(TM) SE Runtime Environment
JVM: Java HotSpot(TM) 64-Bit Server VM
Default Encoding: UTF-8
Language: en
Country: US
--></g></svg>