<?xml version="1.0" encoding="UTF-8" standalone="no"?><svg xmlns="http://www.w3.org/2000/svg" xmlns:xlink="http://www.w3.org/1999/xlink" contentScriptType="application/ecmascript" contentStyleType="text/css" height="916px" preserveAspectRatio="none" style="width:347px;height:916px;background:#FFFFFF;" version="1.1" viewBox="0 0 347 916" width="347px" zoomAndPan="magnify"><defs><filter height="300%" id="fnmh4wviffubp" width="300%" x="-1" y="-1"><feGaussianBlur result="blurOut" stdDeviation="2.0"/><feColorMatrix in="blurOut" result="blurOut2" type="matrix" values="0 0 0 0 0 0 0 0 0 0 0 0 0 0 0 0 0 0 .4 0"/><feOffset dx="4.0" dy="4.0" in="blurOut2" result="blurOut3"/><feBlend in="SourceGraphic" in2="blurOut3" mode="normal"/></filter></defs><g><!--MD5=[1359623b29275f5c349cab73e6333ccb]
class PositionOfShip--><rect codeLine="3" fill="#FEFECE" filter="url(#fnmh4wviffubp)" height="73.6094" id="PositionOfShip" style="stroke:#A80036;stroke-width:1.5;" width="250" x="65.5" y="7"/><ellipse cx="143.25" cy="23" fill="#ADD1B2" rx="11" ry="11" style="stroke:#A80036;stroke-width:1.0;"/><path d="M145.5938,18.6719 C144.6563,18.2344 144.0625,18.0938 143.1875,18.0938 C140.5625,18.0938 138.5625,20.1719 138.5625,22.8906 L138.5625,24.0156 C138.5625,26.5938 140.6719,28.4844 143.5625,28.4844 C144.7813,28.4844 145.9375,28.1875 146.6875,27.6406 C147.2656,27.2344 147.5938,26.7813 147.5938,26.3906 C147.5938,25.9375 147.2031,25.5469 146.7344,25.5469 C146.5156,25.5469 146.3125,25.625 146.125,25.8125 C145.6719,26.2969 145.6719,26.2969 145.4844,26.3906 C145.0625,26.6563 144.375,26.7813 143.6094,26.7813 C141.5625,26.7813 140.2656,25.6875 140.2656,23.9844 L140.2656,22.8906 C140.2656,21.1094 141.5156,19.7969 143.25,19.7969 C143.8281,19.7969 144.4375,19.9531 144.9063,20.2031 C145.3906,20.4844 145.5625,20.7031 145.6563,21.1094 C145.7188,21.5156 145.75,21.6406 145.8906,21.7656 C146.0313,21.9063 146.2656,22.0156 146.4844,22.0156 C146.75,22.0156 147.0156,21.875 147.1875,21.6563 C147.2969,21.5 147.3281,21.3125 147.3281,20.8906 L147.3281,19.4688 C147.3281,19.0313 147.3125,18.9063 147.2188,18.75 C147.0625,18.4844 146.7813,18.3438 146.4844,18.3438 C146.1875,18.3438 145.9844,18.4375 145.7656,18.75 L145.5938,18.6719 Z " fill="#000000"/><text fill="#000000" font-family="sans-serif" font-size="12" lengthAdjust="spacing" textLength="86" x="163.75" y="27.1543">PositionOfShip</text><line style="stroke:#A80036;stroke-width:1.5;" x1="66.5" x2="314.5" y1="39" y2="39"/><line style="stroke:#A80036;stroke-width:1.5;" x1="66.5" x2="314.5" y1="47" y2="47"/><text fill="#000000" font-family="sans-serif" font-size="11" lengthAdjust="spacing" textLength="205" x="71.5" y="61.2104">+organizeShipPositionalMessages();</text><text fill="#000000" font-family="sans-serif" font-size="11" lengthAdjust="spacing" textLength="238" x="71.5" y="74.0151">+acessShipPostion(code, baseDateTime);</text><!--MD5=[02e4b9b7573f1156f41e60aa5b4e25a4]
class Company--><rect codeLine="7" fill="#FEFECE" filter="url(#fnmh4wviffubp)" height="73.6094" id="Company" style="stroke:#A80036;stroke-width:1.5;" width="119" x="131" y="287"/><ellipse cx="159.95" cy="303" fill="#ADD1B2" rx="11" ry="11" style="stroke:#A80036;stroke-width:1.0;"/><path d="M162.2938,298.6719 C161.3563,298.2344 160.7625,298.0938 159.8875,298.0938 C157.2625,298.0938 155.2625,300.1719 155.2625,302.8906 L155.2625,304.0156 C155.2625,306.5938 157.3719,308.4844 160.2625,308.4844 C161.4813,308.4844 162.6375,308.1875 163.3875,307.6406 C163.9656,307.2344 164.2938,306.7813 164.2938,306.3906 C164.2938,305.9375 163.9031,305.5469 163.4344,305.5469 C163.2156,305.5469 163.0125,305.625 162.825,305.8125 C162.3719,306.2969 162.3719,306.2969 162.1844,306.3906 C161.7625,306.6563 161.075,306.7813 160.3094,306.7813 C158.2625,306.7813 156.9656,305.6875 156.9656,303.9844 L156.9656,302.8906 C156.9656,301.1094 158.2156,299.7969 159.95,299.7969 C160.5281,299.7969 161.1375,299.9531 161.6063,300.2031 C162.0906,300.4844 162.2625,300.7031 162.3563,301.1094 C162.4188,301.5156 162.45,301.6406 162.5906,301.7656 C162.7313,301.9063 162.9656,302.0156 163.1844,302.0156 C163.45,302.0156 163.7156,301.875 163.8875,301.6563 C163.9969,301.5 164.0281,301.3125 164.0281,300.8906 L164.0281,299.4688 C164.0281,299.0313 164.0125,298.9063 163.9188,298.75 C163.7625,298.4844 163.4813,298.3438 163.1844,298.3438 C162.8875,298.3438 162.6844,298.4375 162.4656,298.75 L162.2938,298.6719 Z " fill="#000000"/><text fill="#000000" font-family="sans-serif" font-size="12" lengthAdjust="spacing" textLength="56" x="177.05" y="307.1543">Company</text><line style="stroke:#A80036;stroke-width:1.5;" x1="132" x2="249" y1="319" y2="319"/><text fill="#000000" font-family="sans-serif" font-size="11" lengthAdjust="spacing" textLength="107" x="137" y="333.2104">-String designation</text><line style="stroke:#A80036;stroke-width:1.5;" x1="132" x2="249" y1="339.8047" y2="339.8047"/><text fill="#000000" font-family="sans-serif" font-size="11" lengthAdjust="spacing" textLength="95" x="137" y="354.0151">+getShipStore();</text><!--MD5=[d8a5c6f12add15b22e781f1f574c705d]
class ShipController--><rect codeLine="12" fill="#FEFECE" filter="url(#fnmh4wviffubp)" height="86.4141" id="ShipController" style="stroke:#A80036;stroke-width:1.5;" width="250" x="65.5" y="141"/><ellipse cx="143.75" cy="157" fill="#ADD1B2" rx="11" ry="11" style="stroke:#A80036;stroke-width:1.0;"/><path d="M146.0938,152.6719 C145.1563,152.2344 144.5625,152.0938 143.6875,152.0938 C141.0625,152.0938 139.0625,154.1719 139.0625,156.8906 L139.0625,158.0156 C139.0625,160.5938 141.1719,162.4844 144.0625,162.4844 C145.2813,162.4844 146.4375,162.1875 147.1875,161.6406 C147.7656,161.2344 148.0938,160.7813 148.0938,160.3906 C148.0938,159.9375 147.7031,159.5469 147.2344,159.5469 C147.0156,159.5469 146.8125,159.625 146.625,159.8125 C146.1719,160.2969 146.1719,160.2969 145.9844,160.3906 C145.5625,160.6563 144.875,160.7813 144.1094,160.7813 C142.0625,160.7813 140.7656,159.6875 140.7656,157.9844 L140.7656,156.8906 C140.7656,155.1094 142.0156,153.7969 143.75,153.7969 C144.3281,153.7969 144.9375,153.9531 145.4063,154.2031 C145.8906,154.4844 146.0625,154.7031 146.1563,155.1094 C146.2188,155.5156 146.25,155.6406 146.3906,155.7656 C146.5313,155.9063 146.7656,156.0156 146.9844,156.0156 C147.25,156.0156 147.5156,155.875 147.6875,155.6563 C147.7969,155.5 147.8281,155.3125 147.8281,154.8906 L147.8281,153.4688 C147.8281,153.0313 147.8125,152.9063 147.7188,152.75 C147.5625,152.4844 147.2813,152.3438 146.9844,152.3438 C146.6875,152.3438 146.4844,152.4375 146.2656,152.75 L146.0938,152.6719 Z " fill="#000000"/><text fill="#000000" font-family="sans-serif" font-size="12" lengthAdjust="spacing" textLength="85" x="164.25" y="161.1543">ShipController</text><line style="stroke:#A80036;stroke-width:1.5;" x1="66.5" x2="314.5" y1="173" y2="173"/><line style="stroke:#A80036;stroke-width:1.5;" x1="66.5" x2="314.5" y1="181" y2="181"/><text fill="#000000" font-family="sans-serif" font-size="11" lengthAdjust="spacing" textLength="70" x="71.5" y="195.2104">+getShips();</text><text fill="#000000" font-family="sans-serif" font-size="11" lengthAdjust="spacing" textLength="234" x="71.5" y="208.0151">+organizeShipPositionalMessages(ships);</text><text fill="#000000" font-family="sans-serif" font-size="11" lengthAdjust="spacing" textLength="238" x="71.5" y="220.8198">+acessShipPostion(code, baseDateTime);</text><!--MD5=[ea2206eefe09474e90beb17e18e6b3d8]
class ShipStore--><rect codeLine="18" fill="#FEFECE" filter="url(#fnmh4wviffubp)" height="99.2188" id="ShipStore" style="stroke:#A80036;stroke-width:1.5;" width="286" x="47.5" y="421"/><ellipse cx="156.75" cy="437" fill="#ADD1B2" rx="11" ry="11" style="stroke:#A80036;stroke-width:1.0;"/><path d="M159.0938,432.6719 C158.1563,432.2344 157.5625,432.0938 156.6875,432.0938 C154.0625,432.0938 152.0625,434.1719 152.0625,436.8906 L152.0625,438.0156 C152.0625,440.5938 154.1719,442.4844 157.0625,442.4844 C158.2813,442.4844 159.4375,442.1875 160.1875,441.6406 C160.7656,441.2344 161.0938,440.7813 161.0938,440.3906 C161.0938,439.9375 160.7031,439.5469 160.2344,439.5469 C160.0156,439.5469 159.8125,439.625 159.625,439.8125 C159.1719,440.2969 159.1719,440.2969 158.9844,440.3906 C158.5625,440.6563 157.875,440.7813 157.1094,440.7813 C155.0625,440.7813 153.7656,439.6875 153.7656,437.9844 L153.7656,436.8906 C153.7656,435.1094 155.0156,433.7969 156.75,433.7969 C157.3281,433.7969 157.9375,433.9531 158.4063,434.2031 C158.8906,434.4844 159.0625,434.7031 159.1563,435.1094 C159.2188,435.5156 159.25,435.6406 159.3906,435.7656 C159.5313,435.9063 159.7656,436.0156 159.9844,436.0156 C160.25,436.0156 160.5156,435.875 160.6875,435.6563 C160.7969,435.5 160.8281,435.3125 160.8281,434.8906 L160.8281,433.4688 C160.8281,433.0313 160.8125,432.9063 160.7188,432.75 C160.5625,432.4844 160.2813,432.3438 159.9844,432.3438 C159.6875,432.3438 159.4844,432.4375 159.2656,432.75 L159.0938,432.6719 Z " fill="#000000"/><text fill="#000000" font-family="sans-serif" font-size="12" lengthAdjust="spacing" textLength="59" x="177.25" y="441.1543">ShipStore</text><line style="stroke:#A80036;stroke-width:1.5;" x1="48.5" x2="332.5" y1="453" y2="453"/><text fill="#000000" font-family="sans-serif" font-size="11" lengthAdjust="spacing" textLength="135" x="53.5" y="467.2104">-BST &lt;Ship&gt; shipStore;</text><line style="stroke:#A80036;stroke-width:1.5;" x1="48.5" x2="332.5" y1="473.8047" y2="473.8047"/><text fill="#000000" font-family="sans-serif" font-size="11" lengthAdjust="spacing" textLength="234" x="53.5" y="488.0151">+organizeShipPositionalMessages(ships);</text><text fill="#000000" font-family="sans-serif" font-size="11" lengthAdjust="spacing" textLength="274" x="53.5" y="500.8198">+acessShipPostion(code, baseDateTime, ships);</text><text fill="#000000" font-family="sans-serif" font-size="11" lengthAdjust="spacing" textLength="67" x="53.5" y="513.6245">+getShips()</text><!--MD5=[0dc7f2ddb409b58bcf52b12238c25399]
class Ship--><rect codeLine="25" fill="#FEFECE" filter="url(#fnmh4wviffubp)" height="86.4141" id="Ship" style="stroke:#A80036;stroke-width:1.5;" width="209" x="7" y="580"/><ellipse cx="94.25" cy="596" fill="#ADD1B2" rx="11" ry="11" style="stroke:#A80036;stroke-width:1.0;"/><path d="M96.5938,591.6719 C95.6563,591.2344 95.0625,591.0938 94.1875,591.0938 C91.5625,591.0938 89.5625,593.1719 89.5625,595.8906 L89.5625,597.0156 C89.5625,599.5938 91.6719,601.4844 94.5625,601.4844 C95.7813,601.4844 96.9375,601.1875 97.6875,600.6406 C98.2656,600.2344 98.5938,599.7813 98.5938,599.3906 C98.5938,598.9375 98.2031,598.5469 97.7344,598.5469 C97.5156,598.5469 97.3125,598.625 97.125,598.8125 C96.6719,599.2969 96.6719,599.2969 96.4844,599.3906 C96.0625,599.6563 95.375,599.7813 94.6094,599.7813 C92.5625,599.7813 91.2656,598.6875 91.2656,596.9844 L91.2656,595.8906 C91.2656,594.1094 92.5156,592.7969 94.25,592.7969 C94.8281,592.7969 95.4375,592.9531 95.9063,593.2031 C96.3906,593.4844 96.5625,593.7031 96.6563,594.1094 C96.7188,594.5156 96.75,594.6406 96.8906,594.7656 C97.0313,594.9063 97.2656,595.0156 97.4844,595.0156 C97.75,595.0156 98.0156,594.875 98.1875,594.6563 C98.2969,594.5 98.3281,594.3125 98.3281,593.8906 L98.3281,592.4688 C98.3281,592.0313 98.3125,591.9063 98.2188,591.75 C98.0625,591.4844 97.7813,591.3438 97.4844,591.3438 C97.1875,591.3438 96.9844,591.4375 96.7656,591.75 L96.5938,591.6719 Z " fill="#000000"/><text fill="#000000" font-family="sans-serif" font-size="12" lengthAdjust="spacing" textLength="26" x="114.75" y="600.1543">Ship</text><line style="stroke:#A80036;stroke-width:1.5;" x1="8" x2="215" y1="612" y2="612"/><text fill="#000000" font-family="sans-serif" font-size="11" lengthAdjust="spacing" textLength="114" x="13" y="626.2104">-Identification shipId</text><text fill="#000000" font-family="sans-serif" font-size="11" lengthAdjust="spacing" textLength="197" x="13" y="639.0151">-List &lt;ShipDynamic&gt; shipDynamic</text><text fill="#000000" font-family="sans-serif" font-size="11" lengthAdjust="spacing" textLength="9" x="13" y="651.8198">...</text><line style="stroke:#A80036;stroke-width:1.5;" x1="8" x2="215" y1="658.4141" y2="658.4141"/><!--MD5=[19c2b9eb46691e25b02426140995a460]
class ShipDynamic--><rect codeLine="31" fill="#FEFECE" filter="url(#fnmh4wviffubp)" height="176.0469" id="ShipDynamic" style="stroke:#A80036;stroke-width:1.5;" width="138" x="121.5" y="726"/><ellipse cx="149.55" cy="742" fill="#ADD1B2" rx="11" ry="11" style="stroke:#A80036;stroke-width:1.0;"/><path d="M151.8938,737.6719 C150.9563,737.2344 150.3625,737.0938 149.4875,737.0938 C146.8625,737.0938 144.8625,739.1719 144.8625,741.8906 L144.8625,743.0156 C144.8625,745.5938 146.9719,747.4844 149.8625,747.4844 C151.0813,747.4844 152.2375,747.1875 152.9875,746.6406 C153.5656,746.2344 153.8938,745.7813 153.8938,745.3906 C153.8938,744.9375 153.5031,744.5469 153.0344,744.5469 C152.8156,744.5469 152.6125,744.625 152.425,744.8125 C151.9719,745.2969 151.9719,745.2969 151.7844,745.3906 C151.3625,745.6563 150.675,745.7813 149.9094,745.7813 C147.8625,745.7813 146.5656,744.6875 146.5656,742.9844 L146.5656,741.8906 C146.5656,740.1094 147.8156,738.7969 149.55,738.7969 C150.1281,738.7969 150.7375,738.9531 151.2063,739.2031 C151.6906,739.4844 151.8625,739.7031 151.9563,740.1094 C152.0188,740.5156 152.05,740.6406 152.1906,740.7656 C152.3313,740.9063 152.5656,741.0156 152.7844,741.0156 C153.05,741.0156 153.3156,740.875 153.4875,740.6563 C153.5969,740.5 153.6281,740.3125 153.6281,739.8906 L153.6281,738.4688 C153.6281,738.0313 153.6125,737.9063 153.5188,737.75 C153.3625,737.4844 153.0813,737.3438 152.7844,737.3438 C152.4875,737.3438 152.2844,737.4375 152.0656,737.75 L151.8938,737.6719 Z " fill="#000000"/><text fill="#000000" font-family="sans-serif" font-size="12" lengthAdjust="spacing" textLength="77" x="166.45" y="746.1543">ShipDynamic</text><line style="stroke:#A80036;stroke-width:1.5;" x1="122.5" x2="258.5" y1="758" y2="758"/><text fill="#000000" font-family="sans-serif" font-size="11" lengthAdjust="spacing" textLength="126" x="127.5" y="772.2104">-String baseDateTime</text><text fill="#000000" font-family="sans-serif" font-size="11" lengthAdjust="spacing" textLength="73" x="127.5" y="785.0151">-double SOG</text><text fill="#000000" font-family="sans-serif" font-size="11" lengthAdjust="spacing" textLength="73" x="127.5" y="797.8198">-double COG</text><text fill="#000000" font-family="sans-serif" font-size="11" lengthAdjust="spacing" textLength="90" x="127.5" y="810.6245">-double latitude</text><text fill="#000000" font-family="sans-serif" font-size="11" lengthAdjust="spacing" textLength="100" x="127.5" y="823.4292">-double longitude</text><line style="stroke:#A80036;stroke-width:1.5;" x1="122.5" x2="258.5" y1="830.0234" y2="830.0234"/><text fill="#000000" font-family="sans-serif" font-size="11" lengthAdjust="spacing" textLength="122" x="127.5" y="844.2339">+getBaseDateTime()</text><text fill="#000000" font-family="sans-serif" font-size="11" lengthAdjust="spacing" textLength="62" x="127.5" y="857.0386">+getSOG()</text><text fill="#000000" font-family="sans-serif" font-size="11" lengthAdjust="spacing" textLength="62" x="127.5" y="869.8433">+getCOG()</text><text fill="#000000" font-family="sans-serif" font-size="11" lengthAdjust="spacing" textLength="82" x="127.5" y="882.6479">+getLatitude()</text><text fill="#000000" font-family="sans-serif" font-size="11" lengthAdjust="spacing" textLength="92" x="127.5" y="895.4526">+getLongitude()</text><!--MD5=[cece93bce9e757153d84f2cfbf72ae38]
link PositionOfShip to ShipController--><path codeLine="43" d="M190.5,81.258 C190.5,97.758 190.5,117.511 190.5,135.204 " fill="none" id="PositionOfShip-to-ShipController" style="stroke:#A80036;stroke-width:1.0;stroke-dasharray:7.0,7.0;"/><polygon fill="#A80036" points="190.5,140.622,194.5,131.622,190.5,135.622,186.5,131.622,190.5,140.622" style="stroke:#A80036;stroke-width:1.0;"/><!--MD5=[bf74851aff38bc49bd5171b1d2f8ce12]
link ShipController to Company--><path codeLine="44" d="M190.5,227.154 C190.5,244.394 190.5,264.283 190.5,281.46 " fill="none" id="ShipController-to-Company" style="stroke:#A80036;stroke-width:1.0;stroke-dasharray:7.0,7.0;"/><polygon fill="#A80036" points="190.5,286.697,194.5,277.697,190.5,281.697,186.5,277.697,190.5,286.697" style="stroke:#A80036;stroke-width:1.0;"/><!--MD5=[6b4a94d80660e97c6833bde801bd4c89]
link Company to ShipStore--><path codeLine="45" d="M190.5,361.091 C190.5,377.595 190.5,397.492 190.5,415.71 " fill="none" id="Company-to-ShipStore" style="stroke:#A80036;stroke-width:1.0;"/><polygon fill="#A80036" points="190.5,420.799,194.5,411.799,190.5,415.799,186.5,411.799,190.5,420.799" style="stroke:#A80036;stroke-width:1.0;"/><!--MD5=[f04e04ecc6998d67821b33eb17256457]
link ShipStore to Ship--><path codeLine="46" d="M164.851,520.363 C155.626,537.937 145.247,557.709 136.113,575.111 " fill="none" id="ShipStore-to-Ship" style="stroke:#A80036;stroke-width:1.0;"/><polygon fill="#A80036" points="133.572,579.952,141.2971,573.8428,135.8962,575.525,134.214,570.1241,133.572,579.952" style="stroke:#A80036;stroke-width:1.0;"/><!--MD5=[8583745bb24b47a487169e52c1194ad0]
link Ship to ShipDynamic--><path codeLine="47" d="M129.229,666.415 C136.023,682.669 144.067,701.912 152.053,721.019 " fill="none" id="Ship-to-ShipDynamic" style="stroke:#A80036;stroke-width:1.0;"/><polygon fill="#A80036" points="154.081,725.871,154.2999,716.0246,152.1523,721.2579,146.919,719.1104,154.081,725.871" style="stroke:#A80036;stroke-width:1.0;"/><!--MD5=[21dd75de7cd3b7e472d74c930a10f5e3]
link ShipStore to ShipDynamic--><path codeLine="48" d="M214.253,520.013 C222.01,538.351 229.624,559.699 233.5,580 C242.358,626.394 234.619,678.046 223.39,720.904 " fill="none" id="ShipStore-to-ShipDynamic" style="stroke:#A80036;stroke-width:1.0;"/><polygon fill="#A80036" points="222.076,725.819,228.2623,718.1555,223.3658,720.9882,220.5331,716.0918,222.076,725.819" style="stroke:#A80036;stroke-width:1.0;"/><!--MD5=[af8fbdfc122d316320f84a95fe099c7d]
@startuml
skinparam classAttributeIconSize 0

class PositionOfShip {
  +organizeShipPositionalMessages();
  +acessShipPostion(code, baseDateTime);
}
class Company {
  -String designation
  +getShipStore();
}

class ShipController {
+getShips();
+organizeShipPositionalMessages(ships);
+acessShipPostion(code, baseDateTime);
}

class ShipStore {
-BST <Ship> shipStore;
+organizeShipPositionalMessages(ships);
+acessShipPostion(code, baseDateTime, ships);
+getShips()
}

class Ship {
-Identification shipId
-List <ShipDynamic> shipDynamic
...
}

class ShipDynamic {
-String baseDateTime
-double SOG
-double COG
-double latitude
-double longitude
+getBaseDateTime()
+getSOG()
+getCOG()
+getLatitude()
+getLongitude()
}
PositionOfShip ..> ShipController
ShipController ..> Company
Company - -> ShipStore
ShipStore - -> Ship
Ship - -> ShipDynamic
ShipStore - -> ShipDynamic
@enduml

PlantUML version 1.2021.13beta8(Unknown compile time)
(GPL source distribution)
Java Runtime: Java(TM) SE Runtime Environment
JVM: Java HotSpot(TM) 64-Bit Server VM
Default Encoding: UTF-8
Language: en
Country: US
--></g></svg>