<?xml version="1.0" encoding="UTF-8" standalone="no"?><svg xmlns="http://www.w3.org/2000/svg" xmlns:xlink="http://www.w3.org/1999/xlink" contentScriptType="application/ecmascript" contentStyleType="text/css" height="209px" preserveAspectRatio="none" style="width:815px;height:209px;background:#FFFFFF;" version="1.1" viewBox="0 0 815 209" width="815px" zoomAndPan="magnify"><defs><filter height="300%" id="fe0t41v45ibgb" width="300%" x="-1" y="-1"><feGaussianBlur result="blurOut" stdDeviation="2.0"/><feColorMatrix in="blurOut" result="blurOut2" type="matrix" values="0 0 0 0 0 0 0 0 0 0 0 0 0 0 0 0 0 0 .4 0"/><feOffset dx="4.0" dy="4.0" in="blurOut2" result="blurOut3"/><feBlend in="SourceGraphic" in2="blurOut3" mode="normal"/></filter></defs><g><!--MD5=[0dc7f2ddb409b58bcf52b12238c25399]
class Ship--><rect codeLine="3" fill="#FEFECE" filter="url(#fe0t41v45ibgb)" height="188.8516" id="Ship" style="stroke:#A80036;stroke-width:1.5;" width="177" x="252" y="7"/><ellipse cx="323.25" cy="23" fill="#ADD1B2" rx="11" ry="11" style="stroke:#A80036;stroke-width:1.0;"/><path d="M325.5938,18.6719 C324.6563,18.2344 324.0625,18.0938 323.1875,18.0938 C320.5625,18.0938 318.5625,20.1719 318.5625,22.8906 L318.5625,24.0156 C318.5625,26.5938 320.6719,28.4844 323.5625,28.4844 C324.7813,28.4844 325.9375,28.1875 326.6875,27.6406 C327.2656,27.2344 327.5938,26.7813 327.5938,26.3906 C327.5938,25.9375 327.2031,25.5469 326.7344,25.5469 C326.5156,25.5469 326.3125,25.625 326.125,25.8125 C325.6719,26.2969 325.6719,26.2969 325.4844,26.3906 C325.0625,26.6563 324.375,26.7813 323.6094,26.7813 C321.5625,26.7813 320.2656,25.6875 320.2656,23.9844 L320.2656,22.8906 C320.2656,21.1094 321.5156,19.7969 323.25,19.7969 C323.8281,19.7969 324.4375,19.9531 324.9063,20.2031 C325.3906,20.4844 325.5625,20.7031 325.6563,21.1094 C325.7188,21.5156 325.75,21.6406 325.8906,21.7656 C326.0313,21.9063 326.2656,22.0156 326.4844,22.0156 C326.75,22.0156 327.0156,21.875 327.1875,21.6563 C327.2969,21.5 327.3281,21.3125 327.3281,20.8906 L327.3281,19.4688 C327.3281,19.0313 327.3125,18.9063 327.2188,18.75 C327.0625,18.4844 326.7813,18.3438 326.4844,18.3438 C326.1875,18.3438 325.9844,18.4375 325.7656,18.75 L325.5938,18.6719 Z " fill="#000000"/><text fill="#000000" font-family="sans-serif" font-size="12" lengthAdjust="spacing" textLength="26" x="343.75" y="27.1543">Ship</text><line style="stroke:#A80036;stroke-width:1.5;" x1="253" x2="428" y1="39" y2="39"/><text fill="#000000" font-family="sans-serif" font-size="11" lengthAdjust="spacing" textLength="33" x="258" y="53.2104">-MMSI</text><text fill="#000000" font-family="sans-serif" font-size="11" lengthAdjust="spacing" textLength="37" x="258" y="66.0151">-name</text><text fill="#000000" font-family="sans-serif" font-size="11" lengthAdjust="spacing" textLength="81" x="258" y="78.8198">-IMOIDnumber</text><text fill="#000000" font-family="sans-serif" font-size="11" lengthAdjust="spacing" textLength="165" x="258" y="91.6245">-numberOfEnergyGenerators</text><text fill="#000000" font-family="sans-serif" font-size="11" lengthAdjust="spacing" textLength="132" x="258" y="104.4292">-generatorPowerOutput</text><text fill="#000000" font-family="sans-serif" font-size="11" lengthAdjust="spacing" textLength="48" x="258" y="117.2339">-callSign</text><text fill="#000000" font-family="sans-serif" font-size="11" lengthAdjust="spacing" textLength="101" x="258" y="130.0386">-vesselTypeCode</text><text fill="#000000" font-family="sans-serif" font-size="11" lengthAdjust="spacing" textLength="34" x="258" y="142.8433">-width</text><text fill="#000000" font-family="sans-serif" font-size="11" lengthAdjust="spacing" textLength="40" x="258" y="155.6479">-length</text><text fill="#000000" font-family="sans-serif" font-size="11" lengthAdjust="spacing" textLength="51" x="258" y="168.4526">-capacity</text><text fill="#000000" font-family="sans-serif" font-size="11" lengthAdjust="spacing" textLength="30" x="258" y="181.2573">-draft</text><line style="stroke:#A80036;stroke-width:1.5;" x1="253" x2="428" y1="187.8516" y2="187.8516"/><!--MD5=[ddaf6f62b0bc30921877ec9fb9463c9f]
class TrafficManager--><rect codeLine="17" fill="#FEFECE" filter="url(#fe0t41v45ibgb)" height="73.6094" id="TrafficManager" style="stroke:#A80036;stroke-width:1.5;" width="121" x="7" y="16.5"/><ellipse cx="22" cy="32.5" fill="#ADD1B2" rx="11" ry="11" style="stroke:#A80036;stroke-width:1.0;"/><path d="M24.3438,28.1719 C23.4063,27.7344 22.8125,27.5938 21.9375,27.5938 C19.3125,27.5938 17.3125,29.6719 17.3125,32.3906 L17.3125,33.5156 C17.3125,36.0938 19.4219,37.9844 22.3125,37.9844 C23.5313,37.9844 24.6875,37.6875 25.4375,37.1406 C26.0156,36.7344 26.3438,36.2813 26.3438,35.8906 C26.3438,35.4375 25.9531,35.0469 25.4844,35.0469 C25.2656,35.0469 25.0625,35.125 24.875,35.3125 C24.4219,35.7969 24.4219,35.7969 24.2344,35.8906 C23.8125,36.1563 23.125,36.2813 22.3594,36.2813 C20.3125,36.2813 19.0156,35.1875 19.0156,33.4844 L19.0156,32.3906 C19.0156,30.6094 20.2656,29.2969 22,29.2969 C22.5781,29.2969 23.1875,29.4531 23.6563,29.7031 C24.1406,29.9844 24.3125,30.2031 24.4063,30.6094 C24.4688,31.0156 24.5,31.1406 24.6406,31.2656 C24.7813,31.4063 25.0156,31.5156 25.2344,31.5156 C25.5,31.5156 25.7656,31.375 25.9375,31.1563 C26.0469,31 26.0781,30.8125 26.0781,30.3906 L26.0781,28.9688 C26.0781,28.5313 26.0625,28.4063 25.9688,28.25 C25.8125,27.9844 25.5313,27.8438 25.2344,27.8438 C24.9375,27.8438 24.7344,27.9375 24.5156,28.25 L24.3438,28.1719 Z " fill="#000000"/><text fill="#000000" font-family="sans-serif" font-size="12" lengthAdjust="spacing" textLength="89" x="36" y="36.6543">TrafficManager</text><line style="stroke:#A80036;stroke-width:1.5;" x1="8" x2="127" y1="48.5" y2="48.5"/><text fill="#000000" font-family="sans-serif" font-size="11" lengthAdjust="spacing" textLength="41" x="13" y="62.7104">-userID</text><text fill="#000000" font-family="sans-serif" font-size="11" lengthAdjust="spacing" textLength="37" x="13" y="75.5151">-name</text><line style="stroke:#A80036;stroke-width:1.5;" x1="8" x2="127" y1="82.1094" y2="82.1094"/><!--MD5=[19c2b9eb46691e25b02426140995a460]
class ShipDynamic--><rect codeLine="21" fill="#FEFECE" filter="url(#fe0t41v45ibgb)" height="150.4375" id="ShipDynamic" style="stroke:#A80036;stroke-width:1.5;" width="110" x="691" y="26.5"/><ellipse cx="706.45" cy="42.5" fill="#ADD1B2" rx="11" ry="11" style="stroke:#A80036;stroke-width:1.0;"/><path d="M708.7938,38.1719 C707.8563,37.7344 707.2625,37.5938 706.3875,37.5938 C703.7625,37.5938 701.7625,39.6719 701.7625,42.3906 L701.7625,43.5156 C701.7625,46.0938 703.8719,47.9844 706.7625,47.9844 C707.9813,47.9844 709.1375,47.6875 709.8875,47.1406 C710.4656,46.7344 710.7938,46.2813 710.7938,45.8906 C710.7938,45.4375 710.4031,45.0469 709.9344,45.0469 C709.7156,45.0469 709.5125,45.125 709.325,45.3125 C708.8719,45.7969 708.8719,45.7969 708.6844,45.8906 C708.2625,46.1563 707.575,46.2813 706.8094,46.2813 C704.7625,46.2813 703.4656,45.1875 703.4656,43.4844 L703.4656,42.3906 C703.4656,40.6094 704.7156,39.2969 706.45,39.2969 C707.0281,39.2969 707.6375,39.4531 708.1063,39.7031 C708.5906,39.9844 708.7625,40.2031 708.8563,40.6094 C708.9188,41.0156 708.95,41.1406 709.0906,41.2656 C709.2313,41.4063 709.4656,41.5156 709.6844,41.5156 C709.95,41.5156 710.2156,41.375 710.3875,41.1563 C710.4969,41 710.5281,40.8125 710.5281,40.3906 L710.5281,38.9688 C710.5281,38.5313 710.5125,38.4063 710.4188,38.25 C710.2625,37.9844 709.9813,37.8438 709.6844,37.8438 C709.3875,37.8438 709.1844,37.9375 708.9656,38.25 L708.7938,38.1719 Z " fill="#000000"/><text fill="#000000" font-family="sans-serif" font-size="12" lengthAdjust="spacing" textLength="77" x="720.55" y="46.6543">ShipDynamic</text><line style="stroke:#A80036;stroke-width:1.5;" x1="692" x2="800" y1="58.5" y2="58.5"/><text fill="#000000" font-family="sans-serif" font-size="11" lengthAdjust="spacing" textLength="89" x="697" y="72.7104">-baseDateTime</text><text fill="#000000" font-family="sans-serif" font-size="11" lengthAdjust="spacing" textLength="47" x="697" y="85.5151">-latitude</text><text fill="#000000" font-family="sans-serif" font-size="11" lengthAdjust="spacing" textLength="57" x="697" y="98.3198">-longitude</text><text fill="#000000" font-family="sans-serif" font-size="11" lengthAdjust="spacing" textLength="30" x="697" y="111.1245">-SOG</text><text fill="#000000" font-family="sans-serif" font-size="11" lengthAdjust="spacing" textLength="30" x="697" y="123.9292">-COG</text><text fill="#000000" font-family="sans-serif" font-size="11" lengthAdjust="spacing" textLength="50" x="697" y="136.7339">-heading</text><text fill="#000000" font-family="sans-serif" font-size="11" lengthAdjust="spacing" textLength="48" x="697" y="149.5386">-position</text><text fill="#000000" font-family="sans-serif" font-size="11" lengthAdjust="spacing" textLength="98" x="697" y="162.3433">-transceiverClass</text><line style="stroke:#A80036;stroke-width:1.5;" x1="692" x2="800" y1="168.9375" y2="168.9375"/><!--MD5=[fc92a9f5bb5fae84dd7fa4034e6b4444]
class Route--><rect fill="#FEFECE" filter="url(#fe0t41v45ibgb)" height="48" id="Route" style="stroke:#A80036;stroke-width:1.5;" width="66" x="527" y="77.5"/><ellipse cx="542" cy="93.5" fill="#ADD1B2" rx="11" ry="11" style="stroke:#A80036;stroke-width:1.0;"/><path d="M544.3438,89.1719 C543.4063,88.7344 542.8125,88.5938 541.9375,88.5938 C539.3125,88.5938 537.3125,90.6719 537.3125,93.3906 L537.3125,94.5156 C537.3125,97.0938 539.4219,98.9844 542.3125,98.9844 C543.5313,98.9844 544.6875,98.6875 545.4375,98.1406 C546.0156,97.7344 546.3438,97.2813 546.3438,96.8906 C546.3438,96.4375 545.9531,96.0469 545.4844,96.0469 C545.2656,96.0469 545.0625,96.125 544.875,96.3125 C544.4219,96.7969 544.4219,96.7969 544.2344,96.8906 C543.8125,97.1563 543.125,97.2813 542.3594,97.2813 C540.3125,97.2813 539.0156,96.1875 539.0156,94.4844 L539.0156,93.3906 C539.0156,91.6094 540.2656,90.2969 542,90.2969 C542.5781,90.2969 543.1875,90.4531 543.6563,90.7031 C544.1406,90.9844 544.3125,91.2031 544.4063,91.6094 C544.4688,92.0156 544.5,92.1406 544.6406,92.2656 C544.7813,92.4063 545.0156,92.5156 545.2344,92.5156 C545.5,92.5156 545.7656,92.375 545.9375,92.1563 C546.0469,92 546.0781,91.8125 546.0781,91.3906 L546.0781,89.9688 C546.0781,89.5313 546.0625,89.4063 545.9688,89.25 C545.8125,88.9844 545.5313,88.8438 545.2344,88.8438 C544.9375,88.8438 544.7344,88.9375 544.5156,89.25 L544.3438,89.1719 Z " fill="#000000"/><text fill="#000000" font-family="sans-serif" font-size="12" lengthAdjust="spacing" textLength="34" x="556" y="97.6543">Route</text><line style="stroke:#A80036;stroke-width:1.5;" x1="528" x2="592" y1="109.5" y2="109.5"/><line style="stroke:#A80036;stroke-width:1.5;" x1="528" x2="592" y1="117.5" y2="117.5"/><!--MD5=[02e4b9b7573f1156f41e60aa5b4e25a4]
class Company--><rect fill="#FEFECE" filter="url(#fe0t41v45ibgb)" height="48" id="Company" style="stroke:#A80036;stroke-width:1.5;" width="88" x="23.5" y="125.5"/><ellipse cx="38.5" cy="141.5" fill="#ADD1B2" rx="11" ry="11" style="stroke:#A80036;stroke-width:1.0;"/><path d="M40.8438,137.1719 C39.9063,136.7344 39.3125,136.5938 38.4375,136.5938 C35.8125,136.5938 33.8125,138.6719 33.8125,141.3906 L33.8125,142.5156 C33.8125,145.0938 35.9219,146.9844 38.8125,146.9844 C40.0313,146.9844 41.1875,146.6875 41.9375,146.1406 C42.5156,145.7344 42.8438,145.2813 42.8438,144.8906 C42.8438,144.4375 42.4531,144.0469 41.9844,144.0469 C41.7656,144.0469 41.5625,144.125 41.375,144.3125 C40.9219,144.7969 40.9219,144.7969 40.7344,144.8906 C40.3125,145.1563 39.625,145.2813 38.8594,145.2813 C36.8125,145.2813 35.5156,144.1875 35.5156,142.4844 L35.5156,141.3906 C35.5156,139.6094 36.7656,138.2969 38.5,138.2969 C39.0781,138.2969 39.6875,138.4531 40.1563,138.7031 C40.6406,138.9844 40.8125,139.2031 40.9063,139.6094 C40.9688,140.0156 41,140.1406 41.1406,140.2656 C41.2813,140.4063 41.5156,140.5156 41.7344,140.5156 C42,140.5156 42.2656,140.375 42.4375,140.1563 C42.5469,140 42.5781,139.8125 42.5781,139.3906 L42.5781,137.9688 C42.5781,137.5313 42.5625,137.4063 42.4688,137.25 C42.3125,136.9844 42.0313,136.8438 41.7344,136.8438 C41.4375,136.8438 41.2344,136.9375 41.0156,137.25 L40.8438,137.1719 Z " fill="#000000"/><text fill="#000000" font-family="sans-serif" font-size="12" lengthAdjust="spacing" textLength="56" x="52.5" y="145.6543">Company</text><line style="stroke:#A80036;stroke-width:1.5;" x1="24.5" x2="110.5" y1="157.5" y2="157.5"/><line style="stroke:#A80036;stroke-width:1.5;" x1="24.5" x2="110.5" y1="165.5" y2="165.5"/><!--MD5=[40e2b5717560220ad35e84810a8f1b44]
link TrafficManager to Ship--><path codeLine="31" d="M128.308,64.093 C162.991,70.236 207.415,78.105 246.564,85.039 " fill="none" id="TrafficManager-to-Ship" style="stroke:#A80036;stroke-width:1.0;"/><polygon fill="#A80036" points="251.804,85.967,243.6406,80.4572,246.8808,85.0941,242.2439,88.3343,251.804,85.967" style="stroke:#A80036;stroke-width:1.0;"/><polygon fill="#000000" points="167.9234,62.9385,159.5295,58.467,158.5043,64.2548,167.9234,62.9385" style="stroke:#000000;stroke-width:1.0;"/><text fill="#000000" font-family="sans-serif" font-size="13" lengthAdjust="spacing" textLength="49" x="172" y="66.5669">imports</text><text fill="#000000" font-family="sans-serif" font-size="13" lengthAdjust="spacing" textLength="8" x="135.8014" y="78.2822">1</text><text fill="#000000" font-family="sans-serif" font-size="13" lengthAdjust="spacing" textLength="23" x="221.1327" y="97.4296">1..*</text><!--MD5=[bd668f20969913e971975f69d50ab766]
link Ship to Route--><path codeLine="32" d="M429.025,101.5 C461.315,101.5 496.202,101.5 521.694,101.5 " fill="none" id="Ship-to-Route" style="stroke:#A80036;stroke-width:1.0;"/><polygon fill="#A80036" points="526.987,101.5,517.987,97.5,521.987,101.5,517.987,105.5,526.987,101.5" style="stroke:#A80036;stroke-width:1.0;"/><polygon fill="#000000" points="469,93.0664,459.9549,90.1275,459.9549,96.0053,469,93.0664" style="stroke:#000000;stroke-width:1.0;"/><text fill="#000000" font-family="sans-serif" font-size="13" lengthAdjust="spacing" textLength="23" x="473" y="97.5669">has</text><text fill="#000000" font-family="sans-serif" font-size="13" lengthAdjust="spacing" textLength="8" x="436.9764" y="114.2235">1</text><text fill="#000000" font-family="sans-serif" font-size="13" lengthAdjust="spacing" textLength="23" x="496.0581" y="114.9147">1..*</text><!--MD5=[6e2bf1b581922c3b45ac635d439704bd]
link Route to ShipDynamic--><path codeLine="33" d="M593.05,101.5 C618.551,101.5 654.937,101.5 685.71,101.5 " fill="none" id="Route-to-ShipDynamic" style="stroke:#A80036;stroke-width:1.0;"/><polygon fill="#A80036" points="690.991,101.5,681.991,97.5,685.991,101.5,681.991,105.5,690.991,101.5" style="stroke:#A80036;stroke-width:1.0;"/><polygon fill="#000000" points="633,93.0664,623.9549,90.1275,623.9549,96.0053,633,93.0664" style="stroke:#000000;stroke-width:1.0;"/><text fill="#000000" font-family="sans-serif" font-size="13" lengthAdjust="spacing" textLength="23" x="637" y="97.5669">has</text><text fill="#000000" font-family="sans-serif" font-size="13" lengthAdjust="spacing" textLength="8" x="601.1547" y="115.222">1</text><text fill="#000000" font-family="sans-serif" font-size="13" lengthAdjust="spacing" textLength="23" x="659.8852" y="114.4624">1..*</text><!--MD5=[37a14a5de6d6fd738aee271300f4b5c8]
link Company to Ship--><path codeLine="34" d="M111.74,141.8412 C148.002,135.4185 201.051,126.0223 246.831,117.9138 " fill="none" id="Company-to-Ship" style="stroke:#A80036;stroke-width:1.0;"/><polygon fill="#A80036" points="251.805,117.0328,242.2449,114.6653,246.8818,117.9056,243.6414,122.5425,251.805,117.0328" style="stroke:#A80036;stroke-width:1.0;"/><polygon fill="#000000" points="175.4234,114.1944,166.0043,112.878,167.0295,118.6658,175.4234,114.1944" style="stroke:#000000;stroke-width:1.0;"/><text fill="#000000" font-family="sans-serif" font-size="13" lengthAdjust="spacing" textLength="34" x="179.5" y="119.5669">owns</text><text fill="#000000" font-family="sans-serif" font-size="13" lengthAdjust="spacing" textLength="8" x="119.4282" y="153.8934">1</text><text fill="#000000" font-family="sans-serif" font-size="13" lengthAdjust="spacing" textLength="23" x="221.1338" y="130.8739">1..*</text><!--MD5=[cb15e0d3571621ee17e0acd6fdf521cb]
@startuml
skinparam classAttributeIconSize 0
left to right direction
class Ship {
-MMSI
-name
-IMOIDnumber
-numberOfEnergyGenerators
-generatorPowerOutput
-callSign
-vesselTypeCode
-width
-length
-capacity
-draft
}

class TrafficManager{
-userID
-name
}
class ShipDynamic{
-baseDateTime
-latitude
-longitude
-SOG
-COG
-heading
-position
-transceiverClass
}
TrafficManager "1" - -> "1..*" Ship : imports >
Ship "1" - -> "1..*" Route : has >
Route "1" - -> "1..*" ShipDynamic : has >
Company"1" - -> "1..*" Ship : owns >
@enduml

PlantUML version 1.2021.13beta8(Unknown compile time)
(GPL source distribution)
Java Runtime: Java(TM) SE Runtime Environment
JVM: Java HotSpot(TM) 64-Bit Server VM
Default Encoding: UTF-8
Language: en
Country: US
--></g></svg>