<?xml version="1.0" encoding="UTF-8" standalone="no"?><svg xmlns="http://www.w3.org/2000/svg" xmlns:xlink="http://www.w3.org/1999/xlink" contentScriptType="application/ecmascript" contentStyleType="text/css" height="1113px" preserveAspectRatio="none" style="width:675px;height:1113px;background:#FFFFFF;" version="1.1" viewBox="0 0 675 1113" width="675px" zoomAndPan="magnify"><defs><filter height="300%" id="f1buk2ei75ggmo" width="300%" x="-1" y="-1"><feGaussianBlur result="blurOut" stdDeviation="2.0"/><feColorMatrix in="blurOut" result="blurOut2" type="matrix" values="0 0 0 0 0 0 0 0 0 0 0 0 0 0 0 0 0 0 .4 0"/><feOffset dx="4.0" dy="4.0" in="blurOut2" result="blurOut3"/><feBlend in="SourceGraphic" in2="blurOut3" mode="normal"/></filter></defs><g><!--MD5=[1359623b29275f5c349cab73e6333ccb]
class PositionOfShip--><rect codeLine="3" fill="#FEFECE" filter="url(#f1buk2ei75ggmo)" height="86.4141" id="PositionOfShip" style="stroke:#A80036;stroke-width:1.5;" width="393" x="268.5" y="7"/><ellipse cx="417.75" cy="23" fill="#ADD1B2" rx="11" ry="11" style="stroke:#A80036;stroke-width:1.0;"/><path d="M420.0938,18.6719 C419.1563,18.2344 418.5625,18.0938 417.6875,18.0938 C415.0625,18.0938 413.0625,20.1719 413.0625,22.8906 L413.0625,24.0156 C413.0625,26.5938 415.1719,28.4844 418.0625,28.4844 C419.2813,28.4844 420.4375,28.1875 421.1875,27.6406 C421.7656,27.2344 422.0938,26.7813 422.0938,26.3906 C422.0938,25.9375 421.7031,25.5469 421.2344,25.5469 C421.0156,25.5469 420.8125,25.625 420.625,25.8125 C420.1719,26.2969 420.1719,26.2969 419.9844,26.3906 C419.5625,26.6563 418.875,26.7813 418.1094,26.7813 C416.0625,26.7813 414.7656,25.6875 414.7656,23.9844 L414.7656,22.8906 C414.7656,21.1094 416.0156,19.7969 417.75,19.7969 C418.3281,19.7969 418.9375,19.9531 419.4063,20.2031 C419.8906,20.4844 420.0625,20.7031 420.1563,21.1094 C420.2188,21.5156 420.25,21.6406 420.3906,21.7656 C420.5313,21.9063 420.7656,22.0156 420.9844,22.0156 C421.25,22.0156 421.5156,21.875 421.6875,21.6563 C421.7969,21.5 421.8281,21.3125 421.8281,20.8906 L421.8281,19.4688 C421.8281,19.0313 421.8125,18.9063 421.7188,18.75 C421.5625,18.4844 421.2813,18.3438 420.9844,18.3438 C420.6875,18.3438 420.4844,18.4375 420.2656,18.75 L420.0938,18.6719 Z " fill="#000000"/><text fill="#000000" font-family="sans-serif" font-size="12" lengthAdjust="spacing" textLength="86" x="438.25" y="27.1543">PositionOfShip</text><line style="stroke:#A80036;stroke-width:1.5;" x1="269.5" x2="660.5" y1="39" y2="39"/><line style="stroke:#A80036;stroke-width:1.5;" x1="269.5" x2="660.5" y1="47" y2="47"/><text fill="#000000" font-family="sans-serif" font-size="11" lengthAdjust="spacing" textLength="146" x="274.5" y="61.2104">+organizeShipMessage();</text><text fill="#000000" font-family="sans-serif" font-size="11" lengthAdjust="spacing" textLength="267" x="274.5" y="74.0151">+getPositionOfShipData(code, baseDateTime);</text><text fill="#000000" font-family="sans-serif" font-size="11" lengthAdjust="spacing" textLength="381" x="274.5" y="86.8198">+getPositionOfShipPeriod(code, baseDateTime1, baseDateTime2);</text><!--MD5=[02e4b9b7573f1156f41e60aa5b4e25a4]
class Company--><rect codeLine="8" fill="#FEFECE" filter="url(#f1buk2ei75ggmo)" height="73.6094" id="Company" style="stroke:#A80036;stroke-width:1.5;" width="119" x="405.5" y="299"/><ellipse cx="434.45" cy="315" fill="#ADD1B2" rx="11" ry="11" style="stroke:#A80036;stroke-width:1.0;"/><path d="M436.7938,310.6719 C435.8563,310.2344 435.2625,310.0938 434.3875,310.0938 C431.7625,310.0938 429.7625,312.1719 429.7625,314.8906 L429.7625,316.0156 C429.7625,318.5938 431.8719,320.4844 434.7625,320.4844 C435.9813,320.4844 437.1375,320.1875 437.8875,319.6406 C438.4656,319.2344 438.7938,318.7813 438.7938,318.3906 C438.7938,317.9375 438.4031,317.5469 437.9344,317.5469 C437.7156,317.5469 437.5125,317.625 437.325,317.8125 C436.8719,318.2969 436.8719,318.2969 436.6844,318.3906 C436.2625,318.6563 435.575,318.7813 434.8094,318.7813 C432.7625,318.7813 431.4656,317.6875 431.4656,315.9844 L431.4656,314.8906 C431.4656,313.1094 432.7156,311.7969 434.45,311.7969 C435.0281,311.7969 435.6375,311.9531 436.1063,312.2031 C436.5906,312.4844 436.7625,312.7031 436.8563,313.1094 C436.9188,313.5156 436.95,313.6406 437.0906,313.7656 C437.2313,313.9063 437.4656,314.0156 437.6844,314.0156 C437.95,314.0156 438.2156,313.875 438.3875,313.6563 C438.4969,313.5 438.5281,313.3125 438.5281,312.8906 L438.5281,311.4688 C438.5281,311.0313 438.5125,310.9063 438.4188,310.75 C438.2625,310.4844 437.9813,310.3438 437.6844,310.3438 C437.3875,310.3438 437.1844,310.4375 436.9656,310.75 L436.7938,310.6719 Z " fill="#000000"/><text fill="#000000" font-family="sans-serif" font-size="12" lengthAdjust="spacing" textLength="56" x="451.55" y="319.1543">Company</text><line style="stroke:#A80036;stroke-width:1.5;" x1="406.5" x2="523.5" y1="331" y2="331"/><text fill="#000000" font-family="sans-serif" font-size="11" lengthAdjust="spacing" textLength="107" x="411.5" y="345.2104">-String designation</text><line style="stroke:#A80036;stroke-width:1.5;" x1="406.5" x2="523.5" y1="351.8047" y2="351.8047"/><text fill="#000000" font-family="sans-serif" font-size="11" lengthAdjust="spacing" textLength="95" x="411.5" y="366.0151">+getShipStore();</text><!--MD5=[d8a5c6f12add15b22e781f1f574c705d]
class ShipController--><rect codeLine="13" fill="#FEFECE" filter="url(#f1buk2ei75ggmo)" height="86.4141" id="ShipController" style="stroke:#A80036;stroke-width:1.5;" width="393" x="268.5" y="153"/><ellipse cx="418.25" cy="169" fill="#ADD1B2" rx="11" ry="11" style="stroke:#A80036;stroke-width:1.0;"/><path d="M420.5938,164.6719 C419.6563,164.2344 419.0625,164.0938 418.1875,164.0938 C415.5625,164.0938 413.5625,166.1719 413.5625,168.8906 L413.5625,170.0156 C413.5625,172.5938 415.6719,174.4844 418.5625,174.4844 C419.7813,174.4844 420.9375,174.1875 421.6875,173.6406 C422.2656,173.2344 422.5938,172.7813 422.5938,172.3906 C422.5938,171.9375 422.2031,171.5469 421.7344,171.5469 C421.5156,171.5469 421.3125,171.625 421.125,171.8125 C420.6719,172.2969 420.6719,172.2969 420.4844,172.3906 C420.0625,172.6563 419.375,172.7813 418.6094,172.7813 C416.5625,172.7813 415.2656,171.6875 415.2656,169.9844 L415.2656,168.8906 C415.2656,167.1094 416.5156,165.7969 418.25,165.7969 C418.8281,165.7969 419.4375,165.9531 419.9063,166.2031 C420.3906,166.4844 420.5625,166.7031 420.6563,167.1094 C420.7188,167.5156 420.75,167.6406 420.8906,167.7656 C421.0313,167.9063 421.2656,168.0156 421.4844,168.0156 C421.75,168.0156 422.0156,167.875 422.1875,167.6563 C422.2969,167.5 422.3281,167.3125 422.3281,166.8906 L422.3281,165.4688 C422.3281,165.0313 422.3125,164.9063 422.2188,164.75 C422.0625,164.4844 421.7813,164.3438 421.4844,164.3438 C421.1875,164.3438 420.9844,164.4375 420.7656,164.75 L420.5938,164.6719 Z " fill="#000000"/><text fill="#000000" font-family="sans-serif" font-size="12" lengthAdjust="spacing" textLength="85" x="438.75" y="173.1543">ShipController</text><line style="stroke:#A80036;stroke-width:1.5;" x1="269.5" x2="660.5" y1="185" y2="185"/><line style="stroke:#A80036;stroke-width:1.5;" x1="269.5" x2="660.5" y1="193" y2="193"/><text fill="#000000" font-family="sans-serif" font-size="11" lengthAdjust="spacing" textLength="146" x="274.5" y="207.2104">+organizeShipMessage();</text><text fill="#000000" font-family="sans-serif" font-size="11" lengthAdjust="spacing" textLength="267" x="274.5" y="220.0151">+getPositionOfShipData(code, baseDateTime);</text><text fill="#000000" font-family="sans-serif" font-size="11" lengthAdjust="spacing" textLength="381" x="274.5" y="232.8198">+getPositionOfShipPeriod(code, baseDateTime1, baseDateTime2);</text><!--MD5=[ea2206eefe09474e90beb17e18e6b3d8]
class ShipStore--><rect codeLine="19" fill="#FEFECE" filter="url(#f1buk2ei75ggmo)" height="99.2188" id="ShipStore" style="stroke:#A80036;stroke-width:1.5;" width="393" x="268.5" y="433"/><ellipse cx="431.25" cy="449" fill="#ADD1B2" rx="11" ry="11" style="stroke:#A80036;stroke-width:1.0;"/><path d="M433.5938,444.6719 C432.6563,444.2344 432.0625,444.0938 431.1875,444.0938 C428.5625,444.0938 426.5625,446.1719 426.5625,448.8906 L426.5625,450.0156 C426.5625,452.5938 428.6719,454.4844 431.5625,454.4844 C432.7813,454.4844 433.9375,454.1875 434.6875,453.6406 C435.2656,453.2344 435.5938,452.7813 435.5938,452.3906 C435.5938,451.9375 435.2031,451.5469 434.7344,451.5469 C434.5156,451.5469 434.3125,451.625 434.125,451.8125 C433.6719,452.2969 433.6719,452.2969 433.4844,452.3906 C433.0625,452.6563 432.375,452.7813 431.6094,452.7813 C429.5625,452.7813 428.2656,451.6875 428.2656,449.9844 L428.2656,448.8906 C428.2656,447.1094 429.5156,445.7969 431.25,445.7969 C431.8281,445.7969 432.4375,445.9531 432.9063,446.2031 C433.3906,446.4844 433.5625,446.7031 433.6563,447.1094 C433.7188,447.5156 433.75,447.6406 433.8906,447.7656 C434.0313,447.9063 434.2656,448.0156 434.4844,448.0156 C434.75,448.0156 435.0156,447.875 435.1875,447.6563 C435.2969,447.5 435.3281,447.3125 435.3281,446.8906 L435.3281,445.4688 C435.3281,445.0313 435.3125,444.9063 435.2188,444.75 C435.0625,444.4844 434.7813,444.3438 434.4844,444.3438 C434.1875,444.3438 433.9844,444.4375 433.7656,444.75 L433.5938,444.6719 Z " fill="#000000"/><text fill="#000000" font-family="sans-serif" font-size="12" lengthAdjust="spacing" textLength="59" x="451.75" y="453.1543">ShipStore</text><line style="stroke:#A80036;stroke-width:1.5;" x1="269.5" x2="660.5" y1="465" y2="465"/><text fill="#000000" font-family="sans-serif" font-size="11" lengthAdjust="spacing" textLength="135" x="274.5" y="479.2104">-BST &lt;Ship&gt; shipStore;</text><line style="stroke:#A80036;stroke-width:1.5;" x1="269.5" x2="660.5" y1="485.8047" y2="485.8047"/><text fill="#000000" font-family="sans-serif" font-size="11" lengthAdjust="spacing" textLength="146" x="274.5" y="500.0151">+organizeShipMessage();</text><text fill="#000000" font-family="sans-serif" font-size="11" lengthAdjust="spacing" textLength="267" x="274.5" y="512.8198">+getPositionOfShipData(code, baseDateTime);</text><text fill="#000000" font-family="sans-serif" font-size="11" lengthAdjust="spacing" textLength="381" x="274.5" y="525.6245">+getPositionOfShipPeriod(code, baseDateTime1, baseDateTime2);</text><!--MD5=[0dc7f2ddb409b58bcf52b12238c25399]
class Ship--><rect codeLine="27" fill="#FEFECE" filter="url(#f1buk2ei75ggmo)" height="99.2188" id="Ship" style="stroke:#A80036;stroke-width:1.5;" width="212" x="224" y="592"/><ellipse cx="312.75" cy="608" fill="#ADD1B2" rx="11" ry="11" style="stroke:#A80036;stroke-width:1.0;"/><path d="M315.0938,603.6719 C314.1563,603.2344 313.5625,603.0938 312.6875,603.0938 C310.0625,603.0938 308.0625,605.1719 308.0625,607.8906 L308.0625,609.0156 C308.0625,611.5938 310.1719,613.4844 313.0625,613.4844 C314.2813,613.4844 315.4375,613.1875 316.1875,612.6406 C316.7656,612.2344 317.0938,611.7813 317.0938,611.3906 C317.0938,610.9375 316.7031,610.5469 316.2344,610.5469 C316.0156,610.5469 315.8125,610.625 315.625,610.8125 C315.1719,611.2969 315.1719,611.2969 314.9844,611.3906 C314.5625,611.6563 313.875,611.7813 313.1094,611.7813 C311.0625,611.7813 309.7656,610.6875 309.7656,608.9844 L309.7656,607.8906 C309.7656,606.1094 311.0156,604.7969 312.75,604.7969 C313.3281,604.7969 313.9375,604.9531 314.4063,605.2031 C314.8906,605.4844 315.0625,605.7031 315.1563,606.1094 C315.2188,606.5156 315.25,606.6406 315.3906,606.7656 C315.5313,606.9063 315.7656,607.0156 315.9844,607.0156 C316.25,607.0156 316.5156,606.875 316.6875,606.6563 C316.7969,606.5 316.8281,606.3125 316.8281,605.8906 L316.8281,604.4688 C316.8281,604.0313 316.8125,603.9063 316.7188,603.75 C316.5625,603.4844 316.2813,603.3438 315.9844,603.3438 C315.6875,603.3438 315.4844,603.4375 315.2656,603.75 L315.0938,603.6719 Z " fill="#000000"/><text fill="#000000" font-family="sans-serif" font-size="12" lengthAdjust="spacing" textLength="26" x="333.25" y="612.1543">Ship</text><line style="stroke:#A80036;stroke-width:1.5;" x1="225" x2="435" y1="624" y2="624"/><text fill="#000000" font-family="sans-serif" font-size="11" lengthAdjust="spacing" textLength="117" x="230" y="638.2104">-Identification shipId;</text><text fill="#000000" font-family="sans-serif" font-size="11" lengthAdjust="spacing" textLength="200" x="230" y="651.0151">-ShipCharacteristics characteristics;</text><text fill="#000000" font-family="sans-serif" font-size="11" lengthAdjust="spacing" textLength="74" x="230" y="663.8198">-Route route;</text><text fill="#000000" font-family="sans-serif" font-size="11" lengthAdjust="spacing" textLength="9" x="230" y="676.6245">...</text><line style="stroke:#A80036;stroke-width:1.5;" x1="225" x2="435" y1="683.2188" y2="683.2188"/><!--MD5=[fc92a9f5bb5fae84dd7fa4034e6b4444]
class Route--><rect codeLine="34" fill="#FEFECE" filter="url(#f1buk2ei75ggmo)" height="73.6094" id="Route" style="stroke:#A80036;stroke-width:1.5;" width="158" x="7" y="770"/><ellipse cx="64.75" cy="786" fill="#ADD1B2" rx="11" ry="11" style="stroke:#A80036;stroke-width:1.0;"/><path d="M67.0938,781.6719 C66.1563,781.2344 65.5625,781.0938 64.6875,781.0938 C62.0625,781.0938 60.0625,783.1719 60.0625,785.8906 L60.0625,787.0156 C60.0625,789.5938 62.1719,791.4844 65.0625,791.4844 C66.2813,791.4844 67.4375,791.1875 68.1875,790.6406 C68.7656,790.2344 69.0938,789.7813 69.0938,789.3906 C69.0938,788.9375 68.7031,788.5469 68.2344,788.5469 C68.0156,788.5469 67.8125,788.625 67.625,788.8125 C67.1719,789.2969 67.1719,789.2969 66.9844,789.3906 C66.5625,789.6563 65.875,789.7813 65.1094,789.7813 C63.0625,789.7813 61.7656,788.6875 61.7656,786.9844 L61.7656,785.8906 C61.7656,784.1094 63.0156,782.7969 64.75,782.7969 C65.3281,782.7969 65.9375,782.9531 66.4063,783.2031 C66.8906,783.4844 67.0625,783.7031 67.1563,784.1094 C67.2188,784.5156 67.25,784.6406 67.3906,784.7656 C67.5313,784.9063 67.7656,785.0156 67.9844,785.0156 C68.25,785.0156 68.5156,784.875 68.6875,784.6563 C68.7969,784.5 68.8281,784.3125 68.8281,783.8906 L68.8281,782.4688 C68.8281,782.0313 68.8125,781.9063 68.7188,781.75 C68.5625,781.4844 68.2813,781.3438 67.9844,781.3438 C67.6875,781.3438 67.4844,781.4375 67.2656,781.75 L67.0938,781.6719 Z " fill="#000000"/><text fill="#000000" font-family="sans-serif" font-size="12" lengthAdjust="spacing" textLength="34" x="85.25" y="790.1543">Route</text><line style="stroke:#A80036;stroke-width:1.5;" x1="8" x2="164" y1="802" y2="802"/><text fill="#000000" font-family="sans-serif" font-size="11" lengthAdjust="spacing" textLength="146" x="13" y="816.2104">List&lt;ShipDynamic&gt; route</text><text fill="#000000" font-family="sans-serif" font-size="11" lengthAdjust="spacing" textLength="9" x="13" y="829.0151">...</text><line style="stroke:#A80036;stroke-width:1.5;" x1="8" x2="164" y1="835.6094" y2="835.6094"/><!--MD5=[9a305ff8ded9dfea1b145311e23eef54]
class ShipCharacteristics--><rect codeLine="39" fill="#FEFECE" filter="url(#f1buk2ei75ggmo)" height="112.0234" id="ShipCharacteristics" style="stroke:#A80036;stroke-width:1.5;" width="147" x="200.5" y="751"/><ellipse cx="215.5" cy="767" fill="#ADD1B2" rx="11" ry="11" style="stroke:#A80036;stroke-width:1.0;"/><path d="M217.8438,762.6719 C216.9063,762.2344 216.3125,762.0938 215.4375,762.0938 C212.8125,762.0938 210.8125,764.1719 210.8125,766.8906 L210.8125,768.0156 C210.8125,770.5938 212.9219,772.4844 215.8125,772.4844 C217.0313,772.4844 218.1875,772.1875 218.9375,771.6406 C219.5156,771.2344 219.8438,770.7813 219.8438,770.3906 C219.8438,769.9375 219.4531,769.5469 218.9844,769.5469 C218.7656,769.5469 218.5625,769.625 218.375,769.8125 C217.9219,770.2969 217.9219,770.2969 217.7344,770.3906 C217.3125,770.6563 216.625,770.7813 215.8594,770.7813 C213.8125,770.7813 212.5156,769.6875 212.5156,767.9844 L212.5156,766.8906 C212.5156,765.1094 213.7656,763.7969 215.5,763.7969 C216.0781,763.7969 216.6875,763.9531 217.1563,764.2031 C217.6406,764.4844 217.8125,764.7031 217.9063,765.1094 C217.9688,765.5156 218,765.6406 218.1406,765.7656 C218.2813,765.9063 218.5156,766.0156 218.7344,766.0156 C219,766.0156 219.2656,765.875 219.4375,765.6563 C219.5469,765.5 219.5781,765.3125 219.5781,764.8906 L219.5781,763.4688 C219.5781,763.0313 219.5625,762.9063 219.4688,762.75 C219.3125,762.4844 219.0313,762.3438 218.7344,762.3438 C218.4375,762.3438 218.2344,762.4375 218.0156,762.75 L217.8438,762.6719 Z " fill="#000000"/><text fill="#000000" font-family="sans-serif" font-size="12" lengthAdjust="spacing" textLength="115" x="229.5" y="771.1543">ShipCharacteristics</text><line style="stroke:#A80036;stroke-width:1.5;" x1="201.5" x2="346.5" y1="783" y2="783"/><text fill="#000000" font-family="sans-serif" font-size="11" lengthAdjust="spacing" textLength="88" x="206.5" y="797.2104">int vesselType;</text><text fill="#000000" font-family="sans-serif" font-size="11" lengthAdjust="spacing" textLength="82" x="206.5" y="810.0151">double length;</text><text fill="#000000" font-family="sans-serif" font-size="11" lengthAdjust="spacing" textLength="76" x="206.5" y="822.8198">double width;</text><text fill="#000000" font-family="sans-serif" font-size="11" lengthAdjust="spacing" textLength="72" x="206.5" y="835.6245">double draft;</text><text fill="#000000" font-family="sans-serif" font-size="11" lengthAdjust="spacing" textLength="9" x="206.5" y="848.4292">...</text><line style="stroke:#A80036;stroke-width:1.5;" x1="201.5" x2="346.5" y1="855.0234" y2="855.0234"/><!--MD5=[82dc263f563d227779ba81db65b2fd4d]
class Identification--><rect codeLine="46" fill="#FEFECE" filter="url(#f1buk2ei75ggmo)" height="99.2188" id="Identification" style="stroke:#A80036;stroke-width:1.5;" width="109" x="382.5" y="757.5"/><ellipse cx="397.95" cy="773.5" fill="#ADD1B2" rx="11" ry="11" style="stroke:#A80036;stroke-width:1.0;"/><path d="M400.2938,769.1719 C399.3563,768.7344 398.7625,768.5938 397.8875,768.5938 C395.2625,768.5938 393.2625,770.6719 393.2625,773.3906 L393.2625,774.5156 C393.2625,777.0938 395.3719,778.9844 398.2625,778.9844 C399.4813,778.9844 400.6375,778.6875 401.3875,778.1406 C401.9656,777.7344 402.2938,777.2813 402.2938,776.8906 C402.2938,776.4375 401.9031,776.0469 401.4344,776.0469 C401.2156,776.0469 401.0125,776.125 400.825,776.3125 C400.3719,776.7969 400.3719,776.7969 400.1844,776.8906 C399.7625,777.1563 399.075,777.2813 398.3094,777.2813 C396.2625,777.2813 394.9656,776.1875 394.9656,774.4844 L394.9656,773.3906 C394.9656,771.6094 396.2156,770.2969 397.95,770.2969 C398.5281,770.2969 399.1375,770.4531 399.6063,770.7031 C400.0906,770.9844 400.2625,771.2031 400.3563,771.6094 C400.4188,772.0156 400.45,772.1406 400.5906,772.2656 C400.7313,772.4063 400.9656,772.5156 401.1844,772.5156 C401.45,772.5156 401.7156,772.375 401.8875,772.1563 C401.9969,772 402.0281,771.8125 402.0281,771.3906 L402.0281,769.9688 C402.0281,769.5313 402.0125,769.4063 401.9188,769.25 C401.7625,768.9844 401.4813,768.8438 401.1844,768.8438 C400.8875,768.8438 400.6844,768.9375 400.4656,769.25 L400.2938,769.1719 Z " fill="#000000"/><text fill="#000000" font-family="sans-serif" font-size="12" lengthAdjust="spacing" textLength="76" x="412.05" y="777.6543">Identification</text><line style="stroke:#A80036;stroke-width:1.5;" x1="383.5" x2="490.5" y1="789.5" y2="789.5"/><text fill="#000000" font-family="sans-serif" font-size="11" lengthAdjust="spacing" textLength="71" x="388.5" y="803.7104">String mmsi;</text><text fill="#000000" font-family="sans-serif" font-size="11" lengthAdjust="spacing" textLength="97" x="388.5" y="816.5151">String shipName;</text><text fill="#000000" font-family="sans-serif" font-size="11" lengthAdjust="spacing" textLength="73" x="388.5" y="829.3198">String imoID;</text><text fill="#000000" font-family="sans-serif" font-size="11" lengthAdjust="spacing" textLength="82" x="388.5" y="842.1245">String callsign;</text><line style="stroke:#A80036;stroke-width:1.5;" x1="383.5" x2="490.5" y1="848.7188" y2="848.7188"/><!--MD5=[19c2b9eb46691e25b02426140995a460]
class ShipDynamic--><rect codeLine="52" fill="#FEFECE" filter="url(#f1buk2ei75ggmo)" height="176.0469" id="ShipDynamic" style="stroke:#A80036;stroke-width:1.5;" width="138" x="246" y="923"/><ellipse cx="274.05" cy="939" fill="#ADD1B2" rx="11" ry="11" style="stroke:#A80036;stroke-width:1.0;"/><path d="M276.3938,934.6719 C275.4563,934.2344 274.8625,934.0938 273.9875,934.0938 C271.3625,934.0938 269.3625,936.1719 269.3625,938.8906 L269.3625,940.0156 C269.3625,942.5938 271.4719,944.4844 274.3625,944.4844 C275.5813,944.4844 276.7375,944.1875 277.4875,943.6406 C278.0656,943.2344 278.3938,942.7813 278.3938,942.3906 C278.3938,941.9375 278.0031,941.5469 277.5344,941.5469 C277.3156,941.5469 277.1125,941.625 276.925,941.8125 C276.4719,942.2969 276.4719,942.2969 276.2844,942.3906 C275.8625,942.6563 275.175,942.7813 274.4094,942.7813 C272.3625,942.7813 271.0656,941.6875 271.0656,939.9844 L271.0656,938.8906 C271.0656,937.1094 272.3156,935.7969 274.05,935.7969 C274.6281,935.7969 275.2375,935.9531 275.7063,936.2031 C276.1906,936.4844 276.3625,936.7031 276.4563,937.1094 C276.5188,937.5156 276.55,937.6406 276.6906,937.7656 C276.8313,937.9063 277.0656,938.0156 277.2844,938.0156 C277.55,938.0156 277.8156,937.875 277.9875,937.6563 C278.0969,937.5 278.1281,937.3125 278.1281,936.8906 L278.1281,935.4688 C278.1281,935.0313 278.1125,934.9063 278.0188,934.75 C277.8625,934.4844 277.5813,934.3438 277.2844,934.3438 C276.9875,934.3438 276.7844,934.4375 276.5656,934.75 L276.3938,934.6719 Z " fill="#000000"/><text fill="#000000" font-family="sans-serif" font-size="12" lengthAdjust="spacing" textLength="77" x="290.95" y="943.1543">ShipDynamic</text><line style="stroke:#A80036;stroke-width:1.5;" x1="247" x2="383" y1="955" y2="955"/><text fill="#000000" font-family="sans-serif" font-size="11" lengthAdjust="spacing" textLength="126" x="252" y="969.2104">-String baseDateTime</text><text fill="#000000" font-family="sans-serif" font-size="11" lengthAdjust="spacing" textLength="73" x="252" y="982.0151">-double SOG</text><text fill="#000000" font-family="sans-serif" font-size="11" lengthAdjust="spacing" textLength="73" x="252" y="994.8198">-double COG</text><text fill="#000000" font-family="sans-serif" font-size="11" lengthAdjust="spacing" textLength="90" x="252" y="1007.6245">-double latitude</text><text fill="#000000" font-family="sans-serif" font-size="11" lengthAdjust="spacing" textLength="100" x="252" y="1020.4292">-double longitude</text><line style="stroke:#A80036;stroke-width:1.5;" x1="247" x2="383" y1="1027.0234" y2="1027.0234"/><text fill="#000000" font-family="sans-serif" font-size="11" lengthAdjust="spacing" textLength="122" x="252" y="1041.2339">+getBaseDateTime()</text><text fill="#000000" font-family="sans-serif" font-size="11" lengthAdjust="spacing" textLength="62" x="252" y="1054.0386">+getSOG()</text><text fill="#000000" font-family="sans-serif" font-size="11" lengthAdjust="spacing" textLength="62" x="252" y="1066.8433">+getCOG()</text><text fill="#000000" font-family="sans-serif" font-size="11" lengthAdjust="spacing" textLength="82" x="252" y="1079.6479">+getLatitude()</text><text fill="#000000" font-family="sans-serif" font-size="11" lengthAdjust="spacing" textLength="92" x="252" y="1092.4526">+getLongitude()</text><!--MD5=[cece93bce9e757153d84f2cfbf72ae38]
link PositionOfShip to ShipController--><path codeLine="64" d="M465,93.04 C465,110.04 465,129.756 465,147.293 " fill="none" id="PositionOfShip-to-ShipController" style="stroke:#A80036;stroke-width:1.0;stroke-dasharray:7.0,7.0;"/><polygon fill="#A80036" points="465,152.661,469,143.661,465,147.661,461,143.661,465,152.661" style="stroke:#A80036;stroke-width:1.0;"/><!--MD5=[bf74851aff38bc49bd5171b1d2f8ce12]
link ShipController to Company--><path codeLine="65" d="M465,239.154 C465,256.394 465,276.283 465,293.46 " fill="none" id="ShipController-to-Company" style="stroke:#A80036;stroke-width:1.0;stroke-dasharray:7.0,7.0;"/><polygon fill="#A80036" points="465,298.697,469,289.697,465,293.697,461,289.697,465,298.697" style="stroke:#A80036;stroke-width:1.0;"/><!--MD5=[6b4a94d80660e97c6833bde801bd4c89]
link Company to ShipStore--><path codeLine="66" d="M465,373.091 C465,389.595 465,409.492 465,427.71 " fill="none" id="Company-to-ShipStore" style="stroke:#A80036;stroke-width:1.0;"/><polygon fill="#A80036" points="465,432.799,469,423.799,465,427.799,461,423.799,465,432.799" style="stroke:#A80036;stroke-width:1.0;"/><!--MD5=[f04e04ecc6998d67821b33eb17256457]
link ShipStore to Ship--><path codeLine="67" d="M423.025,532.315 C407.842,549.973 390.638,569.981 375.19,587.946 " fill="none" id="ShipStore-to-Ship" style="stroke:#A80036;stroke-width:1.0;"/><polygon fill="#A80036" points="371.717,591.985,380.6177,587.7686,374.9768,588.1938,374.5517,582.5529,371.717,591.985" style="stroke:#A80036;stroke-width:1.0;"/><!--MD5=[bd668f20969913e971975f69d50ab766]
link Ship to Route--><path codeLine="68" d="M257.453,691.113 C221.422,715.256 178.465,744.041 144.562,766.758 " fill="none" id="Ship-to-Route" style="stroke:#A80036;stroke-width:1.0;"/><polygon fill="#A80036" points="140.052,769.781,149.7555,768.0954,144.2061,766.9983,145.3032,761.4488,140.052,769.781" style="stroke:#A80036;stroke-width:1.0;"/><!--MD5=[6e2bf1b581922c3b45ac635d439704bd]
link Route to ShipDynamic--><path codeLine="69" d="M126.941,844.114 C158.717,872.143 203.601,911.736 241.551,945.211 " fill="none" id="Route-to-ShipDynamic" style="stroke:#A80036;stroke-width:1.0;"/><polygon fill="#A80036" points="245.671,948.845,241.5667,939.8921,241.921,945.5378,236.2752,945.8921,245.671,948.845" style="stroke:#A80036;stroke-width:1.0;"/><!--MD5=[cea53bfc3a0979f95c62d6169ab9fc2e]
link Ship to ShipCharacteristics--><path codeLine="70" d="M313.35,691.113 C307.456,708.321 300.754,727.888 294.573,745.934 " fill="none" id="Ship-to-ShipCharacteristics" style="stroke:#A80036;stroke-width:1.0;"/><polygon fill="#A80036" points="292.844,750.981,299.5444,743.7626,294.4641,746.2507,291.976,741.1705,292.844,750.981" style="stroke:#A80036;stroke-width:1.0;"/><!--MD5=[b548f9cab810c886ef8d517236ce8553]
link Ship to Identification--><path codeLine="71" d="M361.814,691.113 C374.582,710.622 389.333,733.163 402.369,753.083 " fill="none" id="Ship-to-Identification" style="stroke:#A80036;stroke-width:1.0;"/><polygon fill="#A80036" points="405.124,757.292,403.5407,747.5712,402.3852,753.1088,396.8476,751.9533,405.124,757.292" style="stroke:#A80036;stroke-width:1.0;"/><!--MD5=[21dd75de7cd3b7e472d74c930a10f5e3]
link ShipStore to ShipDynamic--><path codeLine="73" d="M486.994,532.269 C517.446,607.486 562.94,754.451 509,863 C483.911,913.489 432.28,951.279 388.587,975.893 " fill="none" id="ShipStore-to-ShipDynamic" style="stroke:#A80036;stroke-width:1.0;stroke-dasharray:7.0,7.0;"/><polygon fill="#A80036" points="384.115,978.382,393.9243,977.5002,388.4839,975.9504,390.0337,970.51,384.115,978.382" style="stroke:#A80036;stroke-width:1.0;"/><!--MD5=[f0f1a717714cbf25b5705a95409f0a20]
@startuml
skinparam classAttributeIconSize 0

class PositionOfShip {
  +organizeShipMessage();
+getPositionOfShipData(code, baseDateTime);
+getPositionOfShipPeriod(code, baseDateTime1, baseDateTime2);
}
class Company {
  -String designation
  +getShipStore();
}

class ShipController {
+organizeShipMessage();
+getPositionOfShipData(code, baseDateTime);
+getPositionOfShipPeriod(code, baseDateTime1, baseDateTime2);
}

class ShipStore {
-BST <Ship> shipStore;
+organizeShipMessage();
+getPositionOfShipData(code, baseDateTime);
+getPositionOfShipPeriod(code, baseDateTime1, baseDateTime2);

}

class Ship {
-Identification shipId;
-ShipCharacteristics characteristics;
-Route route;
...
}

class Route {
List<ShipDynamic> route
...
}

class ShipCharacteristics {
int vesselType;
double length;
double width;
double draft;
...
}
class Identification {
String mmsi;
String shipName;
String imoID;
String callsign;
}
class ShipDynamic {
-String baseDateTime
-double SOG
-double COG
-double latitude
-double longitude
+getBaseDateTime()
+getSOG()
+getCOG()
+getLatitude()
+getLongitude()
}
PositionOfShip ..> ShipController
ShipController ..> Company
Company - -> ShipStore
ShipStore - -> Ship
Ship - -> Route
Route - -> ShipDynamic
Ship - ->ShipCharacteristics
Ship - -> Identification

ShipStore ..> ShipDynamic
@enduml

PlantUML version 1.2021.13beta8(Unknown compile time)
(GPL source distribution)
Java Runtime: Java(TM) SE Runtime Environment
JVM: Java HotSpot(TM) 64-Bit Server VM
Default Encoding: UTF-8
Language: en
Country: US
--></g></svg>