<?xml version="1.0" encoding="UTF-8" standalone="no"?><svg xmlns="http://www.w3.org/2000/svg" xmlns:xlink="http://www.w3.org/1999/xlink" contentScriptType="application/ecmascript" contentStyleType="text/css" height="782px" preserveAspectRatio="none" style="width:1676px;height:782px;background:#FFFFFF;" version="1.1" viewBox="0 0 1676 782" width="1676px" zoomAndPan="magnify"><defs><filter height="300%" id="f1suyzwrx7me58" width="300%" x="-1" y="-1"><feGaussianBlur result="blurOut" stdDeviation="2.0"/><feColorMatrix in="blurOut" result="blurOut2" type="matrix" values="0 0 0 0 0 0 0 0 0 0 0 0 0 0 0 0 0 0 .4 0"/><feOffset dx="4.0" dy="4.0" in="blurOut2" result="blurOut3"/><feBlend in="SourceGraphic" in2="blurOut3" mode="normal"/></filter></defs><g><rect fill="#FFFFFF" filter="url(#f1suyzwrx7me58)" height="591.3203" style="stroke:#A80036;stroke-width:1.0;" width="10" x="57" y="98.2969"/><rect fill="#FFFFFF" filter="url(#f1suyzwrx7me58)" height="235.6641" style="stroke:#A80036;stroke-width:1.0;" width="10" x="393" y="119.4297"/><rect fill="#FFFFFF" filter="url(#f1suyzwrx7me58)" height="296.3906" style="stroke:#A80036;stroke-width:1.0;" width="10" x="393" y="384.2266"/><rect fill="#FFFFFF" filter="url(#f1suyzwrx7me58)" height="177.3984" style="stroke:#A80036;stroke-width:1.0;" width="10" x="681" y="148.5625"/><rect fill="#FFFFFF" filter="url(#f1suyzwrx7me58)" height="238.125" style="stroke:#A80036;stroke-width:1.0;" width="10" x="681" y="413.3594"/><rect fill="#FFFFFF" filter="url(#f1suyzwrx7me58)" height="30" style="stroke:#A80036;stroke-width:1.0;" width="10" x="840" y="177.6953"/><rect fill="#FFFFFF" filter="url(#f1suyzwrx7me58)" height="30" style="stroke:#A80036;stroke-width:1.0;" width="10" x="840" y="442.4922"/><rect fill="#FFFFFF" filter="url(#f1suyzwrx7me58)" height="30" style="stroke:#A80036;stroke-width:1.0;" width="10" x="1090" y="236.8281"/><rect fill="#FFFFFF" filter="url(#f1suyzwrx7me58)" height="30" style="stroke:#A80036;stroke-width:1.0;" width="10" x="1090" y="295.9609"/><rect fill="#FFFFFF" filter="url(#f1suyzwrx7me58)" height="120.7266" style="stroke:#A80036;stroke-width:1.0;" width="10" x="1090" y="501.625"/><line style="stroke:#A80036;stroke-width:1.0;stroke-dasharray:5.0,5.0;" x1="62" x2="62" y1="88.2969" y2="698.6172"/><line style="stroke:#A80036;stroke-width:1.0;stroke-dasharray:5.0,5.0;" x1="398" x2="398" y1="88.2969" y2="698.6172"/><line style="stroke:#A80036;stroke-width:1.0;stroke-dasharray:5.0,5.0;" x1="686" x2="686" y1="88.2969" y2="698.6172"/><line style="stroke:#A80036;stroke-width:1.0;stroke-dasharray:5.0,5.0;" x1="844.5" x2="844.5" y1="88.2969" y2="698.6172"/><line style="stroke:#A80036;stroke-width:1.0;stroke-dasharray:5.0,5.0;" x1="1095" x2="1095" y1="88.2969" y2="698.6172"/><line style="stroke:#A80036;stroke-width:1.0;stroke-dasharray:5.0,5.0;" x1="1515" x2="1515" y1="580.4219" y2="698.6172"/><line style="stroke:#A80036;stroke-width:1.0;stroke-dasharray:5.0,5.0;" x1="1638" x2="1638" y1="88.2969" y2="698.6172"/><text fill="#000000" font-family="sans-serif" font-size="14" lengthAdjust="spacing" textLength="108" x="5" y="84.9951">TrafficManager</text><ellipse cx="62" cy="15" fill="#FEFECE" filter="url(#f1suyzwrx7me58)" rx="8" ry="8" style="stroke:#A80036;stroke-width:2.0;"/><path d="M62,23 L62,50 M49,31 L75,31 M62,50 L49,65 M62,50 L75,65 " fill="none" filter="url(#f1suyzwrx7me58)" style="stroke:#A80036;stroke-width:2.0;"/><text fill="#000000" font-family="sans-serif" font-size="14" lengthAdjust="spacing" textLength="108" x="5" y="710.6123">TrafficManager</text><ellipse cx="62" cy="723.9141" fill="#FEFECE" filter="url(#f1suyzwrx7me58)" rx="8" ry="8" style="stroke:#A80036;stroke-width:2.0;"/><path d="M62,731.9141 L62,758.9141 M49,739.9141 L75,739.9141 M62,758.9141 L49,773.9141 M62,758.9141 L75,773.9141 " fill="none" filter="url(#f1suyzwrx7me58)" style="stroke:#A80036;stroke-width:2.0;"/><rect fill="#FEFECE" filter="url(#f1suyzwrx7me58)" height="30.2969" style="stroke:#A80036;stroke-width:1.5;" width="126" x="333" y="53"/><text fill="#000000" font-family="sans-serif" font-size="14" lengthAdjust="spacing" textLength="112" x="340" y="72.9951">:PositionOfShip</text><rect fill="#FEFECE" filter="url(#f1suyzwrx7me58)" height="30.2969" style="stroke:#A80036;stroke-width:1.5;" width="126" x="333" y="697.6172"/><text fill="#000000" font-family="sans-serif" font-size="14" lengthAdjust="spacing" textLength="112" x="340" y="717.6123">:PositionOfShip</text><rect fill="#FEFECE" filter="url(#f1suyzwrx7me58)" height="30.2969" style="stroke:#A80036;stroke-width:1.5;" width="124" x="622" y="53"/><text fill="#000000" font-family="sans-serif" font-size="14" lengthAdjust="spacing" textLength="110" x="629" y="72.9951">:ShipController</text><rect fill="#FEFECE" filter="url(#f1suyzwrx7me58)" height="30.2969" style="stroke:#A80036;stroke-width:1.5;" width="124" x="622" y="697.6172"/><text fill="#000000" font-family="sans-serif" font-size="14" lengthAdjust="spacing" textLength="110" x="629" y="717.6123">:ShipController</text><rect fill="#FEFECE" filter="url(#f1suyzwrx7me58)" height="30.2969" style="stroke:#A80036;stroke-width:1.5;" width="87" x="799.5" y="53"/><text fill="#000000" font-family="sans-serif" font-size="14" lengthAdjust="spacing" textLength="73" x="806.5" y="72.9951">:Company</text><rect fill="#FEFECE" filter="url(#f1suyzwrx7me58)" height="30.2969" style="stroke:#A80036;stroke-width:1.5;" width="87" x="799.5" y="697.6172"/><text fill="#000000" font-family="sans-serif" font-size="14" lengthAdjust="spacing" textLength="73" x="806.5" y="717.6123">:Company</text><rect fill="#FEFECE" filter="url(#f1suyzwrx7me58)" height="46.5938" style="stroke:#A80036;stroke-width:1.5;" width="86" x="1050" y="36.7031"/><text fill="#000000" font-family="sans-serif" font-size="14" lengthAdjust="spacing" textLength="22" x="1082" y="56.6982">sp:</text><text fill="#000000" font-family="sans-serif" font-size="14" lengthAdjust="spacing" textLength="72" x="1057" y="72.9951">ShipStore</text><rect fill="#FEFECE" filter="url(#f1suyzwrx7me58)" height="46.5938" style="stroke:#A80036;stroke-width:1.5;" width="86" x="1050" y="697.6172"/><text fill="#000000" font-family="sans-serif" font-size="14" lengthAdjust="spacing" textLength="22" x="1082" y="717.6123">sp:</text><text fill="#000000" font-family="sans-serif" font-size="14" lengthAdjust="spacing" textLength="72" x="1057" y="733.9092">ShipStore</text><rect fill="#FEFECE" filter="url(#f1suyzwrx7me58)" height="46.5938" style="stroke:#A80036;stroke-width:1.5;" width="167" x="1430" y="697.6172"/><text fill="#000000" font-family="sans-serif" font-size="14" lengthAdjust="spacing" textLength="55" x="1486" y="717.6123">listDyn:</text><text fill="#000000" font-family="sans-serif" font-size="14" lengthAdjust="spacing" textLength="153" x="1437" y="733.9092">List &lt;ShipDynamics&gt;</text><rect fill="#FEFECE" filter="url(#f1suyzwrx7me58)" height="30.2969" style="stroke:#A80036;stroke-width:1.5;" width="51" x="1611" y="53"/><text fill="#000000" font-family="sans-serif" font-size="14" lengthAdjust="spacing" textLength="37" x="1618" y="72.9951">:Ship</text><rect fill="#FEFECE" filter="url(#f1suyzwrx7me58)" height="30.2969" style="stroke:#A80036;stroke-width:1.5;" width="51" x="1611" y="697.6172"/><text fill="#000000" font-family="sans-serif" font-size="14" lengthAdjust="spacing" textLength="37" x="1618" y="717.6123">:Ship</text><rect fill="#FFFFFF" filter="url(#f1suyzwrx7me58)" height="591.3203" style="stroke:#A80036;stroke-width:1.0;" width="10" x="57" y="98.2969"/><rect fill="#FFFFFF" filter="url(#f1suyzwrx7me58)" height="235.6641" style="stroke:#A80036;stroke-width:1.0;" width="10" x="393" y="119.4297"/><rect fill="#FFFFFF" filter="url(#f1suyzwrx7me58)" height="296.3906" style="stroke:#A80036;stroke-width:1.0;" width="10" x="393" y="384.2266"/><rect fill="#FFFFFF" filter="url(#f1suyzwrx7me58)" height="177.3984" style="stroke:#A80036;stroke-width:1.0;" width="10" x="681" y="148.5625"/><rect fill="#FFFFFF" filter="url(#f1suyzwrx7me58)" height="238.125" style="stroke:#A80036;stroke-width:1.0;" width="10" x="681" y="413.3594"/><rect fill="#FFFFFF" filter="url(#f1suyzwrx7me58)" height="30" style="stroke:#A80036;stroke-width:1.0;" width="10" x="840" y="177.6953"/><rect fill="#FFFFFF" filter="url(#f1suyzwrx7me58)" height="30" style="stroke:#A80036;stroke-width:1.0;" width="10" x="840" y="442.4922"/><rect fill="#FFFFFF" filter="url(#f1suyzwrx7me58)" height="30" style="stroke:#A80036;stroke-width:1.0;" width="10" x="1090" y="236.8281"/><rect fill="#FFFFFF" filter="url(#f1suyzwrx7me58)" height="30" style="stroke:#A80036;stroke-width:1.0;" width="10" x="1090" y="295.9609"/><rect fill="#FFFFFF" filter="url(#f1suyzwrx7me58)" height="120.7266" style="stroke:#A80036;stroke-width:1.0;" width="10" x="1090" y="501.625"/><polygon fill="#A80036" points="381,115.4297,391,119.4297,381,123.4297,385,119.4297" style="stroke:#A80036;stroke-width:1.0;"/><line style="stroke:#A80036;stroke-width:1.0;" x1="67" x2="387" y1="119.4297" y2="119.4297"/><text fill="#000000" font-family="sans-serif" font-size="13" lengthAdjust="spacing" textLength="37" x="74" y="114.3638">starts</text><polygon fill="#A80036" points="669,144.5625,679,148.5625,669,152.5625,673,148.5625" style="stroke:#A80036;stroke-width:1.0;"/><line style="stroke:#A80036;stroke-width:1.0;" x1="403" x2="675" y1="148.5625" y2="148.5625"/><text fill="#000000" font-family="sans-serif" font-size="13" lengthAdjust="spacing" textLength="221" x="410" y="143.4966">organizeShipPositionalMessages();</text><polygon fill="#A80036" points="828,173.6953,838,177.6953,828,181.6953,832,177.6953" style="stroke:#A80036;stroke-width:1.0;"/><line style="stroke:#A80036;stroke-width:1.0;" x1="691" x2="834" y1="177.6953" y2="177.6953"/><text fill="#000000" font-family="sans-serif" font-size="13" lengthAdjust="spacing" textLength="130" x="698" y="172.6294">sp = getShipStore();</text><polygon fill="#A80036" points="1078,232.8281,1088,236.8281,1078,240.8281,1082,236.8281" style="stroke:#A80036;stroke-width:1.0;"/><line style="stroke:#A80036;stroke-width:1.0;" x1="691" x2="1084" y1="236.8281" y2="236.8281"/><text fill="#000000" font-family="sans-serif" font-size="13" lengthAdjust="spacing" textLength="140" x="698" y="231.7622">ships = sp.getShips();</text><polygon fill="#A80036" points="1078,291.9609,1088,295.9609,1078,299.9609,1082,295.9609" style="stroke:#A80036;stroke-width:1.0;"/><line style="stroke:#A80036;stroke-width:1.0;" x1="691" x2="1084" y1="295.9609" y2="295.9609"/><text fill="#000000" font-family="sans-serif" font-size="13" lengthAdjust="spacing" textLength="273" x="698" y="290.895">sp.organizeShipPositionalMessages(ships);</text><polygon fill="#A80036" points="78,351.0938,68,355.0938,78,359.0938,74,355.0938" style="stroke:#A80036;stroke-width:1.0;"/><line style="stroke:#A80036;stroke-width:1.0;stroke-dasharray:2.0,2.0;" x1="72" x2="397" y1="355.0938" y2="355.0938"/><text fill="#000000" font-family="sans-serif" font-size="13" lengthAdjust="spacing" textLength="15" x="84" y="350.0278">ok</text><polygon fill="#A80036" points="381,380.2266,391,384.2266,381,388.2266,385,384.2266" style="stroke:#A80036;stroke-width:1.0;"/><line style="stroke:#A80036;stroke-width:1.0;stroke-dasharray:2.0,2.0;" x1="67" x2="387" y1="384.2266" y2="384.2266"/><text fill="#000000" font-family="sans-serif" font-size="13" lengthAdjust="spacing" textLength="307" x="74" y="379.1606">check ship position value (code, baseDateTime)</text><polygon fill="#A80036" points="669,409.3594,679,413.3594,669,417.3594,673,413.3594" style="stroke:#A80036;stroke-width:1.0;"/><line style="stroke:#A80036;stroke-width:1.0;" x1="403" x2="675" y1="413.3594" y2="413.3594"/><text fill="#000000" font-family="sans-serif" font-size="13" lengthAdjust="spacing" textLength="259" x="410" y="408.2935">acessShipPostion(code, baseDateTime);</text><polygon fill="#A80036" points="828,438.4922,838,442.4922,828,446.4922,832,442.4922" style="stroke:#A80036;stroke-width:1.0;"/><line style="stroke:#A80036;stroke-width:1.0;" x1="691" x2="834" y1="442.4922" y2="442.4922"/><text fill="#000000" font-family="sans-serif" font-size="13" lengthAdjust="spacing" textLength="130" x="698" y="437.4263">sp = getShipStore();</text><polygon fill="#A80036" points="1078,497.625,1088,501.625,1078,505.625,1082,501.625" style="stroke:#A80036;stroke-width:1.0;"/><line style="stroke:#A80036;stroke-width:1.0;" x1="691" x2="1084" y1="501.625" y2="501.625"/><text fill="#000000" font-family="sans-serif" font-size="13" lengthAdjust="spacing" textLength="380" x="698" y="496.5591">listDyn = sp.acessShipPosition(code,baseDateTime, ships);</text><polygon fill="#A80036" points="1418,556.7578,1428,560.7578,1418,564.7578,1422,560.7578" style="stroke:#A80036;stroke-width:1.0;"/><line style="stroke:#A80036;stroke-width:1.0;stroke-dasharray:2.0,2.0;" x1="1100" x2="1424" y1="560.7578" y2="560.7578"/><text fill="#000000" font-family="sans-serif" font-size="13" lengthAdjust="spacing" textLength="306" x="1107" y="555.6919">accessShipPosition(code,baseDateTime, ships);</text><rect fill="#FEFECE" filter="url(#f1suyzwrx7me58)" height="46.5938" style="stroke:#A80036;stroke-width:1.5;" width="167" x="1430" y="539.625"/><text fill="#000000" font-family="sans-serif" font-size="14" lengthAdjust="spacing" textLength="55" x="1486" y="559.6201">listDyn:</text><text fill="#000000" font-family="sans-serif" font-size="14" lengthAdjust="spacing" textLength="153" x="1437" y="575.917">List &lt;ShipDynamics&gt;</text><polygon fill="#A80036" points="702,618.3516,692,622.3516,702,626.3516,698,622.3516" style="stroke:#A80036;stroke-width:1.0;"/><line style="stroke:#A80036;stroke-width:1.0;" x1="696" x2="1094" y1="622.3516" y2="622.3516"/><text fill="#000000" font-family="sans-serif" font-size="13" lengthAdjust="spacing" textLength="44" x="708" y="617.2856">listDyn</text><polygon fill="#A80036" points="414,647.4844,404,651.4844,414,655.4844,410,651.4844" style="stroke:#A80036;stroke-width:1.0;"/><line style="stroke:#A80036;stroke-width:1.0;" x1="408" x2="685" y1="651.4844" y2="651.4844"/><text fill="#000000" font-family="sans-serif" font-size="13" lengthAdjust="spacing" textLength="44" x="420" y="646.4185">listDyn</text><polygon fill="#A80036" points="78,676.6172,68,680.6172,78,684.6172,74,680.6172" style="stroke:#A80036;stroke-width:1.0;"/><line style="stroke:#A80036;stroke-width:1.0;" x1="72" x2="397" y1="680.6172" y2="680.6172"/><text fill="#000000" font-family="sans-serif" font-size="13" lengthAdjust="spacing" textLength="89" x="84" y="675.5513">shows listDyn</text><!--MD5=[6bcba7ae318f4140e0e85f08999b3885]
@startuml
actor "TrafficManager" as TM
participant ":PositionOfShip" as POS
participant ":ShipController" as CTRL
participant ":Company" as CMP
participant "sp:\nShipStore" as STORE
participant "listDyn:\nList <ShipDynamics>" as listDyn
participant ":Ship" as SHIP

activate TM
TM-> POS : starts 
activate POS
POS -> CTRL  : organizeShipPositionalMessages();
activate CTRL
CTRL -> CMP : sp = getShipStore();
activate CMP
deactivate CMP
CTRL -> STORE : ships = sp.getShips();
activate STORE
deactivate STORE
CTRL -> STORE : sp.organizeShipPositionalMessages(ships);
activate STORE
deactivate STORE

deactivate CTRL
POS - -> TM : ok
deactivate POS
TM - -> POS : check ship position value (code, baseDateTime)
activate POS
POS -> CTRL : acessShipPostion(code, baseDateTime);
activate CTRL
CTRL -> CMP : sp = getShipStore();
activate CMP
deactivate CMP
CTRL -> STORE : listDyn = sp.acessShipPosition(code,baseDateTime, ships);
activate STORE
deactivate CMP
STORE - -> listDyn** : accessShipPosition(code,baseDateTime, ships);

STORE -> CTRL : listDyn
deactivate STORE
CTRL -> POS :listDyn
deactivate CTRL
POS -> TM : shows listDyn
deactivate POS
@enduml

PlantUML version 1.2021.13beta8(Unknown compile time)
(GPL source distribution)
Java Runtime: Java(TM) SE Runtime Environment
JVM: Java HotSpot(TM) 64-Bit Server VM
Default Encoding: UTF-8
Language: en
Country: US
--></g></svg>