<?xml version="1.0" encoding="UTF-8" standalone="no"?><svg xmlns="http://www.w3.org/2000/svg" xmlns:xlink="http://www.w3.org/1999/xlink" contentScriptType="application/ecmascript" contentStyleType="text/css" height="1221px" preserveAspectRatio="none" style="width:493px;height:1221px;background:#FFFFFF;" version="1.1" viewBox="0 0 493 1221" width="493px" zoomAndPan="magnify"><defs><filter height="300%" id="f1uj68toq68e6c" width="300%" x="-1" y="-1"><feGaussianBlur result="blurOut" stdDeviation="2.0"/><feColorMatrix in="blurOut" result="blurOut2" type="matrix" values="0 0 0 0 0 0 0 0 0 0 0 0 0 0 0 0 0 0 .4 0"/><feOffset dx="4.0" dy="4.0" in="blurOut2" result="blurOut3"/><feBlend in="SourceGraphic" in2="blurOut3" mode="normal"/></filter></defs><g><!--MD5=[1359623b29275f5c349cab73e6333ccb]
class PositionOfShip--><rect codeLine="3" fill="#FEFECE" filter="url(#f1uj68toq68e6c)" height="86.4141" id="PositionOfShip" style="stroke:#A80036;stroke-width:1.5;" width="393" x="86.5" y="7"/><ellipse cx="235.75" cy="23" fill="#ADD1B2" rx="11" ry="11" style="stroke:#A80036;stroke-width:1.0;"/><path d="M238.0938,18.6719 C237.1563,18.2344 236.5625,18.0938 235.6875,18.0938 C233.0625,18.0938 231.0625,20.1719 231.0625,22.8906 L231.0625,24.0156 C231.0625,26.5938 233.1719,28.4844 236.0625,28.4844 C237.2813,28.4844 238.4375,28.1875 239.1875,27.6406 C239.7656,27.2344 240.0938,26.7813 240.0938,26.3906 C240.0938,25.9375 239.7031,25.5469 239.2344,25.5469 C239.0156,25.5469 238.8125,25.625 238.625,25.8125 C238.1719,26.2969 238.1719,26.2969 237.9844,26.3906 C237.5625,26.6563 236.875,26.7813 236.1094,26.7813 C234.0625,26.7813 232.7656,25.6875 232.7656,23.9844 L232.7656,22.8906 C232.7656,21.1094 234.0156,19.7969 235.75,19.7969 C236.3281,19.7969 236.9375,19.9531 237.4063,20.2031 C237.8906,20.4844 238.0625,20.7031 238.1563,21.1094 C238.2188,21.5156 238.25,21.6406 238.3906,21.7656 C238.5313,21.9063 238.7656,22.0156 238.9844,22.0156 C239.25,22.0156 239.5156,21.875 239.6875,21.6563 C239.7969,21.5 239.8281,21.3125 239.8281,20.8906 L239.8281,19.4688 C239.8281,19.0313 239.8125,18.9063 239.7188,18.75 C239.5625,18.4844 239.2813,18.3438 238.9844,18.3438 C238.6875,18.3438 238.4844,18.4375 238.2656,18.75 L238.0938,18.6719 Z " fill="#000000"/><text fill="#000000" font-family="sans-serif" font-size="12" lengthAdjust="spacing" textLength="86" x="256.25" y="27.1543">PositionOfShip</text><line style="stroke:#A80036;stroke-width:1.5;" x1="87.5" x2="478.5" y1="39" y2="39"/><line style="stroke:#A80036;stroke-width:1.5;" x1="87.5" x2="478.5" y1="47" y2="47"/><text fill="#000000" font-family="sans-serif" font-size="11" lengthAdjust="spacing" textLength="146" x="92.5" y="61.2104">+organizeShipMessage();</text><text fill="#000000" font-family="sans-serif" font-size="11" lengthAdjust="spacing" textLength="267" x="92.5" y="74.0151">+getPositionOfShipData(code, baseDateTime);</text><text fill="#000000" font-family="sans-serif" font-size="11" lengthAdjust="spacing" textLength="381" x="92.5" y="86.8198">+getPositionOfShipPeriod(code, baseDateTime1, baseDateTime2);</text><!--MD5=[02e4b9b7573f1156f41e60aa5b4e25a4]
class Company--><rect codeLine="8" fill="#FEFECE" filter="url(#f1uj68toq68e6c)" height="73.6094" id="Company" style="stroke:#A80036;stroke-width:1.5;" width="119" x="223.5" y="299"/><ellipse cx="252.45" cy="315" fill="#ADD1B2" rx="11" ry="11" style="stroke:#A80036;stroke-width:1.0;"/><path d="M254.7938,310.6719 C253.8563,310.2344 253.2625,310.0938 252.3875,310.0938 C249.7625,310.0938 247.7625,312.1719 247.7625,314.8906 L247.7625,316.0156 C247.7625,318.5938 249.8719,320.4844 252.7625,320.4844 C253.9813,320.4844 255.1375,320.1875 255.8875,319.6406 C256.4656,319.2344 256.7938,318.7813 256.7938,318.3906 C256.7938,317.9375 256.4031,317.5469 255.9344,317.5469 C255.7156,317.5469 255.5125,317.625 255.325,317.8125 C254.8719,318.2969 254.8719,318.2969 254.6844,318.3906 C254.2625,318.6563 253.575,318.7813 252.8094,318.7813 C250.7625,318.7813 249.4656,317.6875 249.4656,315.9844 L249.4656,314.8906 C249.4656,313.1094 250.7156,311.7969 252.45,311.7969 C253.0281,311.7969 253.6375,311.9531 254.1063,312.2031 C254.5906,312.4844 254.7625,312.7031 254.8563,313.1094 C254.9188,313.5156 254.95,313.6406 255.0906,313.7656 C255.2313,313.9063 255.4656,314.0156 255.6844,314.0156 C255.95,314.0156 256.2156,313.875 256.3875,313.6563 C256.4969,313.5 256.5281,313.3125 256.5281,312.8906 L256.5281,311.4688 C256.5281,311.0313 256.5125,310.9063 256.4188,310.75 C256.2625,310.4844 255.9813,310.3438 255.6844,310.3438 C255.3875,310.3438 255.1844,310.4375 254.9656,310.75 L254.7938,310.6719 Z " fill="#000000"/><text fill="#000000" font-family="sans-serif" font-size="12" lengthAdjust="spacing" textLength="56" x="269.55" y="319.1543">Company</text><line style="stroke:#A80036;stroke-width:1.5;" x1="224.5" x2="341.5" y1="331" y2="331"/><text fill="#000000" font-family="sans-serif" font-size="11" lengthAdjust="spacing" textLength="107" x="229.5" y="345.2104">-String designation</text><line style="stroke:#A80036;stroke-width:1.5;" x1="224.5" x2="341.5" y1="351.8047" y2="351.8047"/><text fill="#000000" font-family="sans-serif" font-size="11" lengthAdjust="spacing" textLength="95" x="229.5" y="366.0151">+getShipStore();</text><!--MD5=[d8a5c6f12add15b22e781f1f574c705d]
class ShipController--><rect codeLine="13" fill="#FEFECE" filter="url(#f1uj68toq68e6c)" height="86.4141" id="ShipController" style="stroke:#A80036;stroke-width:1.5;" width="393" x="86.5" y="153"/><ellipse cx="236.25" cy="169" fill="#ADD1B2" rx="11" ry="11" style="stroke:#A80036;stroke-width:1.0;"/><path d="M238.5938,164.6719 C237.6563,164.2344 237.0625,164.0938 236.1875,164.0938 C233.5625,164.0938 231.5625,166.1719 231.5625,168.8906 L231.5625,170.0156 C231.5625,172.5938 233.6719,174.4844 236.5625,174.4844 C237.7813,174.4844 238.9375,174.1875 239.6875,173.6406 C240.2656,173.2344 240.5938,172.7813 240.5938,172.3906 C240.5938,171.9375 240.2031,171.5469 239.7344,171.5469 C239.5156,171.5469 239.3125,171.625 239.125,171.8125 C238.6719,172.2969 238.6719,172.2969 238.4844,172.3906 C238.0625,172.6563 237.375,172.7813 236.6094,172.7813 C234.5625,172.7813 233.2656,171.6875 233.2656,169.9844 L233.2656,168.8906 C233.2656,167.1094 234.5156,165.7969 236.25,165.7969 C236.8281,165.7969 237.4375,165.9531 237.9063,166.2031 C238.3906,166.4844 238.5625,166.7031 238.6563,167.1094 C238.7188,167.5156 238.75,167.6406 238.8906,167.7656 C239.0313,167.9063 239.2656,168.0156 239.4844,168.0156 C239.75,168.0156 240.0156,167.875 240.1875,167.6563 C240.2969,167.5 240.3281,167.3125 240.3281,166.8906 L240.3281,165.4688 C240.3281,165.0313 240.3125,164.9063 240.2188,164.75 C240.0625,164.4844 239.7813,164.3438 239.4844,164.3438 C239.1875,164.3438 238.9844,164.4375 238.7656,164.75 L238.5938,164.6719 Z " fill="#000000"/><text fill="#000000" font-family="sans-serif" font-size="12" lengthAdjust="spacing" textLength="85" x="256.75" y="173.1543">ShipController</text><line style="stroke:#A80036;stroke-width:1.5;" x1="87.5" x2="478.5" y1="185" y2="185"/><line style="stroke:#A80036;stroke-width:1.5;" x1="87.5" x2="478.5" y1="193" y2="193"/><text fill="#000000" font-family="sans-serif" font-size="11" lengthAdjust="spacing" textLength="146" x="92.5" y="207.2104">+organizeShipMessage();</text><text fill="#000000" font-family="sans-serif" font-size="11" lengthAdjust="spacing" textLength="267" x="92.5" y="220.0151">+getPositionOfShipData(code, baseDateTime);</text><text fill="#000000" font-family="sans-serif" font-size="11" lengthAdjust="spacing" textLength="381" x="92.5" y="232.8198">+getPositionOfShipPeriod(code, baseDateTime1, baseDateTime2);</text><!--MD5=[ea2206eefe09474e90beb17e18e6b3d8]
class ShipStore--><rect codeLine="19" fill="#FEFECE" filter="url(#f1uj68toq68e6c)" height="99.2188" id="ShipStore" style="stroke:#A80036;stroke-width:1.5;" width="393" x="86.5" y="433"/><ellipse cx="249.25" cy="449" fill="#ADD1B2" rx="11" ry="11" style="stroke:#A80036;stroke-width:1.0;"/><path d="M251.5938,444.6719 C250.6563,444.2344 250.0625,444.0938 249.1875,444.0938 C246.5625,444.0938 244.5625,446.1719 244.5625,448.8906 L244.5625,450.0156 C244.5625,452.5938 246.6719,454.4844 249.5625,454.4844 C250.7813,454.4844 251.9375,454.1875 252.6875,453.6406 C253.2656,453.2344 253.5938,452.7813 253.5938,452.3906 C253.5938,451.9375 253.2031,451.5469 252.7344,451.5469 C252.5156,451.5469 252.3125,451.625 252.125,451.8125 C251.6719,452.2969 251.6719,452.2969 251.4844,452.3906 C251.0625,452.6563 250.375,452.7813 249.6094,452.7813 C247.5625,452.7813 246.2656,451.6875 246.2656,449.9844 L246.2656,448.8906 C246.2656,447.1094 247.5156,445.7969 249.25,445.7969 C249.8281,445.7969 250.4375,445.9531 250.9063,446.2031 C251.3906,446.4844 251.5625,446.7031 251.6563,447.1094 C251.7188,447.5156 251.75,447.6406 251.8906,447.7656 C252.0313,447.9063 252.2656,448.0156 252.4844,448.0156 C252.75,448.0156 253.0156,447.875 253.1875,447.6563 C253.2969,447.5 253.3281,447.3125 253.3281,446.8906 L253.3281,445.4688 C253.3281,445.0313 253.3125,444.9063 253.2188,444.75 C253.0625,444.4844 252.7813,444.3438 252.4844,444.3438 C252.1875,444.3438 251.9844,444.4375 251.7656,444.75 L251.5938,444.6719 Z " fill="#000000"/><text fill="#000000" font-family="sans-serif" font-size="12" lengthAdjust="spacing" textLength="59" x="269.75" y="453.1543">ShipStore</text><line style="stroke:#A80036;stroke-width:1.5;" x1="87.5" x2="478.5" y1="465" y2="465"/><text fill="#000000" font-family="sans-serif" font-size="11" lengthAdjust="spacing" textLength="135" x="92.5" y="479.2104">-BST &lt;Ship&gt; shipStore;</text><line style="stroke:#A80036;stroke-width:1.5;" x1="87.5" x2="478.5" y1="485.8047" y2="485.8047"/><text fill="#000000" font-family="sans-serif" font-size="11" lengthAdjust="spacing" textLength="146" x="92.5" y="500.0151">+organizeShipMessage();</text><text fill="#000000" font-family="sans-serif" font-size="11" lengthAdjust="spacing" textLength="267" x="92.5" y="512.8198">+getPositionOfShipData(code, baseDateTime);</text><text fill="#000000" font-family="sans-serif" font-size="11" lengthAdjust="spacing" textLength="381" x="92.5" y="525.6245">+getPositionOfShipPeriod(code, baseDateTime1, baseDateTime2);</text><!--MD5=[0dc7f2ddb409b58bcf52b12238c25399]
class Ship--><rect codeLine="27" fill="#FEFECE" filter="url(#f1uj68toq68e6c)" height="99.2188" id="Ship" style="stroke:#A80036;stroke-width:1.5;" width="212" x="98" y="592"/><ellipse cx="186.75" cy="608" fill="#ADD1B2" rx="11" ry="11" style="stroke:#A80036;stroke-width:1.0;"/><path d="M189.0938,603.6719 C188.1563,603.2344 187.5625,603.0938 186.6875,603.0938 C184.0625,603.0938 182.0625,605.1719 182.0625,607.8906 L182.0625,609.0156 C182.0625,611.5938 184.1719,613.4844 187.0625,613.4844 C188.2813,613.4844 189.4375,613.1875 190.1875,612.6406 C190.7656,612.2344 191.0938,611.7813 191.0938,611.3906 C191.0938,610.9375 190.7031,610.5469 190.2344,610.5469 C190.0156,610.5469 189.8125,610.625 189.625,610.8125 C189.1719,611.2969 189.1719,611.2969 188.9844,611.3906 C188.5625,611.6563 187.875,611.7813 187.1094,611.7813 C185.0625,611.7813 183.7656,610.6875 183.7656,608.9844 L183.7656,607.8906 C183.7656,606.1094 185.0156,604.7969 186.75,604.7969 C187.3281,604.7969 187.9375,604.9531 188.4063,605.2031 C188.8906,605.4844 189.0625,605.7031 189.1563,606.1094 C189.2188,606.5156 189.25,606.6406 189.3906,606.7656 C189.5313,606.9063 189.7656,607.0156 189.9844,607.0156 C190.25,607.0156 190.5156,606.875 190.6875,606.6563 C190.7969,606.5 190.8281,606.3125 190.8281,605.8906 L190.8281,604.4688 C190.8281,604.0313 190.8125,603.9063 190.7188,603.75 C190.5625,603.4844 190.2813,603.3438 189.9844,603.3438 C189.6875,603.3438 189.4844,603.4375 189.2656,603.75 L189.0938,603.6719 Z " fill="#000000"/><text fill="#000000" font-family="sans-serif" font-size="12" lengthAdjust="spacing" textLength="26" x="207.25" y="612.1543">Ship</text><line style="stroke:#A80036;stroke-width:1.5;" x1="99" x2="309" y1="624" y2="624"/><text fill="#000000" font-family="sans-serif" font-size="11" lengthAdjust="spacing" textLength="117" x="104" y="638.2104">-Identification shipId;</text><text fill="#000000" font-family="sans-serif" font-size="11" lengthAdjust="spacing" textLength="200" x="104" y="651.0151">-ShipCharacteristics characteristics;</text><text fill="#000000" font-family="sans-serif" font-size="11" lengthAdjust="spacing" textLength="74" x="104" y="663.8198">-Route route;</text><text fill="#000000" font-family="sans-serif" font-size="11" lengthAdjust="spacing" textLength="9" x="104" y="676.6245">...</text><line style="stroke:#A80036;stroke-width:1.5;" x1="99" x2="309" y1="683.2188" y2="683.2188"/><!--MD5=[fc92a9f5bb5fae84dd7fa4034e6b4444]
class Route--><rect codeLine="34" fill="#FEFECE" filter="url(#f1uj68toq68e6c)" height="73.6094" id="Route" style="stroke:#A80036;stroke-width:1.5;" width="158" x="7" y="763.5"/><ellipse cx="64.75" cy="779.5" fill="#ADD1B2" rx="11" ry="11" style="stroke:#A80036;stroke-width:1.0;"/><path d="M67.0938,775.1719 C66.1563,774.7344 65.5625,774.5938 64.6875,774.5938 C62.0625,774.5938 60.0625,776.6719 60.0625,779.3906 L60.0625,780.5156 C60.0625,783.0938 62.1719,784.9844 65.0625,784.9844 C66.2813,784.9844 67.4375,784.6875 68.1875,784.1406 C68.7656,783.7344 69.0938,783.2813 69.0938,782.8906 C69.0938,782.4375 68.7031,782.0469 68.2344,782.0469 C68.0156,782.0469 67.8125,782.125 67.625,782.3125 C67.1719,782.7969 67.1719,782.7969 66.9844,782.8906 C66.5625,783.1563 65.875,783.2813 65.1094,783.2813 C63.0625,783.2813 61.7656,782.1875 61.7656,780.4844 L61.7656,779.3906 C61.7656,777.6094 63.0156,776.2969 64.75,776.2969 C65.3281,776.2969 65.9375,776.4531 66.4063,776.7031 C66.8906,776.9844 67.0625,777.2031 67.1563,777.6094 C67.2188,778.0156 67.25,778.1406 67.3906,778.2656 C67.5313,778.4063 67.7656,778.5156 67.9844,778.5156 C68.25,778.5156 68.5156,778.375 68.6875,778.1563 C68.7969,778 68.8281,777.8125 68.8281,777.3906 L68.8281,775.9688 C68.8281,775.5313 68.8125,775.4063 68.7188,775.25 C68.5625,774.9844 68.2813,774.8438 67.9844,774.8438 C67.6875,774.8438 67.4844,774.9375 67.2656,775.25 L67.0938,775.1719 Z " fill="#000000"/><text fill="#000000" font-family="sans-serif" font-size="12" lengthAdjust="spacing" textLength="34" x="85.25" y="783.6543">Route</text><line style="stroke:#A80036;stroke-width:1.5;" x1="8" x2="164" y1="795.5" y2="795.5"/><text fill="#000000" font-family="sans-serif" font-size="11" lengthAdjust="spacing" textLength="146" x="13" y="809.7104">List&lt;ShipDynamic&gt; route</text><text fill="#000000" font-family="sans-serif" font-size="11" lengthAdjust="spacing" textLength="9" x="13" y="822.5151">...</text><line style="stroke:#A80036;stroke-width:1.5;" x1="8" x2="164" y1="829.1094" y2="829.1094"/><!--MD5=[82dc263f563d227779ba81db65b2fd4d]
class Identification--><rect codeLine="39" fill="#FEFECE" filter="url(#f1uj68toq68e6c)" height="99.2188" id="Identification" style="stroke:#A80036;stroke-width:1.5;" width="109" x="200.5" y="751"/><ellipse cx="215.95" cy="767" fill="#ADD1B2" rx="11" ry="11" style="stroke:#A80036;stroke-width:1.0;"/><path d="M218.2938,762.6719 C217.3563,762.2344 216.7625,762.0938 215.8875,762.0938 C213.2625,762.0938 211.2625,764.1719 211.2625,766.8906 L211.2625,768.0156 C211.2625,770.5938 213.3719,772.4844 216.2625,772.4844 C217.4813,772.4844 218.6375,772.1875 219.3875,771.6406 C219.9656,771.2344 220.2938,770.7813 220.2938,770.3906 C220.2938,769.9375 219.9031,769.5469 219.4344,769.5469 C219.2156,769.5469 219.0125,769.625 218.825,769.8125 C218.3719,770.2969 218.3719,770.2969 218.1844,770.3906 C217.7625,770.6563 217.075,770.7813 216.3094,770.7813 C214.2625,770.7813 212.9656,769.6875 212.9656,767.9844 L212.9656,766.8906 C212.9656,765.1094 214.2156,763.7969 215.95,763.7969 C216.5281,763.7969 217.1375,763.9531 217.6063,764.2031 C218.0906,764.4844 218.2625,764.7031 218.3563,765.1094 C218.4188,765.5156 218.45,765.6406 218.5906,765.7656 C218.7313,765.9063 218.9656,766.0156 219.1844,766.0156 C219.45,766.0156 219.7156,765.875 219.8875,765.6563 C219.9969,765.5 220.0281,765.3125 220.0281,764.8906 L220.0281,763.4688 C220.0281,763.0313 220.0125,762.9063 219.9188,762.75 C219.7625,762.4844 219.4813,762.3438 219.1844,762.3438 C218.8875,762.3438 218.6844,762.4375 218.4656,762.75 L218.2938,762.6719 Z " fill="#000000"/><text fill="#000000" font-family="sans-serif" font-size="12" lengthAdjust="spacing" textLength="76" x="230.05" y="771.1543">Identification</text><line style="stroke:#A80036;stroke-width:1.5;" x1="201.5" x2="308.5" y1="783" y2="783"/><text fill="#000000" font-family="sans-serif" font-size="11" lengthAdjust="spacing" textLength="71" x="206.5" y="797.2104">String mmsi;</text><text fill="#000000" font-family="sans-serif" font-size="11" lengthAdjust="spacing" textLength="97" x="206.5" y="810.0151">String shipName;</text><text fill="#000000" font-family="sans-serif" font-size="11" lengthAdjust="spacing" textLength="73" x="206.5" y="822.8198">String imoID;</text><text fill="#000000" font-family="sans-serif" font-size="11" lengthAdjust="spacing" textLength="82" x="206.5" y="835.6245">String callsign;</text><line style="stroke:#A80036;stroke-width:1.5;" x1="201.5" x2="308.5" y1="842.2188" y2="842.2188"/><!--MD5=[19c2b9eb46691e25b02426140995a460]
class ShipDynamic--><rect codeLine="45" fill="#FEFECE" filter="url(#f1uj68toq68e6c)" height="137.6328" id="ShipDynamic" style="stroke:#A80036;stroke-width:1.5;" width="146" x="89" y="910"/><ellipse cx="120.65" cy="926" fill="#ADD1B2" rx="11" ry="11" style="stroke:#A80036;stroke-width:1.0;"/><path d="M122.9938,921.6719 C122.0563,921.2344 121.4625,921.0938 120.5875,921.0938 C117.9625,921.0938 115.9625,923.1719 115.9625,925.8906 L115.9625,927.0156 C115.9625,929.5938 118.0719,931.4844 120.9625,931.4844 C122.1813,931.4844 123.3375,931.1875 124.0875,930.6406 C124.6656,930.2344 124.9938,929.7813 124.9938,929.3906 C124.9938,928.9375 124.6031,928.5469 124.1344,928.5469 C123.9156,928.5469 123.7125,928.625 123.525,928.8125 C123.0719,929.2969 123.0719,929.2969 122.8844,929.3906 C122.4625,929.6563 121.775,929.7813 121.0094,929.7813 C118.9625,929.7813 117.6656,928.6875 117.6656,926.9844 L117.6656,925.8906 C117.6656,924.1094 118.9156,922.7969 120.65,922.7969 C121.2281,922.7969 121.8375,922.9531 122.3063,923.2031 C122.7906,923.4844 122.9625,923.7031 123.0563,924.1094 C123.1188,924.5156 123.15,924.6406 123.2906,924.7656 C123.4313,924.9063 123.6656,925.0156 123.8844,925.0156 C124.15,925.0156 124.4156,924.875 124.5875,924.6563 C124.6969,924.5 124.7281,924.3125 124.7281,923.8906 L124.7281,922.4688 C124.7281,922.0313 124.7125,921.9063 124.6188,921.75 C124.4625,921.4844 124.1813,921.3438 123.8844,921.3438 C123.5875,921.3438 123.3844,921.4375 123.1656,921.75 L122.9938,921.6719 Z " fill="#000000"/><text fill="#000000" font-family="sans-serif" font-size="12" lengthAdjust="spacing" textLength="77" x="138.35" y="930.1543">ShipDynamic</text><line style="stroke:#A80036;stroke-width:1.5;" x1="90" x2="234" y1="942" y2="942"/><text fill="#000000" font-family="sans-serif" font-size="11" lengthAdjust="spacing" textLength="125" x="95" y="956.2104">String baseDateTime;</text><text fill="#000000" font-family="sans-serif" font-size="11" lengthAdjust="spacing" textLength="98" x="95" y="969.0151">Location location;</text><text fill="#000000" font-family="sans-serif" font-size="11" lengthAdjust="spacing" textLength="71" x="95" y="981.8198">String cargo;</text><text fill="#000000" font-family="sans-serif" font-size="11" lengthAdjust="spacing" textLength="131" x="95" y="994.6245">Movement movement;</text><text fill="#000000" font-family="sans-serif" font-size="11" lengthAdjust="spacing" textLength="134" x="95" y="1007.4292">String transceiverClass;</text><line style="stroke:#A80036;stroke-width:1.5;" x1="90" x2="234" y1="1014.0234" y2="1014.0234"/><text fill="#000000" font-family="sans-serif" font-size="11" lengthAdjust="spacing" textLength="125" x="95" y="1028.2339">+getBaseDateTime();</text><text fill="#000000" font-family="sans-serif" font-size="11" lengthAdjust="spacing" textLength="86" x="95" y="1041.0386">+getLocation();</text><!--MD5=[4f1f3706c1a355a8488e154afcaed5df]
class Location--><rect codeLine="54" fill="#FEFECE" filter="url(#f1uj68toq68e6c)" height="99.2188" id="Location" style="stroke:#A80036;stroke-width:1.5;" width="108" x="208" y="1108"/><ellipse cx="234.7" cy="1124" fill="#ADD1B2" rx="11" ry="11" style="stroke:#A80036;stroke-width:1.0;"/><path d="M237.0438,1119.6719 C236.1063,1119.2344 235.5125,1119.0938 234.6375,1119.0938 C232.0125,1119.0938 230.0125,1121.1719 230.0125,1123.8906 L230.0125,1125.0156 C230.0125,1127.5938 232.1219,1129.4844 235.0125,1129.4844 C236.2313,1129.4844 237.3875,1129.1875 238.1375,1128.6406 C238.7156,1128.2344 239.0438,1127.7813 239.0438,1127.3906 C239.0438,1126.9375 238.6531,1126.5469 238.1844,1126.5469 C237.9656,1126.5469 237.7625,1126.625 237.575,1126.8125 C237.1219,1127.2969 237.1219,1127.2969 236.9344,1127.3906 C236.5125,1127.6563 235.825,1127.7813 235.0594,1127.7813 C233.0125,1127.7813 231.7156,1126.6875 231.7156,1124.9844 L231.7156,1123.8906 C231.7156,1122.1094 232.9656,1120.7969 234.7,1120.7969 C235.2781,1120.7969 235.8875,1120.9531 236.3563,1121.2031 C236.8406,1121.4844 237.0125,1121.7031 237.1063,1122.1094 C237.1688,1122.5156 237.2,1122.6406 237.3406,1122.7656 C237.4813,1122.9063 237.7156,1123.0156 237.9344,1123.0156 C238.2,1123.0156 238.4656,1122.875 238.6375,1122.6563 C238.7469,1122.5 238.7781,1122.3125 238.7781,1121.8906 L238.7781,1120.4688 C238.7781,1120.0313 238.7625,1119.9063 238.6688,1119.75 C238.5125,1119.4844 238.2313,1119.3438 237.9344,1119.3438 C237.6375,1119.3438 237.4344,1119.4375 237.2156,1119.75 L237.0438,1119.6719 Z " fill="#000000"/><text fill="#000000" font-family="sans-serif" font-size="12" lengthAdjust="spacing" textLength="50" x="251.3" y="1128.1543">Location</text><line style="stroke:#A80036;stroke-width:1.5;" x1="209" x2="315" y1="1140" y2="1140"/><text fill="#000000" font-family="sans-serif" font-size="11" lengthAdjust="spacing" textLength="86" x="214" y="1154.2104">double latitude</text><text fill="#000000" font-family="sans-serif" font-size="11" lengthAdjust="spacing" textLength="96" x="214" y="1167.0151">double longitude</text><line style="stroke:#A80036;stroke-width:1.5;" x1="209" x2="315" y1="1173.6094" y2="1173.6094"/><text fill="#000000" font-family="sans-serif" font-size="11" lengthAdjust="spacing" textLength="85" x="214" y="1187.8198">+getLatitude();</text><text fill="#000000" font-family="sans-serif" font-size="11" lengthAdjust="spacing" textLength="95" x="214" y="1200.6245">+getLongitude();</text><!--MD5=[cece93bce9e757153d84f2cfbf72ae38]
link PositionOfShip to ShipController--><path codeLine="61" d="M283,93.04 C283,110.04 283,129.76 283,147.29 " fill="none" id="PositionOfShip-to-ShipController" style="stroke:#A80036;stroke-width:1.0;stroke-dasharray:7.0,7.0;"/><polygon fill="#A80036" points="283,152.66,287,143.66,283,147.66,279,143.66,283,152.66" style="stroke:#A80036;stroke-width:1.0;"/><!--MD5=[bf74851aff38bc49bd5171b1d2f8ce12]
link ShipController to Company--><path codeLine="62" d="M283,239.154 C283,256.394 283,276.283 283,293.46 " fill="none" id="ShipController-to-Company" style="stroke:#A80036;stroke-width:1.0;stroke-dasharray:7.0,7.0;"/><polygon fill="#A80036" points="283,298.697,287,289.697,283,293.697,279,289.697,283,298.697" style="stroke:#A80036;stroke-width:1.0;"/><!--MD5=[6b4a94d80660e97c6833bde801bd4c89]
link Company to ShipStore--><path codeLine="63" d="M283,373.091 C283,389.595 283,409.492 283,427.71 " fill="none" id="Company-to-ShipStore" style="stroke:#A80036;stroke-width:1.0;"/><polygon fill="#A80036" points="283,432.799,287,423.799,283,427.799,279,423.799,283,432.799" style="stroke:#A80036;stroke-width:1.0;"/><!--MD5=[95ebf7981bdfb55f044b746fe02ae41f]
link ShipStore to Location--><path codeLine="64" d="M307.419,532.229 C315.316,550.501 323.05,571.75 327,592 C363.216,777.677 308.703,1001.929 279.065,1102.781 " fill="none" id="ShipStore-to-Location" style="stroke:#A80036;stroke-width:1.0;"/><polygon fill="#A80036" points="277.586,1107.7819,283.9752,1100.2867,279.0046,1102.9874,276.3039,1098.0168,277.586,1107.7819" style="stroke:#A80036;stroke-width:1.0;"/><!--MD5=[bd668f20969913e971975f69d50ab766]
link Ship to Route--><path codeLine="65" d="M167.311,691.315 C150.947,713.088 131.898,738.433 116.352,759.116 " fill="none" id="Ship-to-Route" style="stroke:#A80036;stroke-width:1.0;"/><polygon fill="#A80036" points="113.292,763.188,121.8969,758.3968,116.2961,759.1911,115.5019,753.5903,113.292,763.188" style="stroke:#A80036;stroke-width:1.0;"/><!--MD5=[6e2bf1b581922c3b45ac635d439704bd]
link Route to ShipDynamic--><path codeLine="66" d="M101.5631,837.643 C109.95,857.121 120.609,881.874 130.632,905.152 " fill="none" id="Route-to-ShipDynamic" style="stroke:#A80036;stroke-width:1.0;"/><polygon fill="#A80036" points="132.627,909.786,132.7413,899.9378,130.6495,905.1937,125.3936,903.1018,132.627,909.786" style="stroke:#A80036;stroke-width:1.0;"/><!--MD5=[b548f9cab810c886ef8d517236ce8553]
link Ship to Identification--><path codeLine="67" d="M219.857,691.315 C225.497,708.676 231.874,728.309 237.633,746.038 " fill="none" id="Ship-to-Identification" style="stroke:#A80036;stroke-width:1.0;"/><polygon fill="#A80036" points="239.24,750.985,240.2648,741.1896,237.6958,746.2294,232.6559,743.6604,239.24,750.985" style="stroke:#A80036;stroke-width:1.0;"/><!--MD5=[4d937afab56fe47d5138ea5de0414cd5]
link ShipDynamic to Location--><path codeLine="68" d="M200.663,1048.24 C211.049,1066.572 222.125,1086.121 231.966,1103.49 " fill="none" id="ShipDynamic-to-Location" style="stroke:#A80036;stroke-width:1.0;"/><polygon fill="#A80036" points="234.44,1107.8573,233.4818,1098.0552,231.9744,1103.5075,226.5221,1102.0001,234.44,1107.8573" style="stroke:#A80036;stroke-width:1.0;"/><!--MD5=[f04e04ecc6998d67821b33eb17256457]
link ShipStore to Ship--><path codeLine="70" d="M258.437,532.315 C249.627,549.825 239.653,569.645 230.673,587.492 " fill="none" id="ShipStore-to-Ship" style="stroke:#A80036;stroke-width:1.0;"/><polygon fill="#A80036" points="228.412,591.985,236.0298,585.7425,230.6589,587.5183,228.8831,582.1474,228.412,591.985" style="stroke:#A80036;stroke-width:1.0;"/><!--MD5=[759b16f55876a9e9bd67fddf3b9ece62]
@startuml
skinparam classAttributeIconSize 0

class PositionOfShip {
  +organizeShipMessage();
+getPositionOfShipData(code, baseDateTime);
+getPositionOfShipPeriod(code, baseDateTime1, baseDateTime2);
}
class Company {
  -String designation
  +getShipStore();
}

class ShipController {
+organizeShipMessage();
+getPositionOfShipData(code, baseDateTime);
+getPositionOfShipPeriod(code, baseDateTime1, baseDateTime2);
}

class ShipStore {
-BST <Ship> shipStore;
+organizeShipMessage();
+getPositionOfShipData(code, baseDateTime);
+getPositionOfShipPeriod(code, baseDateTime1, baseDateTime2);

}

class Ship {
-Identification shipId;
-ShipCharacteristics characteristics;
-Route route;
...
}

class Route {
List<ShipDynamic> route
...
}

class Identification {
String mmsi;
String shipName;
String imoID;
String callsign;
}
class ShipDynamic {
String baseDateTime;
Location location;
String cargo;
Movement movement;
String transceiverClass;
+getBaseDateTime();
+getLocation();
}
class Location {
double latitude
double longitude
+getLatitude();
+getLongitude();

}
PositionOfShip ..> ShipController
ShipController ..> Company
Company - -> ShipStore
ShipStore - -> Location
Ship - -> Route
Route - -> ShipDynamic
Ship - -> Identification
ShipDynamic - -> Location

ShipStore - -> Ship
@enduml

PlantUML version 1.2021.13beta8(Unknown compile time)
(GPL source distribution)
Java Runtime: Java(TM) SE Runtime Environment
JVM: Java HotSpot(TM) 64-Bit Server VM
Default Encoding: UTF-8
Language: en
Country: US
--></g></svg>