<?xml version="1.0" encoding="UTF-8" standalone="no"?><svg xmlns="http://www.w3.org/2000/svg" xmlns:xlink="http://www.w3.org/1999/xlink" contentScriptType="application/ecmascript" contentStyleType="text/css" height="309px" preserveAspectRatio="none" style="width:790px;height:309px;background:#FFFFFF;" version="1.1" viewBox="0 0 790 309" width="790px" zoomAndPan="magnify"><defs><filter height="300%" id="f1pod6ve24rvm3" width="300%" x="-1" y="-1"><feGaussianBlur result="blurOut" stdDeviation="2.0"/><feColorMatrix in="blurOut" result="blurOut2" type="matrix" values="0 0 0 0 0 0 0 0 0 0 0 0 0 0 0 0 0 0 .4 0"/><feOffset dx="4.0" dy="4.0" in="blurOut2" result="blurOut3"/><feBlend in="SourceGraphic" in2="blurOut3" mode="normal"/></filter></defs><g><rect fill="#FFFFFF" filter="url(#f1pod6ve24rvm3)" height="108.5313" style="stroke:#A80036;stroke-width:1.0;" width="10" x="57" y="98.2969"/><rect fill="#FFFFFF" filter="url(#f1pod6ve24rvm3)" height="29.1328" style="stroke:#A80036;stroke-width:1.0;" width="10" x="737" y="119.4297"/><rect fill="#FFFFFF" filter="url(#f1pod6ve24rvm3)" height="29.1328" style="stroke:#A80036;stroke-width:1.0;" width="10" x="737" y="177.6953"/><line style="stroke:#A80036;stroke-width:1.0;stroke-dasharray:5.0,5.0;" x1="62" x2="62" y1="88.2969" y2="224.8281"/><line style="stroke:#A80036;stroke-width:1.0;stroke-dasharray:5.0,5.0;" x1="741.5" x2="741.5" y1="88.2969" y2="224.8281"/><text fill="#000000" font-family="sans-serif" font-size="14" lengthAdjust="spacing" textLength="108" x="5" y="84.9951">TrafficManager</text><ellipse cx="62" cy="15" fill="#FEFECE" filter="url(#f1pod6ve24rvm3)" rx="8" ry="8" style="stroke:#A80036;stroke-width:2.0;"/><path d="M62,23 L62,50 M49,31 L75,31 M62,50 L49,65 M62,50 L75,65 " fill="none" filter="url(#f1pod6ve24rvm3)" style="stroke:#A80036;stroke-width:2.0;"/><text fill="#000000" font-family="sans-serif" font-size="14" lengthAdjust="spacing" textLength="108" x="5" y="236.8232">TrafficManager</text><ellipse cx="62" cy="250.125" fill="#FEFECE" filter="url(#f1pod6ve24rvm3)" rx="8" ry="8" style="stroke:#A80036;stroke-width:2.0;"/><path d="M62,258.125 L62,285.125 M49,266.125 L75,266.125 M62,285.125 L49,300.125 M62,285.125 L75,300.125 " fill="none" filter="url(#f1pod6ve24rvm3)" style="stroke:#A80036;stroke-width:2.0;"/><rect fill="#FEFECE" filter="url(#f1pod6ve24rvm3)" height="30.2969" style="stroke:#A80036;stroke-width:1.5;" width="73" x="703.5" y="53"/><text fill="#000000" font-family="sans-serif" font-size="14" lengthAdjust="spacing" textLength="59" x="710.5" y="72.9951">:System</text><rect fill="#FEFECE" filter="url(#f1pod6ve24rvm3)" height="30.2969" style="stroke:#A80036;stroke-width:1.5;" width="73" x="703.5" y="223.8281"/><text fill="#000000" font-family="sans-serif" font-size="14" lengthAdjust="spacing" textLength="59" x="710.5" y="243.8232">:System</text><rect fill="#FFFFFF" filter="url(#f1pod6ve24rvm3)" height="108.5313" style="stroke:#A80036;stroke-width:1.0;" width="10" x="57" y="98.2969"/><rect fill="#FFFFFF" filter="url(#f1pod6ve24rvm3)" height="29.1328" style="stroke:#A80036;stroke-width:1.0;" width="10" x="737" y="119.4297"/><rect fill="#FFFFFF" filter="url(#f1pod6ve24rvm3)" height="29.1328" style="stroke:#A80036;stroke-width:1.0;" width="10" x="737" y="177.6953"/><polygon fill="#A80036" points="725,115.4297,735,119.4297,725,123.4297,729,119.4297" style="stroke:#A80036;stroke-width:1.0;"/><line style="stroke:#A80036;stroke-width:1.0;" x1="67" x2="731" y1="119.4297" y2="119.4297"/><text fill="#000000" font-family="sans-serif" font-size="13" font-weight="bold" lengthAdjust="spacing" textLength="9" x="74" y="114.3638">1</text><text fill="#000000" font-family="sans-serif" font-size="13" lengthAdjust="spacing" textLength="638" x="87" y="114.3638">wants to have the positional messages temporally organized and associated with each of the ships</text><polygon fill="#A80036" points="78,144.5625,68,148.5625,78,152.5625,74,148.5625" style="stroke:#A80036;stroke-width:1.0;"/><line style="stroke:#A80036;stroke-width:1.0;" x1="72" x2="741" y1="148.5625" y2="148.5625"/><text fill="#000000" font-family="sans-serif" font-size="13" font-weight="bold" lengthAdjust="spacing" textLength="9" x="84" y="143.4966">2</text><text fill="#000000" font-family="sans-serif" font-size="13" lengthAdjust="spacing" textLength="15" x="97" y="143.4966">ok</text><polygon fill="#A80036" points="725,173.6953,735,177.6953,725,181.6953,729,177.6953" style="stroke:#A80036;stroke-width:1.0;"/><line style="stroke:#A80036;stroke-width:1.0;" x1="67" x2="731" y1="177.6953" y2="177.6953"/><text fill="#000000" font-family="sans-serif" font-size="13" font-weight="bold" lengthAdjust="spacing" textLength="8" x="74" y="172.6294">3</text><text fill="#000000" font-family="sans-serif" font-size="13" lengthAdjust="spacing" textLength="448" x="86" y="172.6294">wants to access of any position value(s) of a ship on a period or date.</text><polygon fill="#A80036" points="73,202.8281,63,206.8281,73,210.8281,69,206.8281" style="stroke:#A80036;stroke-width:1.0;"/><line style="stroke:#A80036;stroke-width:1.0;" x1="67" x2="741" y1="206.8281" y2="206.8281"/><text fill="#000000" font-family="sans-serif" font-size="13" font-weight="bold" lengthAdjust="spacing" textLength="9" x="79" y="201.7622">4</text><text fill="#000000" font-family="sans-serif" font-size="13" lengthAdjust="spacing" textLength="80" x="92" y="201.7622">ship position</text><!--MD5=[fc2b81d5f304ff55e7dedceb3f7ed07d]
@startuml
autonumber
actor "TrafficManager" as ADMIN

activate ADMIN
ADMIN-> ":System" : wants to have the positional messages temporally organized and associated with each of the ships
activate ":System"
ADMIN <- ":System" : ok
deactivate ":System"

ADMIN-> ":System" : wants to access of any position value(s) of a ship on a period or date.
activate ":System"
ADMIN <- ":System" : ship position 
deactivate ":System"


deactivate ADMIN
@enduml

PlantUML version 1.2021.13beta8(Unknown compile time)
(GPL source distribution)
Java Runtime: Java(TM) SE Runtime Environment
JVM: Java HotSpot(TM) 64-Bit Server VM
Default Encoding: UTF-8
Language: en
Country: US
--></g></svg>