<?xml version="1.0" encoding="UTF-8" standalone="no"?><svg xmlns="http://www.w3.org/2000/svg" xmlns:xlink="http://www.w3.org/1999/xlink" contentScriptType="application/ecmascript" contentStyleType="text/css" height="801px" preserveAspectRatio="none" style="width:1799px;height:801px;background:#FFFFFF;" version="1.1" viewBox="0 0 1799 801" width="1799px" zoomAndPan="magnify"><defs><filter height="300%" id="f1efjmbvji9b2j" width="300%" x="-1" y="-1"><feGaussianBlur result="blurOut" stdDeviation="2.0"/><feColorMatrix in="blurOut" result="blurOut2" type="matrix" values="0 0 0 0 0 0 0 0 0 0 0 0 0 0 0 0 0 0 .4 0"/><feOffset dx="4.0" dy="4.0" in="blurOut2" result="blurOut3"/><feBlend in="SourceGraphic" in2="blurOut3" mode="normal"/></filter></defs><g><rect fill="#FFFFFF" filter="url(#f1efjmbvji9b2j)" height="609.4609" style="stroke:#A80036;stroke-width:1.0;" width="10" x="47" y="98.2969"/><rect fill="#FFFFFF" filter="url(#f1efjmbvji9b2j)" height="29.1328" style="stroke:#A80036;stroke-width:1.0;" width="10" x="537" y="119.4297"/><rect fill="#FFFFFF" filter="url(#f1efjmbvji9b2j)" height="29.1328" style="stroke:#A80036;stroke-width:1.0;" width="10" x="537" y="669.625"/><rect fill="#FFFFFF" filter="url(#f1efjmbvji9b2j)" height="521.0625" style="stroke:#A80036;stroke-width:1.0;" width="10" x="1023" y="148.5625"/><rect fill="#FFFFFF" filter="url(#f1efjmbvji9b2j)" height="28" style="stroke:#A80036;stroke-width:1.0;" width="10" x="1028" y="244.8281"/><rect fill="#FFFFFF" filter="url(#f1efjmbvji9b2j)" height="28" style="stroke:#A80036;stroke-width:1.0;" width="10" x="1028" y="316.9609"/><rect fill="#FFFFFF" filter="url(#f1efjmbvji9b2j)" height="28" style="stroke:#A80036;stroke-width:1.0;" width="10" x="1028" y="389.0938"/><rect fill="#FFFFFF" filter="url(#f1efjmbvji9b2j)" height="28" style="stroke:#A80036;stroke-width:1.0;" width="10" x="1028" y="461.2266"/><rect fill="#FFFFFF" filter="url(#f1efjmbvji9b2j)" height="28" style="stroke:#A80036;stroke-width:1.0;" width="10" x="1028" y="533.3594"/><rect fill="#FFFFFF" filter="url(#f1efjmbvji9b2j)" height="28" style="stroke:#A80036;stroke-width:1.0;" width="10" x="1028" y="605.4922"/><rect fill="#FFFFFF" filter="url(#f1efjmbvji9b2j)" height="30" style="stroke:#A80036;stroke-width:1.0;" width="10" x="1697" y="177.6953"/><line style="stroke:#A80036;stroke-width:1.0;stroke-dasharray:5.0,5.0;" x1="52" x2="52" y1="88.2969" y2="716.7578"/><line style="stroke:#A80036;stroke-width:1.0;stroke-dasharray:5.0,5.0;" x1="542" x2="542" y1="88.2969" y2="716.7578"/><line style="stroke:#A80036;stroke-width:1.0;stroke-dasharray:5.0,5.0;" x1="1028" x2="1028" y1="88.2969" y2="716.7578"/><line style="stroke:#A80036;stroke-width:1.0;stroke-dasharray:5.0,5.0;" x1="1702" x2="1702" y1="88.2969" y2="716.7578"/><text fill="#000000" font-family="sans-serif" font-size="14" lengthAdjust="spacing" textLength="88" x="5" y="84.9951">ShipCaptain</text><ellipse cx="52" cy="15" fill="#FEFECE" filter="url(#f1efjmbvji9b2j)" rx="8" ry="8" style="stroke:#A80036;stroke-width:2.0;"/><path d="M52,23 L52,50 M39,31 L65,31 M52,50 L39,65 M52,50 L65,65 " fill="none" filter="url(#f1efjmbvji9b2j)" style="stroke:#A80036;stroke-width:2.0;"/><text fill="#000000" font-family="sans-serif" font-size="14" lengthAdjust="spacing" textLength="88" x="5" y="728.7529">ShipCaptain</text><ellipse cx="52" cy="742.0547" fill="#FEFECE" filter="url(#f1efjmbvji9b2j)" rx="8" ry="8" style="stroke:#A80036;stroke-width:2.0;"/><path d="M52,750.0547 L52,777.0547 M39,758.0547 L65,758.0547 M52,777.0547 L39,792.0547 M52,777.0547 L65,792.0547 " fill="none" filter="url(#f1efjmbvji9b2j)" style="stroke:#A80036;stroke-width:2.0;"/><rect fill="#FEFECE" filter="url(#f1efjmbvji9b2j)" height="30.2969" style="stroke:#A80036;stroke-width:1.5;" width="186" x="447" y="53"/><text fill="#000000" font-family="sans-serif" font-size="14" lengthAdjust="spacing" textLength="172" x="454" y="72.9951">:ManifestControllerTest</text><rect fill="#FEFECE" filter="url(#f1efjmbvji9b2j)" height="30.2969" style="stroke:#A80036;stroke-width:1.5;" width="186" x="447" y="715.7578"/><text fill="#000000" font-family="sans-serif" font-size="14" lengthAdjust="spacing" textLength="172" x="454" y="735.7529">:ManifestControllerTest</text><rect fill="#FEFECE" filter="url(#f1efjmbvji9b2j)" height="30.2969" style="stroke:#A80036;stroke-width:1.5;" width="154" x="949" y="53"/><text fill="#000000" font-family="sans-serif" font-size="14" lengthAdjust="spacing" textLength="140" x="956" y="72.9951">:ManifestController</text><rect fill="#FEFECE" filter="url(#f1efjmbvji9b2j)" height="30.2969" style="stroke:#A80036;stroke-width:1.5;" width="154" x="949" y="715.7578"/><text fill="#000000" font-family="sans-serif" font-size="14" lengthAdjust="spacing" textLength="140" x="956" y="735.7529">:ManifestController</text><rect fill="#FEFECE" filter="url(#f1efjmbvji9b2j)" height="30.2969" style="stroke:#A80036;stroke-width:1.5;" width="170" x="1615" y="53"/><text fill="#000000" font-family="sans-serif" font-size="14" lengthAdjust="spacing" textLength="156" x="1622" y="72.9951">:DatabaseConnection</text><rect fill="#FEFECE" filter="url(#f1efjmbvji9b2j)" height="30.2969" style="stroke:#A80036;stroke-width:1.5;" width="170" x="1615" y="715.7578"/><text fill="#000000" font-family="sans-serif" font-size="14" lengthAdjust="spacing" textLength="156" x="1622" y="735.7529">:DatabaseConnection</text><rect fill="#FFFFFF" filter="url(#f1efjmbvji9b2j)" height="609.4609" style="stroke:#A80036;stroke-width:1.0;" width="10" x="47" y="98.2969"/><rect fill="#FFFFFF" filter="url(#f1efjmbvji9b2j)" height="29.1328" style="stroke:#A80036;stroke-width:1.0;" width="10" x="537" y="119.4297"/><rect fill="#FFFFFF" filter="url(#f1efjmbvji9b2j)" height="29.1328" style="stroke:#A80036;stroke-width:1.0;" width="10" x="537" y="669.625"/><rect fill="#FFFFFF" filter="url(#f1efjmbvji9b2j)" height="521.0625" style="stroke:#A80036;stroke-width:1.0;" width="10" x="1023" y="148.5625"/><rect fill="#FFFFFF" filter="url(#f1efjmbvji9b2j)" height="28" style="stroke:#A80036;stroke-width:1.0;" width="10" x="1028" y="244.8281"/><rect fill="#FFFFFF" filter="url(#f1efjmbvji9b2j)" height="28" style="stroke:#A80036;stroke-width:1.0;" width="10" x="1028" y="316.9609"/><rect fill="#FFFFFF" filter="url(#f1efjmbvji9b2j)" height="28" style="stroke:#A80036;stroke-width:1.0;" width="10" x="1028" y="389.0938"/><rect fill="#FFFFFF" filter="url(#f1efjmbvji9b2j)" height="28" style="stroke:#A80036;stroke-width:1.0;" width="10" x="1028" y="461.2266"/><rect fill="#FFFFFF" filter="url(#f1efjmbvji9b2j)" height="28" style="stroke:#A80036;stroke-width:1.0;" width="10" x="1028" y="533.3594"/><rect fill="#FFFFFF" filter="url(#f1efjmbvji9b2j)" height="28" style="stroke:#A80036;stroke-width:1.0;" width="10" x="1028" y="605.4922"/><rect fill="#FFFFFF" filter="url(#f1efjmbvji9b2j)" height="30" style="stroke:#A80036;stroke-width:1.0;" width="10" x="1697" y="177.6953"/><polygon fill="#A80036" points="525,115.4297,535,119.4297,525,123.4297,529,119.4297" style="stroke:#A80036;stroke-width:1.0;"/><line style="stroke:#A80036;stroke-width:1.0;" x1="57" x2="531" y1="119.4297" y2="119.4297"/><text fill="#000000" font-family="sans-serif" font-size="13" font-weight="bold" lengthAdjust="spacing" textLength="9" x="64" y="114.3638">1</text><text fill="#000000" font-family="sans-serif" font-size="13" lengthAdjust="spacing" textLength="161" x="77" y="114.3638">types his ID and the year</text><polygon fill="#A80036" points="1011,144.5625,1021,148.5625,1011,152.5625,1015,148.5625" style="stroke:#A80036;stroke-width:1.0;"/><line style="stroke:#A80036;stroke-width:1.0;" x1="542" x2="1017" y1="148.5625" y2="148.5625"/><text fill="#000000" font-family="sans-serif" font-size="13" font-weight="bold" lengthAdjust="spacing" textLength="9" x="549" y="143.4966">2</text><text fill="#000000" font-family="sans-serif" font-size="13" lengthAdjust="spacing" textLength="378" x="562" y="143.4966">getContainerManifestsYear(connection,shipCaptainID,year)</text><polygon fill="#A80036" points="1685,173.6953,1695,177.6953,1685,181.6953,1689,177.6953" style="stroke:#A80036;stroke-width:1.0;"/><line style="stroke:#A80036;stroke-width:1.0;" x1="1033" x2="1691" y1="177.6953" y2="177.6953"/><text fill="#000000" font-family="sans-serif" font-size="13" font-weight="bold" lengthAdjust="spacing" textLength="8" x="1040" y="172.6294">3</text><text fill="#000000" font-family="sans-serif" font-size="13" lengthAdjust="spacing" textLength="633" x="1052" y="172.6294">connection.getConnection().prepareCall("{ ? = { ? =call FUNC_SHIPCAPTAINMANIFESTYEAR(?,?,?) }</text><line style="stroke:#A80036;stroke-width:1.0;" x1="1038" x2="1080" y1="236.8281" y2="236.8281"/><line style="stroke:#A80036;stroke-width:1.0;" x1="1080" x2="1080" y1="236.8281" y2="249.8281"/><line style="stroke:#A80036;stroke-width:1.0;" x1="1039" x2="1080" y1="249.8281" y2="249.8281"/><polygon fill="#A80036" points="1049,245.8281,1039,249.8281,1049,253.8281,1045,249.8281" style="stroke:#A80036;stroke-width:1.0;"/><text fill="#000000" font-family="sans-serif" font-size="13" font-weight="bold" lengthAdjust="spacing" textLength="9" x="1045" y="231.7622">4</text><text fill="#000000" font-family="sans-serif" font-size="13" lengthAdjust="spacing" textLength="361" x="1058" y="231.7622">callStmt.registerOutParameter(1, OracleTypes.INTEGER)</text><line style="stroke:#A80036;stroke-width:1.0;" x1="1038" x2="1080" y1="308.9609" y2="308.9609"/><line style="stroke:#A80036;stroke-width:1.0;" x1="1080" x2="1080" y1="308.9609" y2="321.9609"/><line style="stroke:#A80036;stroke-width:1.0;" x1="1039" x2="1080" y1="321.9609" y2="321.9609"/><polygon fill="#A80036" points="1049,317.9609,1039,321.9609,1049,325.9609,1045,321.9609" style="stroke:#A80036;stroke-width:1.0;"/><text fill="#000000" font-family="sans-serif" font-size="13" font-weight="bold" lengthAdjust="spacing" textLength="9" x="1045" y="303.895">5</text><text fill="#000000" font-family="sans-serif" font-size="13" lengthAdjust="spacing" textLength="206" x="1058" y="303.895">callStmt.setInt(2, shipCaptainID)</text><line style="stroke:#A80036;stroke-width:1.0;" x1="1038" x2="1080" y1="381.0938" y2="381.0938"/><line style="stroke:#A80036;stroke-width:1.0;" x1="1080" x2="1080" y1="381.0938" y2="394.0938"/><line style="stroke:#A80036;stroke-width:1.0;" x1="1039" x2="1080" y1="394.0938" y2="394.0938"/><polygon fill="#A80036" points="1049,390.0938,1039,394.0938,1049,398.0938,1045,394.0938" style="stroke:#A80036;stroke-width:1.0;"/><text fill="#000000" font-family="sans-serif" font-size="13" font-weight="bold" lengthAdjust="spacing" textLength="9" x="1045" y="376.0278">6</text><text fill="#000000" font-family="sans-serif" font-size="13" lengthAdjust="spacing" textLength="194" x="1058" y="376.0278">callStmt.setDate(3, startDate)</text><line style="stroke:#A80036;stroke-width:1.0;" x1="1038" x2="1080" y1="453.2266" y2="453.2266"/><line style="stroke:#A80036;stroke-width:1.0;" x1="1080" x2="1080" y1="453.2266" y2="466.2266"/><line style="stroke:#A80036;stroke-width:1.0;" x1="1039" x2="1080" y1="466.2266" y2="466.2266"/><polygon fill="#A80036" points="1049,462.2266,1039,466.2266,1049,470.2266,1045,466.2266" style="stroke:#A80036;stroke-width:1.0;"/><text fill="#000000" font-family="sans-serif" font-size="13" font-weight="bold" lengthAdjust="spacing" textLength="9" x="1045" y="448.1606">7</text><text fill="#000000" font-family="sans-serif" font-size="13" lengthAdjust="spacing" textLength="188" x="1058" y="448.1606">callStmt.setDate(4, endDate)</text><line style="stroke:#A80036;stroke-width:1.0;" x1="1038" x2="1080" y1="525.3594" y2="525.3594"/><line style="stroke:#A80036;stroke-width:1.0;" x1="1080" x2="1080" y1="525.3594" y2="538.3594"/><line style="stroke:#A80036;stroke-width:1.0;" x1="1039" x2="1080" y1="538.3594" y2="538.3594"/><polygon fill="#A80036" points="1049,534.3594,1039,538.3594,1049,542.3594,1045,538.3594" style="stroke:#A80036;stroke-width:1.0;"/><text fill="#000000" font-family="sans-serif" font-size="13" font-weight="bold" lengthAdjust="spacing" textLength="9" x="1045" y="520.2935">8</text><text fill="#000000" font-family="sans-serif" font-size="13" lengthAdjust="spacing" textLength="118" x="1058" y="520.2935">callStmt.execute()</text><line style="stroke:#A80036;stroke-width:1.0;" x1="1038" x2="1080" y1="597.4922" y2="597.4922"/><line style="stroke:#A80036;stroke-width:1.0;" x1="1080" x2="1080" y1="597.4922" y2="610.4922"/><line style="stroke:#A80036;stroke-width:1.0;" x1="1039" x2="1080" y1="610.4922" y2="610.4922"/><polygon fill="#A80036" points="1049,606.4922,1039,610.4922,1049,614.4922,1045,610.4922" style="stroke:#A80036;stroke-width:1.0;"/><text fill="#000000" font-family="sans-serif" font-size="13" font-weight="bold" lengthAdjust="spacing" textLength="9" x="1045" y="592.4263">9</text><text fill="#000000" font-family="sans-serif" font-size="13" lengthAdjust="spacing" textLength="229" x="1058" y="592.4263">res  = (String) callStmt.getObject(1)</text><polygon fill="#A80036" points="558,665.625,548,669.625,558,673.625,554,669.625" style="stroke:#A80036;stroke-width:1.0;"/><line style="stroke:#A80036;stroke-width:1.0;stroke-dasharray:2.0,2.0;" x1="552" x2="1027" y1="669.625" y2="669.625"/><text fill="#000000" font-family="sans-serif" font-size="13" font-weight="bold" lengthAdjust="spacing" textLength="19" x="564" y="664.5591">10</text><text fill="#000000" font-family="sans-serif" font-size="13" lengthAdjust="spacing" textLength="434" x="587" y="664.5591">presents the ShipCaptain with the amount of manifests in that year</text><polygon fill="#A80036" points="68,694.7578,58,698.7578,68,702.7578,64,698.7578" style="stroke:#A80036;stroke-width:1.0;"/><line style="stroke:#A80036;stroke-width:1.0;" x1="62" x2="541" y1="698.7578" y2="698.7578"/><text fill="#000000" font-family="sans-serif" font-size="13" font-weight="bold" lengthAdjust="spacing" textLength="18" x="74" y="693.6919">11</text><text fill="#000000" font-family="sans-serif" font-size="13" lengthAdjust="spacing" textLength="434" x="96" y="693.6919">presents the ShipCaptain with the amount of manifests in that year</text><!--MD5=[9bf1303374c6a9361a0d4f755224b141]
@startuml
autonumber
actor "ShipCaptain" as REC

participant  ":ManifestControllerTest" as TEST
participant ":ManifestController" as UI
participant ":DatabaseConnection" as DBCON





activate REC




REC -> TEST: types his ID and the year 
activate TEST

TEST-> UI : getContainerManifestsYear(connection,shipCaptainID,year)
deactivate TEST
activate UI



UI -> DBCON: connection.getConnection().prepareCall("{ ? = { ? =call FUNC_SHIPCAPTAINMANIFESTYEAR(?,?,?) }
activate DBCON
deactivate DBCON

UI -> UI : callStmt.registerOutParameter(1, OracleTypes.INTEGER)
activate UI
deactivate UI

UI -> UI : callStmt.setInt(2, shipCaptainID)
activate UI
deactivate UI
UI -> UI : callStmt.setDate(3, startDate)
activate UI
deactivate UI
UI -> UI : callStmt.setDate(4, endDate)
activate UI
deactivate UI

UI -> UI : callStmt.execute()
activate UI
deactivate UI

UI -> UI : res  = (String) callStmt.getObject(1)
activate UI
deactivate UI

deactivate TEST



UI - -> TEST: presents the ShipCaptain with the amount of manifests in that year
deactivate UI

activate TEST
TEST-> REC : presents the ShipCaptain with the amount of manifests in that year
deactivate TEST
@enduml

PlantUML version 1.2021.16beta1(Unknown compile time)
(GPL source distribution)
Java Runtime: Java(TM) SE Runtime Environment
JVM: Java HotSpot(TM) 64-Bit Server VM
Default Encoding: UTF-8
Language: en
Country: US
--></g></svg>