<?xml version="1.0" encoding="UTF-8" standalone="no"?><svg xmlns="http://www.w3.org/2000/svg" xmlns:xlink="http://www.w3.org/1999/xlink" contentScriptType="application/ecmascript" contentStyleType="text/css" height="385px" preserveAspectRatio="none" style="width:589px;height:385px;background:#FFFFFF;" version="1.1" viewBox="0 0 589 385" width="589px" zoomAndPan="magnify"><defs><filter height="300%" id="fvakrquqp641p" width="300%" x="-1" y="-1"><feGaussianBlur result="blurOut" stdDeviation="2.0"/><feColorMatrix in="blurOut" result="blurOut2" type="matrix" values="0 0 0 0 0 0 0 0 0 0 0 0 0 0 0 0 0 0 .4 0"/><feOffset dx="4.0" dy="4.0" in="blurOut2" result="blurOut3"/><feBlend in="SourceGraphic" in2="blurOut3" mode="normal"/></filter></defs><g><!--MD5=[e6b394b930674b2255938b8afe6bb7b4]
class ShipCaptain--><rect codeLine="2" fill="#FEFECE" filter="url(#fvakrquqp641p)" height="73.6094" id="ShipCaptain" style="stroke:#A80036;stroke-width:1.5;" width="102" x="316.5" y="19.5"/><ellipse cx="331.5" cy="35.5" fill="#ADD1B2" rx="11" ry="11" style="stroke:#A80036;stroke-width:1.0;"/><path d="M333.8438,31.1719 C332.9063,30.7344 332.3125,30.5938 331.4375,30.5938 C328.8125,30.5938 326.8125,32.6719 326.8125,35.3906 L326.8125,36.5156 C326.8125,39.0938 328.9219,40.9844 331.8125,40.9844 C333.0313,40.9844 334.1875,40.6875 334.9375,40.1406 C335.5156,39.7344 335.8438,39.2813 335.8438,38.8906 C335.8438,38.4375 335.4531,38.0469 334.9844,38.0469 C334.7656,38.0469 334.5625,38.125 334.375,38.3125 C333.9219,38.7969 333.9219,38.7969 333.7344,38.8906 C333.3125,39.1563 332.625,39.2813 331.8594,39.2813 C329.8125,39.2813 328.5156,38.1875 328.5156,36.4844 L328.5156,35.3906 C328.5156,33.6094 329.7656,32.2969 331.5,32.2969 C332.0781,32.2969 332.6875,32.4531 333.1563,32.7031 C333.6406,32.9844 333.8125,33.2031 333.9063,33.6094 C333.9688,34.0156 334,34.1406 334.1406,34.2656 C334.2813,34.4063 334.5156,34.5156 334.7344,34.5156 C335,34.5156 335.2656,34.375 335.4375,34.1563 C335.5469,34 335.5781,33.8125 335.5781,33.3906 L335.5781,31.9688 C335.5781,31.5313 335.5625,31.4063 335.4688,31.25 C335.3125,30.9844 335.0313,30.8438 334.7344,30.8438 C334.4375,30.8438 334.2344,30.9375 334.0156,31.25 L333.8438,31.1719 Z " fill="#000000"/><text fill="#000000" font-family="sans-serif" font-size="12" lengthAdjust="spacing" textLength="70" x="345.5" y="39.6543">ShipCaptain</text><line style="stroke:#A80036;stroke-width:1.5;" x1="317.5" x2="417.5" y1="51.5" y2="51.5"/><text fill="#000000" font-family="sans-serif" font-size="11" lengthAdjust="spacing" textLength="41" x="322.5" y="65.7104">-userID</text><text fill="#000000" font-family="sans-serif" font-size="11" lengthAdjust="spacing" textLength="37" x="322.5" y="78.5151">-name</text><line style="stroke:#A80036;stroke-width:1.5;" x1="317.5" x2="417.5" y1="85.1094" y2="85.1094"/><!--MD5=[0dc7f2ddb409b58bcf52b12238c25399]
class Ship--><rect codeLine="7" fill="#FEFECE" filter="url(#fvakrquqp641p)" height="188.8516" id="Ship" style="stroke:#A80036;stroke-width:1.5;" width="177" x="294" y="183"/><ellipse cx="365.25" cy="199" fill="#ADD1B2" rx="11" ry="11" style="stroke:#A80036;stroke-width:1.0;"/><path d="M367.5938,194.6719 C366.6563,194.2344 366.0625,194.0938 365.1875,194.0938 C362.5625,194.0938 360.5625,196.1719 360.5625,198.8906 L360.5625,200.0156 C360.5625,202.5938 362.6719,204.4844 365.5625,204.4844 C366.7813,204.4844 367.9375,204.1875 368.6875,203.6406 C369.2656,203.2344 369.5938,202.7813 369.5938,202.3906 C369.5938,201.9375 369.2031,201.5469 368.7344,201.5469 C368.5156,201.5469 368.3125,201.625 368.125,201.8125 C367.6719,202.2969 367.6719,202.2969 367.4844,202.3906 C367.0625,202.6563 366.375,202.7813 365.6094,202.7813 C363.5625,202.7813 362.2656,201.6875 362.2656,199.9844 L362.2656,198.8906 C362.2656,197.1094 363.5156,195.7969 365.25,195.7969 C365.8281,195.7969 366.4375,195.9531 366.9063,196.2031 C367.3906,196.4844 367.5625,196.7031 367.6563,197.1094 C367.7188,197.5156 367.75,197.6406 367.8906,197.7656 C368.0313,197.9063 368.2656,198.0156 368.4844,198.0156 C368.75,198.0156 369.0156,197.875 369.1875,197.6563 C369.2969,197.5 369.3281,197.3125 369.3281,196.8906 L369.3281,195.4688 C369.3281,195.0313 369.3125,194.9063 369.2188,194.75 C369.0625,194.4844 368.7813,194.3438 368.4844,194.3438 C368.1875,194.3438 367.9844,194.4375 367.7656,194.75 L367.5938,194.6719 Z " fill="#000000"/><text fill="#000000" font-family="sans-serif" font-size="12" lengthAdjust="spacing" textLength="26" x="385.75" y="203.1543">Ship</text><line style="stroke:#A80036;stroke-width:1.5;" x1="295" x2="470" y1="215" y2="215"/><text fill="#000000" font-family="sans-serif" font-size="11" lengthAdjust="spacing" textLength="33" x="300" y="229.2104">-MMSI</text><text fill="#000000" font-family="sans-serif" font-size="11" lengthAdjust="spacing" textLength="37" x="300" y="242.0151">-name</text><text fill="#000000" font-family="sans-serif" font-size="11" lengthAdjust="spacing" textLength="81" x="300" y="254.8198">-IMOIDnumber</text><text fill="#000000" font-family="sans-serif" font-size="11" lengthAdjust="spacing" textLength="165" x="300" y="267.6245">-numberOfEnergyGenerators</text><text fill="#000000" font-family="sans-serif" font-size="11" lengthAdjust="spacing" textLength="132" x="300" y="280.4292">-generatorPowerOutput</text><text fill="#000000" font-family="sans-serif" font-size="11" lengthAdjust="spacing" textLength="48" x="300" y="293.2339">-callSign</text><text fill="#000000" font-family="sans-serif" font-size="11" lengthAdjust="spacing" textLength="101" x="300" y="306.0386">-vesselTypeCode</text><text fill="#000000" font-family="sans-serif" font-size="11" lengthAdjust="spacing" textLength="34" x="300" y="318.8433">-width</text><text fill="#000000" font-family="sans-serif" font-size="11" lengthAdjust="spacing" textLength="40" x="300" y="331.6479">-length</text><text fill="#000000" font-family="sans-serif" font-size="11" lengthAdjust="spacing" textLength="51" x="300" y="344.4526">-capacity</text><text fill="#000000" font-family="sans-serif" font-size="11" lengthAdjust="spacing" textLength="30" x="300" y="357.2573">-draft</text><line style="stroke:#A80036;stroke-width:1.5;" x1="295" x2="470" y1="363.8516" y2="363.8516"/><!--MD5=[a0bfe97ac0a38e6e74cc1c7c7b744b71]
class Port--><rect codeLine="20" fill="#FEFECE" filter="url(#fvakrquqp641p)" height="124.8281" id="Port" style="stroke:#A80036;stroke-width:1.5;" width="69" x="506" y="215"/><ellipse cx="527.3" cy="231" fill="#ADD1B2" rx="11" ry="11" style="stroke:#A80036;stroke-width:1.0;"/><path d="M529.6438,226.6719 C528.7063,226.2344 528.1125,226.0938 527.2375,226.0938 C524.6125,226.0938 522.6125,228.1719 522.6125,230.8906 L522.6125,232.0156 C522.6125,234.5938 524.7219,236.4844 527.6125,236.4844 C528.8313,236.4844 529.9875,236.1875 530.7375,235.6406 C531.3156,235.2344 531.6438,234.7813 531.6438,234.3906 C531.6438,233.9375 531.2531,233.5469 530.7844,233.5469 C530.5656,233.5469 530.3625,233.625 530.175,233.8125 C529.7219,234.2969 529.7219,234.2969 529.5344,234.3906 C529.1125,234.6563 528.425,234.7813 527.6594,234.7813 C525.6125,234.7813 524.3156,233.6875 524.3156,231.9844 L524.3156,230.8906 C524.3156,229.1094 525.5656,227.7969 527.3,227.7969 C527.8781,227.7969 528.4875,227.9531 528.9563,228.2031 C529.4406,228.4844 529.6125,228.7031 529.7063,229.1094 C529.7688,229.5156 529.8,229.6406 529.9406,229.7656 C530.0813,229.9063 530.3156,230.0156 530.5344,230.0156 C530.8,230.0156 531.0656,229.875 531.2375,229.6563 C531.3469,229.5 531.3781,229.3125 531.3781,228.8906 L531.3781,227.4688 C531.3781,227.0313 531.3625,226.9063 531.2688,226.75 C531.1125,226.4844 530.8313,226.3438 530.5344,226.3438 C530.2375,226.3438 530.0344,226.4375 529.8156,226.75 L529.6438,226.6719 Z " fill="#000000"/><text fill="#000000" font-family="sans-serif" font-size="12" lengthAdjust="spacing" textLength="23" x="542.7" y="235.1543">Port</text><line style="stroke:#A80036;stroke-width:1.5;" x1="507" x2="574" y1="247" y2="247"/><text fill="#000000" font-family="sans-serif" font-size="11" lengthAdjust="spacing" textLength="37" x="512" y="261.2104">-PortID</text><text fill="#000000" font-family="sans-serif" font-size="11" lengthAdjust="spacing" textLength="37" x="512" y="274.0151">-name</text><text fill="#000000" font-family="sans-serif" font-size="11" lengthAdjust="spacing" textLength="57" x="512" y="286.8198">-continent</text><text fill="#000000" font-family="sans-serif" font-size="11" lengthAdjust="spacing" textLength="46" x="512" y="299.6245">-country</text><text fill="#000000" font-family="sans-serif" font-size="11" lengthAdjust="spacing" textLength="47" x="512" y="312.4292">-latitude</text><text fill="#000000" font-family="sans-serif" font-size="11" lengthAdjust="spacing" textLength="57" x="512" y="325.2339">-longitude</text><line style="stroke:#A80036;stroke-width:1.5;" x1="507" x2="574" y1="331.8281" y2="331.8281"/><!--MD5=[e9a58730c562b34349daa605d1ed6662]
class Container--><rect codeLine="28" fill="#FEFECE" filter="url(#fvakrquqp641p)" height="137.6328" id="Container" style="stroke:#A80036;stroke-width:1.5;" width="161" x="7" y="208.5"/><ellipse cx="54.75" cy="224.5" fill="#ADD1B2" rx="11" ry="11" style="stroke:#A80036;stroke-width:1.0;"/><path d="M57.0938,220.1719 C56.1563,219.7344 55.5625,219.5938 54.6875,219.5938 C52.0625,219.5938 50.0625,221.6719 50.0625,224.3906 L50.0625,225.5156 C50.0625,228.0938 52.1719,229.9844 55.0625,229.9844 C56.2813,229.9844 57.4375,229.6875 58.1875,229.1406 C58.7656,228.7344 59.0938,228.2813 59.0938,227.8906 C59.0938,227.4375 58.7031,227.0469 58.2344,227.0469 C58.0156,227.0469 57.8125,227.125 57.625,227.3125 C57.1719,227.7969 57.1719,227.7969 56.9844,227.8906 C56.5625,228.1563 55.875,228.2813 55.1094,228.2813 C53.0625,228.2813 51.7656,227.1875 51.7656,225.4844 L51.7656,224.3906 C51.7656,222.6094 53.0156,221.2969 54.75,221.2969 C55.3281,221.2969 55.9375,221.4531 56.4063,221.7031 C56.8906,221.9844 57.0625,222.2031 57.1563,222.6094 C57.2188,223.0156 57.25,223.1406 57.3906,223.2656 C57.5313,223.4063 57.7656,223.5156 57.9844,223.5156 C58.25,223.5156 58.5156,223.375 58.6875,223.1563 C58.7969,223 58.8281,222.8125 58.8281,222.3906 L58.8281,220.9688 C58.8281,220.5313 58.8125,220.4063 58.7188,220.25 C58.5625,219.9844 58.2813,219.8438 57.9844,219.8438 C57.6875,219.8438 57.4844,219.9375 57.2656,220.25 L57.0938,220.1719 Z " fill="#000000"/><text fill="#000000" font-family="sans-serif" font-size="12" lengthAdjust="spacing" textLength="57" x="75.25" y="228.6543">Container</text><line style="stroke:#A80036;stroke-width:1.5;" x1="8" x2="167" y1="240.5" y2="240.5"/><text fill="#000000" font-family="sans-serif" font-size="11" lengthAdjust="spacing" textLength="69" x="13" y="254.7104">-containerID</text><text fill="#000000" font-family="sans-serif" font-size="11" lengthAdjust="spacing" textLength="49" x="13" y="267.5151">-payload</text><text fill="#000000" font-family="sans-serif" font-size="11" lengthAdjust="spacing" textLength="27" x="13" y="280.3198">-tare</text><text fill="#000000" font-family="sans-serif" font-size="11" lengthAdjust="spacing" textLength="34" x="13" y="293.1245">-gross</text><text fill="#000000" font-family="sans-serif" font-size="11" lengthAdjust="spacing" textLength="54" x="13" y="305.9292">-ISOCode</text><text fill="#000000" font-family="sans-serif" font-size="11" lengthAdjust="spacing" textLength="40" x="13" y="318.7339">-length</text><text fill="#000000" font-family="sans-serif" font-size="11" lengthAdjust="spacing" textLength="149" x="13" y="331.5386">-refrigerationTemperature</text><line style="stroke:#A80036;stroke-width:1.5;" x1="8" x2="167" y1="338.1328" y2="338.1328"/><!--MD5=[76562047389981627aea27c31a97aff5]
class CargoManifest--><rect codeLine="37" fill="#FEFECE" filter="url(#fvakrquqp641p)" height="99.2188" id="CargoManifest" style="stroke:#A80036;stroke-width:1.5;" width="123" x="26" y="7"/><ellipse cx="43.25" cy="23" fill="#ADD1B2" rx="11" ry="11" style="stroke:#A80036;stroke-width:1.0;"/><path d="M45.5938,18.6719 C44.6563,18.2344 44.0625,18.0938 43.1875,18.0938 C40.5625,18.0938 38.5625,20.1719 38.5625,22.8906 L38.5625,24.0156 C38.5625,26.5938 40.6719,28.4844 43.5625,28.4844 C44.7813,28.4844 45.9375,28.1875 46.6875,27.6406 C47.2656,27.2344 47.5938,26.7813 47.5938,26.3906 C47.5938,25.9375 47.2031,25.5469 46.7344,25.5469 C46.5156,25.5469 46.3125,25.625 46.125,25.8125 C45.6719,26.2969 45.6719,26.2969 45.4844,26.3906 C45.0625,26.6563 44.375,26.7813 43.6094,26.7813 C41.5625,26.7813 40.2656,25.6875 40.2656,23.9844 L40.2656,22.8906 C40.2656,21.1094 41.5156,19.7969 43.25,19.7969 C43.8281,19.7969 44.4375,19.9531 44.9063,20.2031 C45.3906,20.4844 45.5625,20.7031 45.6563,21.1094 C45.7188,21.5156 45.75,21.6406 45.8906,21.7656 C46.0313,21.9063 46.2656,22.0156 46.4844,22.0156 C46.75,22.0156 47.0156,21.875 47.1875,21.6563 C47.2969,21.5 47.3281,21.3125 47.3281,20.8906 L47.3281,19.4688 C47.3281,19.0313 47.3125,18.9063 47.2188,18.75 C47.0625,18.4844 46.7813,18.3438 46.4844,18.3438 C46.1875,18.3438 45.9844,18.4375 45.7656,18.75 L45.5938,18.6719 Z " fill="#000000"/><text fill="#000000" font-family="sans-serif" font-size="12" lengthAdjust="spacing" textLength="86" x="57.75" y="27.1543">CargoManifest</text><line style="stroke:#A80036;stroke-width:1.5;" x1="27" x2="148" y1="39" y2="39"/><text fill="#000000" font-family="sans-serif" font-size="11" lengthAdjust="spacing" textLength="111" x="32" y="53.2104">-typeCargoManifest</text><text fill="#000000" font-family="sans-serif" font-size="11" lengthAdjust="spacing" textLength="69" x="32" y="66.0151">-containerID</text><text fill="#000000" font-family="sans-serif" font-size="11" lengthAdjust="spacing" textLength="76" x="32" y="78.8198">-containerPos</text><text fill="#000000" font-family="sans-serif" font-size="11" lengthAdjust="spacing" textLength="89" x="32" y="91.6245">-containerGross</text><line style="stroke:#A80036;stroke-width:1.5;" x1="27" x2="148" y1="98.2188" y2="98.2188"/><!--MD5=[f065240a342e449619d6d797ab4a538f]
link ShipCaptain to Ship--><path codeLine="43" d="M365.822,93.838 C365.286,107.104 364.763,122.228 364.5,136 C364.356,143.554 363.954,145.464 364.5,153 C365.084,161.053 365.879,169.379 366.812,177.727 " fill="none" id="ShipCaptain-to-Ship" style="stroke:#A80036;stroke-width:1.0;"/><polygon fill="#A80036" points="367.41,182.926,370.3552,173.5278,366.8386,177.9588,362.4076,174.4421,367.41,182.926" style="stroke:#A80036;stroke-width:1.0;"/><text fill="#000000" font-family="sans-serif" font-size="13" lengthAdjust="spacing" textLength="34" x="365.5" y="149.0669">pilots</text><text fill="#000000" font-family="sans-serif" font-size="13" lengthAdjust="spacing" textLength="8" x="356.9171" y="113.0927">1</text><text fill="#000000" font-family="sans-serif" font-size="13" lengthAdjust="spacing" textLength="27" x="338.1317" y="171.8701">1...*</text><!--MD5=[a93f71c337684849482b0ec5675aa7db]
link CargoManifest to Container--><path codeLine="44" d="M87.5,106.103 C87.5,134.572 87.5,171.092 87.5,203.016 " fill="none" id="CargoManifest-to-Container" style="stroke:#A80036;stroke-width:1.0;"/><polygon fill="#A80036" points="87.5,208.098,91.5,199.098,87.5,203.098,83.5,199.098,87.5,208.098" style="stroke:#A80036;stroke-width:1.0;"/><text fill="#000000" font-family="sans-serif" font-size="13" lengthAdjust="spacing" textLength="189" x="88.5" y="149.0669">documents the movement of</text><text fill="#000000" font-family="sans-serif" font-size="13" lengthAdjust="spacing" textLength="8" x="78.9375" y="126.194">1</text><text fill="#000000" font-family="sans-serif" font-size="13" lengthAdjust="spacing" textLength="27" x="59.1078" y="197.2602">1...*</text><!--MD5=[83f0003916db174b16d7a678871819d2]
link Container to Port--><path codeLine="45" d="M168.169,230.98 C200.913,213.756 239.65,195.419 276.5,183 C333.289,163.861 349.332,163.58 409,158 C451.924,153.986 471.546,132.086 506,158 C522.386,170.325 531.363,189.947 536.173,209.758 " fill="none" id="Container-to-Port" style="stroke:#A80036;stroke-width:1.0;"/><polygon fill="#A80036" points="537.308,214.794,539.2331,205.1351,536.2096,209.9161,531.4286,206.8926,537.308,214.794" style="stroke:#A80036;stroke-width:1.0;"/><text fill="#000000" font-family="sans-serif" font-size="13" lengthAdjust="spacing" textLength="95" x="410" y="149.0669">are unloadedin</text><text fill="#000000" font-family="sans-serif" font-size="13" lengthAdjust="spacing" textLength="27" x="175.9674" y="223.5941">1...*</text><text fill="#000000" font-family="sans-serif" font-size="13" lengthAdjust="spacing" textLength="8" x="528.4764" y="203.7609">1</text><!--MD5=[6d5dd08da3e475f33945cfb0fe057df9]
link Container to Ship--><path codeLine="46" d="M168.11,277.5 C205.416,277.5 249.964,277.5 288.763,277.5 " fill="none" id="Container-to-Ship" style="stroke:#A80036;stroke-width:1.0;"/><polygon fill="#A80036" points="293.953,277.5,284.953,273.5,288.953,277.5,284.953,281.5,293.953,277.5" style="stroke:#A80036;stroke-width:1.0;"/><text fill="#000000" font-family="sans-serif" font-size="13" lengthAdjust="spacing" textLength="89" x="186.5" y="270.5669">are carrued in</text><text fill="#000000" font-family="sans-serif" font-size="13" lengthAdjust="spacing" textLength="27" x="175.9035" y="290.2087">1...*</text><text fill="#000000" font-family="sans-serif" font-size="13" lengthAdjust="spacing" textLength="8" x="277.9997" y="273.9344">1</text><!--MD5=[0c0de97b414fda0e6eab57c67a7972ec]
@startuml
skinparam classAttributeIconSize 0
class ShipCaptain{
-userID
-name
}

class Ship {
-MMSI
-name
-IMOIDnumber
-numberOfEnergyGenerators
-generatorPowerOutput
-callSign
-vesselTypeCode
-width
-length
-capacity
-draft
}
Class Port{
-PortID
-name
-continent
-country
-latitude
-longitude
}
Class Container{
-containerID
-payload
-tare
-gross
-ISOCode
-length
-refrigerationTemperature
}
class CargoManifest{
-typeCargoManifest
-containerID
-containerPos
-containerGross
}
ShipCaptain "1" - -> "1...*" Ship : pilots
CargoManifest "1" - ->"1...*" Container : documents the movement of 
Container "1...*" -> "1" Port :are unloadedin
Container "1...*" -> "1" Ship :are carrued in
@enduml

PlantUML version 1.2021.16beta1(Unknown compile time)
(GPL source distribution)
Java Runtime: Java(TM) SE Runtime Environment
JVM: Java HotSpot(TM) 64-Bit Server VM
Default Encoding: UTF-8
Language: en
Country: US
--></g></svg>