<?xml version="1.0" encoding="UTF-8" standalone="no"?><svg xmlns="http://www.w3.org/2000/svg" xmlns:xlink="http://www.w3.org/1999/xlink" contentScriptType="application/ecmascript" contentStyleType="text/css" height="250px" preserveAspectRatio="none" style="width:615px;height:250px;background:#FFFFFF;" version="1.1" viewBox="0 0 615 250" width="615px" zoomAndPan="magnify"><defs><filter height="300%" id="frtoz4325dyzv" width="300%" x="-1" y="-1"><feGaussianBlur result="blurOut" stdDeviation="2.0"/><feColorMatrix in="blurOut" result="blurOut2" type="matrix" values="0 0 0 0 0 0 0 0 0 0 0 0 0 0 0 0 0 0 .4 0"/><feOffset dx="4.0" dy="4.0" in="blurOut2" result="blurOut3"/><feBlend in="SourceGraphic" in2="blurOut3" mode="normal"/></filter></defs><g><rect fill="#FFFFFF" filter="url(#frtoz4325dyzv)" height="50.2656" style="stroke:#A80036;stroke-width:1.0;" width="10" x="47" y="98.2969"/><rect fill="#FFFFFF" filter="url(#frtoz4325dyzv)" height="29.1328" style="stroke:#A80036;stroke-width:1.0;" width="10" x="562" y="119.4297"/><line style="stroke:#A80036;stroke-width:1.0;stroke-dasharray:5.0,5.0;" x1="52" x2="52" y1="88.2969" y2="166.5625"/><line style="stroke:#A80036;stroke-width:1.0;stroke-dasharray:5.0,5.0;" x1="566.5" x2="566.5" y1="88.2969" y2="166.5625"/><text fill="#000000" font-family="sans-serif" font-size="14" lengthAdjust="spacing" textLength="88" x="5" y="84.9951">ShipCaptain</text><ellipse cx="52" cy="15" fill="#FEFECE" filter="url(#frtoz4325dyzv)" rx="8" ry="8" style="stroke:#A80036;stroke-width:2.0;"/><path d="M52,23 L52,50 M39,31 L65,31 M52,50 L39,65 M52,50 L65,65 " fill="none" filter="url(#frtoz4325dyzv)" style="stroke:#A80036;stroke-width:2.0;"/><text fill="#000000" font-family="sans-serif" font-size="14" lengthAdjust="spacing" textLength="88" x="5" y="178.5576">ShipCaptain</text><ellipse cx="52" cy="191.8594" fill="#FEFECE" filter="url(#frtoz4325dyzv)" rx="8" ry="8" style="stroke:#A80036;stroke-width:2.0;"/><path d="M52,199.8594 L52,226.8594 M39,207.8594 L65,207.8594 M52,226.8594 L39,241.8594 M52,226.8594 L65,241.8594 " fill="none" filter="url(#frtoz4325dyzv)" style="stroke:#A80036;stroke-width:2.0;"/><rect fill="#FEFECE" filter="url(#frtoz4325dyzv)" height="30.2969" style="stroke:#A80036;stroke-width:1.5;" width="73" x="528.5" y="53"/><text fill="#000000" font-family="sans-serif" font-size="14" lengthAdjust="spacing" textLength="59" x="535.5" y="72.9951">:System</text><rect fill="#FEFECE" filter="url(#frtoz4325dyzv)" height="30.2969" style="stroke:#A80036;stroke-width:1.5;" width="73" x="528.5" y="165.5625"/><text fill="#000000" font-family="sans-serif" font-size="14" lengthAdjust="spacing" textLength="59" x="535.5" y="185.5576">:System</text><rect fill="#FFFFFF" filter="url(#frtoz4325dyzv)" height="50.2656" style="stroke:#A80036;stroke-width:1.0;" width="10" x="47" y="98.2969"/><rect fill="#FFFFFF" filter="url(#frtoz4325dyzv)" height="29.1328" style="stroke:#A80036;stroke-width:1.0;" width="10" x="562" y="119.4297"/><polygon fill="#A80036" points="550,115.4297,560,119.4297,550,123.4297,554,119.4297" style="stroke:#A80036;stroke-width:1.0;"/><line style="stroke:#A80036;stroke-width:1.0;" x1="57" x2="556" y1="119.4297" y2="119.4297"/><text fill="#000000" font-family="sans-serif" font-size="13" font-weight="bold" lengthAdjust="spacing" textLength="9" x="64" y="114.3638">1</text><text fill="#000000" font-family="sans-serif" font-size="13" lengthAdjust="spacing" textLength="210" x="77" y="114.3638">chooses a Year to get Data from</text><polygon fill="#A80036" points="63,144.5625,53,148.5625,63,152.5625,59,148.5625" style="stroke:#A80036;stroke-width:1.0;"/><line style="stroke:#A80036;stroke-width:1.0;stroke-dasharray:2.0,2.0;" x1="57" x2="566" y1="148.5625" y2="148.5625"/><text fill="#000000" font-family="sans-serif" font-size="13" font-weight="bold" lengthAdjust="spacing" textLength="9" x="69" y="143.4966">2</text><text fill="#000000" font-family="sans-serif" font-size="13" lengthAdjust="spacing" textLength="468" x="82" y="143.4966">shows the number of containers and the average container per manifest</text><!--MD5=[9166b5173a6023fe6ff38d592e05e536]
@startuml
autonumber
actor "ShipCaptain" as TM

activate TM
TM-> ":System" : chooses a Year to get Data from
activate ":System"
":System" - -> TM : shows the number of containers and the average container per manifest
deactivate ":System"

deactivate TM
@enduml

PlantUML version 1.2021.16beta1(Unknown compile time)
(GPL source distribution)
Java Runtime: Java(TM) SE Runtime Environment
JVM: Java HotSpot(TM) 64-Bit Server VM
Default Encoding: UTF-8
Language: en
Country: US
--></g></svg>