<?xml version="1.0" encoding="UTF-8" standalone="no"?><svg xmlns="http://www.w3.org/2000/svg" xmlns:xlink="http://www.w3.org/1999/xlink" contentScriptType="application/ecmascript" contentStyleType="text/css" height="120px" preserveAspectRatio="none" style="width:1558px;height:120px;background:#FFFFFF;" version="1.1" viewBox="0 0 1558 120" width="1558px" zoomAndPan="magnify"><defs><filter height="300%" id="f1309w0wm0xjm6" width="300%" x="-1" y="-1"><feGaussianBlur result="blurOut" stdDeviation="2.0"/><feColorMatrix in="blurOut" result="blurOut2" type="matrix" values="0 0 0 0 0 0 0 0 0 0 0 0 0 0 0 0 0 0 .4 0"/><feOffset dx="4.0" dy="4.0" in="blurOut2" result="blurOut3"/><feBlend in="SourceGraphic" in2="blurOut3" mode="normal"/></filter></defs><g><!--MD5=[16e1d24f8b202621fd1a4af6b34dca2a]
class ManifestDB--><rect codeLine="6" fill="#FEFECE" filter="url(#f1309w0wm0xjm6)" height="99.2188" id="ManifestDB" style="stroke:#A80036;stroke-width:1.5;" width="584" x="960" y="7"/><ellipse cx="1214.25" cy="23" fill="#ADD1B2" rx="11" ry="11" style="stroke:#A80036;stroke-width:1.0;"/><path d="M1216.5938,18.6719 C1215.6563,18.2344 1215.0625,18.0938 1214.1875,18.0938 C1211.5625,18.0938 1209.5625,20.1719 1209.5625,22.8906 L1209.5625,24.0156 C1209.5625,26.5938 1211.6719,28.4844 1214.5625,28.4844 C1215.7813,28.4844 1216.9375,28.1875 1217.6875,27.6406 C1218.2656,27.2344 1218.5938,26.7813 1218.5938,26.3906 C1218.5938,25.9375 1218.2031,25.5469 1217.7344,25.5469 C1217.5156,25.5469 1217.3125,25.625 1217.125,25.8125 C1216.6719,26.2969 1216.6719,26.2969 1216.4844,26.3906 C1216.0625,26.6563 1215.375,26.7813 1214.6094,26.7813 C1212.5625,26.7813 1211.2656,25.6875 1211.2656,23.9844 L1211.2656,22.8906 C1211.2656,21.1094 1212.5156,19.7969 1214.25,19.7969 C1214.8281,19.7969 1215.4375,19.9531 1215.9063,20.2031 C1216.3906,20.4844 1216.5625,20.7031 1216.6563,21.1094 C1216.7188,21.5156 1216.75,21.6406 1216.8906,21.7656 C1217.0313,21.9063 1217.2656,22.0156 1217.4844,22.0156 C1217.75,22.0156 1218.0156,21.875 1218.1875,21.6563 C1218.2969,21.5 1218.3281,21.3125 1218.3281,20.8906 L1218.3281,19.4688 C1218.3281,19.0313 1218.3125,18.9063 1218.2188,18.75 C1218.0625,18.4844 1217.7813,18.3438 1217.4844,18.3438 C1217.1875,18.3438 1216.9844,18.4375 1216.7656,18.75 L1216.5938,18.6719 Z " fill="#000000"/><text fill="#000000" font-family="sans-serif" font-size="12" lengthAdjust="spacing" textLength="67" x="1234.75" y="27.1543">ManifestDB</text><line style="stroke:#A80036;stroke-width:1.5;" x1="961" x2="1543" y1="39" y2="39"/><text fill="#000000" font-family="sans-serif" font-size="11" lengthAdjust="spacing" textLength="247" x="966" y="53.2104">-databaseConnection: DatabaseConnection</text><line style="stroke:#A80036;stroke-width:1.5;" x1="961" x2="1543" y1="59.8047" y2="59.8047"/><text fill="#000000" font-family="sans-serif" font-size="11" lengthAdjust="spacing" textLength="506" x="966" y="74.0151">+getContainerManifestsYear(DatabaseConnection connection,int shipCaptainID, int year)</text><text fill="#000000" font-family="sans-serif" font-size="11" lengthAdjust="spacing" textLength="572" x="966" y="86.8198">+getAverageContainersForManifestYear(DatabaseConnection connection,int shipCaptainID, int year)</text><text fill="#000000" font-family="sans-serif" font-size="11" lengthAdjust="spacing" textLength="17" x="966" y="99.6245">...()</text><!--MD5=[3fc3724e8aa76135d3019510134341c6]
class ManifestController--><rect codeLine="13" fill="#FEFECE" filter="url(#f1309w0wm0xjm6)" height="99.2188" id="ManifestController" style="stroke:#A80036;stroke-width:1.5;" width="584" x="316" y="7"/><ellipse cx="549.25" cy="23" fill="#ADD1B2" rx="11" ry="11" style="stroke:#A80036;stroke-width:1.0;"/><path d="M551.5938,18.6719 C550.6563,18.2344 550.0625,18.0938 549.1875,18.0938 C546.5625,18.0938 544.5625,20.1719 544.5625,22.8906 L544.5625,24.0156 C544.5625,26.5938 546.6719,28.4844 549.5625,28.4844 C550.7813,28.4844 551.9375,28.1875 552.6875,27.6406 C553.2656,27.2344 553.5938,26.7813 553.5938,26.3906 C553.5938,25.9375 553.2031,25.5469 552.7344,25.5469 C552.5156,25.5469 552.3125,25.625 552.125,25.8125 C551.6719,26.2969 551.6719,26.2969 551.4844,26.3906 C551.0625,26.6563 550.375,26.7813 549.6094,26.7813 C547.5625,26.7813 546.2656,25.6875 546.2656,23.9844 L546.2656,22.8906 C546.2656,21.1094 547.5156,19.7969 549.25,19.7969 C549.8281,19.7969 550.4375,19.9531 550.9063,20.2031 C551.3906,20.4844 551.5625,20.7031 551.6563,21.1094 C551.7188,21.5156 551.75,21.6406 551.8906,21.7656 C552.0313,21.9063 552.2656,22.0156 552.4844,22.0156 C552.75,22.0156 553.0156,21.875 553.1875,21.6563 C553.2969,21.5 553.3281,21.3125 553.3281,20.8906 L553.3281,19.4688 C553.3281,19.0313 553.3125,18.9063 553.2188,18.75 C553.0625,18.4844 552.7813,18.3438 552.4844,18.3438 C552.1875,18.3438 551.9844,18.4375 551.7656,18.75 L551.5938,18.6719 Z " fill="#000000"/><text fill="#000000" font-family="sans-serif" font-size="12" lengthAdjust="spacing" textLength="109" x="569.75" y="27.1543">ManifestController</text><line style="stroke:#A80036;stroke-width:1.5;" x1="317" x2="899" y1="39" y2="39"/><text fill="#000000" font-family="sans-serif" font-size="11" lengthAdjust="spacing" textLength="102" x="322" y="53.2104">-cDB:ContainerDB</text><line style="stroke:#A80036;stroke-width:1.5;" x1="317" x2="899" y1="59.8047" y2="59.8047"/><text fill="#000000" font-family="sans-serif" font-size="11" lengthAdjust="spacing" textLength="506" x="322" y="74.0151">+getContainerManifestsYear(DatabaseConnection connection,int shipCaptainID, int year)</text><text fill="#000000" font-family="sans-serif" font-size="11" lengthAdjust="spacing" textLength="572" x="322" y="86.8198">+getAverageContainersForManifestYear(DatabaseConnection connection,int shipCaptainID, int year)</text><text fill="#000000" font-family="sans-serif" font-size="11" lengthAdjust="spacing" textLength="17" x="322" y="99.6245">...()</text><!--MD5=[1fd57339788c801acb68d2c56ce8ffb8]
class ManifestControllerTest--><rect codeLine="20" fill="#FEFECE" filter="url(#f1309w0wm0xjm6)" height="73.6094" id="ManifestControllerTest" style="stroke:#A80036;stroke-width:1.5;" width="249" x="7" y="19.5"/><ellipse cx="59.75" cy="35.5" fill="#ADD1B2" rx="11" ry="11" style="stroke:#A80036;stroke-width:1.0;"/><path d="M62.0938,31.1719 C61.1563,30.7344 60.5625,30.5938 59.6875,30.5938 C57.0625,30.5938 55.0625,32.6719 55.0625,35.3906 L55.0625,36.5156 C55.0625,39.0938 57.1719,40.9844 60.0625,40.9844 C61.2813,40.9844 62.4375,40.6875 63.1875,40.1406 C63.7656,39.7344 64.0938,39.2813 64.0938,38.8906 C64.0938,38.4375 63.7031,38.0469 63.2344,38.0469 C63.0156,38.0469 62.8125,38.125 62.625,38.3125 C62.1719,38.7969 62.1719,38.7969 61.9844,38.8906 C61.5625,39.1563 60.875,39.2813 60.1094,39.2813 C58.0625,39.2813 56.7656,38.1875 56.7656,36.4844 L56.7656,35.3906 C56.7656,33.6094 58.0156,32.2969 59.75,32.2969 C60.3281,32.2969 60.9375,32.4531 61.4063,32.7031 C61.8906,32.9844 62.0625,33.2031 62.1563,33.6094 C62.2188,34.0156 62.25,34.1406 62.3906,34.2656 C62.5313,34.4063 62.7656,34.5156 62.9844,34.5156 C63.25,34.5156 63.5156,34.375 63.6875,34.1563 C63.7969,34 63.8281,33.8125 63.8281,33.3906 L63.8281,31.9688 C63.8281,31.5313 63.8125,31.4063 63.7188,31.25 C63.5625,30.9844 63.2813,30.8438 62.9844,30.8438 C62.6875,30.8438 62.4844,30.9375 62.2656,31.25 L62.0938,31.1719 Z " fill="#000000"/><text fill="#000000" font-family="sans-serif" font-size="12" lengthAdjust="spacing" textLength="135" x="80.25" y="39.6543">ManifestControllerTest</text><line style="stroke:#A80036;stroke-width:1.5;" x1="8" x2="255" y1="51.5" y2="51.5"/><line style="stroke:#A80036;stroke-width:1.5;" x1="8" x2="255" y1="59.5" y2="59.5"/><text fill="#000000" font-family="sans-serif" font-size="11" lengthAdjust="spacing" textLength="171" x="13" y="73.7104">+getContainerManifestsYear()</text><text fill="#000000" font-family="sans-serif" font-size="11" lengthAdjust="spacing" textLength="237" x="13" y="86.5151">+getAverageContainersForManifestYear()</text><!--MD5=[e8d94d8a444e5bc912c6809c5b612457]
link ManifestControllerTest to ManifestController--><path codeLine="25" d="M256.24,56.5 C273.433,56.5 291.667,56.5 310.429,56.5 " fill="none" id="ManifestControllerTest-to-ManifestController" style="stroke:#A80036;stroke-width:1.0;stroke-dasharray:7.0,7.0;"/><polygon fill="#A80036" points="315.735,56.5,306.735,52.5,310.735,56.5,306.735,60.5,315.735,56.5" style="stroke:#A80036;stroke-width:1.0;"/><!--MD5=[e871c1c7acc539d59c7ae42c03ae05ce]
link ManifestController to ManifestDB--><path codeLine="26" d="M900.414,56.5 C918.443,56.5 936.598,56.5 954.648,56.5 " fill="none" id="ManifestController-to-ManifestDB" style="stroke:#A80036;stroke-width:1.0;"/><polygon fill="#A80036" points="959.737,56.5,950.737,52.5,954.737,56.5,950.737,60.5,959.737,56.5" style="stroke:#A80036;stroke-width:1.0;"/><!--MD5=[f6b2312ae5ce570758b2bd001d261ed4]
@startuml
skinparam classAttributeIconSize 0
left to right direction



class ManifestDB{
-databaseConnection: DatabaseConnection
+getContainerManifestsYear(DatabaseConnection connection,int shipCaptainID, int year)
+getAverageContainersForManifestYear(DatabaseConnection connection,int shipCaptainID, int year)
...()
}

class ManifestController{
-cDB:ContainerDB
+getContainerManifestsYear(DatabaseConnection connection,int shipCaptainID, int year)
+getAverageContainersForManifestYear(DatabaseConnection connection,int shipCaptainID, int year)
...()
}

Class "ManifestControllerTest"{
+getContainerManifestsYear()
+getAverageContainersForManifestYear()
}

ManifestControllerTest..>ManifestController
ManifestController- ->ManifestDB
@enduml

PlantUML version 1.2021.16beta1(Unknown compile time)
(GPL source distribution)
Java Runtime: Java(TM) SE Runtime Environment
JVM: Java HotSpot(TM) 64-Bit Server VM
Default Encoding: UTF-8
Language: en
Country: US
--></g></svg>