<?xml version="1.0" encoding="UTF-8" standalone="no"?><svg xmlns="http://www.w3.org/2000/svg" xmlns:xlink="http://www.w3.org/1999/xlink" contentScriptType="application/ecmascript" contentStyleType="text/css" height="801px" preserveAspectRatio="none" style="width:2093px;height:801px;background:#FFFFFF;" version="1.1" viewBox="0 0 2093 801" width="2093px" zoomAndPan="magnify"><defs><filter height="300%" id="f1jd1qhs2cha9h" width="300%" x="-1" y="-1"><feGaussianBlur result="blurOut" stdDeviation="2.0"/><feColorMatrix in="blurOut" result="blurOut2" type="matrix" values="0 0 0 0 0 0 0 0 0 0 0 0 0 0 0 0 0 0 .4 0"/><feOffset dx="4.0" dy="4.0" in="blurOut2" result="blurOut3"/><feBlend in="SourceGraphic" in2="blurOut3" mode="normal"/></filter></defs><g><rect fill="#FFFFFF" filter="url(#f1jd1qhs2cha9h)" height="609.4609" style="stroke:#A80036;stroke-width:1.0;" width="10" x="47" y="98.2969"/><rect fill="#FFFFFF" filter="url(#f1jd1qhs2cha9h)" height="29.1328" style="stroke:#A80036;stroke-width:1.0;" width="10" x="634" y="119.4297"/><rect fill="#FFFFFF" filter="url(#f1jd1qhs2cha9h)" height="29.1328" style="stroke:#A80036;stroke-width:1.0;" width="10" x="634" y="669.625"/><rect fill="#FFFFFF" filter="url(#f1jd1qhs2cha9h)" height="521.0625" style="stroke:#A80036;stroke-width:1.0;" width="10" x="1217" y="148.5625"/><rect fill="#FFFFFF" filter="url(#f1jd1qhs2cha9h)" height="28" style="stroke:#A80036;stroke-width:1.0;" width="10" x="1222" y="244.8281"/><rect fill="#FFFFFF" filter="url(#f1jd1qhs2cha9h)" height="28" style="stroke:#A80036;stroke-width:1.0;" width="10" x="1222" y="316.9609"/><rect fill="#FFFFFF" filter="url(#f1jd1qhs2cha9h)" height="28" style="stroke:#A80036;stroke-width:1.0;" width="10" x="1222" y="389.0938"/><rect fill="#FFFFFF" filter="url(#f1jd1qhs2cha9h)" height="28" style="stroke:#A80036;stroke-width:1.0;" width="10" x="1222" y="461.2266"/><rect fill="#FFFFFF" filter="url(#f1jd1qhs2cha9h)" height="28" style="stroke:#A80036;stroke-width:1.0;" width="10" x="1222" y="533.3594"/><rect fill="#FFFFFF" filter="url(#f1jd1qhs2cha9h)" height="28" style="stroke:#A80036;stroke-width:1.0;" width="10" x="1222" y="605.4922"/><rect fill="#FFFFFF" filter="url(#f1jd1qhs2cha9h)" height="30" style="stroke:#A80036;stroke-width:1.0;" width="10" x="1991" y="177.6953"/><line style="stroke:#A80036;stroke-width:1.0;stroke-dasharray:5.0,5.0;" x1="52" x2="52" y1="88.2969" y2="716.7578"/><line style="stroke:#A80036;stroke-width:1.0;stroke-dasharray:5.0,5.0;" x1="639" x2="639" y1="88.2969" y2="716.7578"/><line style="stroke:#A80036;stroke-width:1.0;stroke-dasharray:5.0,5.0;" x1="1222" x2="1222" y1="88.2969" y2="716.7578"/><line style="stroke:#A80036;stroke-width:1.0;stroke-dasharray:5.0,5.0;" x1="1996" x2="1996" y1="88.2969" y2="716.7578"/><text fill="#000000" font-family="sans-serif" font-size="14" lengthAdjust="spacing" textLength="88" x="5" y="84.9951">ShipCaptain</text><ellipse cx="52" cy="15" fill="#FEFECE" filter="url(#f1jd1qhs2cha9h)" rx="8" ry="8" style="stroke:#A80036;stroke-width:2.0;"/><path d="M52,23 L52,50 M39,31 L65,31 M52,50 L39,65 M52,50 L65,65 " fill="none" filter="url(#f1jd1qhs2cha9h)" style="stroke:#A80036;stroke-width:2.0;"/><text fill="#000000" font-family="sans-serif" font-size="14" lengthAdjust="spacing" textLength="88" x="5" y="728.7529">ShipCaptain</text><ellipse cx="52" cy="742.0547" fill="#FEFECE" filter="url(#f1jd1qhs2cha9h)" rx="8" ry="8" style="stroke:#A80036;stroke-width:2.0;"/><path d="M52,750.0547 L52,777.0547 M39,758.0547 L65,758.0547 M52,777.0547 L39,792.0547 M52,777.0547 L65,792.0547 " fill="none" filter="url(#f1jd1qhs2cha9h)" style="stroke:#A80036;stroke-width:2.0;"/><rect fill="#FEFECE" filter="url(#f1jd1qhs2cha9h)" height="30.2969" style="stroke:#A80036;stroke-width:1.5;" width="186" x="544" y="53"/><text fill="#000000" font-family="sans-serif" font-size="14" lengthAdjust="spacing" textLength="172" x="551" y="72.9951">:ManifestControllerTest</text><rect fill="#FEFECE" filter="url(#f1jd1qhs2cha9h)" height="30.2969" style="stroke:#A80036;stroke-width:1.5;" width="186" x="544" y="715.7578"/><text fill="#000000" font-family="sans-serif" font-size="14" lengthAdjust="spacing" textLength="172" x="551" y="735.7529">:ManifestControllerTest</text><rect fill="#FEFECE" filter="url(#f1jd1qhs2cha9h)" height="30.2969" style="stroke:#A80036;stroke-width:1.5;" width="154" x="1143" y="53"/><text fill="#000000" font-family="sans-serif" font-size="14" lengthAdjust="spacing" textLength="140" x="1150" y="72.9951">:ManifestController</text><rect fill="#FEFECE" filter="url(#f1jd1qhs2cha9h)" height="30.2969" style="stroke:#A80036;stroke-width:1.5;" width="154" x="1143" y="715.7578"/><text fill="#000000" font-family="sans-serif" font-size="14" lengthAdjust="spacing" textLength="140" x="1150" y="735.7529">:ManifestController</text><rect fill="#FEFECE" filter="url(#f1jd1qhs2cha9h)" height="30.2969" style="stroke:#A80036;stroke-width:1.5;" width="170" x="1909" y="53"/><text fill="#000000" font-family="sans-serif" font-size="14" lengthAdjust="spacing" textLength="156" x="1916" y="72.9951">:DatabaseConnection</text><rect fill="#FEFECE" filter="url(#f1jd1qhs2cha9h)" height="30.2969" style="stroke:#A80036;stroke-width:1.5;" width="170" x="1909" y="715.7578"/><text fill="#000000" font-family="sans-serif" font-size="14" lengthAdjust="spacing" textLength="156" x="1916" y="735.7529">:DatabaseConnection</text><rect fill="#FFFFFF" filter="url(#f1jd1qhs2cha9h)" height="609.4609" style="stroke:#A80036;stroke-width:1.0;" width="10" x="47" y="98.2969"/><rect fill="#FFFFFF" filter="url(#f1jd1qhs2cha9h)" height="29.1328" style="stroke:#A80036;stroke-width:1.0;" width="10" x="634" y="119.4297"/><rect fill="#FFFFFF" filter="url(#f1jd1qhs2cha9h)" height="29.1328" style="stroke:#A80036;stroke-width:1.0;" width="10" x="634" y="669.625"/><rect fill="#FFFFFF" filter="url(#f1jd1qhs2cha9h)" height="521.0625" style="stroke:#A80036;stroke-width:1.0;" width="10" x="1217" y="148.5625"/><rect fill="#FFFFFF" filter="url(#f1jd1qhs2cha9h)" height="28" style="stroke:#A80036;stroke-width:1.0;" width="10" x="1222" y="244.8281"/><rect fill="#FFFFFF" filter="url(#f1jd1qhs2cha9h)" height="28" style="stroke:#A80036;stroke-width:1.0;" width="10" x="1222" y="316.9609"/><rect fill="#FFFFFF" filter="url(#f1jd1qhs2cha9h)" height="28" style="stroke:#A80036;stroke-width:1.0;" width="10" x="1222" y="389.0938"/><rect fill="#FFFFFF" filter="url(#f1jd1qhs2cha9h)" height="28" style="stroke:#A80036;stroke-width:1.0;" width="10" x="1222" y="461.2266"/><rect fill="#FFFFFF" filter="url(#f1jd1qhs2cha9h)" height="28" style="stroke:#A80036;stroke-width:1.0;" width="10" x="1222" y="533.3594"/><rect fill="#FFFFFF" filter="url(#f1jd1qhs2cha9h)" height="28" style="stroke:#A80036;stroke-width:1.0;" width="10" x="1222" y="605.4922"/><rect fill="#FFFFFF" filter="url(#f1jd1qhs2cha9h)" height="30" style="stroke:#A80036;stroke-width:1.0;" width="10" x="1991" y="177.6953"/><polygon fill="#A80036" points="622,115.4297,632,119.4297,622,123.4297,626,119.4297" style="stroke:#A80036;stroke-width:1.0;"/><line style="stroke:#A80036;stroke-width:1.0;" x1="57" x2="628" y1="119.4297" y2="119.4297"/><text fill="#000000" font-family="sans-serif" font-size="13" font-weight="bold" lengthAdjust="spacing" textLength="9" x="64" y="114.3638">1</text><text fill="#000000" font-family="sans-serif" font-size="13" lengthAdjust="spacing" textLength="161" x="77" y="114.3638">types his ID and the year</text><polygon fill="#A80036" points="1205,144.5625,1215,148.5625,1205,152.5625,1209,148.5625" style="stroke:#A80036;stroke-width:1.0;"/><line style="stroke:#A80036;stroke-width:1.0;" x1="639" x2="1211" y1="148.5625" y2="148.5625"/><text fill="#000000" font-family="sans-serif" font-size="13" font-weight="bold" lengthAdjust="spacing" textLength="9" x="646" y="143.4966">2</text><text fill="#000000" font-family="sans-serif" font-size="13" lengthAdjust="spacing" textLength="452" x="659" y="143.4966">getAverageContainersForManifestYear(connection,shipCaptainID,year)</text><polygon fill="#A80036" points="1979,173.6953,1989,177.6953,1979,181.6953,1983,177.6953" style="stroke:#A80036;stroke-width:1.0;"/><line style="stroke:#A80036;stroke-width:1.0;" x1="1227" x2="1985" y1="177.6953" y2="177.6953"/><text fill="#000000" font-family="sans-serif" font-size="13" font-weight="bold" lengthAdjust="spacing" textLength="8" x="1234" y="172.6294">3</text><text fill="#000000" font-family="sans-serif" font-size="13" lengthAdjust="spacing" textLength="733" x="1246" y="172.6294">connection.getConnection().prepareCall("{ ? = { ? =call FUNC_GETAVERAGECONTAINERSHIPCAPTAINYEAR(?,?,?) }</text><line style="stroke:#A80036;stroke-width:1.0;" x1="1232" x2="1274" y1="236.8281" y2="236.8281"/><line style="stroke:#A80036;stroke-width:1.0;" x1="1274" x2="1274" y1="236.8281" y2="249.8281"/><line style="stroke:#A80036;stroke-width:1.0;" x1="1233" x2="1274" y1="249.8281" y2="249.8281"/><polygon fill="#A80036" points="1243,245.8281,1233,249.8281,1243,253.8281,1239,249.8281" style="stroke:#A80036;stroke-width:1.0;"/><text fill="#000000" font-family="sans-serif" font-size="13" font-weight="bold" lengthAdjust="spacing" textLength="9" x="1239" y="231.7622">4</text><text fill="#000000" font-family="sans-serif" font-size="13" lengthAdjust="spacing" textLength="358" x="1252" y="231.7622">callStmt.registerOutParameter(1, OracleTypes.DOUBLE)</text><line style="stroke:#A80036;stroke-width:1.0;" x1="1232" x2="1274" y1="308.9609" y2="308.9609"/><line style="stroke:#A80036;stroke-width:1.0;" x1="1274" x2="1274" y1="308.9609" y2="321.9609"/><line style="stroke:#A80036;stroke-width:1.0;" x1="1233" x2="1274" y1="321.9609" y2="321.9609"/><polygon fill="#A80036" points="1243,317.9609,1233,321.9609,1243,325.9609,1239,321.9609" style="stroke:#A80036;stroke-width:1.0;"/><text fill="#000000" font-family="sans-serif" font-size="13" font-weight="bold" lengthAdjust="spacing" textLength="9" x="1239" y="303.895">5</text><text fill="#000000" font-family="sans-serif" font-size="13" lengthAdjust="spacing" textLength="206" x="1252" y="303.895">callStmt.setInt(2, shipCaptainID)</text><line style="stroke:#A80036;stroke-width:1.0;" x1="1232" x2="1274" y1="381.0938" y2="381.0938"/><line style="stroke:#A80036;stroke-width:1.0;" x1="1274" x2="1274" y1="381.0938" y2="394.0938"/><line style="stroke:#A80036;stroke-width:1.0;" x1="1233" x2="1274" y1="394.0938" y2="394.0938"/><polygon fill="#A80036" points="1243,390.0938,1233,394.0938,1243,398.0938,1239,394.0938" style="stroke:#A80036;stroke-width:1.0;"/><text fill="#000000" font-family="sans-serif" font-size="13" font-weight="bold" lengthAdjust="spacing" textLength="9" x="1239" y="376.0278">6</text><text fill="#000000" font-family="sans-serif" font-size="13" lengthAdjust="spacing" textLength="194" x="1252" y="376.0278">callStmt.setDate(3, startDate)</text><line style="stroke:#A80036;stroke-width:1.0;" x1="1232" x2="1274" y1="453.2266" y2="453.2266"/><line style="stroke:#A80036;stroke-width:1.0;" x1="1274" x2="1274" y1="453.2266" y2="466.2266"/><line style="stroke:#A80036;stroke-width:1.0;" x1="1233" x2="1274" y1="466.2266" y2="466.2266"/><polygon fill="#A80036" points="1243,462.2266,1233,466.2266,1243,470.2266,1239,466.2266" style="stroke:#A80036;stroke-width:1.0;"/><text fill="#000000" font-family="sans-serif" font-size="13" font-weight="bold" lengthAdjust="spacing" textLength="9" x="1239" y="448.1606">7</text><text fill="#000000" font-family="sans-serif" font-size="13" lengthAdjust="spacing" textLength="188" x="1252" y="448.1606">callStmt.setDate(4, endDate)</text><line style="stroke:#A80036;stroke-width:1.0;" x1="1232" x2="1274" y1="525.3594" y2="525.3594"/><line style="stroke:#A80036;stroke-width:1.0;" x1="1274" x2="1274" y1="525.3594" y2="538.3594"/><line style="stroke:#A80036;stroke-width:1.0;" x1="1233" x2="1274" y1="538.3594" y2="538.3594"/><polygon fill="#A80036" points="1243,534.3594,1233,538.3594,1243,542.3594,1239,538.3594" style="stroke:#A80036;stroke-width:1.0;"/><text fill="#000000" font-family="sans-serif" font-size="13" font-weight="bold" lengthAdjust="spacing" textLength="9" x="1239" y="520.2935">8</text><text fill="#000000" font-family="sans-serif" font-size="13" lengthAdjust="spacing" textLength="118" x="1252" y="520.2935">callStmt.execute()</text><line style="stroke:#A80036;stroke-width:1.0;" x1="1232" x2="1274" y1="597.4922" y2="597.4922"/><line style="stroke:#A80036;stroke-width:1.0;" x1="1274" x2="1274" y1="597.4922" y2="610.4922"/><line style="stroke:#A80036;stroke-width:1.0;" x1="1233" x2="1274" y1="610.4922" y2="610.4922"/><polygon fill="#A80036" points="1243,606.4922,1233,610.4922,1243,614.4922,1239,610.4922" style="stroke:#A80036;stroke-width:1.0;"/><text fill="#000000" font-family="sans-serif" font-size="13" font-weight="bold" lengthAdjust="spacing" textLength="9" x="1239" y="592.4263">9</text><text fill="#000000" font-family="sans-serif" font-size="13" lengthAdjust="spacing" textLength="237" x="1252" y="592.4263">res  = (Double) callStmt.getObject(1)</text><polygon fill="#A80036" points="655,665.625,645,669.625,655,673.625,651,669.625" style="stroke:#A80036;stroke-width:1.0;"/><line style="stroke:#A80036;stroke-width:1.0;stroke-dasharray:2.0,2.0;" x1="649" x2="1221" y1="669.625" y2="669.625"/><text fill="#000000" font-family="sans-serif" font-size="13" font-weight="bold" lengthAdjust="spacing" textLength="19" x="661" y="664.5591">10</text><text fill="#000000" font-family="sans-serif" font-size="13" lengthAdjust="spacing" textLength="531" x="684" y="664.5591">presents the ShipCaptain with the average containers in the manifests in that year</text><polygon fill="#A80036" points="68,694.7578,58,698.7578,68,702.7578,64,698.7578" style="stroke:#A80036;stroke-width:1.0;"/><line style="stroke:#A80036;stroke-width:1.0;" x1="62" x2="638" y1="698.7578" y2="698.7578"/><text fill="#000000" font-family="sans-serif" font-size="13" font-weight="bold" lengthAdjust="spacing" textLength="18" x="74" y="693.6919">11</text><text fill="#000000" font-family="sans-serif" font-size="13" lengthAdjust="spacing" textLength="531" x="96" y="693.6919">presents the ShipCaptain with the average containers in the manifests in that year</text><!--MD5=[3d5eb727170990cb2c6f6cd6821b1947]
@startuml
autonumber
actor "ShipCaptain" as REC

participant  ":ManifestControllerTest" as TEST
participant ":ManifestController" as UI
participant ":DatabaseConnection" as DBCON





activate REC




REC -> TEST: types his ID and the year 
activate TEST

TEST-> UI : getAverageContainersForManifestYear(connection,shipCaptainID,year)
deactivate TEST
activate UI



UI -> DBCON: connection.getConnection().prepareCall("{ ? = { ? =call FUNC_GETAVERAGECONTAINERSHIPCAPTAINYEAR(?,?,?) }
activate DBCON
deactivate DBCON

UI -> UI : callStmt.registerOutParameter(1, OracleTypes.DOUBLE)
activate UI
deactivate UI

UI -> UI : callStmt.setInt(2, shipCaptainID)
activate UI
deactivate UI
UI -> UI : callStmt.setDate(3, startDate)
activate UI
deactivate UI
UI -> UI : callStmt.setDate(4, endDate)
activate UI
deactivate UI

UI -> UI : callStmt.execute()
activate UI
deactivate UI

UI -> UI : res  = (Double) callStmt.getObject(1)
activate UI
deactivate UI

deactivate TEST



UI - -> TEST: presents the ShipCaptain with the average containers in the manifests in that year
deactivate UI

activate TEST
TEST-> REC : presents the ShipCaptain with the average containers in the manifests in that year
deactivate TEST
@enduml

PlantUML version 1.2021.16beta1(Unknown compile time)
(GPL source distribution)
Java Runtime: Java(TM) SE Runtime Environment
JVM: Java HotSpot(TM) 64-Bit Server VM
Default Encoding: UTF-8
Language: en
Country: US
--></g></svg>