<?xml version="1.0" encoding="UTF-8" standalone="no"?><svg xmlns="http://www.w3.org/2000/svg" xmlns:xlink="http://www.w3.org/1999/xlink" contentScriptType="application/ecmascript" contentStyleType="text/css" height="107px" preserveAspectRatio="none" style="width:1398px;height:107px;background:#FFFFFF;" version="1.1" viewBox="0 0 1398 107" width="1398px" zoomAndPan="magnify"><defs><filter height="300%" id="f1958ojvztpjq5" width="300%" x="-1" y="-1"><feGaussianBlur result="blurOut" stdDeviation="2.0"/><feColorMatrix in="blurOut" result="blurOut2" type="matrix" values="0 0 0 0 0 0 0 0 0 0 0 0 0 0 0 0 0 0 .4 0"/><feOffset dx="4.0" dy="4.0" in="blurOut2" result="blurOut3"/><feBlend in="SourceGraphic" in2="blurOut3" mode="normal"/></filter></defs><g><!--MD5=[747ab85aa750c194347df157b73d0de3]
class ContainerDB--><rect codeLine="6" fill="#FEFECE" filter="url(#f1958ojvztpjq5)" height="86.4141" id="ContainerDB" style="stroke:#A80036;stroke-width:1.5;" width="538" x="846" y="7"/><ellipse cx="1073.75" cy="23" fill="#ADD1B2" rx="11" ry="11" style="stroke:#A80036;stroke-width:1.0;"/><path d="M1076.0938,18.6719 C1075.1563,18.2344 1074.5625,18.0938 1073.6875,18.0938 C1071.0625,18.0938 1069.0625,20.1719 1069.0625,22.8906 L1069.0625,24.0156 C1069.0625,26.5938 1071.1719,28.4844 1074.0625,28.4844 C1075.2813,28.4844 1076.4375,28.1875 1077.1875,27.6406 C1077.7656,27.2344 1078.0938,26.7813 1078.0938,26.3906 C1078.0938,25.9375 1077.7031,25.5469 1077.2344,25.5469 C1077.0156,25.5469 1076.8125,25.625 1076.625,25.8125 C1076.1719,26.2969 1076.1719,26.2969 1075.9844,26.3906 C1075.5625,26.6563 1074.875,26.7813 1074.1094,26.7813 C1072.0625,26.7813 1070.7656,25.6875 1070.7656,23.9844 L1070.7656,22.8906 C1070.7656,21.1094 1072.0156,19.7969 1073.75,19.7969 C1074.3281,19.7969 1074.9375,19.9531 1075.4063,20.2031 C1075.8906,20.4844 1076.0625,20.7031 1076.1563,21.1094 C1076.2188,21.5156 1076.25,21.6406 1076.3906,21.7656 C1076.5313,21.9063 1076.7656,22.0156 1076.9844,22.0156 C1077.25,22.0156 1077.5156,21.875 1077.6875,21.6563 C1077.7969,21.5 1077.8281,21.3125 1077.8281,20.8906 L1077.8281,19.4688 C1077.8281,19.0313 1077.8125,18.9063 1077.7188,18.75 C1077.5625,18.4844 1077.2813,18.3438 1076.9844,18.3438 C1076.6875,18.3438 1076.4844,18.4375 1076.2656,18.75 L1076.0938,18.6719 Z " fill="#000000"/><text fill="#000000" font-family="sans-serif" font-size="12" lengthAdjust="spacing" textLength="74" x="1094.25" y="27.1543">ContainerDB</text><line style="stroke:#A80036;stroke-width:1.5;" x1="847" x2="1383" y1="39" y2="39"/><text fill="#000000" font-family="sans-serif" font-size="11" lengthAdjust="spacing" textLength="247" x="852" y="53.2104">-databaseConnection: DatabaseConnection</text><line style="stroke:#A80036;stroke-width:1.5;" x1="847" x2="1383" y1="59.8047" y2="59.8047"/><text fill="#000000" font-family="sans-serif" font-size="11" lengthAdjust="spacing" textLength="526" x="852" y="74.0151">+getRouteFromClient(DatabaseConnection connection, int idClient, String numberContainer)</text><text fill="#000000" font-family="sans-serif" font-size="11" lengthAdjust="spacing" textLength="17" x="852" y="86.8198">...()</text><!--MD5=[c51bc769145f25d59c587211eceb7951]
class ContainerController--><rect codeLine="12" fill="#FEFECE" filter="url(#f1958ojvztpjq5)" height="86.4141" id="ContainerController" style="stroke:#A80036;stroke-width:1.5;" width="538" x="248" y="7"/><ellipse cx="454.75" cy="23" fill="#ADD1B2" rx="11" ry="11" style="stroke:#A80036;stroke-width:1.0;"/><path d="M457.0938,18.6719 C456.1563,18.2344 455.5625,18.0938 454.6875,18.0938 C452.0625,18.0938 450.0625,20.1719 450.0625,22.8906 L450.0625,24.0156 C450.0625,26.5938 452.1719,28.4844 455.0625,28.4844 C456.2813,28.4844 457.4375,28.1875 458.1875,27.6406 C458.7656,27.2344 459.0938,26.7813 459.0938,26.3906 C459.0938,25.9375 458.7031,25.5469 458.2344,25.5469 C458.0156,25.5469 457.8125,25.625 457.625,25.8125 C457.1719,26.2969 457.1719,26.2969 456.9844,26.3906 C456.5625,26.6563 455.875,26.7813 455.1094,26.7813 C453.0625,26.7813 451.7656,25.6875 451.7656,23.9844 L451.7656,22.8906 C451.7656,21.1094 453.0156,19.7969 454.75,19.7969 C455.3281,19.7969 455.9375,19.9531 456.4063,20.2031 C456.8906,20.4844 457.0625,20.7031 457.1563,21.1094 C457.2188,21.5156 457.25,21.6406 457.3906,21.7656 C457.5313,21.9063 457.7656,22.0156 457.9844,22.0156 C458.25,22.0156 458.5156,21.875 458.6875,21.6563 C458.7969,21.5 458.8281,21.3125 458.8281,20.8906 L458.8281,19.4688 C458.8281,19.0313 458.8125,18.9063 458.7188,18.75 C458.5625,18.4844 458.2813,18.3438 457.9844,18.3438 C457.6875,18.3438 457.4844,18.4375 457.2656,18.75 L457.0938,18.6719 Z " fill="#000000"/><text fill="#000000" font-family="sans-serif" font-size="12" lengthAdjust="spacing" textLength="116" x="475.25" y="27.1543">ContainerController</text><line style="stroke:#A80036;stroke-width:1.5;" x1="249" x2="785" y1="39" y2="39"/><text fill="#000000" font-family="sans-serif" font-size="11" lengthAdjust="spacing" textLength="102" x="254" y="53.2104">-cDB:ContainerDB</text><line style="stroke:#A80036;stroke-width:1.5;" x1="249" x2="785" y1="59.8047" y2="59.8047"/><text fill="#000000" font-family="sans-serif" font-size="11" lengthAdjust="spacing" textLength="526" x="254" y="74.0151">+getRouteFromClient(DatabaseConnection connection, int idClient, String numberContainer)</text><text fill="#000000" font-family="sans-serif" font-size="11" lengthAdjust="spacing" textLength="17" x="254" y="86.8198">...()</text><!--MD5=[1ed39845ac3a31856c52c42a2a4bbd69]
class CountainerControllerTest--><rect codeLine="18" fill="#FEFECE" filter="url(#f1958ojvztpjq5)" height="60.8047" id="CountainerControllerTest" style="stroke:#A80036;stroke-width:1.5;" width="181" x="7" y="19.5"/><ellipse cx="22" cy="35.5" fill="#ADD1B2" rx="11" ry="11" style="stroke:#A80036;stroke-width:1.0;"/><path d="M24.3438,31.1719 C23.4063,30.7344 22.8125,30.5938 21.9375,30.5938 C19.3125,30.5938 17.3125,32.6719 17.3125,35.3906 L17.3125,36.5156 C17.3125,39.0938 19.4219,40.9844 22.3125,40.9844 C23.5313,40.9844 24.6875,40.6875 25.4375,40.1406 C26.0156,39.7344 26.3438,39.2813 26.3438,38.8906 C26.3438,38.4375 25.9531,38.0469 25.4844,38.0469 C25.2656,38.0469 25.0625,38.125 24.875,38.3125 C24.4219,38.7969 24.4219,38.7969 24.2344,38.8906 C23.8125,39.1563 23.125,39.2813 22.3594,39.2813 C20.3125,39.2813 19.0156,38.1875 19.0156,36.4844 L19.0156,35.3906 C19.0156,33.6094 20.2656,32.2969 22,32.2969 C22.5781,32.2969 23.1875,32.4531 23.6563,32.7031 C24.1406,32.9844 24.3125,33.2031 24.4063,33.6094 C24.4688,34.0156 24.5,34.1406 24.6406,34.2656 C24.7813,34.4063 25.0156,34.5156 25.2344,34.5156 C25.5,34.5156 25.7656,34.375 25.9375,34.1563 C26.0469,34 26.0781,33.8125 26.0781,33.3906 L26.0781,31.9688 C26.0781,31.5313 26.0625,31.4063 25.9688,31.25 C25.8125,30.9844 25.5313,30.8438 25.2344,30.8438 C24.9375,30.8438 24.7344,30.9375 24.5156,31.25 L24.3438,31.1719 Z " fill="#000000"/><text fill="#000000" font-family="sans-serif" font-size="12" lengthAdjust="spacing" textLength="149" x="36" y="39.6543">CountainerControllerTest</text><line style="stroke:#A80036;stroke-width:1.5;" x1="8" x2="187" y1="51.5" y2="51.5"/><line style="stroke:#A80036;stroke-width:1.5;" x1="8" x2="187" y1="59.5" y2="59.5"/><text fill="#000000" font-family="sans-serif" font-size="11" lengthAdjust="spacing" textLength="130" x="13" y="73.7104">+getRouteFromClient()</text><!--MD5=[c761e01612c93ff47c5d5eeb4d5ce7da]
link CountainerControllerTest to ContainerController--><path codeLine="22" d="M188.064,50 C204.818,50 223.113,50 242.215,50 " fill="none" id="CountainerControllerTest-to-ContainerController" style="stroke:#A80036;stroke-width:1.0;stroke-dasharray:7.0,7.0;"/><polygon fill="#A80036" points="247.623,50,238.623,46,242.623,50,238.623,54,247.623,50" style="stroke:#A80036;stroke-width:1.0;"/><!--MD5=[3d337865db9ae44dc4c7ce932b068f53]
link ContainerController to ContainerDB--><path codeLine="23" d="M786.36,50 C804.435,50 822.657,50 840.756,50 " fill="none" id="ContainerController-to-ContainerDB" style="stroke:#A80036;stroke-width:1.0;"/><polygon fill="#A80036" points="845.857,50,836.857,46,840.857,50,836.857,54,845.857,50" style="stroke:#A80036;stroke-width:1.0;"/><!--MD5=[271c7cf58de2f99ab0064cd617e8262e]
@startuml
skinparam classAttributeIconSize 0
left to right direction



class ContainerDB{
-databaseConnection: DatabaseConnection
+getRouteFromClient(DatabaseConnection connection, int idClient, String numberContainer)
...()
}

class ContainerController{
-cDB:ContainerDB
+getRouteFromClient(DatabaseConnection connection, int idClient, String numberContainer)
...()
}

Class "CountainerControllerTest"{
+getRouteFromClient()
}

CountainerControllerTest..>ContainerController
ContainerController- ->ContainerDB
@enduml

PlantUML version 1.2021.17beta4(Unknown compile time)
(GPL source distribution)
Java Runtime: Java(TM) SE Runtime Environment
JVM: Java HotSpot(TM) 64-Bit Server VM
Default Encoding: UTF-8
Language: en
Country: US
--></g></svg>