<?xml version="1.0" encoding="UTF-8" standalone="no"?><svg xmlns="http://www.w3.org/2000/svg" xmlns:xlink="http://www.w3.org/1999/xlink" contentScriptType="application/ecmascript" contentStyleType="text/css" height="773px" preserveAspectRatio="none" style="width:1464px;height:773px;background:#FFFFFF;" version="1.1" viewBox="0 0 1464 773" width="1464px" zoomAndPan="magnify"><defs><filter height="300%" id="f1uofprqyq74cj" width="300%" x="-1" y="-1"><feGaussianBlur result="blurOut" stdDeviation="2.0"/><feColorMatrix in="blurOut" result="blurOut2" type="matrix" values="0 0 0 0 0 0 0 0 0 0 0 0 0 0 0 0 0 0 .4 0"/><feOffset dx="4.0" dy="4.0" in="blurOut2" result="blurOut3"/><feBlend in="SourceGraphic" in2="blurOut3" mode="normal"/></filter></defs><g><rect fill="#FFFFFF" filter="url(#f1uofprqyq74cj)" height="581.7266" style="stroke:#A80036;stroke-width:1.0;" width="10" x="24.5" y="98.2969"/><rect fill="#FFFFFF" filter="url(#f1uofprqyq74cj)" height="29.1328" style="stroke:#A80036;stroke-width:1.0;" width="10" x="384.5" y="119.4297"/><rect fill="#FFFFFF" filter="url(#f1uofprqyq74cj)" height="29.1328" style="stroke:#A80036;stroke-width:1.0;" width="10" x="384.5" y="177.6953"/><rect fill="#FFFFFF" filter="url(#f1uofprqyq74cj)" height="29.1328" style="stroke:#A80036;stroke-width:1.0;" width="10" x="384.5" y="235.9609"/><rect fill="#FFFFFF" filter="url(#f1uofprqyq74cj)" height="29.1328" style="stroke:#A80036;stroke-width:1.0;" width="10" x="384.5" y="641.8906"/><rect fill="#FFFFFF" filter="url(#f1uofprqyq74cj)" height="376.7969" style="stroke:#A80036;stroke-width:1.0;" width="10" x="740.5" y="265.0938"/><rect fill="#FFFFFF" filter="url(#f1uofprqyq74cj)" height="28" style="stroke:#A80036;stroke-width:1.0;" width="10" x="745.5" y="361.3594"/><rect fill="#FFFFFF" filter="url(#f1uofprqyq74cj)" height="28" style="stroke:#A80036;stroke-width:1.0;" width="10" x="745.5" y="433.4922"/><rect fill="#FFFFFF" filter="url(#f1uofprqyq74cj)" height="28" style="stroke:#A80036;stroke-width:1.0;" width="10" x="745.5" y="505.625"/><rect fill="#FFFFFF" filter="url(#f1uofprqyq74cj)" height="28" style="stroke:#A80036;stroke-width:1.0;" width="10" x="745.5" y="577.7578"/><rect fill="#FFFFFF" filter="url(#f1uofprqyq74cj)" height="30" style="stroke:#A80036;stroke-width:1.0;" width="10" x="1362.5" y="294.2266"/><line style="stroke:#A80036;stroke-width:1.0;stroke-dasharray:5.0,5.0;" x1="29" x2="29" y1="88.2969" y2="689.0234"/><line style="stroke:#A80036;stroke-width:1.0;stroke-dasharray:5.0,5.0;" x1="389" x2="389" y1="88.2969" y2="689.0234"/><line style="stroke:#A80036;stroke-width:1.0;stroke-dasharray:5.0,5.0;" x1="745" x2="745" y1="88.2969" y2="689.0234"/><line style="stroke:#A80036;stroke-width:1.0;stroke-dasharray:5.0,5.0;" x1="1142" x2="1142" y1="88.2969" y2="689.0234"/><line style="stroke:#A80036;stroke-width:1.0;stroke-dasharray:5.0,5.0;" x1="1367.5" x2="1367.5" y1="88.2969" y2="689.0234"/><text fill="#000000" font-family="sans-serif" font-size="14" lengthAdjust="spacing" textLength="43" x="5" y="84.9951">Client</text><ellipse cx="29.5" cy="15" fill="#FEFECE" filter="url(#f1uofprqyq74cj)" rx="8" ry="8" style="stroke:#A80036;stroke-width:2.0;"/><path d="M29.5,23 L29.5,50 M16.5,31 L42.5,31 M29.5,50 L16.5,65 M29.5,50 L42.5,65 " fill="none" filter="url(#f1uofprqyq74cj)" style="stroke:#A80036;stroke-width:2.0;"/><text fill="#000000" font-family="sans-serif" font-size="14" lengthAdjust="spacing" textLength="43" x="5" y="701.0186">Client</text><ellipse cx="29.5" cy="714.3203" fill="#FEFECE" filter="url(#f1uofprqyq74cj)" rx="8" ry="8" style="stroke:#A80036;stroke-width:2.0;"/><path d="M29.5,722.3203 L29.5,749.3203 M16.5,730.3203 L42.5,730.3203 M29.5,749.3203 L16.5,764.3203 M29.5,749.3203 L42.5,764.3203 " fill="none" filter="url(#f1uofprqyq74cj)" style="stroke:#A80036;stroke-width:2.0;"/><rect fill="#FEFECE" filter="url(#f1uofprqyq74cj)" height="30.2969" style="stroke:#A80036;stroke-width:1.5;" width="195" x="290" y="53"/><text fill="#000000" font-family="sans-serif" font-size="14" lengthAdjust="spacing" textLength="181" x="297" y="72.9951">:ContainerControllerTest</text><rect fill="#FEFECE" filter="url(#f1uofprqyq74cj)" height="30.2969" style="stroke:#A80036;stroke-width:1.5;" width="195" x="290" y="688.0234"/><text fill="#000000" font-family="sans-serif" font-size="14" lengthAdjust="spacing" textLength="181" x="297" y="708.0186">:ContainerControllerTest</text><rect fill="#FEFECE" filter="url(#f1uofprqyq74cj)" height="30.2969" style="stroke:#A80036;stroke-width:1.5;" width="163" x="662" y="53"/><text fill="#000000" font-family="sans-serif" font-size="14" lengthAdjust="spacing" textLength="149" x="669" y="72.9951">:ContainerController</text><rect fill="#FEFECE" filter="url(#f1uofprqyq74cj)" height="30.2969" style="stroke:#A80036;stroke-width:1.5;" width="163" x="662" y="688.0234"/><text fill="#000000" font-family="sans-serif" font-size="14" lengthAdjust="spacing" textLength="149" x="669" y="708.0186">:ContainerController</text><rect fill="#FEFECE" filter="url(#f1uofprqyq74cj)" height="30.2969" style="stroke:#A80036;stroke-width:1.5;" width="87" x="1097" y="53"/><text fill="#000000" font-family="sans-serif" font-size="14" lengthAdjust="spacing" textLength="73" x="1104" y="72.9951">:Company</text><rect fill="#FEFECE" filter="url(#f1uofprqyq74cj)" height="30.2969" style="stroke:#A80036;stroke-width:1.5;" width="87" x="1097" y="688.0234"/><text fill="#000000" font-family="sans-serif" font-size="14" lengthAdjust="spacing" textLength="73" x="1104" y="708.0186">:Company</text><rect fill="#FEFECE" filter="url(#f1uofprqyq74cj)" height="30.2969" style="stroke:#A80036;stroke-width:1.5;" width="170" x="1280.5" y="53"/><text fill="#000000" font-family="sans-serif" font-size="14" lengthAdjust="spacing" textLength="156" x="1287.5" y="72.9951">:DatabaseConnection</text><rect fill="#FEFECE" filter="url(#f1uofprqyq74cj)" height="30.2969" style="stroke:#A80036;stroke-width:1.5;" width="170" x="1280.5" y="688.0234"/><text fill="#000000" font-family="sans-serif" font-size="14" lengthAdjust="spacing" textLength="156" x="1287.5" y="708.0186">:DatabaseConnection</text><rect fill="#FFFFFF" filter="url(#f1uofprqyq74cj)" height="581.7266" style="stroke:#A80036;stroke-width:1.0;" width="10" x="24.5" y="98.2969"/><rect fill="#FFFFFF" filter="url(#f1uofprqyq74cj)" height="29.1328" style="stroke:#A80036;stroke-width:1.0;" width="10" x="384.5" y="119.4297"/><rect fill="#FFFFFF" filter="url(#f1uofprqyq74cj)" height="29.1328" style="stroke:#A80036;stroke-width:1.0;" width="10" x="384.5" y="177.6953"/><rect fill="#FFFFFF" filter="url(#f1uofprqyq74cj)" height="29.1328" style="stroke:#A80036;stroke-width:1.0;" width="10" x="384.5" y="235.9609"/><rect fill="#FFFFFF" filter="url(#f1uofprqyq74cj)" height="29.1328" style="stroke:#A80036;stroke-width:1.0;" width="10" x="384.5" y="641.8906"/><rect fill="#FFFFFF" filter="url(#f1uofprqyq74cj)" height="376.7969" style="stroke:#A80036;stroke-width:1.0;" width="10" x="740.5" y="265.0938"/><rect fill="#FFFFFF" filter="url(#f1uofprqyq74cj)" height="28" style="stroke:#A80036;stroke-width:1.0;" width="10" x="745.5" y="361.3594"/><rect fill="#FFFFFF" filter="url(#f1uofprqyq74cj)" height="28" style="stroke:#A80036;stroke-width:1.0;" width="10" x="745.5" y="433.4922"/><rect fill="#FFFFFF" filter="url(#f1uofprqyq74cj)" height="28" style="stroke:#A80036;stroke-width:1.0;" width="10" x="745.5" y="505.625"/><rect fill="#FFFFFF" filter="url(#f1uofprqyq74cj)" height="28" style="stroke:#A80036;stroke-width:1.0;" width="10" x="745.5" y="577.7578"/><rect fill="#FFFFFF" filter="url(#f1uofprqyq74cj)" height="30" style="stroke:#A80036;stroke-width:1.0;" width="10" x="1362.5" y="294.2266"/><polygon fill="#A80036" points="372.5,115.4297,382.5,119.4297,372.5,123.4297,376.5,119.4297" style="stroke:#A80036;stroke-width:1.0;"/><line style="stroke:#A80036;stroke-width:1.0;" x1="34.5" x2="378.5" y1="119.4297" y2="119.4297"/><text fill="#000000" font-family="sans-serif" font-size="13" font-weight="bold" lengthAdjust="spacing" textLength="9" x="41.5" y="114.3638">1</text><text fill="#000000" font-family="sans-serif" font-size="13" lengthAdjust="spacing" textLength="271" x="54.5" y="114.3638">chooses to see the route from a container</text><polygon fill="#A80036" points="45.5,144.5625,35.5,148.5625,45.5,152.5625,41.5,148.5625" style="stroke:#A80036;stroke-width:1.0;"/><line style="stroke:#A80036;stroke-width:1.0;stroke-dasharray:2.0,2.0;" x1="39.5" x2="388.5" y1="148.5625" y2="148.5625"/><text fill="#000000" font-family="sans-serif" font-size="13" font-weight="bold" lengthAdjust="spacing" textLength="9" x="51.5" y="143.4966">2</text><text fill="#000000" font-family="sans-serif" font-size="13" lengthAdjust="spacing" textLength="279" x="64.5" y="143.4966">asks the number of identification of himself</text><polygon fill="#A80036" points="372.5,173.6953,382.5,177.6953,372.5,181.6953,376.5,177.6953" style="stroke:#A80036;stroke-width:1.0;"/><line style="stroke:#A80036;stroke-width:1.0;" x1="34.5" x2="378.5" y1="177.6953" y2="177.6953"/><text fill="#000000" font-family="sans-serif" font-size="13" font-weight="bold" lengthAdjust="spacing" textLength="8" x="41.5" y="172.6294">3</text><text fill="#000000" font-family="sans-serif" font-size="13" lengthAdjust="spacing" textLength="289" x="53.5" y="172.6294">writes the number of identification of himself</text><polygon fill="#A80036" points="45.5,202.8281,35.5,206.8281,45.5,210.8281,41.5,206.8281" style="stroke:#A80036;stroke-width:1.0;"/><line style="stroke:#A80036;stroke-width:1.0;stroke-dasharray:2.0,2.0;" x1="39.5" x2="388.5" y1="206.8281" y2="206.8281"/><text fill="#000000" font-family="sans-serif" font-size="13" font-weight="bold" lengthAdjust="spacing" textLength="9" x="51.5" y="201.7622">4</text><text fill="#000000" font-family="sans-serif" font-size="13" lengthAdjust="spacing" textLength="290" x="64.5" y="201.7622">asks the container number to show the route</text><polygon fill="#A80036" points="372.5,231.9609,382.5,235.9609,372.5,239.9609,376.5,235.9609" style="stroke:#A80036;stroke-width:1.0;"/><line style="stroke:#A80036;stroke-width:1.0;" x1="34.5" x2="378.5" y1="235.9609" y2="235.9609"/><text fill="#000000" font-family="sans-serif" font-size="13" font-weight="bold" lengthAdjust="spacing" textLength="9" x="41.5" y="230.895">5</text><text fill="#000000" font-family="sans-serif" font-size="13" lengthAdjust="spacing" textLength="300" x="54.5" y="230.895">writes the container number to show the route</text><polygon fill="#A80036" points="728.5,261.0938,738.5,265.0938,728.5,269.0938,732.5,265.0938" style="stroke:#A80036;stroke-width:1.0;"/><line style="stroke:#A80036;stroke-width:1.0;" x1="389.5" x2="734.5" y1="265.0938" y2="265.0938"/><text fill="#000000" font-family="sans-serif" font-size="13" font-weight="bold" lengthAdjust="spacing" textLength="9" x="396.5" y="260.0278">6</text><text fill="#000000" font-family="sans-serif" font-size="13" lengthAdjust="spacing" textLength="314" x="409.5" y="260.0278">getRoute(connection, idClient, numberContainer)</text><polygon fill="#A80036" points="1350.5,290.2266,1360.5,294.2266,1350.5,298.2266,1354.5,294.2266" style="stroke:#A80036;stroke-width:1.0;"/><line style="stroke:#A80036;stroke-width:1.0;" x1="750.5" x2="1356.5" y1="294.2266" y2="294.2266"/><text fill="#000000" font-family="sans-serif" font-size="13" font-weight="bold" lengthAdjust="spacing" textLength="9" x="757.5" y="289.1606">7</text><text fill="#000000" font-family="sans-serif" font-size="13" lengthAdjust="spacing" textLength="580" x="770.5" y="289.1606">connection.getConnection().prepareCall("{ ? = call func_getRouteFromClientContainer(?,?)</text><line style="stroke:#A80036;stroke-width:1.0;" x1="755.5" x2="797.5" y1="353.3594" y2="353.3594"/><line style="stroke:#A80036;stroke-width:1.0;" x1="797.5" x2="797.5" y1="353.3594" y2="366.3594"/><line style="stroke:#A80036;stroke-width:1.0;" x1="756.5" x2="797.5" y1="366.3594" y2="366.3594"/><polygon fill="#A80036" points="766.5,362.3594,756.5,366.3594,766.5,370.3594,762.5,366.3594" style="stroke:#A80036;stroke-width:1.0;"/><text fill="#000000" font-family="sans-serif" font-size="13" font-weight="bold" lengthAdjust="spacing" textLength="9" x="762.5" y="348.2935">8</text><text fill="#000000" font-family="sans-serif" font-size="13" lengthAdjust="spacing" textLength="360" x="775.5" y="348.2935">callStmt.registerOutParameter(1, OracleTypes.CURSOR)</text><line style="stroke:#A80036;stroke-width:1.0;" x1="755.5" x2="797.5" y1="425.4922" y2="425.4922"/><line style="stroke:#A80036;stroke-width:1.0;" x1="797.5" x2="797.5" y1="425.4922" y2="438.4922"/><line style="stroke:#A80036;stroke-width:1.0;" x1="756.5" x2="797.5" y1="438.4922" y2="438.4922"/><polygon fill="#A80036" points="766.5,434.4922,756.5,438.4922,766.5,442.4922,762.5,438.4922" style="stroke:#A80036;stroke-width:1.0;"/><text fill="#000000" font-family="sans-serif" font-size="13" font-weight="bold" lengthAdjust="spacing" textLength="9" x="762.5" y="420.4263">9</text><text fill="#000000" font-family="sans-serif" font-size="13" lengthAdjust="spacing" textLength="165" x="775.5" y="420.4263">callStmt.setInt(2, idClient)</text><line style="stroke:#A80036;stroke-width:1.0;" x1="755.5" x2="797.5" y1="497.625" y2="497.625"/><line style="stroke:#A80036;stroke-width:1.0;" x1="797.5" x2="797.5" y1="497.625" y2="510.625"/><line style="stroke:#A80036;stroke-width:1.0;" x1="756.5" x2="797.5" y1="510.625" y2="510.625"/><polygon fill="#A80036" points="766.5,506.625,756.5,510.625,766.5,514.625,762.5,510.625" style="stroke:#A80036;stroke-width:1.0;"/><text fill="#000000" font-family="sans-serif" font-size="13" font-weight="bold" lengthAdjust="spacing" textLength="19" x="762.5" y="492.5591">10</text><text fill="#000000" font-family="sans-serif" font-size="13" lengthAdjust="spacing" textLength="230" x="785.5" y="492.5591">callStmt.setInt(3, numberContainer)</text><line style="stroke:#A80036;stroke-width:1.0;" x1="755.5" x2="797.5" y1="569.7578" y2="569.7578"/><line style="stroke:#A80036;stroke-width:1.0;" x1="797.5" x2="797.5" y1="569.7578" y2="582.7578"/><line style="stroke:#A80036;stroke-width:1.0;" x1="756.5" x2="797.5" y1="582.7578" y2="582.7578"/><polygon fill="#A80036" points="766.5,578.7578,756.5,582.7578,766.5,586.7578,762.5,582.7578" style="stroke:#A80036;stroke-width:1.0;"/><text fill="#000000" font-family="sans-serif" font-size="13" font-weight="bold" lengthAdjust="spacing" textLength="18" x="762.5" y="564.6919">11</text><text fill="#000000" font-family="sans-serif" font-size="13" lengthAdjust="spacing" textLength="118" x="784.5" y="564.6919">callStmt.execute()</text><polygon fill="#A80036" points="405.5,637.8906,395.5,641.8906,405.5,645.8906,401.5,641.8906" style="stroke:#A80036;stroke-width:1.0;"/><line style="stroke:#A80036;stroke-width:1.0;stroke-dasharray:2.0,2.0;" x1="399.5" x2="744.5" y1="641.8906" y2="641.8906"/><text fill="#000000" font-family="sans-serif" font-size="13" font-weight="bold" lengthAdjust="spacing" textLength="18" x="411.5" y="636.8247">12</text><text fill="#000000" font-family="sans-serif" font-size="13" lengthAdjust="spacing" textLength="305" x="433.5" y="636.8247">presents the route of the container of the client</text><polygon fill="#A80036" points="45.5,667.0234,35.5,671.0234,45.5,675.0234,41.5,671.0234" style="stroke:#A80036;stroke-width:1.0;"/><line style="stroke:#A80036;stroke-width:1.0;" x1="39.5" x2="388.5" y1="671.0234" y2="671.0234"/><text fill="#000000" font-family="sans-serif" font-size="13" font-weight="bold" lengthAdjust="spacing" textLength="17" x="51.5" y="665.9575">13</text><text fill="#000000" font-family="sans-serif" font-size="13" lengthAdjust="spacing" textLength="305" x="72.5" y="665.9575">presents the route of the container of the client</text><!--MD5=[8e93acf401d56b815459f2b1d050e064]
@startuml
autonumber
actor "Client" as REC

participant  ":ContainerControllerTest" as TEST
participant ":ContainerController" as UI
participant ":Company" as CMP
participant ":DatabaseConnection" as DBCON





activate REC
REC -> TEST: chooses to see the route from a container
activate TEST
TEST - -> REC : asks the number of identification of himself
deactivate TEST
REC -> TEST: writes the number of identification of himself
activate TEST


TEST- -> REC : asks the container number to show the route
deactivate TEST



REC -> TEST: writes the container number to show the route
activate TEST

TEST-> UI : getRoute(connection, idClient, numberContainer)
deactivate TEST
activate UI



UI -> DBCON: connection.getConnection().prepareCall("{ ? = call func_getRouteFromClientContainer(?,?)
activate DBCON
deactivate DBCON

UI -> UI : callStmt.registerOutParameter(1, OracleTypes.CURSOR)
activate UI
deactivate UI

UI -> UI : callStmt.setInt(2, idClient)
activate UI
deactivate UI
UI -> UI : callStmt.setInt(3, numberContainer)
activate UI
deactivate UI

UI -> UI : callStmt.execute()
activate UI
deactivate UI


deactivate TEST


UI - -> TEST: presents the route of the container of the client
deactivate UI

activate TEST
TEST-> REC : presents the route of the container of the client
deactivate TEST
@enduml

PlantUML version 1.2021.17beta4(Unknown compile time)
(GPL source distribution)
Java Runtime: Java(TM) SE Runtime Environment
JVM: Java HotSpot(TM) 64-Bit Server VM
Default Encoding: UTF-8
Language: en
Country: US
--></g></svg>