<?xml version="1.0" encoding="UTF-8" standalone="no"?><svg xmlns="http://www.w3.org/2000/svg" xmlns:xlink="http://www.w3.org/1999/xlink" contentScriptType="application/ecmascript" contentStyleType="text/css" height="367px" preserveAspectRatio="none" style="width:430px;height:367px;background:#FFFFFF;" version="1.1" viewBox="0 0 430 367" width="430px" zoomAndPan="magnify"><defs><filter height="300%" id="f1s7qtp9pmmvlw" width="300%" x="-1" y="-1"><feGaussianBlur result="blurOut" stdDeviation="2.0"/><feColorMatrix in="blurOut" result="blurOut2" type="matrix" values="0 0 0 0 0 0 0 0 0 0 0 0 0 0 0 0 0 0 .4 0"/><feOffset dx="4.0" dy="4.0" in="blurOut2" result="blurOut3"/><feBlend in="SourceGraphic" in2="blurOut3" mode="normal"/></filter></defs><g><rect fill="#FFFFFF" filter="url(#f1s7qtp9pmmvlw)" height="175.7969" style="stroke:#A80036;stroke-width:1.0;" width="10" x="24.5" y="98.2969"/><rect fill="#FFFFFF" filter="url(#f1s7qtp9pmmvlw)" height="29.1328" style="stroke:#A80036;stroke-width:1.0;" width="10" x="376.5" y="119.4297"/><rect fill="#FFFFFF" filter="url(#f1s7qtp9pmmvlw)" height="29.1328" style="stroke:#A80036;stroke-width:1.0;" width="10" x="376.5" y="177.6953"/><rect fill="#FFFFFF" filter="url(#f1s7qtp9pmmvlw)" height="29.1328" style="stroke:#A80036;stroke-width:1.0;" width="10" x="376.5" y="235.9609"/><line style="stroke:#A80036;stroke-width:1.0;stroke-dasharray:5.0,5.0;" x1="29" x2="29" y1="88.2969" y2="283.0938"/><line style="stroke:#A80036;stroke-width:1.0;stroke-dasharray:5.0,5.0;" x1="381" x2="381" y1="88.2969" y2="283.0938"/><text fill="#000000" font-family="sans-serif" font-size="14" lengthAdjust="spacing" textLength="43" x="5" y="84.9951">Client</text><ellipse cx="29.5" cy="15" fill="#FEFECE" filter="url(#f1s7qtp9pmmvlw)" rx="8" ry="8" style="stroke:#A80036;stroke-width:2.0;"/><path d="M29.5,23 L29.5,50 M16.5,31 L42.5,31 M29.5,50 L16.5,65 M29.5,50 L42.5,65 " fill="none" filter="url(#f1s7qtp9pmmvlw)" style="stroke:#A80036;stroke-width:2.0;"/><text fill="#000000" font-family="sans-serif" font-size="14" lengthAdjust="spacing" textLength="43" x="5" y="295.0889">Client</text><ellipse cx="29.5" cy="308.3906" fill="#FEFECE" filter="url(#f1s7qtp9pmmvlw)" rx="8" ry="8" style="stroke:#A80036;stroke-width:2.0;"/><path d="M29.5,316.3906 L29.5,343.3906 M16.5,324.3906 L42.5,324.3906 M29.5,343.3906 L16.5,358.3906 M29.5,343.3906 L42.5,358.3906 " fill="none" filter="url(#f1s7qtp9pmmvlw)" style="stroke:#A80036;stroke-width:2.0;"/><rect fill="#FEFECE" filter="url(#f1s7qtp9pmmvlw)" height="30.2969" style="stroke:#A80036;stroke-width:1.5;" width="73" x="343" y="53"/><text fill="#000000" font-family="sans-serif" font-size="14" lengthAdjust="spacing" textLength="59" x="350" y="72.9951">:System</text><rect fill="#FEFECE" filter="url(#f1s7qtp9pmmvlw)" height="30.2969" style="stroke:#A80036;stroke-width:1.5;" width="73" x="343" y="282.0938"/><text fill="#000000" font-family="sans-serif" font-size="14" lengthAdjust="spacing" textLength="59" x="350" y="302.0889">:System</text><rect fill="#FFFFFF" filter="url(#f1s7qtp9pmmvlw)" height="175.7969" style="stroke:#A80036;stroke-width:1.0;" width="10" x="24.5" y="98.2969"/><rect fill="#FFFFFF" filter="url(#f1s7qtp9pmmvlw)" height="29.1328" style="stroke:#A80036;stroke-width:1.0;" width="10" x="376.5" y="119.4297"/><rect fill="#FFFFFF" filter="url(#f1s7qtp9pmmvlw)" height="29.1328" style="stroke:#A80036;stroke-width:1.0;" width="10" x="376.5" y="177.6953"/><rect fill="#FFFFFF" filter="url(#f1s7qtp9pmmvlw)" height="29.1328" style="stroke:#A80036;stroke-width:1.0;" width="10" x="376.5" y="235.9609"/><polygon fill="#A80036" points="364.5,115.4297,374.5,119.4297,364.5,123.4297,368.5,119.4297" style="stroke:#A80036;stroke-width:1.0;"/><line style="stroke:#A80036;stroke-width:1.0;" x1="34.5" x2="370.5" y1="119.4297" y2="119.4297"/><text fill="#000000" font-family="sans-serif" font-size="13" font-weight="bold" lengthAdjust="spacing" textLength="9" x="41.5" y="114.3638">1</text><text fill="#000000" font-family="sans-serif" font-size="13" lengthAdjust="spacing" textLength="271" x="54.5" y="114.3638">chooses to see the route from a container</text><polygon fill="#A80036" points="45.5,144.5625,35.5,148.5625,45.5,152.5625,41.5,148.5625" style="stroke:#A80036;stroke-width:1.0;"/><line style="stroke:#A80036;stroke-width:1.0;stroke-dasharray:2.0,2.0;" x1="39.5" x2="380.5" y1="148.5625" y2="148.5625"/><text fill="#000000" font-family="sans-serif" font-size="13" font-weight="bold" lengthAdjust="spacing" textLength="9" x="51.5" y="143.4966">2</text><text fill="#000000" font-family="sans-serif" font-size="13" lengthAdjust="spacing" textLength="279" x="64.5" y="143.4966">asks the number of identification of himself</text><polygon fill="#A80036" points="364.5,173.6953,374.5,177.6953,364.5,181.6953,368.5,177.6953" style="stroke:#A80036;stroke-width:1.0;"/><line style="stroke:#A80036;stroke-width:1.0;" x1="34.5" x2="370.5" y1="177.6953" y2="177.6953"/><text fill="#000000" font-family="sans-serif" font-size="13" font-weight="bold" lengthAdjust="spacing" textLength="8" x="41.5" y="172.6294">3</text><text fill="#000000" font-family="sans-serif" font-size="13" lengthAdjust="spacing" textLength="289" x="53.5" y="172.6294">writes the number of identification of himself</text><polygon fill="#A80036" points="45.5,202.8281,35.5,206.8281,45.5,210.8281,41.5,206.8281" style="stroke:#A80036;stroke-width:1.0;"/><line style="stroke:#A80036;stroke-width:1.0;stroke-dasharray:2.0,2.0;" x1="39.5" x2="380.5" y1="206.8281" y2="206.8281"/><text fill="#000000" font-family="sans-serif" font-size="13" font-weight="bold" lengthAdjust="spacing" textLength="9" x="51.5" y="201.7622">4</text><text fill="#000000" font-family="sans-serif" font-size="13" lengthAdjust="spacing" textLength="290" x="64.5" y="201.7622">asks the container number to show the route</text><polygon fill="#A80036" points="364.5,231.9609,374.5,235.9609,364.5,239.9609,368.5,235.9609" style="stroke:#A80036;stroke-width:1.0;"/><line style="stroke:#A80036;stroke-width:1.0;" x1="34.5" x2="370.5" y1="235.9609" y2="235.9609"/><text fill="#000000" font-family="sans-serif" font-size="13" font-weight="bold" lengthAdjust="spacing" textLength="9" x="41.5" y="230.895">5</text><text fill="#000000" font-family="sans-serif" font-size="13" lengthAdjust="spacing" textLength="300" x="54.5" y="230.895">writes the container number to show the route</text><polygon fill="#A80036" points="45.5,261.0938,35.5,265.0938,45.5,269.0938,41.5,265.0938" style="stroke:#A80036;stroke-width:1.0;"/><line style="stroke:#A80036;stroke-width:1.0;stroke-dasharray:2.0,2.0;" x1="39.5" x2="380.5" y1="265.0938" y2="265.0938"/><text fill="#000000" font-family="sans-serif" font-size="13" font-weight="bold" lengthAdjust="spacing" textLength="9" x="51.5" y="260.0278">6</text><text fill="#000000" font-family="sans-serif" font-size="13" lengthAdjust="spacing" textLength="305" x="64.5" y="260.0278">presents the route of the container of the client</text><!--MD5=[5609848d1b8aa0aceb094939b1655917]
@startuml
autonumber
actor "Client" as Rec

activate Rec
Rec-> ":System" : chooses to see the route from a container
activate ":System"
":System" - -> Rec : asks the number of identification of himself

deactivate ":System"

Rec -> ":System" : writes the number of identification of himself
activate ":System"

":System" - -> Rec : asks the container number to show the route
deactivate ":System"

Rec -> ":System" : writes the container number to show the route
activate ":System"

":System" - -> Rec : presents the route of the container of the client
deactivate ":System"
@enduml

PlantUML version 1.2021.17beta4(Unknown compile time)
(GPL source distribution)
Java Runtime: Java(TM) SE Runtime Environment
JVM: Java HotSpot(TM) 64-Bit Server VM
Default Encoding: UTF-8
Language: en
Country: US
--></g></svg>