<?xml version="1.0" encoding="UTF-8" standalone="no"?><svg xmlns="http://www.w3.org/2000/svg" xmlns:xlink="http://www.w3.org/1999/xlink" contentScriptType="application/ecmascript" contentStyleType="text/css" height="421px" preserveAspectRatio="none" style="width:1542px;height:421px;background:#FFFFFF;" version="1.1" viewBox="0 0 1542 421" width="1542px" zoomAndPan="magnify"><defs><filter height="300%" id="f1gi1i3djs3taz" width="300%" x="-1" y="-1"><feGaussianBlur result="blurOut" stdDeviation="2.0"/><feColorMatrix in="blurOut" result="blurOut2" type="matrix" values="0 0 0 0 0 0 0 0 0 0 0 0 0 0 0 0 0 0 .4 0"/><feOffset dx="4.0" dy="4.0" in="blurOut2" result="blurOut3"/><feBlend in="SourceGraphic" in2="blurOut3" mode="normal"/></filter></defs><g><!--MD5=[5011bf3d6c61ba0c0b7af54c2595cffb]
class CountryPortGraph--><rect codeLine="4" fill="#FEFECE" filter="url(#f1gi1i3djs3taz)" height="99.2188" id="CountryPortGraph" style="stroke:#A80036;stroke-width:1.5;" width="171" x="264" y="273"/><ellipse cx="294.3" cy="289" fill="#ADD1B2" rx="11" ry="11" style="stroke:#A80036;stroke-width:1.0;"/><path d="M296.6438,284.6719 C295.7063,284.2344 295.1125,284.0938 294.2375,284.0938 C291.6125,284.0938 289.6125,286.1719 289.6125,288.8906 L289.6125,290.0156 C289.6125,292.5938 291.7219,294.4844 294.6125,294.4844 C295.8313,294.4844 296.9875,294.1875 297.7375,293.6406 C298.3156,293.2344 298.6438,292.7813 298.6438,292.3906 C298.6438,291.9375 298.2531,291.5469 297.7844,291.5469 C297.5656,291.5469 297.3625,291.625 297.175,291.8125 C296.7219,292.2969 296.7219,292.2969 296.5344,292.3906 C296.1125,292.6563 295.425,292.7813 294.6594,292.7813 C292.6125,292.7813 291.3156,291.6875 291.3156,289.9844 L291.3156,288.8906 C291.3156,287.1094 292.5656,285.7969 294.3,285.7969 C294.8781,285.7969 295.4875,285.9531 295.9563,286.2031 C296.4406,286.4844 296.6125,286.7031 296.7063,287.1094 C296.7688,287.5156 296.8,287.6406 296.9406,287.7656 C297.0813,287.9063 297.3156,288.0156 297.5344,288.0156 C297.8,288.0156 298.0656,287.875 298.2375,287.6563 C298.3469,287.5 298.3781,287.3125 298.3781,286.8906 L298.3781,285.4688 C298.3781,285.0313 298.3625,284.9063 298.2688,284.75 C298.1125,284.4844 297.8313,284.3438 297.5344,284.3438 C297.2375,284.3438 297.0344,284.4375 296.8156,284.75 L296.6438,284.6719 Z " fill="#000000"/><text fill="#000000" font-family="sans-serif" font-size="12" lengthAdjust="spacing" textLength="105" x="311.7" y="293.1543">CountryPortGraph</text><line style="stroke:#A80036;stroke-width:1.5;" x1="265" x2="434" y1="305" y2="305"/><text fill="#000000" font-family="sans-serif" font-size="11" lengthAdjust="spacing" textLength="116" x="270" y="319.2104">-portStore: PortStore</text><text fill="#000000" font-family="sans-serif" font-size="11" lengthAdjust="spacing" textLength="159" x="270" y="332.0151">-countryStore: CountryStore</text><line style="stroke:#A80036;stroke-width:1.5;" x1="265" x2="434" y1="338.6094" y2="338.6094"/><text fill="#000000" font-family="sans-serif" font-size="11" lengthAdjust="spacing" textLength="147" x="270" y="352.8198">+privateCreatorMethods()</text><text fill="#000000" font-family="sans-serif" font-size="11" lengthAdjust="spacing" textLength="116" x="270" y="365.6245">+CountryPortGraph()</text><!--MD5=[4f1f3706c1a355a8488e154afcaed5df]
class Location--><rect codeLine="19" fill="#FEFECE" filter="url(#f1gi1i3djs3taz)" height="176.0469" id="Location" style="stroke:#A80036;stroke-width:1.5;" width="121" x="1354" y="189.5"/><ellipse cx="1386.55" cy="205.5" fill="#ADD1B2" rx="11" ry="11" style="stroke:#A80036;stroke-width:1.0;"/><path d="M1388.8938,201.1719 C1387.9563,200.7344 1387.3625,200.5938 1386.4875,200.5938 C1383.8625,200.5938 1381.8625,202.6719 1381.8625,205.3906 L1381.8625,206.5156 C1381.8625,209.0938 1383.9719,210.9844 1386.8625,210.9844 C1388.0813,210.9844 1389.2375,210.6875 1389.9875,210.1406 C1390.5656,209.7344 1390.8938,209.2813 1390.8938,208.8906 C1390.8938,208.4375 1390.5031,208.0469 1390.0344,208.0469 C1389.8156,208.0469 1389.6125,208.125 1389.425,208.3125 C1388.9719,208.7969 1388.9719,208.7969 1388.7844,208.8906 C1388.3625,209.1563 1387.675,209.2813 1386.9094,209.2813 C1384.8625,209.2813 1383.5656,208.1875 1383.5656,206.4844 L1383.5656,205.3906 C1383.5656,203.6094 1384.8156,202.2969 1386.55,202.2969 C1387.1281,202.2969 1387.7375,202.4531 1388.2063,202.7031 C1388.6906,202.9844 1388.8625,203.2031 1388.9563,203.6094 C1389.0188,204.0156 1389.05,204.1406 1389.1906,204.2656 C1389.3313,204.4063 1389.5656,204.5156 1389.7844,204.5156 C1390.05,204.5156 1390.3156,204.375 1390.4875,204.1563 C1390.5969,204 1390.6281,203.8125 1390.6281,203.3906 L1390.6281,201.9688 C1390.6281,201.5313 1390.6125,201.4063 1390.5188,201.25 C1390.3625,200.9844 1390.0813,200.8438 1389.7844,200.8438 C1389.4875,200.8438 1389.2844,200.9375 1389.0656,201.25 L1388.8938,201.1719 Z " fill="#000000"/><text fill="#000000" font-family="sans-serif" font-size="12" lengthAdjust="spacing" textLength="50" x="1404.45" y="209.6543">Location</text><line style="stroke:#A80036;stroke-width:1.5;" x1="1355" x2="1474" y1="221.5" y2="221.5"/><text fill="#000000" font-family="sans-serif" font-size="11" lengthAdjust="spacing" textLength="93" x="1360" y="235.7104">-latitude: double</text><text fill="#000000" font-family="sans-serif" font-size="11" lengthAdjust="spacing" textLength="103" x="1360" y="248.5151">-longitude: double</text><text fill="#000000" font-family="sans-serif" font-size="11" lengthAdjust="spacing" textLength="93" x="1360" y="261.3198">-latitude: double</text><text fill="#000000" font-family="sans-serif" font-size="11" lengthAdjust="spacing" textLength="103" x="1360" y="274.1245">-longitude: double</text><line style="stroke:#A80036;stroke-width:1.5;" x1="1355" x2="1474" y1="280.7188" y2="280.7188"/><text fill="#000000" font-family="sans-serif" font-size="11" lengthAdjust="spacing" textLength="61" x="1360" y="294.9292">+toString()</text><text fill="#000000" font-family="sans-serif" font-size="11" lengthAdjust="spacing" textLength="78" x="1360" y="307.7339">+equals(ship)</text><text fill="#000000" font-family="sans-serif" font-size="11" lengthAdjust="spacing" textLength="109" x="1360" y="320.5386">+acessorMethods()</text><text fill="#000000" font-family="sans-serif" font-size="11" lengthAdjust="spacing" textLength="61" x="1360" y="333.3433">+toString()</text><text fill="#000000" font-family="sans-serif" font-size="11" lengthAdjust="spacing" textLength="78" x="1360" y="346.1479">+equals(ship)</text><text fill="#000000" font-family="sans-serif" font-size="11" lengthAdjust="spacing" textLength="109" x="1360" y="358.9526">+acessorMethods()</text><!--MD5=[b7b072196a724e538165319251b4d539]
class MatrixGraph--><rect codeLine="26" fill="#FEFECE" filter="url(#f1gi1i3djs3taz)" height="86.4141" id="MatrixGraph" style="stroke:#A80036;stroke-width:1.5;" width="189" x="7" y="279.5"/><ellipse cx="61.25" cy="295.5" fill="#ADD1B2" rx="11" ry="11" style="stroke:#A80036;stroke-width:1.0;"/><path d="M63.5938,291.1719 C62.6563,290.7344 62.0625,290.5938 61.1875,290.5938 C58.5625,290.5938 56.5625,292.6719 56.5625,295.3906 L56.5625,296.5156 C56.5625,299.0938 58.6719,300.9844 61.5625,300.9844 C62.7813,300.9844 63.9375,300.6875 64.6875,300.1406 C65.2656,299.7344 65.5938,299.2813 65.5938,298.8906 C65.5938,298.4375 65.2031,298.0469 64.7344,298.0469 C64.5156,298.0469 64.3125,298.125 64.125,298.3125 C63.6719,298.7969 63.6719,298.7969 63.4844,298.8906 C63.0625,299.1563 62.375,299.2813 61.6094,299.2813 C59.5625,299.2813 58.2656,298.1875 58.2656,296.4844 L58.2656,295.3906 C58.2656,293.6094 59.5156,292.2969 61.25,292.2969 C61.8281,292.2969 62.4375,292.4531 62.9063,292.7031 C63.3906,292.9844 63.5625,293.2031 63.6563,293.6094 C63.7188,294.0156 63.75,294.1406 63.8906,294.2656 C64.0313,294.4063 64.2656,294.5156 64.4844,294.5156 C64.75,294.5156 65.0156,294.375 65.1875,294.1563 C65.2969,294 65.3281,293.8125 65.3281,293.3906 L65.3281,291.9688 C65.3281,291.5313 65.3125,291.4063 65.2188,291.25 C65.0625,290.9844 64.7813,290.8438 64.4844,290.8438 C64.1875,290.8438 63.9844,290.9375 63.7656,291.25 L63.5938,291.1719 Z " fill="#000000"/><text fill="#000000" font-family="sans-serif" font-size="12" lengthAdjust="spacing" textLength="72" x="81.75" y="299.6543">MatrixGraph</text><line style="stroke:#A80036;stroke-width:1.5;" x1="8" x2="195" y1="311.5" y2="311.5"/><text fill="#000000" font-family="sans-serif" font-size="11" lengthAdjust="spacing" textLength="156" x="13" y="325.7104">-edgeMatrix: Edge&lt;V,E&gt;[][]</text><line style="stroke:#A80036;stroke-width:1.5;" x1="8" x2="195" y1="332.3047" y2="332.3047"/><text fill="#000000" font-family="sans-serif" font-size="11" lengthAdjust="spacing" textLength="100" x="13" y="346.5151">+addVertex(vert)</text><text fill="#000000" font-family="sans-serif" font-size="11" lengthAdjust="spacing" textLength="177" x="13" y="359.3198">+addEdge(vOrig,vDest,Weight)</text><!--MD5=[706e73df52f3df32f52be1ce9adb217e]
class Graph--><rect codeLine="31" fill="#FEFECE" filter="url(#f1gi1i3djs3taz)" height="99.2188" id="Graph" style="stroke:#A80036;stroke-width:1.5;" width="140" x="31.5" y="145"/><ellipse cx="78.75" cy="161" fill="#B4A7E5" rx="11" ry="11" style="stroke:#A80036;stroke-width:1.0;"/><path d="M79.7031,157.7813 L81.4219,157.7813 C81.8125,157.7813 82,157.75 82.125,157.6719 C82.3906,157.5156 82.5313,157.2344 82.5313,156.9375 C82.5313,156.6719 82.4219,156.4063 82.1875,156.2344 C82.0156,156.125 81.875,156.0938 81.4219,156.0938 L76.2813,156.0938 C75.8438,156.0938 75.7188,156.1094 75.5625,156.2031 C75.3125,156.3594 75.1563,156.6563 75.1563,156.9375 C75.1563,157.2188 75.2969,157.4688 75.5156,157.6406 C75.6719,157.75 75.8594,157.7813 76.2813,157.7813 L78,157.7813 L78,164.2969 L76.2813,164.2969 C75.8438,164.2969 75.7188,164.3125 75.5625,164.4219 C75.3125,164.5781 75.1563,164.8594 75.1563,165.1563 C75.1563,165.4063 75.2969,165.6719 75.5156,165.8281 C75.6719,165.9531 75.875,166 76.2813,166 L81.4219,166 C82.1719,166 82.5313,165.7188 82.5313,165.1563 C82.5313,164.875 82.4219,164.625 82.1875,164.4531 C82.0156,164.3281 81.875,164.2969 81.4219,164.2969 L79.7031,164.2969 L79.7031,157.7813 Z " fill="#000000"/><text fill="#000000" font-family="sans-serif" font-size="12" font-style="italic" lengthAdjust="spacing" textLength="37" x="99.25" y="165.1543">Graph</text><line style="stroke:#A80036;stroke-width:1.5;" x1="32.5" x2="170.5" y1="177" y2="177"/><text fill="#000000" font-family="sans-serif" font-size="11" lengthAdjust="spacing" textLength="76" x="37.5" y="191.2104">-numVerts:int</text><text fill="#000000" font-family="sans-serif" font-size="11" lengthAdjust="spacing" textLength="81" x="37.5" y="204.0151">-numEdges:int</text><text fill="#000000" font-family="sans-serif" font-size="11" lengthAdjust="spacing" textLength="115" x="37.5" y="216.8198">-isDirected: boolean</text><text fill="#000000" font-family="sans-serif" font-size="11" lengthAdjust="spacing" textLength="128" x="37.5" y="229.6245">-vertices:ArrayList&lt;V&gt;</text><line style="stroke:#A80036;stroke-width:1.5;" x1="32.5" x2="170.5" y1="236.2188" y2="236.2188"/><!--MD5=[a0bfe97ac0a38e6e74cc1c7c7b744b71]
class Port--><rect codeLine="38" fill="#FEFECE" filter="url(#f1gi1i3djs3taz)" height="163.2422" id="Port" style="stroke:#A80036;stroke-width:1.5;" width="262" x="740.5" y="7"/><ellipse cx="855.75" cy="23" fill="#ADD1B2" rx="11" ry="11" style="stroke:#A80036;stroke-width:1.0;"/><path d="M858.0938,18.6719 C857.1563,18.2344 856.5625,18.0938 855.6875,18.0938 C853.0625,18.0938 851.0625,20.1719 851.0625,22.8906 L851.0625,24.0156 C851.0625,26.5938 853.1719,28.4844 856.0625,28.4844 C857.2813,28.4844 858.4375,28.1875 859.1875,27.6406 C859.7656,27.2344 860.0938,26.7813 860.0938,26.3906 C860.0938,25.9375 859.7031,25.5469 859.2344,25.5469 C859.0156,25.5469 858.8125,25.625 858.625,25.8125 C858.1719,26.2969 858.1719,26.2969 857.9844,26.3906 C857.5625,26.6563 856.875,26.7813 856.1094,26.7813 C854.0625,26.7813 852.7656,25.6875 852.7656,23.9844 L852.7656,22.8906 C852.7656,21.1094 854.0156,19.7969 855.75,19.7969 C856.3281,19.7969 856.9375,19.9531 857.4063,20.2031 C857.8906,20.4844 858.0625,20.7031 858.1563,21.1094 C858.2188,21.5156 858.25,21.6406 858.3906,21.7656 C858.5313,21.9063 858.7656,22.0156 858.9844,22.0156 C859.25,22.0156 859.5156,21.875 859.6875,21.6563 C859.7969,21.5 859.8281,21.3125 859.8281,20.8906 L859.8281,19.4688 C859.8281,19.0313 859.8125,18.9063 859.7188,18.75 C859.5625,18.4844 859.2813,18.3438 858.9844,18.3438 C858.6875,18.3438 858.4844,18.4375 858.2656,18.75 L858.0938,18.6719 Z " fill="#000000"/><text fill="#000000" font-family="sans-serif" font-size="12" lengthAdjust="spacing" textLength="23" x="876.25" y="27.1543">Port</text><line style="stroke:#A80036;stroke-width:1.5;" x1="741.5" x2="1001.5" y1="39" y2="39"/><text fill="#000000" font-family="sans-serif" font-size="11" lengthAdjust="spacing" textLength="93" x="746.5" y="53.2104">-continent:String</text><text fill="#000000" font-family="sans-serif" font-size="11" lengthAdjust="spacing" textLength="82" x="746.5" y="66.0151">-country:String</text><text fill="#000000" font-family="sans-serif" font-size="11" lengthAdjust="spacing" textLength="49" x="746.5" y="78.8198">-code:int</text><text fill="#000000" font-family="sans-serif" font-size="11" lengthAdjust="spacing" textLength="94" x="746.5" y="91.6245">-namePort:String</text><text fill="#000000" font-family="sans-serif" font-size="11" lengthAdjust="spacing" textLength="102" x="746.5" y="104.4292">-location: Location</text><text fill="#000000" font-family="sans-serif" font-size="11" lengthAdjust="spacing" textLength="153" x="746.5" y="117.2339">-averageCloseness:double</text><line style="stroke:#A80036;stroke-width:1.5;" x1="741.5" x2="1001.5" y1="123.8281" y2="123.8281"/><text fill="#000000" font-family="sans-serif" font-size="11" lengthAdjust="spacing" textLength="144" x="746.5" y="138.0386">+getAverageCloseness()</text><text fill="#000000" font-family="sans-serif" font-size="11" lengthAdjust="spacing" textLength="250" x="746.5" y="150.8433">+setAverageCloseness(averageCloseness)</text><text fill="#000000" font-family="sans-serif" font-size="11" lengthAdjust="spacing" textLength="109" x="746.5" y="163.6479">+acessorMethods()</text><!--MD5=[1fa23e875f7ea39406cc4f0fd95e1dab]
class CountryStore--><rect codeLine="49" fill="#FEFECE" filter="url(#f1gi1i3djs3taz)" height="86.4141" id="CountryStore" style="stroke:#A80036;stroke-width:1.5;" width="185" x="257" y="151.5"/><ellipse cx="305.75" cy="167.5" fill="#ADD1B2" rx="11" ry="11" style="stroke:#A80036;stroke-width:1.0;"/><path d="M308.0938,163.1719 C307.1563,162.7344 306.5625,162.5938 305.6875,162.5938 C303.0625,162.5938 301.0625,164.6719 301.0625,167.3906 L301.0625,168.5156 C301.0625,171.0938 303.1719,172.9844 306.0625,172.9844 C307.2813,172.9844 308.4375,172.6875 309.1875,172.1406 C309.7656,171.7344 310.0938,171.2813 310.0938,170.8906 C310.0938,170.4375 309.7031,170.0469 309.2344,170.0469 C309.0156,170.0469 308.8125,170.125 308.625,170.3125 C308.1719,170.7969 308.1719,170.7969 307.9844,170.8906 C307.5625,171.1563 306.875,171.2813 306.1094,171.2813 C304.0625,171.2813 302.7656,170.1875 302.7656,168.4844 L302.7656,167.3906 C302.7656,165.6094 304.0156,164.2969 305.75,164.2969 C306.3281,164.2969 306.9375,164.4531 307.4063,164.7031 C307.8906,164.9844 308.0625,165.2031 308.1563,165.6094 C308.2188,166.0156 308.25,166.1406 308.3906,166.2656 C308.5313,166.4063 308.7656,166.5156 308.9844,166.5156 C309.25,166.5156 309.5156,166.375 309.6875,166.1563 C309.7969,166 309.8281,165.8125 309.8281,165.3906 L309.8281,163.9688 C309.8281,163.5313 309.8125,163.4063 309.7188,163.25 C309.5625,162.9844 309.2813,162.8438 308.9844,162.8438 C308.6875,162.8438 308.4844,162.9375 308.2656,163.25 L308.0938,163.1719 Z " fill="#000000"/><text fill="#000000" font-family="sans-serif" font-size="12" lengthAdjust="spacing" textLength="79" x="326.25" y="171.6543">CountryStore</text><line style="stroke:#A80036;stroke-width:1.5;" x1="258" x2="441" y1="183.5" y2="183.5"/><text fill="#000000" font-family="sans-serif" font-size="11" lengthAdjust="spacing" textLength="161" x="263" y="197.7104">-countryStore:List&lt;Country&gt;</text><line style="stroke:#A80036;stroke-width:1.5;" x1="258" x2="441" y1="204.3047" y2="204.3047"/><text fill="#000000" font-family="sans-serif" font-size="11" lengthAdjust="spacing" textLength="173" x="263" y="218.5151">+getCountriesFromDatabase()</text><text fill="#000000" font-family="sans-serif" font-size="11" lengthAdjust="spacing" textLength="111" x="263" y="231.3198">+getCountryStore()</text><!--MD5=[f70d2b281f9eefc1b49373c49159755a]
class PortStore--><rect codeLine="54" fill="#FEFECE" filter="url(#f1gi1i3djs3taz)" height="86.4141" id="PortStore" style="stroke:#A80036;stroke-width:1.5;" width="158" x="270.5" y="30.5"/><ellipse cx="317.25" cy="46.5" fill="#ADD1B2" rx="11" ry="11" style="stroke:#A80036;stroke-width:1.0;"/><path d="M319.5938,42.1719 C318.6563,41.7344 318.0625,41.5938 317.1875,41.5938 C314.5625,41.5938 312.5625,43.6719 312.5625,46.3906 L312.5625,47.5156 C312.5625,50.0938 314.6719,51.9844 317.5625,51.9844 C318.7813,51.9844 319.9375,51.6875 320.6875,51.1406 C321.2656,50.7344 321.5938,50.2813 321.5938,49.8906 C321.5938,49.4375 321.2031,49.0469 320.7344,49.0469 C320.5156,49.0469 320.3125,49.125 320.125,49.3125 C319.6719,49.7969 319.6719,49.7969 319.4844,49.8906 C319.0625,50.1563 318.375,50.2813 317.6094,50.2813 C315.5625,50.2813 314.2656,49.1875 314.2656,47.4844 L314.2656,46.3906 C314.2656,44.6094 315.5156,43.2969 317.25,43.2969 C317.8281,43.2969 318.4375,43.4531 318.9063,43.7031 C319.3906,43.9844 319.5625,44.2031 319.6563,44.6094 C319.7188,45.0156 319.75,45.1406 319.8906,45.2656 C320.0313,45.4063 320.2656,45.5156 320.4844,45.5156 C320.75,45.5156 321.0156,45.375 321.1875,45.1563 C321.2969,45 321.3281,44.8125 321.3281,44.3906 L321.3281,42.9688 C321.3281,42.5313 321.3125,42.4063 321.2188,42.25 C321.0625,41.9844 320.7813,41.8438 320.4844,41.8438 C320.1875,41.8438 319.9844,41.9375 319.7656,42.25 L319.5938,42.1719 Z " fill="#000000"/><text fill="#000000" font-family="sans-serif" font-size="12" lengthAdjust="spacing" textLength="56" x="337.75" y="50.6543">PortStore</text><line style="stroke:#A80036;stroke-width:1.5;" x1="271.5" x2="427.5" y1="62.5" y2="62.5"/><text fill="#000000" font-family="sans-serif" font-size="11" lengthAdjust="spacing" textLength="105" x="276.5" y="76.7104">-PortList:List&lt;Port&gt;</text><line style="stroke:#A80036;stroke-width:1.5;" x1="271.5" x2="427.5" y1="83.3047" y2="83.3047"/><text fill="#000000" font-family="sans-serif" font-size="11" lengthAdjust="spacing" textLength="146" x="276.5" y="97.5151">+getPortsFromDatabase()</text><text fill="#000000" font-family="sans-serif" font-size="11" lengthAdjust="spacing" textLength="57" x="276.5" y="110.3198">+getPort()</text><!--MD5=[deb4e1f6eb1e3c1256fdb830f96abfbb]
class Country--><rect codeLine="59" fill="#FEFECE" filter="url(#f1gi1i3djs3taz)" height="201.6563" id="Country" style="stroke:#A80036;stroke-width:1.5;" width="627" x="558" y="205.5"/><ellipse cx="844.25" cy="221.5" fill="#ADD1B2" rx="11" ry="11" style="stroke:#A80036;stroke-width:1.0;"/><path d="M846.5938,217.1719 C845.6563,216.7344 845.0625,216.5938 844.1875,216.5938 C841.5625,216.5938 839.5625,218.6719 839.5625,221.3906 L839.5625,222.5156 C839.5625,225.0938 841.6719,226.9844 844.5625,226.9844 C845.7813,226.9844 846.9375,226.6875 847.6875,226.1406 C848.2656,225.7344 848.5938,225.2813 848.5938,224.8906 C848.5938,224.4375 848.2031,224.0469 847.7344,224.0469 C847.5156,224.0469 847.3125,224.125 847.125,224.3125 C846.6719,224.7969 846.6719,224.7969 846.4844,224.8906 C846.0625,225.1563 845.375,225.2813 844.6094,225.2813 C842.5625,225.2813 841.2656,224.1875 841.2656,222.4844 L841.2656,221.3906 C841.2656,219.6094 842.5156,218.2969 844.25,218.2969 C844.8281,218.2969 845.4375,218.4531 845.9063,218.7031 C846.3906,218.9844 846.5625,219.2031 846.6563,219.6094 C846.7188,220.0156 846.75,220.1406 846.8906,220.2656 C847.0313,220.4063 847.2656,220.5156 847.4844,220.5156 C847.75,220.5156 848.0156,220.375 848.1875,220.1563 C848.2969,220 848.3281,219.8125 848.3281,219.3906 L848.3281,217.9688 C848.3281,217.5313 848.3125,217.4063 848.2188,217.25 C848.0625,216.9844 847.7813,216.8438 847.4844,216.8438 C847.1875,216.8438 846.9844,216.9375 846.7656,217.25 L846.5938,217.1719 Z " fill="#000000"/><text fill="#000000" font-family="sans-serif" font-size="12" lengthAdjust="spacing" textLength="46" x="864.75" y="225.6543">Country</text><line style="stroke:#A80036;stroke-width:1.5;" x1="559" x2="1184" y1="237.5" y2="237.5"/><text fill="#000000" font-family="sans-serif" font-size="11" lengthAdjust="spacing" textLength="115" x="564" y="251.7104">-continent:Continent</text><text fill="#000000" font-family="sans-serif" font-size="11" lengthAdjust="spacing" textLength="142" x="564" y="264.5151">-capitalLocation: Location</text><text fill="#000000" font-family="sans-serif" font-size="11" lengthAdjust="spacing" textLength="73" x="564" y="277.3198">-name:String</text><text fill="#000000" font-family="sans-serif" font-size="11" lengthAdjust="spacing" textLength="106" x="564" y="290.1245">-alpha2code:String</text><text fill="#000000" font-family="sans-serif" font-size="11" lengthAdjust="spacing" textLength="106" x="564" y="302.9292">-alpha3code:String</text><text fill="#000000" font-family="sans-serif" font-size="11" lengthAdjust="spacing" textLength="105" x="564" y="315.7339">-population:double</text><text fill="#000000" font-family="sans-serif" font-size="11" lengthAdjust="spacing" textLength="77" x="564" y="328.5386">-capital:String</text><text fill="#000000" font-family="sans-serif" font-size="11" lengthAdjust="spacing" textLength="153" x="564" y="341.3433">-averageCloseness:double</text><line style="stroke:#A80036;stroke-width:1.5;" x1="559" x2="1184" y1="347.9375" y2="347.9375"/><text fill="#000000" font-family="sans-serif" font-size="11" lengthAdjust="spacing" textLength="615" x="564" y="362.1479">+Country(continent, capitalLocation, name, alpha2code, alpha3code, population, capital, averageCloseness)</text><text fill="#000000" font-family="sans-serif" font-size="11" lengthAdjust="spacing" textLength="61" x="564" y="374.9526">+toString()</text><text fill="#000000" font-family="sans-serif" font-size="11" lengthAdjust="spacing" textLength="146" x="564" y="387.7573">+setAverageCloseness();</text><text fill="#000000" font-family="sans-serif" font-size="11" lengthAdjust="spacing" textLength="147" x="564" y="400.562">+getAverageCloseness();</text><!--MD5=[ddf964ba65dd59a9c60a1e1cd8efc8b4]
class GraphLocation--><rect codeLine="75" fill="#FEFECE" filter="url(#f1gi1i3djs3taz)" height="112.0234" id="GraphLocation" style="stroke:#A80036;stroke-width:1.5;" width="227" x="1301" y="32.5"/><ellipse cx="1366.25" cy="48.5" fill="#B4A7E5" rx="11" ry="11" style="stroke:#A80036;stroke-width:1.0;"/><path d="M1367.2031,45.2813 L1368.9219,45.2813 C1369.3125,45.2813 1369.5,45.25 1369.625,45.1719 C1369.8906,45.0156 1370.0313,44.7344 1370.0313,44.4375 C1370.0313,44.1719 1369.9219,43.9063 1369.6875,43.7344 C1369.5156,43.625 1369.375,43.5938 1368.9219,43.5938 L1363.7813,43.5938 C1363.3438,43.5938 1363.2188,43.6094 1363.0625,43.7031 C1362.8125,43.8594 1362.6563,44.1563 1362.6563,44.4375 C1362.6563,44.7188 1362.7969,44.9688 1363.0156,45.1406 C1363.1719,45.25 1363.3594,45.2813 1363.7813,45.2813 L1365.5,45.2813 L1365.5,51.7969 L1363.7813,51.7969 C1363.3438,51.7969 1363.2188,51.8125 1363.0625,51.9219 C1362.8125,52.0781 1362.6563,52.3594 1362.6563,52.6563 C1362.6563,52.9063 1362.7969,53.1719 1363.0156,53.3281 C1363.1719,53.4531 1363.375,53.5 1363.7813,53.5 L1368.9219,53.5 C1369.6719,53.5 1370.0313,53.2188 1370.0313,52.6563 C1370.0313,52.375 1369.9219,52.125 1369.6875,51.9531 C1369.5156,51.8281 1369.375,51.7969 1368.9219,51.7969 L1367.2031,51.7969 L1367.2031,45.2813 Z " fill="#000000"/><text fill="#000000" font-family="sans-serif" font-size="12" font-style="italic" lengthAdjust="spacing" textLength="88" x="1386.75" y="52.6543">GraphLocation</text><line style="stroke:#A80036;stroke-width:1.5;" x1="1302" x2="1527" y1="64.5" y2="64.5"/><line style="stroke:#A80036;stroke-width:1.5;" x1="1302" x2="1527" y1="72.5" y2="72.5"/><text fill="#000000" font-family="sans-serif" font-size="11" lengthAdjust="spacing" textLength="128" x="1307" y="86.7104">Location getLocation();</text><text fill="#000000" font-family="sans-serif" font-size="11" lengthAdjust="spacing" textLength="101" x="1307" y="99.5151">String getName();</text><text fill="#000000" font-family="sans-serif" font-size="11" lengthAdjust="spacing" textLength="134" x="1307" y="112.3198">Double getCloseness();</text><text fill="#000000" font-family="sans-serif" font-size="11" lengthAdjust="spacing" textLength="215" x="1307" y="125.1245">void setAverageCloseness(double v);</text><text fill="#000000" font-family="sans-serif" font-size="11" lengthAdjust="spacing" textLength="144" x="1307" y="137.9292">Continent getContinent();</text><!--MD5=[f9c1f95f328fb1428542eb64ba771e8f]
link MatrixGraph to CountryPortGraph--><path codeLine="82" d="M196.204,322.5 C216.732,322.5 238.416,322.5 258.784,322.5 " fill="none" id="MatrixGraph-to-CountryPortGraph" style="stroke:#A80036;stroke-width:1.0;"/><polygon fill="#A80036" points="263.932,322.5,254.932,318.5,258.932,322.5,254.932,326.5,263.932,322.5" style="stroke:#A80036;stroke-width:1.0;"/><!--MD5=[4475b5a8963e4fd4abe09f77ee0f6735]
link Graph to MatrixGraph--><path codeLine="83" d="M101.5,244.012 C101.5,253.943 101.5,263.875 101.5,273.806 " fill="none" id="Graph-to-MatrixGraph" style="stroke:#A80036;stroke-width:1.0;"/><polygon fill="#A80036" points="101.5,279,105.5,270,101.5,274,97.5,270,101.5,279" style="stroke:#A80036;stroke-width:1.0;"/><!--MD5=[4df1422b8629e0f4fa74e686c9c9ab0e]
link CountryPortGraph to Country--><path codeLine="84" d="M435.378,322.0542 C464.721,321.7645 497.809,321.287 528,320.5 C536.129,320.2881 544.366,320.059 552.676,319.815 " fill="none" id="CountryPortGraph-to-Country" style="stroke:#A80036;stroke-width:1.0;"/><polygon fill="#A80036" points="557.859,319.6612,548.7441,315.9304,552.8612,319.8098,548.9818,323.9269,557.859,319.6612" style="stroke:#A80036;stroke-width:1.0;"/><text fill="#000000" font-family="sans-serif" font-size="13" lengthAdjust="spacing" textLength="54" x="473" y="316.5669">contains</text><text fill="#000000" font-family="sans-serif" font-size="13" lengthAdjust="spacing" textLength="8" x="443.1019" y="334.7236">1</text><text fill="#000000" font-family="sans-serif" font-size="13" lengthAdjust="spacing" textLength="8" x="542.4143" y="332.2179">1</text><!--MD5=[f72f922769b6338dcfe55bfdc0636e7d]
link CountryPortGraph to Port--><path codeLine="85" d="M435.272,305.244 C467.452,295.184 502.462,279.549 528,255.5 C551.753,233.133 533.682,210.252 558,188.5 C606.936,144.728 675.154,120.1 735.371,106.251 " fill="none" id="CountryPortGraph-to-Port" style="stroke:#A80036;stroke-width:1.0;"/><polygon fill="#A80036" points="740.43,105.108,730.7699,103.1888,735.5528,106.2094,732.5322,110.9923,740.43,105.108" style="stroke:#A80036;stroke-width:1.0;"/><text fill="#000000" font-family="sans-serif" font-size="13" lengthAdjust="spacing" textLength="54" x="473" y="251.5669">contains</text><text fill="#000000" font-family="sans-serif" font-size="13" lengthAdjust="spacing" textLength="8" x="442.9868" y="316.4688">1</text><text fill="#000000" font-family="sans-serif" font-size="13" lengthAdjust="spacing" textLength="8" x="724.6213" y="118.5655">1</text><!--MD5=[9f97b6ad89d1aece2562b761589d6d34]
link Port to GraphLocation--><path codeLine="86" d="M1002.771,88.5 C1091.98,88.5 1209.31,88.5 1295.72,88.5 " fill="none" id="Port-to-GraphLocation" style="stroke:#A80036;stroke-width:1.0;"/><polygon fill="#A80036" points="1300.84,88.5,1291.84,84.5,1295.84,88.5,1291.84,92.5,1300.84,88.5" style="stroke:#A80036;stroke-width:1.0;"/><text fill="#000000" font-family="sans-serif" font-size="13" lengthAdjust="spacing" textLength="54" x="1216" y="84.5669">contains</text><text fill="#000000" font-family="sans-serif" font-size="13" lengthAdjust="spacing" textLength="8" x="1010.5914" y="100.9973">1</text><text fill="#000000" font-family="sans-serif" font-size="13" lengthAdjust="spacing" textLength="8" x="1284.9347" y="101.0745">1</text><!--MD5=[8d70ee99540c41b6b173287b4c5b2064]
link Port to Location--><path codeLine="87" d="M1002.716,128.195 C1059.04,145.872 1125.54,167.428 1185,188.5 C1240.75,208.257 1303.29,232.784 1348.83,251.083 " fill="none" id="Port-to-Location" style="stroke:#A80036;stroke-width:1.0;"/><polygon fill="#A80036" points="1353.74,253.059,1346.8903,245.9822,1349.1032,251.1883,1343.8971,253.4012,1353.74,253.059" style="stroke:#A80036;stroke-width:1.0;"/><text fill="#000000" font-family="sans-serif" font-size="13" lengthAdjust="spacing" textLength="23" x="1231.5" y="195.5669">has</text><text fill="#000000" font-family="sans-serif" font-size="13" lengthAdjust="spacing" textLength="8" x="1010.5332" y="142.9872">1</text><text fill="#000000" font-family="sans-serif" font-size="13" lengthAdjust="spacing" textLength="8" x="1337.8474" y="263.0664">1</text><!--MD5=[618153f74b0244bcbb7b26a6b351a812]
link Country to Location--><path codeLine="88" d="M1185.24,289.736 C1247.3,286.409 1306.31,283.246 1348.78,280.969 " fill="none" id="Country-to-Location" style="stroke:#A80036;stroke-width:1.0;"/><polygon fill="#A80036" points="1353.88,280.696,1344.6761,277.1904,1348.8874,280.9674,1345.1104,285.1787,1353.88,280.696" style="stroke:#A80036;stroke-width:1.0;"/><text fill="#000000" font-family="sans-serif" font-size="13" lengthAdjust="spacing" textLength="23" x="1231.5" y="280.5669">has</text><text fill="#000000" font-family="sans-serif" font-size="13" lengthAdjust="spacing" textLength="8" x="1192.687" y="301.5914">1</text><text fill="#000000" font-family="sans-serif" font-size="13" lengthAdjust="spacing" textLength="8" x="1338.0044" y="294.0717">1</text><!--MD5=[dc32b5723b26233b0eff7f618d378468]
link PortStore to CountryPortGraph--><path codeLine="89" d="M270.431,107.543 C252.89,119.006 236.545,133.673 226.5,152 C208.129,185.518 208.7,204.176 226.5,238 C234.427,253.064 246.388,265.961 259.788,276.812 " fill="none" id="PortStore-to-CountryPortGraph" style="stroke:#A80036;stroke-width:1.0;"/><polygon fill="#A80036" points="263.991,280.114,259.3849,271.4086,260.0592,277.0251,254.4427,277.6995,263.991,280.114" style="stroke:#A80036;stroke-width:1.0;"/><!--MD5=[f0135757706e789791f4f136fa82960e]
link CountryStore to CountryPortGraph--><path codeLine="90" d="M349.5,237.736 C349.5,247.746 349.5,257.756 349.5,267.766 " fill="none" id="CountryStore-to-CountryPortGraph" style="stroke:#A80036;stroke-width:1.0;"/><polygon fill="#A80036" points="349.5,273,353.5,264,349.5,268,345.5,264,349.5,273" style="stroke:#A80036;stroke-width:1.0;"/><!--MD5=[c8440d88291d09ff9b1204d56899ac6f]
link PortStore to Port--><path codeLine="91" d="M428.631,75.754 C509.617,78.09 637.768,81.787 735.252,84.599 " fill="none" id="PortStore-to-Port" style="stroke:#A80036;stroke-width:1.0;"/><polygon fill="#A80036" points="740.455,84.749,731.5742,80.491,735.4571,84.6047,731.3433,88.4877,740.455,84.749" style="stroke:#A80036;stroke-width:1.0;"/><text fill="#000000" font-family="sans-serif" font-size="13" lengthAdjust="spacing" textLength="40" x="480" y="73.5669">stores</text><text fill="#000000" font-family="sans-serif" font-size="13" lengthAdjust="spacing" textLength="8" x="436.5544" y="88.7372">1</text><text fill="#000000" font-family="sans-serif" font-size="13" lengthAdjust="spacing" textLength="27" x="705.5502" y="97.0179">1...*</text><!--MD5=[f967797988c016cbdc52ea2558741842]
link CountryStore to Country--><path codeLine="92" d="M442.269,214.266 C474.489,221.205 512.75,229.446 552.943,238.103 " fill="none" id="CountryStore-to-Country" style="stroke:#A80036;stroke-width:1.0;"/><polygon fill="#A80036" points="557.854,239.161,549.8979,233.3558,552.9661,238.1083,548.2136,241.1764,557.854,239.161" style="stroke:#A80036;stroke-width:1.0;"/><text fill="#000000" font-family="sans-serif" font-size="13" lengthAdjust="spacing" textLength="40" x="480" y="217.5669">stores</text><text fill="#000000" font-family="sans-serif" font-size="13" lengthAdjust="spacing" textLength="8" x="449.9803" y="228.4944">1</text><text fill="#000000" font-family="sans-serif" font-size="13" lengthAdjust="spacing" textLength="27" x="523.1865" y="249.831">1...*</text><!--MD5=[b0875df45807c4a2fe64dc3d4335e486]
@startuml
skinparam classAttributeIconSize 0
left to right direction

class CountryPortGraph{
-portStore: PortStore
-countryStore: CountryStore
+privateCreatorMethods()
+CountryPortGraph()
}

class Location{
- latitude: double
- longitude: double
+toString()
+equals(ship)
+acessorMethods()
}

class Location{
- latitude: double
- longitude: double
+toString()
+equals(ship)
+acessorMethods()
}
class MatrixGraph{
-edgeMatrix: Edge<V,E>[][]
+addVertex(vert)
+addEdge(vOrig,vDest,Weight)
}
Interface Graph{
-numVerts:int
-numEdges:int
-isDirected: boolean
-vertices:ArrayList<V>
}

class "Port"{
-continent:String
-country:String
-code:int
-namePort:String
-location: Location
-averageCloseness:double 
+getAverageCloseness()
+setAverageCloseness(averageCloseness)
+acessorMethods()
}
class CountryStore{
-countryStore:List<Country>
+getCountriesFromDatabase()
+getCountryStore()
}
class PortStore{
-PortList:List<Port>
+getPortsFromDatabase()
+getPort()
}
class Country {
-continent:Continent 
-capitalLocation: Location 
-name:String 
-alpha2code:String 
-alpha3code:String 
-population:double 
-capital:String 
-averageCloseness:double 
+Country(continent, capitalLocation, name, alpha2code, alpha3code, population, capital, averageCloseness)
+toString()
+setAverageCloseness();
+getAverageCloseness();
}


interface GraphLocation {
Location getLocation();
String getName();
Double getCloseness();
void setAverageCloseness(double v);
Continent getContinent();
}
MatrixGraph  - -> CountryPortGraph 
Graph -> MatrixGraph
CountryPortGraph "1" - -> "1" Country:contains
CountryPortGraph "1" - -> "1" Port:contains
Port "1" - -> "1" GraphLocation: contains
Port "1" - -> "1" Location : has 
Country "1" - -> "1" Location : has
PortStore -> CountryPortGraph 
CountryStore -> CountryPortGraph
PortStore "1" - -> "1...*" Port : stores
CountryStore "1" - -> "1...*" Country : stores
@enduml

PlantUML version 1.2021.17beta4(Unknown compile time)
(GPL source distribution)
Java Runtime: Java(TM) SE Runtime Environment
JVM: Java HotSpot(TM) 64-Bit Server VM
Default Encoding: UTF-8
Language: en
Country: US
--></g></svg>