<?xml version="1.0" encoding="UTF-8" standalone="no"?><svg xmlns="http://www.w3.org/2000/svg" xmlns:xlink="http://www.w3.org/1999/xlink" contentScriptType="application/ecmascript" contentStyleType="text/css" height="421px" preserveAspectRatio="none" style="width:1319px;height:421px;background:#FFFFFF;" version="1.1" viewBox="0 0 1319 421" width="1319px" zoomAndPan="magnify"><defs><filter height="300%" id="f17gsqgk1bno8z" width="300%" x="-1" y="-1"><feGaussianBlur result="blurOut" stdDeviation="2.0"/><feColorMatrix in="blurOut" result="blurOut2" type="matrix" values="0 0 0 0 0 0 0 0 0 0 0 0 0 0 0 0 0 0 .4 0"/><feOffset dx="4.0" dy="4.0" in="blurOut2" result="blurOut3"/><feBlend in="SourceGraphic" in2="blurOut3" mode="normal"/></filter></defs><g><!--MD5=[5011bf3d6c61ba0c0b7af54c2595cffb]
class CountryPortGraph--><rect codeLine="4" fill="#FEFECE" filter="url(#f17gsqgk1bno8z)" height="99.2188" id="CountryPortGraph" style="stroke:#A80036;stroke-width:1.5;" width="171" x="41.2611" y="274"/><ellipse cx="71.5611" cy="290" fill="#ADD1B2" rx="11" ry="11" style="stroke:#A80036;stroke-width:1.0;"/><path d="M73.9048,285.6719 C72.9673,285.2344 72.3736,285.0938 71.4986,285.0938 C68.8736,285.0938 66.8736,287.1719 66.8736,289.8906 L66.8736,291.0156 C66.8736,293.5938 68.9829,295.4844 71.8736,295.4844 C73.0923,295.4844 74.2486,295.1875 74.9986,294.6406 C75.5767,294.2344 75.9048,293.7813 75.9048,293.3906 C75.9048,292.9375 75.5142,292.5469 75.0454,292.5469 C74.8267,292.5469 74.6236,292.625 74.4361,292.8125 C73.9829,293.2969 73.9829,293.2969 73.7954,293.3906 C73.3736,293.6563 72.6861,293.7813 71.9204,293.7813 C69.8736,293.7813 68.5767,292.6875 68.5767,290.9844 L68.5767,289.8906 C68.5767,288.1094 69.8267,286.7969 71.5611,286.7969 C72.1392,286.7969 72.7486,286.9531 73.2173,287.2031 C73.7017,287.4844 73.8736,287.7031 73.9673,288.1094 C74.0298,288.5156 74.0611,288.6406 74.2017,288.7656 C74.3423,288.9063 74.5767,289.0156 74.7954,289.0156 C75.0611,289.0156 75.3267,288.875 75.4986,288.6563 C75.6079,288.5 75.6392,288.3125 75.6392,287.8906 L75.6392,286.4688 C75.6392,286.0313 75.6236,285.9063 75.5298,285.75 C75.3736,285.4844 75.0923,285.3438 74.7954,285.3438 C74.4986,285.3438 74.2954,285.4375 74.0767,285.75 L73.9048,285.6719 Z " fill="#000000"/><text fill="#000000" font-family="sans-serif" font-size="12" lengthAdjust="spacing" textLength="105" x="88.9611" y="294.1543">CountryPortGraph</text><line style="stroke:#A80036;stroke-width:1.5;" x1="42.2611" x2="211.2611" y1="306" y2="306"/><text fill="#000000" font-family="sans-serif" font-size="11" lengthAdjust="spacing" textLength="116" x="47.2611" y="320.2104">-portStore: PortStore</text><text fill="#000000" font-family="sans-serif" font-size="11" lengthAdjust="spacing" textLength="159" x="47.2611" y="333.0151">-countryStore: CountryStore</text><line style="stroke:#A80036;stroke-width:1.5;" x1="42.2611" x2="211.2611" y1="339.6094" y2="339.6094"/><text fill="#000000" font-family="sans-serif" font-size="11" lengthAdjust="spacing" textLength="147" x="47.2611" y="353.8198">+privateCreatorMethods()</text><text fill="#000000" font-family="sans-serif" font-size="11" lengthAdjust="spacing" textLength="116" x="47.2611" y="366.6245">+CountryPortGraph()</text><!--MD5=[4f1f3706c1a355a8488e154afcaed5df]
class Location--><rect codeLine="19" fill="#FEFECE" filter="url(#f17gsqgk1bno8z)" height="176.0469" id="Location" style="stroke:#A80036;stroke-width:1.5;" width="121" x="1131.2653" y="198.5"/><ellipse cx="1163.8153" cy="214.5" fill="#ADD1B2" rx="11" ry="11" style="stroke:#A80036;stroke-width:1.0;"/><path d="M1166.159,210.1719 C1165.2215,209.7344 1164.6278,209.5938 1163.7528,209.5938 C1161.1278,209.5938 1159.1278,211.6719 1159.1278,214.3906 L1159.1278,215.5156 C1159.1278,218.0938 1161.2371,219.9844 1164.1278,219.9844 C1165.3465,219.9844 1166.5028,219.6875 1167.2528,219.1406 C1167.8309,218.7344 1168.159,218.2813 1168.159,217.8906 C1168.159,217.4375 1167.7684,217.0469 1167.2996,217.0469 C1167.0809,217.0469 1166.8778,217.125 1166.6903,217.3125 C1166.2371,217.7969 1166.2371,217.7969 1166.0496,217.8906 C1165.6278,218.1563 1164.9403,218.2813 1164.1746,218.2813 C1162.1278,218.2813 1160.8309,217.1875 1160.8309,215.4844 L1160.8309,214.3906 C1160.8309,212.6094 1162.0809,211.2969 1163.8153,211.2969 C1164.3934,211.2969 1165.0028,211.4531 1165.4715,211.7031 C1165.9559,211.9844 1166.1278,212.2031 1166.2215,212.6094 C1166.284,213.0156 1166.3153,213.1406 1166.4559,213.2656 C1166.5965,213.4063 1166.8309,213.5156 1167.0496,213.5156 C1167.3153,213.5156 1167.5809,213.375 1167.7528,213.1563 C1167.8621,213 1167.8934,212.8125 1167.8934,212.3906 L1167.8934,210.9688 C1167.8934,210.5313 1167.8778,210.4063 1167.784,210.25 C1167.6278,209.9844 1167.3465,209.8438 1167.0496,209.8438 C1166.7528,209.8438 1166.5496,209.9375 1166.3309,210.25 L1166.159,210.1719 Z " fill="#000000"/><text fill="#000000" font-family="sans-serif" font-size="12" lengthAdjust="spacing" textLength="50" x="1181.7153" y="218.6543">Location</text><line style="stroke:#A80036;stroke-width:1.5;" x1="1132.2653" x2="1251.2653" y1="230.5" y2="230.5"/><text fill="#000000" font-family="sans-serif" font-size="11" lengthAdjust="spacing" textLength="93" x="1137.2653" y="244.7104">-latitude: double</text><text fill="#000000" font-family="sans-serif" font-size="11" lengthAdjust="spacing" textLength="103" x="1137.2653" y="257.5151">-longitude: double</text><text fill="#000000" font-family="sans-serif" font-size="11" lengthAdjust="spacing" textLength="93" x="1137.2653" y="270.3198">-latitude: double</text><text fill="#000000" font-family="sans-serif" font-size="11" lengthAdjust="spacing" textLength="103" x="1137.2653" y="283.1245">-longitude: double</text><line style="stroke:#A80036;stroke-width:1.5;" x1="1132.2653" x2="1251.2653" y1="289.7188" y2="289.7188"/><text fill="#000000" font-family="sans-serif" font-size="11" lengthAdjust="spacing" textLength="61" x="1137.2653" y="303.9292">+toString()</text><text fill="#000000" font-family="sans-serif" font-size="11" lengthAdjust="spacing" textLength="78" x="1137.2653" y="316.7339">+equals(ship)</text><text fill="#000000" font-family="sans-serif" font-size="11" lengthAdjust="spacing" textLength="109" x="1137.2653" y="329.5386">+acessorMethods()</text><text fill="#000000" font-family="sans-serif" font-size="11" lengthAdjust="spacing" textLength="61" x="1137.2653" y="342.3433">+toString()</text><text fill="#000000" font-family="sans-serif" font-size="11" lengthAdjust="spacing" textLength="78" x="1137.2653" y="355.1479">+equals(ship)</text><text fill="#000000" font-family="sans-serif" font-size="11" lengthAdjust="spacing" textLength="109" x="1137.2653" y="367.9526">+acessorMethods()</text><!--MD5=[a0bfe97ac0a38e6e74cc1c7c7b744b71]
class Port--><rect codeLine="27" fill="#FEFECE" filter="url(#f17gsqgk1bno8z)" height="163.2422" id="Port" style="stroke:#A80036;stroke-width:1.5;" width="262" x="517.7613" y="7"/><ellipse cx="633.0113" cy="23" fill="#ADD1B2" rx="11" ry="11" style="stroke:#A80036;stroke-width:1.0;"/><path d="M635.355,18.6719 C634.4175,18.2344 633.8238,18.0938 632.9488,18.0938 C630.3238,18.0938 628.3238,20.1719 628.3238,22.8906 L628.3238,24.0156 C628.3238,26.5938 630.4331,28.4844 633.3238,28.4844 C634.5425,28.4844 635.6988,28.1875 636.4488,27.6406 C637.0269,27.2344 637.355,26.7813 637.355,26.3906 C637.355,25.9375 636.9644,25.5469 636.4956,25.5469 C636.2769,25.5469 636.0738,25.625 635.8863,25.8125 C635.4331,26.2969 635.4331,26.2969 635.2456,26.3906 C634.8238,26.6563 634.1363,26.7813 633.3706,26.7813 C631.3238,26.7813 630.0269,25.6875 630.0269,23.9844 L630.0269,22.8906 C630.0269,21.1094 631.2769,19.7969 633.0113,19.7969 C633.5894,19.7969 634.1988,19.9531 634.6675,20.2031 C635.1519,20.4844 635.3238,20.7031 635.4175,21.1094 C635.48,21.5156 635.5113,21.6406 635.6519,21.7656 C635.7925,21.9063 636.0269,22.0156 636.2456,22.0156 C636.5113,22.0156 636.7769,21.875 636.9488,21.6563 C637.0581,21.5 637.0894,21.3125 637.0894,20.8906 L637.0894,19.4688 C637.0894,19.0313 637.0738,18.9063 636.98,18.75 C636.8238,18.4844 636.5425,18.3438 636.2456,18.3438 C635.9488,18.3438 635.7456,18.4375 635.5269,18.75 L635.355,18.6719 Z " fill="#000000"/><text fill="#000000" font-family="sans-serif" font-size="12" lengthAdjust="spacing" textLength="23" x="653.5113" y="27.1543">Port</text><line style="stroke:#A80036;stroke-width:1.5;" x1="518.7613" x2="778.7613" y1="39" y2="39"/><text fill="#000000" font-family="sans-serif" font-size="11" lengthAdjust="spacing" textLength="93" x="523.7613" y="53.2104">-continent:String</text><text fill="#000000" font-family="sans-serif" font-size="11" lengthAdjust="spacing" textLength="82" x="523.7613" y="66.0151">-country:String</text><text fill="#000000" font-family="sans-serif" font-size="11" lengthAdjust="spacing" textLength="49" x="523.7613" y="78.8198">-code:int</text><text fill="#000000" font-family="sans-serif" font-size="11" lengthAdjust="spacing" textLength="94" x="523.7613" y="91.6245">-namePort:String</text><text fill="#000000" font-family="sans-serif" font-size="11" lengthAdjust="spacing" textLength="102" x="523.7613" y="104.4292">-location: Location</text><text fill="#000000" font-family="sans-serif" font-size="11" lengthAdjust="spacing" textLength="153" x="523.7613" y="117.2339">-averageCloseness:double</text><line style="stroke:#A80036;stroke-width:1.5;" x1="518.7613" x2="778.7613" y1="123.8281" y2="123.8281"/><text fill="#000000" font-family="sans-serif" font-size="11" lengthAdjust="spacing" textLength="144" x="523.7613" y="138.0386">+getAverageCloseness()</text><text fill="#000000" font-family="sans-serif" font-size="11" lengthAdjust="spacing" textLength="250" x="523.7613" y="150.8433">+setAverageCloseness(averageCloseness)</text><text fill="#000000" font-family="sans-serif" font-size="11" lengthAdjust="spacing" textLength="109" x="523.7613" y="163.6479">+acessorMethods()</text><!--MD5=[1fa23e875f7ea39406cc4f0fd95e1dab]
class CountryStore--><rect codeLine="38" fill="#FEFECE" filter="url(#f17gsqgk1bno8z)" height="86.4141" id="CountryStore" style="stroke:#A80036;stroke-width:1.5;" width="185" x="34.2611" y="152.5"/><ellipse cx="83.0111" cy="168.5" fill="#ADD1B2" rx="11" ry="11" style="stroke:#A80036;stroke-width:1.0;"/><path d="M85.3548,164.1719 C84.4173,163.7344 83.8236,163.5938 82.9486,163.5938 C80.3236,163.5938 78.3236,165.6719 78.3236,168.3906 L78.3236,169.5156 C78.3236,172.0938 80.4329,173.9844 83.3236,173.9844 C84.5423,173.9844 85.6986,173.6875 86.4486,173.1406 C87.0267,172.7344 87.3548,172.2813 87.3548,171.8906 C87.3548,171.4375 86.9642,171.0469 86.4954,171.0469 C86.2767,171.0469 86.0736,171.125 85.8861,171.3125 C85.4329,171.7969 85.4329,171.7969 85.2454,171.8906 C84.8236,172.1563 84.1361,172.2813 83.3704,172.2813 C81.3236,172.2813 80.0267,171.1875 80.0267,169.4844 L80.0267,168.3906 C80.0267,166.6094 81.2767,165.2969 83.0111,165.2969 C83.5892,165.2969 84.1986,165.4531 84.6673,165.7031 C85.1517,165.9844 85.3236,166.2031 85.4173,166.6094 C85.4798,167.0156 85.5111,167.1406 85.6517,167.2656 C85.7923,167.4063 86.0267,167.5156 86.2454,167.5156 C86.5111,167.5156 86.7767,167.375 86.9486,167.1563 C87.0579,167 87.0892,166.8125 87.0892,166.3906 L87.0892,164.9688 C87.0892,164.5313 87.0736,164.4063 86.9798,164.25 C86.8236,163.9844 86.5423,163.8438 86.2454,163.8438 C85.9486,163.8438 85.7454,163.9375 85.5267,164.25 L85.3548,164.1719 Z " fill="#000000"/><text fill="#000000" font-family="sans-serif" font-size="12" lengthAdjust="spacing" textLength="79" x="103.5111" y="172.6543">CountryStore</text><line style="stroke:#A80036;stroke-width:1.5;" x1="35.2611" x2="218.2611" y1="184.5" y2="184.5"/><text fill="#000000" font-family="sans-serif" font-size="11" lengthAdjust="spacing" textLength="161" x="40.2611" y="198.7104">-countryStore:List&lt;Country&gt;</text><line style="stroke:#A80036;stroke-width:1.5;" x1="35.2611" x2="218.2611" y1="205.3047" y2="205.3047"/><text fill="#000000" font-family="sans-serif" font-size="11" lengthAdjust="spacing" textLength="173" x="40.2611" y="219.5151">+getCountriesFromDatabase()</text><text fill="#000000" font-family="sans-serif" font-size="11" lengthAdjust="spacing" textLength="111" x="40.2611" y="232.3198">+getCountryStore()</text><!--MD5=[f70d2b281f9eefc1b49373c49159755a]
class PortStore--><rect codeLine="43" fill="#FEFECE" filter="url(#f17gsqgk1bno8z)" height="86.4141" id="PortStore" style="stroke:#A80036;stroke-width:1.5;" width="158" x="47.7611" y="31.5"/><ellipse cx="94.5111" cy="47.5" fill="#ADD1B2" rx="11" ry="11" style="stroke:#A80036;stroke-width:1.0;"/><path d="M96.8548,43.1719 C95.9173,42.7344 95.3236,42.5938 94.4486,42.5938 C91.8236,42.5938 89.8236,44.6719 89.8236,47.3906 L89.8236,48.5156 C89.8236,51.0938 91.9329,52.9844 94.8236,52.9844 C96.0423,52.9844 97.1986,52.6875 97.9486,52.1406 C98.5267,51.7344 98.8548,51.2813 98.8548,50.8906 C98.8548,50.4375 98.4642,50.0469 97.9954,50.0469 C97.7767,50.0469 97.5736,50.125 97.3861,50.3125 C96.9329,50.7969 96.9329,50.7969 96.7454,50.8906 C96.3236,51.1563 95.6361,51.2813 94.8704,51.2813 C92.8236,51.2813 91.5267,50.1875 91.5267,48.4844 L91.5267,47.3906 C91.5267,45.6094 92.7767,44.2969 94.5111,44.2969 C95.0892,44.2969 95.6986,44.4531 96.1673,44.7031 C96.6517,44.9844 96.8236,45.2031 96.9173,45.6094 C96.9798,46.0156 97.0111,46.1406 97.1517,46.2656 C97.2923,46.4063 97.5267,46.5156 97.7454,46.5156 C98.0111,46.5156 98.2767,46.375 98.4486,46.1563 C98.5579,46 98.5892,45.8125 98.5892,45.3906 L98.5892,43.9688 C98.5892,43.5313 98.5736,43.4063 98.4798,43.25 C98.3236,42.9844 98.0423,42.8438 97.7454,42.8438 C97.4486,42.8438 97.2454,42.9375 97.0267,43.25 L96.8548,43.1719 Z " fill="#000000"/><text fill="#000000" font-family="sans-serif" font-size="12" lengthAdjust="spacing" textLength="56" x="115.0111" y="51.6543">PortStore</text><line style="stroke:#A80036;stroke-width:1.5;" x1="48.7611" x2="204.7611" y1="63.5" y2="63.5"/><text fill="#000000" font-family="sans-serif" font-size="11" lengthAdjust="spacing" textLength="105" x="53.7611" y="77.7104">-PortList:List&lt;Port&gt;</text><line style="stroke:#A80036;stroke-width:1.5;" x1="48.7611" x2="204.7611" y1="84.3047" y2="84.3047"/><text fill="#000000" font-family="sans-serif" font-size="11" lengthAdjust="spacing" textLength="146" x="53.7611" y="98.5151">+getPortsFromDatabase()</text><text fill="#000000" font-family="sans-serif" font-size="11" lengthAdjust="spacing" textLength="57" x="53.7611" y="111.3198">+getPort()</text><!--MD5=[deb4e1f6eb1e3c1256fdb830f96abfbb]
class Country--><rect codeLine="48" fill="#FEFECE" filter="url(#f17gsqgk1bno8z)" height="201.6563" id="Country" style="stroke:#A80036;stroke-width:1.5;" width="627" x="335.2613" y="205.5"/><ellipse cx="621.5113" cy="221.5" fill="#ADD1B2" rx="11" ry="11" style="stroke:#A80036;stroke-width:1.0;"/><path d="M623.855,217.1719 C622.9175,216.7344 622.3238,216.5938 621.4488,216.5938 C618.8238,216.5938 616.8238,218.6719 616.8238,221.3906 L616.8238,222.5156 C616.8238,225.0938 618.9331,226.9844 621.8238,226.9844 C623.0425,226.9844 624.1988,226.6875 624.9488,226.1406 C625.5269,225.7344 625.855,225.2813 625.855,224.8906 C625.855,224.4375 625.4644,224.0469 624.9956,224.0469 C624.7769,224.0469 624.5738,224.125 624.3863,224.3125 C623.9331,224.7969 623.9331,224.7969 623.7456,224.8906 C623.3238,225.1563 622.6363,225.2813 621.8706,225.2813 C619.8238,225.2813 618.5269,224.1875 618.5269,222.4844 L618.5269,221.3906 C618.5269,219.6094 619.7769,218.2969 621.5113,218.2969 C622.0894,218.2969 622.6988,218.4531 623.1675,218.7031 C623.6519,218.9844 623.8238,219.2031 623.9175,219.6094 C623.98,220.0156 624.0113,220.1406 624.1519,220.2656 C624.2925,220.4063 624.5269,220.5156 624.7456,220.5156 C625.0113,220.5156 625.2769,220.375 625.4488,220.1563 C625.5581,220 625.5894,219.8125 625.5894,219.3906 L625.5894,217.9688 C625.5894,217.5313 625.5738,217.4063 625.48,217.25 C625.3238,216.9844 625.0425,216.8438 624.7456,216.8438 C624.4488,216.8438 624.2456,216.9375 624.0269,217.25 L623.855,217.1719 Z " fill="#000000"/><text fill="#000000" font-family="sans-serif" font-size="12" lengthAdjust="spacing" textLength="46" x="642.0113" y="225.6543">Country</text><line style="stroke:#A80036;stroke-width:1.5;" x1="336.2613" x2="961.2613" y1="237.5" y2="237.5"/><text fill="#000000" font-family="sans-serif" font-size="11" lengthAdjust="spacing" textLength="115" x="341.2613" y="251.7104">-continent:Continent</text><text fill="#000000" font-family="sans-serif" font-size="11" lengthAdjust="spacing" textLength="142" x="341.2613" y="264.5151">-capitalLocation: Location</text><text fill="#000000" font-family="sans-serif" font-size="11" lengthAdjust="spacing" textLength="73" x="341.2613" y="277.3198">-name:String</text><text fill="#000000" font-family="sans-serif" font-size="11" lengthAdjust="spacing" textLength="106" x="341.2613" y="290.1245">-alpha2code:String</text><text fill="#000000" font-family="sans-serif" font-size="11" lengthAdjust="spacing" textLength="106" x="341.2613" y="302.9292">-alpha3code:String</text><text fill="#000000" font-family="sans-serif" font-size="11" lengthAdjust="spacing" textLength="105" x="341.2613" y="315.7339">-population:double</text><text fill="#000000" font-family="sans-serif" font-size="11" lengthAdjust="spacing" textLength="77" x="341.2613" y="328.5386">-capital:String</text><text fill="#000000" font-family="sans-serif" font-size="11" lengthAdjust="spacing" textLength="153" x="341.2613" y="341.3433">-averageCloseness:double</text><line style="stroke:#A80036;stroke-width:1.5;" x1="336.2613" x2="961.2613" y1="347.9375" y2="347.9375"/><text fill="#000000" font-family="sans-serif" font-size="11" lengthAdjust="spacing" textLength="615" x="341.2613" y="362.1479">+Country(continent, capitalLocation, name, alpha2code, alpha3code, population, capital, averageCloseness)</text><text fill="#000000" font-family="sans-serif" font-size="11" lengthAdjust="spacing" textLength="61" x="341.2613" y="374.9526">+toString()</text><text fill="#000000" font-family="sans-serif" font-size="11" lengthAdjust="spacing" textLength="146" x="341.2613" y="387.7573">+setAverageCloseness();</text><text fill="#000000" font-family="sans-serif" font-size="11" lengthAdjust="spacing" textLength="147" x="341.2613" y="400.562">+getAverageCloseness();</text><!--MD5=[ddf964ba65dd59a9c60a1e1cd8efc8b4]
class GraphLocation--><rect codeLine="64" fill="#FEFECE" filter="url(#f17gsqgk1bno8z)" height="112.0234" id="GraphLocation" style="stroke:#A80036;stroke-width:1.5;" width="227" x="1078.2653" y="32.5"/><ellipse cx="1143.5153" cy="48.5" fill="#B4A7E5" rx="11" ry="11" style="stroke:#A80036;stroke-width:1.0;"/><path d="M1144.4684,45.2813 L1146.1871,45.2813 C1146.5778,45.2813 1146.7653,45.25 1146.8903,45.1719 C1147.1559,45.0156 1147.2965,44.7344 1147.2965,44.4375 C1147.2965,44.1719 1147.1871,43.9063 1146.9528,43.7344 C1146.7809,43.625 1146.6403,43.5938 1146.1871,43.5938 L1141.0465,43.5938 C1140.609,43.5938 1140.484,43.6094 1140.3278,43.7031 C1140.0778,43.8594 1139.9215,44.1563 1139.9215,44.4375 C1139.9215,44.7188 1140.0621,44.9688 1140.2809,45.1406 C1140.4371,45.25 1140.6246,45.2813 1141.0465,45.2813 L1142.7653,45.2813 L1142.7653,51.7969 L1141.0465,51.7969 C1140.609,51.7969 1140.484,51.8125 1140.3278,51.9219 C1140.0778,52.0781 1139.9215,52.3594 1139.9215,52.6563 C1139.9215,52.9063 1140.0621,53.1719 1140.2809,53.3281 C1140.4371,53.4531 1140.6403,53.5 1141.0465,53.5 L1146.1871,53.5 C1146.9371,53.5 1147.2965,53.2188 1147.2965,52.6563 C1147.2965,52.375 1147.1871,52.125 1146.9528,51.9531 C1146.7809,51.8281 1146.6403,51.7969 1146.1871,51.7969 L1144.4684,51.7969 L1144.4684,45.2813 Z " fill="#000000"/><text fill="#000000" font-family="sans-serif" font-size="12" font-style="italic" lengthAdjust="spacing" textLength="88" x="1164.0153" y="52.6543">GraphLocation</text><line style="stroke:#A80036;stroke-width:1.5;" x1="1079.2653" x2="1304.2653" y1="64.5" y2="64.5"/><line style="stroke:#A80036;stroke-width:1.5;" x1="1079.2653" x2="1304.2653" y1="72.5" y2="72.5"/><text fill="#000000" font-family="sans-serif" font-size="11" lengthAdjust="spacing" textLength="128" x="1084.2653" y="86.7104">Location getLocation();</text><text fill="#000000" font-family="sans-serif" font-size="11" lengthAdjust="spacing" textLength="101" x="1084.2653" y="99.5151">String getName();</text><text fill="#000000" font-family="sans-serif" font-size="11" lengthAdjust="spacing" textLength="134" x="1084.2653" y="112.3198">Double getCloseness();</text><text fill="#000000" font-family="sans-serif" font-size="11" lengthAdjust="spacing" textLength="215" x="1084.2653" y="125.1245">void setAverageCloseness(double v);</text><text fill="#000000" font-family="sans-serif" font-size="11" lengthAdjust="spacing" textLength="144" x="1084.2653" y="137.9292">Continent getContinent();</text><!--MD5=[4df1422b8629e0f4fa74e686c9c9ab0e]
link CountryPortGraph to Country--><path codeLine="72" d="M212.6413,323.7301 C241.9833,323.6215 275.0713,323.2899 305.2613,322.5 C313.3923,322.2873 321.6313,322.0517 329.9423,321.7962 " fill="none" id="CountryPortGraph-to-Country" style="stroke:#A80036;stroke-width:1.0;"/><polygon fill="#A80036" points="335.1273,321.6346,326.0071,317.9168,330.1297,321.7903,326.2562,325.9129,335.1273,321.6346" style="stroke:#A80036;stroke-width:1.0;"/><text fill="#000000" font-family="sans-serif" font-size="13" lengthAdjust="spacing" textLength="54" x="250.2613" y="318.5669">contains</text><text fill="#000000" font-family="sans-serif" font-size="13" lengthAdjust="spacing" textLength="8" x="220.3653" y="336.4576">1</text><text fill="#000000" font-family="sans-serif" font-size="13" lengthAdjust="spacing" textLength="8" x="319.6827" y="334.2376">1</text><!--MD5=[f72f922769b6338dcfe55bfdc0636e7d]
link CountryPortGraph to Port--><path codeLine="73" d="M212.5453,305.729 C244.7273,295.483 279.7343,279.657 305.2613,255.5 C328.9583,233.074 310.9433,210.252 335.2613,188.5 C384.1973,144.728 452.4143,120.1 512.6313,106.251 " fill="none" id="CountryPortGraph-to-Port" style="stroke:#A80036;stroke-width:1.0;"/><polygon fill="#A80036" points="517.6903,105.108,508.0302,103.1888,512.8131,106.2094,509.7925,110.9923,517.6903,105.108" style="stroke:#A80036;stroke-width:1.0;"/><text fill="#000000" font-family="sans-serif" font-size="13" lengthAdjust="spacing" textLength="54" x="250.2613" y="251.5669">contains</text><text fill="#000000" font-family="sans-serif" font-size="13" lengthAdjust="spacing" textLength="8" x="220.2611" y="316.9095">1</text><text fill="#000000" font-family="sans-serif" font-size="13" lengthAdjust="spacing" textLength="8" x="501.8815" y="118.5655">1</text><!--MD5=[9f97b6ad89d1aece2562b761589d6d34]
link Port to GraphLocation--><path codeLine="74" d="M780.0323,88.5 C869.2393,88.5 986.5703,88.5 1072.9753,88.5 " fill="none" id="Port-to-GraphLocation" style="stroke:#A80036;stroke-width:1.0;"/><polygon fill="#A80036" points="1078.1053,88.5,1069.1053,84.5,1073.1053,88.5,1069.1053,92.5,1078.1053,88.5" style="stroke:#A80036;stroke-width:1.0;"/><text fill="#000000" font-family="sans-serif" font-size="13" lengthAdjust="spacing" textLength="54" x="993.2613" y="84.5669">contains</text><text fill="#000000" font-family="sans-serif" font-size="13" lengthAdjust="spacing" textLength="8" x="787.8526" y="100.9973">1</text><text fill="#000000" font-family="sans-serif" font-size="13" lengthAdjust="spacing" textLength="8" x="1062.2" y="101.0745">1</text><!--MD5=[8d70ee99540c41b6b173287b4c5b2064]
link Port to Location--><path codeLine="75" d="M779.9473,127.111 C836.4093,144.64 903.0273,166.378 962.2613,188.5 C1018.5553,209.525 1081.1953,236.665 1126.6353,257.051 " fill="none" id="Port-to-Location" style="stroke:#A80036;stroke-width:1.0;"/><polygon fill="#A80036" points="1131.2553,259.127,1124.6954,251.7806,1126.6973,257.0714,1121.4065,259.0733,1131.2553,259.127" style="stroke:#A80036;stroke-width:1.0;"/><text fill="#000000" font-family="sans-serif" font-size="13" lengthAdjust="spacing" textLength="23" x="1008.7613" y="196.5669">has</text><text fill="#000000" font-family="sans-serif" font-size="13" lengthAdjust="spacing" textLength="8" x="787.7627" y="141.8405">1</text><text fill="#000000" font-family="sans-serif" font-size="13" lengthAdjust="spacing" textLength="8" x="1115.3931" y="268.7771">1</text><!--MD5=[618153f74b0244bcbb7b26a6b351a812]
link Country to Location--><path codeLine="76" d="M962.5043,294.938 C1024.5553,292.644 1083.5753,290.463 1126.0453,288.892 " fill="none" id="Country-to-Location" style="stroke:#A80036;stroke-width:1.0;"/><polygon fill="#A80036" points="1131.1453,288.704,1122.0029,285.041,1126.1487,288.8897,1122.3,293.0355,1131.1453,288.704" style="stroke:#A80036;stroke-width:1.0;"/><text fill="#000000" font-family="sans-serif" font-size="13" lengthAdjust="spacing" textLength="23" x="1008.7613" y="287.5669">has</text><text fill="#000000" font-family="sans-serif" font-size="13" lengthAdjust="spacing" textLength="8" x="969.9514" y="306.9153">1</text><text fill="#000000" font-family="sans-serif" font-size="13" lengthAdjust="spacing" textLength="8" x="1115.2697" y="301.9588">1</text><!--MD5=[dc32b5723b26233b0eff7f618d378468]
link PortStore to CountryPortGraph--><path codeLine="77" d="M47.6008,114.8 C35.3033,125.266 24.8334,137.937 19.2611,153 C6,188.848 6,203.152 19.2611,239 C23.549,250.591 30.5389,260.963 38.9546,270.131 " fill="none" id="PortStore-to-CountryPortGraph" style="stroke:#A80036;stroke-width:1.0;"/><polygon fill="#A80036" points="42.6448,273.987,39.3118,264.7193,39.1876,270.3747,33.5322,270.2506,42.6448,273.987" style="stroke:#A80036;stroke-width:1.0;"/><!--MD5=[f0135757706e789791f4f136fa82960e]
link CountryStore to CountryPortGraph--><path codeLine="78" d="M126.7613,238.736 C126.7613,248.746 126.7613,258.756 126.7613,268.766 " fill="none" id="CountryStore-to-CountryPortGraph" style="stroke:#A80036;stroke-width:1.0;"/><polygon fill="#A80036" points="126.7613,274,130.7613,265,126.7613,269,122.7613,265,126.7613,274" style="stroke:#A80036;stroke-width:1.0;"/><!--MD5=[c8440d88291d09ff9b1204d56899ac6f]
link PortStore to Port--><path codeLine="79" d="M205.8913,76.604 C286.8773,78.784 415.0283,82.234 512.5133,84.859 " fill="none" id="PortStore-to-Port" style="stroke:#A80036;stroke-width:1.0;"/><polygon fill="#A80036" points="517.7163,84.999,508.8282,80.7561,512.7181,84.8633,508.611,88.7532,517.7163,84.999" style="stroke:#A80036;stroke-width:1.0;"/><text fill="#000000" font-family="sans-serif" font-size="13" lengthAdjust="spacing" textLength="40" x="257.2613" y="73.5669">stores</text><text fill="#000000" font-family="sans-serif" font-size="13" lengthAdjust="spacing" textLength="8" x="213.8146" y="89.5729">1</text><text fill="#000000" font-family="sans-serif" font-size="13" lengthAdjust="spacing" textLength="27" x="482.8115" y="97.2816">1...*</text><!--MD5=[f967797988c016cbdc52ea2558741842]
link CountryStore to Country--><path codeLine="80" d="M219.5293,215.089 C251.7503,221.967 290.0113,230.134 330.2033,238.714 " fill="none" id="CountryStore-to-Country" style="stroke:#A80036;stroke-width:1.0;"/><polygon fill="#A80036" points="335.1143,239.762,327.1481,233.9706,330.2245,238.7178,325.4773,241.7942,335.1143,239.762" style="stroke:#A80036;stroke-width:1.0;"/><text fill="#000000" font-family="sans-serif" font-size="13" lengthAdjust="spacing" textLength="40" x="257.2613" y="217.5669">stores</text><text fill="#000000" font-family="sans-serif" font-size="13" lengthAdjust="spacing" textLength="8" x="227.2405" y="229.3033">1</text><text fill="#000000" font-family="sans-serif" font-size="13" lengthAdjust="spacing" textLength="27" x="300.4468" y="250.4461">1...*</text><!--MD5=[721fcb80f5fb2ebaa922d157a01eb6ff]
@startuml
skinparam classAttributeIconSize 0
left to right direction

class CountryPortGraph{
-portStore: PortStore
-countryStore: CountryStore
+privateCreatorMethods()
+CountryPortGraph()
}

class Location{
- latitude: double
- longitude: double
+toString()
+equals(ship)
+acessorMethods()
}

class Location{
- latitude: double
- longitude: double
+toString()
+equals(ship)
+acessorMethods()
}

class "Port"{
-continent:String
-country:String
-code:int
-namePort:String
-location: Location
-averageCloseness:double 
+getAverageCloseness()
+setAverageCloseness(averageCloseness)
+acessorMethods()
}
class CountryStore{
-countryStore:List<Country>
+getCountriesFromDatabase()
+getCountryStore()
}
class PortStore{
-PortList:List<Port>
+getPortsFromDatabase()
+getPort()
}
class Country {
-continent:Continent 
-capitalLocation: Location 
-name:String 
-alpha2code:String 
-alpha3code:String 
-population:double 
-capital:String 
-averageCloseness:double 
+Country(continent, capitalLocation, name, alpha2code, alpha3code, population, capital, averageCloseness)
+toString()
+setAverageCloseness();
+getAverageCloseness();
}


interface GraphLocation {
Location getLocation();
String getName();
Double getCloseness();
void setAverageCloseness(double v);
Continent getContinent();
}

CountryPortGraph "1" - -> "1" Country:contains
CountryPortGraph "1" - -> "1" Port:contains
Port "1" - -> "1" GraphLocation: contains
Port "1" - -> "1" Location : has 
Country "1" - -> "1" Location : has
PortStore -> CountryPortGraph 
CountryStore -> CountryPortGraph
PortStore "1" - -> "1...*" Port : stores
CountryStore "1" - -> "1...*" Country : stores
@enduml

PlantUML version 1.2021.17beta4(Unknown compile time)
(GPL source distribution)
Java Runtime: Java(TM) SE Runtime Environment
JVM: Java HotSpot(TM) 64-Bit Server VM
Default Encoding: UTF-8
Language: en
Country: US
--></g></svg>