<?xml version="1.0" encoding="UTF-8" standalone="no"?><svg xmlns="http://www.w3.org/2000/svg" xmlns:xlink="http://www.w3.org/1999/xlink" contentScriptType="application/ecmascript" contentStyleType="text/css" height="642px" preserveAspectRatio="none" style="width:1456px;height:642px;background:#FFFFFF;" version="1.1" viewBox="0 0 1456 642" width="1456px" zoomAndPan="magnify"><defs><filter height="300%" id="f1q79w2sokj8zh" width="300%" x="-1" y="-1"><feGaussianBlur result="blurOut" stdDeviation="2.0"/><feColorMatrix in="blurOut" result="blurOut2" type="matrix" values="0 0 0 0 0 0 0 0 0 0 0 0 0 0 0 0 0 0 .4 0"/><feOffset dx="4.0" dy="4.0" in="blurOut2" result="blurOut3"/><feBlend in="SourceGraphic" in2="blurOut3" mode="normal"/></filter></defs><g><rect fill="#FFFFFF" filter="url(#f1q79w2sokj8zh)" height="450.4609" style="stroke:#A80036;stroke-width:1.0;" width="10" x="57" y="98.2969"/><rect fill="#FFFFFF" filter="url(#f1q79w2sokj8zh)" height="29.1328" style="stroke:#A80036;stroke-width:1.0;" width="10" x="530" y="119.4297"/><rect fill="#FFFFFF" filter="url(#f1q79w2sokj8zh)" height="29.1328" style="stroke:#A80036;stroke-width:1.0;" width="10" x="530" y="510.625"/><rect fill="#FFFFFF" filter="url(#f1q79w2sokj8zh)" height="325.9297" style="stroke:#A80036;stroke-width:1.0;" width="10" x="838" y="148.5625"/><rect fill="#FFFFFF" filter="url(#f1q79w2sokj8zh)" height="28" style="stroke:#A80036;stroke-width:1.0;" width="10" x="843" y="302.2266"/><rect fill="#FFFFFF" filter="url(#f1q79w2sokj8zh)" height="28" style="stroke:#A80036;stroke-width:1.0;" width="10" x="843" y="374.3594"/><rect fill="#FFFFFF" filter="url(#f1q79w2sokj8zh)" height="28" style="stroke:#A80036;stroke-width:1.0;" width="10" x="843" y="446.4922"/><rect fill="#FFFFFF" filter="url(#f1q79w2sokj8zh)" height="58.2656" style="stroke:#A80036;stroke-width:1.0;" width="10" x="1277" y="148.5625"/><rect fill="#FFFFFF" filter="url(#f1q79w2sokj8zh)" height="58.2656" style="stroke:#A80036;stroke-width:1.0;" width="10" x="1394" y="206.8281"/><line style="stroke:#A80036;stroke-width:1.0;stroke-dasharray:5.0,5.0;" x1="62" x2="62" y1="88.2969" y2="557.7578"/><line style="stroke:#A80036;stroke-width:1.0;stroke-dasharray:5.0,5.0;" x1="534.5" x2="534.5" y1="88.2969" y2="557.7578"/><line style="stroke:#A80036;stroke-width:1.0;stroke-dasharray:5.0,5.0;" x1="842.5" x2="842.5" y1="88.2969" y2="557.7578"/><line style="stroke:#A80036;stroke-width:1.0;stroke-dasharray:5.0,5.0;" x1="1282" x2="1282" y1="88.2969" y2="557.7578"/><line style="stroke:#A80036;stroke-width:1.0;stroke-dasharray:5.0,5.0;" x1="1399" x2="1399" y1="88.2969" y2="557.7578"/><text fill="#000000" font-family="sans-serif" font-size="14" lengthAdjust="spacing" textLength="108" x="5" y="84.9951">TrafficManager</text><ellipse cx="62" cy="15" fill="#FEFECE" filter="url(#f1q79w2sokj8zh)" rx="8" ry="8" style="stroke:#A80036;stroke-width:2.0;"/><path d="M62,23 L62,50 M49,31 L75,31 M62,50 L49,65 M62,50 L75,65 " fill="none" filter="url(#f1q79w2sokj8zh)" style="stroke:#A80036;stroke-width:2.0;"/><text fill="#000000" font-family="sans-serif" font-size="14" lengthAdjust="spacing" textLength="108" x="5" y="569.7529">TrafficManager</text><ellipse cx="62" cy="583.0547" fill="#FEFECE" filter="url(#f1q79w2sokj8zh)" rx="8" ry="8" style="stroke:#A80036;stroke-width:2.0;"/><path d="M62,591.0547 L62,618.0547 M49,599.0547 L75,599.0547 M62,618.0547 L49,633.0547 M62,618.0547 L75,633.0547 " fill="none" filter="url(#f1q79w2sokj8zh)" style="stroke:#A80036;stroke-width:2.0;"/><rect fill="#FEFECE" filter="url(#f1q79w2sokj8zh)" height="30.2969" style="stroke:#A80036;stroke-width:1.5;" width="183" x="441.5" y="53"/><text fill="#000000" font-family="sans-serif" font-size="14" lengthAdjust="spacing" textLength="169" x="448.5" y="72.9951">:CountryPortGraphTest</text><rect fill="#FEFECE" filter="url(#f1q79w2sokj8zh)" height="30.2969" style="stroke:#A80036;stroke-width:1.5;" width="183" x="441.5" y="556.7578"/><text fill="#000000" font-family="sans-serif" font-size="14" lengthAdjust="spacing" textLength="169" x="448.5" y="576.7529">:CountryPortGraphTest</text><rect fill="#FEFECE" filter="url(#f1q79w2sokj8zh)" height="30.2969" style="stroke:#A80036;stroke-width:1.5;" width="151" x="765.5" y="53"/><text fill="#000000" font-family="sans-serif" font-size="14" lengthAdjust="spacing" textLength="137" x="772.5" y="72.9951">:CountryPortGraph</text><rect fill="#FEFECE" filter="url(#f1q79w2sokj8zh)" height="30.2969" style="stroke:#A80036;stroke-width:1.5;" width="151" x="765.5" y="556.7578"/><text fill="#000000" font-family="sans-serif" font-size="14" lengthAdjust="spacing" textLength="137" x="772.5" y="576.7529">:CountryPortGraph</text><rect fill="#FEFECE" filter="url(#f1q79w2sokj8zh)" height="30.2969" style="stroke:#A80036;stroke-width:1.5;" width="116" x="1222" y="53"/><text fill="#000000" font-family="sans-serif" font-size="14" lengthAdjust="spacing" textLength="102" x="1229" y="72.9951">:CountryStore</text><rect fill="#FEFECE" filter="url(#f1q79w2sokj8zh)" height="30.2969" style="stroke:#A80036;stroke-width:1.5;" width="116" x="1222" y="556.7578"/><text fill="#000000" font-family="sans-serif" font-size="14" lengthAdjust="spacing" textLength="102" x="1229" y="576.7529">:CountryStore</text><rect fill="#FEFECE" filter="url(#f1q79w2sokj8zh)" height="30.2969" style="stroke:#A80036;stroke-width:1.5;" width="90" x="1352" y="53"/><text fill="#000000" font-family="sans-serif" font-size="14" lengthAdjust="spacing" textLength="76" x="1359" y="72.9951">:PortStore</text><rect fill="#FEFECE" filter="url(#f1q79w2sokj8zh)" height="30.2969" style="stroke:#A80036;stroke-width:1.5;" width="90" x="1352" y="556.7578"/><text fill="#000000" font-family="sans-serif" font-size="14" lengthAdjust="spacing" textLength="76" x="1359" y="576.7529">:PortStore</text><rect fill="#FFFFFF" filter="url(#f1q79w2sokj8zh)" height="450.4609" style="stroke:#A80036;stroke-width:1.0;" width="10" x="57" y="98.2969"/><rect fill="#FFFFFF" filter="url(#f1q79w2sokj8zh)" height="29.1328" style="stroke:#A80036;stroke-width:1.0;" width="10" x="530" y="119.4297"/><rect fill="#FFFFFF" filter="url(#f1q79w2sokj8zh)" height="29.1328" style="stroke:#A80036;stroke-width:1.0;" width="10" x="530" y="510.625"/><rect fill="#FFFFFF" filter="url(#f1q79w2sokj8zh)" height="325.9297" style="stroke:#A80036;stroke-width:1.0;" width="10" x="838" y="148.5625"/><rect fill="#FFFFFF" filter="url(#f1q79w2sokj8zh)" height="28" style="stroke:#A80036;stroke-width:1.0;" width="10" x="843" y="302.2266"/><rect fill="#FFFFFF" filter="url(#f1q79w2sokj8zh)" height="28" style="stroke:#A80036;stroke-width:1.0;" width="10" x="843" y="374.3594"/><rect fill="#FFFFFF" filter="url(#f1q79w2sokj8zh)" height="28" style="stroke:#A80036;stroke-width:1.0;" width="10" x="843" y="446.4922"/><rect fill="#FFFFFF" filter="url(#f1q79w2sokj8zh)" height="58.2656" style="stroke:#A80036;stroke-width:1.0;" width="10" x="1277" y="148.5625"/><rect fill="#FFFFFF" filter="url(#f1q79w2sokj8zh)" height="58.2656" style="stroke:#A80036;stroke-width:1.0;" width="10" x="1394" y="206.8281"/><polygon fill="#A80036" points="518,115.4297,528,119.4297,518,123.4297,522,119.4297" style="stroke:#A80036;stroke-width:1.0;"/><line style="stroke:#A80036;stroke-width:1.0;" x1="67" x2="524" y1="119.4297" y2="119.4297"/><text fill="#000000" font-family="sans-serif" font-size="13" font-weight="bold" lengthAdjust="spacing" textLength="9" x="74" y="114.3638">1</text><text fill="#000000" font-family="sans-serif" font-size="13" lengthAdjust="spacing" textLength="431" x="87" y="114.3638">chooses to create the graph with the n amount of port connections</text><polygon fill="#A80036" points="826,144.5625,836,148.5625,826,152.5625,830,148.5625" style="stroke:#A80036;stroke-width:1.0;"/><line style="stroke:#A80036;stroke-width:1.0;" x1="535" x2="832" y1="148.5625" y2="148.5625"/><text fill="#000000" font-family="sans-serif" font-size="13" font-weight="bold" lengthAdjust="spacing" textLength="9" x="542" y="143.4966">2</text><text fill="#000000" font-family="sans-serif" font-size="13" lengthAdjust="spacing" textLength="266" x="555" y="143.4966">createGraphWithPortsAndCountries(int n)</text><polygon fill="#A80036" points="1265,173.6953,1275,177.6953,1265,181.6953,1269,177.6953" style="stroke:#A80036;stroke-width:1.0;"/><line style="stroke:#A80036;stroke-width:1.0;" x1="848" x2="1271" y1="177.6953" y2="177.6953"/><text fill="#000000" font-family="sans-serif" font-size="13" font-weight="bold" lengthAdjust="spacing" textLength="8" x="855" y="172.6294">3</text><text fill="#000000" font-family="sans-serif" font-size="13" lengthAdjust="spacing" textLength="187" x="867" y="172.6294">getCountriesFromDatabase()</text><polygon fill="#A80036" points="1270,202.8281,1280,206.8281,1270,210.8281,1274,206.8281" style="stroke:#A80036;stroke-width:1.0;"/><line style="stroke:#A80036;stroke-width:1.0;" x1="848" x2="1276" y1="206.8281" y2="206.8281"/><text fill="#000000" font-family="sans-serif" font-size="13" font-weight="bold" lengthAdjust="spacing" textLength="9" x="855" y="201.7622">4</text><text fill="#000000" font-family="sans-serif" font-size="13" lengthAdjust="spacing" textLength="116" x="868" y="201.7622">getCountryStore()</text><polygon fill="#A80036" points="1382,231.9609,1392,235.9609,1382,239.9609,1386,235.9609" style="stroke:#A80036;stroke-width:1.0;"/><line style="stroke:#A80036;stroke-width:1.0;" x1="848" x2="1388" y1="235.9609" y2="235.9609"/><text fill="#000000" font-family="sans-serif" font-size="13" font-weight="bold" lengthAdjust="spacing" textLength="9" x="855" y="230.895">5</text><text fill="#000000" font-family="sans-serif" font-size="13" lengthAdjust="spacing" textLength="159" x="868" y="230.895">getPortsFromDatabase()</text><polygon fill="#A80036" points="1387,261.0938,1397,265.0938,1387,269.0938,1391,265.0938" style="stroke:#A80036;stroke-width:1.0;"/><line style="stroke:#A80036;stroke-width:1.0;" x1="848" x2="1393" y1="265.0938" y2="265.0938"/><text fill="#000000" font-family="sans-serif" font-size="13" font-weight="bold" lengthAdjust="spacing" textLength="9" x="855" y="260.0278">6</text><text fill="#000000" font-family="sans-serif" font-size="13" lengthAdjust="spacing" textLength="91" x="868" y="260.0278">getPortStore()</text><line style="stroke:#A80036;stroke-width:1.0;" x1="853" x2="895" y1="294.2266" y2="294.2266"/><line style="stroke:#A80036;stroke-width:1.0;" x1="895" x2="895" y1="294.2266" y2="307.2266"/><line style="stroke:#A80036;stroke-width:1.0;" x1="854" x2="895" y1="307.2266" y2="307.2266"/><polygon fill="#A80036" points="864,303.2266,854,307.2266,864,311.2266,860,307.2266" style="stroke:#A80036;stroke-width:1.0;"/><text fill="#000000" font-family="sans-serif" font-size="13" font-weight="bold" lengthAdjust="spacing" textLength="9" x="860" y="289.1606">7</text><text fill="#000000" font-family="sans-serif" font-size="13" lengthAdjust="spacing" textLength="207" x="873" y="289.1606">makeBorderEdges(Graph graph)</text><line style="stroke:#A80036;stroke-width:1.0;" x1="853" x2="895" y1="366.3594" y2="366.3594"/><line style="stroke:#A80036;stroke-width:1.0;" x1="895" x2="895" y1="366.3594" y2="379.3594"/><line style="stroke:#A80036;stroke-width:1.0;" x1="854" x2="895" y1="379.3594" y2="379.3594"/><polygon fill="#A80036" points="864,375.3594,854,379.3594,864,383.3594,860,379.3594" style="stroke:#A80036;stroke-width:1.0;"/><text fill="#000000" font-family="sans-serif" font-size="13" font-weight="bold" lengthAdjust="spacing" textLength="9" x="860" y="361.2935">8</text><text fill="#000000" font-family="sans-serif" font-size="13" lengthAdjust="spacing" textLength="296" x="873" y="361.2935">makeSameCountryPortDistance(Graph graph)</text><line style="stroke:#A80036;stroke-width:1.0;" x1="853" x2="895" y1="438.4922" y2="438.4922"/><line style="stroke:#A80036;stroke-width:1.0;" x1="895" x2="895" y1="438.4922" y2="451.4922"/><line style="stroke:#A80036;stroke-width:1.0;" x1="854" x2="895" y1="451.4922" y2="451.4922"/><polygon fill="#A80036" points="864,447.4922,854,451.4922,864,455.4922,860,451.4922" style="stroke:#A80036;stroke-width:1.0;"/><text fill="#000000" font-family="sans-serif" font-size="13" font-weight="bold" lengthAdjust="spacing" textLength="9" x="860" y="433.4263">9</text><text fill="#000000" font-family="sans-serif" font-size="13" lengthAdjust="spacing" textLength="402" x="873" y="433.4263">makeClosestPortOutsideOfCountryDistance(Graph graph,int n)</text><polygon fill="#A80036" points="551,506.625,541,510.625,551,514.625,547,510.625" style="stroke:#A80036;stroke-width:1.0;"/><line style="stroke:#A80036;stroke-width:1.0;" x1="545" x2="842" y1="510.625" y2="510.625"/><text fill="#000000" font-family="sans-serif" font-size="13" font-weight="bold" lengthAdjust="spacing" textLength="19" x="557" y="505.5591">10</text><text fill="#000000" font-family="sans-serif" font-size="13" lengthAdjust="spacing" textLength="135" x="580" y="505.5591">graph is now created</text><polygon fill="#A80036" points="78,535.7578,68,539.7578,78,543.7578,74,539.7578" style="stroke:#A80036;stroke-width:1.0;"/><line style="stroke:#A80036;stroke-width:1.0;" x1="72" x2="534" y1="539.7578" y2="539.7578"/><text fill="#000000" font-family="sans-serif" font-size="13" font-weight="bold" lengthAdjust="spacing" textLength="18" x="84" y="534.6919">11</text><text fill="#000000" font-family="sans-serif" font-size="13" lengthAdjust="spacing" textLength="104" x="106" y="534.6919">graph is created</text><!--MD5=[c14c067540d72af20bfddedd0025b24c]
@startuml
autonumber
actor "TrafficManager" as REC

participant  ":CountryPortGraphTest" as LabCoo
participant ":CountryPortGraph" as CPG

participant ":CountryStore" as CS
participant ":PortStore" as PS




activate REC
REC -> LabCoo : chooses to create the graph with the n amount of port connections
activate LabCoo
LabCoo -> CPG : createGraphWithPortsAndCountries(int n)
deactivate LabCoo
activate CPG
activate CS
CPG -> CS : getCountriesFromDatabase()
CPG -> CS : getCountryStore()
deactivate CS
activate PS
CPG -> PS : getPortsFromDatabase()
CPG -> PS : getPortStore()
deactivate PS
CPG -> CPG : makeBorderEdges(Graph graph)
activate CPG
deactivate CPG
CPG -> CPG : makeSameCountryPortDistance(Graph graph)
activate CPG
deactivate CPG
CPG -> CPG : makeClosestPortOutsideOfCountryDistance(Graph graph,int n)
activate CPG
deactivate CPG
deactivate CPG
CPG -> LabCoo : graph is now created
activate LabCoo

LabCoo -> REC : graph is created
deactivate LabCoo
@enduml

PlantUML version 1.2021.17beta4(Unknown compile time)
(GPL source distribution)
Java Runtime: Java(TM) SE Runtime Environment
JVM: Java HotSpot(TM) 64-Bit Server VM
Default Encoding: UTF-8
Language: en
Country: US
--></g></svg>