<?xml version="1.0" encoding="UTF-8" standalone="no"?><svg xmlns="http://www.w3.org/2000/svg" xmlns:xlink="http://www.w3.org/1999/xlink" contentScriptType="application/ecmascript" contentStyleType="text/css" height="584px" preserveAspectRatio="none" style="width:219px;height:584px;background:#FFFFFF;" version="1.1" viewBox="0 0 219 584" width="219px" zoomAndPan="magnify"><defs><filter height="300%" id="fjz8git84mtep" width="300%" x="-1" y="-1"><feGaussianBlur result="blurOut" stdDeviation="2.0"/><feColorMatrix in="blurOut" result="blurOut2" type="matrix" values="0 0 0 0 0 0 0 0 0 0 0 0 0 0 0 0 0 0 .4 0"/><feOffset dx="4.0" dy="4.0" in="blurOut2" result="blurOut3"/><feBlend in="SourceGraphic" in2="blurOut3" mode="normal"/></filter></defs><g><!--MD5=[deb4e1f6eb1e3c1256fdb830f96abfbb]
class Country--><rect codeLine="3" fill="#FEFECE" filter="url(#fjz8git84mtep)" height="112.0234" id="Country" style="stroke:#A80036;stroke-width:1.5;" width="81" x="53.778" y="7"/><ellipse cx="70.128" cy="23" fill="#ADD1B2" rx="11" ry="11" style="stroke:#A80036;stroke-width:1.0;"/><path d="M72.4717,18.6719 C71.5342,18.2344 70.9405,18.0938 70.0655,18.0938 C67.4405,18.0938 65.4405,20.1719 65.4405,22.8906 L65.4405,24.0156 C65.4405,26.5938 67.5499,28.4844 70.4405,28.4844 C71.6592,28.4844 72.8155,28.1875 73.5655,27.6406 C74.1436,27.2344 74.4717,26.7813 74.4717,26.3906 C74.4717,25.9375 74.0811,25.5469 73.6124,25.5469 C73.3936,25.5469 73.1905,25.625 73.003,25.8125 C72.5499,26.2969 72.5499,26.2969 72.3624,26.3906 C71.9405,26.6563 71.253,26.7813 70.4874,26.7813 C68.4405,26.7813 67.1436,25.6875 67.1436,23.9844 L67.1436,22.8906 C67.1436,21.1094 68.3936,19.7969 70.128,19.7969 C70.7061,19.7969 71.3155,19.9531 71.7842,20.2031 C72.2686,20.4844 72.4405,20.7031 72.5342,21.1094 C72.5967,21.5156 72.628,21.6406 72.7686,21.7656 C72.9092,21.9063 73.1436,22.0156 73.3624,22.0156 C73.628,22.0156 73.8936,21.875 74.0655,21.6563 C74.1749,21.5 74.2061,21.3125 74.2061,20.8906 L74.2061,19.4688 C74.2061,19.0313 74.1905,18.9063 74.0967,18.75 C73.9405,18.4844 73.6592,18.3438 73.3624,18.3438 C73.0655,18.3438 72.8624,18.4375 72.6436,18.75 L72.4717,18.6719 Z " fill="#000000"/><text fill="#000000" font-family="sans-serif" font-size="12" lengthAdjust="spacing" textLength="46" x="84.428" y="27.1543">Country</text><line style="stroke:#A80036;stroke-width:1.5;" x1="54.778" x2="133.778" y1="39" y2="39"/><text fill="#000000" font-family="sans-serif" font-size="11" lengthAdjust="spacing" textLength="37" x="59.778" y="53.2104">-name</text><text fill="#000000" font-family="sans-serif" font-size="11" lengthAdjust="spacing" textLength="48" x="59.778" y="66.0151">-location</text><text fill="#000000" font-family="sans-serif" font-size="11" lengthAdjust="spacing" textLength="41" x="59.778" y="78.8198">-capital</text><text fill="#000000" font-family="sans-serif" font-size="11" lengthAdjust="spacing" textLength="69" x="59.778" y="91.6245">-alphacodes</text><text fill="#000000" font-family="sans-serif" font-size="11" lengthAdjust="spacing" textLength="9" x="59.778" y="104.4292">...</text><line style="stroke:#A80036;stroke-width:1.5;" x1="54.778" x2="133.778" y1="111.0234" y2="111.0234"/><!--MD5=[a0bfe97ac0a38e6e74cc1c7c7b744b71]
class Port--><rect codeLine="10" fill="#FEFECE" filter="url(#fjz8git84mtep)" height="86.4141" id="Port" style="stroke:#A80036;stroke-width:1.5;" width="60" x="15.2779" y="196"/><ellipse cx="32.5279" cy="212" fill="#ADD1B2" rx="11" ry="11" style="stroke:#A80036;stroke-width:1.0;"/><path d="M34.8717,207.6719 C33.9342,207.2344 33.3404,207.0938 32.4654,207.0938 C29.8404,207.0938 27.8404,209.1719 27.8404,211.8906 L27.8404,213.0156 C27.8404,215.5938 29.9498,217.4844 32.8404,217.4844 C34.0592,217.4844 35.2154,217.1875 35.9654,216.6406 C36.5436,216.2344 36.8717,215.7813 36.8717,215.3906 C36.8717,214.9375 36.4811,214.5469 36.0123,214.5469 C35.7936,214.5469 35.5904,214.625 35.4029,214.8125 C34.9498,215.2969 34.9498,215.2969 34.7623,215.3906 C34.3404,215.6563 33.6529,215.7813 32.8873,215.7813 C30.8404,215.7813 29.5436,214.6875 29.5436,212.9844 L29.5436,211.8906 C29.5436,210.1094 30.7936,208.7969 32.5279,208.7969 C33.1061,208.7969 33.7154,208.9531 34.1842,209.2031 C34.6686,209.4844 34.8404,209.7031 34.9342,210.1094 C34.9967,210.5156 35.0279,210.6406 35.1686,210.7656 C35.3092,210.9063 35.5436,211.0156 35.7623,211.0156 C36.0279,211.0156 36.2936,210.875 36.4654,210.6563 C36.5748,210.5 36.6061,210.3125 36.6061,209.8906 L36.6061,208.4688 C36.6061,208.0313 36.5904,207.9063 36.4967,207.75 C36.3404,207.4844 36.0592,207.3438 35.7623,207.3438 C35.4654,207.3438 35.2623,207.4375 35.0436,207.75 L34.8717,207.6719 Z " fill="#000000"/><text fill="#000000" font-family="sans-serif" font-size="12" lengthAdjust="spacing" textLength="23" x="47.0279" y="216.1543">Port</text><line style="stroke:#A80036;stroke-width:1.5;" x1="16.2779" x2="74.2779" y1="228" y2="228"/><text fill="#000000" font-family="sans-serif" font-size="11" lengthAdjust="spacing" textLength="48" x="21.2779" y="242.2104">-location</text><text fill="#000000" font-family="sans-serif" font-size="11" lengthAdjust="spacing" textLength="32" x="21.2779" y="255.0151">-code</text><text fill="#000000" font-family="sans-serif" font-size="11" lengthAdjust="spacing" textLength="37" x="21.2779" y="267.8198">-name</text><line style="stroke:#A80036;stroke-width:1.5;" x1="16.2779" x2="74.2779" y1="274.4141" y2="274.4141"/><!--MD5=[5011bf3d6c61ba0c0b7af54c2595cffb]
class CountryPortGraph--><rect codeLine="15" fill="#FEFECE" filter="url(#fjz8git84mtep)" height="60.8047" id="CountryPortGraph" style="stroke:#A80036;stroke-width:1.5;" width="137" x="40.778" y="359"/><ellipse cx="55.778" cy="375" fill="#ADD1B2" rx="11" ry="11" style="stroke:#A80036;stroke-width:1.0;"/><path d="M58.1217,370.6719 C57.1842,370.2344 56.5905,370.0938 55.7155,370.0938 C53.0905,370.0938 51.0905,372.1719 51.0905,374.8906 L51.0905,376.0156 C51.0905,378.5938 53.1999,380.4844 56.0905,380.4844 C57.3092,380.4844 58.4655,380.1875 59.2155,379.6406 C59.7936,379.2344 60.1217,378.7813 60.1217,378.3906 C60.1217,377.9375 59.7311,377.5469 59.2624,377.5469 C59.0436,377.5469 58.8405,377.625 58.653,377.8125 C58.1999,378.2969 58.1999,378.2969 58.0124,378.3906 C57.5905,378.6563 56.903,378.7813 56.1374,378.7813 C54.0905,378.7813 52.7936,377.6875 52.7936,375.9844 L52.7936,374.8906 C52.7936,373.1094 54.0436,371.7969 55.778,371.7969 C56.3561,371.7969 56.9655,371.9531 57.4342,372.2031 C57.9186,372.4844 58.0905,372.7031 58.1842,373.1094 C58.2467,373.5156 58.278,373.6406 58.4186,373.7656 C58.5592,373.9063 58.7936,374.0156 59.0124,374.0156 C59.278,374.0156 59.5436,373.875 59.7155,373.6563 C59.8249,373.5 59.8561,373.3125 59.8561,372.8906 L59.8561,371.4688 C59.8561,371.0313 59.8405,370.9063 59.7467,370.75 C59.5905,370.4844 59.3092,370.3438 59.0124,370.3438 C58.7155,370.3438 58.5124,370.4375 58.2936,370.75 L58.1217,370.6719 Z " fill="#000000"/><text fill="#000000" font-family="sans-serif" font-size="12" lengthAdjust="spacing" textLength="105" x="69.778" y="379.1543">CountryPortGraph</text><line style="stroke:#A80036;stroke-width:1.5;" x1="41.778" x2="176.778" y1="391" y2="391"/><text fill="#000000" font-family="sans-serif" font-size="11" lengthAdjust="spacing" textLength="36" x="46.778" y="405.2104">-graph</text><line style="stroke:#A80036;stroke-width:1.5;" x1="41.778" x2="176.778" y1="411.8047" y2="411.8047"/><!--MD5=[ddaf6f62b0bc30921877ec9fb9463c9f]
class TrafficManager--><rect codeLine="19" fill="#FEFECE" filter="url(#fjz8git84mtep)" height="73.6094" id="TrafficManager" style="stroke:#A80036;stroke-width:1.5;" width="121" x="48.778" y="497"/><ellipse cx="63.778" cy="513" fill="#ADD1B2" rx="11" ry="11" style="stroke:#A80036;stroke-width:1.0;"/><path d="M66.1217,508.6719 C65.1842,508.2344 64.5905,508.0938 63.7155,508.0938 C61.0905,508.0938 59.0905,510.1719 59.0905,512.8906 L59.0905,514.0156 C59.0905,516.5938 61.1999,518.4844 64.0905,518.4844 C65.3092,518.4844 66.4655,518.1875 67.2155,517.6406 C67.7936,517.2344 68.1217,516.7813 68.1217,516.3906 C68.1217,515.9375 67.7311,515.5469 67.2624,515.5469 C67.0436,515.5469 66.8405,515.625 66.653,515.8125 C66.1999,516.2969 66.1999,516.2969 66.0124,516.3906 C65.5905,516.6563 64.903,516.7813 64.1374,516.7813 C62.0905,516.7813 60.7936,515.6875 60.7936,513.9844 L60.7936,512.8906 C60.7936,511.1094 62.0436,509.7969 63.778,509.7969 C64.3561,509.7969 64.9655,509.9531 65.4342,510.2031 C65.9186,510.4844 66.0905,510.7031 66.1842,511.1094 C66.2467,511.5156 66.278,511.6406 66.4186,511.7656 C66.5592,511.9063 66.7936,512.0156 67.0124,512.0156 C67.278,512.0156 67.5436,511.875 67.7155,511.6563 C67.8249,511.5 67.8561,511.3125 67.8561,510.8906 L67.8561,509.4688 C67.8561,509.0313 67.8405,508.9063 67.7467,508.75 C67.5905,508.4844 67.3092,508.3438 67.0124,508.3438 C66.7155,508.3438 66.5124,508.4375 66.2936,508.75 L66.1217,508.6719 Z " fill="#000000"/><text fill="#000000" font-family="sans-serif" font-size="12" lengthAdjust="spacing" textLength="89" x="77.778" y="517.1543">TrafficManager</text><line style="stroke:#A80036;stroke-width:1.5;" x1="49.778" x2="168.778" y1="529" y2="529"/><text fill="#000000" font-family="sans-serif" font-size="11" lengthAdjust="spacing" textLength="41" x="54.778" y="543.2104">-userID</text><text fill="#000000" font-family="sans-serif" font-size="11" lengthAdjust="spacing" textLength="37" x="54.778" y="556.0151">-name</text><line style="stroke:#A80036;stroke-width:1.5;" x1="49.778" x2="168.778" y1="562.6094" y2="562.6094"/><!--MD5=[9d93cb1044a295c4863abd89b71832dd]
reverse link Country to CountryPortGraph--><path codeLine="25" d="M119.1101,124.114 C121.6521,132.355 123.8301,140.802 125.2781,149 C138.4721,223.688 124.8191,313.23 115.8231,358.756 " fill="none" id="Country-backto-CountryPortGraph" style="stroke:#A80036;stroke-width:1.0;"/><polygon fill="#A80036" points="117.4831,119.013,116.4052,128.8027,119.0015,123.7769,124.0274,126.3732,117.4831,119.013" style="stroke:#A80036;stroke-width:1.0;"/><text fill="#000000" font-family="sans-serif" font-size="13" lengthAdjust="spacing" textLength="23" x="131.2781" y="243.5669">has</text><text fill="#000000" font-family="sans-serif" font-size="13" lengthAdjust="spacing" textLength="27" x="91.7264" y="139.2245">1...*</text><text fill="#000000" font-family="sans-serif" font-size="13" lengthAdjust="spacing" textLength="8" x="108.3483" y="347.9689">1</text><!--MD5=[5f6035d42901f1e9b4792f6c38fe33de]
reverse link CountryPortGraph to TrafficManager--><path codeLine="26" d="M109.278,425.133 C109.278,446.894 109.278,474.9132 109.278,496.9405 " fill="none" id="CountryPortGraph-backto-TrafficManager" style="stroke:#A80036;stroke-width:1.0;"/><polygon fill="#A80036" points="109.278,420.026,105.278,429.026,109.278,425.026,113.278,429.026,109.278,420.026" style="stroke:#A80036;stroke-width:1.0;"/><text fill="#000000" font-family="sans-serif" font-size="13" lengthAdjust="spacing" textLength="101" x="110.278" y="463.0669">wants to create</text><text fill="#000000" font-family="sans-serif" font-size="13" lengthAdjust="spacing" textLength="27" x="79.4936" y="439.9696">1...*</text><text fill="#000000" font-family="sans-serif" font-size="13" lengthAdjust="spacing" textLength="8" x="100.5405" y="485.84">1</text><!--MD5=[fbe3368ce64046528031bd32412b83fa]
reverse link Country to Port--><path codeLine="27" d="M50.8263,121.844 C46.0928,130.57 42.0082,139.755 39.278,149 C34.8919,163.852 34.8479,180.682 36.4231,195.677 " fill="none" id="Country-backto-Port" style="stroke:#A80036;stroke-width:1.0;"/><polygon fill="#A80036" points="53.5183,117.045,45.627,122.938,51.0724,121.4059,52.6045,126.8514,53.5183,117.045" style="stroke:#A80036;stroke-width:1.0;"/><text fill="#000000" font-family="sans-serif" font-size="13" lengthAdjust="spacing" textLength="80" x="40.278" y="162.0669">is inside of a</text><text fill="#000000" font-family="sans-serif" font-size="13" lengthAdjust="spacing" textLength="8" x="37.8252" y="122.1212">1</text><text fill="#000000" font-family="sans-serif" font-size="13" lengthAdjust="spacing" textLength="27" x="6" y="184.9401">1...*</text><!--MD5=[e6948588ea45f63b1cdd398b130699ad]
reverse link Port to CountryPortGraph--><path codeLine="28" d="M65.4561,286.82 C75.6346,310.437 87.6699,338.363 96.5499,358.967 " fill="none" id="Port-backto-CountryPortGraph" style="stroke:#A80036;stroke-width:1.0;"/><polygon fill="#A80036" points="63.4466,282.157,63.3346,292.0052,65.4252,286.7488,70.6816,288.8394,63.4466,282.157" style="stroke:#A80036;stroke-width:1.0;"/><text fill="#000000" font-family="sans-serif" font-size="13" lengthAdjust="spacing" textLength="23" x="83.278" y="325.0669">has</text><text fill="#000000" font-family="sans-serif" font-size="13" lengthAdjust="spacing" textLength="27" x="37.2198" y="302.5907">1...*</text><text fill="#000000" font-family="sans-serif" font-size="13" lengthAdjust="spacing" textLength="8" x="84.8906" y="347.7501">1</text><!--MD5=[fe4d528fc4cdbcfa3a4c614989f87c3b]
@startuml
skinparam classAttributeIconSize 0

Class Country{
-name
-location
-capital
-alphacodes
...
}
Class Port{
-location
-code
-name
}
class CountryPortGraph {
-graph
}

class TrafficManager{
-userID
-name
}


Country "1...*" <- - "1" CountryPortGraph : has
CountryPortGraph "1...*" <- - "1" TrafficManager : wants to create
Country "1" <- - "1...*" Port :is inside of a
Port "1...*" <- - "1" CountryPortGraph : has
@enduml

PlantUML version 1.2021.17beta4(Unknown compile time)
(GPL source distribution)
Java Runtime: Java(TM) SE Runtime Environment
JVM: Java HotSpot(TM) 64-Bit Server VM
Default Encoding: UTF-8
Language: en
Country: US
--></g></svg>