<?xml version="1.0" encoding="UTF-8" standalone="no"?><svg xmlns="http://www.w3.org/2000/svg" xmlns:xlink="http://www.w3.org/1999/xlink" contentScriptType="application/ecmascript" contentStyleType="text/css" height="222px" preserveAspectRatio="none" style="width:971px;height:222px;background:#FFFFFF;" version="1.1" viewBox="0 0 971 222" width="971px" zoomAndPan="magnify"><defs><filter height="300%" id="f18ergapuyv5ab" width="300%" x="-1" y="-1"><feGaussianBlur result="blurOut" stdDeviation="2.0"/><feColorMatrix in="blurOut" result="blurOut2" type="matrix" values="0 0 0 0 0 0 0 0 0 0 0 0 0 0 0 0 0 0 .4 0"/><feOffset dx="4.0" dy="4.0" in="blurOut2" result="blurOut3"/><feBlend in="SourceGraphic" in2="blurOut3" mode="normal"/></filter></defs><g><!--MD5=[049fccd53021a652332fee9a0f41d617]
class Centrality--><rect codeLine="3" fill="#FEFECE" filter="url(#f18ergapuyv5ab)" height="60.8047" id="Centrality" style="stroke:#A80036;stroke-width:1.5;" width="225" x="290" y="74.5"/><ellipse cx="370.25" cy="90.5" fill="#ADD1B2" rx="11" ry="11" style="stroke:#A80036;stroke-width:1.0;"/><path d="M372.5938,86.1719 C371.6563,85.7344 371.0625,85.5938 370.1875,85.5938 C367.5625,85.5938 365.5625,87.6719 365.5625,90.3906 L365.5625,91.5156 C365.5625,94.0938 367.6719,95.9844 370.5625,95.9844 C371.7813,95.9844 372.9375,95.6875 373.6875,95.1406 C374.2656,94.7344 374.5938,94.2813 374.5938,93.8906 C374.5938,93.4375 374.2031,93.0469 373.7344,93.0469 C373.5156,93.0469 373.3125,93.125 373.125,93.3125 C372.6719,93.7969 372.6719,93.7969 372.4844,93.8906 C372.0625,94.1563 371.375,94.2813 370.6094,94.2813 C368.5625,94.2813 367.2656,93.1875 367.2656,91.4844 L367.2656,90.3906 C367.2656,88.6094 368.5156,87.2969 370.25,87.2969 C370.8281,87.2969 371.4375,87.4531 371.9063,87.7031 C372.3906,87.9844 372.5625,88.2031 372.6563,88.6094 C372.7188,89.0156 372.75,89.1406 372.8906,89.2656 C373.0313,89.4063 373.2656,89.5156 373.4844,89.5156 C373.75,89.5156 374.0156,89.375 374.1875,89.1563 C374.2969,89 374.3281,88.8125 374.3281,88.3906 L374.3281,86.9688 C374.3281,86.5313 374.3125,86.4063 374.2188,86.25 C374.0625,85.9844 373.7813,85.8438 373.4844,85.8438 C373.1875,85.8438 372.9844,85.9375 372.7656,86.25 L372.5938,86.1719 Z " fill="#000000"/><text fill="#000000" font-family="sans-serif" font-size="12" lengthAdjust="spacing" textLength="56" x="390.75" y="94.6543">Centrality</text><line style="stroke:#A80036;stroke-width:1.5;" x1="291" x2="514" y1="106.5" y2="106.5"/><line style="stroke:#A80036;stroke-width:1.5;" x1="291" x2="514" y1="114.5" y2="114.5"/><text fill="#000000" font-family="sans-serif" font-size="11" lengthAdjust="spacing" textLength="213" x="296" y="128.7104">+getPortsWithMoreCentrality(n,graph)</text><!--MD5=[4533588fb66c6fa31a6e04bf29ae6161]
class Algorithms--><rect codeLine="7" fill="#FEFECE" filter="url(#f18ergapuyv5ab)" height="86.4141" id="Algorithms" style="stroke:#A80036;stroke-width:1.5;" width="243" x="575" y="7"/><ellipse cx="660.25" cy="23" fill="#ADD1B2" rx="11" ry="11" style="stroke:#A80036;stroke-width:1.0;"/><path d="M662.5938,18.6719 C661.6563,18.2344 661.0625,18.0938 660.1875,18.0938 C657.5625,18.0938 655.5625,20.1719 655.5625,22.8906 L655.5625,24.0156 C655.5625,26.5938 657.6719,28.4844 660.5625,28.4844 C661.7813,28.4844 662.9375,28.1875 663.6875,27.6406 C664.2656,27.2344 664.5938,26.7813 664.5938,26.3906 C664.5938,25.9375 664.2031,25.5469 663.7344,25.5469 C663.5156,25.5469 663.3125,25.625 663.125,25.8125 C662.6719,26.2969 662.6719,26.2969 662.4844,26.3906 C662.0625,26.6563 661.375,26.7813 660.6094,26.7813 C658.5625,26.7813 657.2656,25.6875 657.2656,23.9844 L657.2656,22.8906 C657.2656,21.1094 658.5156,19.7969 660.25,19.7969 C660.8281,19.7969 661.4375,19.9531 661.9063,20.2031 C662.3906,20.4844 662.5625,20.7031 662.6563,21.1094 C662.7188,21.5156 662.75,21.6406 662.8906,21.7656 C663.0313,21.9063 663.2656,22.0156 663.4844,22.0156 C663.75,22.0156 664.0156,21.875 664.1875,21.6563 C664.2969,21.5 664.3281,21.3125 664.3281,20.8906 L664.3281,19.4688 C664.3281,19.0313 664.3125,18.9063 664.2188,18.75 C664.0625,18.4844 663.7813,18.3438 663.4844,18.3438 C663.1875,18.3438 662.9844,18.4375 662.7656,18.75 L662.5938,18.6719 Z " fill="#000000"/><text fill="#000000" font-family="sans-serif" font-size="12" lengthAdjust="spacing" textLength="64" x="680.75" y="27.1543">Algorithms</text><line style="stroke:#A80036;stroke-width:1.5;" x1="576" x2="817" y1="39" y2="39"/><line style="stroke:#A80036;stroke-width:1.5;" x1="576" x2="817" y1="47" y2="47"/><text fill="#000000" font-family="sans-serif" font-size="11" lengthAdjust="spacing" textLength="198" x="581" y="61.2104">+shortestPaths(graph,v,paths,dists)</text><text fill="#000000" font-family="sans-serif" font-size="11" lengthAdjust="spacing" textLength="231" x="581" y="74.0151">+shortestPathLength(graph,v,paths,dists)</text><text fill="#000000" font-family="sans-serif" font-size="11" lengthAdjust="spacing" textLength="60" x="581" y="86.8198">+getPath()</text><!--MD5=[ddf964ba65dd59a9c60a1e1cd8efc8b4]
class GraphLocation--><rect codeLine="13" fill="#FEFECE" filter="url(#f18ergapuyv5ab)" height="60.8047" id="GraphLocation" style="stroke:#A80036;stroke-width:1.5;" width="120" x="636.5" y="128.5"/><ellipse cx="651.5" cy="144.5" fill="#B4A7E5" rx="11" ry="11" style="stroke:#A80036;stroke-width:1.0;"/><path d="M652.4531,141.2813 L654.1719,141.2813 C654.5625,141.2813 654.75,141.25 654.875,141.1719 C655.1406,141.0156 655.2813,140.7344 655.2813,140.4375 C655.2813,140.1719 655.1719,139.9063 654.9375,139.7344 C654.7656,139.625 654.625,139.5938 654.1719,139.5938 L649.0313,139.5938 C648.5938,139.5938 648.4688,139.6094 648.3125,139.7031 C648.0625,139.8594 647.9063,140.1563 647.9063,140.4375 C647.9063,140.7188 648.0469,140.9688 648.2656,141.1406 C648.4219,141.25 648.6094,141.2813 649.0313,141.2813 L650.75,141.2813 L650.75,147.7969 L649.0313,147.7969 C648.5938,147.7969 648.4688,147.8125 648.3125,147.9219 C648.0625,148.0781 647.9063,148.3594 647.9063,148.6563 C647.9063,148.9063 648.0469,149.1719 648.2656,149.3281 C648.4219,149.4531 648.625,149.5 649.0313,149.5 L654.1719,149.5 C654.9219,149.5 655.2813,149.2188 655.2813,148.6563 C655.2813,148.375 655.1719,148.125 654.9375,147.9531 C654.7656,147.8281 654.625,147.7969 654.1719,147.7969 L652.4531,147.7969 L652.4531,141.2813 Z " fill="#000000"/><text fill="#000000" font-family="sans-serif" font-size="12" font-style="italic" lengthAdjust="spacing" textLength="88" x="665.5" y="148.6543">GraphLocation</text><line style="stroke:#A80036;stroke-width:1.5;" x1="637.5" x2="755.5" y1="160.5" y2="160.5"/><line style="stroke:#A80036;stroke-width:1.5;" x1="637.5" x2="755.5" y1="168.5" y2="168.5"/><text fill="#000000" font-family="sans-serif" font-size="11" lengthAdjust="spacing" textLength="70" x="642.5" y="182.7104">+getName()</text><!--MD5=[8e4614b5f99ae042080a1d806609b678]
class CentralityController--><rect codeLine="17" fill="#FEFECE" filter="url(#f18ergapuyv5ab)" height="60.8047" id="CentralityController" style="stroke:#A80036;stroke-width:1.5;" width="223" x="7" y="74.5"/><ellipse cx="56.75" cy="90.5" fill="#ADD1B2" rx="11" ry="11" style="stroke:#A80036;stroke-width:1.0;"/><path d="M59.0938,86.1719 C58.1563,85.7344 57.5625,85.5938 56.6875,85.5938 C54.0625,85.5938 52.0625,87.6719 52.0625,90.3906 L52.0625,91.5156 C52.0625,94.0938 54.1719,95.9844 57.0625,95.9844 C58.2813,95.9844 59.4375,95.6875 60.1875,95.1406 C60.7656,94.7344 61.0938,94.2813 61.0938,93.8906 C61.0938,93.4375 60.7031,93.0469 60.2344,93.0469 C60.0156,93.0469 59.8125,93.125 59.625,93.3125 C59.1719,93.7969 59.1719,93.7969 58.9844,93.8906 C58.5625,94.1563 57.875,94.2813 57.1094,94.2813 C55.0625,94.2813 53.7656,93.1875 53.7656,91.4844 L53.7656,90.3906 C53.7656,88.6094 55.0156,87.2969 56.75,87.2969 C57.3281,87.2969 57.9375,87.4531 58.4063,87.7031 C58.8906,87.9844 59.0625,88.2031 59.1563,88.6094 C59.2188,89.0156 59.25,89.1406 59.3906,89.2656 C59.5313,89.4063 59.7656,89.5156 59.9844,89.5156 C60.25,89.5156 60.5156,89.375 60.6875,89.1563 C60.7969,89 60.8281,88.8125 60.8281,88.3906 L60.8281,86.9688 C60.8281,86.5313 60.8125,86.4063 60.7188,86.25 C60.5625,85.9844 60.2813,85.8438 59.9844,85.8438 C59.6875,85.8438 59.4844,85.9375 59.2656,86.25 L59.0938,86.1719 Z " fill="#000000"/><text fill="#000000" font-family="sans-serif" font-size="12" lengthAdjust="spacing" textLength="115" x="77.25" y="94.6543">CentralityController</text><line style="stroke:#A80036;stroke-width:1.5;" x1="8" x2="229" y1="106.5" y2="106.5"/><line style="stroke:#A80036;stroke-width:1.5;" x1="8" x2="229" y1="114.5" y2="114.5"/><text fill="#000000" font-family="sans-serif" font-size="11" lengthAdjust="spacing" textLength="211" x="13" y="128.7104">+getPortWithMoreCentrality(graph, n)</text><!--MD5=[a0bfe97ac0a38e6e74cc1c7c7b744b71]
class Port--><rect codeLine="21" fill="#FEFECE" filter="url(#f18ergapuyv5ab)" height="99.2188" id="Port" style="stroke:#A80036;stroke-width:1.5;" width="79" x="878" y="109.5"/><ellipse cx="903.8" cy="125.5" fill="#ADD1B2" rx="11" ry="11" style="stroke:#A80036;stroke-width:1.0;"/><path d="M906.1438,121.1719 C905.2063,120.7344 904.6125,120.5938 903.7375,120.5938 C901.1125,120.5938 899.1125,122.6719 899.1125,125.3906 L899.1125,126.5156 C899.1125,129.0938 901.2219,130.9844 904.1125,130.9844 C905.3313,130.9844 906.4875,130.6875 907.2375,130.1406 C907.8156,129.7344 908.1438,129.2813 908.1438,128.8906 C908.1438,128.4375 907.7531,128.0469 907.2844,128.0469 C907.0656,128.0469 906.8625,128.125 906.675,128.3125 C906.2219,128.7969 906.2219,128.7969 906.0344,128.8906 C905.6125,129.1563 904.925,129.2813 904.1594,129.2813 C902.1125,129.2813 900.8156,128.1875 900.8156,126.4844 L900.8156,125.3906 C900.8156,123.6094 902.0656,122.2969 903.8,122.2969 C904.3781,122.2969 904.9875,122.4531 905.4563,122.7031 C905.9406,122.9844 906.1125,123.2031 906.2063,123.6094 C906.2688,124.0156 906.3,124.1406 906.4406,124.2656 C906.5813,124.4063 906.8156,124.5156 907.0344,124.5156 C907.3,124.5156 907.5656,124.375 907.7375,124.1563 C907.8469,124 907.8781,123.8125 907.8781,123.3906 L907.8781,121.9688 C907.8781,121.5313 907.8625,121.4063 907.7688,121.25 C907.6125,120.9844 907.3313,120.8438 907.0344,120.8438 C906.7375,120.8438 906.5344,120.9375 906.3156,121.25 L906.1438,121.1719 Z " fill="#000000"/><text fill="#000000" font-family="sans-serif" font-size="12" lengthAdjust="spacing" textLength="23" x="920.2" y="129.6543">Port</text><line style="stroke:#A80036;stroke-width:1.5;" x1="879" x2="956" y1="141.5" y2="141.5"/><text fill="#000000" font-family="sans-serif" font-size="11" lengthAdjust="spacing" textLength="37" x="884" y="155.7104">-name</text><text fill="#000000" font-family="sans-serif" font-size="11" lengthAdjust="spacing" textLength="32" x="884" y="168.5151">-code</text><text fill="#000000" font-family="sans-serif" font-size="11" lengthAdjust="spacing" textLength="67" x="884" y="181.3198">-alpha-code</text><text fill="#000000" font-family="sans-serif" font-size="11" lengthAdjust="spacing" textLength="9" x="884" y="194.1245">...</text><line style="stroke:#A80036;stroke-width:1.5;" x1="879" x2="956" y1="200.7188" y2="200.7188"/><!--MD5=[9bfaaf112acd4bfdb2eae5bd3e048d7c]
link CentralityController to Centrality--><path codeLine="28" d="M230.144,105 C248.057,105 266.656,105 284.709,105 " fill="none" id="CentralityController-to-Centrality" style="stroke:#A80036;stroke-width:1.0;"/><polygon fill="#A80036" points="289.785,105,280.785,101,284.785,105,280.785,109,289.785,105" style="stroke:#A80036;stroke-width:1.0;"/><!--MD5=[91b856505b0c11016437ef7f3213279d]
link Centrality to Algorithms--><path codeLine="29" d="M515.143,83.971 C532.95,80.617 551.479,77.127 569.589,73.716 " fill="none" id="Centrality-to-Algorithms" style="stroke:#A80036;stroke-width:1.0;"/><polygon fill="#A80036" points="574.685,72.756,565.1001,70.4912,569.7714,73.6816,566.581,78.3529,574.685,72.756" style="stroke:#A80036;stroke-width:1.0;"/><!--MD5=[612bb32f1d406d3c5bf64431b40277f8]
link Centrality to GraphLocation--><path codeLine="30" d="M515.143,125.6462 C554.427,132.9111 597.23,140.8267 631.275,147.1228 " fill="none" id="Centrality-to-GraphLocation" style="stroke:#A80036;stroke-width:1.0;"/><polygon fill="#A80036" points="636.234,148.0398,628.1107,142.471,631.3172,147.1312,626.657,150.3378,636.234,148.0398" style="stroke:#A80036;stroke-width:1.0;"/><!--MD5=[ad452339055ca3436f8c39a309173232]
link GraphLocation to Port--><path codeLine="31" d="M756.765,159 C793.318,159 839.408,159 872.673,159 " fill="none" id="GraphLocation-to-Port" style="stroke:#A80036;stroke-width:1.0;stroke-dasharray:7.0,7.0;"/><polygon fill="#A80036" points="877.898,159,868.898,155,872.898,159,868.898,163,877.898,159" style="stroke:#A80036;stroke-width:1.0;"/><!--MD5=[9fc4083532c7d6bd471a040821d6c991]
@startuml
skinparam classAttributeIconSize 0
left to right direction
class Centrality {
 +getPortsWithMoreCentrality(n,graph)
}

class Algorithms {
  +shortestPaths(graph,v,paths,dists)
  +shortestPathLength(graph,v,paths,dists)
  +getPath()
}

Interface GraphLocation {
 +getName()
}

class CentralityController {
  +getPortWithMoreCentrality(graph, n)
}

class Port {
-name
-code
-alpha-code
...
}

CentralityController - ->  Centrality
Centrality - -> Algorithms
Centrality - -> GraphLocation
GraphLocation ..> Port
@enduml

PlantUML version 1.2022.1beta4(Unknown compile time)
(GPL source distribution)
Java Runtime: Java(TM) SE Runtime Environment
JVM: Java HotSpot(TM) 64-Bit Server VM
Default Encoding: UTF-8
Language: en
Country: US
--></g></svg>