<?xml version="1.0" encoding="UTF-8" standalone="no"?><svg xmlns="http://www.w3.org/2000/svg" xmlns:xlink="http://www.w3.org/1999/xlink" contentScriptType="application/ecmascript" contentStyleType="text/css" height="284px" preserveAspectRatio="none" style="width:469px;height:284px;background:#FFFFFF;" version="1.1" viewBox="0 0 469 284" width="469px" zoomAndPan="magnify"><defs><filter height="300%" id="f11u9efc06sre3" width="300%" x="-1" y="-1"><feGaussianBlur result="blurOut" stdDeviation="2.0"/><feColorMatrix in="blurOut" result="blurOut2" type="matrix" values="0 0 0 0 0 0 0 0 0 0 0 0 0 0 0 0 0 0 .4 0"/><feOffset dx="4.0" dy="4.0" in="blurOut2" result="blurOut3"/><feBlend in="SourceGraphic" in2="blurOut3" mode="normal"/></filter></defs><g><!--MD5=[a0bfe97ac0a38e6e74cc1c7c7b744b71]
class Port--><rect codeLine="4" fill="#FEFECE" filter="url(#f11u9efc06sre3)" height="112.0234" id="Port" style="stroke:#A80036;stroke-width:1.5;" width="79" x="376.5" y="158"/><ellipse cx="402.3" cy="174" fill="#ADD1B2" rx="11" ry="11" style="stroke:#A80036;stroke-width:1.0;"/><path d="M404.6438,169.6719 C403.7063,169.2344 403.1125,169.0938 402.2375,169.0938 C399.6125,169.0938 397.6125,171.1719 397.6125,173.8906 L397.6125,175.0156 C397.6125,177.5938 399.7219,179.4844 402.6125,179.4844 C403.8313,179.4844 404.9875,179.1875 405.7375,178.6406 C406.3156,178.2344 406.6438,177.7813 406.6438,177.3906 C406.6438,176.9375 406.2531,176.5469 405.7844,176.5469 C405.5656,176.5469 405.3625,176.625 405.175,176.8125 C404.7219,177.2969 404.7219,177.2969 404.5344,177.3906 C404.1125,177.6563 403.425,177.7813 402.6594,177.7813 C400.6125,177.7813 399.3156,176.6875 399.3156,174.9844 L399.3156,173.8906 C399.3156,172.1094 400.5656,170.7969 402.3,170.7969 C402.8781,170.7969 403.4875,170.9531 403.9563,171.2031 C404.4406,171.4844 404.6125,171.7031 404.7063,172.1094 C404.7688,172.5156 404.8,172.6406 404.9406,172.7656 C405.0813,172.9063 405.3156,173.0156 405.5344,173.0156 C405.8,173.0156 406.0656,172.875 406.2375,172.6563 C406.3469,172.5 406.3781,172.3125 406.3781,171.8906 L406.3781,170.4688 C406.3781,170.0313 406.3625,169.9063 406.2688,169.75 C406.1125,169.4844 405.8313,169.3438 405.5344,169.3438 C405.2375,169.3438 405.0344,169.4375 404.8156,169.75 L404.6438,169.6719 Z " fill="#000000"/><text fill="#000000" font-family="sans-serif" font-size="12" lengthAdjust="spacing" textLength="23" x="418.7" y="178.1543">Port</text><line style="stroke:#A80036;stroke-width:1.5;" x1="377.5" x2="454.5" y1="190" y2="190"/><text fill="#000000" font-family="sans-serif" font-size="11" lengthAdjust="spacing" textLength="37" x="382.5" y="204.2104">-name</text><text fill="#000000" font-family="sans-serif" font-size="11" lengthAdjust="spacing" textLength="32" x="382.5" y="217.0151">-code</text><text fill="#000000" font-family="sans-serif" font-size="11" lengthAdjust="spacing" textLength="67" x="382.5" y="229.8198">-alpha-code</text><text fill="#000000" font-family="sans-serif" font-size="11" lengthAdjust="spacing" textLength="48" x="382.5" y="242.6245">-location</text><text fill="#000000" font-family="sans-serif" font-size="11" lengthAdjust="spacing" textLength="9" x="382.5" y="255.4292">...</text><line style="stroke:#A80036;stroke-width:1.5;" x1="377.5" x2="454.5" y1="262.0234" y2="262.0234"/><!--MD5=[049fccd53021a652332fee9a0f41d617]
class Centrality--><rect codeLine="12" fill="#FEFECE" filter="url(#f11u9efc06sre3)" height="60.8047" id="Centrality" style="stroke:#A80036;stroke-width:1.5;" width="220" x="7" y="183.5"/><ellipse cx="84.75" cy="199.5" fill="#ADD1B2" rx="11" ry="11" style="stroke:#A80036;stroke-width:1.0;"/><path d="M87.0938,195.1719 C86.1563,194.7344 85.5625,194.5938 84.6875,194.5938 C82.0625,194.5938 80.0625,196.6719 80.0625,199.3906 L80.0625,200.5156 C80.0625,203.0938 82.1719,204.9844 85.0625,204.9844 C86.2813,204.9844 87.4375,204.6875 88.1875,204.1406 C88.7656,203.7344 89.0938,203.2813 89.0938,202.8906 C89.0938,202.4375 88.7031,202.0469 88.2344,202.0469 C88.0156,202.0469 87.8125,202.125 87.625,202.3125 C87.1719,202.7969 87.1719,202.7969 86.9844,202.8906 C86.5625,203.1563 85.875,203.2813 85.1094,203.2813 C83.0625,203.2813 81.7656,202.1875 81.7656,200.4844 L81.7656,199.3906 C81.7656,197.6094 83.0156,196.2969 84.75,196.2969 C85.3281,196.2969 85.9375,196.4531 86.4063,196.7031 C86.8906,196.9844 87.0625,197.2031 87.1563,197.6094 C87.2188,198.0156 87.25,198.1406 87.3906,198.2656 C87.5313,198.4063 87.7656,198.5156 87.9844,198.5156 C88.25,198.5156 88.5156,198.375 88.6875,198.1563 C88.7969,198 88.8281,197.8125 88.8281,197.3906 L88.8281,195.9688 C88.8281,195.5313 88.8125,195.4063 88.7188,195.25 C88.5625,194.9844 88.2813,194.8438 87.9844,194.8438 C87.6875,194.8438 87.4844,194.9375 87.2656,195.25 L87.0938,195.1719 Z " fill="#000000"/><text fill="#000000" font-family="sans-serif" font-size="12" lengthAdjust="spacing" textLength="56" x="105.25" y="203.6543">Centrality</text><line style="stroke:#A80036;stroke-width:1.5;" x1="8" x2="226" y1="215.5" y2="215.5"/><line style="stroke:#A80036;stroke-width:1.5;" x1="8" x2="226" y1="223.5" y2="223.5"/><text fill="#000000" font-family="sans-serif" font-size="11" lengthAdjust="spacing" textLength="208" x="13" y="237.7104">-getPortsWithMoreCentrality(graph,n)</text><!--MD5=[ddaf6f62b0bc30921877ec9fb9463c9f]
class TrafficManager--><rect codeLine="16" fill="#FEFECE" filter="url(#f11u9efc06sre3)" height="73.6094" id="TrafficManager" style="stroke:#A80036;stroke-width:1.5;" width="121" x="56.5" y="7"/><ellipse cx="71.5" cy="23" fill="#ADD1B2" rx="11" ry="11" style="stroke:#A80036;stroke-width:1.0;"/><path d="M73.8438,18.6719 C72.9063,18.2344 72.3125,18.0938 71.4375,18.0938 C68.8125,18.0938 66.8125,20.1719 66.8125,22.8906 L66.8125,24.0156 C66.8125,26.5938 68.9219,28.4844 71.8125,28.4844 C73.0313,28.4844 74.1875,28.1875 74.9375,27.6406 C75.5156,27.2344 75.8438,26.7813 75.8438,26.3906 C75.8438,25.9375 75.4531,25.5469 74.9844,25.5469 C74.7656,25.5469 74.5625,25.625 74.375,25.8125 C73.9219,26.2969 73.9219,26.2969 73.7344,26.3906 C73.3125,26.6563 72.625,26.7813 71.8594,26.7813 C69.8125,26.7813 68.5156,25.6875 68.5156,23.9844 L68.5156,22.8906 C68.5156,21.1094 69.7656,19.7969 71.5,19.7969 C72.0781,19.7969 72.6875,19.9531 73.1563,20.2031 C73.6406,20.4844 73.8125,20.7031 73.9063,21.1094 C73.9688,21.5156 74,21.6406 74.1406,21.7656 C74.2813,21.9063 74.5156,22.0156 74.7344,22.0156 C75,22.0156 75.2656,21.875 75.4375,21.6563 C75.5469,21.5 75.5781,21.3125 75.5781,20.8906 L75.5781,19.4688 C75.5781,19.0313 75.5625,18.9063 75.4688,18.75 C75.3125,18.4844 75.0313,18.3438 74.7344,18.3438 C74.4375,18.3438 74.2344,18.4375 74.0156,18.75 L73.8438,18.6719 Z " fill="#000000"/><text fill="#000000" font-family="sans-serif" font-size="12" lengthAdjust="spacing" textLength="89" x="85.5" y="27.1543">TrafficManager</text><line style="stroke:#A80036;stroke-width:1.5;" x1="57.5" x2="176.5" y1="39" y2="39"/><text fill="#000000" font-family="sans-serif" font-size="11" lengthAdjust="spacing" textLength="39" x="62.5" y="53.2104">-userId</text><text fill="#000000" font-family="sans-serif" font-size="11" lengthAdjust="spacing" textLength="37" x="62.5" y="66.0151">-name</text><line style="stroke:#A80036;stroke-width:1.5;" x1="57.5" x2="176.5" y1="72.6094" y2="72.6094"/><!--MD5=[3ba17a147b3aabffd4f51becc185f5ea]
link TrafficManager to Centrality--><path codeLine="21" d="M117,81.04 C117,109.813 117,149.875 117,178.2913 " fill="none" id="TrafficManager-to-Centrality" style="stroke:#A80036;stroke-width:1.0;"/><polygon fill="#A80036" points="117,183.4564,121,174.4564,117,178.4564,113,174.4564,117,183.4564" style="stroke:#A80036;stroke-width:1.0;"/><text fill="#000000" font-family="sans-serif" font-size="13" lengthAdjust="spacing" textLength="124" x="118" y="124.0669">wants central ports</text><text fill="#000000" font-family="sans-serif" font-size="13" lengthAdjust="spacing" textLength="8" x="108.3125" y="100.8072">1</text><text fill="#000000" font-family="sans-serif" font-size="13" lengthAdjust="spacing" textLength="19" x="95.9219" y="172.2367">1 *</text><!--MD5=[d87606023003f416b14dd4d7404b8895]
link Centrality to Port--><path codeLine="22" d="M227.063,214 C276.942,214 333.129,214 371.169,214 " fill="none" id="Centrality-to-Port" style="stroke:#A80036;stroke-width:1.0;"/><polygon fill="#A80036" points="376.181,214,367.181,210,371.181,214,367.181,218,376.181,214" style="stroke:#A80036;stroke-width:1.0;"/><text fill="#000000" font-family="sans-serif" font-size="13" lengthAdjust="spacing" textLength="113" x="245.25" y="207.0669">gets top n central</text><text fill="#000000" font-family="sans-serif" font-size="13" lengthAdjust="spacing" textLength="8" x="235.0831" y="210.5511">1</text><text fill="#000000" font-family="sans-serif" font-size="13" lengthAdjust="spacing" textLength="19" x="349.629" y="227.2237">1 *</text><!--MD5=[b824b5cfe3a11da5676d4c09f78de75a]
@startuml
skinparam classAttributeIconSize 0


class Port {
  -name
  -code
  -alpha-code
  -location
...
}

class Centrality {
-getPortsWithMoreCentrality(graph,n)
}

class TrafficManager {
-userId
-name
}

TrafficManager "1" - -> "1 *" Centrality : wants central ports
Centrality "1" -> "1 *" Port : gets top n central
@enduml

PlantUML version 1.2022.1beta4(Unknown compile time)
(GPL source distribution)
Java Runtime: Java(TM) SE Runtime Environment
JVM: Java HotSpot(TM) 64-Bit Server VM
Default Encoding: UTF-8
Language: en
Country: US
--></g></svg>