<?xml version="1.0" encoding="UTF-8" standalone="no"?><svg xmlns="http://www.w3.org/2000/svg" xmlns:xlink="http://www.w3.org/1999/xlink" contentScriptType="application/ecmascript" contentStyleType="text/css" height="368px" preserveAspectRatio="none" style="width:961px;height:368px;background:#FFFFFF;" version="1.1" viewBox="0 0 961 368" width="961px" zoomAndPan="magnify"><defs><filter height="300%" id="fi84nrobukfit" width="300%" x="-1" y="-1"><feGaussianBlur result="blurOut" stdDeviation="2.0"/><feColorMatrix in="blurOut" result="blurOut2" type="matrix" values="0 0 0 0 0 0 0 0 0 0 0 0 0 0 0 0 0 0 .4 0"/><feOffset dx="4.0" dy="4.0" in="blurOut2" result="blurOut3"/><feBlend in="SourceGraphic" in2="blurOut3" mode="normal"/></filter></defs><g><rect fill="#FFFFFF" filter="url(#fi84nrobukfit)" height="167.6641" style="stroke:#A80036;stroke-width:1.0;" width="10" x="57" y="98.2969"/><rect fill="#FFFFFF" filter="url(#fi84nrobukfit)" height="146.5313" style="stroke:#A80036;stroke-width:1.0;" width="10" x="289" y="119.4297"/><rect fill="#FFFFFF" filter="url(#fi84nrobukfit)" height="88.2656" style="stroke:#A80036;stroke-width:1.0;" width="10" x="566" y="148.5625"/><rect fill="#FFFFFF" filter="url(#fi84nrobukfit)" height="30" style="stroke:#A80036;stroke-width:1.0;" width="10" x="842" y="177.6953"/><line style="stroke:#A80036;stroke-width:1.0;stroke-dasharray:5.0,5.0;" x1="62" x2="62" y1="88.2969" y2="283.9609"/><line style="stroke:#A80036;stroke-width:1.0;stroke-dasharray:5.0,5.0;" x1="294" x2="294" y1="88.2969" y2="283.9609"/><line style="stroke:#A80036;stroke-width:1.0;stroke-dasharray:5.0,5.0;" x1="571" x2="571" y1="88.2969" y2="283.9609"/><line style="stroke:#A80036;stroke-width:1.0;stroke-dasharray:5.0,5.0;" x1="847" x2="847" y1="88.2969" y2="283.9609"/><line style="stroke:#A80036;stroke-width:1.0;stroke-dasharray:5.0,5.0;" x1="926" x2="926" y1="88.2969" y2="283.9609"/><text fill="#000000" font-family="sans-serif" font-size="14" lengthAdjust="spacing" textLength="108" x="5" y="84.9951">TrafficManager</text><ellipse cx="62" cy="15" fill="#FEFECE" filter="url(#fi84nrobukfit)" rx="8" ry="8" style="stroke:#A80036;stroke-width:2.0;"/><path d="M62,23 L62,50 M49,31 L75,31 M62,50 L49,65 M62,50 L75,65 " fill="none" filter="url(#fi84nrobukfit)" style="stroke:#A80036;stroke-width:2.0;"/><text fill="#000000" font-family="sans-serif" font-size="14" lengthAdjust="spacing" textLength="108" x="5" y="295.9561">TrafficManager</text><ellipse cx="62" cy="309.2578" fill="#FEFECE" filter="url(#fi84nrobukfit)" rx="8" ry="8" style="stroke:#A80036;stroke-width:2.0;"/><path d="M62,317.2578 L62,344.2578 M49,325.2578 L75,325.2578 M62,344.2578 L49,359.2578 M62,344.2578 L75,359.2578 " fill="none" filter="url(#fi84nrobukfit)" style="stroke:#A80036;stroke-width:2.0;"/><rect fill="#FEFECE" filter="url(#fi84nrobukfit)" height="30.2969" style="stroke:#A80036;stroke-width:1.5;" width="146" x="219" y="53"/><text fill="#000000" font-family="sans-serif" font-size="14" lengthAdjust="spacing" textLength="132" x="226" y="72.9951">:CentralityOfPorts</text><rect fill="#FEFECE" filter="url(#fi84nrobukfit)" height="30.2969" style="stroke:#A80036;stroke-width:1.5;" width="146" x="219" y="282.9609"/><text fill="#000000" font-family="sans-serif" font-size="14" lengthAdjust="spacing" textLength="132" x="226" y="302.9561">:CentralityOfPorts</text><rect fill="#FEFECE" filter="url(#fi84nrobukfit)" height="30.2969" style="stroke:#A80036;stroke-width:1.5;" width="164" x="487" y="53"/><text fill="#000000" font-family="sans-serif" font-size="14" lengthAdjust="spacing" textLength="150" x="494" y="72.9951">:CentralityController</text><rect fill="#FEFECE" filter="url(#fi84nrobukfit)" height="30.2969" style="stroke:#A80036;stroke-width:1.5;" width="164" x="487" y="282.9609"/><text fill="#000000" font-family="sans-serif" font-size="14" lengthAdjust="spacing" textLength="150" x="494" y="302.9561">:CentralityController</text><rect fill="#FEFECE" filter="url(#fi84nrobukfit)" height="30.2969" style="stroke:#A80036;stroke-width:1.5;" width="86" x="802" y="53"/><text fill="#000000" font-family="sans-serif" font-size="14" lengthAdjust="spacing" textLength="72" x="809" y="72.9951">Centrality</text><rect fill="#FEFECE" filter="url(#fi84nrobukfit)" height="30.2969" style="stroke:#A80036;stroke-width:1.5;" width="86" x="802" y="282.9609"/><text fill="#000000" font-family="sans-serif" font-size="14" lengthAdjust="spacing" textLength="72" x="809" y="302.9561">Centrality</text><rect fill="#FEFECE" filter="url(#fi84nrobukfit)" height="30.2969" style="stroke:#A80036;stroke-width:1.5;" width="45" x="902" y="53"/><text fill="#000000" font-family="sans-serif" font-size="14" lengthAdjust="spacing" textLength="31" x="909" y="72.9951">Port</text><rect fill="#FEFECE" filter="url(#fi84nrobukfit)" height="30.2969" style="stroke:#A80036;stroke-width:1.5;" width="45" x="902" y="282.9609"/><text fill="#000000" font-family="sans-serif" font-size="14" lengthAdjust="spacing" textLength="31" x="909" y="302.9561">Port</text><rect fill="#FFFFFF" filter="url(#fi84nrobukfit)" height="167.6641" style="stroke:#A80036;stroke-width:1.0;" width="10" x="57" y="98.2969"/><rect fill="#FFFFFF" filter="url(#fi84nrobukfit)" height="146.5313" style="stroke:#A80036;stroke-width:1.0;" width="10" x="289" y="119.4297"/><rect fill="#FFFFFF" filter="url(#fi84nrobukfit)" height="88.2656" style="stroke:#A80036;stroke-width:1.0;" width="10" x="566" y="148.5625"/><rect fill="#FFFFFF" filter="url(#fi84nrobukfit)" height="30" style="stroke:#A80036;stroke-width:1.0;" width="10" x="842" y="177.6953"/><polygon fill="#A80036" points="277,115.4297,287,119.4297,277,123.4297,281,119.4297" style="stroke:#A80036;stroke-width:1.0;"/><line style="stroke:#A80036;stroke-width:1.0;" x1="67" x2="283" y1="119.4297" y2="119.4297"/><text fill="#000000" font-family="sans-serif" font-size="13" font-weight="bold" lengthAdjust="spacing" textLength="9" x="74" y="114.3638">1</text><text fill="#000000" font-family="sans-serif" font-size="13" lengthAdjust="spacing" textLength="190" x="87" y="114.3638">specifies the n ports to return</text><polygon fill="#A80036" points="554,144.5625,564,148.5625,554,152.5625,558,148.5625" style="stroke:#A80036;stroke-width:1.0;"/><line style="stroke:#A80036;stroke-width:1.0;" x1="299" x2="560" y1="148.5625" y2="148.5625"/><text fill="#000000" font-family="sans-serif" font-size="13" font-weight="bold" lengthAdjust="spacing" textLength="9" x="306" y="143.4966">2</text><text fill="#000000" font-family="sans-serif" font-size="13" lengthAdjust="spacing" textLength="235" x="319" y="143.4966">getPortsWithMoreCentrality(n,graph)</text><polygon fill="#A80036" points="830,173.6953,840,177.6953,830,181.6953,834,177.6953" style="stroke:#A80036;stroke-width:1.0;"/><line style="stroke:#A80036;stroke-width:1.0;" x1="576" x2="836" y1="177.6953" y2="177.6953"/><text fill="#000000" font-family="sans-serif" font-size="13" font-weight="bold" lengthAdjust="spacing" textLength="8" x="583" y="172.6294">3</text><text fill="#000000" font-family="sans-serif" font-size="13" lengthAdjust="spacing" textLength="235" x="595" y="172.6294">getPortsWithMoreCentrality(n,graph)</text><polygon fill="#A80036" points="310,232.8281,300,236.8281,310,240.8281,306,236.8281" style="stroke:#A80036;stroke-width:1.0;"/><line style="stroke:#A80036;stroke-width:1.0;stroke-dasharray:2.0,2.0;" x1="304" x2="570" y1="236.8281" y2="236.8281"/><text fill="#000000" font-family="sans-serif" font-size="13" font-weight="bold" lengthAdjust="spacing" textLength="9" x="316" y="231.7622">4</text><text fill="#000000" font-family="sans-serif" font-size="13" lengthAdjust="spacing" textLength="36" x="329" y="231.7622">result</text><polygon fill="#A80036" points="73,261.9609,63,265.9609,73,269.9609,69,265.9609" style="stroke:#A80036;stroke-width:1.0;"/><line style="stroke:#A80036;stroke-width:1.0;stroke-dasharray:2.0,2.0;" x1="67" x2="293" y1="265.9609" y2="265.9609"/><text fill="#000000" font-family="sans-serif" font-size="13" font-weight="bold" lengthAdjust="spacing" textLength="9" x="79" y="260.895">5</text><text fill="#000000" font-family="sans-serif" font-size="13" lengthAdjust="spacing" textLength="36" x="92" y="260.895">result</text><!--MD5=[ceac710b9c63a3c02df8fc233f43fb9a]
@startuml
autonumber
actor "TrafficManager" as ADMIN

participant ":CentralityOfPorts" as UI
participant ":CentralityController" as CTRL
participant "Centrality" as pcStore
participant "Port" as Port


activate ADMIN
ADMIN -> UI : specifies the n ports to return
activate UI
UI -> CTRL : getPortsWithMoreCentrality(n,graph)
activate CTRL
CTRL -> pcStore : getPortsWithMoreCentrality(n,graph)
activate pcStore
deactivate pcStore



CTRL - ->  UI : result
deactivate CTRL
UI - -> ADMIN : result
deactivate UI


deactivate ADMIN
@enduml

PlantUML version 1.2022.1beta4(Unknown compile time)
(GPL source distribution)
Java Runtime: Java(TM) SE Runtime Environment
JVM: Java HotSpot(TM) 64-Bit Server VM
Default Encoding: UTF-8
Language: en
Country: US
--></g></svg>