<?xml version="1.0" encoding="UTF-8" standalone="no"?><svg xmlns="http://www.w3.org/2000/svg" xmlns:xlink="http://www.w3.org/1999/xlink" contentScriptType="application/ecmascript" contentStyleType="text/css" height="577px" preserveAspectRatio="none" style="width:1852px;height:577px;background:#FFFFFF;" version="1.1" viewBox="0 0 1852 577" width="1852px" zoomAndPan="magnify"><defs><filter height="300%" id="f1i0tgay947sgl" width="300%" x="-1" y="-1"><feGaussianBlur result="blurOut" stdDeviation="2.0"/><feColorMatrix in="blurOut" result="blurOut2" type="matrix" values="0 0 0 0 0 0 0 0 0 0 0 0 0 0 0 0 0 0 .4 0"/><feOffset dx="4.0" dy="4.0" in="blurOut2" result="blurOut3"/><feBlend in="SourceGraphic" in2="blurOut3" mode="normal"/></filter></defs><g><rect fill="#FFFFFF" filter="url(#f1i0tgay947sgl)" height="385.4609" style="stroke:#A80036;stroke-width:1.0;" width="10" x="59" y="98.2969"/><rect fill="#FFFFFF" filter="url(#f1i0tgay947sgl)" height="29.1328" style="stroke:#A80036;stroke-width:1.0;" width="10" x="367" y="119.4297"/><rect fill="#FFFFFF" filter="url(#f1i0tgay947sgl)" height="30" style="stroke:#A80036;stroke-width:1.0;" width="10" x="367" y="444.7578"/><rect fill="#FFFFFF" filter="url(#f1i0tgay947sgl)" height="53.2656" style="stroke:#A80036;stroke-width:1.0;" width="10" x="727" y="148.5625"/><rect fill="#FFFFFF" filter="url(#f1i0tgay947sgl)" height="95.2656" style="stroke:#A80036;stroke-width:1.0;" width="10" x="881" y="201.8281"/><rect fill="#FFFFFF" filter="url(#f1i0tgay947sgl)" height="30" style="stroke:#A80036;stroke-width:1.0;" width="10" x="1063" y="230.9609"/><rect fill="#FFFFFF" filter="url(#f1i0tgay947sgl)" height="29.1328" style="stroke:#A80036;stroke-width:1.0;" width="10" x="1166" y="297.0938"/><rect fill="#FFFFFF" filter="url(#f1i0tgay947sgl)" height="68.2656" style="stroke:#A80036;stroke-width:1.0;" width="10" x="1323" y="326.2266"/><rect fill="#FFFFFF" filter="url(#f1i0tgay947sgl)" height="317.3281" style="stroke:#A80036;stroke-width:1.0;" width="10" x="1599" y="98.2969"/><rect fill="#FFFFFF" filter="url(#f1i0tgay947sgl)" height="68.1328" style="stroke:#A80036;stroke-width:1.0;" width="10" x="1810" y="415.625"/><rect fill="#FFFFFF" filter="url(#f1i0tgay947sgl)" height="105.3984" style="stroke:#000000;stroke-width:2.0;" width="463.5" x="674.5" y="163.5625"/><rect fill="#FFFFFF" filter="url(#f1i0tgay947sgl)" height="46.2656" style="stroke:#000000;stroke-width:2.0;" width="421" x="1259.5" y="341.2266"/><line style="stroke:#A80036;stroke-width:1.0;stroke-dasharray:5.0,5.0;" x1="64" x2="64" y1="88.2969" y2="492.7578"/><line style="stroke:#A80036;stroke-width:1.0;stroke-dasharray:5.0,5.0;" x1="371.5" x2="371.5" y1="88.2969" y2="492.7578"/><line style="stroke:#A80036;stroke-width:1.0;stroke-dasharray:5.0,5.0;" x1="731.5" x2="731.5" y1="88.2969" y2="492.7578"/><line style="stroke:#A80036;stroke-width:1.0;stroke-dasharray:5.0,5.0;" x1="885.5" x2="885.5" y1="88.2969" y2="492.7578"/><line style="stroke:#A80036;stroke-width:1.0;stroke-dasharray:5.0,5.0;" x1="1068" x2="1068" y1="88.2969" y2="492.7578"/><line style="stroke:#A80036;stroke-width:1.0;stroke-dasharray:5.0,5.0;" x1="1171" x2="1171" y1="88.2969" y2="492.7578"/><line style="stroke:#A80036;stroke-width:1.0;stroke-dasharray:5.0,5.0;" x1="1327.5" x2="1327.5" y1="88.2969" y2="492.7578"/><line style="stroke:#A80036;stroke-width:1.0;stroke-dasharray:5.0,5.0;" x1="1604" x2="1604" y1="88.2969" y2="492.7578"/><line style="stroke:#A80036;stroke-width:1.0;stroke-dasharray:5.0,5.0;" x1="1815" x2="1815" y1="88.2969" y2="492.7578"/><text fill="#000000" font-family="sans-serif" font-size="14" lengthAdjust="spacing" textLength="112" x="5" y="84.9951">Traffic Manager</text><ellipse cx="64" cy="15" fill="#FEFECE" filter="url(#f1i0tgay947sgl)" rx="8" ry="8" style="stroke:#A80036;stroke-width:2.0;"/><path d="M64,23 L64,50 M51,31 L77,31 M64,50 L51,65 M64,50 L77,65 " fill="none" filter="url(#f1i0tgay947sgl)" style="stroke:#A80036;stroke-width:2.0;"/><text fill="#000000" font-family="sans-serif" font-size="14" lengthAdjust="spacing" textLength="112" x="5" y="504.7529">Traffic Manager</text><ellipse cx="64" cy="518.0547" fill="#FEFECE" filter="url(#f1i0tgay947sgl)" rx="8" ry="8" style="stroke:#A80036;stroke-width:2.0;"/><path d="M64,526.0547 L64,553.0547 M51,534.0547 L77,534.0547 M64,553.0547 L51,568.0547 M64,553.0547 L77,568.0547 " fill="none" filter="url(#f1i0tgay947sgl)" style="stroke:#A80036;stroke-width:2.0;"/><rect fill="#FEFECE" filter="url(#f1i0tgay947sgl)" height="30.2969" style="stroke:#A80036;stroke-width:1.5;" width="123" x="308.5" y="53"/><text fill="#000000" font-family="sans-serif" font-size="14" lengthAdjust="spacing" textLength="109" x="315.5" y="72.9951">:ShipStoreTest</text><rect fill="#FEFECE" filter="url(#f1i0tgay947sgl)" height="30.2969" style="stroke:#A80036;stroke-width:1.5;" width="123" x="308.5" y="491.7578"/><text fill="#000000" font-family="sans-serif" font-size="14" lengthAdjust="spacing" textLength="109" x="315.5" y="511.7529">:ShipStoreTest</text><rect fill="#FEFECE" filter="url(#f1i0tgay947sgl)" height="30.2969" style="stroke:#A80036;stroke-width:1.5;" width="91" x="684.5" y="53"/><text fill="#000000" font-family="sans-serif" font-size="14" lengthAdjust="spacing" textLength="77" x="691.5" y="72.9951">:ShipStore</text><rect fill="#FEFECE" filter="url(#f1i0tgay947sgl)" height="30.2969" style="stroke:#A80036;stroke-width:1.5;" width="91" x="684.5" y="491.7578"/><text fill="#000000" font-family="sans-serif" font-size="14" lengthAdjust="spacing" textLength="77" x="691.5" y="511.7529">:ShipStore</text><rect fill="#FEFECE" filter="url(#f1i0tgay947sgl)" height="30.2969" style="stroke:#A80036;stroke-width:1.5;" width="51" x="858.5" y="53"/><text fill="#000000" font-family="sans-serif" font-size="14" lengthAdjust="spacing" textLength="37" x="865.5" y="72.9951">:Ship</text><rect fill="#FEFECE" filter="url(#f1i0tgay947sgl)" height="30.2969" style="stroke:#A80036;stroke-width:1.5;" width="51" x="858.5" y="491.7578"/><text fill="#000000" font-family="sans-serif" font-size="14" lengthAdjust="spacing" textLength="37" x="865.5" y="511.7529">:Ship</text><rect fill="#FEFECE" filter="url(#f1i0tgay947sgl)" height="30.2969" style="stroke:#A80036;stroke-width:1.5;" width="116" x="1008" y="53"/><text fill="#000000" font-family="sans-serif" font-size="14" lengthAdjust="spacing" textLength="102" x="1015" y="72.9951">:Identification</text><rect fill="#FEFECE" filter="url(#f1i0tgay947sgl)" height="30.2969" style="stroke:#A80036;stroke-width:1.5;" width="116" x="1008" y="491.7578"/><text fill="#000000" font-family="sans-serif" font-size="14" lengthAdjust="spacing" textLength="102" x="1015" y="511.7529">:Identification</text><rect fill="#FEFECE" filter="url(#f1i0tgay947sgl)" height="30.2969" style="stroke:#A80036;stroke-width:1.5;" width="62" x="1138" y="53"/><text fill="#000000" font-family="sans-serif" font-size="14" lengthAdjust="spacing" textLength="48" x="1145" y="72.9951">:Route</text><rect fill="#FEFECE" filter="url(#f1i0tgay947sgl)" height="30.2969" style="stroke:#A80036;stroke-width:1.5;" width="62" x="1138" y="491.7578"/><text fill="#000000" font-family="sans-serif" font-size="14" lengthAdjust="spacing" textLength="48" x="1145" y="511.7529">:Route</text><rect fill="#FEFECE" filter="url(#f1i0tgay947sgl)" height="30.2969" style="stroke:#A80036;stroke-width:1.5;" width="113" x="1269.5" y="53"/><text fill="#000000" font-family="sans-serif" font-size="14" lengthAdjust="spacing" textLength="99" x="1276.5" y="72.9951">:ShipDynamic</text><rect fill="#FEFECE" filter="url(#f1i0tgay947sgl)" height="30.2969" style="stroke:#A80036;stroke-width:1.5;" width="113" x="1269.5" y="491.7578"/><text fill="#000000" font-family="sans-serif" font-size="14" lengthAdjust="spacing" textLength="99" x="1276.5" y="511.7529">:ShipDynamic</text><rect fill="#FEFECE" filter="url(#f1i0tgay947sgl)" height="30.2969" style="stroke:#A80036;stroke-width:1.5;" width="90" x="1557" y="53"/><text fill="#000000" font-family="sans-serif" font-size="14" lengthAdjust="spacing" textLength="76" x="1564" y="72.9951">:PortStore</text><rect fill="#FEFECE" filter="url(#f1i0tgay947sgl)" height="30.2969" style="stroke:#A80036;stroke-width:1.5;" width="90" x="1557" y="491.7578"/><text fill="#000000" font-family="sans-serif" font-size="14" lengthAdjust="spacing" textLength="76" x="1564" y="511.7529">:PortStore</text><rect fill="#FEFECE" filter="url(#f1i0tgay947sgl)" height="30.2969" style="stroke:#A80036;stroke-width:1.5;" width="50" x="1788" y="53"/><text fill="#000000" font-family="sans-serif" font-size="14" lengthAdjust="spacing" textLength="36" x="1795" y="72.9951">:Port</text><rect fill="#FEFECE" filter="url(#f1i0tgay947sgl)" height="30.2969" style="stroke:#A80036;stroke-width:1.5;" width="50" x="1788" y="491.7578"/><text fill="#000000" font-family="sans-serif" font-size="14" lengthAdjust="spacing" textLength="36" x="1795" y="511.7529">:Port</text><rect fill="#FFFFFF" filter="url(#f1i0tgay947sgl)" height="385.4609" style="stroke:#A80036;stroke-width:1.0;" width="10" x="59" y="98.2969"/><rect fill="#FFFFFF" filter="url(#f1i0tgay947sgl)" height="29.1328" style="stroke:#A80036;stroke-width:1.0;" width="10" x="367" y="119.4297"/><rect fill="#FFFFFF" filter="url(#f1i0tgay947sgl)" height="30" style="stroke:#A80036;stroke-width:1.0;" width="10" x="367" y="444.7578"/><rect fill="#FFFFFF" filter="url(#f1i0tgay947sgl)" height="53.2656" style="stroke:#A80036;stroke-width:1.0;" width="10" x="727" y="148.5625"/><rect fill="#FFFFFF" filter="url(#f1i0tgay947sgl)" height="95.2656" style="stroke:#A80036;stroke-width:1.0;" width="10" x="881" y="201.8281"/><rect fill="#FFFFFF" filter="url(#f1i0tgay947sgl)" height="30" style="stroke:#A80036;stroke-width:1.0;" width="10" x="1063" y="230.9609"/><rect fill="#FFFFFF" filter="url(#f1i0tgay947sgl)" height="29.1328" style="stroke:#A80036;stroke-width:1.0;" width="10" x="1166" y="297.0938"/><rect fill="#FFFFFF" filter="url(#f1i0tgay947sgl)" height="68.2656" style="stroke:#A80036;stroke-width:1.0;" width="10" x="1323" y="326.2266"/><rect fill="#FFFFFF" filter="url(#f1i0tgay947sgl)" height="317.3281" style="stroke:#A80036;stroke-width:1.0;" width="10" x="1599" y="98.2969"/><rect fill="#FFFFFF" filter="url(#f1i0tgay947sgl)" height="68.1328" style="stroke:#A80036;stroke-width:1.0;" width="10" x="1810" y="415.625"/><polygon fill="#A80036" points="355,115.4297,365,119.4297,355,123.4297,359,119.4297" style="stroke:#A80036;stroke-width:1.0;"/><line style="stroke:#A80036;stroke-width:1.0;" x1="69" x2="361" y1="119.4297" y2="119.4297"/><text fill="#000000" font-family="sans-serif" font-size="13" font-weight="bold" lengthAdjust="spacing" textLength="9" x="76" y="114.3638">1</text><text fill="#000000" font-family="sans-serif" font-size="13" lengthAdjust="spacing" textLength="266" x="89" y="114.3638">Chooses a certain callSign and Date Time</text><polygon fill="#A80036" points="715,144.5625,725,148.5625,715,152.5625,719,148.5625" style="stroke:#A80036;stroke-width:1.0;"/><line style="stroke:#A80036;stroke-width:1.0;" x1="372" x2="721" y1="148.5625" y2="148.5625"/><text fill="#000000" font-family="sans-serif" font-size="13" font-weight="bold" lengthAdjust="spacing" textLength="9" x="379" y="143.4966">2</text><text fill="#000000" font-family="sans-serif" font-size="13" lengthAdjust="spacing" textLength="318" x="392" y="143.4966">findShipDynamicUsingCallSign(callSign,DateTime)</text><path d="M674.5,163.5625 L752.5,163.5625 L752.5,170.5625 L742.5,180.5625 L674.5,180.5625 L674.5,163.5625 " fill="#EEEEEE" style="stroke:#000000;stroke-width:1.0;"/><rect fill="none" height="105.3984" style="stroke:#000000;stroke-width:2.0;" width="463.5" x="674.5" y="163.5625"/><text fill="#000000" font-family="sans-serif" font-size="13" font-weight="bold" lengthAdjust="spacing" textLength="33" x="689.5" y="176.6294">loop</text><text fill="#000000" font-family="sans-serif" font-size="11" font-weight="bold" lengthAdjust="spacing" textLength="86" x="767.5" y="175.7729">[for callsign]</text><polygon fill="#A80036" points="869,197.8281,879,201.8281,869,205.8281,873,201.8281" style="stroke:#A80036;stroke-width:1.0;"/><line style="stroke:#A80036;stroke-width:1.0;" x1="732" x2="875" y1="201.8281" y2="201.8281"/><text fill="#000000" font-family="sans-serif" font-size="13" font-weight="bold" lengthAdjust="spacing" textLength="8" x="739" y="196.7622">3</text><text fill="#000000" font-family="sans-serif" font-size="13" lengthAdjust="spacing" textLength="113" x="751" y="196.7622">getIdentification()</text><polygon fill="#A80036" points="1051,226.9609,1061,230.9609,1051,234.9609,1055,230.9609" style="stroke:#A80036;stroke-width:1.0;"/><line style="stroke:#A80036;stroke-width:1.0;" x1="891" x2="1057" y1="230.9609" y2="230.9609"/><text fill="#000000" font-family="sans-serif" font-size="13" font-weight="bold" lengthAdjust="spacing" textLength="9" x="898" y="225.895">4</text><text fill="#000000" font-family="sans-serif" font-size="13" lengthAdjust="spacing" textLength="140" x="911" y="225.895">callsign= getcallSign()</text><polygon fill="#A80036" points="1154,293.0938,1164,297.0938,1154,301.0938,1158,297.0938" style="stroke:#A80036;stroke-width:1.0;"/><line style="stroke:#A80036;stroke-width:1.0;" x1="886" x2="1160" y1="297.0938" y2="297.0938"/><text fill="#000000" font-family="sans-serif" font-size="13" font-weight="bold" lengthAdjust="spacing" textLength="9" x="893" y="292.0278">5</text><text fill="#000000" font-family="sans-serif" font-size="13" lengthAdjust="spacing" textLength="69" x="906" y="292.0278">getRoute()</text><polygon fill="#A80036" points="1311,322.2266,1321,326.2266,1311,330.2266,1315,326.2266" style="stroke:#A80036;stroke-width:1.0;"/><line style="stroke:#A80036;stroke-width:1.0;" x1="1171" x2="1317" y1="326.2266" y2="326.2266"/><text fill="#000000" font-family="sans-serif" font-size="13" font-weight="bold" lengthAdjust="spacing" textLength="9" x="1178" y="321.1606">6</text><text fill="#000000" font-family="sans-serif" font-size="13" lengthAdjust="spacing" textLength="115" x="1191" y="321.1606">getShipDynamic()</text><path d="M1259.5,341.2266 L1337.5,341.2266 L1337.5,348.2266 L1327.5,358.2266 L1259.5,358.2266 L1259.5,341.2266 " fill="#EEEEEE" style="stroke:#000000;stroke-width:1.0;"/><rect fill="none" height="46.2656" style="stroke:#000000;stroke-width:2.0;" width="421" x="1259.5" y="341.2266"/><text fill="#000000" font-family="sans-serif" font-size="13" font-weight="bold" lengthAdjust="spacing" textLength="33" x="1274.5" y="354.2935">loop</text><text fill="#000000" font-family="sans-serif" font-size="11" font-weight="bold" lengthAdjust="spacing" textLength="323" x="1352.5" y="353.437">[to find the correct message for the date time]</text><polygon fill="#A80036" points="1587,375.4922,1597,379.4922,1587,383.4922,1591,379.4922" style="stroke:#A80036;stroke-width:1.0;"/><line style="stroke:#A80036;stroke-width:1.0;" x1="1333" x2="1593" y1="379.4922" y2="379.4922"/><text fill="#000000" font-family="sans-serif" font-size="13" font-weight="bold" lengthAdjust="spacing" textLength="9" x="1340" y="374.4263">7</text><text fill="#000000" font-family="sans-serif" font-size="13" lengthAdjust="spacing" textLength="234" x="1353" y="374.4263">findNearestNeighbour(sdLong,sdLat)</text><polygon fill="#A80036" points="1798,411.625,1808,415.625,1798,419.625,1802,415.625" style="stroke:#A80036;stroke-width:1.0;"/><line style="stroke:#A80036;stroke-width:1.0;" x1="1604" x2="1804" y1="415.625" y2="415.625"/><text fill="#000000" font-family="sans-serif" font-size="13" font-weight="bold" lengthAdjust="spacing" textLength="9" x="1611" y="410.5591">8</text><text fill="#000000" font-family="sans-serif" font-size="13" lengthAdjust="spacing" textLength="169" x="1624" y="410.5591">findNearestNeighbour(x,y)</text><polygon fill="#A80036" points="388,440.7578,378,444.7578,388,448.7578,384,444.7578" style="stroke:#A80036;stroke-width:1.0;"/><line style="stroke:#A80036;stroke-width:1.0;" x1="382" x2="1809" y1="444.7578" y2="444.7578"/><text fill="#000000" font-family="sans-serif" font-size="13" font-weight="bold" lengthAdjust="spacing" textLength="9" x="394" y="439.6919">9</text><text fill="#000000" font-family="sans-serif" font-size="13" lengthAdjust="spacing" textLength="65" x="407" y="439.6919">printPort()</text><!--MD5=[8e45a11f1b0580520cee01a8d513ca01]
@startuml
autonumber
actor "Traffic Manager" as TM
participant ":ShipStoreTest" as SST
participant ":ShipStore" as SS
participant ":Ship" as S
participant ":Identification" as ID
participant ":Route" as R
participant ":ShipDynamic" as SD
participant ":PortStore" as PS
participant ":Port" as P
activate TM
TM -> SST: Chooses a certain callSign and Date Time
activate SST
SST -> SS :findShipDynamicUsingCallSign(callSign,DateTime)
deactivate SST
activate SS
loop for callsign
SS -> S : getIdentification()
deactivate SS
activate S
S -> ID : callsign= getcallSign()
activate ID
deactivate ID
end loop
S -> R : getRoute()
deactivate S
activate R
R -> SD : getShipDynamic()
deactivate R
loop to find the correct message for the date time
activate SD
SD -> PS :findNearestNeighbour(sdLong,sdLat)
end loop
deactivate SD
activate PS
PS -> P :findNearestNeighbour(x,y)
deactivate PS
activate P
deactivate P
P -> SST: printPort()
activate SST
deactivate SST
@enduml

PlantUML version 1.2021.15beta8(Unknown compile time)
(GPL source distribution)
Java Runtime: Java(TM) SE Runtime Environment
JVM: Java HotSpot(TM) 64-Bit Server VM
Default Encoding: UTF-8
Language: en
Country: US
--></g></svg>