<?xml version="1.0" encoding="UTF-8" standalone="no"?><svg xmlns="http://www.w3.org/2000/svg" xmlns:xlink="http://www.w3.org/1999/xlink" contentScriptType="application/ecmascript" contentStyleType="text/css" height="309px" preserveAspectRatio="none" style="width:515px;height:309px;background:#FFFFFF;" version="1.1" viewBox="0 0 515 309" width="515px" zoomAndPan="magnify"><defs><filter height="300%" id="fx5f3ie7v37ib" width="300%" x="-1" y="-1"><feGaussianBlur result="blurOut" stdDeviation="2.0"/><feColorMatrix in="blurOut" result="blurOut2" type="matrix" values="0 0 0 0 0 0 0 0 0 0 0 0 0 0 0 0 0 0 .4 0"/><feOffset dx="4.0" dy="4.0" in="blurOut2" result="blurOut3"/><feBlend in="SourceGraphic" in2="blurOut3" mode="normal"/></filter></defs><g><rect fill="#FFFFFF" filter="url(#fx5f3ie7v37ib)" height="108.5313" style="stroke:#A80036;stroke-width:1.0;" width="10" x="59" y="98.2969"/><rect fill="#FFFFFF" filter="url(#fx5f3ie7v37ib)" height="29.1328" style="stroke:#A80036;stroke-width:1.0;" width="10" x="462" y="119.4297"/><rect fill="#FFFFFF" filter="url(#fx5f3ie7v37ib)" height="29.1328" style="stroke:#A80036;stroke-width:1.0;" width="10" x="462" y="177.6953"/><line style="stroke:#A80036;stroke-width:1.0;stroke-dasharray:5.0,5.0;" x1="64" x2="64" y1="88.2969" y2="224.8281"/><line style="stroke:#A80036;stroke-width:1.0;stroke-dasharray:5.0,5.0;" x1="466.5" x2="466.5" y1="88.2969" y2="224.8281"/><text fill="#000000" font-family="sans-serif" font-size="14" lengthAdjust="spacing" textLength="112" x="5" y="84.9951">Traffic Manager</text><ellipse cx="64" cy="15" fill="#FEFECE" filter="url(#fx5f3ie7v37ib)" rx="8" ry="8" style="stroke:#A80036;stroke-width:2.0;"/><path d="M64,23 L64,50 M51,31 L77,31 M64,50 L51,65 M64,50 L77,65 " fill="none" filter="url(#fx5f3ie7v37ib)" style="stroke:#A80036;stroke-width:2.0;"/><text fill="#000000" font-family="sans-serif" font-size="14" lengthAdjust="spacing" textLength="112" x="5" y="236.8232">Traffic Manager</text><ellipse cx="64" cy="250.125" fill="#FEFECE" filter="url(#fx5f3ie7v37ib)" rx="8" ry="8" style="stroke:#A80036;stroke-width:2.0;"/><path d="M64,258.125 L64,285.125 M51,266.125 L77,266.125 M64,285.125 L51,300.125 M64,285.125 L77,300.125 " fill="none" filter="url(#fx5f3ie7v37ib)" style="stroke:#A80036;stroke-width:2.0;"/><rect fill="#FEFECE" filter="url(#fx5f3ie7v37ib)" height="30.2969" style="stroke:#A80036;stroke-width:1.5;" width="73" x="428.5" y="53"/><text fill="#000000" font-family="sans-serif" font-size="14" lengthAdjust="spacing" textLength="59" x="435.5" y="72.9951">:System</text><rect fill="#FEFECE" filter="url(#fx5f3ie7v37ib)" height="30.2969" style="stroke:#A80036;stroke-width:1.5;" width="73" x="428.5" y="223.8281"/><text fill="#000000" font-family="sans-serif" font-size="14" lengthAdjust="spacing" textLength="59" x="435.5" y="243.8232">:System</text><rect fill="#FFFFFF" filter="url(#fx5f3ie7v37ib)" height="108.5313" style="stroke:#A80036;stroke-width:1.0;" width="10" x="59" y="98.2969"/><rect fill="#FFFFFF" filter="url(#fx5f3ie7v37ib)" height="29.1328" style="stroke:#A80036;stroke-width:1.0;" width="10" x="462" y="119.4297"/><rect fill="#FFFFFF" filter="url(#fx5f3ie7v37ib)" height="29.1328" style="stroke:#A80036;stroke-width:1.0;" width="10" x="462" y="177.6953"/><polygon fill="#A80036" points="450,115.4297,460,119.4297,450,123.4297,454,119.4297" style="stroke:#A80036;stroke-width:1.0;"/><line style="stroke:#A80036;stroke-width:1.0;" x1="69" x2="456" y1="119.4297" y2="119.4297"/><text fill="#000000" font-family="sans-serif" font-size="13" font-weight="bold" lengthAdjust="spacing" textLength="9" x="76" y="114.3638">1</text><text fill="#000000" font-family="sans-serif" font-size="13" lengthAdjust="spacing" textLength="288" x="89" y="114.3638">chooses a ship(with callSign) to find a port of</text><polygon fill="#A80036" points="80,144.5625,70,148.5625,80,152.5625,76,148.5625" style="stroke:#A80036;stroke-width:1.0;"/><line style="stroke:#A80036;stroke-width:1.0;stroke-dasharray:2.0,2.0;" x1="74" x2="466" y1="148.5625" y2="148.5625"/><text fill="#000000" font-family="sans-serif" font-size="13" font-weight="bold" lengthAdjust="spacing" textLength="9" x="86" y="143.4966">2</text><text fill="#000000" font-family="sans-serif" font-size="13" lengthAdjust="spacing" textLength="225" x="99" y="143.4966">shows the traffic manager the port</text><polygon fill="#A80036" points="450,173.6953,460,177.6953,450,181.6953,454,177.6953" style="stroke:#A80036;stroke-width:1.0;"/><line style="stroke:#A80036;stroke-width:1.0;" x1="69" x2="456" y1="177.6953" y2="177.6953"/><text fill="#000000" font-family="sans-serif" font-size="13" font-weight="bold" lengthAdjust="spacing" textLength="8" x="76" y="172.6294">3</text><text fill="#000000" font-family="sans-serif" font-size="13" lengthAdjust="spacing" textLength="114" x="88" y="172.6294">confirms the data</text><polygon fill="#A80036" points="75,202.8281,65,206.8281,75,210.8281,71,206.8281" style="stroke:#A80036;stroke-width:1.0;"/><line style="stroke:#A80036;stroke-width:1.0;stroke-dasharray:2.0,2.0;" x1="69" x2="466" y1="206.8281" y2="206.8281"/><text fill="#000000" font-family="sans-serif" font-size="13" font-weight="bold" lengthAdjust="spacing" textLength="9" x="81" y="201.7622">4</text><text fill="#000000" font-family="sans-serif" font-size="13" lengthAdjust="spacing" textLength="356" x="94" y="201.7622">creates output file with the corresponding ship and port</text><!--MD5=[ad6d0aba7691473783c4abd1c454f74d]
@startuml
autonumber
actor "Traffic Manager" as TM

activate TM
TM-> ":System" : chooses a ship(with callSign) to find a port of 
activate ":System"
":System" - -> TM : shows the traffic manager the port 
deactivate ":System"

TM -> ":System" : confirms the data
activate ":System"
":System" - -> TM : creates output file with the corresponding ship and port 
deactivate ":System"

deactivate TM
@enduml

PlantUML version 1.2021.15beta2(Unknown compile time)
(GPL source distribution)
Java Runtime: Java(TM) SE Runtime Environment
JVM: Java HotSpot(TM) 64-Bit Server VM
Default Encoding: UTF-8
Language: en
Country: US
--></g></svg>